<svg width="280" height="280" viewBox="0 0 280 280" fill="none" xmlns="http://www.w3.org/2000/svg">
<rect width="280" height="280" rx="20" fill="white"/>
<g filter="url(#filter0_d_488_1201)">
<rect x="40" y="62" width="80" height="80" rx="20" fill="white"/>
</g>
<g filter="url(#filter1_d_488_1201)">
<rect x="40" y="182" width="80" height="80" rx="20" fill="white"/>
</g>
<g filter="url(#filter2_d_488_1201)">
<rect x="160" y="182" width="80" height="80" rx="20" fill="white"/>
</g>
<g filter="url(#filter3_d_488_1201)">
<rect x="160" y="62" width="80" height="80" rx="20" fill="white"/>
</g>
<g filter="url(#filter4_dd_488_1201)">
<path d="M77.4086 75.8182V86H75.2559V77.8615H75.1962L72.8646 79.3232V77.4141L75.3852 75.8182H77.4086ZM79.8533 86V84.4489L83.4776 81.093C83.7858 80.7947 84.0443 80.5263 84.2532 80.2876C84.4653 80.049 84.626 79.8153 84.7354 79.5866C84.8448 79.3546 84.8995 79.1044 84.8995 78.8359C84.8995 78.5376 84.8315 78.2808 84.6956 78.0653C84.5597 77.8466 84.3741 77.6792 84.1388 77.5632C83.9035 77.4439 83.6367 77.3842 83.3384 77.3842C83.0268 77.3842 82.755 77.4472 82.523 77.5732C82.291 77.6991 82.1121 77.8797 81.9861 78.1151C81.8602 78.3504 81.7972 78.6304 81.7972 78.9553H79.7539C79.7539 78.2891 79.9047 77.7107 80.2063 77.2202C80.5079 76.7296 80.9305 76.3501 81.474 76.0817C82.0176 75.8132 82.644 75.679 83.3533 75.679C84.0825 75.679 84.7172 75.8082 85.2574 76.0668C85.801 76.322 86.2236 76.6766 86.5252 77.1307C86.8268 77.5848 86.9776 78.1051 86.9776 78.6918C86.9776 79.0762 86.9014 79.4557 86.7489 79.8303C86.5997 80.2048 86.3329 80.6207 85.9485 81.0781C85.564 81.5322 85.0221 82.0774 84.3228 82.7138L82.8363 84.1705V84.2401H87.1118V86H79.8533Z" fill="black"/>
<path d="M60.0667 109V98.8182H63.8848C64.667 98.8182 65.3233 98.964 65.8536 99.2557C66.3872 99.5473 66.7899 99.9484 67.0617 100.459C67.3368 100.966 67.4743 101.543 67.4743 102.189C67.4743 102.842 67.3368 103.422 67.0617 103.929C66.7866 104.436 66.3806 104.835 65.8437 105.127C65.3067 105.415 64.6455 105.56 63.86 105.56H61.3295V104.043H63.6114C64.0688 104.043 64.4433 103.964 64.735 103.805C65.0267 103.646 65.2421 103.427 65.3813 103.148C65.5238 102.87 65.5951 102.55 65.5951 102.189C65.5951 101.828 65.5238 101.509 65.3813 101.234C65.2421 100.959 65.025 100.746 64.73 100.593C64.4384 100.437 64.0622 100.359 63.6015 100.359H61.9111V109H60.0667ZM73.8888 105.788V101.364H75.6886V109H73.9435V107.643H73.864C73.6916 108.07 73.4083 108.42 73.0138 108.692C72.6227 108.964 72.1405 109.099 71.5671 109.099C71.0666 109.099 70.6242 108.988 70.2397 108.766C69.8585 108.541 69.5602 108.214 69.3448 107.787C69.1294 107.356 69.0217 106.836 69.0217 106.226V101.364H70.8214V105.947C70.8214 106.431 70.9539 106.816 71.2191 107.101C71.4843 107.386 71.8323 107.528 72.2631 107.528C72.5283 107.528 72.7852 107.464 73.0337 107.335C73.2823 107.205 73.4861 107.013 73.6452 106.758C73.8076 106.499 73.8888 106.176 73.8888 105.788ZM77.6436 109V98.8182H79.4433V102.626H79.5178C79.6106 102.441 79.7416 102.244 79.9106 102.035C80.0796 101.823 80.3083 101.642 80.5967 101.493C80.885 101.34 81.2529 101.264 81.7004 101.264C82.2903 101.264 82.8223 101.415 83.2963 101.717C83.7735 102.015 84.1514 102.457 84.4298 103.044C84.7115 103.627 84.8524 104.343 84.8524 105.192C84.8524 106.03 84.7148 106.743 84.4397 107.33C84.1646 107.916 83.7901 108.364 83.3161 108.672C82.8422 108.98 82.3052 109.134 81.7053 109.134C81.2678 109.134 80.9049 109.061 80.6166 108.915C80.3282 108.77 80.0962 108.594 79.9205 108.388C79.7482 108.18 79.614 107.982 79.5178 107.797H79.4134V109H77.6436ZM79.4085 105.182C79.4085 105.676 79.4781 106.108 79.6173 106.479C79.7598 106.851 79.9636 107.141 80.2288 107.349C80.4972 107.555 80.8221 107.658 81.2032 107.658C81.6009 107.658 81.934 107.552 82.2025 107.339C82.471 107.124 82.6731 106.831 82.809 106.46C82.9482 106.085 83.0178 105.659 83.0178 105.182C83.0178 104.708 82.9499 104.287 82.814 103.919C82.6781 103.551 82.4759 103.263 82.2075 103.054C81.939 102.845 81.6043 102.741 81.2032 102.741C80.8187 102.741 80.4923 102.842 80.2238 103.044C79.9553 103.246 79.7515 103.53 79.6123 103.894C79.4764 104.259 79.4085 104.688 79.4085 105.182ZM88.2069 98.8182V109H86.4071V98.8182H88.2069ZM90.0823 109V101.364H91.882V109H90.0823ZM90.9871 100.28C90.7021 100.28 90.4568 100.185 90.2513 99.9964C90.0458 99.8042 89.9431 99.5739 89.9431 99.3054C89.9431 99.0336 90.0458 98.8033 90.2513 98.6143C90.4568 98.4221 90.7021 98.326 90.9871 98.326C91.2755 98.326 91.5207 98.4221 91.7229 98.6143C91.9284 98.8033 92.0312 99.0336 92.0312 99.3054C92.0312 99.5739 91.9284 99.8042 91.7229 99.9964C91.5207 100.185 91.2755 100.28 90.9871 100.28ZM97.0884 109.149C96.3261 109.149 95.6715 108.982 95.1246 108.647C94.5811 108.312 94.1618 107.85 93.8668 107.26C93.5752 106.667 93.4293 105.984 93.4293 105.212C93.4293 104.436 93.5785 103.752 93.8768 103.158C94.1751 102.562 94.596 102.098 95.1396 101.766C95.6864 101.432 96.3327 101.264 97.0785 101.264C97.6983 101.264 98.2468 101.379 98.7241 101.607C99.2047 101.833 99.5875 102.152 99.8725 102.567C100.158 102.978 100.32 103.458 100.36 104.009H98.6396C98.57 103.641 98.4042 103.334 98.1424 103.089C97.8839 102.84 97.5375 102.716 97.1033 102.716C96.7354 102.716 96.4123 102.815 96.1339 103.014C95.8555 103.21 95.6384 103.491 95.4826 103.859C95.3301 104.227 95.2539 104.668 95.2539 105.182C95.2539 105.702 95.3301 106.15 95.4826 106.524C95.6351 106.895 95.8488 107.182 96.1239 107.384C96.4023 107.583 96.7288 107.683 97.1033 107.683C97.3685 107.683 97.6055 107.633 97.8143 107.533C98.0264 107.431 98.2037 107.283 98.3462 107.091C98.4888 106.899 98.5865 106.665 98.6396 106.39H100.36C100.317 106.93 100.158 107.409 99.8825 107.827C99.6074 108.241 99.2328 108.566 98.7589 108.801C98.2849 109.033 97.7281 109.149 97.0884 109.149ZM60.2418 126V115.818H64.1396C64.8754 115.818 65.4869 115.934 65.9741 116.166C66.4646 116.395 66.8308 116.708 67.0728 117.106C67.3181 117.504 67.4407 117.954 67.4407 118.458C67.4407 118.872 67.3611 119.227 67.2021 119.522C67.043 119.814 66.8292 120.051 66.5607 120.233C66.2923 120.415 65.9923 120.546 65.6609 120.626V120.725C66.0221 120.745 66.3685 120.856 66.6999 121.058C67.0347 121.257 67.3081 121.539 67.5202 121.903C67.7324 122.268 67.8384 122.709 67.8384 123.226C67.8384 123.753 67.7108 124.227 67.4556 124.648C67.2004 125.065 66.8159 125.395 66.3022 125.637C65.7885 125.879 65.1422 126 64.3633 126H60.2418ZM62.0863 124.459H64.07C64.7395 124.459 65.2217 124.331 65.5167 124.076C65.815 123.817 65.9641 123.486 65.9641 123.082C65.9641 122.78 65.8896 122.508 65.7404 122.266C65.5913 122.021 65.3791 121.829 65.104 121.69C64.829 121.547 64.5008 121.476 64.1197 121.476H62.0863V124.459ZM62.0863 120.148H63.9109C64.229 120.148 64.5157 120.09 64.7709 119.974C65.0262 119.855 65.2267 119.688 65.3725 119.472C65.5217 119.254 65.5962 118.995 65.5962 118.697C65.5962 118.302 65.457 117.978 65.1786 117.722C64.9035 117.467 64.4942 117.339 63.9506 117.339H62.0863V120.148ZM71.5857 126.154C71.1018 126.154 70.6659 126.068 70.2781 125.896C69.8937 125.72 69.5887 125.461 69.3634 125.12C69.1413 124.779 69.0303 124.358 69.0303 123.857C69.0303 123.426 69.1098 123.07 69.2689 122.788C69.428 122.507 69.6451 122.281 69.9202 122.112C70.1953 121.943 70.5052 121.816 70.8499 121.729C71.1979 121.64 71.5575 121.575 71.9287 121.536C72.3762 121.489 72.7391 121.448 73.0175 121.411C73.2959 121.371 73.4981 121.312 73.624 121.232C73.7533 121.149 73.8179 121.022 73.8179 120.849V120.82C73.8179 120.445 73.7069 120.155 73.4848 119.95C73.2628 119.744 72.9429 119.641 72.5253 119.641C72.0845 119.641 71.7348 119.737 71.4763 119.93C71.2211 120.122 71.0487 120.349 70.9592 120.611L69.2789 120.372C69.4114 119.908 69.6302 119.52 69.9351 119.209C70.24 118.894 70.6129 118.659 71.0537 118.503C71.4945 118.344 71.9817 118.264 72.5154 118.264C72.8833 118.264 73.2495 118.307 73.6141 118.393C73.9787 118.48 74.3118 118.622 74.6134 118.821C74.915 119.017 75.1569 119.283 75.3392 119.621C75.5248 119.96 75.6176 120.382 75.6176 120.889V126H73.8875V124.951H73.8279C73.7185 125.163 73.5644 125.362 73.3655 125.548C73.17 125.73 72.923 125.877 72.6247 125.99C72.3298 126.099 71.9834 126.154 71.5857 126.154ZM72.053 124.832C72.4143 124.832 72.7275 124.76 72.9926 124.618C73.2578 124.472 73.4616 124.28 73.6041 124.041C73.75 123.803 73.8229 123.542 73.8229 123.261V122.361C73.7665 122.407 73.6704 122.45 73.5345 122.49C73.402 122.53 73.2528 122.565 73.0871 122.594C72.9214 122.624 72.7573 122.651 72.5949 122.674C72.4325 122.697 72.2916 122.717 72.1723 122.734C71.9039 122.77 71.6636 122.83 71.4514 122.913C71.2393 122.996 71.0719 123.112 70.9493 123.261C70.8267 123.406 70.7654 123.595 70.7654 123.827C70.7654 124.159 70.8863 124.409 71.1283 124.578C71.3702 124.747 71.6785 124.832 72.053 124.832ZM79.2518 121.526V126H77.4521V118.364H79.1722V119.661H79.2617C79.4374 119.234 79.7174 118.894 80.1019 118.642C80.4897 118.39 80.9686 118.264 81.5387 118.264C82.0657 118.264 82.5247 118.377 82.9158 118.602C83.3103 118.828 83.6152 119.154 83.8306 119.582C84.0494 120.009 84.1571 120.528 84.1538 121.138V126H82.354V121.416C82.354 120.906 82.2215 120.506 81.9563 120.218C81.6945 119.93 81.3316 119.786 80.8675 119.786C80.5527 119.786 80.2726 119.855 80.0273 119.994C79.7854 120.13 79.5948 120.327 79.4556 120.586C79.3197 120.844 79.2518 121.158 79.2518 121.526ZM87.6487 123.604L87.6437 121.431H87.9321L90.6764 118.364H92.7794L89.4037 122.122H89.0308L87.6487 123.604ZM86.0081 126V115.818H87.8078V126H86.0081ZM90.8007 126L88.3149 122.525L89.528 121.257L92.9534 126H90.8007ZM100.039 120.382L98.3984 120.561C98.352 120.395 98.2708 120.24 98.1548 120.094C98.0421 119.948 97.8897 119.83 97.6974 119.741C97.5052 119.651 97.2699 119.607 96.9915 119.607C96.617 119.607 96.3021 119.688 96.0469 119.85C95.795 120.013 95.6707 120.223 95.674 120.482C95.6707 120.704 95.7519 120.884 95.9176 121.023C96.0867 121.163 96.3651 121.277 96.7528 121.366L98.0554 121.645C98.7779 121.801 99.3149 122.048 99.6662 122.386C100.021 122.724 100.2 123.166 100.203 123.713C100.2 124.194 100.059 124.618 99.7805 124.986C99.5054 125.35 99.1226 125.635 98.6321 125.841C98.1416 126.046 97.5781 126.149 96.9418 126.149C96.0071 126.149 95.2547 125.954 94.6847 125.562C94.1146 125.168 93.7749 124.62 93.6655 123.917L95.4205 123.748C95.5 124.093 95.669 124.353 95.9276 124.528C96.1861 124.704 96.5225 124.792 96.9368 124.792C97.3643 124.792 97.7074 124.704 97.9659 124.528C98.2277 124.353 98.3587 124.136 98.3587 123.877C98.3587 123.658 98.2742 123.478 98.1051 123.335C97.9394 123.193 97.6809 123.083 97.3295 123.007L96.027 122.734C95.2945 122.581 94.7526 122.324 94.4013 121.963C94.05 121.598 93.876 121.138 93.8793 120.581C93.876 120.11 94.0036 119.703 94.2621 119.358C94.5239 119.01 94.8868 118.741 95.3509 118.553C95.8182 118.36 96.3568 118.264 96.9666 118.264C97.8615 118.264 98.5658 118.455 99.0795 118.836C99.5966 119.217 99.9164 119.732 100.039 120.382Z" fill="black"/>
</g>
<g filter="url(#filter5_dd_488_1201)">
<path d="M197.184 75.8182V86H195.032V77.8615H194.972L192.64 79.3232V77.4141L195.161 75.8182H197.184ZM203.537 86.1392C203.013 86.1359 202.508 86.0481 202.02 85.8757C201.536 85.7034 201.102 85.4233 200.718 85.0355C200.333 84.6477 200.028 84.134 199.803 83.4943C199.581 82.8546 199.47 82.0691 199.47 81.1378C199.473 80.2827 199.571 79.5187 199.763 78.8459C199.959 78.1697 200.237 77.5964 200.598 77.1257C200.963 76.6551 201.399 76.2971 201.906 76.0518C202.413 75.8033 202.982 75.679 203.611 75.679C204.291 75.679 204.891 75.8116 205.411 76.0767C205.931 76.3385 206.349 76.6948 206.664 77.1456C206.982 77.5964 207.174 78.1018 207.241 78.6619H205.118C205.035 78.3073 204.861 78.0289 204.596 77.8267C204.33 77.6245 204.002 77.5234 203.611 77.5234C202.948 77.5234 202.445 77.8118 202.1 78.3885C201.758 78.9652 201.584 79.7491 201.578 80.7401H201.647C201.8 80.4384 202.005 80.1816 202.264 79.9695C202.526 79.754 202.822 79.59 203.154 79.4773C203.489 79.3613 203.842 79.3033 204.213 79.3033C204.816 79.3033 205.353 79.4458 205.824 79.7308C206.294 80.0125 206.665 80.4003 206.937 80.8942C207.209 81.388 207.345 81.9531 207.345 82.5895C207.345 83.2789 207.184 83.892 206.863 84.429C206.544 84.9659 206.099 85.3868 205.525 85.6918C204.955 85.9934 204.292 86.1425 203.537 86.1392ZM203.527 84.4489C203.858 84.4489 204.155 84.3693 204.417 84.2102C204.678 84.0511 204.884 83.8357 205.033 83.5639C205.182 83.2921 205.257 82.9872 205.257 82.6491C205.257 82.3111 205.182 82.0078 205.033 81.7393C204.887 81.4709 204.685 81.2571 204.427 81.098C204.168 80.9389 203.873 80.8594 203.542 80.8594C203.293 80.8594 203.063 80.9058 202.851 80.9986C202.642 81.0914 202.458 81.2206 202.299 81.3864C202.143 81.5521 202.02 81.7443 201.931 81.9631C201.841 82.1785 201.797 82.4089 201.797 82.6541C201.797 82.9822 201.871 83.2822 202.02 83.554C202.173 83.8258 202.378 84.0429 202.637 84.2053C202.899 84.3677 203.195 84.4489 203.527 84.4489Z" fill="black"/>
<path d="M177.101 107V96.8182H180.919C181.702 96.8182 182.358 96.964 182.888 97.2557C183.422 97.5473 183.824 97.9484 184.096 98.4588C184.371 98.9659 184.509 99.5426 184.509 100.189C184.509 100.842 184.371 101.422 184.096 101.929C183.821 102.436 183.415 102.835 182.878 103.127C182.341 103.415 181.68 103.56 180.894 103.56H178.364V102.043H180.646C181.103 102.043 181.478 101.964 181.769 101.805C182.061 101.646 182.277 101.427 182.416 101.148C182.558 100.87 182.63 100.55 182.63 100.189C182.63 99.8277 182.558 99.5095 182.416 99.2344C182.277 98.9593 182.059 98.7455 181.765 98.593C181.473 98.4373 181.097 98.3594 180.636 98.3594H178.946V107H177.101ZM186.056 107V99.3636H187.801V100.636H187.881C188.02 100.196 188.259 99.8558 188.597 99.6172C188.938 99.3752 189.327 99.2543 189.765 99.2543C189.864 99.2543 189.975 99.2592 190.098 99.2692C190.224 99.2758 190.328 99.2874 190.411 99.304V100.96C190.335 100.933 190.214 100.91 190.048 100.89C189.886 100.867 189.728 100.855 189.576 100.855C189.248 100.855 188.953 100.926 188.691 101.069C188.433 101.208 188.229 101.402 188.08 101.651C187.93 101.899 187.856 102.186 187.856 102.511V107H186.056ZM191.632 107V99.3636H193.431V107H191.632ZM192.537 98.2798C192.251 98.2798 192.006 98.1854 191.801 97.9964C191.595 97.8042 191.492 97.5739 191.492 97.3054C191.492 97.0336 191.595 96.8033 191.801 96.6143C192.006 96.4221 192.251 96.326 192.537 96.326C192.825 96.326 193.07 96.4221 193.272 96.6143C193.478 96.8033 193.581 97.0336 193.581 97.3054C193.581 97.5739 193.478 97.8042 193.272 97.9964C193.07 98.1854 192.825 98.2798 192.537 98.2798ZM202.128 99.3636L199.408 107H197.42L194.7 99.3636H196.619L198.374 105.036H198.454L200.214 99.3636H202.128ZM205.377 107.154C204.893 107.154 204.457 107.068 204.069 106.896C203.685 106.72 203.38 106.461 203.154 106.12C202.932 105.779 202.821 105.358 202.821 104.857C202.821 104.426 202.901 104.07 203.06 103.788C203.219 103.507 203.436 103.281 203.711 103.112C203.986 102.943 204.296 102.816 204.641 102.729C204.989 102.64 205.349 102.575 205.72 102.536C206.167 102.489 206.53 102.448 206.809 102.411C207.087 102.371 207.289 102.312 207.415 102.232C207.544 102.149 207.609 102.022 207.609 101.849V101.82C207.609 101.445 207.498 101.155 207.276 100.95C207.054 100.744 206.734 100.641 206.316 100.641C205.876 100.641 205.526 100.737 205.267 100.93C205.012 101.122 204.84 101.349 204.75 101.611L203.07 101.372C203.202 100.908 203.421 100.52 203.726 100.209C204.031 99.8939 204.404 99.6586 204.845 99.5028C205.286 99.3438 205.773 99.2642 206.306 99.2642C206.674 99.2642 207.041 99.3073 207.405 99.3935C207.77 99.4796 208.103 99.6222 208.404 99.821C208.706 100.017 208.948 100.283 209.13 100.621C209.316 100.96 209.409 101.382 209.409 101.889V107H207.679V105.951H207.619C207.51 106.163 207.355 106.362 207.157 106.548C206.961 106.73 206.714 106.877 206.416 106.99C206.121 107.099 205.774 107.154 205.377 107.154ZM205.844 105.832C206.205 105.832 206.519 105.76 206.784 105.618C207.049 105.472 207.253 105.28 207.395 105.041C207.541 104.803 207.614 104.542 207.614 104.261V103.361C207.558 103.407 207.461 103.45 207.326 103.49C207.193 103.53 207.044 103.565 206.878 103.594C206.712 103.624 206.548 103.651 206.386 103.674C206.224 103.697 206.083 103.717 205.963 103.734C205.695 103.77 205.455 103.83 205.242 103.913C205.03 103.996 204.863 104.112 204.74 104.261C204.618 104.406 204.556 104.595 204.556 104.827C204.556 105.159 204.677 105.409 204.919 105.578C205.161 105.747 205.47 105.832 205.844 105.832ZM215.056 99.3636V100.756H210.666V99.3636H215.056ZM211.75 97.5341H213.55V104.703C213.55 104.945 213.586 105.131 213.659 105.26C213.736 105.386 213.835 105.472 213.958 105.518C214.08 105.565 214.216 105.588 214.365 105.588C214.478 105.588 214.581 105.58 214.674 105.563C214.77 105.547 214.843 105.532 214.892 105.518L215.196 106.925C215.099 106.959 214.962 106.995 214.783 107.035C214.607 107.075 214.392 107.098 214.137 107.104C213.686 107.118 213.28 107.05 212.919 106.901C212.557 106.748 212.271 106.513 212.058 106.195C211.85 105.876 211.747 105.479 211.75 105.001V97.5341ZM219.885 107.149C219.119 107.149 218.458 106.99 217.901 106.672C217.348 106.35 216.922 105.896 216.624 105.31C216.325 104.72 216.176 104.025 216.176 103.227C216.176 102.441 216.325 101.752 216.624 101.158C216.925 100.562 217.346 100.098 217.886 99.7663C218.427 99.4316 219.061 99.2642 219.79 99.2642C220.261 99.2642 220.705 99.3404 221.123 99.4929C221.544 99.642 221.915 99.8741 222.236 100.189C222.561 100.504 222.816 100.905 223.002 101.392C223.188 101.876 223.281 102.453 223.281 103.122V103.674H217.021V102.461H221.555C221.552 102.116 221.477 101.81 221.332 101.541C221.186 101.269 220.982 101.056 220.72 100.9C220.462 100.744 220.16 100.666 219.815 100.666C219.447 100.666 219.124 100.756 218.846 100.935C218.567 101.11 218.35 101.342 218.195 101.631C218.042 101.916 217.964 102.229 217.961 102.57V103.629C217.961 104.073 218.042 104.455 218.205 104.773C218.367 105.088 218.594 105.33 218.886 105.499C219.177 105.664 219.519 105.747 219.91 105.747C220.172 105.747 220.409 105.711 220.621 105.638C220.833 105.562 221.017 105.451 221.173 105.305C221.328 105.159 221.446 104.978 221.526 104.763L223.206 104.952C223.1 105.396 222.898 105.784 222.599 106.115C222.304 106.443 221.927 106.698 221.466 106.881C221.005 107.06 220.478 107.149 219.885 107.149ZM180.242 124V113.818H184.14C184.875 113.818 185.487 113.934 185.974 114.166C186.465 114.395 186.831 114.708 187.073 115.106C187.318 115.504 187.441 115.954 187.441 116.458C187.441 116.872 187.361 117.227 187.202 117.522C187.043 117.814 186.829 118.051 186.561 118.233C186.292 118.415 185.992 118.546 185.661 118.626V118.725C186.022 118.745 186.368 118.856 186.7 119.058C187.035 119.257 187.308 119.539 187.52 119.903C187.732 120.268 187.838 120.709 187.838 121.226C187.838 121.753 187.711 122.227 187.456 122.648C187.2 123.065 186.816 123.395 186.302 123.637C185.788 123.879 185.142 124 184.363 124H180.242ZM182.086 122.459H184.07C184.739 122.459 185.222 122.331 185.517 122.076C185.815 121.817 185.964 121.486 185.964 121.082C185.964 120.78 185.89 120.508 185.74 120.266C185.591 120.021 185.379 119.829 185.104 119.69C184.829 119.547 184.501 119.476 184.12 119.476H182.086V122.459ZM182.086 118.148H183.911C184.229 118.148 184.516 118.09 184.771 117.974C185.026 117.855 185.227 117.688 185.373 117.472C185.522 117.254 185.596 116.995 185.596 116.697C185.596 116.302 185.457 115.978 185.179 115.722C184.904 115.467 184.494 115.339 183.951 115.339H182.086V118.148ZM191.586 124.154C191.102 124.154 190.666 124.068 190.278 123.896C189.894 123.72 189.589 123.461 189.363 123.12C189.141 122.779 189.03 122.358 189.03 121.857C189.03 121.426 189.11 121.07 189.269 120.788C189.428 120.507 189.645 120.281 189.92 120.112C190.195 119.943 190.505 119.816 190.85 119.729C191.198 119.64 191.557 119.575 191.929 119.536C192.376 119.489 192.739 119.448 193.017 119.411C193.296 119.371 193.498 119.312 193.624 119.232C193.753 119.149 193.818 119.022 193.818 118.849V118.82C193.818 118.445 193.707 118.155 193.485 117.95C193.263 117.744 192.943 117.641 192.525 117.641C192.084 117.641 191.735 117.737 191.476 117.93C191.221 118.122 191.049 118.349 190.959 118.611L189.279 118.372C189.411 117.908 189.63 117.52 189.935 117.209C190.24 116.894 190.613 116.659 191.054 116.503C191.495 116.344 191.982 116.264 192.515 116.264C192.883 116.264 193.249 116.307 193.614 116.393C193.979 116.48 194.312 116.622 194.613 116.821C194.915 117.017 195.157 117.283 195.339 117.621C195.525 117.96 195.618 118.382 195.618 118.889V124H193.888V122.951H193.828C193.718 123.163 193.564 123.362 193.365 123.548C193.17 123.73 192.923 123.877 192.625 123.99C192.33 124.099 191.983 124.154 191.586 124.154ZM192.053 122.832C192.414 122.832 192.727 122.76 192.993 122.618C193.258 122.472 193.462 122.28 193.604 122.041C193.75 121.803 193.823 121.542 193.823 121.261V120.361C193.767 120.407 193.67 120.45 193.535 120.49C193.402 120.53 193.253 120.565 193.087 120.594C192.921 120.624 192.757 120.651 192.595 120.674C192.432 120.697 192.292 120.717 192.172 120.734C191.904 120.77 191.664 120.83 191.451 120.913C191.239 120.996 191.072 121.112 190.949 121.261C190.827 121.406 190.765 121.595 190.765 121.827C190.765 122.159 190.886 122.409 191.128 122.578C191.37 122.747 191.678 122.832 192.053 122.832ZM199.252 119.526V124H197.452V116.364H199.172V117.661H199.262C199.437 117.234 199.717 116.894 200.102 116.642C200.49 116.39 200.969 116.264 201.539 116.264C202.066 116.264 202.525 116.377 202.916 116.602C203.31 116.828 203.615 117.154 203.831 117.582C204.049 118.009 204.157 118.528 204.154 119.138V124H202.354V119.416C202.354 118.906 202.221 118.506 201.956 118.218C201.694 117.93 201.332 117.786 200.868 117.786C200.553 117.786 200.273 117.855 200.027 117.994C199.785 118.13 199.595 118.327 199.456 118.586C199.32 118.844 199.252 119.158 199.252 119.526ZM207.649 121.604L207.644 119.431H207.932L210.676 116.364H212.779L209.404 120.122H209.031L207.649 121.604ZM206.008 124V113.818H207.808V124H206.008ZM210.801 124L208.315 120.525L209.528 119.257L212.953 124H210.801ZM220.039 118.382L218.398 118.561C218.352 118.395 218.271 118.24 218.155 118.094C218.042 117.948 217.89 117.83 217.697 117.741C217.505 117.651 217.27 117.607 216.991 117.607C216.617 117.607 216.302 117.688 216.047 117.85C215.795 118.013 215.671 118.223 215.674 118.482C215.671 118.704 215.752 118.884 215.918 119.023C216.087 119.163 216.365 119.277 216.753 119.366L218.055 119.645C218.778 119.801 219.315 120.048 219.666 120.386C220.021 120.724 220.2 121.166 220.203 121.713C220.2 122.194 220.059 122.618 219.781 122.986C219.505 123.35 219.123 123.635 218.632 123.841C218.142 124.046 217.578 124.149 216.942 124.149C216.007 124.149 215.255 123.954 214.685 123.562C214.115 123.168 213.775 122.62 213.665 121.917L215.42 121.748C215.5 122.093 215.669 122.353 215.928 122.528C216.186 122.704 216.522 122.792 216.937 122.792C217.364 122.792 217.707 122.704 217.966 122.528C218.228 122.353 218.359 122.136 218.359 121.877C218.359 121.658 218.274 121.478 218.105 121.335C217.939 121.193 217.681 121.083 217.33 121.007L216.027 120.734C215.295 120.581 214.753 120.324 214.401 119.963C214.05 119.598 213.876 119.138 213.879 118.581C213.876 118.11 214.004 117.703 214.262 117.358C214.524 117.01 214.887 116.741 215.351 116.553C215.818 116.36 216.357 116.264 216.967 116.264C217.862 116.264 218.566 116.455 219.08 116.836C219.597 117.217 219.916 117.732 220.039 118.382Z" fill="black"/>
</g>
<g filter="url(#filter6_dd_488_1201)">
<path d="M80.9745 206.139C80.2321 206.139 79.5709 206.012 78.9909 205.756C78.4142 205.498 77.9584 205.143 77.6237 204.692C77.2922 204.238 77.1215 203.715 77.1116 203.121H79.2792C79.2925 203.37 79.3737 203.589 79.5228 203.778C79.6753 203.963 79.8775 204.107 80.1294 204.21C80.3812 204.313 80.6646 204.364 80.9795 204.364C81.3076 204.364 81.5976 204.306 81.8495 204.19C82.1014 204.074 82.2986 203.914 82.4411 203.708C82.5837 203.503 82.6549 203.266 82.6549 202.997C82.6549 202.725 82.5787 202.485 82.4262 202.276C82.2771 202.064 82.0616 201.898 81.7799 201.779C81.5015 201.66 81.1701 201.6 80.7856 201.6H79.836V200.019H80.7856C81.1104 200.019 81.3971 199.963 81.6457 199.85C81.8976 199.737 82.0931 199.582 82.2323 199.383C82.3715 199.181 82.4411 198.945 82.4411 198.677C82.4411 198.422 82.3798 198.198 82.2572 198.006C82.1379 197.81 81.9688 197.658 81.7501 197.548C81.5347 197.439 81.2828 197.384 80.9944 197.384C80.7027 197.384 80.4359 197.437 80.194 197.543C79.952 197.646 79.7581 197.794 79.6123 197.986C79.4665 198.178 79.3886 198.403 79.3786 198.662H77.3154C77.3254 198.075 77.4927 197.558 77.8176 197.111C78.1424 196.663 78.5799 196.314 79.1301 196.062C79.6836 195.807 80.3083 195.679 81.0044 195.679C81.707 195.679 82.3218 195.807 82.8488 196.062C83.3758 196.317 83.7851 196.662 84.0768 197.096C84.3718 197.527 84.5176 198.011 84.5143 198.548C84.5176 199.118 84.3403 199.593 83.9823 199.974C83.6277 200.356 83.1653 200.598 82.5953 200.7V200.78C83.3443 200.876 83.9144 201.136 84.3055 201.56C84.6999 201.981 84.8954 202.508 84.8921 203.141C84.8954 203.721 84.7281 204.237 84.39 204.688C84.0553 205.138 83.5929 205.493 83.0029 205.751C82.413 206.01 81.7368 206.139 80.9745 206.139Z" fill="black"/>
<path d="M67.9777 218.617C67.9313 218.183 67.7357 217.845 67.391 217.603C67.0496 217.361 66.6055 217.24 66.0586 217.24C65.6742 217.24 65.3444 217.298 65.0693 217.414C64.7942 217.53 64.5837 217.687 64.4379 217.886C64.2921 218.085 64.2175 218.312 64.2142 218.567C64.2142 218.78 64.2622 218.964 64.3583 219.119C64.4578 219.275 64.592 219.408 64.761 219.517C64.9301 219.623 65.1173 219.713 65.3228 219.786C65.5283 219.858 65.7355 219.92 65.9443 219.969L66.8988 220.208C67.2833 220.298 67.6529 220.419 68.0075 220.571C68.3655 220.723 68.6853 220.916 68.967 221.148C69.2521 221.38 69.4774 221.66 69.6432 221.988C69.8089 222.316 69.8917 222.701 69.8917 223.141C69.8917 223.738 69.7393 224.263 69.4343 224.717C69.1294 225.168 68.6886 225.521 68.1119 225.776C67.5385 226.028 66.8441 226.154 66.0288 226.154C65.2367 226.154 64.5489 226.031 63.9656 225.786C63.3856 225.541 62.9315 225.183 62.6034 224.712C62.2786 224.242 62.1029 223.668 62.0764 222.992H63.891C63.9175 223.347 64.0269 223.642 64.2191 223.877C64.4114 224.112 64.6616 224.288 64.9699 224.404C65.2814 224.52 65.6294 224.578 66.0139 224.578C66.4149 224.578 66.7663 224.518 67.0679 224.399C67.3728 224.277 67.6114 224.107 67.7838 223.892C67.9561 223.673 68.044 223.418 68.0473 223.126C68.044 222.861 67.9661 222.643 67.8136 222.47C67.6611 222.295 67.4474 222.149 67.1723 222.033C66.9005 221.913 66.5823 221.807 66.2177 221.714L65.0593 221.416C64.2208 221.201 63.5579 220.874 63.0707 220.437C62.5868 219.996 62.3449 219.411 62.3449 218.682C62.3449 218.082 62.5073 217.557 62.8321 217.106C63.1602 216.655 63.606 216.305 64.1694 216.057C64.7329 215.805 65.3709 215.679 66.0835 215.679C66.806 215.679 67.4391 215.805 67.9826 216.057C68.5295 216.305 68.9587 216.652 69.2703 217.096C69.5818 217.537 69.7426 218.044 69.7525 218.617H67.9777ZM71.4813 226V218.364H73.2015V219.661H73.291C73.4501 219.224 73.7136 218.882 74.0815 218.637C74.4493 218.388 74.8885 218.264 75.3989 218.264C75.916 218.264 76.3518 218.39 76.7065 218.642C77.0644 218.891 77.3163 219.23 77.4621 219.661H77.5417C77.7107 219.237 77.9958 218.899 78.3968 218.647C78.8011 218.392 79.2801 218.264 79.8336 218.264C80.5362 218.264 81.1096 218.486 81.5538 218.93C81.9979 219.375 82.2199 220.022 82.2199 220.874V226H80.4153V221.153C80.4153 220.679 80.2893 220.332 80.0374 220.114C79.7855 219.892 79.4773 219.781 79.1127 219.781C78.6785 219.781 78.3388 219.916 78.0935 220.188C77.8516 220.457 77.7306 220.806 77.7306 221.237V226H75.9657V221.078C75.9657 220.684 75.8464 220.369 75.6077 220.134C75.3724 219.898 75.0642 219.781 74.683 219.781C74.4245 219.781 74.1892 219.847 73.977 219.979C73.7649 220.109 73.5959 220.293 73.4699 220.531C73.344 220.767 73.281 221.042 73.281 221.357V226H71.4813ZM86.268 226.154C85.7841 226.154 85.3482 226.068 84.9604 225.896C84.576 225.72 84.2711 225.461 84.0457 225.12C83.8236 224.779 83.7126 224.358 83.7126 223.857C83.7126 223.426 83.7921 223.07 83.9512 222.788C84.1103 222.507 84.3274 222.281 84.6025 222.112C84.8776 221.943 85.1875 221.816 85.5322 221.729C85.8802 221.64 86.2398 221.575 86.611 221.536C87.0585 221.489 87.4214 221.448 87.6998 221.411C87.9782 221.371 88.1804 221.312 88.3063 221.232C88.4356 221.149 88.5002 221.022 88.5002 220.849V220.82C88.5002 220.445 88.3892 220.155 88.1671 219.95C87.9451 219.744 87.6252 219.641 87.2076 219.641C86.7668 219.641 86.4171 219.737 86.1586 219.93C85.9034 220.122 85.731 220.349 85.6416 220.611L83.9612 220.372C84.0937 219.908 84.3125 219.52 84.6174 219.209C84.9223 218.894 85.2952 218.659 85.736 218.503C86.1768 218.344 86.664 218.264 87.1977 218.264C87.5656 218.264 87.9318 218.307 88.2964 218.393C88.661 218.48 88.9941 218.622 89.2957 218.821C89.5973 219.017 89.8392 219.283 90.0215 219.621C90.2071 219.96 90.2999 220.382 90.2999 220.889V226H88.5698V224.951H88.5102C88.4008 225.163 88.2467 225.362 88.0478 225.548C87.8523 225.73 87.6053 225.877 87.307 225.99C87.0121 226.099 86.6657 226.154 86.268 226.154ZM86.7353 224.832C87.0966 224.832 87.4098 224.76 87.6749 224.618C87.9401 224.472 88.1439 224.28 88.2864 224.041C88.4323 223.803 88.5052 223.542 88.5052 223.261V222.361C88.4488 222.407 88.3527 222.45 88.2168 222.49C88.0843 222.53 87.9351 222.565 87.7694 222.594C87.6037 222.624 87.4396 222.651 87.2772 222.674C87.1148 222.697 86.9739 222.717 86.8546 222.734C86.5862 222.77 86.3459 222.83 86.1337 222.913C85.9216 222.996 85.7542 223.112 85.6316 223.261C85.509 223.406 85.4477 223.595 85.4477 223.827C85.4477 224.159 85.5686 224.409 85.8106 224.578C86.0525 224.747 86.3608 224.832 86.7353 224.832ZM93.9341 215.818V226H92.1344V215.818H93.9341ZM97.6092 215.818V226H95.8095V215.818H97.6092ZM54.2506 243V232.818H60.7733V234.364H56.095V237.129H60.3259V238.675H56.095V243H54.2506ZM62.3989 243V235.364H64.1986V243H62.3989ZM63.3038 234.28C63.0187 234.28 62.7734 234.185 62.568 233.996C62.3625 233.804 62.2597 233.574 62.2597 233.305C62.2597 233.034 62.3625 232.803 62.568 232.614C62.7734 232.422 63.0187 232.326 63.3038 232.326C63.5921 232.326 63.8374 232.422 64.0395 232.614C64.245 232.803 64.3478 233.034 64.3478 233.305C64.3478 233.574 64.245 233.804 64.0395 233.996C63.8374 234.185 63.5921 234.28 63.3038 234.28ZM67.8738 238.526V243H66.0741V235.364H67.7943V236.661H67.8837C68.0594 236.234 68.3395 235.894 68.7239 235.642C69.1117 235.39 69.5907 235.264 70.1607 235.264C70.6877 235.264 71.1468 235.377 71.5379 235.602C71.9323 235.828 72.2372 236.154 72.4526 236.582C72.6714 237.009 72.7791 237.528 72.7758 238.138V243H70.9761V238.416C70.9761 237.906 70.8435 237.506 70.5783 237.218C70.3165 236.93 69.9536 236.786 69.4896 236.786C69.1747 236.786 68.8946 236.855 68.6494 236.994C68.4074 237.13 68.2168 237.327 68.0776 237.586C67.9417 237.844 67.8738 238.158 67.8738 238.526ZM76.8275 243.154C76.3436 243.154 75.9078 243.068 75.52 242.896C75.1356 242.72 74.8306 242.461 74.6052 242.12C74.3832 241.779 74.2722 241.358 74.2722 240.857C74.2722 240.426 74.3517 240.07 74.5108 239.788C74.6699 239.507 74.887 239.281 75.1621 239.112C75.4372 238.943 75.7471 238.816 76.0918 238.729C76.4398 238.64 76.7994 238.575 77.1706 238.536C77.618 238.489 77.981 238.448 78.2594 238.411C78.5378 238.371 78.74 238.312 78.8659 238.232C78.9952 238.149 79.0598 238.022 79.0598 237.849V237.82C79.0598 237.445 78.9488 237.155 78.7267 236.95C78.5046 236.744 78.1848 236.641 77.7672 236.641C77.3264 236.641 76.9767 236.737 76.7182 236.93C76.463 237.122 76.2906 237.349 76.2011 237.611L74.5207 237.372C74.6533 236.908 74.8721 236.52 75.177 236.209C75.4819 235.894 75.8548 235.659 76.2956 235.503C76.7364 235.344 77.2236 235.264 77.7572 235.264C78.1251 235.264 78.4914 235.307 78.856 235.393C79.2205 235.48 79.5536 235.622 79.8552 235.821C80.1569 236.017 80.3988 236.283 80.5811 236.621C80.7667 236.96 80.8595 237.382 80.8595 237.889V243H79.1294V241.951H79.0697C78.9604 242.163 78.8062 242.362 78.6074 242.548C78.4118 242.73 78.1649 242.877 77.8666 242.99C77.5716 243.099 77.2253 243.154 76.8275 243.154ZM77.2949 241.832C77.6561 241.832 77.9694 241.76 78.2345 241.618C78.4997 241.472 78.7035 241.28 78.846 241.041C78.9918 240.803 79.0648 240.542 79.0648 240.261V239.361C79.0084 239.407 78.9123 239.45 78.7764 239.49C78.6438 239.53 78.4947 239.565 78.329 239.594C78.1632 239.624 77.9992 239.651 77.8368 239.674C77.6744 239.697 77.5335 239.717 77.4142 239.734C77.1457 239.77 76.9054 239.83 76.6933 239.913C76.4812 239.996 76.3138 240.112 76.1912 240.261C76.0686 240.406 76.0072 240.595 76.0072 240.827C76.0072 241.159 76.1282 241.409 76.3702 241.578C76.6121 241.747 76.9204 241.832 77.2949 241.832ZM84.4937 238.526V243H82.6939V235.364H84.4141V236.661H84.5036C84.6793 236.234 84.9593 235.894 85.3438 235.642C85.7316 235.39 86.2105 235.264 86.7806 235.264C87.3076 235.264 87.7666 235.377 88.1577 235.602C88.5521 235.828 88.8571 236.154 89.0725 236.582C89.2912 237.009 89.399 237.528 89.3956 238.138V243H87.5959V238.416C87.5959 237.906 87.4634 237.506 87.1982 237.218C86.9364 236.93 86.5734 236.786 86.1094 236.786C85.7946 236.786 85.5145 236.855 85.2692 236.994C85.0273 237.13 84.8367 237.327 84.6975 237.586C84.5616 237.844 84.4937 238.158 84.4937 238.526ZM94.5809 243.149C93.8186 243.149 93.164 242.982 92.6171 242.647C92.0736 242.312 91.6543 241.85 91.3593 241.26C91.0677 240.667 90.9218 239.984 90.9218 239.212C90.9218 238.436 91.071 237.752 91.3693 237.158C91.6676 236.562 92.0885 236.098 92.6321 235.766C93.1789 235.432 93.8252 235.264 94.571 235.264C95.1908 235.264 95.7393 235.379 96.2166 235.607C96.6972 235.833 97.08 236.152 97.365 236.567C97.6501 236.978 97.8125 237.458 97.8522 238.009H96.1321C96.0625 237.641 95.8967 237.334 95.6349 237.089C95.3764 236.84 95.03 236.716 94.5958 236.716C94.2279 236.716 93.9048 236.815 93.6264 237.014C93.348 237.21 93.1309 237.491 92.9751 237.859C92.8226 238.227 92.7464 238.668 92.7464 239.182C92.7464 239.702 92.8226 240.15 92.9751 240.524C93.1276 240.895 93.3413 241.182 93.6164 241.384C93.8948 241.583 94.2213 241.683 94.5958 241.683C94.861 241.683 95.098 241.633 95.3068 241.533C95.5189 241.431 95.6962 241.283 95.8387 241.091C95.9813 240.899 96.079 240.665 96.1321 240.39H97.8522C97.8091 240.93 97.6501 241.409 97.375 241.827C97.0999 242.241 96.7253 242.566 96.2514 242.801C95.7774 243.033 95.2206 243.149 94.5809 243.149ZM102.735 243.149C101.97 243.149 101.309 242.99 100.752 242.672C100.198 242.35 99.7724 241.896 99.4741 241.31C99.1758 240.72 99.0267 240.025 99.0267 239.227C99.0267 238.441 99.1758 237.752 99.4741 237.158C99.7757 236.562 100.197 236.098 100.737 235.766C101.277 235.432 101.912 235.264 102.641 235.264C103.112 235.264 103.556 235.34 103.973 235.493C104.394 235.642 104.766 235.874 105.087 236.189C105.412 236.504 105.667 236.905 105.853 237.392C106.038 237.876 106.131 238.453 106.131 239.122V239.674H99.8719V238.461H104.406C104.403 238.116 104.328 237.81 104.182 237.541C104.036 237.269 103.833 237.056 103.571 236.9C103.312 236.744 103.011 236.666 102.666 236.666C102.298 236.666 101.975 236.756 101.696 236.935C101.418 237.11 101.201 237.342 101.045 237.631C100.893 237.916 100.815 238.229 100.811 238.57V239.629C100.811 240.073 100.893 240.455 101.055 240.773C101.217 241.088 101.445 241.33 101.736 241.499C102.028 241.664 102.369 241.747 102.76 241.747C103.022 241.747 103.259 241.711 103.471 241.638C103.683 241.562 103.867 241.451 104.023 241.305C104.179 241.159 104.297 240.978 104.376 240.763L106.057 240.952C105.95 241.396 105.748 241.784 105.45 242.115C105.155 242.443 104.777 242.698 104.316 242.881C103.856 243.06 103.329 243.149 102.735 243.149Z" fill="black"/>
</g>
<g filter="url(#filter7_dd_488_1201)">
<path fill-rule="evenodd" clip-rule="evenodd" d="M197.579 206V195.818H195.555L193.035 197.414V199.323L195.366 197.861H195.426V206H197.579ZM202.415 205.876C202.902 206.048 203.407 206.136 203.931 206.139C204.687 206.142 205.35 205.993 205.92 205.692C206.493 205.387 206.939 204.966 207.257 204.429C207.578 203.892 207.739 203.279 207.739 202.589C207.739 201.953 207.603 201.388 207.332 200.894C207.06 200.4 206.689 200.013 206.218 199.731C205.747 199.446 205.21 199.303 204.607 199.303C204.236 199.303 203.883 199.361 203.548 199.477C203.217 199.59 202.92 199.754 202.658 199.969C202.4 200.182 202.194 200.438 202.042 200.74H201.972C201.979 199.749 202.153 198.965 202.494 198.388C202.839 197.812 203.343 197.523 204.006 197.523C204.397 197.523 204.725 197.625 204.99 197.827C205.255 198.029 205.429 198.307 205.512 198.662H207.635C207.569 198.102 207.376 197.596 207.058 197.146C206.743 196.695 206.326 196.339 205.805 196.077C205.285 195.812 204.685 195.679 204.006 195.679C203.376 195.679 202.807 195.803 202.3 196.052C201.793 196.297 201.357 196.655 200.993 197.126C200.632 197.596 200.353 198.17 200.158 198.846C199.965 199.519 199.868 200.283 199.864 201.138C199.864 202.069 199.975 202.855 200.197 203.494C200.423 204.134 200.728 204.648 201.112 205.035C201.497 205.423 201.931 205.703 202.415 205.876ZM204.811 204.21C204.549 204.369 204.252 204.449 203.921 204.449C203.59 204.449 203.293 204.368 203.031 204.205C202.773 204.043 202.567 203.826 202.415 203.554C202.266 203.282 202.191 202.982 202.191 202.654C202.191 202.409 202.236 202.178 202.325 201.963C202.415 201.744 202.537 201.552 202.693 201.386C202.852 201.221 203.036 201.091 203.245 200.999C203.457 200.906 203.687 200.859 203.936 200.859C204.267 200.859 204.562 200.939 204.821 201.098C205.079 201.257 205.282 201.471 205.427 201.739C205.577 202.008 205.651 202.311 205.651 202.649C205.651 202.987 205.577 203.292 205.427 203.564C205.278 203.836 205.073 204.051 204.811 204.21ZM190.242 234V223.818H188.408V230.758H188.318L183.526 223.818H181.875V234H183.719V227.065H183.804L188.602 234H190.242ZM192.277 223.818V234H196.398C197.177 234 197.823 233.879 198.337 233.637C198.851 233.395 199.235 233.065 199.491 232.648C199.746 232.227 199.873 231.753 199.873 231.226C199.873 230.709 199.767 230.268 199.555 229.903C199.343 229.539 199.07 229.257 198.735 229.058C198.403 228.856 198.057 228.745 197.696 228.725V228.626C198.027 228.546 198.327 228.415 198.596 228.233C198.864 228.051 199.078 227.814 199.237 227.522C199.396 227.227 199.476 226.872 199.476 226.458C199.476 225.954 199.353 225.504 199.108 225.106C198.866 224.708 198.499 224.395 198.009 224.166C197.522 223.934 196.91 223.818 196.174 223.818H192.277ZM196.105 232.459H194.121V229.476H196.155C196.536 229.476 196.864 229.547 197.139 229.69C197.414 229.829 197.626 230.021 197.775 230.266C197.924 230.508 197.999 230.78 197.999 231.082C197.999 231.486 197.85 231.817 197.552 232.076C197.257 232.331 196.774 232.459 196.105 232.459ZM195.946 228.148H194.121V225.339H195.986C196.529 225.339 196.938 225.467 197.214 225.722C197.492 225.977 197.631 226.302 197.631 226.697C197.631 226.995 197.557 227.254 197.407 227.472C197.262 227.688 197.061 227.855 196.806 227.974C196.551 228.09 196.264 228.148 195.946 228.148ZM201.503 223.818V234H203.347V229.675H207.578V228.129H203.347V225.364H208.025V223.818H201.503ZM216.586 227.254H218.446C218.37 226.687 218.207 226.183 217.959 225.742C217.713 225.298 217.4 224.924 217.019 224.619C216.638 224.31 216.204 224.077 215.716 223.918C215.229 223.758 214.702 223.679 214.135 223.679C213.247 223.679 212.452 223.886 211.749 224.3C211.046 224.715 210.491 225.313 210.084 226.095C209.676 226.874 209.472 227.812 209.472 228.909C209.472 230.003 209.674 230.941 210.079 231.723C210.483 232.505 211.036 233.103 211.739 233.518C212.442 233.932 213.241 234.139 214.135 234.139C214.742 234.139 215.294 234.05 215.791 233.871C216.288 233.688 216.722 233.437 217.093 233.115C217.465 232.79 217.765 232.416 217.993 231.991C218.225 231.567 218.376 231.113 218.446 230.629L216.586 230.619C216.53 230.918 216.427 231.183 216.278 231.415C216.132 231.647 215.952 231.842 215.736 232.001C215.524 232.16 215.284 232.281 215.015 232.364C214.75 232.444 214.465 232.484 214.16 232.484C213.61 232.484 213.121 232.349 212.694 232.081C212.269 231.809 211.935 231.408 211.689 230.878C211.447 230.344 211.326 229.688 211.326 228.909C211.326 228.143 211.447 227.495 211.689 226.965C211.931 226.432 212.266 226.027 212.694 225.752C213.121 225.474 213.612 225.334 214.165 225.334C214.477 225.334 214.767 225.378 215.035 225.464C215.307 225.547 215.549 225.671 215.761 225.837C215.973 226.002 216.151 226.205 216.293 226.443C216.436 226.678 216.533 226.949 216.586 227.254Z" fill="black"/>
</g>
<path d="M46.7522 32.1591C45.934 32.1591 45.2067 32.0189 44.5703 31.7386C43.9378 31.4583 43.4378 31.0682 43.0703 30.5682C42.7029 30.0682 42.5078 29.4905 42.4851 28.8352H44.6215C44.6404 29.1496 44.7446 29.4242 44.934 29.6591C45.1234 29.8902 45.3753 30.0701 45.6897 30.1989C46.004 30.3277 46.3563 30.392 46.7465 30.392C47.1631 30.392 47.5325 30.3201 47.8544 30.1761C48.1764 30.0284 48.4283 29.8239 48.6101 29.5625C48.7919 29.3011 48.8809 29 48.8772 28.6591C48.8809 28.3068 48.79 27.9962 48.6044 27.7273C48.4188 27.4583 48.1499 27.2481 47.7976 27.0966C47.4491 26.9451 47.0287 26.8693 46.5362 26.8693H45.5078V25.2443H46.5362C46.9415 25.2443 47.2957 25.1742 47.5987 25.0341C47.9056 24.8939 48.1461 24.697 48.3203 24.4432C48.4946 24.1856 48.5798 23.8883 48.576 23.5511C48.5798 23.2216 48.5059 22.9356 48.3544 22.6932C48.2067 22.447 47.9965 22.2557 47.7237 22.1193C47.4548 21.983 47.1385 21.9148 46.7749 21.9148C46.4188 21.9148 46.0893 21.9792 45.7862 22.108C45.4832 22.2367 45.2389 22.4205 45.0533 22.6591C44.8677 22.8939 44.7692 23.1742 44.7578 23.5H42.7294C42.7446 22.8485 42.9321 22.2765 43.2919 21.7841C43.6556 21.2879 44.1404 20.9015 44.7465 20.625C45.3525 20.3447 46.0325 20.2045 46.7862 20.2045C47.5628 20.2045 48.237 20.3504 48.809 20.642C49.3847 20.9299 49.8298 21.3182 50.1442 21.8068C50.4586 22.2955 50.6158 22.8352 50.6158 23.4261C50.6196 24.0814 50.4264 24.6307 50.0362 25.0739C49.6499 25.517 49.1423 25.8068 48.5135 25.9432V26.0341C49.3317 26.1477 49.9586 26.4508 50.3942 26.9432C50.8336 27.4318 51.0514 28.0398 51.0476 28.767C51.0476 29.4186 50.862 30.0019 50.4908 30.517C50.1234 31.0284 49.6158 31.4299 48.9681 31.7216C48.3241 32.0133 47.5855 32.1591 46.7522 32.1591ZM57.3238 32.2216C56.3882 32.2216 55.5852 31.9848 54.9147 31.5114C54.248 31.0341 53.7348 30.3466 53.3749 29.4489C53.0189 28.5473 52.8408 27.4621 52.8408 26.1932C52.8446 24.9242 53.0246 23.8447 53.3806 22.9545C53.7405 22.0606 54.2537 21.3788 54.9204 20.9091C55.5908 20.4394 56.392 20.2045 57.3238 20.2045C58.2556 20.2045 59.0568 20.4394 59.7272 20.9091C60.3977 21.3788 60.9109 22.0606 61.267 22.9545C61.6268 23.8485 61.8068 24.928 61.8068 26.1932C61.8068 27.4659 61.6268 28.553 61.267 29.4545C60.9109 30.3523 60.3977 31.0379 59.7272 31.5114C59.0605 31.9848 58.2594 32.2216 57.3238 32.2216ZM57.3238 30.4432C58.0511 30.4432 58.6249 30.0852 59.0454 29.3693C59.4696 28.6496 59.6818 27.5909 59.6818 26.1932C59.6818 25.2689 59.5852 24.4924 59.392 23.8636C59.1988 23.2348 58.9261 22.7614 58.5738 22.4432C58.2215 22.1212 57.8049 21.9602 57.3238 21.9602C56.6003 21.9602 56.0283 22.3201 55.6079 23.0398C55.1874 23.7557 54.9753 24.8068 54.9715 26.1932C54.9677 27.1212 55.0605 27.9015 55.2499 28.5341C55.4431 29.1667 55.7158 29.6439 56.0681 29.9659C56.4204 30.2841 56.8389 30.4432 57.3238 30.4432ZM67.1739 30.1364V22.2727H68.9579V30.1364H67.1739ZM64.1341 27.0966V25.3125H71.9977V27.0966H64.1341ZM78.6169 32V20.3636H86.0714V22.1307H80.7248V25.2898H85.56V27.0568H80.7248V32H78.6169ZM87.9257 32V23.2727H89.9825V32H87.9257ZM88.9598 22.0341C88.6341 22.0341 88.3538 21.9261 88.1189 21.7102C87.8841 21.4905 87.7666 21.2273 87.7666 20.9205C87.7666 20.6098 87.8841 20.3466 88.1189 20.1307C88.3538 19.911 88.6341 19.8011 88.9598 19.8011C89.2894 19.8011 89.5697 19.911 89.8007 20.1307C90.0356 20.3466 90.153 20.6098 90.153 20.9205C90.153 21.2273 90.0356 21.4905 89.8007 21.7102C89.5697 21.9261 89.2894 22.0341 88.9598 22.0341ZM94.1792 26.8864V32H92.1224V23.2727H94.0883V24.7557H94.1906C94.3913 24.267 94.7114 23.8788 95.1508 23.5909C95.594 23.303 96.1413 23.1591 96.7928 23.1591C97.3951 23.1591 97.9197 23.2879 98.3667 23.5455C98.8174 23.803 99.1659 24.1761 99.4121 24.6648C99.6621 25.1534 99.7852 25.7462 99.7815 26.4432V32H97.7246V26.7614C97.7246 26.178 97.5731 25.7216 97.2701 25.392C96.9709 25.0625 96.5561 24.8977 96.0258 24.8977C95.6659 24.8977 95.3459 24.9773 95.0656 25.1364C94.789 25.2917 94.5712 25.517 94.4121 25.8125C94.2568 26.108 94.1792 26.4659 94.1792 26.8864ZM104.408 32.1761C103.855 32.1761 103.357 32.0777 102.914 31.8807C102.475 31.6799 102.126 31.3845 101.869 30.9943C101.615 30.6042 101.488 30.1231 101.488 29.5511C101.488 29.0587 101.579 28.6515 101.761 28.3295C101.943 28.0076 102.191 27.75 102.505 27.5568C102.819 27.3636 103.174 27.2178 103.568 27.1193C103.965 27.017 104.376 26.9432 104.801 26.8977C105.312 26.8447 105.727 26.7973 106.045 26.7557C106.363 26.7102 106.594 26.642 106.738 26.5511C106.886 26.4564 106.96 26.3106 106.96 26.1136V26.0795C106.96 25.6515 106.833 25.3201 106.579 25.0852C106.325 24.8504 105.96 24.733 105.482 24.733C104.979 24.733 104.579 24.8428 104.283 25.0625C103.992 25.2822 103.795 25.5417 103.693 25.8409L101.772 25.5682C101.924 25.0379 102.174 24.5947 102.522 24.2386C102.871 23.8788 103.297 23.6098 103.801 23.4318C104.304 23.25 104.861 23.1591 105.471 23.1591C105.891 23.1591 106.31 23.2083 106.727 23.3068C107.143 23.4053 107.524 23.5682 107.869 23.7955C108.213 24.0189 108.49 24.3239 108.698 24.7102C108.91 25.0966 109.016 25.5795 109.016 26.1591V32H107.039V30.8011H106.971C106.846 31.0436 106.67 31.2708 106.443 31.483C106.219 31.6913 105.937 31.8598 105.596 31.9886C105.259 32.1136 104.863 32.1761 104.408 32.1761ZM104.943 30.6648C105.355 30.6648 105.713 30.5833 106.016 30.4205C106.319 30.2538 106.552 30.0341 106.715 29.7614C106.882 29.4886 106.965 29.1913 106.965 28.8693V27.8409C106.901 27.8939 106.791 27.9432 106.636 27.9886C106.484 28.0341 106.314 28.0739 106.124 28.108C105.935 28.142 105.748 28.1723 105.562 28.1989C105.376 28.2254 105.215 28.2481 105.079 28.267C104.772 28.3087 104.498 28.3769 104.255 28.4716C104.013 28.5663 103.821 28.6989 103.681 28.8693C103.541 29.036 103.471 29.2519 103.471 29.517C103.471 29.8958 103.609 30.1818 103.886 30.375C104.162 30.5682 104.515 30.6648 104.943 30.6648ZM113.166 26.8864V32H111.109V23.2727H113.075V24.7557H113.178C113.378 24.267 113.698 23.8788 114.138 23.5909C114.581 23.303 115.128 23.1591 115.78 23.1591C116.382 23.1591 116.907 23.2879 117.354 23.5455C117.804 23.803 118.153 24.1761 118.399 24.6648C118.649 25.1534 118.772 25.7462 118.768 26.4432V32H116.712V26.7614C116.712 26.178 116.56 25.7216 116.257 25.392C115.958 25.0625 115.543 24.8977 115.013 24.8977C114.653 24.8977 114.333 24.9773 114.053 25.1364C113.776 25.2917 113.558 25.517 113.399 25.8125C113.244 26.108 113.166 26.4659 113.166 26.8864ZM124.691 32.1705C123.82 32.1705 123.072 31.9792 122.447 31.5966C121.825 31.214 121.346 30.6856 121.009 30.0114C120.676 29.3333 120.509 28.553 120.509 27.6705C120.509 26.7841 120.68 26.0019 121.021 25.3239C121.361 24.642 121.843 24.1117 122.464 23.733C123.089 23.3504 123.827 23.1591 124.68 23.1591C125.388 23.1591 126.015 23.2898 126.56 23.5511C127.11 23.8087 127.547 24.1742 127.873 24.6477C128.199 25.1174 128.384 25.6667 128.43 26.2955H126.464C126.384 25.875 126.195 25.5246 125.896 25.2443C125.6 24.9602 125.204 24.8182 124.708 24.8182C124.288 24.8182 123.918 24.9318 123.6 25.1591C123.282 25.3826 123.034 25.7045 122.856 26.125C122.682 26.5455 122.594 27.0492 122.594 27.6364C122.594 28.2311 122.682 28.7424 122.856 29.1705C123.03 29.5947 123.274 29.9223 123.589 30.1534C123.907 30.3807 124.28 30.4943 124.708 30.4943C125.011 30.4943 125.282 30.4375 125.521 30.3239C125.763 30.2064 125.966 30.0379 126.128 29.8182C126.291 29.5985 126.403 29.3314 126.464 29.017H128.43C128.38 29.6345 128.199 30.1818 127.884 30.6591C127.57 31.1326 127.142 31.5038 126.6 31.7727C126.058 32.0379 125.422 32.1705 124.691 32.1705ZM130.143 32V23.2727H132.2V32H130.143ZM131.177 22.0341C130.852 22.0341 130.571 21.9261 130.337 21.7102C130.102 21.4905 129.984 21.2273 129.984 20.9205C129.984 20.6098 130.102 20.3466 130.337 20.1307C130.571 19.911 130.852 19.8011 131.177 19.8011C131.507 19.8011 131.787 19.911 132.018 20.1307C132.253 20.3466 132.371 20.6098 132.371 20.9205C132.371 21.2273 132.253 21.4905 132.018 21.7102C131.787 21.9261 131.507 22.0341 131.177 22.0341ZM136.851 32.1761C136.298 32.1761 135.8 32.0777 135.357 31.8807C134.918 31.6799 134.569 31.3845 134.312 30.9943C134.058 30.6042 133.931 30.1231 133.931 29.5511C133.931 29.0587 134.022 28.6515 134.204 28.3295C134.385 28.0076 134.634 27.75 134.948 27.5568C135.262 27.3636 135.616 27.2178 136.01 27.1193C136.408 27.017 136.819 26.9432 137.243 26.8977C137.755 26.8447 138.17 26.7973 138.488 26.7557C138.806 26.7102 139.037 26.642 139.181 26.5511C139.329 26.4564 139.402 26.3106 139.402 26.1136V26.0795C139.402 25.6515 139.276 25.3201 139.022 25.0852C138.768 24.8504 138.402 24.733 137.925 24.733C137.421 24.733 137.022 24.8428 136.726 25.0625C136.435 25.2822 136.238 25.5417 136.135 25.8409L134.215 25.5682C134.366 25.0379 134.616 24.5947 134.965 24.2386C135.313 23.8788 135.74 23.6098 136.243 23.4318C136.747 23.25 137.304 23.1591 137.914 23.1591C138.334 23.1591 138.753 23.2083 139.17 23.3068C139.586 23.4053 139.967 23.5682 140.312 23.7955C140.656 24.0189 140.933 24.3239 141.141 24.7102C141.353 25.0966 141.459 25.5795 141.459 26.1591V32H139.482V30.8011H139.414C139.289 31.0436 139.113 31.2708 138.885 31.483C138.662 31.6913 138.38 31.8598 138.039 31.9886C137.702 32.1136 137.306 32.1761 136.851 32.1761ZM137.385 30.6648C137.798 30.6648 138.156 30.5833 138.459 30.4205C138.762 30.2538 138.995 30.0341 139.158 29.7614C139.325 29.4886 139.408 29.1913 139.408 28.8693V27.8409C139.344 27.8939 139.234 27.9432 139.079 27.9886C138.927 28.0341 138.757 28.0739 138.567 28.108C138.378 28.142 138.19 28.1723 138.005 28.1989C137.819 28.2254 137.658 28.2481 137.522 28.267C137.215 28.3087 136.94 28.3769 136.698 28.4716C136.456 28.5663 136.264 28.6989 136.124 28.8693C135.984 29.036 135.914 29.2519 135.914 29.517C135.914 29.8958 136.052 30.1818 136.329 30.375C136.605 30.5682 136.957 30.6648 137.385 30.6648ZM145.609 20.3636V32H143.552V20.3636H145.609ZM153.941 20.3636V32H151.833V20.3636H153.941ZM158.215 26.8864V32H156.158V23.2727H158.124V24.7557H158.226C158.427 24.267 158.747 23.8788 159.186 23.5909C159.629 23.303 160.177 23.1591 160.828 23.1591C161.431 23.1591 161.955 23.2879 162.402 23.5455C162.853 23.803 163.201 24.1761 163.448 24.6648C163.698 25.1534 163.821 25.7462 163.817 26.4432V32H161.76V26.7614C161.76 26.178 161.609 25.7216 161.306 25.392C161.006 25.0625 160.592 24.8977 160.061 24.8977C159.701 24.8977 159.381 24.9773 159.101 25.1364C158.824 25.2917 158.607 25.517 158.448 25.8125C158.292 26.108 158.215 26.4659 158.215 26.8864ZM172.83 25.5795L170.955 25.7841C170.902 25.5947 170.809 25.4167 170.677 25.25C170.548 25.0833 170.374 24.9489 170.154 24.8466C169.934 24.7443 169.666 24.6932 169.347 24.6932C168.919 24.6932 168.559 24.786 168.268 24.9716C167.98 25.1572 167.838 25.3977 167.842 25.6932C167.838 25.947 167.931 26.1534 168.12 26.3125C168.313 26.4716 168.631 26.6023 169.075 26.7045L170.563 27.0227C171.389 27.2008 172.003 27.483 172.404 27.8693C172.809 28.2557 173.014 28.7614 173.018 29.3864C173.014 29.9356 172.853 30.4205 172.535 30.8409C172.22 31.2576 171.783 31.5833 171.222 31.8182C170.662 32.053 170.018 32.1705 169.291 32.1705C168.222 32.1705 167.363 31.947 166.711 31.5C166.059 31.0492 165.671 30.4223 165.546 29.6193L167.552 29.4261C167.643 29.8201 167.836 30.1174 168.131 30.3182C168.427 30.5189 168.811 30.6193 169.285 30.6193C169.773 30.6193 170.166 30.5189 170.461 30.3182C170.76 30.1174 170.91 29.8693 170.91 29.5739C170.91 29.3239 170.813 29.1174 170.62 28.9545C170.431 28.7917 170.135 28.6667 169.734 28.5795L168.245 28.267C167.408 28.0928 166.789 27.7992 166.387 27.3864C165.986 26.9697 165.787 26.4432 165.791 25.8068C165.787 25.2689 165.933 24.803 166.228 24.4091C166.527 24.0114 166.942 23.7045 167.472 23.4886C168.006 23.2689 168.622 23.1591 169.319 23.1591C170.342 23.1591 171.147 23.3769 171.734 23.8125C172.325 24.2481 172.69 24.8371 172.83 25.5795ZM179.097 23.2727V24.8636H174.08V23.2727H179.097ZM175.318 21.1818H177.375V29.375C177.375 29.6515 177.417 29.8636 177.5 30.0114C177.587 30.1553 177.701 30.2538 177.841 30.3068C177.981 30.3598 178.136 30.3864 178.307 30.3864C178.436 30.3864 178.553 30.3769 178.659 30.358C178.769 30.339 178.852 30.322 178.909 30.3068L179.256 31.9148C179.146 31.9527 178.989 31.9943 178.784 32.0398C178.583 32.0852 178.337 32.1117 178.045 32.1193C177.53 32.1345 177.066 32.0568 176.653 31.8864C176.241 31.7121 175.913 31.4432 175.67 31.0795C175.432 30.7159 175.314 30.2614 175.318 29.7159V21.1818ZM180.841 32V23.2727H182.898V32H180.841ZM181.876 22.0341C181.55 22.0341 181.27 21.9261 181.035 21.7102C180.8 21.4905 180.682 21.2273 180.682 20.9205C180.682 20.6098 180.8 20.3466 181.035 20.1307C181.27 19.911 181.55 19.8011 181.876 19.8011C182.205 19.8011 182.485 19.911 182.716 20.1307C182.951 20.3466 183.069 20.6098 183.069 20.9205C183.069 21.2273 182.951 21.4905 182.716 21.7102C182.485 21.9261 182.205 22.0341 181.876 22.0341ZM189.396 23.2727V24.8636H184.379V23.2727H189.396ZM185.618 21.1818H187.675V29.375C187.675 29.6515 187.716 29.8636 187.8 30.0114C187.887 30.1553 188 30.2538 188.14 30.3068C188.281 30.3598 188.436 30.3864 188.606 30.3864C188.735 30.3864 188.853 30.3769 188.959 30.358C189.068 30.339 189.152 30.322 189.209 30.3068L189.555 31.9148C189.445 31.9527 189.288 31.9943 189.084 32.0398C188.883 32.0852 188.637 32.1117 188.345 32.1193C187.83 32.1345 187.366 32.0568 186.953 31.8864C186.54 31.7121 186.212 31.4432 185.97 31.0795C185.731 30.7159 185.614 30.2614 185.618 29.7159V21.1818ZM196.704 28.3295V23.2727H198.76V32H196.766V30.4489H196.675C196.478 30.9375 196.154 31.3371 195.704 31.6477C195.257 31.9583 194.705 32.1136 194.05 32.1136C193.478 32.1136 192.972 31.9867 192.533 31.733C192.097 31.4754 191.757 31.1023 191.51 30.6136C191.264 30.1212 191.141 29.5265 191.141 28.8295V23.2727H193.198V28.5114C193.198 29.0644 193.349 29.5038 193.652 29.8295C193.955 30.1553 194.353 30.3182 194.846 30.3182C195.149 30.3182 195.442 30.2443 195.726 30.0966C196.01 29.9489 196.243 29.7292 196.425 29.4375C196.611 29.142 196.704 28.7727 196.704 28.3295ZM205.258 23.2727V24.8636H200.241V23.2727H205.258ZM201.48 21.1818H203.537V29.375C203.537 29.6515 203.578 29.8636 203.662 30.0114C203.749 30.1553 203.862 30.2538 204.002 30.3068C204.143 30.3598 204.298 30.3864 204.468 30.3864C204.597 30.3864 204.715 30.3769 204.821 30.358C204.931 30.339 205.014 30.322 205.071 30.3068L205.417 31.9148C205.307 31.9527 205.15 31.9943 204.946 32.0398C204.745 32.0852 204.499 32.1117 204.207 32.1193C203.692 32.1345 203.228 32.0568 202.815 31.8864C202.402 31.7121 202.074 31.4432 201.832 31.0795C201.593 30.7159 201.476 30.2614 201.48 29.7159V21.1818ZM207.003 32V23.2727H209.06V32H207.003ZM208.037 22.0341C207.711 22.0341 207.431 21.9261 207.196 21.7102C206.961 21.4905 206.844 21.2273 206.844 20.9205C206.844 20.6098 206.961 20.3466 207.196 20.1307C207.431 19.911 207.711 19.8011 208.037 19.8011C208.367 19.8011 208.647 19.911 208.878 20.1307C209.113 20.3466 209.23 20.6098 209.23 20.9205C209.23 21.2273 209.113 21.4905 208.878 21.7102C208.647 21.9261 208.367 22.0341 208.037 22.0341ZM215.007 32.1705C214.154 32.1705 213.416 31.983 212.791 31.608C212.166 31.233 211.681 30.7083 211.336 30.0341C210.995 29.3598 210.825 28.572 210.825 27.6705C210.825 26.7689 210.995 25.9792 211.336 25.3011C211.681 24.6231 212.166 24.0966 212.791 23.7216C213.416 23.3466 214.154 23.1591 215.007 23.1591C215.859 23.1591 216.597 23.3466 217.222 23.7216C217.847 24.0966 218.33 24.6231 218.671 25.3011C219.016 25.9792 219.188 26.7689 219.188 27.6705C219.188 28.572 219.016 29.3598 218.671 30.0341C218.33 30.7083 217.847 31.233 217.222 31.608C216.597 31.983 215.859 32.1705 215.007 32.1705ZM215.018 30.5227C215.48 30.5227 215.866 30.3958 216.177 30.142C216.488 29.8845 216.719 29.5398 216.87 29.108C217.025 28.6761 217.103 28.1951 217.103 27.6648C217.103 27.1307 217.025 26.6477 216.87 26.2159C216.719 25.7803 216.488 25.4337 216.177 25.1761C215.866 24.9186 215.48 24.7898 215.018 24.7898C214.544 24.7898 214.15 24.9186 213.836 25.1761C213.525 25.4337 213.293 25.7803 213.137 26.2159C212.986 26.6477 212.91 27.1307 212.91 27.6648C212.91 28.1951 212.986 28.6761 213.137 29.108C213.293 29.5398 213.525 29.8845 213.836 30.142C214.15 30.3958 214.544 30.5227 215.018 30.5227ZM223.016 26.8864V32H220.959V23.2727H222.925V24.7557H223.027C223.228 24.267 223.548 23.8788 223.987 23.5909C224.43 23.303 224.978 23.1591 225.629 23.1591C226.232 23.1591 226.756 23.2879 227.203 23.5455C227.654 23.803 228.002 24.1761 228.249 24.6648C228.499 25.1534 228.622 25.7462 228.618 26.4432V32H226.561V26.7614C226.561 26.178 226.41 25.7216 226.107 25.392C225.807 25.0625 225.393 24.8977 224.862 24.8977C224.502 24.8977 224.182 24.9773 223.902 25.1364C223.626 25.2917 223.408 25.517 223.249 25.8125C223.093 26.108 223.016 26.4659 223.016 26.8864ZM237.631 25.5795L235.756 25.7841C235.703 25.5947 235.611 25.4167 235.478 25.25C235.349 25.0833 235.175 24.9489 234.955 24.8466C234.736 24.7443 234.467 24.6932 234.148 24.6932C233.72 24.6932 233.361 24.786 233.069 24.9716C232.781 25.1572 232.639 25.3977 232.643 25.6932C232.639 25.947 232.732 26.1534 232.921 26.3125C233.114 26.4716 233.433 26.6023 233.876 26.7045L235.364 27.0227C236.19 27.2008 236.804 27.483 237.205 27.8693C237.611 28.2557 237.815 28.7614 237.819 29.3864C237.815 29.9356 237.654 30.4205 237.336 30.8409C237.022 31.2576 236.584 31.5833 236.023 31.8182C235.463 32.053 234.819 32.1705 234.092 32.1705C233.023 32.1705 232.164 31.947 231.512 31.5C230.861 31.0492 230.472 30.4223 230.347 29.6193L232.353 29.4261C232.444 29.8201 232.637 30.1174 232.933 30.3182C233.228 30.5189 233.612 30.6193 234.086 30.6193C234.575 30.6193 234.967 30.5189 235.262 30.3182C235.561 30.1174 235.711 29.8693 235.711 29.5739C235.711 29.3239 235.614 29.1174 235.421 28.9545C235.232 28.7917 234.936 28.6667 234.535 28.5795L233.046 28.267C232.209 28.0928 231.59 27.7992 231.188 27.3864C230.787 26.9697 230.588 26.4432 230.592 25.8068C230.588 25.2689 230.734 24.803 231.029 24.4091C231.328 24.0114 231.743 23.7045 232.273 23.4886C232.808 23.2689 233.423 23.1591 234.12 23.1591C235.143 23.1591 235.948 23.3769 236.535 23.8125C237.126 24.2481 237.491 24.8371 237.631 25.5795Z" fill="#13044F"/>
<defs>
<filter id="filter0_d_488_1201" x="36" y="62" width="88" height="88" filterUnits="userSpaceOnUse" color-interpolation-filters="sRGB">
<feFlood flood-opacity="0" result="BackgroundImageFix"/>
<feColorMatrix in="SourceAlpha" type="matrix" values="0 0 0 0 0 0 0 0 0 0 0 0 0 0 0 0 0 0 127 0" result="hardAlpha"/>
<feOffset dy="4"/>
<feGaussianBlur stdDeviation="2"/>
<feComposite in2="hardAlpha" operator="out"/>
<feColorMatrix type="matrix" values="0 0 0 0 0 0 0 0 0 0 0 0 0 0 0 0 0 0 0.25 0"/>
<feBlend mode="normal" in2="BackgroundImageFix" result="effect1_dropShadow_488_1201"/>
<feBlend mode="normal" in="SourceGraphic" in2="effect1_dropShadow_488_1201" result="shape"/>
</filter>
<filter id="filter1_d_488_1201" x="36" y="182" width="88" height="88" filterUnits="userSpaceOnUse" color-interpolation-filters="sRGB">
<feFlood flood-opacity="0" result="BackgroundImageFix"/>
<feColorMatrix in="SourceAlpha" type="matrix" values="0 0 0 0 0 0 0 0 0 0 0 0 0 0 0 0 0 0 127 0" result="hardAlpha"/>
<feOffset dy="4"/>
<feGaussianBlur stdDeviation="2"/>
<feComposite in2="hardAlpha" operator="out"/>
<feColorMatrix type="matrix" values="0 0 0 0 0 0 0 0 0 0 0 0 0 0 0 0 0 0 0.25 0"/>
<feBlend mode="normal" in2="BackgroundImageFix" result="effect1_dropShadow_488_1201"/>
<feBlend mode="normal" in="SourceGraphic" in2="effect1_dropShadow_488_1201" result="shape"/>
</filter>
<filter id="filter2_d_488_1201" x="156" y="182" width="88" height="88" filterUnits="userSpaceOnUse" color-interpolation-filters="sRGB">
<feFlood flood-opacity="0" result="BackgroundImageFix"/>
<feColorMatrix in="SourceAlpha" type="matrix" values="0 0 0 0 0 0 0 0 0 0 0 0 0 0 0 0 0 0 127 0" result="hardAlpha"/>
<feOffset dy="4"/>
<feGaussianBlur stdDeviation="2"/>
<feComposite in2="hardAlpha" operator="out"/>
<feColorMatrix type="matrix" values="0 0 0 0 0 0 0 0 0 0 0 0 0 0 0 0 0 0 0.25 0"/>
<feBlend mode="normal" in2="BackgroundImageFix" result="effect1_dropShadow_488_1201"/>
<feBlend mode="normal" in="SourceGraphic" in2="effect1_dropShadow_488_1201" result="shape"/>
</filter>
<filter id="filter3_d_488_1201" x="156" y="62" width="88" height="88" filterUnits="userSpaceOnUse" color-interpolation-filters="sRGB">
<feFlood flood-opacity="0" result="BackgroundImageFix"/>
<feColorMatrix in="SourceAlpha" type="matrix" values="0 0 0 0 0 0 0 0 0 0 0 0 0 0 0 0 0 0 127 0" result="hardAlpha"/>
<feOffset dy="4"/>
<feGaussianBlur stdDeviation="2"/>
<feComposite in2="hardAlpha" operator="out"/>
<feColorMatrix type="matrix" values="0 0 0 0 0 0 0 0 0 0 0 0 0 0 0 0 0 0 0.25 0"/>
<feBlend mode="normal" in2="BackgroundImageFix" result="effect1_dropShadow_488_1201"/>
<feBlend mode="normal" in="SourceGraphic" in2="effect1_dropShadow_488_1201" result="shape"/>
</filter>
<filter id="filter4_dd_488_1201" x="42.7266" y="58.3391" width="78.6883" height="88.8705" filterUnits="userSpaceOnUse" color-interpolation-filters="sRGB">
<feFlood flood-opacity="0" result="BackgroundImageFix"/>
<feColorMatrix in="SourceAlpha" type="matrix" values="0 0 0 0 0 0 0 0 0 0 0 0 0 0 0 0 0 0 127 0" result="hardAlpha"/>
<feOffset dx="2.47712" dy="2.47712"/>
<feGaussianBlur stdDeviation="9.2892"/>
<feColorMatrix type="matrix" values="0 0 0 0 0.6512 0 0 0 0 0.66896 0 0 0 0 0.74 0 0 0 0.5 0"/>
<feBlend mode="normal" in2="BackgroundImageFix" result="effect1_dropShadow_488_1201"/>
<feColorMatrix in="SourceAlpha" type="matrix" values="0 0 0 0 0 0 0 0 0 0 0 0 0 0 0 0 0 0 127 0" result="hardAlpha"/>
<feOffset dx="-1.23856" dy="-1.23856"/>
<feGaussianBlur stdDeviation="8.05064"/>
<feColorMatrix type="matrix" values="0 0 0 0 0.979167 0 0 0 0 0.983333 0 0 0 0 1 0 0 0 1 0"/>
<feBlend mode="normal" in2="effect1_dropShadow_488_1201" result="effect2_dropShadow_488_1201"/>
<feBlend mode="normal" in="SourceGraphic" in2="effect2_dropShadow_488_1201" result="shape"/>
</filter>
<filter id="filter5_dd_488_1201" x="159.762" y="58.3391" width="84.575" height="86.8705" filterUnits="userSpaceOnUse" color-interpolation-filters="sRGB">
<feFlood flood-opacity="0" result="BackgroundImageFix"/>
<feColorMatrix in="SourceAlpha" type="matrix" values="0 0 0 0 0 0 0 0 0 0 0 0 0 0 0 0 0 0 127 0" result="hardAlpha"/>
<feOffset dx="2.47712" dy="2.47712"/>
<feGaussianBlur stdDeviation="9.2892"/>
<feColorMatrix type="matrix" values="0 0 0 0 0.6512 0 0 0 0 0.66896 0 0 0 0 0.74 0 0 0 0.5 0"/>
<feBlend mode="normal" in2="BackgroundImageFix" result="effect1_dropShadow_488_1201"/>
<feColorMatrix in="SourceAlpha" type="matrix" values="0 0 0 0 0 0 0 0 0 0 0 0 0 0 0 0 0 0 127 0" result="hardAlpha"/>
<feOffset dx="-1.23856" dy="-1.23856"/>
<feGaussianBlur stdDeviation="8.05064"/>
<feColorMatrix type="matrix" values="0 0 0 0 0.979167 0 0 0 0 0.983333 0 0 0 0 1 0 0 0 1 0"/>
<feBlend mode="normal" in2="effect1_dropShadow_488_1201" result="effect2_dropShadow_488_1201"/>
<feBlend mode="normal" in="SourceGraphic" in2="effect2_dropShadow_488_1201" result="shape"/>
</filter>
<filter id="filter6_dd_488_1201" x="36.9102" y="178.339" width="90.2762" height="85.8705" filterUnits="userSpaceOnUse" color-interpolation-filters="sRGB">
<feFlood flood-opacity="0" result="BackgroundImageFix"/>
<feColorMatrix in="SourceAlpha" type="matrix" values="0 0 0 0 0 0 0 0 0 0 0 0 0 0 0 0 0 0 127 0" result="hardAlpha"/>
<feOffset dx="2.47712" dy="2.47712"/>
<feGaussianBlur stdDeviation="9.2892"/>
<feColorMatrix type="matrix" values="0 0 0 0 0.6512 0 0 0 0 0.66896 0 0 0 0 0.74 0 0 0 0.5 0"/>
<feBlend mode="normal" in2="BackgroundImageFix" result="effect1_dropShadow_488_1201"/>
<feColorMatrix in="SourceAlpha" type="matrix" values="0 0 0 0 0 0 0 0 0 0 0 0 0 0 0 0 0 0 127 0" result="hardAlpha"/>
<feOffset dx="-1.23856" dy="-1.23856"/>
<feGaussianBlur stdDeviation="8.05064"/>
<feColorMatrix type="matrix" values="0 0 0 0 0.979167 0 0 0 0 0.983333 0 0 0 0 1 0 0 0 1 0"/>
<feBlend mode="normal" in2="effect1_dropShadow_488_1201" result="effect2_dropShadow_488_1201"/>
<feBlend mode="normal" in="SourceGraphic" in2="effect2_dropShadow_488_1201" result="shape"/>
</filter>
<filter id="filter7_dd_488_1201" x="164.535" y="178.339" width="74.9657" height="76.8556" filterUnits="userSpaceOnUse" color-interpolation-filters="sRGB">
<feFlood flood-opacity="0" result="BackgroundImageFix"/>
<feColorMatrix in="SourceAlpha" type="matrix" values="0 0 0 0 0 0 0 0 0 0 0 0 0 0 0 0 0 0 127 0" result="hardAlpha"/>
<feOffset dx="2.47712" dy="2.47712"/>
<feGaussianBlur stdDeviation="9.2892"/>
<feColorMatrix type="matrix" values="0 0 0 0 0.6512 0 0 0 0 0.66896 0 0 0 0 0.74 0 0 0 0.5 0"/>
<feBlend mode="normal" in2="BackgroundImageFix" result="effect1_dropShadow_488_1201"/>
<feColorMatrix in="SourceAlpha" type="matrix" values="0 0 0 0 0 0 0 0 0 0 0 0 0 0 0 0 0 0 127 0" result="hardAlpha"/>
<feOffset dx="-1.23856" dy="-1.23856"/>
<feGaussianBlur stdDeviation="8.05064"/>
<feColorMatrix type="matrix" values="0 0 0 0 0.979167 0 0 0 0 0.983333 0 0 0 0 1 0 0 0 1 0"/>
<feBlend mode="normal" in2="effect1_dropShadow_488_1201" result="effect2_dropShadow_488_1201"/>
<feBlend mode="normal" in="SourceGraphic" in2="effect2_dropShadow_488_1201" result="shape"/>
</filter>
</defs>
</svg>
