<svg width="280" height="280" viewBox="0 0 280 280" fill="none" xmlns="http://www.w3.org/2000/svg">
<rect width="280" height="280" rx="20" fill="white"/>
<g filter="url(#filter0_d_488_1245)">
<rect x="40" y="84" width="80" height="80" rx="20" fill="white"/>
</g>
<g filter="url(#filter1_d_488_1245)">
<rect x="100" y="184" width="80" height="80" rx="20" fill="white"/>
</g>
<g filter="url(#filter2_d_488_1245)">
<rect x="162" y="84" width="80" height="80" rx="20" fill="white"/>
</g>
<path d="M52.6889 33H48.7457V21.3636H52.7684C53.9237 21.3636 54.9161 21.5966 55.7457 22.0625C56.579 22.5246 57.2192 23.1894 57.6661 24.0568C58.1131 24.9242 58.3366 25.9621 58.3366 27.1705C58.3366 28.3826 58.1112 29.4242 57.6604 30.2955C57.2135 31.1667 56.5676 31.8352 55.7229 32.3011C54.882 32.767 53.8707 33 52.6889 33ZM50.8536 31.1761H52.5866C53.3972 31.1761 54.0733 31.0284 54.615 30.733C55.1567 30.4337 55.5639 29.9886 55.8366 29.3977C56.1093 28.803 56.2457 28.0606 56.2457 27.1705C56.2457 26.2803 56.1093 25.5417 55.8366 24.9545C55.5639 24.3636 55.1604 23.9223 54.6264 23.6307C54.0961 23.3352 53.437 23.1875 52.6491 23.1875H50.8536V31.1761ZM62.7847 33.1761C62.2316 33.1761 61.7335 33.0777 61.2903 32.8807C60.8509 32.6799 60.5025 32.3845 60.2449 31.9943C59.9911 31.6042 59.8642 31.1231 59.8642 30.5511C59.8642 30.0587 59.9551 29.6515 60.1369 29.3295C60.3187 29.0076 60.5668 28.75 60.8812 28.5568C61.1956 28.3636 61.5498 28.2178 61.9437 28.1193C62.3415 28.017 62.7525 27.9432 63.1767 27.8977C63.6881 27.8447 64.1028 27.7973 64.421 27.7557C64.7392 27.7102 64.9703 27.642 65.1142 27.5511C65.2619 27.4564 65.3358 27.3106 65.3358 27.1136V27.0795C65.3358 26.6515 65.2089 26.3201 64.9551 26.0852C64.7013 25.8504 64.3358 25.733 63.8585 25.733C63.3547 25.733 62.9551 25.8428 62.6597 26.0625C62.368 26.2822 62.171 26.5417 62.0687 26.8409L60.1483 26.5682C60.2998 26.0379 60.5498 25.5947 60.8983 25.2386C61.2468 24.8788 61.6729 24.6098 62.1767 24.4318C62.6805 24.25 63.2373 24.1591 63.8472 24.1591C64.2676 24.1591 64.6862 24.2083 65.1028 24.3068C65.5195 24.4053 65.9002 24.5682 66.2449 24.7955C66.5896 25.0189 66.8661 25.3239 67.0744 25.7102C67.2865 26.0966 67.3926 26.5795 67.3926 27.1591V33H65.4153V31.8011H65.3472C65.2222 32.0436 65.046 32.2708 64.8187 32.483C64.5953 32.6913 64.3131 32.8598 63.9722 32.9886C63.635 33.1136 63.2392 33.1761 62.7847 33.1761ZM63.3187 31.6648C63.7316 31.6648 64.0896 31.5833 64.3926 31.4205C64.6956 31.2538 64.9286 31.0341 65.0915 30.7614C65.2581 30.4886 65.3415 30.1913 65.3415 29.8693V28.8409C65.2771 28.8939 65.1672 28.9432 65.0119 28.9886C64.8604 29.0341 64.69 29.0739 64.5006 29.108C64.3112 29.142 64.1237 29.1723 63.9381 29.1989C63.7525 29.2254 63.5915 29.2481 63.4551 29.267C63.1483 29.3087 62.8737 29.3769 62.6312 29.4716C62.3888 29.5663 62.1975 29.6989 62.0574 29.8693C61.9172 30.036 61.8472 30.2519 61.8472 30.517C61.8472 30.8958 61.9854 31.1818 62.2619 31.375C62.5384 31.5682 62.8907 31.6648 63.3187 31.6648ZM73.8435 24.2727V25.8636H68.8265V24.2727H73.8435ZM70.0651 22.1818H72.1219V30.375C72.1219 30.6515 72.1636 30.8636 72.2469 31.0114C72.334 31.1553 72.4477 31.2538 72.5878 31.3068C72.728 31.3598 72.8833 31.3864 73.0537 31.3864C73.1825 31.3864 73.3 31.3769 73.406 31.358C73.5159 31.339 73.5992 31.322 73.656 31.3068L74.0026 32.9148C73.8928 32.9527 73.7356 32.9943 73.531 33.0398C73.3303 33.0852 73.084 33.1117 72.7924 33.1193C72.2772 33.1345 71.8132 33.0568 71.4003 32.8864C70.9875 32.7121 70.6598 32.4432 70.4174 32.0795C70.1787 31.7159 70.0613 31.2614 70.0651 30.7159V22.1818ZM78.0998 33.1761C77.5468 33.1761 77.0487 33.0777 76.6055 32.8807C76.1661 32.6799 75.8176 32.3845 75.56 31.9943C75.3063 31.6042 75.1794 31.1231 75.1794 30.5511C75.1794 30.0587 75.2703 29.6515 75.4521 29.3295C75.6339 29.0076 75.882 28.75 76.1964 28.5568C76.5108 28.3636 76.865 28.2178 77.2589 28.1193C77.6566 28.017 78.0676 27.9432 78.4919 27.8977C79.0032 27.8447 79.418 27.7973 79.7362 27.7557C80.0544 27.7102 80.2854 27.642 80.4294 27.5511C80.5771 27.4564 80.6509 27.3106 80.6509 27.1136V27.0795C80.6509 26.6515 80.5241 26.3201 80.2703 26.0852C80.0165 25.8504 79.6509 25.733 79.1737 25.733C78.6699 25.733 78.2703 25.8428 77.9748 26.0625C77.6831 26.2822 77.4862 26.5417 77.3839 26.8409L75.4634 26.5682C75.615 26.0379 75.865 25.5947 76.2134 25.2386C76.5619 24.8788 76.9881 24.6098 77.4919 24.4318C77.9956 24.25 78.5525 24.1591 79.1623 24.1591C79.5828 24.1591 80.0013 24.2083 80.418 24.3068C80.8347 24.4053 81.2153 24.5682 81.56 24.7955C81.9047 25.0189 82.1813 25.3239 82.3896 25.7102C82.6017 26.0966 82.7078 26.5795 82.7078 27.1591V33H80.7305V31.8011H80.6623C80.5373 32.0436 80.3612 32.2708 80.1339 32.483C79.9104 32.6913 79.6282 32.8598 79.2873 32.9886C78.9502 33.1136 78.5544 33.1761 78.0998 33.1761ZM78.6339 31.6648C79.0468 31.6648 79.4047 31.5833 79.7078 31.4205C80.0108 31.2538 80.2438 31.0341 80.4066 30.7614C80.5733 30.4886 80.6566 30.1913 80.6566 29.8693V28.8409C80.5922 28.8939 80.4824 28.9432 80.3271 28.9886C80.1756 29.0341 80.0051 29.0739 79.8157 29.108C79.6263 29.142 79.4388 29.1723 79.2532 29.1989C79.0676 29.2254 78.9066 29.2481 78.7703 29.267C78.4634 29.3087 78.1888 29.3769 77.9464 29.4716C77.704 29.5663 77.5127 29.6989 77.3725 29.8693C77.2324 30.036 77.1623 30.2519 77.1623 30.517C77.1623 30.8958 77.3006 31.1818 77.5771 31.375C77.8536 31.5682 78.2059 31.6648 78.6339 31.6648ZM93.2147 24.2727V25.8636H88.0556V24.2727H93.2147ZM89.3454 33V23.4489C89.3454 22.8617 89.4666 22.3731 89.709 21.983C89.9552 21.5928 90.2848 21.3011 90.6977 21.108C91.1105 20.9148 91.5689 20.8182 92.0727 20.8182C92.4287 20.8182 92.745 20.8466 93.0215 20.9034C93.298 20.9602 93.5026 21.0114 93.6352 21.0568L93.2261 22.6477C93.1389 22.6212 93.0291 22.5947 92.8965 22.5682C92.7639 22.5379 92.6162 22.5227 92.4533 22.5227C92.0708 22.5227 91.7999 22.6155 91.6408 22.8011C91.4855 22.983 91.4079 23.2443 91.4079 23.5852V33H89.3454ZM94.8503 33V24.2727H96.8446V25.7273H96.9355C97.0946 25.2235 97.3673 24.8352 97.7537 24.5625C98.1438 24.286 98.5889 24.1477 99.0889 24.1477C99.2025 24.1477 99.3294 24.1534 99.4696 24.1648C99.6135 24.1723 99.7328 24.1856 99.8275 24.2045V26.0966C99.7404 26.0663 99.6022 26.0398 99.4128 26.017C99.2272 25.9905 99.0472 25.9773 98.873 25.9773C98.498 25.9773 98.1609 26.0587 97.8616 26.2216C97.5662 26.3807 97.3332 26.6023 97.1628 26.8864C96.9923 27.1705 96.9071 27.4981 96.9071 27.8693V33H94.8503ZM104.666 33.1705C103.814 33.1705 103.075 32.983 102.45 32.608C101.825 32.233 101.34 31.7083 100.996 31.0341C100.655 30.3598 100.484 29.572 100.484 28.6705C100.484 27.7689 100.655 26.9792 100.996 26.3011C101.34 25.6231 101.825 25.0966 102.45 24.7216C103.075 24.3466 103.814 24.1591 104.666 24.1591C105.519 24.1591 106.257 24.3466 106.882 24.7216C107.507 25.0966 107.99 25.6231 108.331 26.3011C108.676 26.9792 108.848 27.7689 108.848 28.6705C108.848 29.572 108.676 30.3598 108.331 31.0341C107.99 31.7083 107.507 32.233 106.882 32.608C106.257 32.983 105.519 33.1705 104.666 33.1705ZM104.678 31.5227C105.14 31.5227 105.526 31.3958 105.837 31.142C106.147 30.8845 106.378 30.5398 106.53 30.108C106.685 29.6761 106.763 29.1951 106.763 28.6648C106.763 28.1307 106.685 27.6477 106.53 27.2159C106.378 26.7803 106.147 26.4337 105.837 26.1761C105.526 25.9186 105.14 25.7898 104.678 25.7898C104.204 25.7898 103.81 25.9186 103.496 26.1761C103.185 26.4337 102.952 26.7803 102.797 27.2159C102.645 27.6477 102.57 28.1307 102.57 28.6648C102.57 29.1951 102.645 29.6761 102.797 30.108C102.952 30.5398 103.185 30.8845 103.496 31.142C103.81 31.3958 104.204 31.5227 104.678 31.5227ZM110.619 33V24.2727H112.584V25.7557H112.687C112.869 25.2557 113.17 24.8655 113.59 24.5852C114.011 24.3011 114.512 24.1591 115.096 24.1591C115.687 24.1591 116.185 24.303 116.59 24.5909C116.999 24.875 117.287 25.2633 117.454 25.7557H117.545C117.738 25.2708 118.064 24.8845 118.522 24.5966C118.984 24.3049 119.531 24.1591 120.164 24.1591C120.967 24.1591 121.622 24.4129 122.13 24.9205C122.637 25.428 122.891 26.1686 122.891 27.142V33H120.829V27.4602C120.829 26.9186 120.685 26.5227 120.397 26.2727C120.109 26.0189 119.757 25.892 119.34 25.892C118.844 25.892 118.456 26.0473 118.175 26.358C117.899 26.6648 117.761 27.0644 117.761 27.5568V33H115.744V27.375C115.744 26.9242 115.607 26.5644 115.334 26.2955C115.066 26.0265 114.713 25.892 114.278 25.892C113.982 25.892 113.713 25.9678 113.471 26.1193C113.228 26.267 113.035 26.4773 112.891 26.75C112.747 27.0189 112.675 27.3333 112.675 27.6932V33H110.619ZM129.4 33L134.348 23.2045V23.125H128.604V21.3636H136.53V23.1648L131.587 33H129.4ZM145.644 33.1534C144.958 33.1534 144.345 32.9773 143.803 32.625C143.261 32.2727 142.833 31.7614 142.519 31.0909C142.204 30.4205 142.047 29.6061 142.047 28.6477C142.047 27.678 142.206 26.8598 142.524 26.1932C142.846 25.5227 143.28 25.017 143.826 24.6761C144.371 24.3314 144.979 24.1591 145.649 24.1591C146.161 24.1591 146.581 24.2462 146.911 24.4205C147.24 24.5909 147.502 24.7973 147.695 25.0398C147.888 25.2784 148.038 25.5038 148.144 25.7159H148.229V21.3636H150.292V33H148.269V31.625H148.144C148.038 31.8371 147.884 32.0625 147.684 32.3011C147.483 32.536 147.218 32.7367 146.888 32.9034C146.559 33.0701 146.144 33.1534 145.644 33.1534ZM146.218 31.4659C146.653 31.4659 147.024 31.3485 147.331 31.1136C147.638 30.875 147.871 30.5436 148.03 30.1193C148.189 29.6951 148.269 29.2008 148.269 28.6364C148.269 28.072 148.189 27.5814 148.03 27.1648C147.875 26.7481 147.644 26.4242 147.337 26.1932C147.034 25.9621 146.661 25.8466 146.218 25.8466C145.759 25.8466 145.377 25.9659 145.07 26.2045C144.763 26.4432 144.532 26.7727 144.377 27.1932C144.221 27.6136 144.144 28.0947 144.144 28.6364C144.144 29.1818 144.221 29.6686 144.377 30.0966C144.536 30.5208 144.769 30.8561 145.076 31.1023C145.386 31.3447 145.767 31.4659 146.218 31.4659ZM155.019 33.1761C154.466 33.1761 153.968 33.0777 153.525 32.8807C153.086 32.6799 152.737 32.3845 152.48 31.9943C152.226 31.6042 152.099 31.1231 152.099 30.5511C152.099 30.0587 152.19 29.6515 152.372 29.3295C152.554 29.0076 152.802 28.75 153.116 28.5568C153.43 28.3636 153.785 28.2178 154.179 28.1193C154.576 28.017 154.987 27.9432 155.411 27.8977C155.923 27.8447 156.338 27.7973 156.656 27.7557C156.974 27.7102 157.205 27.642 157.349 27.5511C157.497 27.4564 157.571 27.3106 157.571 27.1136V27.0795C157.571 26.6515 157.444 26.3201 157.19 26.0852C156.936 25.8504 156.571 25.733 156.093 25.733C155.589 25.733 155.19 25.8428 154.894 26.0625C154.603 26.2822 154.406 26.5417 154.304 26.8409L152.383 26.5682C152.535 26.0379 152.785 25.5947 153.133 25.2386C153.482 24.8788 153.908 24.6098 154.411 24.4318C154.915 24.25 155.472 24.1591 156.082 24.1591C156.502 24.1591 156.921 24.2083 157.338 24.3068C157.754 24.4053 158.135 24.5682 158.48 24.7955C158.824 25.0189 159.101 25.3239 159.309 25.7102C159.521 26.0966 159.627 26.5795 159.627 27.1591V33H157.65V31.8011H157.582C157.457 32.0436 157.281 32.2708 157.054 32.483C156.83 32.6913 156.548 32.8598 156.207 32.9886C155.87 33.1136 155.474 33.1761 155.019 33.1761ZM155.554 31.6648C155.966 31.6648 156.324 31.5833 156.627 31.4205C156.93 31.2538 157.163 31.0341 157.326 30.7614C157.493 30.4886 157.576 30.1913 157.576 29.8693V28.8409C157.512 28.8939 157.402 28.9432 157.247 28.9886C157.095 29.0341 156.925 29.0739 156.735 29.108C156.546 29.142 156.358 29.1723 156.173 29.1989C155.987 29.2254 155.826 29.2481 155.69 29.267C155.383 29.3087 155.108 29.3769 154.866 29.4716C154.624 29.5663 154.432 29.6989 154.292 29.8693C154.152 30.036 154.082 30.2519 154.082 30.517C154.082 30.8958 154.22 31.1818 154.497 31.375C154.773 31.5682 155.125 31.6648 155.554 31.6648ZM162.686 36.2727C162.406 36.2727 162.146 36.25 161.908 36.2045C161.673 36.1629 161.485 36.1136 161.345 36.0568L161.823 34.4545C162.122 34.5417 162.389 34.5833 162.624 34.5795C162.859 34.5758 163.065 34.5019 163.243 34.358C163.425 34.2178 163.578 33.983 163.703 33.6534L163.879 33.1818L160.715 24.2727H162.896L164.908 30.8636H164.999L167.016 24.2727H169.203L165.709 34.0568C165.546 34.5189 165.33 34.9148 165.061 35.2443C164.792 35.5777 164.463 35.8314 164.073 36.0057C163.686 36.1837 163.224 36.2727 162.686 36.2727ZM177.549 26.5795L175.674 26.7841C175.621 26.5947 175.528 26.4167 175.396 26.25C175.267 26.0833 175.093 25.9489 174.873 25.8466C174.653 25.7443 174.384 25.6932 174.066 25.6932C173.638 25.6932 173.278 25.786 172.987 25.9716C172.699 26.1572 172.557 26.3977 172.56 26.6932C172.557 26.947 172.649 27.1534 172.839 27.3125C173.032 27.4716 173.35 27.6023 173.793 27.7045L175.282 28.0227C176.108 28.2008 176.721 28.483 177.123 28.8693C177.528 29.2557 177.733 29.7614 177.737 30.3864C177.733 30.9356 177.572 31.4205 177.254 31.8409C176.939 32.2576 176.502 32.5833 175.941 32.8182C175.38 33.053 174.737 33.1705 174.009 33.1705C172.941 33.1705 172.081 32.947 171.43 32.5C170.778 32.0492 170.39 31.4223 170.265 30.6193L172.271 30.4261C172.362 30.8201 172.555 31.1174 172.85 31.3182C173.146 31.5189 173.53 31.6193 174.004 31.6193C174.492 31.6193 174.884 31.5189 175.18 31.3182C175.479 31.1174 175.629 30.8693 175.629 30.5739C175.629 30.3239 175.532 30.1174 175.339 29.9545C175.149 29.7917 174.854 29.6667 174.452 29.5795L172.964 29.267C172.127 29.0928 171.507 28.7992 171.106 28.3864C170.704 27.9697 170.505 27.4432 170.509 26.8068C170.505 26.2689 170.651 25.803 170.947 25.4091C171.246 25.0114 171.661 24.7045 172.191 24.4886C172.725 24.2689 173.341 24.1591 174.038 24.1591C175.06 24.1591 175.865 24.3769 176.452 24.8125C177.043 25.2481 177.409 25.8371 177.549 26.5795ZM188.741 26.3352V28.0284H183.502V26.3352H188.741ZM198.945 33.1591C198.187 33.1591 197.509 33.017 196.911 32.733C196.312 32.4451 195.837 32.0511 195.485 31.5511C195.136 31.0511 194.951 30.4792 194.928 29.8352H196.973C197.011 30.3125 197.218 30.7027 197.593 31.0057C197.968 31.3049 198.419 31.4545 198.945 31.4545C199.358 31.4545 199.725 31.3598 200.047 31.1705C200.369 30.9811 200.623 30.7178 200.809 30.3807C200.994 30.0436 201.085 29.6591 201.081 29.2273C201.085 28.7879 200.992 28.3977 200.803 28.0568C200.614 27.7159 200.354 27.4489 200.025 27.2557C199.695 27.0587 199.316 26.9602 198.888 26.9602C198.54 26.9564 198.197 27.0208 197.86 27.1534C197.523 27.286 197.256 27.4602 197.059 27.6761L195.155 27.3636L195.763 21.3636H202.513V23.125H197.508L197.172 26.2102H197.24C197.456 25.9564 197.761 25.7462 198.155 25.5795C198.549 25.4091 198.981 25.3239 199.451 25.3239C200.155 25.3239 200.784 25.4905 201.337 25.8239C201.89 26.1534 202.326 26.608 202.644 27.1875C202.962 27.767 203.121 28.4299 203.121 29.1761C203.121 29.9451 202.943 30.6307 202.587 31.233C202.235 31.8314 201.744 32.303 201.115 32.6477C200.49 32.9886 199.767 33.1591 198.945 33.1591ZM210.344 36.2727C210.064 36.2727 209.804 36.25 209.566 36.2045C209.331 36.1629 209.143 36.1136 209.003 36.0568L209.48 34.4545C209.78 34.5417 210.047 34.5833 210.282 34.5795C210.516 34.5758 210.723 34.5019 210.901 34.358C211.083 34.2178 211.236 33.983 211.361 33.6534L211.537 33.1818L208.372 24.2727H210.554L212.566 30.8636H212.657L214.674 24.2727H216.861L213.367 34.0568C213.204 34.5189 212.988 34.9148 212.719 35.2443C212.45 35.5777 212.121 35.8314 211.73 36.0057C211.344 36.1837 210.882 36.2727 210.344 36.2727ZM218.309 33V24.2727H220.303V25.7273H220.394C220.553 25.2235 220.826 24.8352 221.213 24.5625C221.603 24.286 222.048 24.1477 222.548 24.1477C222.661 24.1477 222.788 24.1534 222.928 24.1648C223.072 24.1723 223.192 24.1856 223.286 24.2045V26.0966C223.199 26.0663 223.061 26.0398 222.872 26.017C222.686 25.9905 222.506 25.9773 222.332 25.9773C221.957 25.9773 221.62 26.0587 221.32 26.2216C221.025 26.3807 220.792 26.6023 220.622 26.8864C220.451 27.1705 220.366 27.4981 220.366 27.8693V33H218.309ZM231.575 26.5795L229.7 26.7841C229.647 26.5947 229.555 26.4167 229.422 26.25C229.293 26.0833 229.119 25.9489 228.899 25.8466C228.68 25.7443 228.411 25.6932 228.092 25.6932C227.664 25.6932 227.305 25.786 227.013 25.9716C226.725 26.1572 226.583 26.3977 226.587 26.6932C226.583 26.947 226.676 27.1534 226.865 27.3125C227.058 27.4716 227.376 27.6023 227.82 27.7045L229.308 28.0227C230.134 28.2008 230.748 28.483 231.149 28.8693C231.555 29.2557 231.759 29.7614 231.763 30.3864C231.759 30.9356 231.598 31.4205 231.28 31.8409C230.966 32.2576 230.528 32.5833 229.967 32.8182C229.407 33.053 228.763 33.1705 228.036 33.1705C226.967 33.1705 226.108 32.947 225.456 32.5C224.805 32.0492 224.416 31.4223 224.291 30.6193L226.297 30.4261C226.388 30.8201 226.581 31.1174 226.876 31.3182C227.172 31.5189 227.556 31.6193 228.03 31.6193C228.519 31.6193 228.911 31.5189 229.206 31.3182C229.505 31.1174 229.655 30.8693 229.655 30.5739C229.655 30.3239 229.558 30.1174 229.365 29.9545C229.176 29.7917 228.88 29.6667 228.479 29.5795L226.99 29.267C226.153 29.0928 225.534 28.7992 225.132 28.3864C224.731 27.9697 224.532 27.4432 224.536 26.8068C224.532 26.2689 224.678 25.803 224.973 25.4091C225.272 25.0114 225.687 24.7045 226.217 24.4886C226.751 24.2689 227.367 24.1591 228.064 24.1591C229.087 24.1591 229.892 24.3769 230.479 24.8125C231.07 25.2481 231.435 25.8371 231.575 26.5795Z" fill="#13044F"/>
<path d="M52.6889 33H48.7457V21.3636H52.7684C53.9237 21.3636 54.9161 21.5966 55.7457 22.0625C56.579 22.5246 57.2192 23.1894 57.6661 24.0568C58.1131 24.9242 58.3366 25.9621 58.3366 27.1705C58.3366 28.3826 58.1112 29.4242 57.6604 30.2955C57.2135 31.1667 56.5676 31.8352 55.7229 32.3011C54.882 32.767 53.8707 33 52.6889 33ZM50.8536 31.1761H52.5866C53.3972 31.1761 54.0733 31.0284 54.615 30.733C55.1567 30.4337 55.5639 29.9886 55.8366 29.3977C56.1093 28.803 56.2457 28.0606 56.2457 27.1705C56.2457 26.2803 56.1093 25.5417 55.8366 24.9545C55.5639 24.3636 55.1604 23.9223 54.6264 23.6307C54.0961 23.3352 53.437 23.1875 52.6491 23.1875H50.8536V31.1761ZM62.7847 33.1761C62.2316 33.1761 61.7335 33.0777 61.2903 32.8807C60.8509 32.6799 60.5025 32.3845 60.2449 31.9943C59.9911 31.6042 59.8642 31.1231 59.8642 30.5511C59.8642 30.0587 59.9551 29.6515 60.1369 29.3295C60.3187 29.0076 60.5668 28.75 60.8812 28.5568C61.1956 28.3636 61.5498 28.2178 61.9437 28.1193C62.3415 28.017 62.7525 27.9432 63.1767 27.8977C63.6881 27.8447 64.1028 27.7973 64.421 27.7557C64.7392 27.7102 64.9703 27.642 65.1142 27.5511C65.2619 27.4564 65.3358 27.3106 65.3358 27.1136V27.0795C65.3358 26.6515 65.2089 26.3201 64.9551 26.0852C64.7013 25.8504 64.3358 25.733 63.8585 25.733C63.3547 25.733 62.9551 25.8428 62.6597 26.0625C62.368 26.2822 62.171 26.5417 62.0687 26.8409L60.1483 26.5682C60.2998 26.0379 60.5498 25.5947 60.8983 25.2386C61.2468 24.8788 61.6729 24.6098 62.1767 24.4318C62.6805 24.25 63.2373 24.1591 63.8472 24.1591C64.2676 24.1591 64.6862 24.2083 65.1028 24.3068C65.5195 24.4053 65.9002 24.5682 66.2449 24.7955C66.5896 25.0189 66.8661 25.3239 67.0744 25.7102C67.2865 26.0966 67.3926 26.5795 67.3926 27.1591V33H65.4153V31.8011H65.3472C65.2222 32.0436 65.046 32.2708 64.8187 32.483C64.5953 32.6913 64.3131 32.8598 63.9722 32.9886C63.635 33.1136 63.2392 33.1761 62.7847 33.1761ZM63.3187 31.6648C63.7316 31.6648 64.0896 31.5833 64.3926 31.4205C64.6956 31.2538 64.9286 31.0341 65.0915 30.7614C65.2581 30.4886 65.3415 30.1913 65.3415 29.8693V28.8409C65.2771 28.8939 65.1672 28.9432 65.0119 28.9886C64.8604 29.0341 64.69 29.0739 64.5006 29.108C64.3112 29.142 64.1237 29.1723 63.9381 29.1989C63.7525 29.2254 63.5915 29.2481 63.4551 29.267C63.1483 29.3087 62.8737 29.3769 62.6312 29.4716C62.3888 29.5663 62.1975 29.6989 62.0574 29.8693C61.9172 30.036 61.8472 30.2519 61.8472 30.517C61.8472 30.8958 61.9854 31.1818 62.2619 31.375C62.5384 31.5682 62.8907 31.6648 63.3187 31.6648ZM73.8435 24.2727V25.8636H68.8265V24.2727H73.8435ZM70.0651 22.1818H72.1219V30.375C72.1219 30.6515 72.1636 30.8636 72.2469 31.0114C72.334 31.1553 72.4477 31.2538 72.5878 31.3068C72.728 31.3598 72.8833 31.3864 73.0537 31.3864C73.1825 31.3864 73.3 31.3769 73.406 31.358C73.5159 31.339 73.5992 31.322 73.656 31.3068L74.0026 32.9148C73.8928 32.9527 73.7356 32.9943 73.531 33.0398C73.3303 33.0852 73.084 33.1117 72.7924 33.1193C72.2772 33.1345 71.8132 33.0568 71.4003 32.8864C70.9875 32.7121 70.6598 32.4432 70.4174 32.0795C70.1787 31.7159 70.0613 31.2614 70.0651 30.7159V22.1818ZM78.0998 33.1761C77.5468 33.1761 77.0487 33.0777 76.6055 32.8807C76.1661 32.6799 75.8176 32.3845 75.56 31.9943C75.3063 31.6042 75.1794 31.1231 75.1794 30.5511C75.1794 30.0587 75.2703 29.6515 75.4521 29.3295C75.6339 29.0076 75.882 28.75 76.1964 28.5568C76.5108 28.3636 76.865 28.2178 77.2589 28.1193C77.6566 28.017 78.0676 27.9432 78.4919 27.8977C79.0032 27.8447 79.418 27.7973 79.7362 27.7557C80.0544 27.7102 80.2854 27.642 80.4294 27.5511C80.5771 27.4564 80.6509 27.3106 80.6509 27.1136V27.0795C80.6509 26.6515 80.5241 26.3201 80.2703 26.0852C80.0165 25.8504 79.6509 25.733 79.1737 25.733C78.6699 25.733 78.2703 25.8428 77.9748 26.0625C77.6831 26.2822 77.4862 26.5417 77.3839 26.8409L75.4634 26.5682C75.615 26.0379 75.865 25.5947 76.2134 25.2386C76.5619 24.8788 76.9881 24.6098 77.4919 24.4318C77.9956 24.25 78.5525 24.1591 79.1623 24.1591C79.5828 24.1591 80.0013 24.2083 80.418 24.3068C80.8347 24.4053 81.2153 24.5682 81.56 24.7955C81.9047 25.0189 82.1813 25.3239 82.3896 25.7102C82.6017 26.0966 82.7078 26.5795 82.7078 27.1591V33H80.7305V31.8011H80.6623C80.5373 32.0436 80.3612 32.2708 80.1339 32.483C79.9104 32.6913 79.6282 32.8598 79.2873 32.9886C78.9502 33.1136 78.5544 33.1761 78.0998 33.1761ZM78.6339 31.6648C79.0468 31.6648 79.4047 31.5833 79.7078 31.4205C80.0108 31.2538 80.2438 31.0341 80.4066 30.7614C80.5733 30.4886 80.6566 30.1913 80.6566 29.8693V28.8409C80.5922 28.8939 80.4824 28.9432 80.3271 28.9886C80.1756 29.0341 80.0051 29.0739 79.8157 29.108C79.6263 29.142 79.4388 29.1723 79.2532 29.1989C79.0676 29.2254 78.9066 29.2481 78.7703 29.267C78.4634 29.3087 78.1888 29.3769 77.9464 29.4716C77.704 29.5663 77.5127 29.6989 77.3725 29.8693C77.2324 30.036 77.1623 30.2519 77.1623 30.517C77.1623 30.8958 77.3006 31.1818 77.5771 31.375C77.8536 31.5682 78.2059 31.6648 78.6339 31.6648ZM93.2147 24.2727V25.8636H88.0556V24.2727H93.2147ZM89.3454 33V23.4489C89.3454 22.8617 89.4666 22.3731 89.709 21.983C89.9552 21.5928 90.2848 21.3011 90.6977 21.108C91.1105 20.9148 91.5689 20.8182 92.0727 20.8182C92.4287 20.8182 92.745 20.8466 93.0215 20.9034C93.298 20.9602 93.5026 21.0114 93.6352 21.0568L93.2261 22.6477C93.1389 22.6212 93.0291 22.5947 92.8965 22.5682C92.7639 22.5379 92.6162 22.5227 92.4533 22.5227C92.0708 22.5227 91.7999 22.6155 91.6408 22.8011C91.4855 22.983 91.4079 23.2443 91.4079 23.5852V33H89.3454ZM94.8503 33V24.2727H96.8446V25.7273H96.9355C97.0946 25.2235 97.3673 24.8352 97.7537 24.5625C98.1438 24.286 98.5889 24.1477 99.0889 24.1477C99.2025 24.1477 99.3294 24.1534 99.4696 24.1648C99.6135 24.1723 99.7328 24.1856 99.8275 24.2045V26.0966C99.7404 26.0663 99.6022 26.0398 99.4128 26.017C99.2272 25.9905 99.0472 25.9773 98.873 25.9773C98.498 25.9773 98.1609 26.0587 97.8616 26.2216C97.5662 26.3807 97.3332 26.6023 97.1628 26.8864C96.9923 27.1705 96.9071 27.4981 96.9071 27.8693V33H94.8503ZM104.666 33.1705C103.814 33.1705 103.075 32.983 102.45 32.608C101.825 32.233 101.34 31.7083 100.996 31.0341C100.655 30.3598 100.484 29.572 100.484 28.6705C100.484 27.7689 100.655 26.9792 100.996 26.3011C101.34 25.6231 101.825 25.0966 102.45 24.7216C103.075 24.3466 103.814 24.1591 104.666 24.1591C105.519 24.1591 106.257 24.3466 106.882 24.7216C107.507 25.0966 107.99 25.6231 108.331 26.3011C108.676 26.9792 108.848 27.7689 108.848 28.6705C108.848 29.572 108.676 30.3598 108.331 31.0341C107.99 31.7083 107.507 32.233 106.882 32.608C106.257 32.983 105.519 33.1705 104.666 33.1705ZM104.678 31.5227C105.14 31.5227 105.526 31.3958 105.837 31.142C106.147 30.8845 106.378 30.5398 106.53 30.108C106.685 29.6761 106.763 29.1951 106.763 28.6648C106.763 28.1307 106.685 27.6477 106.53 27.2159C106.378 26.7803 106.147 26.4337 105.837 26.1761C105.526 25.9186 105.14 25.7898 104.678 25.7898C104.204 25.7898 103.81 25.9186 103.496 26.1761C103.185 26.4337 102.952 26.7803 102.797 27.2159C102.645 27.6477 102.57 28.1307 102.57 28.6648C102.57 29.1951 102.645 29.6761 102.797 30.108C102.952 30.5398 103.185 30.8845 103.496 31.142C103.81 31.3958 104.204 31.5227 104.678 31.5227ZM110.619 33V24.2727H112.584V25.7557H112.687C112.869 25.2557 113.17 24.8655 113.59 24.5852C114.011 24.3011 114.512 24.1591 115.096 24.1591C115.687 24.1591 116.185 24.303 116.59 24.5909C116.999 24.875 117.287 25.2633 117.454 25.7557H117.545C117.738 25.2708 118.064 24.8845 118.522 24.5966C118.984 24.3049 119.531 24.1591 120.164 24.1591C120.967 24.1591 121.622 24.4129 122.13 24.9205C122.637 25.428 122.891 26.1686 122.891 27.142V33H120.829V27.4602C120.829 26.9186 120.685 26.5227 120.397 26.2727C120.109 26.0189 119.757 25.892 119.34 25.892C118.844 25.892 118.456 26.0473 118.175 26.358C117.899 26.6648 117.761 27.0644 117.761 27.5568V33H115.744V27.375C115.744 26.9242 115.607 26.5644 115.334 26.2955C115.066 26.0265 114.713 25.892 114.278 25.892C113.982 25.892 113.713 25.9678 113.471 26.1193C113.228 26.267 113.035 26.4773 112.891 26.75C112.747 27.0189 112.675 27.3333 112.675 27.6932V33H110.619ZM129.4 33L134.348 23.2045V23.125H128.604V21.3636H136.53V23.1648L131.587 33H129.4ZM145.644 33.1534C144.958 33.1534 144.345 32.9773 143.803 32.625C143.261 32.2727 142.833 31.7614 142.519 31.0909C142.204 30.4205 142.047 29.6061 142.047 28.6477C142.047 27.678 142.206 26.8598 142.524 26.1932C142.846 25.5227 143.28 25.017 143.826 24.6761C144.371 24.3314 144.979 24.1591 145.649 24.1591C146.161 24.1591 146.581 24.2462 146.911 24.4205C147.24 24.5909 147.502 24.7973 147.695 25.0398C147.888 25.2784 148.038 25.5038 148.144 25.7159H148.229V21.3636H150.292V33H148.269V31.625H148.144C148.038 31.8371 147.884 32.0625 147.684 32.3011C147.483 32.536 147.218 32.7367 146.888 32.9034C146.559 33.0701 146.144 33.1534 145.644 33.1534ZM146.218 31.4659C146.653 31.4659 147.024 31.3485 147.331 31.1136C147.638 30.875 147.871 30.5436 148.03 30.1193C148.189 29.6951 148.269 29.2008 148.269 28.6364C148.269 28.072 148.189 27.5814 148.03 27.1648C147.875 26.7481 147.644 26.4242 147.337 26.1932C147.034 25.9621 146.661 25.8466 146.218 25.8466C145.759 25.8466 145.377 25.9659 145.07 26.2045C144.763 26.4432 144.532 26.7727 144.377 27.1932C144.221 27.6136 144.144 28.0947 144.144 28.6364C144.144 29.1818 144.221 29.6686 144.377 30.0966C144.536 30.5208 144.769 30.8561 145.076 31.1023C145.386 31.3447 145.767 31.4659 146.218 31.4659ZM155.019 33.1761C154.466 33.1761 153.968 33.0777 153.525 32.8807C153.086 32.6799 152.737 32.3845 152.48 31.9943C152.226 31.6042 152.099 31.1231 152.099 30.5511C152.099 30.0587 152.19 29.6515 152.372 29.3295C152.554 29.0076 152.802 28.75 153.116 28.5568C153.43 28.3636 153.785 28.2178 154.179 28.1193C154.576 28.017 154.987 27.9432 155.411 27.8977C155.923 27.8447 156.338 27.7973 156.656 27.7557C156.974 27.7102 157.205 27.642 157.349 27.5511C157.497 27.4564 157.571 27.3106 157.571 27.1136V27.0795C157.571 26.6515 157.444 26.3201 157.19 26.0852C156.936 25.8504 156.571 25.733 156.093 25.733C155.589 25.733 155.19 25.8428 154.894 26.0625C154.603 26.2822 154.406 26.5417 154.304 26.8409L152.383 26.5682C152.535 26.0379 152.785 25.5947 153.133 25.2386C153.482 24.8788 153.908 24.6098 154.411 24.4318C154.915 24.25 155.472 24.1591 156.082 24.1591C156.502 24.1591 156.921 24.2083 157.338 24.3068C157.754 24.4053 158.135 24.5682 158.48 24.7955C158.824 25.0189 159.101 25.3239 159.309 25.7102C159.521 26.0966 159.627 26.5795 159.627 27.1591V33H157.65V31.8011H157.582C157.457 32.0436 157.281 32.2708 157.054 32.483C156.83 32.6913 156.548 32.8598 156.207 32.9886C155.87 33.1136 155.474 33.1761 155.019 33.1761ZM155.554 31.6648C155.966 31.6648 156.324 31.5833 156.627 31.4205C156.93 31.2538 157.163 31.0341 157.326 30.7614C157.493 30.4886 157.576 30.1913 157.576 29.8693V28.8409C157.512 28.8939 157.402 28.9432 157.247 28.9886C157.095 29.0341 156.925 29.0739 156.735 29.108C156.546 29.142 156.358 29.1723 156.173 29.1989C155.987 29.2254 155.826 29.2481 155.69 29.267C155.383 29.3087 155.108 29.3769 154.866 29.4716C154.624 29.5663 154.432 29.6989 154.292 29.8693C154.152 30.036 154.082 30.2519 154.082 30.517C154.082 30.8958 154.22 31.1818 154.497 31.375C154.773 31.5682 155.125 31.6648 155.554 31.6648ZM162.686 36.2727C162.406 36.2727 162.146 36.25 161.908 36.2045C161.673 36.1629 161.485 36.1136 161.345 36.0568L161.823 34.4545C162.122 34.5417 162.389 34.5833 162.624 34.5795C162.859 34.5758 163.065 34.5019 163.243 34.358C163.425 34.2178 163.578 33.983 163.703 33.6534L163.879 33.1818L160.715 24.2727H162.896L164.908 30.8636H164.999L167.016 24.2727H169.203L165.709 34.0568C165.546 34.5189 165.33 34.9148 165.061 35.2443C164.792 35.5777 164.463 35.8314 164.073 36.0057C163.686 36.1837 163.224 36.2727 162.686 36.2727ZM177.549 26.5795L175.674 26.7841C175.621 26.5947 175.528 26.4167 175.396 26.25C175.267 26.0833 175.093 25.9489 174.873 25.8466C174.653 25.7443 174.384 25.6932 174.066 25.6932C173.638 25.6932 173.278 25.786 172.987 25.9716C172.699 26.1572 172.557 26.3977 172.56 26.6932C172.557 26.947 172.649 27.1534 172.839 27.3125C173.032 27.4716 173.35 27.6023 173.793 27.7045L175.282 28.0227C176.108 28.2008 176.721 28.483 177.123 28.8693C177.528 29.2557 177.733 29.7614 177.737 30.3864C177.733 30.9356 177.572 31.4205 177.254 31.8409C176.939 32.2576 176.502 32.5833 175.941 32.8182C175.38 33.053 174.737 33.1705 174.009 33.1705C172.941 33.1705 172.081 32.947 171.43 32.5C170.778 32.0492 170.39 31.4223 170.265 30.6193L172.271 30.4261C172.362 30.8201 172.555 31.1174 172.85 31.3182C173.146 31.5189 173.53 31.6193 174.004 31.6193C174.492 31.6193 174.884 31.5189 175.18 31.3182C175.479 31.1174 175.629 30.8693 175.629 30.5739C175.629 30.3239 175.532 30.1174 175.339 29.9545C175.149 29.7917 174.854 29.6667 174.452 29.5795L172.964 29.267C172.127 29.0928 171.507 28.7992 171.106 28.3864C170.704 27.9697 170.505 27.4432 170.509 26.8068C170.505 26.2689 170.651 25.803 170.947 25.4091C171.246 25.0114 171.661 24.7045 172.191 24.4886C172.725 24.2689 173.341 24.1591 174.038 24.1591C175.06 24.1591 175.865 24.3769 176.452 24.8125C177.043 25.2481 177.409 25.8371 177.549 26.5795ZM188.741 26.3352V28.0284H183.502V26.3352H188.741ZM198.945 33.1591C198.187 33.1591 197.509 33.017 196.911 32.733C196.312 32.4451 195.837 32.0511 195.485 31.5511C195.136 31.0511 194.951 30.4792 194.928 29.8352H196.973C197.011 30.3125 197.218 30.7027 197.593 31.0057C197.968 31.3049 198.419 31.4545 198.945 31.4545C199.358 31.4545 199.725 31.3598 200.047 31.1705C200.369 30.9811 200.623 30.7178 200.809 30.3807C200.994 30.0436 201.085 29.6591 201.081 29.2273C201.085 28.7879 200.992 28.3977 200.803 28.0568C200.614 27.7159 200.354 27.4489 200.025 27.2557C199.695 27.0587 199.316 26.9602 198.888 26.9602C198.54 26.9564 198.197 27.0208 197.86 27.1534C197.523 27.286 197.256 27.4602 197.059 27.6761L195.155 27.3636L195.763 21.3636H202.513V23.125H197.508L197.172 26.2102H197.24C197.456 25.9564 197.761 25.7462 198.155 25.5795C198.549 25.4091 198.981 25.3239 199.451 25.3239C200.155 25.3239 200.784 25.4905 201.337 25.8239C201.89 26.1534 202.326 26.608 202.644 27.1875C202.962 27.767 203.121 28.4299 203.121 29.1761C203.121 29.9451 202.943 30.6307 202.587 31.233C202.235 31.8314 201.744 32.303 201.115 32.6477C200.49 32.9886 199.767 33.1591 198.945 33.1591ZM210.344 36.2727C210.064 36.2727 209.804 36.25 209.566 36.2045C209.331 36.1629 209.143 36.1136 209.003 36.0568L209.48 34.4545C209.78 34.5417 210.047 34.5833 210.282 34.5795C210.516 34.5758 210.723 34.5019 210.901 34.358C211.083 34.2178 211.236 33.983 211.361 33.6534L211.537 33.1818L208.372 24.2727H210.554L212.566 30.8636H212.657L214.674 24.2727H216.861L213.367 34.0568C213.204 34.5189 212.988 34.9148 212.719 35.2443C212.45 35.5777 212.121 35.8314 211.73 36.0057C211.344 36.1837 210.882 36.2727 210.344 36.2727ZM218.309 33V24.2727H220.303V25.7273H220.394C220.553 25.2235 220.826 24.8352 221.213 24.5625C221.603 24.286 222.048 24.1477 222.548 24.1477C222.661 24.1477 222.788 24.1534 222.928 24.1648C223.072 24.1723 223.192 24.1856 223.286 24.2045V26.0966C223.199 26.0663 223.061 26.0398 222.872 26.017C222.686 25.9905 222.506 25.9773 222.332 25.9773C221.957 25.9773 221.62 26.0587 221.32 26.2216C221.025 26.3807 220.792 26.6023 220.622 26.8864C220.451 27.1705 220.366 27.4981 220.366 27.8693V33H218.309ZM231.575 26.5795L229.7 26.7841C229.647 26.5947 229.555 26.4167 229.422 26.25C229.293 26.0833 229.119 25.9489 228.899 25.8466C228.68 25.7443 228.411 25.6932 228.092 25.6932C227.664 25.6932 227.305 25.786 227.013 25.9716C226.725 26.1572 226.583 26.3977 226.587 26.6932C226.583 26.947 226.676 27.1534 226.865 27.3125C227.058 27.4716 227.376 27.6023 227.82 27.7045L229.308 28.0227C230.134 28.2008 230.748 28.483 231.149 28.8693C231.555 29.2557 231.759 29.7614 231.763 30.3864C231.759 30.9356 231.598 31.4205 231.28 31.8409C230.966 32.2576 230.528 32.5833 229.967 32.8182C229.407 33.053 228.763 33.1705 228.036 33.1705C226.967 33.1705 226.108 32.947 225.456 32.5C224.805 32.0492 224.416 31.4223 224.291 30.6193L226.297 30.4261C226.388 30.8201 226.581 31.1174 226.876 31.3182C227.172 31.5189 227.556 31.6193 228.03 31.6193C228.519 31.6193 228.911 31.5189 229.206 31.3182C229.505 31.1174 229.655 30.8693 229.655 30.5739C229.655 30.3239 229.558 30.1174 229.365 29.9545C229.176 29.7917 228.88 29.6667 228.479 29.5795L226.99 29.267C226.153 29.0928 225.534 28.7992 225.132 28.3864C224.731 27.9697 224.532 27.4432 224.536 26.8068C224.532 26.2689 224.678 25.803 224.973 25.4091C225.272 25.0114 225.687 24.7045 226.217 24.4886C226.751 24.2689 227.367 24.1591 228.064 24.1591C229.087 24.1591 229.892 24.3769 230.479 24.8125C231.07 25.2481 231.435 25.8371 231.575 26.5795Z" fill="#13044F"/>
<g filter="url(#filter3_dd_488_1245)">
<path d="M62.259 106.21V104.515L66.5097 97.8182H67.9714V100.165H67.1063L64.4266 104.406V104.485H70.4671V106.21H62.259ZM67.1461 108V105.693L67.1859 104.942V97.8182H69.2043V108H67.1461ZM72.3289 108L76.5498 99.6477V99.5781H71.6329V97.8182H78.777V99.603L74.5512 108H72.3289ZM84.0506 108.224C83.1954 108.22 82.4596 108.01 81.8432 107.592C81.23 107.175 80.7577 106.57 80.4263 105.778C80.0981 104.986 79.9357 104.033 79.9391 102.919C79.9391 101.809 80.1031 100.862 80.4312 100.08C80.7627 99.2981 81.235 98.7031 81.8481 98.2955C82.4646 97.8845 83.1988 97.679 84.0506 97.679C84.9024 97.679 85.6348 97.8845 86.248 98.2955C86.8645 98.7064 87.3384 99.303 87.6699 100.085C88.0013 100.864 88.1654 101.809 88.1621 102.919C88.1621 104.036 87.9963 104.991 87.6649 105.783C87.3368 106.575 86.8661 107.18 86.253 107.597C85.6398 108.015 84.9057 108.224 84.0506 108.224ZM84.0506 106.439C84.6339 106.439 85.0996 106.146 85.4476 105.559C85.7956 104.972 85.9679 104.092 85.9646 102.919C85.9646 102.147 85.8851 101.504 85.726 100.99C85.5702 100.476 85.3481 100.09 85.0598 99.8317C84.7748 99.5732 84.4383 99.4439 84.0506 99.4439C83.4705 99.4439 83.0065 99.7339 82.6585 100.314C82.3105 100.894 82.1348 101.762 82.1315 102.919C82.1315 103.701 82.2094 104.354 82.3652 104.878C82.5243 105.398 82.748 105.789 83.0364 106.051C83.3247 106.31 83.6628 106.439 84.0506 106.439ZM92.7644 106.449V99.4091H94.5443V106.449H92.7644ZM90.1345 103.819V102.039H97.1742V103.819H90.1345Z" fill="black"/>
<path d="M58.4922 119.273V128H56.9112V119.273H58.4922ZM61.7034 124.165V128H60.1608V121.455H61.6352V122.567H61.7119C61.8625 122.2 62.1025 121.909 62.4321 121.693C62.7645 121.477 63.175 121.369 63.6636 121.369C64.1153 121.369 64.5088 121.466 64.844 121.659C65.1821 121.852 65.4434 122.132 65.6281 122.499C65.8156 122.865 65.9079 123.31 65.9051 123.832V128H64.3625V124.071C64.3625 123.634 64.2488 123.291 64.0216 123.044C63.7971 122.797 63.486 122.673 63.0883 122.673C62.8184 122.673 62.5784 122.733 62.3681 122.852C62.1608 122.969 61.9974 123.138 61.8781 123.359C61.7616 123.581 61.7034 123.849 61.7034 124.165ZM70.7665 121.455V122.648H67.0037V121.455H70.7665ZM67.9327 119.886H69.4753V126.031C69.4753 126.239 69.5066 126.398 69.5691 126.509C69.6344 126.616 69.7196 126.69 69.8247 126.73C69.9299 126.77 70.0463 126.79 70.1742 126.79C70.2708 126.79 70.3588 126.783 70.4384 126.768C70.5208 126.754 70.5833 126.741 70.6259 126.73L70.8858 127.936C70.8034 127.964 70.6855 127.996 70.5321 128.03C70.3816 128.064 70.1969 128.084 69.9781 128.089C69.5918 128.101 69.2438 128.043 68.9341 127.915C68.6245 127.784 68.3787 127.582 68.1969 127.31C68.0179 127.037 67.9299 126.696 67.9327 126.287V119.886ZM74.9088 128.128C74.2526 128.128 73.6858 127.991 73.2085 127.719C72.7341 127.443 72.369 127.054 72.1134 126.551C71.8577 126.045 71.7298 125.45 71.7298 124.766C71.7298 124.092 71.8577 123.501 72.1134 122.993C72.3719 122.482 72.7327 122.084 73.1957 121.8C73.6588 121.513 74.2028 121.369 74.8278 121.369C75.2313 121.369 75.6119 121.435 75.9699 121.565C76.3307 121.693 76.6489 121.892 76.9244 122.162C77.2028 122.432 77.4216 122.776 77.5807 123.193C77.7398 123.608 77.8193 124.102 77.8193 124.676V125.149H72.4543V124.109H76.3406C76.3378 123.814 76.2739 123.551 76.1489 123.321C76.0239 123.088 75.8492 122.905 75.6247 122.771C75.4031 122.638 75.1446 122.571 74.8492 122.571C74.5338 122.571 74.2568 122.648 74.0182 122.801C73.7796 122.952 73.5935 123.151 73.4599 123.398C73.3293 123.642 73.2625 123.911 73.2597 124.203V125.111C73.2597 125.491 73.3293 125.818 73.4685 126.091C73.6077 126.361 73.8023 126.568 74.0523 126.713C74.3023 126.855 74.5949 126.926 74.9301 126.926C75.1546 126.926 75.3577 126.895 75.5395 126.832C75.7213 126.767 75.879 126.672 76.0125 126.547C76.146 126.422 76.2469 126.267 76.3151 126.082L77.7554 126.244C77.6645 126.625 77.4912 126.957 77.2355 127.241C76.9827 127.523 76.6588 127.741 76.2639 127.898C75.869 128.051 75.4173 128.128 74.9088 128.128ZM79.1491 128V121.455H80.6449V122.545H80.7131C80.8324 122.168 81.0369 121.876 81.3267 121.672C81.6193 121.464 81.9531 121.361 82.3281 121.361C82.4133 121.361 82.5085 121.365 82.6136 121.374C82.7216 121.379 82.8111 121.389 82.8821 121.403V122.822C82.8168 122.8 82.7131 122.78 82.571 122.763C82.4318 122.743 82.2969 122.733 82.1662 122.733C81.8849 122.733 81.6321 122.794 81.4077 122.916C81.1861 123.036 81.0114 123.202 80.8835 123.415C80.7557 123.628 80.6918 123.874 80.6918 124.152V128H79.1491ZM86.5599 128.128C85.9037 128.128 85.3369 127.991 84.8596 127.719C84.3852 127.443 84.0201 127.054 83.7645 126.551C83.5088 126.045 83.3809 125.45 83.3809 124.766C83.3809 124.092 83.5088 123.501 83.7645 122.993C84.023 122.482 84.3838 122.084 84.8468 121.8C85.3099 121.513 85.854 121.369 86.479 121.369C86.8824 121.369 87.263 121.435 87.621 121.565C87.9818 121.693 88.3 121.892 88.5755 122.162C88.854 122.432 89.0727 122.776 89.2318 123.193C89.3909 123.608 89.4704 124.102 89.4704 124.676V125.149H84.1054V124.109H87.9917C87.9889 123.814 87.925 123.551 87.8 123.321C87.675 123.088 87.5003 122.905 87.2758 122.771C87.0542 122.638 86.7957 122.571 86.5003 122.571C86.1849 122.571 85.9079 122.648 85.6693 122.801C85.4307 122.952 85.2446 123.151 85.1111 123.398C84.9804 123.642 84.9136 123.911 84.9108 124.203V125.111C84.9108 125.491 84.9804 125.818 85.1196 126.091C85.2588 126.361 85.4534 126.568 85.7034 126.713C85.9534 126.855 86.246 126.926 86.5812 126.926C86.8057 126.926 87.0088 126.895 87.1906 126.832C87.3724 126.767 87.5301 126.672 87.6636 126.547C87.7971 126.422 87.898 126.267 87.9662 126.082L89.4065 126.244C89.3156 126.625 89.1423 126.957 88.8866 127.241C88.6338 127.523 88.3099 127.741 87.915 127.898C87.5201 128.051 87.0684 128.128 86.5599 128.128ZM95.9735 123.185L94.5673 123.338C94.5275 123.196 94.4579 123.062 94.3585 122.938C94.2619 122.812 94.1312 122.712 93.9664 122.635C93.8017 122.558 93.6 122.52 93.3613 122.52C93.0403 122.52 92.7704 122.589 92.5517 122.729C92.3358 122.868 92.2292 123.048 92.2321 123.27C92.2292 123.46 92.2988 123.615 92.4409 123.734C92.5858 123.854 92.8244 123.952 93.1568 124.028L94.2733 124.267C94.8926 124.401 95.3528 124.612 95.6539 124.902C95.9579 125.192 96.1113 125.571 96.1142 126.04C96.1113 126.452 95.9906 126.815 95.7519 127.131C95.5162 127.443 95.188 127.687 94.7676 127.864C94.3471 128.04 93.8642 128.128 93.3187 128.128C92.5176 128.128 91.8727 127.96 91.384 127.625C90.8954 127.287 90.6042 126.817 90.5105 126.214L92.0147 126.07C92.0829 126.365 92.2278 126.588 92.4494 126.739C92.671 126.889 92.9593 126.964 93.3144 126.964C93.6809 126.964 93.975 126.889 94.1966 126.739C94.421 126.588 94.5332 126.402 94.5332 126.18C94.5332 125.993 94.4608 125.838 94.3159 125.716C94.1738 125.594 93.9522 125.5 93.6511 125.435L92.5346 125.2C91.9068 125.07 91.4423 124.849 91.1412 124.54C90.84 124.227 90.6909 123.832 90.6937 123.355C90.6909 122.952 90.8002 122.602 91.0218 122.307C91.2463 122.009 91.5573 121.778 91.9551 121.616C92.3556 121.452 92.8173 121.369 93.34 121.369C94.1071 121.369 94.7108 121.533 95.1511 121.859C95.5943 122.186 95.8684 122.628 95.9735 123.185ZM100.679 121.455V122.648H96.9166V121.455H100.679ZM97.8456 119.886H99.3882V126.031C99.3882 126.239 99.4195 126.398 99.482 126.509C99.5473 126.616 99.6325 126.69 99.7377 126.73C99.8428 126.77 99.9592 126.79 100.087 126.79C100.184 126.79 100.272 126.783 100.351 126.768C100.434 126.754 100.496 126.741 100.539 126.73L100.799 127.936C100.716 127.964 100.598 127.996 100.445 128.03C100.294 128.064 100.11 128.084 99.8911 128.089C99.5047 128.101 99.1567 128.043 98.847 127.915C98.5374 127.784 98.2916 127.582 98.1098 127.31C97.9308 127.037 97.8428 126.696 97.8456 126.287V119.886ZM62.7023 143V134.273H65.975C66.6455 134.273 67.208 134.398 67.6625 134.648C68.1199 134.898 68.4651 135.241 68.698 135.679C68.9338 136.114 69.0517 136.608 69.0517 137.162C69.0517 137.722 68.9338 138.219 68.698 138.653C68.4622 139.088 68.1142 139.43 67.654 139.68C67.1937 139.928 66.627 140.051 65.9537 140.051H63.7847V138.751H65.7406C66.1327 138.751 66.4537 138.683 66.7037 138.547C66.9537 138.411 67.1383 138.223 67.2577 137.984C67.3798 137.746 67.4409 137.472 67.4409 137.162C67.4409 136.852 67.3798 136.58 67.2577 136.344C67.1383 136.108 66.9523 135.925 66.6994 135.794C66.4494 135.661 66.127 135.594 65.7321 135.594H64.2832V143H62.7023ZM73.1429 143.128C72.5037 143.128 71.9497 142.987 71.4809 142.706C71.0122 142.425 70.6486 142.031 70.39 141.526C70.1344 141.02 70.0065 140.429 70.0065 139.753C70.0065 139.077 70.1344 138.484 70.39 137.976C70.6486 137.467 71.0122 137.072 71.4809 136.791C71.9497 136.51 72.5037 136.369 73.1429 136.369C73.7821 136.369 74.3361 136.51 74.8048 136.791C75.2736 137.072 75.6358 137.467 75.8915 137.976C76.15 138.484 76.2792 139.077 76.2792 139.753C76.2792 140.429 76.15 141.02 75.8915 141.526C75.6358 142.031 75.2736 142.425 74.8048 142.706C74.3361 142.987 73.7821 143.128 73.1429 143.128ZM73.1514 141.892C73.498 141.892 73.7878 141.797 74.0207 141.607C74.2537 141.413 74.427 141.155 74.5406 140.831C74.6571 140.507 74.7153 140.146 74.7153 139.749C74.7153 139.348 74.6571 138.986 74.5406 138.662C74.427 138.335 74.2537 138.075 74.0207 137.882C73.7878 137.689 73.498 137.592 73.1514 137.592C72.7963 137.592 72.5008 137.689 72.265 137.882C72.0321 138.075 71.8574 138.335 71.7409 138.662C71.6273 138.986 71.5704 139.348 71.5704 139.749C71.5704 140.146 71.6273 140.507 71.7409 140.831C71.8574 141.155 72.0321 141.413 72.265 141.607C72.5008 141.797 72.7963 141.892 73.1514 141.892ZM77.6133 143V136.455H79.1559V143H77.6133ZM78.3889 135.526C78.1446 135.526 77.9343 135.445 77.7582 135.283C77.5821 135.118 77.494 134.92 77.494 134.69C77.494 134.457 77.5821 134.26 77.7582 134.098C77.9343 133.933 78.1446 133.851 78.3889 133.851C78.636 133.851 78.8463 133.933 79.0196 134.098C79.1957 134.26 79.2838 134.457 79.2838 134.69C79.2838 134.92 79.1957 135.118 79.0196 135.283C78.8463 135.445 78.636 135.526 78.3889 135.526ZM82.3096 139.165V143H80.767V136.455H82.2414V137.567H82.3181C82.4687 137.2 82.7088 136.909 83.0383 136.693C83.3707 136.477 83.7812 136.369 84.2698 136.369C84.7215 136.369 85.115 136.466 85.4502 136.659C85.7883 136.852 86.0497 137.132 86.2343 137.499C86.4218 137.865 86.5142 138.31 86.5113 138.832V143H84.9687V139.071C84.9687 138.634 84.8551 138.291 84.6278 138.044C84.4034 137.797 84.0923 137.673 83.6946 137.673C83.4247 137.673 83.1846 137.733 82.9744 137.852C82.767 137.969 82.6036 138.138 82.4843 138.359C82.3678 138.581 82.3096 138.849 82.3096 139.165ZM91.3727 136.455V137.648H87.6099V136.455H91.3727ZM88.5389 134.886H90.0815V141.031C90.0815 141.239 90.1128 141.398 90.1753 141.509C90.2406 141.616 90.3259 141.69 90.431 141.73C90.5361 141.77 90.6526 141.79 90.7804 141.79C90.877 141.79 90.9651 141.783 91.0446 141.768C91.127 141.754 91.1895 141.741 91.2321 141.73L91.4921 142.936C91.4097 142.964 91.2918 142.996 91.1384 143.03C90.9878 143.064 90.8031 143.084 90.5844 143.089C90.198 143.101 89.85 143.043 89.5403 142.915C89.2307 142.784 88.9849 142.582 88.8031 142.31C88.6242 142.037 88.5361 141.696 88.5389 141.287V134.886ZM97.7672 138.185L96.3609 138.338C96.3212 138.196 96.2515 138.062 96.1521 137.938C96.0555 137.812 95.9248 137.712 95.7601 137.635C95.5953 137.558 95.3936 137.52 95.155 137.52C94.8339 137.52 94.564 137.589 94.3453 137.729C94.1294 137.868 94.0229 138.048 94.0257 138.27C94.0229 138.46 94.0925 138.615 94.2345 138.734C94.3794 138.854 94.618 138.952 94.9504 139.028L96.0669 139.267C96.6862 139.401 97.1464 139.612 97.4476 139.902C97.7516 140.192 97.905 140.571 97.9078 141.04C97.905 141.452 97.7842 141.815 97.5456 142.131C97.3098 142.443 96.9817 142.687 96.5612 142.864C96.1408 143.04 95.6578 143.128 95.1123 143.128C94.3112 143.128 93.6663 142.96 93.1777 142.625C92.689 142.287 92.3979 141.817 92.3041 141.214L93.8084 141.07C93.8765 141.365 94.0214 141.588 94.243 141.739C94.4646 141.889 94.753 141.964 95.1081 141.964C95.4746 141.964 95.7686 141.889 95.9902 141.739C96.2146 141.588 96.3268 141.402 96.3268 141.18C96.3268 140.993 96.2544 140.838 96.1095 140.716C95.9675 140.594 95.7459 140.5 95.4447 140.435L94.3283 140.2C93.7004 140.07 93.2359 139.849 92.9348 139.54C92.6337 139.227 92.4845 138.832 92.4873 138.355C92.4845 137.952 92.5939 137.602 92.8155 137.307C93.0399 137.009 93.351 136.778 93.7487 136.616C94.1493 136.452 94.6109 136.369 95.1337 136.369C95.9007 136.369 96.5044 136.533 96.9447 136.859C97.3879 137.186 97.6621 137.628 97.7672 138.185Z" fill="black"/>
</g>
<g filter="url(#filter4_dd_488_1245)">
<path d="M185.051 97.8182V108H182.898V99.8615H182.839L180.507 101.323V99.4141L183.028 97.8182H185.051ZM191.215 108.139C190.512 108.139 189.886 108.01 189.335 107.751C188.788 107.493 188.354 107.137 188.033 106.683C187.711 106.228 187.544 105.708 187.531 105.121H189.619C189.642 105.516 189.808 105.836 190.116 106.081C190.424 106.326 190.79 106.449 191.215 106.449C191.553 106.449 191.851 106.374 192.11 106.225C192.371 106.073 192.575 105.862 192.721 105.594C192.87 105.322 192.945 105.01 192.945 104.659C192.945 104.301 192.869 103.986 192.716 103.714C192.567 103.443 192.36 103.231 192.095 103.078C191.829 102.926 191.526 102.848 191.185 102.844C190.887 102.844 190.597 102.906 190.315 103.028C190.036 103.151 189.819 103.318 189.663 103.531L187.749 103.188L188.232 97.8182H194.456V99.5781H190.007L189.743 102.129H189.803C189.982 101.877 190.252 101.668 190.613 101.502C190.974 101.336 191.379 101.254 191.826 101.254C192.439 101.254 192.986 101.398 193.467 101.686C193.947 101.974 194.327 102.371 194.605 102.874C194.884 103.375 195.021 103.951 195.018 104.604C195.021 105.29 194.862 105.9 194.541 106.434C194.222 106.964 193.777 107.382 193.203 107.687C192.633 107.988 191.97 108.139 191.215 108.139ZM204.587 102.069V103.749H199.943V102.069H204.587ZM214.091 97.8182V108H211.938V99.8615H211.879L209.547 101.323V99.4141L212.068 97.8182H214.091ZM220.334 108.139C219.568 108.139 218.887 108.015 218.291 107.766C217.697 107.514 217.232 107.171 216.894 106.737C216.556 106.303 216.387 105.811 216.387 105.261C216.387 104.836 216.483 104.447 216.675 104.092C216.871 103.734 217.136 103.438 217.47 103.202C217.805 102.964 218.18 102.811 218.594 102.745V102.675C218.05 102.566 217.61 102.303 217.272 101.885C216.933 101.464 216.764 100.975 216.764 100.418C216.764 99.8913 216.919 99.4223 217.227 99.0114C217.535 98.5971 217.958 98.2723 218.495 98.0369C219.035 97.7983 219.648 97.679 220.334 97.679C221.02 97.679 221.632 97.7983 222.169 98.0369C222.709 98.2756 223.133 98.602 223.441 99.0163C223.75 99.4273 223.905 99.8946 223.909 100.418C223.905 100.978 223.733 101.467 223.392 101.885C223.05 102.303 222.613 102.566 222.079 102.675V102.745C222.487 102.811 222.856 102.964 223.188 103.202C223.522 103.438 223.788 103.734 223.983 104.092C224.182 104.447 224.283 104.836 224.286 105.261C224.283 105.811 224.112 106.303 223.774 106.737C223.436 107.171 222.969 107.514 222.372 107.766C221.779 108.015 221.1 108.139 220.334 108.139ZM220.334 106.558C220.675 106.558 220.974 106.497 221.229 106.374C221.484 106.248 221.683 106.076 221.826 105.857C221.971 105.635 222.044 105.38 222.044 105.092C222.044 104.797 221.97 104.536 221.821 104.311C221.671 104.082 221.469 103.903 221.214 103.774C220.959 103.642 220.665 103.575 220.334 103.575C220.006 103.575 219.713 103.642 219.454 103.774C219.196 103.903 218.992 104.082 218.843 104.311C218.697 104.536 218.624 104.797 218.624 105.092C218.624 105.38 218.695 105.635 218.838 105.857C218.98 106.076 219.181 106.248 219.439 106.374C219.698 106.497 219.996 106.558 220.334 106.558ZM220.334 102.009C220.619 102.009 220.873 101.951 221.095 101.835C221.317 101.719 221.491 101.558 221.617 101.353C221.743 101.147 221.806 100.911 221.806 100.642C221.806 100.377 221.743 100.145 221.617 99.946C221.491 99.7438 221.318 99.5864 221.1 99.4737C220.881 99.3577 220.626 99.2997 220.334 99.2997C220.046 99.2997 219.79 99.3577 219.568 99.4737C219.346 99.5864 219.172 99.7438 219.046 99.946C218.924 100.145 218.862 100.377 218.862 100.642C218.862 100.911 218.925 101.147 219.051 101.353C219.177 101.558 219.351 101.719 219.573 101.835C219.795 101.951 220.049 102.009 220.334 102.009ZM180.656 123V116.455H182.386V117.609H182.463C182.599 117.226 182.826 116.923 183.144 116.702C183.463 116.48 183.843 116.369 184.286 116.369C184.735 116.369 185.117 116.482 185.433 116.706C185.748 116.928 185.958 117.229 186.063 117.609H186.132C186.265 117.234 186.507 116.935 186.856 116.71C187.208 116.483 187.625 116.369 188.105 116.369C188.715 116.369 189.211 116.564 189.592 116.953C189.975 117.339 190.167 117.888 190.167 118.598V123H188.356V118.956C188.356 118.592 188.259 118.32 188.066 118.138C187.873 117.956 187.632 117.865 187.342 117.865C187.012 117.865 186.755 117.97 186.571 118.18C186.386 118.388 186.294 118.662 186.294 119.003V123H184.534V118.918C184.534 118.597 184.441 118.341 184.257 118.151C184.075 117.96 183.835 117.865 183.536 117.865C183.335 117.865 183.153 117.916 182.991 118.018C182.832 118.118 182.705 118.259 182.612 118.44C182.518 118.619 182.471 118.83 182.471 119.071V123H180.656ZM194.583 123.128C193.921 123.128 193.349 122.987 192.866 122.706C192.386 122.422 192.015 122.027 191.754 121.521C191.492 121.013 191.362 120.423 191.362 119.753C191.362 119.077 191.492 118.486 191.754 117.98C192.015 117.472 192.386 117.077 192.866 116.795C193.349 116.511 193.921 116.369 194.583 116.369C195.245 116.369 195.816 116.511 196.296 116.795C196.779 117.077 197.151 117.472 197.413 117.98C197.674 118.486 197.805 119.077 197.805 119.753C197.805 120.423 197.674 121.013 197.413 121.521C197.151 122.027 196.779 122.422 196.296 122.706C195.816 122.987 195.245 123.128 194.583 123.128ZM194.592 121.722C194.893 121.722 195.144 121.636 195.346 121.466C195.548 121.293 195.7 121.057 195.802 120.759C195.907 120.46 195.96 120.121 195.96 119.74C195.96 119.359 195.907 119.02 195.802 118.722C195.7 118.423 195.548 118.187 195.346 118.014C195.144 117.841 194.893 117.754 194.592 117.754C194.288 117.754 194.032 117.841 193.825 118.014C193.62 118.187 193.465 118.423 193.36 118.722C193.258 119.02 193.207 119.359 193.207 119.74C193.207 120.121 193.258 120.46 193.36 120.759C193.465 121.057 193.62 121.293 193.825 121.466C194.032 121.636 194.288 121.722 194.592 121.722ZM200.825 119.216V123H199.01V116.455H200.74V117.609H200.817C200.962 117.229 201.205 116.928 201.546 116.706C201.886 116.482 202.3 116.369 202.786 116.369C203.24 116.369 203.636 116.469 203.974 116.668C204.313 116.866 204.575 117.151 204.763 117.52C204.95 117.886 205.044 118.324 205.044 118.832V123H203.229V119.156C203.232 118.756 203.129 118.443 202.922 118.219C202.715 117.991 202.429 117.878 202.065 117.878C201.821 117.878 201.605 117.93 201.418 118.036C201.233 118.141 201.088 118.294 200.983 118.496C200.881 118.695 200.828 118.935 200.825 119.216ZM209.981 116.455V117.818H206.039V116.455H209.981ZM206.934 114.886H208.75V120.989C208.75 121.156 208.775 121.287 208.826 121.381C208.877 121.472 208.948 121.536 209.039 121.572C209.133 121.609 209.241 121.628 209.363 121.628C209.448 121.628 209.534 121.621 209.619 121.607C209.704 121.589 209.77 121.577 209.815 121.568L210.1 122.919C210.01 122.947 209.882 122.98 209.717 123.017C209.552 123.057 209.352 123.081 209.116 123.089C208.679 123.107 208.295 123.048 207.966 122.915C207.639 122.781 207.385 122.574 207.203 122.293C207.021 122.011 206.931 121.656 206.934 121.227V114.886ZM213.144 119.216V123H211.329V114.273H213.093V117.609H213.17C213.318 117.223 213.556 116.92 213.886 116.702C214.215 116.48 214.629 116.369 215.126 116.369C215.58 116.369 215.977 116.469 216.315 116.668C216.656 116.864 216.92 117.146 217.107 117.516C217.298 117.882 217.392 118.321 217.389 118.832V123H215.573V119.156C215.576 118.753 215.474 118.439 215.267 118.214C215.062 117.99 214.775 117.878 214.406 117.878C214.159 117.878 213.94 117.93 213.75 118.036C213.562 118.141 213.414 118.294 213.306 118.496C213.201 118.695 213.147 118.935 213.144 119.216ZM224.288 118.321L222.626 118.423C222.598 118.281 222.537 118.153 222.443 118.04C222.349 117.923 222.226 117.831 222.072 117.763C221.922 117.692 221.741 117.656 221.531 117.656C221.25 117.656 221.013 117.716 220.819 117.835C220.626 117.952 220.53 118.108 220.53 118.304C220.53 118.46 220.592 118.592 220.717 118.7C220.842 118.808 221.057 118.895 221.361 118.96L222.545 119.199C223.182 119.33 223.656 119.54 223.969 119.83C224.281 120.119 224.437 120.5 224.437 120.972C224.437 121.401 224.311 121.777 224.058 122.101C223.808 122.425 223.464 122.678 223.027 122.859C222.592 123.038 222.091 123.128 221.523 123.128C220.656 123.128 219.966 122.947 219.452 122.587C218.94 122.223 218.64 121.729 218.552 121.104L220.338 121.01C220.392 121.274 220.523 121.476 220.73 121.615C220.937 121.751 221.203 121.82 221.527 121.82C221.845 121.82 222.101 121.759 222.294 121.636C222.49 121.511 222.589 121.351 222.592 121.155C222.589 120.99 222.52 120.855 222.383 120.75C222.247 120.642 222.037 120.56 221.753 120.503L220.619 120.277C219.98 120.149 219.504 119.928 219.192 119.612C218.882 119.297 218.727 118.895 218.727 118.406C218.727 117.986 218.841 117.624 219.068 117.32C219.298 117.016 219.621 116.781 220.035 116.616C220.453 116.452 220.942 116.369 221.501 116.369C222.328 116.369 222.978 116.544 223.453 116.893C223.93 117.243 224.209 117.719 224.288 118.321Z" fill="black"/>
<path d="M168.026 143V134.273H171.367C171.998 134.273 172.522 134.372 172.939 134.571C173.36 134.767 173.674 135.036 173.881 135.376C174.091 135.717 174.196 136.104 174.196 136.536C174.196 136.891 174.128 137.195 173.992 137.447C173.856 137.697 173.672 137.901 173.442 138.057C173.212 138.213 172.955 138.325 172.671 138.393V138.479C172.981 138.496 173.277 138.591 173.562 138.764C173.848 138.935 174.083 139.176 174.265 139.489C174.446 139.801 174.537 140.179 174.537 140.622C174.537 141.074 174.428 141.48 174.209 141.841C173.99 142.199 173.661 142.482 173.221 142.689C172.78 142.896 172.226 143 171.559 143H168.026ZM169.607 141.679H171.307C171.881 141.679 172.294 141.57 172.547 141.351C172.803 141.129 172.931 140.845 172.931 140.499C172.931 140.24 172.867 140.007 172.739 139.8C172.611 139.589 172.429 139.425 172.194 139.305C171.958 139.183 171.677 139.122 171.35 139.122H169.607V141.679ZM169.607 137.984H171.171C171.444 137.984 171.689 137.935 171.908 137.835C172.127 137.733 172.299 137.589 172.424 137.405C172.552 137.217 172.615 136.996 172.615 136.74C172.615 136.402 172.496 136.124 172.258 135.905C172.022 135.686 171.671 135.577 171.205 135.577H169.607V137.984ZM178.767 143.128C178.111 143.128 177.544 142.991 177.067 142.719C176.592 142.443 176.227 142.054 175.972 141.551C175.716 141.045 175.588 140.45 175.588 139.766C175.588 139.092 175.716 138.501 175.972 137.993C176.23 137.482 176.591 137.084 177.054 136.8C177.517 136.513 178.061 136.369 178.686 136.369C179.089 136.369 179.47 136.435 179.828 136.565C180.189 136.693 180.507 136.892 180.783 137.162C181.061 137.432 181.28 137.776 181.439 138.193C181.598 138.608 181.678 139.102 181.678 139.676V140.149H176.312V139.109H180.199C180.196 138.814 180.132 138.551 180.007 138.321C179.882 138.088 179.707 137.905 179.483 137.771C179.261 137.638 179.003 137.571 178.707 137.571C178.392 137.571 178.115 137.648 177.876 137.801C177.638 137.952 177.452 138.151 177.318 138.398C177.187 138.642 177.121 138.911 177.118 139.203V140.111C177.118 140.491 177.187 140.818 177.327 141.091C177.466 141.361 177.661 141.568 177.911 141.713C178.161 141.855 178.453 141.926 178.788 141.926C179.013 141.926 179.216 141.895 179.398 141.832C179.58 141.767 179.737 141.672 179.871 141.547C180.004 141.422 180.105 141.267 180.173 141.082L181.614 141.244C181.523 141.625 181.349 141.957 181.094 142.241C180.841 142.523 180.517 142.741 180.122 142.898C179.727 143.051 179.276 143.128 178.767 143.128ZM188.181 138.185L186.774 138.338C186.735 138.196 186.665 138.062 186.566 137.938C186.469 137.812 186.338 137.712 186.174 137.635C186.009 137.558 185.807 137.52 185.568 137.52C185.247 137.52 184.978 137.589 184.759 137.729C184.543 137.868 184.436 138.048 184.439 138.27C184.436 138.46 184.506 138.615 184.648 138.734C184.793 138.854 185.032 138.952 185.364 139.028L186.48 139.267C187.1 139.401 187.56 139.612 187.861 139.902C188.165 140.192 188.318 140.571 188.321 141.04C188.318 141.452 188.198 141.815 187.959 142.131C187.723 142.443 187.395 142.687 186.975 142.864C186.554 143.04 186.071 143.128 185.526 143.128C184.725 143.128 184.08 142.96 183.591 142.625C183.103 142.287 182.811 141.817 182.718 141.214L184.222 141.07C184.29 141.365 184.435 141.588 184.657 141.739C184.878 141.889 185.166 141.964 185.522 141.964C185.888 141.964 186.182 141.889 186.404 141.739C186.628 141.588 186.74 141.402 186.74 141.18C186.74 140.993 186.668 140.838 186.523 140.716C186.381 140.594 186.159 140.5 185.858 140.435L184.742 140.2C184.114 140.07 183.649 139.849 183.348 139.54C183.047 139.227 182.898 138.832 182.901 138.355C182.898 137.952 183.007 137.602 183.229 137.307C183.453 137.009 183.764 136.778 184.162 136.616C184.563 136.452 185.024 136.369 185.547 136.369C186.314 136.369 186.918 136.533 187.358 136.859C187.801 137.186 188.076 137.628 188.181 138.185ZM192.887 136.455V137.648H189.124V136.455H192.887ZM190.053 134.886H191.595V141.031C191.595 141.239 191.627 141.398 191.689 141.509C191.754 141.616 191.84 141.69 191.945 141.73C192.05 141.77 192.166 141.79 192.294 141.79C192.391 141.79 192.479 141.783 192.558 141.768C192.641 141.754 192.703 141.741 192.746 141.73L193.006 142.936C192.923 142.964 192.806 142.996 192.652 143.03C192.502 143.064 192.317 143.084 192.098 143.089C191.712 143.101 191.364 143.043 191.054 142.915C190.744 142.784 190.499 142.582 190.317 142.31C190.138 142.037 190.05 141.696 190.053 141.287V134.886ZM196.887 135.598V134.273H203.85V135.598H201.153V143H199.585V135.598H196.887ZM207.098 143.128C206.442 143.128 205.875 142.991 205.398 142.719C204.923 142.443 204.558 142.054 204.302 141.551C204.047 141.045 203.919 140.45 203.919 139.766C203.919 139.092 204.047 138.501 204.302 137.993C204.561 137.482 204.922 137.084 205.385 136.8C205.848 136.513 206.392 136.369 207.017 136.369C207.42 136.369 207.801 136.435 208.159 136.565C208.52 136.693 208.838 136.892 209.114 137.162C209.392 137.432 209.611 137.776 209.77 138.193C209.929 138.608 210.008 139.102 210.008 139.676V140.149H204.643V139.109H208.53C208.527 138.814 208.463 138.551 208.338 138.321C208.213 138.088 208.038 137.905 207.814 137.771C207.592 137.638 207.334 137.571 207.038 137.571C206.723 137.571 206.446 137.648 206.207 137.801C205.969 137.952 205.783 138.151 205.649 138.398C205.518 138.642 205.452 138.911 205.449 139.203V140.111C205.449 140.491 205.518 140.818 205.658 141.091C205.797 141.361 205.991 141.568 206.241 141.713C206.491 141.855 206.784 141.926 207.119 141.926C207.344 141.926 207.547 141.895 207.729 141.832C207.91 141.767 208.068 141.672 208.202 141.547C208.335 141.422 208.436 141.267 208.504 141.082L209.945 141.244C209.854 141.625 209.68 141.957 209.425 142.241C209.172 142.523 208.848 142.741 208.453 142.898C208.058 143.051 207.606 143.128 207.098 143.128ZM212.881 139.165V143H211.338V136.455H212.813V137.567H212.889C213.04 137.2 213.28 136.909 213.61 136.693C213.942 136.477 214.352 136.369 214.841 136.369C215.293 136.369 215.686 136.466 216.021 136.659C216.36 136.852 216.621 137.132 216.806 137.499C216.993 137.865 217.085 138.31 217.083 138.832V143H215.54V139.071C215.54 138.634 215.426 138.291 215.199 138.044C214.975 137.797 214.664 137.673 214.266 137.673C213.996 137.673 213.756 137.733 213.546 137.852C213.338 137.969 213.175 138.138 213.056 138.359C212.939 138.581 212.881 138.849 212.881 139.165ZM222.847 140.247V136.455H224.39V143H222.894V141.837H222.826C222.678 142.203 222.435 142.503 222.097 142.736C221.762 142.969 221.349 143.085 220.857 143.085C220.428 143.085 220.049 142.99 219.72 142.8C219.393 142.607 219.137 142.327 218.953 141.96C218.768 141.591 218.676 141.145 218.676 140.622V136.455H220.218V140.384C220.218 140.798 220.332 141.128 220.559 141.372C220.786 141.616 221.085 141.739 221.454 141.739C221.681 141.739 221.901 141.683 222.114 141.572C222.328 141.462 222.502 141.297 222.639 141.078C222.778 140.857 222.847 140.58 222.847 140.247ZM226.001 143V136.455H227.497V137.545H227.565C227.684 137.168 227.889 136.876 228.179 136.672C228.471 136.464 228.805 136.361 229.18 136.361C229.265 136.361 229.36 136.365 229.466 136.374C229.574 136.379 229.663 136.389 229.734 136.403V137.822C229.669 137.8 229.565 137.78 229.423 137.763C229.284 137.743 229.149 137.733 229.018 137.733C228.737 137.733 228.484 137.794 228.26 137.916C228.038 138.036 227.863 138.202 227.735 138.415C227.608 138.628 227.544 138.874 227.544 139.152V143H226.001ZM233.412 143.128C232.756 143.128 232.189 142.991 231.712 142.719C231.237 142.443 230.872 142.054 230.616 141.551C230.361 141.045 230.233 140.45 230.233 139.766C230.233 139.092 230.361 138.501 230.616 137.993C230.875 137.482 231.236 137.084 231.699 136.8C232.162 136.513 232.706 136.369 233.331 136.369C233.734 136.369 234.115 136.435 234.473 136.565C234.834 136.693 235.152 136.892 235.427 137.162C235.706 137.432 235.925 137.776 236.084 138.193C236.243 138.608 236.322 139.102 236.322 139.676V140.149H230.957V139.109H234.844C234.841 138.814 234.777 138.551 234.652 138.321C234.527 138.088 234.352 137.905 234.128 137.771C233.906 137.638 233.648 137.571 233.352 137.571C233.037 137.571 232.76 137.648 232.521 137.801C232.283 137.952 232.097 138.151 231.963 138.398C231.832 138.642 231.766 138.911 231.763 139.203V140.111C231.763 140.491 231.832 140.818 231.972 141.091C232.111 141.361 232.305 141.568 232.555 141.713C232.805 141.855 233.098 141.926 233.433 141.926C233.658 141.926 233.861 141.895 234.043 141.832C234.224 141.767 234.382 141.672 234.516 141.547C234.649 141.422 234.75 141.267 234.818 141.082L236.258 141.244C236.168 141.625 235.994 141.957 235.739 142.241C235.486 142.523 235.162 142.741 234.767 142.898C234.372 143.051 233.92 143.128 233.412 143.128Z" fill="black"/>
</g>
<g filter="url(#filter5_dd_488_1245)">
<path d="M123.514 208L127.734 199.648V199.578H122.817V197.818H129.962V199.603L125.736 208H123.514ZM130.97 208.129C130.641 208.129 130.36 208.013 130.124 207.781C129.892 207.546 129.776 207.264 129.776 206.936C129.776 206.611 129.892 206.333 130.124 206.101C130.36 205.869 130.641 205.753 130.97 205.753C131.288 205.753 131.566 205.869 131.805 206.101C132.043 206.333 132.163 206.611 132.163 206.936C132.163 207.155 132.106 207.355 131.994 207.538C131.884 207.717 131.74 207.861 131.561 207.97C131.382 208.076 131.185 208.129 130.97 208.129ZM137.543 208.139C136.841 208.139 136.214 208.01 135.664 207.751C135.117 207.493 134.683 207.137 134.361 206.683C134.04 206.228 133.872 205.708 133.859 205.121H135.947C135.97 205.516 136.136 205.836 136.444 206.081C136.753 206.326 137.119 206.449 137.543 206.449C137.881 206.449 138.18 206.374 138.438 206.225C138.7 206.073 138.904 205.862 139.05 205.594C139.199 205.322 139.273 205.01 139.273 204.659C139.273 204.301 139.197 203.986 139.045 203.714C138.895 203.443 138.688 203.231 138.423 203.078C138.158 202.926 137.855 202.848 137.513 202.844C137.215 202.844 136.925 202.906 136.643 203.028C136.365 203.151 136.148 203.318 135.992 203.531L134.078 203.188L134.56 197.818H140.785V199.578H136.335L136.072 202.129H136.131C136.31 201.877 136.58 201.668 136.942 201.502C137.303 201.336 137.707 201.254 138.155 201.254C138.768 201.254 139.315 201.398 139.795 201.686C140.276 201.974 140.655 202.371 140.934 202.874C141.212 203.375 141.35 203.951 141.346 204.604C141.35 205.29 141.191 205.9 140.869 206.434C140.551 206.964 140.105 207.382 139.532 207.687C138.962 207.988 138.299 208.139 137.543 208.139ZM148.446 206.091V205.554C148.446 205.146 148.532 204.772 148.704 204.43C148.88 204.086 149.134 203.811 149.465 203.605C149.8 203.396 150.207 203.292 150.688 203.292C151.175 203.292 151.585 203.395 151.916 203.6C152.251 203.806 152.503 204.081 152.672 204.425C152.844 204.767 152.93 205.143 152.93 205.554V206.091C152.93 206.499 152.844 206.875 152.672 207.219C152.499 207.561 152.246 207.834 151.911 208.04C151.576 208.249 151.169 208.353 150.688 208.353C150.201 208.353 149.791 208.249 149.46 208.04C149.129 207.834 148.877 207.561 148.704 207.219C148.532 206.875 148.446 206.499 148.446 206.091ZM149.893 205.554V206.091C149.893 206.326 149.949 206.548 150.062 206.757C150.178 206.966 150.386 207.07 150.688 207.07C150.99 207.07 151.195 206.968 151.304 206.762C151.417 206.557 151.473 206.333 151.473 206.091V205.554C151.473 205.312 151.42 205.087 151.314 204.878C151.208 204.669 151 204.565 150.688 204.565C150.39 204.565 150.183 204.669 150.067 204.878C149.951 205.087 149.893 205.312 149.893 205.554ZM143.221 200.264V199.727C143.221 199.316 143.308 198.94 143.484 198.599C143.66 198.254 143.913 197.979 144.245 197.773C144.58 197.568 144.984 197.465 145.458 197.465C145.948 197.465 146.359 197.568 146.691 197.773C147.022 197.979 147.274 198.254 147.446 198.599C147.619 198.94 147.705 199.316 147.705 199.727V200.264C147.705 200.675 147.617 201.051 147.442 201.393C147.269 201.734 147.016 202.008 146.681 202.213C146.349 202.415 145.942 202.516 145.458 202.516C144.974 202.516 144.565 202.414 144.23 202.208C143.898 201.999 143.647 201.726 143.474 201.388C143.305 201.046 143.221 200.672 143.221 200.264ZM144.677 199.727V200.264C144.677 200.506 144.734 200.73 144.846 200.935C144.962 201.141 145.166 201.244 145.458 201.244C145.763 201.244 145.97 201.141 146.079 200.935C146.192 200.73 146.248 200.506 146.248 200.264V199.727C146.248 199.485 146.195 199.26 146.089 199.051C145.983 198.842 145.773 198.738 145.458 198.738C145.163 198.738 144.959 198.844 144.846 199.056C144.734 199.268 144.677 199.492 144.677 199.727ZM143.877 208L150.877 197.818H152.179L145.179 208H143.877ZM157.971 206.449V199.409H159.751V206.449H157.971ZM155.341 203.819V202.039H162.381V203.819H155.341Z" fill="black"/>
<path d="M121.184 222.273V231H119.603V223.811H119.552L117.511 225.115V223.666L119.68 222.273H121.184ZM123.267 229.381V228.124L126.97 222.273H128.019V224.062H127.38L124.887 228.013V228.081H130.056V229.381H123.267ZM127.431 231V228.997L127.448 228.435V222.273H128.939V231H127.431ZM134.529 231V222.273H137.869C138.5 222.273 139.024 222.372 139.442 222.571C139.862 222.767 140.176 223.036 140.384 223.376C140.594 223.717 140.699 224.104 140.699 224.536C140.699 224.891 140.631 225.195 140.494 225.447C140.358 225.697 140.175 225.901 139.945 226.057C139.715 226.213 139.457 226.325 139.173 226.393V226.479C139.483 226.496 139.78 226.591 140.064 226.764C140.351 226.935 140.585 227.176 140.767 227.489C140.949 227.801 141.04 228.179 141.04 228.622C141.04 229.074 140.931 229.48 140.712 229.841C140.493 230.199 140.163 230.482 139.723 230.689C139.283 230.896 138.729 231 138.061 231H134.529ZM136.109 229.679H137.81C138.384 229.679 138.797 229.57 139.05 229.351C139.306 229.129 139.433 228.845 139.433 228.499C139.433 228.24 139.369 228.007 139.242 227.8C139.114 227.589 138.932 227.425 138.696 227.305C138.46 227.183 138.179 227.122 137.852 227.122H136.109V229.679ZM136.109 225.984H137.673C137.946 225.984 138.192 225.935 138.411 225.835C138.629 225.733 138.801 225.589 138.926 225.405C139.054 225.217 139.118 224.996 139.118 224.74C139.118 224.402 138.999 224.124 138.76 223.905C138.524 223.686 138.173 223.577 137.707 223.577H136.109V225.984ZM144.255 231.132C143.841 231.132 143.467 231.058 143.135 230.911C142.805 230.76 142.544 230.538 142.351 230.246C142.16 229.953 142.065 229.592 142.065 229.163C142.065 228.794 142.133 228.489 142.27 228.247C142.406 228.006 142.592 227.812 142.828 227.668C143.064 227.523 143.329 227.413 143.625 227.339C143.923 227.263 144.231 227.207 144.549 227.173C144.933 227.134 145.244 227.098 145.483 227.067C145.721 227.033 145.895 226.982 146.003 226.913C146.113 226.842 146.169 226.733 146.169 226.585V226.56C146.169 226.239 146.074 225.99 145.883 225.814C145.693 225.638 145.419 225.55 145.061 225.55C144.683 225.55 144.383 225.632 144.162 225.797C143.943 225.962 143.795 226.156 143.718 226.381L142.278 226.176C142.392 225.778 142.579 225.446 142.841 225.179C143.102 224.909 143.422 224.707 143.799 224.574C144.177 224.438 144.595 224.369 145.052 224.369C145.368 224.369 145.681 224.406 145.994 224.48C146.306 224.554 146.592 224.676 146.851 224.847C147.109 225.014 147.316 225.243 147.473 225.533C147.632 225.822 147.711 226.185 147.711 226.619V231H146.228V230.101H146.177C146.083 230.283 145.951 230.453 145.781 230.612C145.613 230.768 145.402 230.895 145.146 230.991C144.893 231.085 144.596 231.132 144.255 231.132ZM144.656 229.999C144.966 229.999 145.234 229.937 145.461 229.815C145.689 229.69 145.863 229.526 145.985 229.321C146.11 229.116 146.173 228.893 146.173 228.652V227.881C146.125 227.92 146.042 227.957 145.926 227.991C145.812 228.026 145.684 228.055 145.542 228.081C145.4 228.107 145.26 228.129 145.12 228.149C144.981 228.169 144.86 228.186 144.758 228.2C144.528 228.232 144.322 228.283 144.14 228.354C143.958 228.425 143.815 228.524 143.71 228.652C143.605 228.777 143.552 228.939 143.552 229.138C143.552 229.422 143.656 229.636 143.863 229.781C144.071 229.926 144.335 229.999 144.656 229.999ZM150.83 227.165V231H149.287V224.455H150.762V225.567H150.838C150.989 225.2 151.229 224.909 151.559 224.693C151.891 224.477 152.301 224.369 152.79 224.369C153.242 224.369 153.635 224.466 153.97 224.659C154.309 224.852 154.57 225.132 154.755 225.499C154.942 225.865 155.034 226.31 155.032 226.832V231H153.489V227.071C153.489 226.634 153.375 226.291 153.148 226.044C152.924 225.797 152.613 225.673 152.215 225.673C151.945 225.673 151.705 225.733 151.495 225.852C151.287 225.969 151.124 226.138 151.005 226.359C150.888 226.581 150.83 226.849 150.83 227.165ZM158.031 228.946L158.026 227.084H158.274L160.626 224.455H162.428L159.535 227.676H159.215L158.031 228.946ZM156.624 231V222.273H158.167V231H156.624ZM160.732 231L158.602 228.021L159.642 226.935L162.578 231H160.732ZM168.655 226.185L167.248 226.338C167.209 226.196 167.139 226.062 167.04 225.938C166.943 225.812 166.812 225.712 166.647 225.635C166.483 225.558 166.281 225.52 166.042 225.52C165.721 225.52 165.451 225.589 165.233 225.729C165.017 225.868 164.91 226.048 164.913 226.27C164.91 226.46 164.98 226.615 165.122 226.734C165.267 226.854 165.505 226.952 165.838 227.028L166.954 227.267C167.574 227.401 168.034 227.612 168.335 227.902C168.639 228.192 168.792 228.571 168.795 229.04C168.792 229.452 168.672 229.815 168.433 230.131C168.197 230.443 167.869 230.687 167.449 230.864C167.028 231.04 166.545 231.128 166 231.128C165.199 231.128 164.554 230.96 164.065 230.625C163.576 230.287 163.285 229.817 163.192 229.214L164.696 229.07C164.764 229.365 164.909 229.588 165.13 229.739C165.352 229.889 165.64 229.964 165.995 229.964C166.362 229.964 166.656 229.889 166.878 229.739C167.102 229.588 167.214 229.402 167.214 229.18C167.214 228.993 167.142 228.838 166.997 228.716C166.855 228.594 166.633 228.5 166.332 228.435L165.216 228.2C164.588 228.07 164.123 227.849 163.822 227.54C163.521 227.227 163.372 226.832 163.375 226.355C163.372 225.952 163.481 225.602 163.703 225.307C163.927 225.009 164.238 224.778 164.636 224.616C165.037 224.452 165.498 224.369 166.021 224.369C166.788 224.369 167.392 224.533 167.832 224.859C168.275 225.186 168.549 225.628 168.655 226.185ZM116.934 246.132C116.519 246.132 116.146 246.058 115.814 245.911C115.484 245.76 115.223 245.538 115.029 245.246C114.839 244.953 114.744 244.592 114.744 244.163C114.744 243.794 114.812 243.489 114.948 243.247C115.085 243.006 115.271 242.812 115.507 242.668C115.743 242.523 116.008 242.413 116.304 242.339C116.602 242.263 116.91 242.207 117.228 242.173C117.612 242.134 117.923 242.098 118.162 242.067C118.4 242.033 118.573 241.982 118.681 241.913C118.792 241.842 118.848 241.733 118.848 241.585V241.56C118.848 241.239 118.752 240.99 118.562 240.814C118.372 240.638 118.098 240.55 117.74 240.55C117.362 240.55 117.062 240.632 116.841 240.797C116.622 240.962 116.474 241.156 116.397 241.381L114.957 241.176C115.071 240.778 115.258 240.446 115.519 240.179C115.781 239.909 116.1 239.707 116.478 239.574C116.856 239.438 117.274 239.369 117.731 239.369C118.046 239.369 118.36 239.406 118.673 239.48C118.985 239.554 119.271 239.676 119.529 239.847C119.788 240.014 119.995 240.243 120.152 240.533C120.311 240.822 120.39 241.185 120.39 241.619V246H118.907V245.101H118.856C118.762 245.283 118.63 245.453 118.46 245.612C118.292 245.768 118.081 245.895 117.825 245.991C117.572 246.085 117.275 246.132 116.934 246.132ZM117.335 244.999C117.644 244.999 117.913 244.937 118.14 244.815C118.368 244.69 118.542 244.526 118.664 244.321C118.789 244.116 118.852 243.893 118.852 243.652V242.881C118.804 242.92 118.721 242.957 118.605 242.991C118.491 243.026 118.363 243.055 118.221 243.081C118.079 243.107 117.939 243.129 117.799 243.149C117.66 243.169 117.539 243.186 117.437 243.2C117.207 243.232 117.001 243.283 116.819 243.354C116.637 243.425 116.494 243.524 116.389 243.652C116.284 243.777 116.231 243.939 116.231 244.138C116.231 244.422 116.335 244.636 116.542 244.781C116.75 244.926 117.014 244.999 117.335 244.999ZM123.509 242.165V246H121.966V239.455H123.441V240.567H123.517C123.668 240.2 123.908 239.909 124.237 239.693C124.57 239.477 124.98 239.369 125.469 239.369C125.921 239.369 126.314 239.466 126.649 239.659C126.987 239.852 127.249 240.132 127.433 240.499C127.621 240.865 127.713 241.31 127.71 241.832V246H126.168V242.071C126.168 241.634 126.054 241.291 125.827 241.044C125.603 240.797 125.291 240.673 124.894 240.673C124.624 240.673 124.384 240.733 124.174 240.852C123.966 240.969 123.803 241.138 123.683 241.359C123.567 241.581 123.509 241.849 123.509 242.165ZM131.732 246.115C131.218 246.115 130.758 245.983 130.352 245.719C129.945 245.455 129.624 245.071 129.389 244.568C129.153 244.065 129.035 243.455 129.035 242.736C129.035 242.009 129.154 241.395 129.393 240.895C129.634 240.392 129.96 240.013 130.369 239.757C130.778 239.499 131.234 239.369 131.737 239.369C132.12 239.369 132.436 239.435 132.683 239.565C132.93 239.693 133.126 239.848 133.271 240.03C133.416 240.209 133.528 240.378 133.607 240.537H133.671V237.273H135.218V246H133.701V244.969H133.607C133.528 245.128 133.413 245.297 133.262 245.476C133.112 245.652 132.913 245.803 132.666 245.928C132.418 246.053 132.107 246.115 131.732 246.115ZM132.163 244.849C132.489 244.849 132.768 244.761 132.998 244.585C133.228 244.406 133.403 244.158 133.522 243.839C133.641 243.521 133.701 243.151 133.701 242.727C133.701 242.304 133.641 241.936 133.522 241.624C133.406 241.311 133.232 241.068 133.002 240.895C132.775 240.722 132.495 240.635 132.163 240.635C131.819 240.635 131.532 240.724 131.302 240.903C131.072 241.082 130.899 241.33 130.782 241.645C130.666 241.96 130.607 242.321 130.607 242.727C130.607 243.136 130.666 243.501 130.782 243.822C130.901 244.141 131.076 244.392 131.306 244.577C131.539 244.759 131.825 244.849 132.163 244.849ZM147.128 237.273V246H145.722L141.61 240.055H141.537V246H139.956V237.273H141.371L145.479 243.222H145.556V237.273H147.128ZM148.876 246V237.273H152.217C152.847 237.273 153.371 237.372 153.789 237.571C154.209 237.767 154.523 238.036 154.731 238.376C154.941 238.717 155.046 239.104 155.046 239.536C155.046 239.891 154.978 240.195 154.842 240.447C154.705 240.697 154.522 240.901 154.292 241.057C154.062 241.213 153.805 241.325 153.52 241.393V241.479C153.83 241.496 154.127 241.591 154.411 241.764C154.698 241.935 154.932 242.176 155.114 242.489C155.296 242.801 155.387 243.179 155.387 243.622C155.387 244.074 155.278 244.48 155.059 244.841C154.84 245.199 154.511 245.482 154.07 245.689C153.63 245.896 153.076 246 152.408 246H148.876ZM150.457 244.679H152.157C152.731 244.679 153.144 244.57 153.397 244.351C153.653 244.129 153.78 243.845 153.78 243.499C153.78 243.24 153.717 243.007 153.589 242.8C153.461 242.589 153.279 242.425 153.043 242.305C152.807 242.183 152.526 242.122 152.199 242.122H150.457V244.679ZM150.457 240.984H152.02C152.293 240.984 152.539 240.935 152.758 240.835C152.976 240.733 153.148 240.589 153.273 240.405C153.401 240.217 153.465 239.996 153.465 239.74C153.465 239.402 153.346 239.124 153.107 238.905C152.871 238.686 152.52 238.577 152.055 238.577H150.457V240.984ZM156.787 246V237.273H162.378V238.598H158.368V240.967H161.994V242.293H158.368V246H156.787ZM171.313 240.217H169.72C169.674 239.956 169.59 239.724 169.468 239.523C169.346 239.318 169.194 239.145 169.012 239.003C168.83 238.861 168.623 238.754 168.39 238.683C168.16 238.609 167.911 238.572 167.644 238.572C167.17 238.572 166.749 238.692 166.383 238.93C166.016 239.166 165.729 239.513 165.522 239.97C165.315 240.425 165.211 240.98 165.211 241.636C165.211 242.304 165.315 242.866 165.522 243.324C165.732 243.778 166.019 244.122 166.383 244.355C166.749 244.585 167.168 244.7 167.64 244.7C167.901 244.7 168.146 244.666 168.373 244.598C168.603 244.527 168.809 244.423 168.991 244.287C169.175 244.151 169.33 243.983 169.455 243.784C169.583 243.585 169.671 243.358 169.72 243.102L171.313 243.111C171.254 243.526 171.124 243.915 170.925 244.278C170.729 244.642 170.472 244.963 170.154 245.241C169.836 245.517 169.464 245.733 169.038 245.889C168.612 246.043 168.139 246.119 167.619 246.119C166.852 246.119 166.167 245.942 165.565 245.587C164.962 245.232 164.488 244.719 164.141 244.048C163.795 243.378 163.622 242.574 163.622 241.636C163.622 240.696 163.796 239.892 164.146 239.224C164.495 238.554 164.971 238.041 165.573 237.686C166.175 237.331 166.857 237.153 167.619 237.153C168.104 237.153 168.556 237.222 168.974 237.358C169.391 237.494 169.764 237.695 170.09 237.959C170.417 238.22 170.685 238.541 170.896 238.922C171.109 239.3 171.248 239.732 171.313 240.217Z" fill="black"/>
</g>
<defs>
<filter id="filter0_d_488_1245" x="36" y="84" width="88" height="88" filterUnits="userSpaceOnUse" color-interpolation-filters="sRGB">
<feFlood flood-opacity="0" result="BackgroundImageFix"/>
<feColorMatrix in="SourceAlpha" type="matrix" values="0 0 0 0 0 0 0 0 0 0 0 0 0 0 0 0 0 0 127 0" result="hardAlpha"/>
<feOffset dy="4"/>
<feGaussianBlur stdDeviation="2"/>
<feComposite in2="hardAlpha" operator="out"/>
<feColorMatrix type="matrix" values="0 0 0 0 0 0 0 0 0 0 0 0 0 0 0 0 0 0 0.25 0"/>
<feBlend mode="normal" in2="BackgroundImageFix" result="effect1_dropShadow_488_1245"/>
<feBlend mode="normal" in="SourceGraphic" in2="effect1_dropShadow_488_1245" result="shape"/>
</filter>
<filter id="filter1_d_488_1245" x="96" y="184" width="88" height="88" filterUnits="userSpaceOnUse" color-interpolation-filters="sRGB">
<feFlood flood-opacity="0" result="BackgroundImageFix"/>
<feColorMatrix in="SourceAlpha" type="matrix" values="0 0 0 0 0 0 0 0 0 0 0 0 0 0 0 0 0 0 127 0" result="hardAlpha"/>
<feOffset dy="4"/>
<feGaussianBlur stdDeviation="2"/>
<feComposite in2="hardAlpha" operator="out"/>
<feColorMatrix type="matrix" values="0 0 0 0 0 0 0 0 0 0 0 0 0 0 0 0 0 0 0.25 0"/>
<feBlend mode="normal" in2="BackgroundImageFix" result="effect1_dropShadow_488_1245"/>
<feBlend mode="normal" in="SourceGraphic" in2="effect1_dropShadow_488_1245" result="shape"/>
</filter>
<filter id="filter2_d_488_1245" x="158" y="84" width="88" height="88" filterUnits="userSpaceOnUse" color-interpolation-filters="sRGB">
<feFlood flood-opacity="0" result="BackgroundImageFix"/>
<feColorMatrix in="SourceAlpha" type="matrix" values="0 0 0 0 0 0 0 0 0 0 0 0 0 0 0 0 0 0 127 0" result="hardAlpha"/>
<feOffset dy="4"/>
<feGaussianBlur stdDeviation="2"/>
<feComposite in2="hardAlpha" operator="out"/>
<feColorMatrix type="matrix" values="0 0 0 0 0 0 0 0 0 0 0 0 0 0 0 0 0 0 0.25 0"/>
<feBlend mode="normal" in2="BackgroundImageFix" result="effect1_dropShadow_488_1245"/>
<feBlend mode="normal" in="SourceGraphic" in2="effect1_dropShadow_488_1245" result="shape"/>
</filter>
<filter id="filter3_dd_488_1245" x="39.5723" y="80.3391" width="82.2821" height="83.8443" filterUnits="userSpaceOnUse" color-interpolation-filters="sRGB">
<feFlood flood-opacity="0" result="BackgroundImageFix"/>
<feColorMatrix in="SourceAlpha" type="matrix" values="0 0 0 0 0 0 0 0 0 0 0 0 0 0 0 0 0 0 127 0" result="hardAlpha"/>
<feOffset dx="2.47712" dy="2.47712"/>
<feGaussianBlur stdDeviation="9.2892"/>
<feColorMatrix type="matrix" values="0 0 0 0 0.6512 0 0 0 0 0.66896 0 0 0 0 0.74 0 0 0 0.5 0"/>
<feBlend mode="normal" in2="BackgroundImageFix" result="effect1_dropShadow_488_1245"/>
<feColorMatrix in="SourceAlpha" type="matrix" values="0 0 0 0 0 0 0 0 0 0 0 0 0 0 0 0 0 0 127 0" result="hardAlpha"/>
<feOffset dx="-1.23856" dy="-1.23856"/>
<feGaussianBlur stdDeviation="8.05064"/>
<feColorMatrix type="matrix" values="0 0 0 0 0.979167 0 0 0 0 0.983333 0 0 0 0 1 0 0 0 1 0"/>
<feBlend mode="normal" in2="effect1_dropShadow_488_1245" result="effect2_dropShadow_488_1245"/>
<feBlend mode="normal" in="SourceGraphic" in2="effect2_dropShadow_488_1245" result="shape"/>
</filter>
<filter id="filter4_dd_488_1245" x="150.686" y="80.3391" width="106.692" height="83.8443" filterUnits="userSpaceOnUse" color-interpolation-filters="sRGB">
<feFlood flood-opacity="0" result="BackgroundImageFix"/>
<feColorMatrix in="SourceAlpha" type="matrix" values="0 0 0 0 0 0 0 0 0 0 0 0 0 0 0 0 0 0 127 0" result="hardAlpha"/>
<feOffset dx="2.47712" dy="2.47712"/>
<feGaussianBlur stdDeviation="9.2892"/>
<feColorMatrix type="matrix" values="0 0 0 0 0.6512 0 0 0 0 0.66896 0 0 0 0 0.74 0 0 0 0.5 0"/>
<feBlend mode="normal" in2="BackgroundImageFix" result="effect1_dropShadow_488_1245"/>
<feColorMatrix in="SourceAlpha" type="matrix" values="0 0 0 0 0 0 0 0 0 0 0 0 0 0 0 0 0 0 127 0" result="hardAlpha"/>
<feOffset dx="-1.23856" dy="-1.23856"/>
<feGaussianBlur stdDeviation="8.05064"/>
<feColorMatrix type="matrix" values="0 0 0 0 0.979167 0 0 0 0 0.983333 0 0 0 0 1 0 0 0 1 0"/>
<feBlend mode="normal" in2="effect1_dropShadow_488_1245" result="effect2_dropShadow_488_1245"/>
<feBlend mode="normal" in="SourceGraphic" in2="effect2_dropShadow_488_1245" result="shape"/>
</filter>
<filter id="filter5_dd_488_1245" x="97.4043" y="180.125" width="94.9637" height="87.0622" filterUnits="userSpaceOnUse" color-interpolation-filters="sRGB">
<feFlood flood-opacity="0" result="BackgroundImageFix"/>
<feColorMatrix in="SourceAlpha" type="matrix" values="0 0 0 0 0 0 0 0 0 0 0 0 0 0 0 0 0 0 127 0" result="hardAlpha"/>
<feOffset dx="2.47712" dy="2.47712"/>
<feGaussianBlur stdDeviation="9.2892"/>
<feColorMatrix type="matrix" values="0 0 0 0 0.6512 0 0 0 0 0.66896 0 0 0 0 0.74 0 0 0 0.5 0"/>
<feBlend mode="normal" in2="BackgroundImageFix" result="effect1_dropShadow_488_1245"/>
<feColorMatrix in="SourceAlpha" type="matrix" values="0 0 0 0 0 0 0 0 0 0 0 0 0 0 0 0 0 0 127 0" result="hardAlpha"/>
<feOffset dx="-1.23856" dy="-1.23856"/>
<feGaussianBlur stdDeviation="8.05064"/>
<feColorMatrix type="matrix" values="0 0 0 0 0.979167 0 0 0 0 0.983333 0 0 0 0 1 0 0 0 1 0"/>
<feBlend mode="normal" in2="effect1_dropShadow_488_1245" result="effect2_dropShadow_488_1245"/>
<feBlend mode="normal" in="SourceGraphic" in2="effect2_dropShadow_488_1245" result="shape"/>
</filter>
</defs>
</svg>
