<svg width="240" height="210" viewBox="0 0 240 210" fill="none" xmlns="http://www.w3.org/2000/svg">
<g clip-path="url(#clip0_488_1245)">
<rect width="240" height="210" rx="20" fill="white"/>
<g filter="url(#filter0_d_488_1245)">
<rect x="20" y="30" width="80" height="80" rx="20" fill="white"/>
</g>
<g filter="url(#filter1_d_488_1245)">
<rect x="80" y="125" width="80" height="80" rx="20" fill="white"/>
</g>
<g filter="url(#filter2_d_488_1245)">
<rect x="142" y="30" width="80" height="80" rx="20" fill="white"/>
</g>
<path d="M44.1985 16H41.0565V5.81818H44.3377C45.3254 5.81818 46.1706 6.02202 46.8732 6.42969C47.5759 6.83404 48.1145 7.41572 48.489 8.17472C48.8635 8.9304 49.0508 9.83523 49.0508 10.8892C49.0508 11.9498 48.8619 12.8629 48.484 13.6286C48.1062 14.3909 47.556 14.9775 46.8335 15.3885C46.1109 15.7962 45.2326 16 44.1985 16ZM42.2894 14.9062H44.119C44.9608 14.9062 45.6585 14.7438 46.212 14.419C46.7655 14.0942 47.1782 13.6319 47.45 13.032C47.7217 12.4321 47.8576 11.7178 47.8576 10.8892C47.8576 10.0672 47.7234 9.35961 47.4549 8.76633C47.1865 8.16974 46.7854 7.71236 46.2518 7.39418C45.7182 7.07268 45.0536 6.91193 44.2582 6.91193H42.2894V14.9062ZM53.2318 16.179C52.7479 16.179 52.3088 16.0878 51.9144 15.9055C51.5199 15.7199 51.2067 15.4531 50.9747 15.1051C50.7427 14.7538 50.6267 14.3295 50.6267 13.8324C50.6267 13.3949 50.7129 13.0402 50.8852 12.7685C51.0576 12.4934 51.2879 12.2779 51.5763 12.1222C51.8646 11.9664 52.1828 11.8504 52.5308 11.7741C52.8822 11.6946 53.2351 11.6316 53.5898 11.5852C54.0538 11.5256 54.43 11.4808 54.7183 11.451C55.01 11.4179 55.2221 11.3632 55.3547 11.2869C55.4906 11.2107 55.5585 11.0781 55.5585 10.8892V10.8494C55.5585 10.3589 55.4243 9.97775 55.1558 9.70597C54.8907 9.43419 54.488 9.2983 53.9477 9.2983C53.3876 9.2983 52.9484 9.42093 52.6303 9.66619C52.3121 9.91146 52.0884 10.1733 51.9591 10.4517L50.8455 10.054C51.0443 9.58996 51.3095 9.22869 51.6409 8.97017C51.9757 8.70833 52.3403 8.52604 52.7347 8.4233C53.1324 8.31723 53.5235 8.2642 53.908 8.2642C54.1532 8.2642 54.435 8.29403 54.7531 8.35369C55.0746 8.41004 55.3845 8.5277 55.6828 8.70668C55.9844 8.88565 56.2347 9.15578 56.4335 9.51705C56.6324 9.87831 56.7318 10.3622 56.7318 10.9688V16H55.5585V14.9659H55.4989C55.4193 15.1316 55.2868 15.3089 55.1011 15.4979C54.9155 15.6868 54.6686 15.8475 54.3604 15.9801C54.0521 16.1127 53.676 16.179 53.2318 16.179ZM53.4108 15.125C53.8748 15.125 54.2659 15.0339 54.5841 14.8516C54.9056 14.6693 55.1475 14.4339 55.31 14.1456C55.4757 13.8572 55.5585 13.554 55.5585 13.2358V12.1619C55.5088 12.2216 55.3994 12.2763 55.2304 12.326C55.0647 12.3724 54.8725 12.4138 54.6537 12.4503C54.4383 12.4834 54.2278 12.5133 54.0223 12.5398C53.8201 12.563 53.6561 12.5829 53.5301 12.5994C53.2252 12.6392 52.9402 12.7038 52.675 12.7933C52.4132 12.8795 52.2011 13.0104 52.0386 13.1861C51.8796 13.3584 51.8 13.5937 51.8 13.892C51.8 14.2997 51.9508 14.608 52.2524 14.8168C52.5573 15.0223 52.9435 15.125 53.4108 15.125ZM62.2191 8.36364V9.35795H58.2617V8.36364H62.2191ZM59.4152 6.53409H60.5885V13.8125C60.5885 14.1439 60.6365 14.3925 60.7326 14.5582C60.8321 14.7206 60.958 14.83 61.1105 14.8864C61.2662 14.9394 61.4303 14.9659 61.6027 14.9659C61.7319 14.9659 61.838 14.9593 61.9208 14.946C62.0037 14.9295 62.07 14.9162 62.1197 14.9062L62.3583 15.9602C62.2788 15.9901 62.1678 16.0199 62.0252 16.0497C61.8827 16.0829 61.7021 16.0994 61.4833 16.0994C61.1519 16.0994 60.8271 16.0282 60.5089 15.8857C60.194 15.7431 59.9322 15.526 59.7234 15.2344C59.5179 14.9427 59.4152 14.5748 59.4152 14.1307V6.53409ZM66.256 16.179C65.7721 16.179 65.3329 16.0878 64.9385 15.9055C64.5441 15.7199 64.2309 15.4531 63.9989 15.1051C63.7669 14.7538 63.6509 14.3295 63.6509 13.8324C63.6509 13.3949 63.737 13.0402 63.9094 12.7685C64.0817 12.4934 64.3121 12.2779 64.6004 12.1222C64.8888 11.9664 65.207 11.8504 65.555 11.7741C65.9063 11.6946 66.2593 11.6316 66.6139 11.5852C67.0779 11.5256 67.4541 11.4808 67.7425 11.451C68.0341 11.4179 68.2463 11.3632 68.3788 11.2869C68.5147 11.2107 68.5827 11.0781 68.5827 10.8892V10.8494C68.5827 10.3589 68.4484 9.97775 68.18 9.70597C67.9148 9.43419 67.5121 9.2983 66.9719 9.2983C66.4118 9.2983 65.9726 9.42093 65.6544 9.66619C65.3362 9.91146 65.1125 10.1733 64.9832 10.4517L63.8696 10.054C64.0685 9.58996 64.3336 9.22869 64.6651 8.97017C64.9998 8.70833 65.3644 8.52604 65.7588 8.4233C66.1565 8.31723 66.5476 8.2642 66.9321 8.2642C67.1774 8.2642 67.4591 8.29403 67.7773 8.35369C68.0988 8.41004 68.4087 8.5277 68.707 8.70668C69.0086 8.88565 69.2588 9.15578 69.4577 9.51705C69.6565 9.87831 69.756 10.3622 69.756 10.9688V16H68.5827V14.9659H68.523C68.4435 15.1316 68.3109 15.3089 68.1253 15.4979C67.9397 15.6868 67.6928 15.8475 67.3845 15.9801C67.0763 16.1127 66.7001 16.179 66.256 16.179ZM66.435 15.125C66.899 15.125 67.2901 15.0339 67.6082 14.8516C67.9297 14.6693 68.1717 14.4339 68.3341 14.1456C68.4998 13.8572 68.5827 13.554 68.5827 13.2358V12.1619C68.533 12.2216 68.4236 12.2763 68.2546 12.326C68.0888 12.3724 67.8966 12.4138 67.6778 12.4503C67.4624 12.4834 67.252 12.5133 67.0465 12.5398C66.8443 12.563 66.6802 12.5829 66.5543 12.5994C66.2493 12.6392 65.9643 12.7038 65.6992 12.7933C65.4373 12.8795 65.2252 13.0104 65.0628 13.1861C64.9037 13.3584 64.8242 13.5937 64.8242 13.892C64.8242 14.2997 64.975 14.608 65.2766 14.8168C65.5815 15.0223 65.9676 15.125 66.435 15.125ZM79.2851 8.36364V9.35795H75.1686V8.36364H79.2851ZM76.4016 16V7.30966C76.4016 6.87216 76.5043 6.50758 76.7098 6.21591C76.9153 5.92424 77.1821 5.70549 77.5102 5.55966C77.8384 5.41383 78.1847 5.34091 78.5493 5.34091C78.8377 5.34091 79.073 5.36411 79.2553 5.41051C79.4376 5.45691 79.5735 5.5 79.6629 5.53977L79.3249 6.55398C79.2652 6.53409 79.1824 6.50923 79.0763 6.4794C78.9735 6.44957 78.8377 6.43466 78.6686 6.43466C78.2808 6.43466 78.0008 6.53243 77.8284 6.72798C77.6594 6.92353 77.5749 7.21023 77.5749 7.58807V16H76.4016ZM80.9542 16V8.36364H82.0877V9.51705H82.1673C82.3065 9.1392 82.5584 8.83262 82.923 8.5973C83.2876 8.36198 83.6985 8.24432 84.1559 8.24432C84.2421 8.24432 84.3498 8.24597 84.4791 8.24929C84.6083 8.2526 84.7061 8.25758 84.7724 8.2642V9.45739C84.7326 9.44744 84.6415 9.43253 84.499 9.41264C84.3598 9.38944 84.2123 9.37784 84.0565 9.37784C83.6853 9.37784 83.3538 9.45573 83.0622 9.61151C82.7738 9.76397 82.5451 9.97609 82.3761 10.2479C82.2104 10.5163 82.1275 10.8229 82.1275 11.1676V16H80.9542ZM89.0578 16.1591C88.3684 16.1591 87.7636 15.995 87.2432 15.6669C86.7262 15.3388 86.3218 14.8797 86.0301 14.2898C85.7418 13.6998 85.5976 13.0104 85.5976 12.2216C85.5976 11.4261 85.7418 10.7318 86.0301 10.1385C86.3218 9.54522 86.7262 9.08452 87.2432 8.75639C87.7636 8.42827 88.3684 8.2642 89.0578 8.2642C89.7472 8.2642 90.3504 8.42827 90.8675 8.75639C91.3879 9.08452 91.7922 9.54522 92.0806 10.1385C92.3722 10.7318 92.5181 11.4261 92.5181 12.2216C92.5181 13.0104 92.3722 13.6998 92.0806 14.2898C91.7922 14.8797 91.3879 15.3388 90.8675 15.6669C90.3504 15.995 89.7472 16.1591 89.0578 16.1591ZM89.0578 15.1051C89.5815 15.1051 90.0124 14.9709 90.3504 14.7024C90.6885 14.4339 90.9388 14.081 91.1012 13.6435C91.2636 13.206 91.3448 12.732 91.3448 12.2216C91.3448 11.7112 91.2636 11.2356 91.1012 10.7947C90.9388 10.3539 90.6885 9.99763 90.3504 9.72585C90.0124 9.45407 89.5815 9.31818 89.0578 9.31818C88.5342 9.31818 88.1033 9.45407 87.7652 9.72585C87.4272 9.99763 87.1769 10.3539 87.0145 10.7947C86.8521 11.2356 86.7709 11.7112 86.7709 12.2216C86.7709 12.732 86.8521 13.206 87.0145 13.6435C87.1769 14.081 87.4272 14.4339 87.7652 14.7024C88.1033 14.9709 88.5342 15.1051 89.0578 15.1051ZM94.3338 16V8.36364H95.4674V9.55682H95.5668C95.7259 9.14915 95.9828 8.83262 96.3374 8.60724C96.692 8.37855 97.1179 8.2642 97.6151 8.2642C98.1189 8.2642 98.5382 8.37855 98.8729 8.60724C99.211 8.83262 99.4745 9.14915 99.6634 9.55682H99.7429C99.9385 9.16241 100.232 8.84919 100.623 8.61719C101.014 8.38187 101.483 8.2642 102.03 8.2642C102.713 8.2642 103.271 8.47798 103.705 8.90554C104.139 9.32978 104.357 9.991 104.357 10.8892V16H103.183V10.8892C103.183 10.3258 103.029 9.92306 102.721 9.68111C102.413 9.43916 102.05 9.31818 101.632 9.31818C101.095 9.31818 100.679 9.48059 100.384 9.8054C100.089 10.1269 99.9418 10.5346 99.9418 11.0284V16H98.7486V10.7699C98.7486 10.3357 98.6078 9.98603 98.326 9.72088C98.0443 9.45241 97.6814 9.31818 97.2373 9.31818C96.9323 9.31818 96.6473 9.39938 96.3821 9.56179C96.1203 9.72419 95.9082 9.94957 95.7458 10.2379C95.5867 10.523 95.5071 10.8527 95.5071 11.2273V16H94.3338ZM110.787 16L115.341 6.99148V6.91193H110.091V5.81818H116.614V6.97159L112.08 16H110.787ZM125.357 16.1591C124.721 16.1591 124.159 15.9983 123.672 15.6768C123.185 15.352 122.804 14.8946 122.529 14.3047C122.254 13.7114 122.116 13.0104 122.116 12.2017C122.116 11.3996 122.254 10.7036 122.529 10.1136C122.804 9.52367 123.187 9.06794 123.677 8.74645C124.168 8.42495 124.734 8.2642 125.377 8.2642C125.875 8.2642 126.267 8.34706 126.556 8.51278C126.847 8.67519 127.069 8.8608 127.222 9.0696C127.378 9.27509 127.499 9.44413 127.585 9.5767H127.684V5.81818H128.857V16H127.724V14.8267H127.585C127.499 14.9659 127.376 15.1416 127.217 15.3537C127.058 15.5625 126.831 15.7498 126.536 15.9155C126.241 16.0779 125.848 16.1591 125.357 16.1591ZM125.517 15.1051C125.987 15.1051 126.385 14.9825 126.71 14.7372C127.035 14.4886 127.281 14.1456 127.451 13.7081C127.62 13.2673 127.704 12.7585 127.704 12.1818C127.704 11.6117 127.621 11.1129 127.455 10.6854C127.29 10.2545 127.044 9.91974 126.72 9.68111C126.395 9.43916 125.994 9.31818 125.517 9.31818C125.019 9.31818 124.605 9.44579 124.274 9.70099C123.946 9.95289 123.699 10.2959 123.533 10.7301C123.37 11.161 123.289 11.6449 123.289 12.1818C123.289 12.7254 123.372 13.2192 123.538 13.6634C123.707 14.1042 123.955 14.4555 124.284 14.7173C124.615 14.9759 125.026 15.1051 125.517 15.1051ZM133.441 16.179C132.957 16.179 132.518 16.0878 132.124 15.9055C131.729 15.7199 131.416 15.4531 131.184 15.1051C130.952 14.7538 130.836 14.3295 130.836 13.8324C130.836 13.3949 130.922 13.0402 131.095 12.7685C131.267 12.4934 131.497 12.2779 131.786 12.1222C132.074 11.9664 132.392 11.8504 132.74 11.7741C133.092 11.6946 133.445 11.6316 133.799 11.5852C134.263 11.5256 134.639 11.4808 134.928 11.451C135.219 11.4179 135.431 11.3632 135.564 11.2869C135.7 11.2107 135.768 11.0781 135.768 10.8892V10.8494C135.768 10.3589 135.634 9.97775 135.365 9.70597C135.1 9.43419 134.697 9.2983 134.157 9.2983C133.597 9.2983 133.158 9.42093 132.84 9.66619C132.521 9.91146 132.298 10.1733 132.168 10.4517L131.055 10.054C131.254 9.58996 131.519 9.22869 131.85 8.97017C132.185 8.70833 132.55 8.52604 132.944 8.4233C133.342 8.31723 133.733 8.2642 134.117 8.2642C134.363 8.2642 134.644 8.29403 134.963 8.35369C135.284 8.41004 135.594 8.5277 135.892 8.70668C136.194 8.88565 136.444 9.15578 136.643 9.51705C136.842 9.87831 136.941 10.3622 136.941 10.9688V16H135.768V14.9659H135.708C135.629 15.1316 135.496 15.3089 135.311 15.4979C135.125 15.6868 134.878 15.8475 134.57 15.9801C134.262 16.1127 133.885 16.179 133.441 16.179ZM133.62 15.125C134.084 15.125 134.475 15.0339 134.793 14.8516C135.115 14.6693 135.357 14.4339 135.519 14.1456C135.685 13.8572 135.768 13.554 135.768 13.2358V12.1619C135.718 12.2216 135.609 12.2763 135.44 12.326C135.274 12.3724 135.082 12.4138 134.863 12.4503C134.648 12.4834 134.437 12.5133 134.232 12.5398C134.03 12.563 133.865 12.5829 133.739 12.5994C133.435 12.6392 133.15 12.7038 132.884 12.7933C132.623 12.8795 132.41 13.0104 132.248 13.1861C132.089 13.3584 132.009 13.5937 132.009 13.892C132.009 14.2997 132.16 14.608 132.462 14.8168C132.767 15.0223 133.153 15.125 133.62 15.125ZM139.59 18.8636C139.391 18.8636 139.214 18.8471 139.058 18.8139C138.902 18.7841 138.794 18.7543 138.735 18.7244L139.033 17.6903C139.318 17.7633 139.57 17.7898 139.789 17.7699C140.007 17.75 140.201 17.6522 140.37 17.4766C140.543 17.3042 140.7 17.0241 140.843 16.6364L141.061 16.0398L138.237 8.36364H139.51L141.618 14.4489H141.698L143.806 8.36364H145.078L141.837 17.1136C141.691 17.508 141.51 17.8345 141.295 18.093C141.08 18.3549 140.829 18.5488 140.544 18.6747C140.263 18.8007 139.944 18.8636 139.59 18.8636ZM152.061 10.0739L151.007 10.3722C150.941 10.1965 150.843 10.0258 150.714 9.86009C150.588 9.69105 150.415 9.55185 150.197 9.44247C149.978 9.3331 149.698 9.27841 149.356 9.27841C148.889 9.27841 148.5 9.38613 148.188 9.60156C147.88 9.81368 147.726 10.0838 147.726 10.4119C147.726 10.7036 147.832 10.9339 148.044 11.103C148.256 11.272 148.587 11.4129 149.038 11.5256L150.172 11.804C150.854 11.9697 151.363 12.2232 151.698 12.5646C152.033 12.9027 152.2 13.3385 152.2 13.8722C152.2 14.3097 152.074 14.7008 151.822 15.0455C151.574 15.3902 151.226 15.6619 150.778 15.8608C150.331 16.0597 149.81 16.1591 149.217 16.1591C148.438 16.1591 147.794 15.9901 147.283 15.652C146.773 15.3139 146.45 14.8201 146.314 14.1705L147.427 13.892C147.533 14.303 147.734 14.6113 148.029 14.8168C148.327 15.0223 148.717 15.125 149.197 15.125C149.744 15.125 150.178 15.009 150.5 14.777C150.825 14.5417 150.987 14.2599 150.987 13.9318C150.987 13.6667 150.894 13.4446 150.709 13.2656C150.523 13.0833 150.238 12.9474 149.853 12.858L148.581 12.5597C147.881 12.3939 147.368 12.1371 147.04 11.7891C146.715 11.4377 146.552 10.9986 146.552 10.4716C146.552 10.0407 146.673 9.65956 146.915 9.32812C147.161 8.99669 147.494 8.73651 147.915 8.54758C148.339 8.35866 148.819 8.2642 149.356 8.2642C150.112 8.2642 150.705 8.42992 151.136 8.76136C151.57 9.0928 151.879 9.5303 152.061 10.0739ZM162.328 10.3622V11.456H157.874V10.3622H162.328ZM171.542 16.1392C170.958 16.1392 170.433 16.0232 169.966 15.7912C169.498 15.5592 169.124 15.241 168.842 14.8366C168.56 14.4323 168.406 13.9716 168.38 13.4545H169.573C169.619 13.9152 169.828 14.2964 170.199 14.598C170.574 14.8963 171.021 15.0455 171.542 15.0455C171.959 15.0455 172.331 14.9477 172.655 14.7521C172.983 14.5566 173.24 14.2881 173.426 13.9467C173.615 13.602 173.709 13.2126 173.709 12.7784C173.709 12.3343 173.612 11.9382 173.416 11.5902C173.224 11.2389 172.959 10.9621 172.621 10.7599C172.282 10.5578 171.896 10.455 171.462 10.4517C171.151 10.4484 170.831 10.4964 170.503 10.5959C170.175 10.692 169.904 10.8163 169.692 10.9688L168.539 10.8295L169.155 5.81818H174.445V6.91193H170.189L169.831 9.91477H169.891C170.1 9.74905 170.362 9.61151 170.677 9.50213C170.992 9.39276 171.32 9.33807 171.661 9.33807C172.284 9.33807 172.839 9.48722 173.327 9.78551C173.817 10.0805 174.202 10.4848 174.48 10.9986C174.762 11.5123 174.902 12.099 174.902 12.7585C174.902 13.4081 174.757 13.9882 174.465 14.4986C174.177 15.0057 173.779 15.4067 173.272 15.7017C172.765 15.9934 172.188 16.1392 171.542 16.1392ZM181.64 18.8636C181.441 18.8636 181.264 18.8471 181.108 18.8139C180.952 18.7841 180.845 18.7543 180.785 18.7244L181.083 17.6903C181.368 17.7633 181.62 17.7898 181.839 17.7699C182.058 17.75 182.252 17.6522 182.421 17.4766C182.593 17.3042 182.75 17.0241 182.893 16.6364L183.112 16.0398L180.288 8.36364H181.561L183.668 14.4489H183.748L185.856 8.36364H187.129L183.887 17.1136C183.741 17.508 183.561 17.8345 183.345 18.093C183.13 18.3549 182.88 18.5488 182.595 18.6747C182.313 18.8007 181.995 18.8636 181.64 18.8636ZM188.702 16V8.36364H189.836V9.51705H189.915C190.054 9.1392 190.306 8.83262 190.671 8.5973C191.035 8.36198 191.446 8.24432 191.904 8.24432C191.99 8.24432 192.098 8.24597 192.227 8.24929C192.356 8.2526 192.454 8.25758 192.52 8.2642V9.45739C192.481 9.44744 192.389 9.43253 192.247 9.41264C192.108 9.38944 191.96 9.37784 191.804 9.37784C191.433 9.37784 191.102 9.45573 190.81 9.61151C190.522 9.76397 190.293 9.97609 190.124 10.2479C189.958 10.5163 189.875 10.8229 189.875 11.1676V16H188.702ZM199.345 10.0739L198.291 10.3722C198.225 10.1965 198.127 10.0258 197.998 9.86009C197.872 9.69105 197.699 9.55185 197.481 9.44247C197.262 9.3331 196.982 9.27841 196.64 9.27841C196.173 9.27841 195.784 9.38613 195.472 9.60156C195.164 9.81368 195.01 10.0838 195.01 10.4119C195.01 10.7036 195.116 10.9339 195.328 11.103C195.54 11.272 195.871 11.4129 196.322 11.5256L197.456 11.804C198.139 11.9697 198.647 12.2232 198.982 12.5646C199.317 12.9027 199.484 13.3385 199.484 13.8722C199.484 14.3097 199.358 14.7008 199.106 15.0455C198.858 15.3902 198.51 15.6619 198.062 15.8608C197.615 16.0597 197.094 16.1591 196.501 16.1591C195.722 16.1591 195.078 15.9901 194.567 15.652C194.057 15.3139 193.734 14.8201 193.598 14.1705L194.711 13.892C194.818 14.303 195.018 14.6113 195.313 14.8168C195.611 15.0223 196.001 15.125 196.481 15.125C197.028 15.125 197.462 15.009 197.784 14.777C198.109 14.5417 198.271 14.2599 198.271 13.9318C198.271 13.6667 198.178 13.4446 197.993 13.2656C197.807 13.0833 197.522 12.9474 197.138 12.858L195.865 12.5597C195.166 12.3939 194.652 12.1371 194.324 11.7891C193.999 11.4377 193.836 10.9986 193.836 10.4716C193.836 10.0407 193.957 9.65956 194.199 9.32812C194.445 8.99669 194.778 8.73651 195.199 8.54758C195.623 8.35866 196.103 8.2642 196.64 8.2642C197.396 8.2642 197.989 8.42992 198.42 8.76136C198.854 9.0928 199.163 9.5303 199.345 10.0739Z" fill="#13044F"/>
<g filter="url(#filter3_dd_488_1245)">
<path d="M43.4452 51.9119V50.8977L47.9197 43.8182H48.6555V45.3892H48.1583L44.7776 50.7386V50.8182H50.8032V51.9119H43.4452ZM48.2378 54V51.6037V51.1314V43.8182H49.4111V54H48.2378ZM52.9845 54L57.5384 44.9915V44.9119H52.2884V43.8182H58.8112V44.9716L54.2771 54H52.9845ZM63.7666 54.1392C63.0175 54.1392 62.3795 53.9354 61.8525 53.5277C61.3256 53.1167 60.9229 52.5218 60.6444 51.7429C60.366 50.9607 60.2268 50.0161 60.2268 48.9091C60.2268 47.8087 60.366 46.8691 60.6444 46.0902C60.9262 45.308 61.3305 44.7114 61.8575 44.3004C62.3878 43.8861 63.0242 43.679 63.7666 43.679C64.509 43.679 65.1437 43.8861 65.6707 44.3004C66.201 44.7114 66.6054 45.308 66.8838 46.0902C67.1655 46.8691 67.3064 47.8087 67.3064 48.9091C67.3064 50.0161 67.1672 50.9607 66.8888 51.7429C66.6104 52.5218 66.2077 53.1167 65.6807 53.5277C65.1537 53.9354 64.5157 54.1392 63.7666 54.1392ZM63.7666 53.0455C64.509 53.0455 65.0857 52.6875 65.4967 51.9716C65.9077 51.2557 66.1132 50.2348 66.1132 48.9091C66.1132 48.0275 66.0187 47.2768 65.8298 46.657C65.6442 46.0372 65.3757 45.5649 65.0244 45.2401C64.6764 44.9152 64.2571 44.7528 63.7666 44.7528C63.0308 44.7528 62.4558 45.1158 62.0415 45.8416C61.6272 46.5642 61.42 47.5866 61.42 48.9091C61.42 49.7907 61.5128 50.5398 61.6984 51.1562C61.884 51.7727 62.1508 52.2417 62.4988 52.5632C62.8502 52.8847 63.2728 53.0455 63.7666 53.0455ZM72.1984 52.2102V45.6477H73.3121V52.2102H72.1984ZM69.474 49.4858V48.3722H76.0365V49.4858H69.474Z" fill="black"/>
<path d="M38.8666 65.2727V74H37.8098V65.2727H38.8666ZM41.8549 70.0625V74H40.8492V67.4545H41.8208V68.4773H41.9061C42.0595 68.1449 42.2924 67.8778 42.6049 67.6761C42.9174 67.4716 43.3208 67.3693 43.8152 67.3693C44.2583 67.3693 44.6461 67.4602 44.9785 67.642C45.3109 67.821 45.5694 68.0938 45.7541 68.4602C45.9387 68.8239 46.0311 69.2841 46.0311 69.8409V74H45.0254V69.9091C45.0254 69.3949 44.8919 68.9943 44.6248 68.7074C44.3578 68.4176 43.9913 68.2727 43.5254 68.2727C43.2044 68.2727 42.9174 68.3423 42.6646 68.4815C42.4146 68.6207 42.2171 68.8239 42.0723 69.0909C41.9274 69.358 41.8549 69.6818 41.8549 70.0625ZM50.7154 67.4545V68.3068H47.3233V67.4545H50.7154ZM48.312 65.8864H49.3176V72.125C49.3176 72.4091 49.3588 72.6222 49.4412 72.7642C49.5264 72.9034 49.6344 72.9972 49.7651 73.0455C49.8986 73.0909 50.0392 73.1136 50.187 73.1136C50.2978 73.1136 50.3887 73.108 50.4597 73.0966C50.5307 73.0824 50.5875 73.071 50.6301 73.0625L50.8347 73.9659C50.7665 73.9915 50.6713 74.017 50.5492 74.0426C50.427 74.071 50.2722 74.0852 50.0847 74.0852C49.8006 74.0852 49.5222 74.0241 49.2495 73.902C48.9796 73.7798 48.7551 73.5938 48.5762 73.3438C48.4 73.0938 48.312 72.7784 48.312 72.3977V65.8864ZM54.9022 74.1364C54.2715 74.1364 53.7274 73.9972 53.2701 73.7188C52.8155 73.4375 52.4647 73.0455 52.2175 72.5426C51.9732 72.0369 51.851 71.4489 51.851 70.7784C51.851 70.108 51.9732 69.517 52.2175 69.0057C52.4647 68.4915 52.8084 68.0909 53.2487 67.804C53.6919 67.5142 54.209 67.3693 54.7999 67.3693C55.1408 67.3693 55.4774 67.4261 55.8098 67.5398C56.1422 67.6534 56.4448 67.8381 56.7175 68.0938C56.9902 68.3466 57.2076 68.6818 57.3695 69.0994C57.5314 69.517 57.6124 70.0312 57.6124 70.642V71.0682H52.5669V70.1989H56.5897C56.5897 69.8295 56.5158 69.5 56.3681 69.2102C56.2232 68.9205 56.0158 68.6918 55.7459 68.5241C55.4789 68.3565 55.1635 68.2727 54.7999 68.2727C54.3993 68.2727 54.0527 68.3722 53.7601 68.571C53.4703 68.767 53.2473 69.0227 53.0911 69.3381C52.9348 69.6534 52.8567 69.9915 52.8567 70.3523V70.9318C52.8567 71.4261 52.9419 71.8452 53.1124 72.1889C53.2857 72.5298 53.5257 72.7898 53.8326 72.9688C54.1394 73.1449 54.4959 73.233 54.9022 73.233C55.1664 73.233 55.405 73.196 55.6181 73.1222C55.834 73.0455 56.0201 72.9318 56.1763 72.7812C56.3326 72.6278 56.4533 72.4375 56.5385 72.2102L57.5101 72.483C57.4078 72.8125 57.236 73.1023 56.9945 73.3523C56.753 73.5994 56.4547 73.7926 56.0996 73.9318C55.7445 74.0682 55.3453 74.1364 54.9022 74.1364ZM59.1422 74V67.4545H60.1138V68.4432H60.182C60.3013 68.1193 60.5172 67.8565 60.8297 67.6548C61.1422 67.4531 61.4945 67.3523 61.8865 67.3523C61.9604 67.3523 62.0527 67.3537 62.1635 67.3565C62.2743 67.3594 62.3581 67.3636 62.4149 67.3693V68.392C62.3809 68.3835 62.3027 68.3707 62.1806 68.3537C62.0612 68.3338 61.9348 68.3239 61.8013 68.3239C61.4831 68.3239 61.199 68.3906 60.949 68.5241C60.7019 68.6548 60.5059 68.8366 60.361 69.0696C60.2189 69.2997 60.1479 69.5625 60.1479 69.858V74H59.1422ZM66.1522 74.1364C65.5215 74.1364 64.9774 73.9972 64.5201 73.7188C64.0655 73.4375 63.7147 73.0455 63.4675 72.5426C63.2232 72.0369 63.101 71.4489 63.101 70.7784C63.101 70.108 63.2232 69.517 63.4675 69.0057C63.7147 68.4915 64.0584 68.0909 64.4987 67.804C64.9419 67.5142 65.459 67.3693 66.0499 67.3693C66.3908 67.3693 66.7274 67.4261 67.0598 67.5398C67.3922 67.6534 67.6948 67.8381 67.9675 68.0938C68.2402 68.3466 68.4576 68.6818 68.6195 69.0994C68.7814 69.517 68.8624 70.0312 68.8624 70.642V71.0682H63.8169V70.1989H67.8397C67.8397 69.8295 67.7658 69.5 67.6181 69.2102C67.4732 68.9205 67.2658 68.6918 66.9959 68.5241C66.7289 68.3565 66.4135 68.2727 66.0499 68.2727C65.6493 68.2727 65.3027 68.3722 65.0101 68.571C64.7203 68.767 64.4973 69.0227 64.3411 69.3381C64.1848 69.6534 64.1067 69.9915 64.1067 70.3523V70.9318C64.1067 71.4261 64.1919 71.8452 64.3624 72.1889C64.5357 72.5298 64.7757 72.7898 65.0826 72.9688C65.3894 73.1449 65.7459 73.233 66.1522 73.233C66.4164 73.233 66.655 73.196 66.8681 73.1222C67.084 73.0455 67.2701 72.9318 67.4263 72.7812C67.5826 72.6278 67.7033 72.4375 67.7885 72.2102L68.7601 72.483C68.6578 72.8125 68.486 73.1023 68.2445 73.3523C68.003 73.5994 67.7047 73.7926 67.3496 73.9318C66.9945 74.0682 66.5953 74.1364 66.1522 74.1364ZM75.0286 68.9205L74.1252 69.1761C74.0684 69.0256 73.9845 68.8793 73.8737 68.7372C73.7658 68.5923 73.6181 68.473 73.4306 68.3793C73.2431 68.2855 73.003 68.2386 72.7104 68.2386C72.3098 68.2386 71.976 68.331 71.709 68.5156C71.4448 68.6974 71.3127 68.929 71.3127 69.2102C71.3127 69.4602 71.4036 69.6577 71.5854 69.8026C71.7672 69.9474 72.0513 70.0682 72.4377 70.1648L73.4093 70.4034C73.9945 70.5455 74.4306 70.7628 74.7175 71.0554C75.0044 71.3452 75.1479 71.7187 75.1479 72.1761C75.1479 72.5511 75.0399 72.8864 74.824 73.1818C74.611 73.4773 74.3127 73.7102 73.9291 73.8807C73.5456 74.0511 73.0996 74.1364 72.5911 74.1364C71.9235 74.1364 71.3709 73.9915 70.9334 73.7017C70.4959 73.4119 70.2189 72.9886 70.1024 72.4318L71.057 72.1932C71.1479 72.5455 71.3198 72.8097 71.5726 72.9858C71.8283 73.1619 72.1621 73.25 72.574 73.25C73.0428 73.25 73.4149 73.1506 73.6905 72.9517C73.9689 72.75 74.1081 72.5085 74.1081 72.2273C74.1081 72 74.0286 71.8097 73.8695 71.6562C73.7104 71.5 73.4661 71.3835 73.1365 71.3068L72.0456 71.0511C71.4462 70.9091 71.0059 70.6889 70.7246 70.3906C70.4462 70.0895 70.307 69.7131 70.307 69.2614C70.307 68.892 70.4107 68.5653 70.6181 68.2812C70.8283 67.9972 71.1138 67.7741 71.4746 67.6122C71.8382 67.4503 72.2502 67.3693 72.7104 67.3693C73.3581 67.3693 73.8666 67.5114 74.236 67.7955C74.6081 68.0795 74.8723 68.4545 75.0286 68.9205ZM79.5083 67.4545V68.3068H76.1163V67.4545H79.5083ZM77.1049 65.8864H78.1106V72.125C78.1106 72.4091 78.1518 72.6222 78.2342 72.7642C78.3194 72.9034 78.4274 72.9972 78.5581 73.0455C78.6916 73.0909 78.8322 73.1136 78.9799 73.1136C79.0907 73.1136 79.1816 73.108 79.2527 73.0966C79.3237 73.0824 79.3805 73.071 79.4231 73.0625L79.6277 73.9659C79.5595 73.9915 79.4643 74.017 79.3421 74.0426C79.22 74.071 79.0652 74.0852 78.8777 74.0852C78.5936 74.0852 78.3152 74.0241 78.0424 73.902C77.7725 73.7798 77.5481 73.5938 77.3691 73.3438C77.193 73.0938 77.1049 72.7784 77.1049 72.3977V65.8864ZM43.6282 89V80.2727H46.5771C47.2617 80.2727 47.8214 80.3963 48.256 80.6435C48.6935 80.8878 49.0174 81.2188 49.2276 81.6364C49.4378 82.054 49.543 82.5199 49.543 83.0341C49.543 83.5483 49.4378 84.0156 49.2276 84.4361C49.0202 84.8565 48.6992 85.1918 48.2646 85.4418C47.8299 85.6889 47.2731 85.8125 46.5941 85.8125H44.4805V84.875H46.56C47.0288 84.875 47.4052 84.794 47.6893 84.6321C47.9734 84.4702 48.1793 84.2514 48.3072 83.9759C48.4378 83.6974 48.5032 83.3835 48.5032 83.0341C48.5032 82.6847 48.4378 82.3722 48.3072 82.0966C48.1793 81.821 47.9719 81.6051 47.685 81.4489C47.3981 81.2898 47.0174 81.2102 46.543 81.2102H44.685V89H43.6282ZM53.6978 89.1364C53.1069 89.1364 52.5884 88.9957 52.1424 88.7145C51.6992 88.4332 51.3526 88.0398 51.1026 87.5341C50.8555 87.0284 50.7319 86.4375 50.7319 85.7614C50.7319 85.0795 50.8555 84.4844 51.1026 83.9759C51.3526 83.4673 51.6992 83.0724 52.1424 82.7912C52.5884 82.5099 53.1069 82.3693 53.6978 82.3693C54.2887 82.3693 54.8057 82.5099 55.2489 82.7912C55.6949 83.0724 56.0415 83.4673 56.2887 83.9759C56.5387 84.4844 56.6637 85.0795 56.6637 85.7614C56.6637 86.4375 56.5387 87.0284 56.2887 87.5341C56.0415 88.0398 55.6949 88.4332 55.2489 88.7145C54.8057 88.9957 54.2887 89.1364 53.6978 89.1364ZM53.6978 88.233C54.1467 88.233 54.516 88.1179 54.8057 87.8878C55.0955 87.6577 55.31 87.3551 55.4492 86.9801C55.5884 86.6051 55.658 86.1989 55.658 85.7614C55.658 85.3239 55.5884 84.9162 55.4492 84.5384C55.31 84.1605 55.0955 83.8551 54.8057 83.6222C54.516 83.3892 54.1467 83.2727 53.6978 83.2727C53.2489 83.2727 52.8796 83.3892 52.5898 83.6222C52.3001 83.8551 52.0856 84.1605 51.9464 84.5384C51.8072 84.9162 51.7376 85.3239 51.7376 85.7614C51.7376 86.1989 51.8072 86.6051 51.9464 86.9801C52.0856 87.3551 52.3001 87.6577 52.5898 87.8878C52.8796 88.1179 53.2489 88.233 53.6978 88.233ZM58.1989 89V82.4545H59.2045V89H58.1989ZM58.7102 81.3636C58.5142 81.3636 58.3452 81.2969 58.2031 81.1634C58.0639 81.0298 57.9943 80.8693 57.9943 80.6818C57.9943 80.4943 58.0639 80.3338 58.2031 80.2003C58.3452 80.0668 58.5142 80 58.7102 80C58.9062 80 59.0739 80.0668 59.2131 80.2003C59.3551 80.3338 59.4261 80.4943 59.4261 80.6818C59.4261 80.8693 59.3551 81.0298 59.2131 81.1634C59.0739 81.2969 58.9062 81.3636 58.7102 81.3636ZM62.0522 85.0625V89H61.0465V82.4545H62.0181V83.4773H62.1033C62.2567 83.1449 62.4897 82.8778 62.8022 82.6761C63.1147 82.4716 63.5181 82.3693 64.0124 82.3693C64.4556 82.3693 64.8434 82.4602 65.1758 82.642C65.5082 82.821 65.7667 83.0938 65.9513 83.4602C66.136 83.8239 66.2283 84.2841 66.2283 84.8409V89H65.2226V84.9091C65.2226 84.3949 65.0891 83.9943 64.8221 83.7074C64.555 83.4176 64.1886 83.2727 63.7226 83.2727C63.4016 83.2727 63.1147 83.3423 62.8619 83.4815C62.6119 83.6207 62.4144 83.8239 62.2695 84.0909C62.1246 84.358 62.0522 84.6818 62.0522 85.0625ZM70.9126 82.4545V83.3068H67.5206V82.4545H70.9126ZM68.5092 80.8864H69.5149V87.125C69.5149 87.4091 69.5561 87.6222 69.6385 87.7642C69.7237 87.9034 69.8317 87.9972 69.9623 88.0455C70.0959 88.0909 70.2365 88.1136 70.3842 88.1136C70.495 88.1136 70.5859 88.108 70.657 88.0966C70.728 88.0824 70.7848 88.071 70.8274 88.0625L71.032 88.9659C70.9638 88.9915 70.8686 89.017 70.7464 89.0426C70.6243 89.071 70.4695 89.0852 70.282 89.0852C69.9979 89.0852 69.7195 89.0241 69.4467 88.902C69.1768 88.7798 68.9524 88.5938 68.7734 88.3438C68.5973 88.0938 68.5092 87.7784 68.5092 87.3977V80.8864ZM76.9446 83.9205L76.0412 84.1761C75.9844 84.0256 75.9006 83.8793 75.7898 83.7372C75.6818 83.5923 75.5341 83.473 75.3466 83.3793C75.1591 83.2855 74.919 83.2386 74.6264 83.2386C74.2258 83.2386 73.892 83.331 73.625 83.5156C73.3608 83.6974 73.2287 83.929 73.2287 84.2102C73.2287 84.4602 73.3196 84.6577 73.5014 84.8026C73.6832 84.9474 73.9673 85.0682 74.3537 85.1648L75.3253 85.4034C75.9105 85.5455 76.3466 85.7628 76.6335 86.0554C76.9204 86.3452 77.0639 86.7187 77.0639 87.1761C77.0639 87.5511 76.956 87.8864 76.74 88.1818C76.527 88.4773 76.2287 88.7102 75.8452 88.8807C75.4616 89.0511 75.0156 89.1364 74.5071 89.1364C73.8395 89.1364 73.2869 88.9915 72.8494 88.7017C72.4119 88.4119 72.1349 87.9886 72.0185 87.4318L72.973 87.1932C73.0639 87.5455 73.2358 87.8097 73.4886 87.9858C73.7443 88.1619 74.0781 88.25 74.49 88.25C74.9588 88.25 75.331 88.1506 75.6065 87.9517C75.8849 87.75 76.0241 87.5085 76.0241 87.2273C76.0241 87 75.9446 86.8097 75.7855 86.6562C75.6264 86.5 75.3821 86.3835 75.0525 86.3068L73.9616 86.0511C73.3622 85.9091 72.9219 85.6889 72.6406 85.3906C72.3622 85.0895 72.223 84.7131 72.223 84.2614C72.223 83.892 72.3267 83.5653 72.5341 83.2812C72.7443 82.9972 73.0298 82.7741 73.3906 82.6122C73.7543 82.4503 74.1662 82.3693 74.6264 82.3693C75.2741 82.3693 75.7827 82.5114 76.152 82.7955C76.5241 83.0795 76.7883 83.4545 76.9446 83.9205Z" fill="black"/>
</g>
<g filter="url(#filter4_dd_488_1245)">
<path d="M164.79 43.8182V54H163.557V45.1108H163.497L161.011 46.7614V45.5085L163.557 43.8182H164.79ZM170.9 54.1392C170.317 54.1392 169.791 54.0232 169.324 53.7912C168.857 53.5592 168.482 53.241 168.2 52.8366C167.919 52.4323 167.765 51.9716 167.738 51.4545H168.931C168.978 51.9152 169.186 52.2964 169.558 52.598C169.932 52.8963 170.38 53.0455 170.9 53.0455C171.318 53.0455 171.689 52.9477 172.014 52.7521C172.342 52.5566 172.599 52.2881 172.784 51.9467C172.973 51.602 173.068 51.2126 173.068 50.7784C173.068 50.3343 172.97 49.9382 172.774 49.5902C172.582 49.2389 172.317 48.9621 171.979 48.7599C171.641 48.5578 171.255 48.455 170.82 48.4517C170.509 48.4484 170.189 48.4964 169.861 48.5959C169.533 48.692 169.263 48.8163 169.051 48.9688L167.897 48.8295L168.514 43.8182H173.803V44.9119H169.548L169.19 47.9148H169.249C169.458 47.7491 169.72 47.6115 170.035 47.5021C170.35 47.3928 170.678 47.3381 171.019 47.3381C171.642 47.3381 172.198 47.4872 172.685 47.7855C173.175 48.0805 173.56 48.4848 173.838 48.9986C174.12 49.5123 174.261 50.099 174.261 50.7585C174.261 51.4081 174.115 51.9882 173.823 52.4986C173.535 53.0057 173.137 53.4067 172.63 53.7017C172.123 53.9934 171.546 54.1392 170.9 54.1392ZM184.568 48.3622V49.456H180.114V48.3622H184.568ZM194.13 43.8182V54H192.897V45.1108H192.837L190.351 46.7614V45.5085L192.897 43.8182H194.13ZM200.319 54.1392C199.637 54.1392 199.033 54.0182 198.51 53.7763C197.989 53.531 197.583 53.1946 197.292 52.767C197 52.3362 196.856 51.8456 196.859 51.2955C196.856 50.8646 196.94 50.4669 197.113 50.1023C197.285 49.7344 197.52 49.4278 197.819 49.1825C198.12 48.9339 198.457 48.7765 198.828 48.7102V48.6506C198.341 48.5246 197.953 48.2512 197.665 47.8303C197.376 47.406 197.234 46.9238 197.237 46.3835C197.234 45.8665 197.365 45.4041 197.63 44.9964C197.895 44.5888 198.259 44.2673 198.723 44.032C199.191 43.7966 199.723 43.679 200.319 43.679C200.909 43.679 201.436 43.7966 201.9 44.032C202.364 44.2673 202.729 44.5888 202.994 44.9964C203.263 45.4041 203.398 45.8665 203.402 46.3835C203.398 46.9238 203.251 47.406 202.959 47.8303C202.671 48.2512 202.288 48.5246 201.811 48.6506V48.7102C202.179 48.7765 202.51 48.9339 202.805 49.1825C203.1 49.4278 203.335 49.7344 203.511 50.1023C203.687 50.4669 203.776 50.8646 203.78 51.2955C203.776 51.8456 203.627 52.3362 203.332 52.767C203.04 53.1946 202.634 53.531 202.114 53.7763C201.597 54.0182 200.999 54.1392 200.319 54.1392ZM200.319 53.0455C200.78 53.0455 201.178 52.9709 201.513 52.8217C201.847 52.6726 202.106 52.4621 202.288 52.1903C202.47 51.9186 202.563 51.6004 202.567 51.2358C202.563 50.8513 202.464 50.5116 202.268 50.2166C202.073 49.9216 201.806 49.6896 201.468 49.5206C201.133 49.3516 200.75 49.267 200.319 49.267C199.885 49.267 199.497 49.3516 199.156 49.5206C198.818 49.6896 198.551 49.9216 198.356 50.2166C198.163 50.5116 198.069 50.8513 198.072 51.2358C198.069 51.6004 198.157 51.9186 198.336 52.1903C198.518 52.4621 198.778 52.6726 199.116 52.8217C199.454 52.9709 199.855 53.0455 200.319 53.0455ZM200.319 48.2131C200.684 48.2131 201.007 48.1402 201.289 47.9943C201.574 47.8485 201.798 47.6446 201.96 47.3828C202.122 47.121 202.205 46.8144 202.209 46.4631C202.205 46.1184 202.124 45.8184 201.965 45.5632C201.806 45.3047 201.585 45.1058 201.304 44.9666C201.022 44.8241 200.694 44.7528 200.319 44.7528C199.938 44.7528 199.605 44.8241 199.32 44.9666C199.035 45.1058 198.815 45.3047 198.659 45.5632C198.503 45.8184 198.427 46.1184 198.43 46.4631C198.427 46.8144 198.505 47.121 198.664 47.3828C198.826 47.6446 199.05 47.8485 199.335 47.9943C199.62 48.1402 199.948 48.2131 200.319 48.2131ZM158.694 71V63.3636H159.828V64.5568H159.927C160.086 64.1491 160.343 63.8326 160.698 63.6072C161.052 63.3786 161.478 63.2642 161.975 63.2642C162.479 63.2642 162.898 63.3786 163.233 63.6072C163.571 63.8326 163.835 64.1491 164.024 64.5568H164.103C164.299 64.1624 164.592 63.8492 164.983 63.6172C165.374 63.3819 165.843 63.2642 166.39 63.2642C167.073 63.2642 167.631 63.478 168.066 63.9055C168.5 64.3298 168.717 64.991 168.717 65.8892V71H167.544V65.8892C167.544 65.3258 167.389 64.9231 167.081 64.6811C166.773 64.4392 166.41 64.3182 165.992 64.3182C165.455 64.3182 165.039 64.4806 164.745 64.8054C164.45 65.1269 164.302 65.5346 164.302 66.0284V71H163.109V65.7699C163.109 65.3357 162.968 64.986 162.686 64.7209C162.405 64.4524 162.042 64.3182 161.597 64.3182C161.293 64.3182 161.008 64.3994 160.742 64.5618C160.481 64.7242 160.268 64.9496 160.106 65.2379C159.947 65.523 159.867 65.8527 159.867 66.2273V71H158.694ZM173.964 71.1591C173.275 71.1591 172.67 70.995 172.15 70.6669C171.633 70.3388 171.228 69.8797 170.937 69.2898C170.648 68.6998 170.504 68.0104 170.504 67.2216C170.504 66.4261 170.648 65.7318 170.937 65.1385C171.228 64.5452 171.633 64.0845 172.15 63.7564C172.67 63.4283 173.275 63.2642 173.964 63.2642C174.654 63.2642 175.257 63.4283 175.774 63.7564C176.294 64.0845 176.699 64.5452 176.987 65.1385C177.279 65.7318 177.425 66.4261 177.425 67.2216C177.425 68.0104 177.279 68.6998 176.987 69.2898C176.699 69.8797 176.294 70.3388 175.774 70.6669C175.257 70.995 174.654 71.1591 173.964 71.1591ZM173.964 70.1051C174.488 70.1051 174.919 69.9709 175.257 69.7024C175.595 69.4339 175.845 69.081 176.008 68.6435C176.17 68.206 176.251 67.732 176.251 67.2216C176.251 66.7112 176.17 66.2356 176.008 65.7947C175.845 65.3539 175.595 64.9976 175.257 64.7259C174.919 64.4541 174.488 64.3182 173.964 64.3182C173.441 64.3182 173.01 64.4541 172.672 64.7259C172.334 64.9976 172.083 65.3539 171.921 65.7947C171.759 66.2356 171.677 66.7112 171.677 67.2216C171.677 67.732 171.759 68.206 171.921 68.6435C172.083 69.081 172.334 69.4339 172.672 69.7024C173.01 69.9709 173.441 70.1051 173.964 70.1051ZM180.389 66.4062V71H179.216V63.3636H180.349V64.5568H180.449C180.628 64.169 180.899 63.8575 181.264 63.6222C181.628 63.3835 182.099 63.2642 182.676 63.2642C183.193 63.2642 183.645 63.3703 184.033 63.5824C184.421 63.7912 184.722 64.1094 184.938 64.5369C185.153 64.9612 185.261 65.4981 185.261 66.1477V71H184.088V66.2273C184.088 65.6274 183.932 65.16 183.62 64.8253C183.309 64.4872 182.881 64.3182 182.338 64.3182C181.963 64.3182 181.628 64.3994 181.333 64.5618C181.042 64.7242 180.811 64.9612 180.642 65.2727C180.473 65.5843 180.389 65.9621 180.389 66.4062ZM190.726 63.3636V64.358H186.769V63.3636H190.726ZM187.922 61.5341H189.095V68.8125C189.095 69.1439 189.143 69.3925 189.24 69.5582C189.339 69.7206 189.465 69.83 189.617 69.8864C189.773 69.9394 189.937 69.9659 190.11 69.9659C190.239 69.9659 190.345 69.9593 190.428 69.946C190.511 69.9295 190.577 69.9162 190.627 69.9062L190.865 70.9602C190.786 70.9901 190.675 71.0199 190.532 71.0497C190.39 71.0829 190.209 71.0994 189.99 71.0994C189.659 71.0994 189.334 71.0282 189.016 70.8857C188.701 70.7431 188.439 70.526 188.23 70.2344C188.025 69.9427 187.922 69.5748 187.922 69.1307V61.5341ZM193.828 66.4062V71H192.655V60.8182H193.828V64.5568H193.928C194.107 64.1624 194.375 63.8492 194.733 63.6172C195.094 63.3819 195.575 63.2642 196.175 63.2642C196.695 63.2642 197.151 63.3686 197.542 63.5774C197.933 63.7829 198.236 64.0994 198.452 64.527C198.671 64.9512 198.78 65.4915 198.78 66.1477V71H197.607V66.2273C197.607 65.6207 197.449 65.1518 197.134 64.8203C196.823 64.4856 196.39 64.3182 195.837 64.3182C195.452 64.3182 195.108 64.3994 194.803 64.5618C194.501 64.7242 194.263 64.9612 194.087 65.2727C193.914 65.5843 193.828 65.9621 193.828 66.4062ZM206.336 65.0739L205.282 65.3722C205.215 65.1965 205.118 65.0258 204.988 64.8601C204.862 64.6911 204.69 64.5518 204.471 64.4425C204.253 64.3331 203.972 64.2784 203.631 64.2784C203.164 64.2784 202.774 64.3861 202.463 64.6016C202.154 64.8137 202 65.0838 202 65.4119C202 65.7036 202.106 65.9339 202.319 66.103C202.531 66.272 202.862 66.4129 203.313 66.5256L204.446 66.804C205.129 66.9697 205.638 67.2232 205.973 67.5646C206.307 67.9027 206.475 68.3385 206.475 68.8722C206.475 69.3097 206.349 69.7008 206.097 70.0455C205.848 70.3902 205.5 70.6619 205.053 70.8608C204.605 71.0597 204.085 71.1591 203.492 71.1591C202.713 71.1591 202.068 70.9901 201.558 70.652C201.047 70.3139 200.724 69.8201 200.588 69.1705L201.702 68.892C201.808 69.303 202.009 69.6113 202.304 69.8168C202.602 70.0223 202.991 70.125 203.472 70.125C204.019 70.125 204.453 70.009 204.775 69.777C205.099 69.5417 205.262 69.2599 205.262 68.9318C205.262 68.6667 205.169 68.4446 204.983 68.2656C204.798 68.0833 204.513 67.9474 204.128 67.858L202.855 67.5597C202.156 67.3939 201.642 67.1371 201.314 66.7891C200.989 66.4377 200.827 65.9986 200.827 65.4716C200.827 65.0407 200.948 64.6596 201.19 64.3281C201.435 63.9967 201.768 63.7365 202.189 63.5476C202.614 63.3587 203.094 63.2642 203.631 63.2642C204.387 63.2642 204.98 63.4299 205.411 63.7614C205.845 64.0928 206.153 64.5303 206.336 65.0739Z" fill="black"/>
<path d="M149.172 89V80.2727H152.223C152.831 80.2727 153.333 80.3778 153.727 80.5881C154.122 80.7955 154.416 81.0753 154.61 81.4276C154.803 81.777 154.899 82.1648 154.899 82.5909C154.899 82.9659 154.833 83.2756 154.699 83.5199C154.568 83.7642 154.395 83.9574 154.179 84.0994C153.966 84.2415 153.735 84.3466 153.485 84.4148V84.5C153.752 84.517 154.02 84.6108 154.29 84.7812C154.56 84.9517 154.786 85.196 154.968 85.5142C155.149 85.8324 155.24 86.2216 155.24 86.6818C155.24 87.1193 155.141 87.5128 154.942 87.8622C154.743 88.2116 154.429 88.4886 154 88.6932C153.571 88.8977 153.013 89 152.325 89H149.172ZM150.229 88.0625H152.325C153.016 88.0625 153.506 87.929 153.796 87.6619C154.088 87.392 154.235 87.0653 154.235 86.6818C154.235 86.3864 154.159 86.1136 154.009 85.8636C153.858 85.6108 153.644 85.4091 153.365 85.2585C153.087 85.1051 152.757 85.0284 152.377 85.0284H150.229V88.0625ZM150.229 84.108H152.189C152.507 84.108 152.794 84.0455 153.05 83.9205C153.308 83.7955 153.513 83.6193 153.664 83.392C153.817 83.1648 153.894 82.8977 153.894 82.5909C153.894 82.2074 153.76 81.8821 153.493 81.6151C153.226 81.3452 152.803 81.2102 152.223 81.2102H150.229V84.108ZM159.585 89.1364C158.954 89.1364 158.41 88.9972 157.953 88.7188C157.498 88.4375 157.147 88.0455 156.9 87.5426C156.656 87.0369 156.534 86.4489 156.534 85.7784C156.534 85.108 156.656 84.517 156.9 84.0057C157.147 83.4915 157.491 83.0909 157.931 82.804C158.374 82.5142 158.892 82.3693 159.482 82.3693C159.823 82.3693 160.16 82.4261 160.492 82.5398C160.825 82.6534 161.127 82.8381 161.4 83.0938C161.673 83.3466 161.89 83.6818 162.052 84.0994C162.214 84.517 162.295 85.0312 162.295 85.642V86.0682H157.249V85.1989H161.272C161.272 84.8295 161.198 84.5 161.051 84.2102C160.906 83.9205 160.698 83.6918 160.428 83.5241C160.161 83.3565 159.846 83.2727 159.482 83.2727C159.082 83.2727 158.735 83.3722 158.443 83.571C158.153 83.767 157.93 84.0227 157.774 84.3381C157.617 84.6534 157.539 84.9915 157.539 85.3523V85.9318C157.539 86.4261 157.624 86.8452 157.795 87.1889C157.968 87.5298 158.208 87.7898 158.515 87.9688C158.822 88.1449 159.178 88.233 159.585 88.233C159.849 88.233 160.088 88.196 160.301 88.1222C160.517 88.0455 160.703 87.9318 160.859 87.7812C161.015 87.6278 161.136 87.4375 161.221 87.2102L162.193 87.483C162.09 87.8125 161.919 88.1023 161.677 88.3523C161.436 88.5994 161.137 88.7926 160.782 88.9318C160.427 89.0682 160.028 89.1364 159.585 89.1364ZM168.461 83.9205L167.558 84.1761C167.501 84.0256 167.417 83.8793 167.306 83.7372C167.198 83.5923 167.051 83.473 166.863 83.3793C166.676 83.2855 166.436 83.2386 166.143 83.2386C165.742 83.2386 165.409 83.331 165.142 83.5156C164.877 83.6974 164.745 83.929 164.745 84.2102C164.745 84.4602 164.836 84.6577 165.018 84.8026C165.2 84.9474 165.484 85.0682 165.87 85.1648L166.842 85.4034C167.427 85.5455 167.863 85.7628 168.15 86.0554C168.437 86.3452 168.58 86.7187 168.58 87.1761C168.58 87.5511 168.472 87.8864 168.257 88.1818C168.044 88.4773 167.745 88.7102 167.362 88.8807C166.978 89.0511 166.532 89.1364 166.024 89.1364C165.356 89.1364 164.803 88.9915 164.366 88.7017C163.928 88.4119 163.651 87.9886 163.535 87.4318L164.49 87.1932C164.58 87.5455 164.752 87.8097 165.005 87.9858C165.261 88.1619 165.595 88.25 166.007 88.25C166.475 88.25 166.847 88.1506 167.123 87.9517C167.401 87.75 167.541 87.5085 167.541 87.2273C167.541 87 167.461 86.8097 167.302 86.6562C167.143 86.5 166.899 86.3835 166.569 86.3068L165.478 86.0511C164.879 85.9091 164.438 85.6889 164.157 85.3906C163.879 85.0895 163.74 84.7131 163.74 84.2614C163.74 83.892 163.843 83.5653 164.051 83.2812C164.261 82.9972 164.546 82.7741 164.907 82.6122C165.271 82.4503 165.683 82.3693 166.143 82.3693C166.791 82.3693 167.299 82.5114 167.669 82.7955C168.041 83.0795 168.305 83.4545 168.461 83.9205ZM172.941 82.4545V83.3068H169.549V82.4545H172.941ZM170.537 80.8864H171.543V87.125C171.543 87.4091 171.584 87.6222 171.667 87.7642C171.752 87.9034 171.86 87.9972 171.991 88.0455C172.124 88.0909 172.265 88.1136 172.412 88.1136C172.523 88.1136 172.614 88.108 172.685 88.0966C172.756 88.0824 172.813 88.071 172.856 88.0625L173.06 88.9659C172.992 88.9915 172.897 89.017 172.775 89.0426C172.653 89.071 172.498 89.0852 172.31 89.0852C172.026 89.0852 171.748 89.0241 171.475 88.902C171.205 88.7798 170.981 88.5938 170.802 88.3438C170.626 88.0938 170.537 87.7784 170.537 87.3977V80.8864ZM177.488 81.2102V80.2727H184.033V81.2102H181.289V89H180.232V81.2102H177.488ZM187.323 89.1364C186.692 89.1364 186.148 88.9972 185.691 88.7188C185.236 88.4375 184.885 88.0455 184.638 87.5426C184.394 87.0369 184.272 86.4489 184.272 85.7784C184.272 85.108 184.394 84.517 184.638 84.0057C184.885 83.4915 185.229 83.0909 185.67 82.804C186.113 82.5142 186.63 82.3693 187.221 82.3693C187.562 82.3693 187.898 82.4261 188.231 82.5398C188.563 82.6534 188.866 82.8381 189.138 83.0938C189.411 83.3466 189.628 83.6818 189.79 84.0994C189.952 84.517 190.033 85.0312 190.033 85.642V86.0682H184.988V85.1989H189.01C189.01 84.8295 188.937 84.5 188.789 84.2102C188.644 83.9205 188.437 83.6918 188.167 83.5241C187.9 83.3565 187.584 83.2727 187.221 83.2727C186.82 83.2727 186.474 83.3722 186.181 83.571C185.891 83.767 185.668 84.0227 185.512 84.3381C185.356 84.6534 185.278 84.9915 185.278 85.3523V85.9318C185.278 86.4261 185.363 86.8452 185.533 87.1889C185.706 87.5298 185.947 87.7898 186.253 87.9688C186.56 88.1449 186.917 88.233 187.323 88.233C187.587 88.233 187.826 88.196 188.039 88.1222C188.255 88.0455 188.441 87.9318 188.597 87.7812C188.753 87.6278 188.874 87.4375 188.959 87.2102L189.931 87.483C189.829 87.8125 189.657 88.1023 189.415 88.3523C189.174 88.5994 188.876 88.7926 188.52 88.9318C188.165 89.0682 187.766 89.1364 187.323 89.1364ZM192.569 85.0625V89H191.563V82.4545H192.535V83.4773H192.62C192.773 83.1449 193.006 82.8778 193.319 82.6761C193.631 82.4716 194.035 82.3693 194.529 82.3693C194.972 82.3693 195.36 82.4602 195.692 82.642C196.025 82.821 196.283 83.0938 196.468 83.4602C196.653 83.8239 196.745 84.2841 196.745 84.8409V89H195.739V84.9091C195.739 84.3949 195.606 83.9943 195.339 83.7074C195.072 83.4176 194.705 83.2727 194.239 83.2727C193.918 83.2727 193.631 83.3423 193.378 83.4815C193.128 83.6207 192.931 83.8239 192.786 84.0909C192.641 84.358 192.569 84.6818 192.569 85.0625ZM202.708 86.3239V82.4545H203.713V89H202.708V87.892H202.639C202.486 88.2244 202.247 88.5071 201.923 88.7401C201.6 88.9702 201.191 89.0852 200.696 89.0852C200.287 89.0852 199.923 88.9957 199.605 88.8168C199.287 88.6349 199.037 88.3622 198.855 87.9986C198.673 87.6321 198.583 87.1705 198.583 86.6136V82.4545H199.588V86.5455C199.588 87.0227 199.722 87.4034 199.989 87.6875C200.259 87.9716 200.602 88.1136 201.02 88.1136C201.27 88.1136 201.524 88.0497 201.783 87.9219C202.044 87.794 202.263 87.598 202.439 87.3338C202.618 87.0696 202.708 86.733 202.708 86.3239ZM205.555 89V82.4545H206.527V83.4432H206.595C206.714 83.1193 206.93 82.8565 207.243 82.6548C207.555 82.4531 207.907 82.3523 208.3 82.3523C208.373 82.3523 208.466 82.3537 208.577 82.3565C208.687 82.3594 208.771 82.3636 208.828 82.3693V83.392C208.794 83.3835 208.716 83.3707 208.594 83.3537C208.474 83.3338 208.348 83.3239 208.214 83.3239C207.896 83.3239 207.612 83.3906 207.362 83.5241C207.115 83.6548 206.919 83.8366 206.774 84.0696C206.632 84.2997 206.561 84.5625 206.561 84.858V89H205.555ZM212.565 89.1364C211.934 89.1364 211.39 88.9972 210.933 88.7188C210.479 88.4375 210.128 88.0455 209.881 87.5426C209.636 87.0369 209.514 86.4489 209.514 85.7784C209.514 85.108 209.636 84.517 209.881 84.0057C210.128 83.4915 210.471 83.0909 210.912 82.804C211.355 82.5142 211.872 82.3693 212.463 82.3693C212.804 82.3693 213.14 82.4261 213.473 82.5398C213.805 82.6534 214.108 82.8381 214.381 83.0938C214.653 83.3466 214.871 83.6818 215.032 84.0994C215.194 84.517 215.275 85.0312 215.275 85.642V86.0682H210.23V85.1989H214.253C214.253 84.8295 214.179 84.5 214.031 84.2102C213.886 83.9205 213.679 83.6918 213.409 83.5241C213.142 83.3565 212.827 83.2727 212.463 83.2727C212.062 83.2727 211.716 83.3722 211.423 83.571C211.133 83.767 210.91 84.0227 210.754 84.3381C210.598 84.6534 210.52 84.9915 210.52 85.3523V85.9318C210.52 86.4261 210.605 86.8452 210.775 87.1889C210.949 87.5298 211.189 87.7898 211.496 87.9688C211.802 88.1449 212.159 88.233 212.565 88.233C212.829 88.233 213.068 88.196 213.281 88.1222C213.497 88.0455 213.683 87.9318 213.839 87.7812C213.996 87.6278 214.116 87.4375 214.202 87.2102L215.173 87.483C215.071 87.8125 214.899 88.1023 214.657 88.3523C214.416 88.5994 214.118 88.7926 213.763 88.9318C213.407 89.0682 213.008 89.1364 212.565 89.1364Z" fill="black"/>
</g>
<g filter="url(#filter5_dd_488_1245)">
<path d="M104.815 151L109.369 141.991V141.912H104.119V140.818H110.641V141.972L106.107 151H104.815ZM111.62 151.08C111.374 151.08 111.164 150.992 110.988 150.816C110.812 150.64 110.725 150.43 110.725 150.185C110.725 149.939 110.812 149.729 110.988 149.553C111.164 149.378 111.374 149.29 111.62 149.29C111.865 149.29 112.075 149.378 112.251 149.553C112.427 149.729 112.514 149.939 112.514 150.185C112.514 150.347 112.473 150.496 112.39 150.632C112.311 150.768 112.203 150.877 112.067 150.96C111.934 151.04 111.785 151.08 111.62 151.08ZM117.577 151.139C116.993 151.139 116.468 151.023 116.001 150.791C115.533 150.559 115.159 150.241 114.877 149.837C114.595 149.432 114.441 148.972 114.415 148.455H115.608C115.654 148.915 115.863 149.296 116.234 149.598C116.609 149.896 117.056 150.045 117.577 150.045C117.994 150.045 118.366 149.948 118.69 149.752C119.018 149.557 119.275 149.288 119.461 148.947C119.65 148.602 119.744 148.213 119.744 147.778C119.744 147.334 119.647 146.938 119.451 146.59C119.259 146.239 118.994 145.962 118.656 145.76C118.317 145.558 117.931 145.455 117.497 145.452C117.186 145.448 116.866 145.496 116.538 145.596C116.21 145.692 115.939 145.816 115.727 145.969L114.574 145.83L115.19 140.818H120.48V141.912H116.224L115.866 144.915H115.926C116.135 144.749 116.397 144.612 116.712 144.502C117.027 144.393 117.355 144.338 117.696 144.338C118.319 144.338 118.874 144.487 119.362 144.786C119.852 145.08 120.237 145.485 120.515 145.999C120.797 146.512 120.938 147.099 120.938 147.759C120.938 148.408 120.792 148.988 120.5 149.499C120.212 150.006 119.814 150.407 119.307 150.702C118.8 150.993 118.223 151.139 117.577 151.139ZM128.103 149.091V148.554C128.103 148.183 128.179 147.843 128.332 147.535C128.487 147.223 128.713 146.975 129.008 146.789C129.306 146.6 129.667 146.506 130.091 146.506C130.522 146.506 130.884 146.6 131.175 146.789C131.467 146.975 131.687 147.223 131.836 147.535C131.986 147.843 132.06 148.183 132.06 148.554V149.091C132.06 149.462 131.984 149.804 131.832 150.115C131.682 150.423 131.46 150.672 131.165 150.861C130.874 151.046 130.516 151.139 130.091 151.139C129.661 151.139 129.298 151.046 129.003 150.861C128.708 150.672 128.484 150.423 128.332 150.115C128.179 149.804 128.103 149.462 128.103 149.091ZM129.117 148.554V149.091C129.117 149.399 129.19 149.676 129.336 149.921C129.482 150.163 129.734 150.284 130.091 150.284C130.439 150.284 130.685 150.163 130.827 149.921C130.973 149.676 131.046 149.399 131.046 149.091V148.554C131.046 148.246 130.976 147.971 130.837 147.729C130.698 147.483 130.449 147.361 130.091 147.361C129.743 147.361 129.493 147.483 129.341 147.729C129.192 147.971 129.117 148.246 129.117 148.554ZM123.032 143.264V142.727C123.032 142.356 123.108 142.016 123.26 141.708C123.416 141.397 123.642 141.148 123.937 140.962C124.235 140.773 124.596 140.679 125.02 140.679C125.451 140.679 125.813 140.773 126.104 140.962C126.396 141.148 126.616 141.397 126.765 141.708C126.915 142.016 126.989 142.356 126.989 142.727V143.264C126.989 143.635 126.913 143.977 126.76 144.288C126.611 144.597 126.389 144.845 126.094 145.034C125.803 145.22 125.445 145.312 125.02 145.312C124.59 145.312 124.227 145.22 123.932 145.034C123.637 144.845 123.413 144.597 123.26 144.288C123.108 143.977 123.032 143.635 123.032 143.264ZM124.046 142.727V143.264C124.046 143.572 124.119 143.849 124.265 144.094C124.411 144.336 124.662 144.457 125.02 144.457C125.368 144.457 125.614 144.336 125.756 144.094C125.902 143.849 125.975 143.572 125.975 143.264V142.727C125.975 142.419 125.905 142.144 125.766 141.902C125.627 141.657 125.378 141.534 125.02 141.534C124.672 141.534 124.422 141.657 124.27 141.902C124.121 142.144 124.046 142.419 124.046 142.727ZM123.41 151L130.41 140.818H131.543L124.543 151H123.41ZM137.29 149.21V142.648H138.404V149.21H137.29ZM134.566 146.486V145.372H141.128V146.486H134.566Z" fill="black"/>
<path d="M101.533 165.273V174H100.476V166.381H100.425L98.2946 167.795V166.722L100.476 165.273H101.533ZM103.839 172.21V171.341L107.674 165.273H108.305V166.619H107.878L104.981 171.205V171.273H110.145V172.21H103.839ZM107.947 174V171.946V171.541V165.273H108.952V174H107.947ZM115.271 174V165.273H118.322C118.93 165.273 119.431 165.378 119.826 165.588C120.221 165.795 120.515 166.075 120.708 166.428C120.901 166.777 120.998 167.165 120.998 167.591C120.998 167.966 120.931 168.276 120.798 168.52C120.667 168.764 120.494 168.957 120.278 169.099C120.065 169.241 119.833 169.347 119.583 169.415V169.5C119.85 169.517 120.119 169.611 120.389 169.781C120.659 169.952 120.884 170.196 121.066 170.514C121.248 170.832 121.339 171.222 121.339 171.682C121.339 172.119 121.24 172.513 121.041 172.862C120.842 173.212 120.528 173.489 120.099 173.693C119.67 173.898 119.112 174 118.424 174H115.271ZM116.328 173.062H118.424C119.115 173.062 119.605 172.929 119.894 172.662C120.187 172.392 120.333 172.065 120.333 171.682C120.333 171.386 120.258 171.114 120.107 170.864C119.957 170.611 119.742 170.409 119.464 170.259C119.186 170.105 118.856 170.028 118.475 170.028H116.328V173.062ZM116.328 169.108H118.288C118.606 169.108 118.893 169.045 119.149 168.92C119.407 168.795 119.612 168.619 119.762 168.392C119.916 168.165 119.992 167.898 119.992 167.591C119.992 167.207 119.859 166.882 119.592 166.615C119.325 166.345 118.901 166.21 118.322 166.21H116.328V169.108ZM124.865 174.153C124.45 174.153 124.074 174.075 123.736 173.919C123.398 173.76 123.129 173.531 122.931 173.233C122.732 172.932 122.632 172.568 122.632 172.142C122.632 171.767 122.706 171.463 122.854 171.23C123.002 170.994 123.199 170.81 123.446 170.676C123.693 170.543 123.966 170.443 124.264 170.378C124.566 170.31 124.868 170.256 125.172 170.216C125.57 170.165 125.892 170.126 126.139 170.101C126.389 170.072 126.571 170.026 126.685 169.96C126.801 169.895 126.86 169.781 126.86 169.619V169.585C126.86 169.165 126.745 168.838 126.514 168.605C126.287 168.372 125.942 168.256 125.479 168.256C124.999 168.256 124.622 168.361 124.35 168.571C124.077 168.781 123.885 169.006 123.774 169.244L122.82 168.903C122.99 168.506 123.218 168.196 123.502 167.974C123.789 167.75 124.101 167.594 124.439 167.506C124.78 167.415 125.115 167.369 125.445 167.369C125.655 167.369 125.897 167.395 126.169 167.446C126.445 167.494 126.71 167.595 126.966 167.749C127.225 167.902 127.439 168.134 127.61 168.443C127.78 168.753 127.865 169.168 127.865 169.688V174H126.86V173.114H126.808C126.74 173.256 126.627 173.408 126.468 173.57C126.308 173.732 126.097 173.869 125.833 173.983C125.568 174.097 125.246 174.153 124.865 174.153ZM125.019 173.25C125.416 173.25 125.752 173.172 126.024 173.016C126.3 172.859 126.507 172.658 126.647 172.411C126.789 172.163 126.86 171.903 126.86 171.631V170.71C126.817 170.761 126.723 170.808 126.578 170.851C126.436 170.891 126.272 170.926 126.084 170.957C125.899 170.986 125.719 171.011 125.543 171.034C125.37 171.054 125.229 171.071 125.121 171.085C124.86 171.119 124.615 171.175 124.388 171.251C124.164 171.325 123.982 171.437 123.843 171.588C123.706 171.736 123.638 171.937 123.638 172.193C123.638 172.543 123.767 172.807 124.026 172.986C124.287 173.162 124.618 173.25 125.019 173.25ZM130.707 170.062V174H129.701V167.455H130.672V168.477H130.758C130.911 168.145 131.144 167.878 131.457 167.676C131.769 167.472 132.172 167.369 132.667 167.369C133.11 167.369 133.498 167.46 133.83 167.642C134.162 167.821 134.421 168.094 134.606 168.46C134.79 168.824 134.883 169.284 134.883 169.841V174H133.877V169.909C133.877 169.395 133.743 168.994 133.476 168.707C133.209 168.418 132.843 168.273 132.377 168.273C132.056 168.273 131.769 168.342 131.516 168.482C131.266 168.621 131.069 168.824 130.924 169.091C130.779 169.358 130.707 169.682 130.707 170.062ZM137.658 171.614L137.641 170.369H137.845L140.709 167.455H141.953L138.902 170.54H138.817L137.658 171.614ZM136.72 174V165.273H137.726V174H136.72ZM140.879 174L138.323 170.761L139.039 170.062L142.158 174H140.879ZM147.884 168.92L146.981 169.176C146.924 169.026 146.84 168.879 146.729 168.737C146.621 168.592 146.474 168.473 146.286 168.379C146.099 168.286 145.859 168.239 145.566 168.239C145.165 168.239 144.832 168.331 144.564 168.516C144.3 168.697 144.168 168.929 144.168 169.21C144.168 169.46 144.259 169.658 144.441 169.803C144.623 169.947 144.907 170.068 145.293 170.165L146.265 170.403C146.85 170.545 147.286 170.763 147.573 171.055C147.86 171.345 148.003 171.719 148.003 172.176C148.003 172.551 147.895 172.886 147.68 173.182C147.466 173.477 147.168 173.71 146.785 173.881C146.401 174.051 145.955 174.136 145.447 174.136C144.779 174.136 144.226 173.991 143.789 173.702C143.351 173.412 143.074 172.989 142.958 172.432L143.912 172.193C144.003 172.545 144.175 172.81 144.428 172.986C144.684 173.162 145.018 173.25 145.43 173.25C145.898 173.25 146.27 173.151 146.546 172.952C146.824 172.75 146.964 172.509 146.964 172.227C146.964 172 146.884 171.81 146.725 171.656C146.566 171.5 146.322 171.384 145.992 171.307L144.901 171.051C144.302 170.909 143.861 170.689 143.58 170.391C143.302 170.089 143.162 169.713 143.162 169.261C143.162 168.892 143.266 168.565 143.474 168.281C143.684 167.997 143.969 167.774 144.33 167.612C144.694 167.45 145.106 167.369 145.566 167.369C146.214 167.369 146.722 167.511 147.091 167.795C147.464 168.08 147.728 168.455 147.884 168.92ZM97.3145 189.153C96.8997 189.153 96.5233 189.075 96.1852 188.919C95.8471 188.76 95.5787 188.531 95.3798 188.233C95.1809 187.932 95.0815 187.568 95.0815 187.142C95.0815 186.767 95.1554 186.463 95.3031 186.23C95.4508 185.994 95.6483 185.81 95.8954 185.676C96.1426 185.543 96.4153 185.443 96.7136 185.378C97.0148 185.31 97.3173 185.256 97.6213 185.216C98.019 185.165 98.3415 185.126 98.5886 185.101C98.8386 185.072 99.0204 185.026 99.1341 184.96C99.2506 184.895 99.3088 184.781 99.3088 184.619V184.585C99.3088 184.165 99.1937 183.838 98.9636 183.605C98.7363 183.372 98.3912 183.256 97.9281 183.256C97.448 183.256 97.0716 183.361 96.7988 183.571C96.5261 183.781 96.3344 184.006 96.2236 184.244L95.269 183.903C95.4395 183.506 95.6667 183.196 95.9508 182.974C96.2378 182.75 96.5503 182.594 96.8883 182.506C97.2292 182.415 97.5645 182.369 97.894 182.369C98.1042 182.369 98.3457 182.395 98.6184 182.446C98.894 182.494 99.1596 182.595 99.4153 182.749C99.6738 182.902 99.8883 183.134 100.059 183.443C100.229 183.753 100.314 184.168 100.314 184.688V189H99.3088V188.114H99.2577C99.1895 188.256 99.0758 188.408 98.9167 188.57C98.7577 188.732 98.546 188.869 98.2818 188.983C98.0176 189.097 97.6952 189.153 97.3145 189.153ZM97.4679 188.25C97.8656 188.25 98.2008 188.172 98.4736 188.016C98.7491 187.859 98.9565 187.658 99.0957 187.411C99.2378 187.163 99.3088 186.903 99.3088 186.631V185.71C99.2662 185.761 99.1724 185.808 99.0275 185.851C98.8855 185.891 98.7207 185.926 98.5332 185.957C98.3486 185.986 98.1682 186.011 97.992 186.034C97.8187 186.054 97.6781 186.071 97.5702 186.085C97.3088 186.119 97.0645 186.175 96.8372 186.251C96.6128 186.325 96.4309 186.437 96.2917 186.588C96.1554 186.736 96.0872 186.937 96.0872 187.193C96.0872 187.543 96.2165 187.807 96.475 187.986C96.7363 188.162 97.0673 188.25 97.4679 188.25ZM103.156 185.062V189H102.15V182.455H103.122V183.477H103.207C103.36 183.145 103.593 182.878 103.906 182.676C104.218 182.472 104.622 182.369 105.116 182.369C105.559 182.369 105.947 182.46 106.279 182.642C106.612 182.821 106.87 183.094 107.055 183.46C107.24 183.824 107.332 184.284 107.332 184.841V189H106.326V184.909C106.326 184.395 106.193 183.994 105.926 183.707C105.659 183.418 105.292 183.273 104.826 183.273C104.505 183.273 104.218 183.342 103.965 183.482C103.715 183.621 103.518 183.824 103.373 184.091C103.228 184.358 103.156 184.682 103.156 185.062ZM111.641 189.136C111.096 189.136 110.614 188.999 110.197 188.723C109.779 188.445 109.452 188.053 109.216 187.547C108.981 187.038 108.863 186.438 108.863 185.744C108.863 185.057 108.981 184.46 109.216 183.955C109.452 183.449 109.78 183.058 110.201 182.783C110.621 182.507 111.107 182.369 111.658 182.369C112.084 182.369 112.421 182.44 112.668 182.582C112.918 182.722 113.109 182.881 113.239 183.06C113.373 183.236 113.476 183.381 113.55 183.494H113.635V180.273H114.641V189H113.67V187.994H113.55C113.476 188.114 113.371 188.264 113.235 188.446C113.099 188.625 112.904 188.786 112.651 188.928C112.398 189.067 112.062 189.136 111.641 189.136ZM111.778 188.233C112.181 188.233 112.522 188.128 112.8 187.918C113.079 187.705 113.29 187.411 113.435 187.036C113.58 186.658 113.653 186.222 113.653 185.727C113.653 185.239 113.582 184.811 113.439 184.445C113.297 184.075 113.087 183.788 112.809 183.584C112.53 183.376 112.187 183.273 111.778 183.273C111.351 183.273 110.996 183.382 110.712 183.601C110.431 183.817 110.219 184.111 110.077 184.483C109.938 184.852 109.868 185.267 109.868 185.727C109.868 186.193 109.939 186.616 110.082 186.997C110.226 187.375 110.439 187.676 110.721 187.901C111.005 188.122 111.357 188.233 111.778 188.233ZM127.055 180.273V189H126.032L121.276 182.148H121.191V189H120.134V180.273H121.157L125.93 187.142H126.015V180.273H127.055ZM129.169 189V180.273H132.22C132.828 180.273 133.33 180.378 133.725 180.588C134.12 180.795 134.414 181.075 134.607 181.428C134.8 181.777 134.897 182.165 134.897 182.591C134.897 182.966 134.83 183.276 134.696 183.52C134.566 183.764 134.392 183.957 134.176 184.099C133.963 184.241 133.732 184.347 133.482 184.415V184.5C133.749 184.517 134.017 184.611 134.287 184.781C134.557 184.952 134.783 185.196 134.965 185.514C135.147 185.832 135.237 186.222 135.237 186.682C135.237 187.119 135.138 187.513 134.939 187.862C134.74 188.212 134.426 188.489 133.997 188.693C133.568 188.898 133.01 189 132.323 189H129.169ZM130.226 188.062H132.323C133.013 188.062 133.503 187.929 133.793 187.662C134.085 187.392 134.232 187.065 134.232 186.682C134.232 186.386 134.156 186.114 134.006 185.864C133.855 185.611 133.641 185.409 133.362 185.259C133.084 185.105 132.754 185.028 132.374 185.028H130.226V188.062ZM130.226 184.108H132.186C132.504 184.108 132.791 184.045 133.047 183.92C133.306 183.795 133.51 183.619 133.661 183.392C133.814 183.165 133.891 182.898 133.891 182.591C133.891 182.207 133.757 181.882 133.49 181.615C133.223 181.345 132.8 181.21 132.22 181.21H130.226V184.108ZM136.974 189V180.273H142.207V181.21H138.031V184.159H141.815V185.097H138.031V189H136.974ZM151.04 183H149.983C149.92 182.696 149.811 182.429 149.655 182.199C149.501 181.969 149.314 181.776 149.092 181.619C148.873 181.46 148.631 181.341 148.363 181.261C148.096 181.182 147.818 181.142 147.528 181.142C147 181.142 146.521 181.276 146.092 181.543C145.666 181.81 145.327 182.203 145.074 182.723C144.824 183.243 144.699 183.881 144.699 184.636C144.699 185.392 144.824 186.03 145.074 186.55C145.327 187.07 145.666 187.463 146.092 187.73C146.521 187.997 147 188.131 147.528 188.131C147.818 188.131 148.096 188.091 148.363 188.011C148.631 187.932 148.873 187.814 149.092 187.658C149.314 187.499 149.501 187.304 149.655 187.074C149.811 186.841 149.92 186.574 149.983 186.273H151.04C150.96 186.719 150.815 187.118 150.605 187.47C150.395 187.822 150.133 188.122 149.821 188.369C149.508 188.614 149.158 188.8 148.768 188.928C148.382 189.055 147.969 189.119 147.528 189.119C146.784 189.119 146.122 188.938 145.542 188.574C144.963 188.21 144.507 187.693 144.175 187.023C143.842 186.352 143.676 185.557 143.676 184.636C143.676 183.716 143.842 182.92 144.175 182.25C144.507 181.58 144.963 181.062 145.542 180.699C146.122 180.335 146.784 180.153 147.528 180.153C147.969 180.153 148.382 180.217 148.768 180.345C149.158 180.473 149.508 180.661 149.821 180.908C150.133 181.152 150.395 181.45 150.605 181.803C150.815 182.152 150.96 182.551 151.04 183Z" fill="black"/>
</g>
</g>
<defs>
<filter id="filter0_d_488_1245" x="16" y="30" width="88" height="88" filterUnits="userSpaceOnUse" color-interpolation-filters="sRGB">
<feFlood flood-opacity="0" result="BackgroundImageFix"/>
<feColorMatrix in="SourceAlpha" type="matrix" values="0 0 0 0 0 0 0 0 0 0 0 0 0 0 0 0 0 0 127 0" result="hardAlpha"/>
<feOffset dy="4"/>
<feGaussianBlur stdDeviation="2"/>
<feComposite in2="hardAlpha" operator="out"/>
<feColorMatrix type="matrix" values="0 0 0 0 0 0 0 0 0 0 0 0 0 0 0 0 0 0 0.25 0"/>
<feBlend mode="normal" in2="BackgroundImageFix" result="effect1_dropShadow_488_1245"/>
<feBlend mode="normal" in="SourceGraphic" in2="effect1_dropShadow_488_1245" result="shape"/>
</filter>
<filter id="filter1_d_488_1245" x="76" y="125" width="88" height="88" filterUnits="userSpaceOnUse" color-interpolation-filters="sRGB">
<feFlood flood-opacity="0" result="BackgroundImageFix"/>
<feColorMatrix in="SourceAlpha" type="matrix" values="0 0 0 0 0 0 0 0 0 0 0 0 0 0 0 0 0 0 127 0" result="hardAlpha"/>
<feOffset dy="4"/>
<feGaussianBlur stdDeviation="2"/>
<feComposite in2="hardAlpha" operator="out"/>
<feColorMatrix type="matrix" values="0 0 0 0 0 0 0 0 0 0 0 0 0 0 0 0 0 0 0.25 0"/>
<feBlend mode="normal" in2="BackgroundImageFix" result="effect1_dropShadow_488_1245"/>
<feBlend mode="normal" in="SourceGraphic" in2="effect1_dropShadow_488_1245" result="shape"/>
</filter>
<filter id="filter2_d_488_1245" x="138" y="30" width="88" height="88" filterUnits="userSpaceOnUse" color-interpolation-filters="sRGB">
<feFlood flood-opacity="0" result="BackgroundImageFix"/>
<feColorMatrix in="SourceAlpha" type="matrix" values="0 0 0 0 0 0 0 0 0 0 0 0 0 0 0 0 0 0 127 0" result="hardAlpha"/>
<feOffset dy="4"/>
<feGaussianBlur stdDeviation="2"/>
<feComposite in2="hardAlpha" operator="out"/>
<feColorMatrix type="matrix" values="0 0 0 0 0 0 0 0 0 0 0 0 0 0 0 0 0 0 0.25 0"/>
<feBlend mode="normal" in2="BackgroundImageFix" result="effect1_dropShadow_488_1245"/>
<feBlend mode="normal" in="SourceGraphic" in2="effect1_dropShadow_488_1245" result="shape"/>
</filter>
<filter id="filter3_dd_488_1245" x="20.4707" y="26.3391" width="80.2118" height="83.8527" filterUnits="userSpaceOnUse" color-interpolation-filters="sRGB">
<feFlood flood-opacity="0" result="BackgroundImageFix"/>
<feColorMatrix in="SourceAlpha" type="matrix" values="0 0 0 0 0 0 0 0 0 0 0 0 0 0 0 0 0 0 127 0" result="hardAlpha"/>
<feOffset dx="2.47712" dy="2.47712"/>
<feGaussianBlur stdDeviation="9.2892"/>
<feColorMatrix type="matrix" values="0 0 0 0 0.6512 0 0 0 0 0.66896 0 0 0 0 0.74 0 0 0 0.5 0"/>
<feBlend mode="normal" in2="BackgroundImageFix" result="effect1_dropShadow_488_1245"/>
<feColorMatrix in="SourceAlpha" type="matrix" values="0 0 0 0 0 0 0 0 0 0 0 0 0 0 0 0 0 0 127 0" result="hardAlpha"/>
<feOffset dx="-1.23856" dy="-1.23856"/>
<feGaussianBlur stdDeviation="8.05064"/>
<feColorMatrix type="matrix" values="0 0 0 0 0.979167 0 0 0 0 0.983333 0 0 0 0 1 0 0 0 1 0"/>
<feBlend mode="normal" in2="effect1_dropShadow_488_1245" result="effect2_dropShadow_488_1245"/>
<feBlend mode="normal" in="SourceGraphic" in2="effect2_dropShadow_488_1245" result="shape"/>
</filter>
<filter id="filter4_dd_488_1245" x="131.832" y="26.3391" width="104.499" height="83.8527" filterUnits="userSpaceOnUse" color-interpolation-filters="sRGB">
<feFlood flood-opacity="0" result="BackgroundImageFix"/>
<feColorMatrix in="SourceAlpha" type="matrix" values="0 0 0 0 0 0 0 0 0 0 0 0 0 0 0 0 0 0 127 0" result="hardAlpha"/>
<feOffset dx="2.47712" dy="2.47712"/>
<feGaussianBlur stdDeviation="9.2892"/>
<feColorMatrix type="matrix" values="0 0 0 0 0.6512 0 0 0 0 0.66896 0 0 0 0 0.74 0 0 0 0.5 0"/>
<feBlend mode="normal" in2="BackgroundImageFix" result="effect1_dropShadow_488_1245"/>
<feColorMatrix in="SourceAlpha" type="matrix" values="0 0 0 0 0 0 0 0 0 0 0 0 0 0 0 0 0 0 127 0" result="hardAlpha"/>
<feOffset dx="-1.23856" dy="-1.23856"/>
<feGaussianBlur stdDeviation="8.05064"/>
<feColorMatrix type="matrix" values="0 0 0 0 0.979167 0 0 0 0 0.983333 0 0 0 0 1 0 0 0 1 0"/>
<feBlend mode="normal" in2="effect1_dropShadow_488_1245" result="effect2_dropShadow_488_1245"/>
<feBlend mode="normal" in="SourceGraphic" in2="effect2_dropShadow_488_1245" result="shape"/>
</filter>
<filter id="filter5_dd_488_1245" x="77.7422" y="123.339" width="94.3524" height="86.8698" filterUnits="userSpaceOnUse" color-interpolation-filters="sRGB">
<feFlood flood-opacity="0" result="BackgroundImageFix"/>
<feColorMatrix in="SourceAlpha" type="matrix" values="0 0 0 0 0 0 0 0 0 0 0 0 0 0 0 0 0 0 127 0" result="hardAlpha"/>
<feOffset dx="2.47712" dy="2.47712"/>
<feGaussianBlur stdDeviation="9.2892"/>
<feColorMatrix type="matrix" values="0 0 0 0 0.6512 0 0 0 0 0.66896 0 0 0 0 0.74 0 0 0 0.5 0"/>
<feBlend mode="normal" in2="BackgroundImageFix" result="effect1_dropShadow_488_1245"/>
<feColorMatrix in="SourceAlpha" type="matrix" values="0 0 0 0 0 0 0 0 0 0 0 0 0 0 0 0 0 0 127 0" result="hardAlpha"/>
<feOffset dx="-1.23856" dy="-1.23856"/>
<feGaussianBlur stdDeviation="8.05064"/>
<feColorMatrix type="matrix" values="0 0 0 0 0.979167 0 0 0 0 0.983333 0 0 0 0 1 0 0 0 1 0"/>
<feBlend mode="normal" in2="effect1_dropShadow_488_1245" result="effect2_dropShadow_488_1245"/>
<feBlend mode="normal" in="SourceGraphic" in2="effect2_dropShadow_488_1245" result="shape"/>
</filter>
<clipPath id="clip0_488_1245">
<rect width="240" height="210" rx="20" fill="white"/>
</clipPath>
</defs>
</svg>
