<svg width="240" height="210" viewBox="0 0 240 210" fill="none" xmlns="http://www.w3.org/2000/svg">
<g clip-path="url(#clip0_488_1201)">
<rect width="240" height="210" rx="20" fill="white"/>
<g filter="url(#filter0_d_488_1201)">
<rect x="20" y="30" width="80" height="80" rx="20" fill="white"/>
</g>
<g filter="url(#filter1_d_488_1201)">
<rect x="20" y="125" width="80" height="80" rx="20" fill="white"/>
</g>
<g filter="url(#filter2_d_488_1201)">
<rect x="140" y="125" width="80" height="80" rx="20" fill="white"/>
</g>
<g filter="url(#filter3_d_488_1201)">
<rect x="140" y="30" width="80" height="80" rx="20" fill="white"/>
</g>
<g filter="url(#filter4_dd_488_1201)">
<path d="M57.1413 44.8182V55H55.9084V46.1108H55.8487L53.3629 47.7614V46.5085L55.9084 44.8182H57.1413ZM60.0696 55V54.1051L63.4304 50.4261C63.8248 49.9953 64.1496 49.6207 64.4048 49.3026C64.66 48.9811 64.849 48.6795 64.9716 48.3977C65.0975 48.1127 65.1605 47.8144 65.1605 47.5028C65.1605 47.1449 65.0743 46.835 64.902 46.5732C64.733 46.3113 64.5009 46.1091 64.206 45.9666C63.911 45.8241 63.5795 45.7528 63.2116 45.7528C62.8205 45.7528 62.4792 45.834 62.1875 45.9964C61.8991 46.1555 61.6754 46.3793 61.5163 46.6676C61.3606 46.956 61.2827 47.294 61.2827 47.6818H60.1094C60.1094 47.0852 60.2469 46.5616 60.522 46.1108C60.7971 45.66 61.1716 45.3087 61.6456 45.0568C62.1229 44.8049 62.6581 44.679 63.2514 44.679C63.848 44.679 64.3767 44.8049 64.8374 45.0568C65.2981 45.3087 65.6593 45.6484 65.9212 46.076C66.183 46.5036 66.3139 46.9792 66.3139 47.5028C66.3139 47.8774 66.246 48.2436 66.1101 48.6016C65.9775 48.9562 65.7455 49.3523 65.4141 49.7898C65.0859 50.224 64.6302 50.7543 64.0469 51.3807L61.7599 53.8267V53.9062H66.4929V55H60.0696Z" fill="black"/>
<path d="M41.1421 78V67.8182H44.5825C45.3812 67.8182 46.0342 67.9624 46.5413 68.2507C47.0517 68.5357 47.4295 68.9219 47.6748 69.4091C47.9201 69.8963 48.0427 70.4399 48.0427 71.0398C48.0427 71.6397 47.9201 72.1849 47.6748 72.6754C47.4329 73.166 47.0583 73.5571 46.5512 73.8487C46.0441 74.1371 45.3945 74.2812 44.6024 74.2812H42.1365V73.1875H44.5626C45.1095 73.1875 45.5486 73.093 45.8801 72.9041C46.2115 72.7152 46.4518 72.46 46.6009 72.1385C46.7534 71.8137 46.8296 71.4474 46.8296 71.0398C46.8296 70.6321 46.7534 70.2675 46.6009 69.946C46.4518 69.6245 46.2098 69.3726 45.8751 69.1903C45.5403 69.0047 45.0962 68.9119 44.5427 68.9119H42.3751V78H41.1421ZM54.6823 74.8778V70.3636H55.8556V78H54.6823V76.7074H54.6027C54.4237 77.0952 54.1453 77.425 53.7675 77.6967C53.3896 77.9652 52.9124 78.0994 52.3357 78.0994C51.8584 78.0994 51.4342 77.995 51.0629 77.7862C50.6917 77.5741 50.4001 77.2559 50.1879 76.8317C49.9758 76.4041 49.8698 75.8655 49.8698 75.2159V70.3636H51.0431V75.1364C51.0431 75.6932 51.1988 76.1373 51.5104 76.4688C51.8253 76.8002 52.2263 76.9659 52.7135 76.9659C53.0052 76.9659 53.3018 76.8913 53.6034 76.7422C53.9084 76.593 54.1636 76.3643 54.3691 76.0561C54.5779 75.7479 54.6823 75.3551 54.6823 74.8778ZM58.1636 78V67.8182H59.3369V71.5767H59.4363C59.5225 71.4441 59.6418 71.2751 59.7943 71.0696C59.9501 70.8608 60.1721 70.6752 60.4605 70.5128C60.7522 70.3471 61.1466 70.2642 61.6437 70.2642C62.2867 70.2642 62.8535 70.425 63.344 70.7464C63.8345 71.0679 64.2174 71.5237 64.4925 72.1136C64.7675 72.7036 64.9051 73.3996 64.9051 74.2017C64.9051 75.0104 64.7675 75.7114 64.4925 76.3047C64.2174 76.8946 63.8362 77.352 63.349 77.6768C62.8618 77.9983 62.3 78.1591 61.6636 78.1591C61.1731 78.1591 60.7803 78.0779 60.4854 77.9155C60.1904 77.7498 59.9633 77.5625 59.8042 77.3537C59.6452 77.1416 59.5225 76.9659 59.4363 76.8267H59.2971V78H58.1636ZM59.317 74.1818C59.317 74.7585 59.4015 75.2673 59.5706 75.7081C59.7396 76.1456 59.9865 76.4886 60.3113 76.7372C60.6362 76.9825 61.0339 77.1051 61.5045 77.1051C61.9951 77.1051 62.4044 76.9759 62.7325 76.7173C63.064 76.4555 63.3125 76.1042 63.4782 75.6634C63.6473 75.2192 63.7318 74.7254 63.7318 74.1818C63.7318 73.6449 63.6489 73.161 63.4832 72.7301C63.3208 72.2959 63.0739 71.9529 62.7425 71.701C62.4143 71.4458 62.0017 71.3182 61.5045 71.3182C61.0273 71.3182 60.6262 71.4392 60.3014 71.6811C59.9766 71.9197 59.7313 72.2545 59.5656 72.6854C59.3999 73.1129 59.317 73.6117 59.317 74.1818ZM67.8731 67.8182V78H66.6998V67.8182H67.8731ZM70.0221 78V70.3636H71.1954V78H70.0221ZM70.6187 69.0909C70.39 69.0909 70.1928 69.013 70.0271 68.8572C69.8647 68.7015 69.7835 68.5142 69.7835 68.2955C69.7835 68.0767 69.8647 67.8894 70.0271 67.7337C70.1928 67.5779 70.39 67.5 70.6187 67.5C70.8474 67.5 71.0429 67.5779 71.2053 67.7337C71.3711 67.8894 71.4539 68.0767 71.4539 68.2955C71.4539 68.5142 71.3711 68.7015 71.2053 68.8572C71.0429 69.013 70.8474 69.0909 70.6187 69.0909ZM76.4466 78.1591C75.7307 78.1591 75.1143 77.9901 74.5972 77.652C74.0802 77.3139 73.6824 76.8482 73.404 76.255C73.1256 75.6617 72.9864 74.9839 72.9864 74.2216C72.9864 73.446 73.1289 72.7616 73.414 72.1683C73.7023 71.5717 74.1034 71.1061 74.6171 70.7713C75.1341 70.4332 75.7374 70.2642 76.4268 70.2642C76.9637 70.2642 77.4476 70.3636 77.8785 70.5625C78.3093 70.7614 78.6623 71.0398 78.9374 71.3977C79.2125 71.7557 79.3832 72.1733 79.4495 72.6506H78.2762C78.1867 72.3026 77.9878 71.9943 77.6796 71.7259C77.3747 71.4541 76.9637 71.3182 76.4466 71.3182C75.9893 71.3182 75.5882 71.4375 75.2435 71.6761C74.9021 71.9115 74.6353 72.2446 74.4431 72.6754C74.2542 73.103 74.1597 73.6051 74.1597 74.1818C74.1597 74.7718 74.2525 75.2855 74.4381 75.723C74.627 76.1605 74.8922 76.5002 75.2336 76.7422C75.5783 76.9841 75.9826 77.1051 76.4466 77.1051C76.7516 77.1051 77.0283 77.0521 77.2769 76.946C77.5255 76.84 77.7359 76.6875 77.9083 76.4886C78.0806 76.2898 78.2033 76.0511 78.2762 75.7727H79.4495C79.3832 76.2235 79.2191 76.6295 78.9573 76.9908C78.6988 77.3487 78.3557 77.6338 77.9282 77.8459C77.5039 78.0547 77.0101 78.1591 76.4466 78.1591ZM41.1763 95V84.8182H44.736C45.4453 84.8182 46.0302 84.9408 46.4909 85.1861C46.9516 85.428 47.2947 85.7545 47.5201 86.1655C47.7454 86.5732 47.8581 87.0256 47.8581 87.5227C47.8581 87.9602 47.7802 88.3215 47.6245 88.6065C47.472 88.8916 47.2698 89.117 47.0179 89.2827C46.7694 89.4484 46.4992 89.571 46.2076 89.6506V89.75C46.5191 89.7699 46.8323 89.8793 47.1472 90.0781C47.4621 90.277 47.7256 90.562 47.9377 90.9332C48.1498 91.3045 48.2559 91.7585 48.2559 92.2955C48.2559 92.8059 48.1399 93.2649 47.9078 93.6726C47.6758 94.0803 47.3096 94.4034 46.8091 94.642C46.3087 94.8807 45.6574 95 44.8553 95H41.1763ZM42.4093 93.9062H44.8553C45.6607 93.9062 46.2324 93.7505 46.5705 93.4389C46.9119 93.1241 47.0826 92.7429 47.0826 92.2955C47.0826 91.9508 46.9947 91.6326 46.8191 91.3409C46.6434 91.0459 46.3932 90.8106 46.0684 90.6349C45.7435 90.456 45.3591 90.3665 44.915 90.3665H42.4093V93.9062ZM42.4093 89.2926H44.6962C45.0674 89.2926 45.4022 89.2197 45.7005 89.0739C46.0021 88.928 46.2407 88.7225 46.4164 88.4574C46.5953 88.1922 46.6848 87.8807 46.6848 87.5227C46.6848 87.0753 46.5291 86.6958 46.2175 86.3842C45.906 86.0694 45.4121 85.9119 44.736 85.9119H42.4093V89.2926ZM52.3699 95.179C51.8859 95.179 51.4468 95.0878 51.0524 94.9055C50.658 94.7199 50.3448 94.4531 50.1127 94.1051C49.8807 93.7538 49.7647 93.3295 49.7647 92.8324C49.7647 92.3949 49.8509 92.0402 50.0233 91.7685C50.1956 91.4934 50.426 91.2779 50.7143 91.1222C51.0027 90.9664 51.3208 90.8504 51.6689 90.7741C52.0202 90.6946 52.3732 90.6316 52.7278 90.5852C53.1918 90.5256 53.568 90.4808 53.8564 90.451C54.148 90.4179 54.3601 90.3632 54.4927 90.2869C54.6286 90.2107 54.6966 90.0781 54.6966 89.8892V89.8494C54.6966 89.3589 54.5623 88.9777 54.2939 88.706C54.0287 88.4342 53.626 88.2983 53.0858 88.2983C52.5256 88.2983 52.0865 88.4209 51.7683 88.6662C51.4501 88.9115 51.2264 89.1733 51.0971 89.4517L49.9835 89.054C50.1824 88.59 50.4475 88.2287 50.7789 87.9702C51.1137 87.7083 51.4783 87.526 51.8727 87.4233C52.2704 87.3172 52.6615 87.2642 53.046 87.2642C53.2913 87.2642 53.573 87.294 53.8912 87.3537C54.2127 87.41 54.5225 87.5277 54.8208 87.7067C55.1225 87.8857 55.3727 88.1558 55.5716 88.517C55.7704 88.8783 55.8699 89.3622 55.8699 89.9688V95H54.6966V93.9659H54.6369C54.5574 94.1316 54.4248 94.3089 54.2392 94.4979C54.0536 94.6868 53.8066 94.8475 53.4984 94.9801C53.1902 95.1127 52.814 95.179 52.3699 95.179ZM52.5488 94.125C53.0128 94.125 53.4039 94.0339 53.7221 93.8516C54.0436 93.6693 54.2856 93.4339 54.448 93.1456C54.6137 92.8572 54.6966 92.554 54.6966 92.2358V91.1619C54.6468 91.2216 54.5375 91.2763 54.3684 91.326C54.2027 91.3724 54.0105 91.4138 53.7917 91.4503C53.5763 91.4834 53.3658 91.5133 53.1603 91.5398C52.9582 91.563 52.7941 91.5829 52.6681 91.5994C52.3632 91.6392 52.0782 91.7038 51.813 91.7933C51.5512 91.8795 51.3391 92.0104 51.1767 92.1861C51.0176 92.3584 50.938 92.5937 50.938 92.892C50.938 93.2997 51.0888 93.608 51.3904 93.8168C51.6954 94.0223 52.0815 94.125 52.5488 94.125ZM59.1847 90.4062V95H58.0114V87.3636H59.1449V88.5568H59.2443C59.4233 88.169 59.6951 87.8575 60.0597 87.6222C60.4242 87.3835 60.8949 87.2642 61.4716 87.2642C61.9886 87.2642 62.4411 87.3703 62.8288 87.5824C63.2166 87.7912 63.5182 88.1094 63.7337 88.5369C63.9491 88.9612 64.0568 89.4981 64.0568 90.1477V95H62.8835V90.2273C62.8835 89.6274 62.7277 89.16 62.4162 88.8253C62.1046 88.4872 61.6771 88.3182 61.1335 88.3182C60.759 88.3182 60.4242 88.3994 60.1293 88.5618C59.8376 88.7242 59.6072 88.9612 59.4382 89.2727C59.2692 89.5843 59.1847 89.9621 59.1847 90.4062ZM67.2946 92.2159L67.2747 90.7642H67.5133L70.8542 87.3636H72.3059L68.7463 90.9631H68.6468L67.2946 92.2159ZM66.2008 95V84.8182H67.3741V95H66.2008ZM71.0531 95L68.0701 91.2216L68.9054 90.4062L72.5446 95H71.0531ZM79.2251 89.0739L78.1712 89.3722C78.1049 89.1965 78.0071 89.0258 77.8778 88.8601C77.7519 88.6911 77.5795 88.5518 77.3608 88.4425C77.142 88.3331 76.862 88.2784 76.5206 88.2784C76.0533 88.2784 75.6638 88.3861 75.3523 88.6016C75.044 88.8137 74.8899 89.0838 74.8899 89.4119C74.8899 89.7036 74.996 89.9339 75.2081 90.103C75.4202 90.272 75.7517 90.4129 76.2024 90.5256L77.3359 90.804C78.0187 90.9697 78.5275 91.2232 78.8622 91.5646C79.197 91.9027 79.3643 92.3385 79.3643 92.8722C79.3643 93.3097 79.2384 93.7008 78.9865 94.0455C78.7379 94.3902 78.3899 94.6619 77.9425 94.8608C77.495 95.0597 76.9747 95.1591 76.3814 95.1591C75.6025 95.1591 74.9579 94.9901 74.4474 94.652C73.937 94.3139 73.6139 93.8201 73.478 93.1705L74.5916 92.892C74.6977 93.303 74.8982 93.6113 75.1932 93.8168C75.4915 94.0223 75.8809 94.125 76.3615 94.125C76.9084 94.125 77.3426 94.009 77.6641 93.777C77.9889 93.5417 78.1513 93.2599 78.1513 92.9318C78.1513 92.6667 78.0585 92.4446 77.8729 92.2656C77.6873 92.0833 77.4022 91.9474 77.0178 91.858L75.745 91.5597C75.0457 91.3939 74.532 91.1371 74.2038 90.7891C73.879 90.4377 73.7166 89.9986 73.7166 89.4716C73.7166 89.0407 73.8376 88.6596 74.0795 88.3281C74.3248 87.9967 74.6579 87.7365 75.0788 87.5476C75.5031 87.3587 75.9837 87.2642 76.5206 87.2642C77.2763 87.2642 77.8696 87.4299 78.3004 87.7614C78.7346 88.0928 79.0429 88.5303 79.2251 89.0739Z" fill="black"/>
</g>
<g filter="url(#filter5_dd_488_1201)">
<path d="M177.011 44.8182V55H175.778V46.1108H175.719L173.233 47.7614V46.5085L175.778 44.8182H177.011ZM183.32 55.1392C182.903 55.1326 182.485 55.053 182.068 54.9006C181.65 54.7481 181.269 54.4912 180.924 54.13C180.579 53.7654 180.303 53.2732 180.094 52.6534C179.885 52.0303 179.781 51.2481 179.781 50.3068C179.781 49.4053 179.865 48.6065 180.034 47.9105C180.203 47.2112 180.448 46.6229 180.77 46.1456C181.091 45.665 181.479 45.3004 181.933 45.0518C182.391 44.8033 182.906 44.679 183.479 44.679C184.05 44.679 184.557 44.7933 185.001 45.022C185.448 45.2474 185.813 45.5623 186.095 45.9666C186.376 46.371 186.559 46.8366 186.641 47.3636H185.428C185.316 46.9062 185.097 46.5268 184.772 46.2251C184.447 45.9235 184.016 45.7727 183.479 45.7727C182.691 45.7727 182.069 46.1158 181.615 46.8018C181.164 47.4879 180.937 48.4508 180.934 49.6903H181.014C181.199 49.4086 181.42 49.1683 181.675 48.9695C181.933 48.7673 182.218 48.6115 182.53 48.5021C182.841 48.3928 183.171 48.3381 183.519 48.3381C184.103 48.3381 184.636 48.4839 185.12 48.7756C185.604 49.0639 185.992 49.4633 186.283 49.9737C186.575 50.4808 186.721 51.0625 186.721 51.7188C186.721 52.3485 186.58 52.9252 186.298 53.4489C186.017 53.9692 185.621 54.3835 185.11 54.6918C184.603 54.9967 184.006 55.1458 183.32 55.1392ZM183.32 54.0455C183.738 54.0455 184.113 53.9411 184.444 53.7322C184.779 53.5234 185.042 53.2434 185.234 52.892C185.43 52.5407 185.528 52.1496 185.528 51.7188C185.528 51.2978 185.433 50.915 185.244 50.5703C185.059 50.2223 184.802 49.9455 184.474 49.7401C184.149 49.5346 183.778 49.4318 183.36 49.4318C183.045 49.4318 182.752 49.4948 182.48 49.6207C182.208 49.7434 181.97 49.9124 181.764 50.1278C181.562 50.3433 181.403 50.5902 181.287 50.8686C181.171 51.1437 181.113 51.4337 181.113 51.7386C181.113 52.143 181.207 52.5208 181.396 52.8722C181.589 53.2235 181.85 53.5069 182.182 53.7223C182.517 53.9377 182.896 54.0455 183.32 54.0455Z" fill="black"/>
<path d="M158.223 76V65.8182H161.664C162.462 65.8182 163.115 65.9624 163.622 66.2507C164.133 66.5357 164.511 66.9219 164.756 67.4091C165.001 67.8963 165.124 68.4399 165.124 69.0398C165.124 69.6397 165.001 70.1849 164.756 70.6754C164.514 71.166 164.139 71.5571 163.632 71.8487C163.125 72.1371 162.476 72.2812 161.683 72.2812H159.218V71.1875H161.644C162.191 71.1875 162.63 71.093 162.961 70.9041C163.293 70.7152 163.533 70.46 163.682 70.1385C163.834 69.8137 163.911 69.4474 163.911 69.0398C163.911 68.6321 163.834 68.2675 163.682 67.946C163.533 67.6245 163.291 67.3726 162.956 67.1903C162.621 67.0047 162.177 66.9119 161.624 66.9119H159.456V76H158.223ZM166.951 76V68.3636H168.084V69.517H168.164C168.303 69.1392 168.555 68.8326 168.92 68.5973C169.284 68.362 169.695 68.2443 170.153 68.2443C170.239 68.2443 170.346 68.246 170.476 68.2493C170.605 68.2526 170.703 68.2576 170.769 68.2642V69.4574C170.729 69.4474 170.638 69.4325 170.496 69.4126C170.356 69.3894 170.209 69.3778 170.053 69.3778C169.682 69.3778 169.35 69.4557 169.059 69.6115C168.77 69.764 168.542 69.9761 168.373 70.2479C168.207 70.5163 168.124 70.8229 168.124 71.1676V76H166.951ZM172.16 76V68.3636H173.333V76H172.16ZM172.756 67.0909C172.528 67.0909 172.33 67.013 172.165 66.8572C172.002 66.7015 171.921 66.5142 171.921 66.2955C171.921 66.0767 172.002 65.8894 172.165 65.7337C172.33 65.5779 172.528 65.5 172.756 65.5C172.985 65.5 173.181 65.5779 173.343 65.7337C173.509 65.8894 173.592 66.0767 173.592 66.2955C173.592 66.5142 173.509 66.7015 173.343 66.8572C173.181 67.013 172.985 67.0909 172.756 67.0909ZM181.726 68.3636L178.903 76H177.709L174.885 68.3636H176.158L178.266 74.4489H178.346L180.454 68.3636H181.726ZM185.29 76.179C184.806 76.179 184.367 76.0878 183.972 75.9055C183.578 75.7199 183.265 75.4531 183.033 75.1051C182.801 74.7538 182.685 74.3295 182.685 73.8324C182.685 73.3949 182.771 73.0402 182.943 72.7685C183.116 72.4934 183.346 72.2779 183.634 72.1222C183.923 71.9664 184.241 71.8504 184.589 71.7741C184.94 71.6946 185.293 71.6316 185.648 71.5852C186.112 71.5256 186.488 71.4808 186.776 71.451C187.068 71.4179 187.28 71.3632 187.413 71.2869C187.549 71.2107 187.616 71.0781 187.616 70.8892V70.8494C187.616 70.3589 187.482 69.9777 187.214 69.706C186.949 69.4342 186.546 69.2983 186.006 69.2983C185.446 69.2983 185.006 69.4209 184.688 69.6662C184.37 69.9115 184.146 70.1733 184.017 70.4517L182.903 70.054C183.102 69.59 183.367 69.2287 183.699 68.9702C184.034 68.7083 184.398 68.526 184.793 68.4233C185.19 68.3172 185.581 68.2642 185.966 68.2642C186.211 68.2642 186.493 68.294 186.811 68.3537C187.133 68.41 187.442 68.5277 187.741 68.7067C188.042 68.8857 188.293 69.1558 188.491 69.517C188.69 69.8783 188.79 70.3622 188.79 70.9688V76H187.616V74.9659H187.557C187.477 75.1316 187.345 75.3089 187.159 75.4979C186.973 75.6868 186.727 75.8475 186.418 75.9801C186.11 76.1127 185.734 76.179 185.29 76.179ZM185.469 75.125C185.933 75.125 186.324 75.0339 186.642 74.8516C186.964 74.6693 187.205 74.4339 187.368 74.1456C187.534 73.8572 187.616 73.554 187.616 73.2358V72.1619C187.567 72.2216 187.457 72.2763 187.288 72.326C187.123 72.3724 186.93 72.4138 186.712 72.4503C186.496 72.4834 186.286 72.5133 186.08 72.5398C185.878 72.563 185.714 72.5829 185.588 72.5994C185.283 72.6392 184.998 72.7038 184.733 72.7933C184.471 72.8795 184.259 73.0104 184.097 73.1861C183.938 73.3584 183.858 73.5937 183.858 73.892C183.858 74.2997 184.009 74.608 184.31 74.8168C184.615 75.0223 185.001 75.125 185.469 75.125ZM194.252 68.3636V69.358H190.295V68.3636H194.252ZM191.448 66.5341H192.622V73.8125C192.622 74.1439 192.67 74.3925 192.766 74.5582C192.865 74.7206 192.991 74.83 193.144 74.8864C193.299 74.9394 193.463 74.9659 193.636 74.9659C193.765 74.9659 193.871 74.9593 193.954 74.946C194.037 74.9295 194.103 74.9162 194.153 74.9062L194.392 75.9602C194.312 75.9901 194.201 76.0199 194.058 76.0497C193.916 76.0829 193.735 76.0994 193.517 76.0994C193.185 76.0994 192.86 76.0282 192.542 75.8857C192.227 75.7431 191.965 75.526 191.757 75.2344C191.551 74.9427 191.448 74.5748 191.448 74.1307V66.5341ZM199.137 76.1591C198.401 76.1591 197.766 75.9967 197.233 75.6719C196.702 75.3438 196.293 74.8864 196.005 74.2997C195.72 73.7098 195.577 73.0237 195.577 72.2415C195.577 71.4593 195.72 70.7699 196.005 70.1733C196.293 69.5734 196.694 69.1061 197.208 68.7713C197.725 68.4332 198.328 68.2642 199.018 68.2642C199.415 68.2642 199.808 68.3305 200.196 68.4631C200.584 68.5956 200.937 68.8111 201.255 69.1094C201.573 69.4044 201.827 69.7955 202.015 70.2827C202.204 70.7699 202.299 71.3698 202.299 72.0824V72.5795H196.412V71.5653H201.106C201.106 71.1345 201.019 70.75 200.847 70.4119C200.678 70.0739 200.436 69.8071 200.121 69.6115C199.81 69.416 199.442 69.3182 199.018 69.3182C198.55 69.3182 198.146 69.4342 197.805 69.6662C197.466 69.8949 197.206 70.1932 197.024 70.5611C196.842 70.929 196.751 71.3234 196.751 71.7443V72.4205C196.751 72.9972 196.85 73.486 197.049 73.8871C197.251 74.2848 197.531 74.5881 197.889 74.7969C198.247 75.0024 198.663 75.1051 199.137 75.1051C199.445 75.1051 199.724 75.062 199.972 74.9759C200.224 74.8864 200.441 74.7538 200.623 74.5781C200.806 74.3991 200.947 74.1771 201.046 73.9119L202.18 74.2301C202.06 74.6146 201.86 74.9527 201.578 75.2443C201.296 75.5327 200.948 75.758 200.534 75.9205C200.12 76.0795 199.654 76.1591 199.137 76.1591ZM161.176 93V82.8182H164.736C165.445 82.8182 166.03 82.9408 166.491 83.1861C166.952 83.428 167.295 83.7545 167.52 84.1655C167.745 84.5732 167.858 85.0256 167.858 85.5227C167.858 85.9602 167.78 86.3215 167.624 86.6065C167.472 86.8916 167.27 87.117 167.018 87.2827C166.769 87.4484 166.499 87.571 166.208 87.6506V87.75C166.519 87.7699 166.832 87.8793 167.147 88.0781C167.462 88.277 167.726 88.562 167.938 88.9332C168.15 89.3045 168.256 89.7585 168.256 90.2955C168.256 90.8059 168.14 91.2649 167.908 91.6726C167.676 92.0803 167.31 92.4034 166.809 92.642C166.309 92.8807 165.657 93 164.855 93H161.176ZM162.409 91.9062H164.855C165.661 91.9062 166.232 91.7505 166.57 91.4389C166.912 91.1241 167.083 90.7429 167.083 90.2955C167.083 89.9508 166.995 89.6326 166.819 89.3409C166.643 89.0459 166.393 88.8106 166.068 88.6349C165.744 88.456 165.359 88.3665 164.915 88.3665H162.409V91.9062ZM162.409 87.2926H164.696C165.067 87.2926 165.402 87.2197 165.7 87.0739C166.002 86.928 166.241 86.7225 166.416 86.4574C166.595 86.1922 166.685 85.8807 166.685 85.5227C166.685 85.0753 166.529 84.6958 166.218 84.3842C165.906 84.0694 165.412 83.9119 164.736 83.9119H162.409V87.2926ZM172.37 93.179C171.886 93.179 171.447 93.0878 171.052 92.9055C170.658 92.7199 170.345 92.4531 170.113 92.1051C169.881 91.7538 169.765 91.3295 169.765 90.8324C169.765 90.3949 169.851 90.0402 170.023 89.7685C170.196 89.4934 170.426 89.2779 170.714 89.1222C171.003 88.9664 171.321 88.8504 171.669 88.7741C172.02 88.6946 172.373 88.6316 172.728 88.5852C173.192 88.5256 173.568 88.4808 173.856 88.451C174.148 88.4179 174.36 88.3632 174.493 88.2869C174.629 88.2107 174.697 88.0781 174.697 87.8892V87.8494C174.697 87.3589 174.562 86.9777 174.294 86.706C174.029 86.4342 173.626 86.2983 173.086 86.2983C172.526 86.2983 172.086 86.4209 171.768 86.6662C171.45 86.9115 171.226 87.1733 171.097 87.4517L169.983 87.054C170.182 86.59 170.448 86.2287 170.779 85.9702C171.114 85.7083 171.478 85.526 171.873 85.4233C172.27 85.3172 172.662 85.2642 173.046 85.2642C173.291 85.2642 173.573 85.294 173.891 85.3537C174.213 85.41 174.523 85.5277 174.821 85.7067C175.122 85.8857 175.373 86.1558 175.572 86.517C175.77 86.8783 175.87 87.3622 175.87 87.9688V93H174.697V91.9659H174.637C174.557 92.1316 174.425 92.3089 174.239 92.4979C174.054 92.6868 173.807 92.8475 173.498 92.9801C173.19 93.1127 172.814 93.179 172.37 93.179ZM172.549 92.125C173.013 92.125 173.404 92.0339 173.722 91.8516C174.044 91.6693 174.286 91.4339 174.448 91.1456C174.614 90.8572 174.697 90.554 174.697 90.2358V89.1619C174.647 89.2216 174.537 89.2763 174.368 89.326C174.203 89.3724 174.01 89.4138 173.792 89.4503C173.576 89.4834 173.366 89.5133 173.16 89.5398C172.958 89.563 172.794 89.5829 172.668 89.5994C172.363 89.6392 172.078 89.7038 171.813 89.7933C171.551 89.8795 171.339 90.0104 171.177 90.1861C171.018 90.3584 170.938 90.5937 170.938 90.892C170.938 91.2997 171.089 91.608 171.39 91.8168C171.695 92.0223 172.081 92.125 172.549 92.125ZM179.185 88.4062V93H178.011V85.3636H179.145V86.5568H179.244C179.423 86.169 179.695 85.8575 180.06 85.6222C180.424 85.3835 180.895 85.2642 181.472 85.2642C181.989 85.2642 182.441 85.3703 182.829 85.5824C183.217 85.7912 183.518 86.1094 183.734 86.5369C183.949 86.9612 184.057 87.4981 184.057 88.1477V93H182.884V88.2273C182.884 87.6274 182.728 87.16 182.416 86.8253C182.105 86.4872 181.677 86.3182 181.134 86.3182C180.759 86.3182 180.424 86.3994 180.129 86.5618C179.838 86.7242 179.607 86.9612 179.438 87.2727C179.269 87.5843 179.185 87.9621 179.185 88.4062ZM187.295 90.2159L187.275 88.7642H187.513L190.854 85.3636H192.306L188.746 88.9631H188.647L187.295 90.2159ZM186.201 93V82.8182H187.374V93H186.201ZM191.053 93L188.07 89.2216L188.905 88.4062L192.545 93H191.053ZM199.225 87.0739L198.171 87.3722C198.105 87.1965 198.007 87.0258 197.878 86.8601C197.752 86.6911 197.58 86.5518 197.361 86.4425C197.142 86.3331 196.862 86.2784 196.521 86.2784C196.053 86.2784 195.664 86.3861 195.352 86.6016C195.044 86.8137 194.89 87.0838 194.89 87.4119C194.89 87.7036 194.996 87.9339 195.208 88.103C195.42 88.272 195.752 88.4129 196.202 88.5256L197.336 88.804C198.019 88.9697 198.527 89.2232 198.862 89.5646C199.197 89.9027 199.364 90.3385 199.364 90.8722C199.364 91.3097 199.238 91.7008 198.987 92.0455C198.738 92.3902 198.39 92.6619 197.942 92.8608C197.495 93.0597 196.975 93.1591 196.381 93.1591C195.603 93.1591 194.958 92.9901 194.447 92.652C193.937 92.3139 193.614 91.8201 193.478 91.1705L194.592 90.892C194.698 91.303 194.898 91.6113 195.193 91.8168C195.491 92.0223 195.881 92.125 196.362 92.125C196.908 92.125 197.343 92.009 197.664 91.777C197.989 91.5417 198.151 91.2599 198.151 90.9318C198.151 90.6667 198.058 90.4446 197.873 90.2656C197.687 90.0833 197.402 89.9474 197.018 89.858L195.745 89.5597C195.046 89.3939 194.532 89.1371 194.204 88.7891C193.879 88.4377 193.717 87.9986 193.717 87.4716C193.717 87.0407 193.838 86.6596 194.08 86.3281C194.325 85.9967 194.658 85.7365 195.079 85.5476C195.503 85.3587 195.984 85.2642 196.521 85.2642C197.276 85.2642 197.87 85.4299 198.3 85.7614C198.735 86.0928 199.043 86.5303 199.225 87.0739Z" fill="black"/>
</g>
<g filter="url(#filter6_dd_488_1201)">
<path d="M61.0373 154.139C60.381 154.139 59.796 154.027 59.2823 153.801C58.7719 153.576 58.3659 153.263 58.0643 152.862C57.766 152.457 57.6036 151.988 57.5771 151.455H58.8299C58.8564 151.783 58.9691 152.066 59.168 152.305C59.3668 152.54 59.627 152.722 59.9485 152.852C60.27 152.981 60.6263 153.045 61.0174 153.045C61.4549 153.045 61.8427 152.969 62.1808 152.817C62.5188 152.664 62.784 152.452 62.9762 152.18C63.1684 151.909 63.2646 151.594 63.2646 151.236C63.2646 150.861 63.1718 150.531 62.9862 150.246C62.8005 149.958 62.5288 149.733 62.1708 149.57C61.8129 149.408 61.3754 149.327 60.8583 149.327H60.043V148.233H60.8583C61.2627 148.233 61.6173 148.16 61.9222 148.014C62.2305 147.868 62.4708 147.663 62.6431 147.398C62.8188 147.133 62.9066 146.821 62.9066 146.463C62.9066 146.118 62.8304 145.818 62.6779 145.563C62.5254 145.308 62.31 145.109 62.0316 144.967C61.7565 144.824 61.4317 144.753 61.0572 144.753C60.7058 144.753 60.3744 144.817 60.0629 144.947C59.7546 145.073 59.5027 145.257 59.3072 145.499C59.1116 145.737 59.0056 146.026 58.989 146.364H57.7958C57.8157 145.83 57.9764 145.363 58.2781 144.962C58.5797 144.557 58.9741 144.242 59.4613 144.017C59.9518 143.792 60.4904 143.679 61.0771 143.679C61.7068 143.679 62.247 143.807 62.6978 144.062C63.1486 144.314 63.4949 144.647 63.7369 145.061C63.9788 145.475 64.0998 145.923 64.0998 146.403C64.0998 146.977 63.949 147.466 63.6474 147.87C63.3491 148.274 62.9431 148.554 62.4293 148.71V148.79C63.0723 148.896 63.5745 149.169 63.9357 149.61C64.297 150.048 64.4776 150.589 64.4776 151.236C64.4776 151.789 64.3268 152.286 64.0252 152.727C63.7269 153.165 63.3192 153.509 62.8022 153.761C62.2852 154.013 61.6969 154.139 61.0373 154.139Z" fill="black"/>
<path d="M48.9867 166.364C48.927 165.86 48.6851 165.469 48.2608 165.19C47.8366 164.912 47.3162 164.773 46.6998 164.773C46.249 164.773 45.8546 164.846 45.5165 164.991C45.1818 165.137 44.9199 165.338 44.731 165.593C44.5454 165.848 44.4526 166.138 44.4526 166.463C44.4526 166.735 44.5172 166.969 44.6465 167.164C44.7791 167.356 44.9481 167.517 45.1536 167.646C45.3591 167.772 45.5745 167.877 45.7999 167.96C46.0253 168.039 46.2324 168.104 46.4213 168.153L47.4554 168.432C47.7206 168.501 48.0156 168.598 48.3404 168.72C48.6685 168.843 48.9817 169.01 49.28 169.222C49.5816 169.431 49.8302 169.7 50.0257 170.028C50.2213 170.356 50.3191 170.759 50.3191 171.236C50.3191 171.786 50.1749 172.283 49.8865 172.727C49.6015 173.171 49.1839 173.524 48.6337 173.786C48.0868 174.048 47.4223 174.179 46.6401 174.179C45.9109 174.179 45.2795 174.061 44.7459 173.826C44.2156 173.591 43.798 173.263 43.4931 172.842C43.1915 172.421 43.0208 171.932 42.981 171.375H44.2537C44.2869 171.759 44.4161 172.078 44.6415 172.33C44.8702 172.578 45.1586 172.764 45.5066 172.886C45.8579 173.006 46.2357 173.065 46.6401 173.065C47.1107 173.065 47.5333 172.989 47.9078 172.837C48.2824 172.681 48.579 172.465 48.7978 172.19C49.0165 171.912 49.1259 171.587 49.1259 171.216C49.1259 170.878 49.0314 170.603 48.8425 170.391C48.6536 170.179 48.405 170.006 48.0968 169.874C47.7885 169.741 47.4554 169.625 47.0975 169.526L45.8446 169.168C45.0492 168.939 44.4194 168.612 43.9554 168.188C43.4914 167.764 43.2594 167.209 43.2594 166.523C43.2594 165.953 43.4135 165.455 43.7218 165.031C44.0333 164.604 44.4509 164.272 44.9746 164.037C45.5016 163.798 46.0899 163.679 46.7395 163.679C47.3958 163.679 47.9791 163.797 48.4895 164.032C48.9999 164.264 49.4043 164.582 49.7026 164.987C50.0042 165.391 50.1633 165.85 50.1799 166.364H48.9867ZM52.1871 174V166.364H53.3207V167.557H53.4201C53.5792 167.149 53.8361 166.833 54.1907 166.607C54.5453 166.379 54.9712 166.264 55.4684 166.264C55.9722 166.264 56.3915 166.379 56.7262 166.607C57.0643 166.833 57.3278 167.149 57.5167 167.557H57.5962C57.7918 167.162 58.0851 166.849 58.4762 166.617C58.8673 166.382 59.3363 166.264 59.8832 166.264C60.5659 166.264 61.1244 166.478 61.5586 166.906C61.9928 167.33 62.2099 167.991 62.2099 168.889V174H61.0366V168.889C61.0366 168.326 60.8825 167.923 60.5742 167.681C60.266 167.439 59.9031 167.318 59.4854 167.318C58.9485 167.318 58.5326 167.481 58.2376 167.805C57.9426 168.127 57.7951 168.535 57.7951 169.028V174H56.6019V168.77C56.6019 168.336 56.4611 167.986 56.1793 167.721C55.8976 167.452 55.5347 167.318 55.0906 167.318C54.7856 167.318 54.5006 167.399 54.2354 167.562C53.9736 167.724 53.7615 167.95 53.5991 168.238C53.44 168.523 53.3604 168.853 53.3604 169.227V174H52.1871ZM66.6023 174.179C66.1184 174.179 65.6792 174.088 65.2848 173.906C64.8904 173.72 64.5772 173.453 64.3452 173.105C64.1132 172.754 63.9972 172.33 63.9972 171.832C63.9972 171.395 64.0833 171.04 64.2557 170.768C64.428 170.493 64.6584 170.278 64.9467 170.122C65.2351 169.966 65.5533 169.85 65.9013 169.774C66.2526 169.695 66.6056 169.632 66.9602 169.585C67.4242 169.526 67.8004 169.481 68.0888 169.451C68.3804 169.418 68.5926 169.363 68.7251 169.287C68.861 169.211 68.929 169.078 68.929 168.889V168.849C68.929 168.359 68.7947 167.978 68.5263 167.706C68.2611 167.434 67.8584 167.298 67.3182 167.298C66.758 167.298 66.3189 167.421 66.0007 167.666C65.6825 167.911 65.4588 168.173 65.3295 168.452L64.2159 168.054C64.4148 167.59 64.6799 167.229 65.0114 166.97C65.3461 166.708 65.7107 166.526 66.1051 166.423C66.5028 166.317 66.8939 166.264 67.2784 166.264C67.5237 166.264 67.8054 166.294 68.1236 166.354C68.4451 166.41 68.755 166.528 69.0533 166.707C69.3549 166.886 69.6051 167.156 69.804 167.517C70.0028 167.878 70.1023 168.362 70.1023 168.969V174H68.929V172.966H68.8693C68.7898 173.132 68.6572 173.309 68.4716 173.498C68.286 173.687 68.0391 173.848 67.7308 173.98C67.4226 174.113 67.0464 174.179 66.6023 174.179ZM66.7812 173.125C67.2453 173.125 67.6364 173.034 67.9545 172.852C68.276 172.669 68.518 172.434 68.6804 172.146C68.8461 171.857 68.929 171.554 68.929 171.236V170.162C68.8793 170.222 68.7699 170.276 68.6009 170.326C68.4351 170.372 68.2429 170.414 68.0241 170.45C67.8087 170.483 67.5982 170.513 67.3928 170.54C67.1906 170.563 67.0265 170.583 66.9006 170.599C66.5956 170.639 66.3106 170.704 66.0455 170.793C65.7836 170.879 65.5715 171.01 65.4091 171.186C65.25 171.358 65.1705 171.594 65.1705 171.892C65.1705 172.3 65.3213 172.608 65.6229 172.817C65.9278 173.022 66.3139 173.125 66.7812 173.125ZM73.4171 163.818V174H72.2438V163.818H73.4171ZM76.7393 163.818V174H75.5661V163.818H76.7393ZM35.3453 191V180.818H41.4504V181.912H36.5782V185.352H40.993V186.446H36.5782V191H35.3453ZM43.403 191V183.364H44.5763V191H43.403ZM43.9996 182.091C43.7709 182.091 43.5737 182.013 43.4079 181.857C43.2455 181.701 43.1643 181.514 43.1643 181.295C43.1643 181.077 43.2455 180.889 43.4079 180.734C43.5737 180.578 43.7709 180.5 43.9996 180.5C44.2282 180.5 44.4238 180.578 44.5862 180.734C44.7519 180.889 44.8348 181.077 44.8348 181.295C44.8348 181.514 44.7519 181.701 44.5862 181.857C44.4238 182.013 44.2282 182.091 43.9996 182.091ZM47.8985 186.406V191H46.7252V183.364H47.8588V184.557H47.9582C48.1372 184.169 48.4089 183.857 48.7735 183.622C49.1381 183.384 49.6088 183.264 50.1855 183.264C50.7025 183.264 51.1549 183.37 51.5427 183.582C51.9305 183.791 52.2321 184.109 52.4475 184.537C52.663 184.961 52.7707 185.498 52.7707 186.148V191H51.5974V186.227C51.5974 185.627 51.4416 185.16 51.1301 184.825C50.8185 184.487 50.391 184.318 49.8474 184.318C49.4729 184.318 49.1381 184.399 48.8431 184.562C48.5515 184.724 48.3211 184.961 48.1521 185.273C47.983 185.584 47.8985 185.962 47.8985 186.406ZM57.1618 191.179C56.6779 191.179 56.2388 191.088 55.8444 190.906C55.45 190.72 55.1367 190.453 54.9047 190.105C54.6727 189.754 54.5567 189.33 54.5567 188.832C54.5567 188.395 54.6429 188.04 54.8153 187.768C54.9876 187.493 55.218 187.278 55.5063 187.122C55.7947 186.966 56.1128 186.85 56.4608 186.774C56.8122 186.695 57.1652 186.632 57.5198 186.585C57.9838 186.526 58.36 186.481 58.6483 186.451C58.94 186.418 59.1521 186.363 59.2847 186.287C59.4206 186.211 59.4885 186.078 59.4885 185.889V185.849C59.4885 185.359 59.3543 184.978 59.0858 184.706C58.8207 184.434 58.418 184.298 57.8778 184.298C57.3176 184.298 56.8785 184.421 56.5603 184.666C56.2421 184.911 56.0184 185.173 55.8891 185.452L54.7755 185.054C54.9743 184.59 55.2395 184.229 55.5709 183.97C55.9057 183.708 56.2703 183.526 56.6647 183.423C57.0624 183.317 57.4535 183.264 57.838 183.264C58.0832 183.264 58.365 183.294 58.6831 183.354C59.0046 183.41 59.3145 183.528 59.6128 183.707C59.9144 183.886 60.1647 184.156 60.3635 184.517C60.5624 184.878 60.6618 185.362 60.6618 185.969V191H59.4885V189.966H59.4289C59.3493 190.132 59.2168 190.309 59.0312 190.498C58.8456 190.687 58.5986 190.848 58.2904 190.98C57.9822 191.113 57.606 191.179 57.1618 191.179ZM57.3408 190.125C57.8048 190.125 58.1959 190.034 58.5141 189.852C58.8356 189.669 59.0776 189.434 59.24 189.146C59.4057 188.857 59.4885 188.554 59.4885 188.236V187.162C59.4388 187.222 59.3295 187.276 59.1604 187.326C58.9947 187.372 58.8025 187.414 58.5837 187.45C58.3683 187.483 58.1578 187.513 57.9523 187.54C57.7501 187.563 57.5861 187.583 57.4601 187.599C57.1552 187.639 56.8702 187.704 56.605 187.793C56.3432 187.879 56.1311 188.01 55.9687 188.186C55.8096 188.358 55.73 188.594 55.73 188.892C55.73 189.3 55.8808 189.608 56.1824 189.817C56.4874 190.022 56.8735 190.125 57.3408 190.125ZM63.9767 186.406V191H62.8034V183.364H63.9369V184.557H64.0363C64.2153 184.169 64.4871 183.857 64.8517 183.622C65.2162 183.384 65.6869 183.264 66.2636 183.264C66.7806 183.264 67.233 183.37 67.6208 183.582C68.0086 183.791 68.3102 184.109 68.5257 184.537C68.7411 184.961 68.8488 185.498 68.8488 186.148V191H67.6755V186.227C67.6755 185.627 67.5197 185.16 67.2082 184.825C66.8966 184.487 66.4691 184.318 65.9255 184.318C65.551 184.318 65.2162 184.399 64.9213 184.562C64.6296 184.724 64.3992 184.961 64.2302 185.273C64.0612 185.584 63.9767 185.962 63.9767 186.406ZM74.0951 191.159C73.3792 191.159 72.7627 190.99 72.2456 190.652C71.7286 190.314 71.3309 189.848 71.0525 189.255C70.7741 188.662 70.6349 187.984 70.6349 187.222C70.6349 186.446 70.7774 185.762 71.0624 185.168C71.3508 184.572 71.7518 184.106 72.2655 183.771C72.7826 183.433 73.3858 183.264 74.0752 183.264C74.6121 183.264 75.096 183.364 75.5269 183.562C75.9578 183.761 76.3108 184.04 76.5858 184.398C76.8609 184.756 77.0316 185.173 77.0979 185.651H75.9246C75.8351 185.303 75.6363 184.994 75.328 184.726C75.0231 184.454 74.6121 184.318 74.0951 184.318C73.6377 184.318 73.2367 184.437 72.892 184.676C72.5506 184.911 72.2838 185.245 72.0915 185.675C71.9026 186.103 71.8081 186.605 71.8081 187.182C71.8081 187.772 71.901 188.286 72.0866 188.723C72.2755 189.161 72.5406 189.5 72.882 189.742C73.2267 189.984 73.6311 190.105 74.0951 190.105C74.4 190.105 74.6768 190.052 74.9253 189.946C75.1739 189.84 75.3844 189.688 75.5567 189.489C75.7291 189.29 75.8517 189.051 75.9246 188.773H77.0979C77.0316 189.223 76.8676 189.629 76.6057 189.991C76.3472 190.349 76.0042 190.634 75.5766 190.846C75.1524 191.055 74.6585 191.159 74.0951 191.159ZM82.0148 191.159C81.279 191.159 80.6443 190.997 80.1107 190.672C79.5804 190.344 79.1711 189.886 78.8827 189.3C78.5977 188.71 78.4552 188.024 78.4552 187.241C78.4552 186.459 78.5977 185.77 78.8827 185.173C79.1711 184.573 79.5721 184.106 80.0858 183.771C80.6029 183.433 81.2061 183.264 81.8955 183.264C82.2932 183.264 82.686 183.33 83.0738 183.463C83.4616 183.596 83.8145 183.811 84.1327 184.109C84.4509 184.404 84.7045 184.795 84.8934 185.283C85.0823 185.77 85.1768 186.37 85.1768 187.082V187.58H79.2904V186.565H83.9836C83.9836 186.134 83.8974 185.75 83.7251 185.412C83.556 185.074 83.3141 184.807 82.9992 184.612C82.6876 184.416 82.3198 184.318 81.8955 184.318C81.4282 184.318 81.0238 184.434 80.6824 184.666C80.3444 184.895 80.0842 185.193 79.9019 185.561C79.7196 185.929 79.6285 186.323 79.6285 186.744V187.42C79.6285 187.997 79.7279 188.486 79.9268 188.887C80.1289 189.285 80.409 189.588 80.767 189.797C81.1249 190.002 81.5409 190.105 82.0148 190.105C82.3231 190.105 82.6015 190.062 82.8501 189.976C83.1019 189.886 83.319 189.754 83.5013 189.578C83.6836 189.399 83.8245 189.177 83.9239 188.912L85.0574 189.23C84.9381 189.615 84.7376 189.953 84.4559 190.244C84.1742 190.533 83.8261 190.758 83.4118 190.92C82.9975 191.08 82.5319 191.159 82.0148 191.159Z" fill="black"/>
</g>
<g filter="url(#filter7_dd_488_1201)">
<path fill-rule="evenodd" clip-rule="evenodd" d="M177.406 154V143.818H176.173L173.627 145.509V146.761L176.113 145.111H176.173V154H177.406ZM182.462 153.901C182.879 154.053 183.297 154.133 183.715 154.139C184.401 154.146 184.997 153.997 185.504 153.692C186.015 153.384 186.411 152.969 186.693 152.449C186.974 151.925 187.115 151.348 187.115 150.719C187.115 150.062 186.969 149.481 186.678 148.974C186.386 148.463 185.998 148.064 185.514 147.776C185.03 147.484 184.497 147.338 183.913 147.338C183.565 147.338 183.236 147.393 182.924 147.502C182.613 147.611 182.327 147.767 182.069 147.969C181.814 148.168 181.593 148.409 181.408 148.69H181.328C181.332 147.451 181.559 146.488 182.009 145.802C182.463 145.116 183.085 144.773 183.874 144.773C184.411 144.773 184.841 144.924 185.166 145.225C185.491 145.527 185.71 145.906 185.823 146.364H187.036C186.953 145.837 186.77 145.371 186.489 144.967C186.207 144.562 185.842 144.247 185.395 144.022C184.951 143.793 184.444 143.679 183.874 143.679C183.3 143.679 182.785 143.803 182.327 144.052C181.873 144.3 181.486 144.665 181.164 145.146C180.843 145.623 180.597 146.211 180.428 146.91C180.259 147.607 180.175 148.405 180.175 149.307C180.175 150.248 180.279 151.03 180.488 151.653C180.697 152.273 180.974 152.765 181.318 153.13C181.663 153.491 182.044 153.748 182.462 153.901ZM184.838 152.732C184.507 152.941 184.132 153.045 183.715 153.045C183.29 153.045 182.911 152.938 182.576 152.722C182.245 152.507 181.983 152.223 181.791 151.872C181.602 151.521 181.507 151.143 181.507 150.739C181.507 150.434 181.565 150.144 181.681 149.869C181.797 149.59 181.956 149.343 182.158 149.128C182.364 148.912 182.603 148.743 182.874 148.621C183.146 148.495 183.439 148.432 183.754 148.432C184.172 148.432 184.543 148.535 184.868 148.74C185.196 148.946 185.453 149.222 185.639 149.57C185.827 149.915 185.922 150.298 185.922 150.719C185.922 151.15 185.824 151.541 185.629 151.892C185.436 152.243 185.173 152.523 184.838 152.732ZM170.283 182V171.818H169.07V179.832H168.97L163.402 171.818H162.209V182H163.442V174.006H163.541L169.09 182H170.283ZM172.75 171.818V182H176.429C177.231 182 177.882 181.881 178.383 181.642C178.883 181.403 179.25 181.08 179.482 180.673C179.714 180.265 179.83 179.806 179.83 179.295C179.83 178.758 179.724 178.304 179.511 177.933C179.299 177.562 179.036 177.277 178.721 177.078C178.406 176.879 178.093 176.77 177.781 176.75V176.651C178.073 176.571 178.343 176.448 178.592 176.283C178.844 176.117 179.046 175.892 179.198 175.607C179.354 175.321 179.432 174.96 179.432 174.523C179.432 174.026 179.319 173.573 179.094 173.165C178.868 172.754 178.525 172.428 178.065 172.186C177.604 171.941 177.019 171.818 176.31 171.818H172.75ZM176.429 180.906H173.983V177.366H176.489C176.933 177.366 177.317 177.456 177.642 177.635C177.967 177.811 178.217 178.046 178.393 178.341C178.568 178.633 178.656 178.951 178.656 179.295C178.656 179.743 178.486 180.124 178.144 180.439C177.806 180.75 177.234 180.906 176.429 180.906ZM176.27 176.293H173.983V172.912H176.31C176.986 172.912 177.48 173.069 177.791 173.384C178.103 173.696 178.259 174.075 178.259 174.523C178.259 174.881 178.169 175.192 177.99 175.457C177.814 175.723 177.576 175.928 177.274 176.074C176.976 176.22 176.641 176.293 176.27 176.293ZM181.856 171.818V182H183.088V177.446H187.503V176.352H183.088V172.912H187.961V171.818H181.856ZM197.033 175H198.265C198.173 174.476 198.004 174.011 197.758 173.603C197.513 173.192 197.208 172.844 196.844 172.559C196.479 172.271 196.07 172.052 195.616 171.903C195.165 171.754 194.683 171.679 194.169 171.679C193.301 171.679 192.528 171.891 191.852 172.315C191.176 172.74 190.644 173.343 190.256 174.125C189.868 174.907 189.675 175.835 189.675 176.909C189.675 177.983 189.868 178.911 190.256 179.693C190.644 180.475 191.176 181.079 191.852 181.503C192.528 181.927 193.301 182.139 194.169 182.139C194.683 182.139 195.165 182.065 195.616 181.915C196.07 181.766 196.479 181.549 196.844 181.264C197.208 180.976 197.513 180.626 197.758 180.215C198.004 179.804 198.173 179.339 198.265 178.818H197.033C196.96 179.169 196.832 179.481 196.65 179.753C196.471 180.021 196.252 180.248 195.993 180.434C195.738 180.616 195.455 180.754 195.143 180.847C194.832 180.939 194.507 180.986 194.169 180.986C193.552 180.986 192.994 180.83 192.493 180.518C191.996 180.207 191.6 179.748 191.305 179.141C191.014 178.535 190.868 177.791 190.868 176.909C190.868 176.027 191.014 175.283 191.305 174.677C191.6 174.07 191.996 173.611 192.493 173.3C192.994 172.988 193.552 172.832 194.169 172.832C194.507 172.832 194.832 172.879 195.143 172.972C195.455 173.064 195.738 173.204 195.993 173.389C196.252 173.571 196.471 173.797 196.65 174.065C196.832 174.334 196.96 174.645 197.033 175Z" fill="black"/>
</g>
<path d="M41.1691 16.1392C40.5128 16.1392 39.9278 16.0265 39.4141 15.8011C38.9037 15.5758 38.4977 15.2625 38.196 14.8615C37.8977 14.4571 37.7353 13.9882 37.7088 13.4545H38.9617C38.9882 13.7827 39.1009 14.0661 39.2997 14.3047C39.4986 14.54 39.7588 14.7223 40.0803 14.8516C40.4018 14.9808 40.7581 15.0455 41.1492 15.0455C41.5867 15.0455 41.9745 14.9692 42.3125 14.8168C42.6506 14.6643 42.9157 14.4522 43.108 14.1804C43.3002 13.9086 43.3963 13.5938 43.3963 13.2358C43.3963 12.8613 43.3035 12.5315 43.1179 12.2464C42.9323 11.9581 42.6605 11.7327 42.3026 11.5703C41.9446 11.4079 41.5071 11.3267 40.9901 11.3267H40.1747V10.233H40.9901C41.3944 10.233 41.7491 10.16 42.054 10.0142C42.3622 9.86837 42.6025 9.66288 42.7749 9.39773C42.9505 9.13258 43.0384 8.82102 43.0384 8.46307C43.0384 8.11837 42.9621 7.81842 42.8097 7.56321C42.6572 7.308 42.4418 7.10914 42.1634 6.96662C41.8883 6.8241 41.5635 6.75284 41.1889 6.75284C40.8376 6.75284 40.5062 6.81747 40.1946 6.94673C39.8864 7.07268 39.6345 7.25663 39.4389 7.49858C39.2434 7.73722 39.1373 8.02557 39.1208 8.36364H37.9276C37.9475 7.83002 38.1082 7.36269 38.4098 6.96165C38.7114 6.55729 39.1058 6.24242 39.5931 6.01705C40.0836 5.79167 40.6222 5.67898 41.2088 5.67898C41.8386 5.67898 42.3788 5.80658 42.8296 6.06179C43.2803 6.31368 43.6267 6.64678 43.8686 7.06108C44.1106 7.47538 44.2316 7.92282 44.2316 8.40341C44.2316 8.9768 44.0807 9.46567 43.7791 9.87003C43.4808 10.2744 43.0748 10.5545 42.5611 10.7102V10.7898C43.2041 10.8958 43.7062 11.1693 44.0675 11.6101C44.4288 12.0476 44.6094 12.5895 44.6094 13.2358C44.6094 13.7893 44.4586 14.2865 44.157 14.7273C43.8587 15.1648 43.451 15.5095 42.934 15.7614C42.4169 16.0133 41.8286 16.1392 41.1691 16.1392ZM49.9886 16.1392C49.2395 16.1392 48.6015 15.9354 48.0745 15.5277C47.5475 15.1167 47.1448 14.5218 46.8664 13.7429C46.588 12.9607 46.4488 12.0161 46.4488 10.9091C46.4488 9.80871 46.588 8.86908 46.8664 8.0902C47.1481 7.308 47.5525 6.71141 48.0795 6.30043C48.6098 5.88613 49.2461 5.67898 49.9886 5.67898C50.731 5.67898 51.3657 5.88613 51.8927 6.30043C52.423 6.71141 52.8273 7.308 53.1058 8.0902C53.3875 8.86908 53.5283 9.80871 53.5283 10.9091C53.5283 12.0161 53.3891 12.9607 53.1107 13.7429C52.8323 14.5218 52.4296 15.1167 51.9026 15.5277C51.3756 15.9354 50.7376 16.1392 49.9886 16.1392ZM49.9886 15.0455C50.731 15.0455 51.3077 14.6875 51.7187 13.9716C52.1297 13.2557 52.3352 12.2348 52.3352 10.9091C52.3352 10.0275 52.2407 9.27675 52.0518 8.65696C51.8662 8.03717 51.5977 7.56487 51.2464 7.24006C50.8984 6.91525 50.4791 6.75284 49.9886 6.75284C49.2528 6.75284 48.6777 7.11577 48.2634 7.84162C47.8491 8.56416 47.642 9.58665 47.642 10.9091C47.642 11.7907 47.7348 12.5398 47.9204 13.1562C48.106 13.7727 48.3728 14.2417 48.7208 14.5632C49.0721 14.8847 49.4947 15.0455 49.9886 15.0455ZM58.4452 14.2102V7.64773H59.5588V14.2102H58.4452ZM55.7207 11.4858V10.3722H62.2832V11.4858H55.7207ZM68.8369 16V5.81818H74.942V6.91193H70.0698V10.3523H74.4846V11.446H70.0698V16H68.8369ZM76.9193 16V8.36364H78.0926V16H76.9193ZM77.5159 7.09091C77.2872 7.09091 77.09 7.01302 76.9243 6.85724C76.7619 6.70147 76.6807 6.5142 76.6807 6.29545C76.6807 6.0767 76.7619 5.88944 76.9243 5.73366C77.09 5.57789 77.2872 5.5 77.5159 5.5C77.7446 5.5 77.9402 5.57789 78.1026 5.73366C78.2683 5.88944 78.3511 6.0767 78.3511 6.29545C78.3511 6.5142 78.2683 6.70147 78.1026 6.85724C77.9402 7.01302 77.7446 7.09091 77.5159 7.09091ZM81.4397 11.4062V16H80.2664V8.36364H81.3999V9.55682H81.4993C81.6783 9.16903 81.9501 8.85748 82.3147 8.62216C82.6792 8.38352 83.1499 8.2642 83.7266 8.2642C84.2436 8.2642 84.6961 8.37027 85.0838 8.58239C85.4716 8.79119 85.7732 9.10938 85.9887 9.53693C86.2041 9.96117 86.3118 10.4981 86.3118 11.1477V16H85.1385V11.2273C85.1385 10.6274 84.9828 10.16 84.6712 9.82528C84.3596 9.48722 83.9321 9.31818 83.3885 9.31818C83.014 9.31818 82.6792 9.39938 82.3843 9.56179C82.0926 9.72419 81.8622 9.96117 81.6932 10.2727C81.5242 10.5843 81.4397 10.9621 81.4397 11.4062ZM90.7277 16.179C90.2438 16.179 89.8047 16.0878 89.4103 15.9055C89.0159 15.7199 88.7027 15.4531 88.4706 15.1051C88.2386 14.7538 88.1226 14.3295 88.1226 13.8324C88.1226 13.3949 88.2088 13.0402 88.3812 12.7685C88.5535 12.4934 88.7839 12.2779 89.0722 12.1222C89.3606 11.9664 89.6787 11.8504 90.0268 11.7741C90.3781 11.6946 90.7311 11.6316 91.0857 11.5852C91.5497 11.5256 91.9259 11.4808 92.2143 11.451C92.5059 11.4179 92.718 11.3632 92.8506 11.2869C92.9865 11.2107 93.0545 11.0781 93.0545 10.8892V10.8494C93.0545 10.3589 92.9202 9.97775 92.6518 9.70597C92.3866 9.43419 91.9839 9.2983 91.4437 9.2983C90.8835 9.2983 90.4444 9.42093 90.1262 9.66619C89.808 9.91146 89.5843 10.1733 89.455 10.4517L88.3414 10.054C88.5402 9.58996 88.8054 9.22869 89.1368 8.97017C89.4716 8.70833 89.8362 8.52604 90.2306 8.4233C90.6283 8.31723 91.0194 8.2642 91.4039 8.2642C91.6491 8.2642 91.9309 8.29403 92.2491 8.35369C92.5705 8.41004 92.8804 8.5277 93.1787 8.70668C93.4804 8.88565 93.7306 9.15578 93.9295 9.51705C94.1283 9.87831 94.2277 10.3622 94.2277 10.9688V16H93.0545V14.9659H92.9948C92.9152 15.1316 92.7827 15.3089 92.5971 15.4979C92.4115 15.6868 92.1645 15.8475 91.8563 15.9801C91.5481 16.1127 91.1719 16.179 90.7277 16.179ZM90.9067 15.125C91.3707 15.125 91.7618 15.0339 92.08 14.8516C92.4015 14.6693 92.6435 14.4339 92.8059 14.1456C92.9716 13.8572 93.0545 13.554 93.0545 13.2358V12.1619C93.0047 12.2216 92.8954 12.2763 92.7263 12.326C92.5606 12.3724 92.3684 12.4138 92.1496 12.4503C91.9342 12.4834 91.7237 12.5133 91.5182 12.5398C91.3161 12.563 91.152 12.5829 91.026 12.5994C90.7211 12.6392 90.4361 12.7038 90.1709 12.7933C89.9091 12.8795 89.697 13.0104 89.5346 13.1861C89.3755 13.3584 89.2959 13.5937 89.2959 13.892C89.2959 14.2997 89.4467 14.608 89.7483 14.8168C90.0533 15.0223 90.4394 15.125 90.9067 15.125ZM97.5673 11.4062V16H96.394V8.36364H97.5276V9.55682H97.627C97.806 9.16903 98.0778 8.85748 98.4423 8.62216C98.8069 8.38352 99.2776 8.2642 99.8543 8.2642C100.371 8.2642 100.824 8.37027 101.212 8.58239C101.599 8.79119 101.901 9.10938 102.116 9.53693C102.332 9.96117 102.439 10.4981 102.439 11.1477V16H101.266V11.2273C101.266 10.6274 101.11 10.16 100.799 9.82528C100.487 9.48722 100.06 9.31818 99.5162 9.31818C99.1417 9.31818 98.8069 9.39938 98.5119 9.56179C98.2203 9.72419 97.9899 9.96117 97.8209 10.2727C97.6519 10.5843 97.5673 10.9621 97.5673 11.4062ZM107.711 16.1591C106.995 16.1591 106.378 15.9901 105.861 15.652C105.344 15.3139 104.946 14.8482 104.668 14.255C104.39 13.6617 104.25 12.9839 104.25 12.2216C104.25 11.446 104.393 10.7616 104.678 10.1683C104.966 9.57173 105.367 9.10606 105.881 8.77131C106.398 8.43324 107.001 8.2642 107.691 8.2642C108.228 8.2642 108.711 8.36364 109.142 8.5625C109.573 8.76136 109.926 9.03977 110.201 9.39773C110.476 9.75568 110.647 10.1733 110.713 10.6506H109.54C109.451 10.3026 109.252 9.99432 108.943 9.72585C108.639 9.45407 108.228 9.31818 107.711 9.31818C107.253 9.31818 106.852 9.4375 106.507 9.67614C106.166 9.91146 105.899 10.2446 105.707 10.6754C105.518 11.103 105.424 11.6051 105.424 12.1818C105.424 12.7718 105.516 13.2855 105.702 13.723C105.891 14.1605 106.156 14.5002 106.497 14.7422C106.842 14.9841 107.247 15.1051 107.711 15.1051C108.015 15.1051 108.292 15.0521 108.541 14.946C108.789 14.84 109 14.6875 109.172 14.4886C109.345 14.2898 109.467 14.0511 109.54 13.7727H110.713C110.647 14.2235 110.483 14.6295 110.221 14.9908C109.963 15.3487 109.62 15.6338 109.192 15.8459C108.768 16.0547 108.274 16.1591 107.711 16.1591ZM112.453 16V8.36364H113.627V16H112.453ZM113.05 7.09091C112.821 7.09091 112.624 7.01302 112.458 6.85724C112.296 6.70147 112.215 6.5142 112.215 6.29545C112.215 6.0767 112.296 5.88944 112.458 5.73366C112.624 5.57789 112.821 5.5 113.05 5.5C113.279 5.5 113.474 5.57789 113.637 5.73366C113.802 5.88944 113.885 6.0767 113.885 6.29545C113.885 6.5142 113.802 6.70147 113.637 6.85724C113.474 7.01302 113.279 7.09091 113.05 7.09091ZM118.048 16.179C117.564 16.179 117.124 16.0878 116.73 15.9055C116.336 15.7199 116.022 15.4531 115.79 15.1051C115.558 14.7538 115.442 14.3295 115.442 13.8324C115.442 13.3949 115.529 13.0402 115.701 12.7685C115.873 12.4934 116.104 12.2779 116.392 12.1222C116.68 11.9664 116.999 11.8504 117.347 11.7741C117.698 11.6946 118.051 11.6316 118.405 11.5852C118.87 11.5256 119.246 11.4808 119.534 11.451C119.826 11.4179 120.038 11.3632 120.17 11.2869C120.306 11.2107 120.374 11.0781 120.374 10.8892V10.8494C120.374 10.3589 120.24 9.97775 119.972 9.70597C119.706 9.43419 119.304 9.2983 118.763 9.2983C118.203 9.2983 117.764 9.42093 117.446 9.66619C117.128 9.91146 116.904 10.1733 116.775 10.4517L115.661 10.054C115.86 9.58996 116.125 9.22869 116.457 8.97017C116.791 8.70833 117.156 8.52604 117.55 8.4233C117.948 8.31723 118.339 8.2642 118.724 8.2642C118.969 8.2642 119.251 8.29403 119.569 8.35369C119.89 8.41004 120.2 8.5277 120.499 8.70668C120.8 8.88565 121.05 9.15578 121.249 9.51705C121.448 9.87831 121.548 10.3622 121.548 10.9688V16H120.374V14.9659H120.315C120.235 15.1316 120.102 15.3089 119.917 15.4979C119.731 15.6868 119.484 15.8475 119.176 15.9801C118.868 16.1127 118.492 16.179 118.048 16.179ZM118.227 15.125C118.691 15.125 119.082 15.0339 119.4 14.8516C119.721 14.6693 119.963 14.4339 120.126 14.1456C120.291 13.8572 120.374 13.554 120.374 13.2358V12.1619C120.325 12.2216 120.215 12.2763 120.046 12.326C119.88 12.3724 119.688 12.4138 119.469 12.4503C119.254 12.4834 119.044 12.5133 118.838 12.5398C118.636 12.563 118.472 12.5829 118.346 12.5994C118.041 12.6392 117.756 12.7038 117.491 12.7933C117.229 12.8795 117.017 13.0104 116.854 13.1861C116.695 13.3584 116.616 13.5937 116.616 13.892C116.616 14.2997 116.767 14.608 117.068 14.8168C117.373 15.0223 117.759 15.125 118.227 15.125ZM124.887 5.81818V16H123.714V5.81818H124.887ZM132.415 5.81818V16H131.182V5.81818H132.415ZM135.926 11.4062V16H134.753V8.36364H135.886V9.55682H135.986C136.165 9.16903 136.437 8.85748 136.801 8.62216C137.166 8.38352 137.636 8.2642 138.213 8.2642C138.73 8.2642 139.183 8.37027 139.57 8.58239C139.958 8.79119 140.26 9.10938 140.475 9.53693C140.691 9.96117 140.798 10.4981 140.798 11.1477V16H139.625V11.2273C139.625 10.6274 139.469 10.16 139.158 9.82528C138.846 9.48722 138.419 9.31818 137.875 9.31818C137.501 9.31818 137.166 9.39938 136.871 9.56179C136.579 9.72419 136.349 9.96117 136.18 10.2727C136.011 10.5843 135.926 10.9621 135.926 11.4062ZM148.376 10.0739L147.322 10.3722C147.256 10.1965 147.158 10.0258 147.029 9.86009C146.903 9.69105 146.731 9.55185 146.512 9.44247C146.293 9.3331 146.013 9.27841 145.672 9.27841C145.204 9.27841 144.815 9.38613 144.503 9.60156C144.195 9.81368 144.041 10.0838 144.041 10.4119C144.041 10.7036 144.147 10.9339 144.359 11.103C144.571 11.272 144.903 11.4129 145.354 11.5256L146.487 11.804C147.17 11.9697 147.679 12.2232 148.013 12.5646C148.348 12.9027 148.516 13.3385 148.516 13.8722C148.516 14.3097 148.39 14.7008 148.138 15.0455C147.889 15.3902 147.541 15.6619 147.094 15.8608C146.646 16.0597 146.126 16.1591 145.533 16.1591C144.754 16.1591 144.109 15.9901 143.599 15.652C143.088 15.3139 142.765 14.8201 142.629 14.1705L143.743 13.892C143.849 14.303 144.049 14.6113 144.344 14.8168C144.643 15.0223 145.032 15.125 145.513 15.125C146.06 15.125 146.494 15.009 146.815 14.777C147.14 14.5417 147.302 14.2599 147.302 13.9318C147.302 13.6667 147.21 13.4446 147.024 13.2656C146.838 13.0833 146.553 12.9474 146.169 12.858L144.896 12.5597C144.197 12.3939 143.683 12.1371 143.355 11.7891C143.03 11.4377 142.868 10.9986 142.868 10.4716C142.868 10.0407 142.989 9.65956 143.231 9.32812C143.476 8.99669 143.809 8.73651 144.23 8.54758C144.654 8.35866 145.135 8.2642 145.672 8.2642C146.427 8.2642 147.021 8.42992 147.452 8.76136C147.886 9.0928 148.194 9.5303 148.376 10.0739ZM153.627 8.36364V9.35795H149.67V8.36364H153.627ZM150.823 6.53409H151.997V13.8125C151.997 14.1439 152.045 14.3925 152.141 14.5582C152.24 14.7206 152.366 14.83 152.519 14.8864C152.675 14.9394 152.839 14.9659 153.011 14.9659C153.14 14.9659 153.246 14.9593 153.329 14.946C153.412 14.9295 153.478 14.9162 153.528 14.9062L153.767 15.9602C153.687 15.9901 153.576 16.0199 153.434 16.0497C153.291 16.0829 153.11 16.0994 152.892 16.0994C152.56 16.0994 152.235 16.0282 151.917 15.8857C151.602 15.7431 151.341 15.526 151.132 15.2344C150.926 14.9427 150.823 14.5748 150.823 14.1307V6.53409ZM155.417 16V8.36364H156.59V16H155.417ZM156.014 7.09091C155.785 7.09091 155.588 7.01302 155.422 6.85724C155.26 6.70147 155.179 6.5142 155.179 6.29545C155.179 6.0767 155.26 5.88944 155.422 5.73366C155.588 5.57789 155.785 5.5 156.014 5.5C156.242 5.5 156.438 5.57789 156.6 5.73366C156.766 5.88944 156.849 6.0767 156.849 6.29545C156.849 6.5142 156.766 6.70147 156.6 6.85724C156.438 7.01302 156.242 7.09091 156.014 7.09091ZM162.085 8.36364V9.35795H158.128V8.36364H162.085ZM159.281 6.53409H160.455V13.8125C160.455 14.1439 160.503 14.3925 160.599 14.5582C160.698 14.7206 160.824 14.83 160.977 14.8864C161.132 14.9394 161.296 14.9659 161.469 14.9659C161.598 14.9659 161.704 14.9593 161.787 14.946C161.87 14.9295 161.936 14.9162 161.986 14.9062L162.224 15.9602C162.145 15.9901 162.034 16.0199 161.891 16.0497C161.749 16.0829 161.568 16.0994 161.349 16.0994C161.018 16.0994 160.693 16.0282 160.375 15.8857C160.06 15.7431 159.798 15.526 159.589 15.2344C159.384 14.9427 159.281 14.5748 159.281 14.1307V6.53409ZM168.687 12.8778V8.36364H169.861V16H168.687V14.7074H168.608C168.429 15.0952 168.15 15.425 167.773 15.6967C167.395 15.9652 166.918 16.0994 166.341 16.0994C165.864 16.0994 165.439 15.995 165.068 15.7862C164.697 15.5741 164.405 15.2559 164.193 14.8317C163.981 14.4041 163.875 13.8655 163.875 13.2159V8.36364H165.048V13.1364C165.048 13.6932 165.204 14.1373 165.516 14.4688C165.83 14.8002 166.231 14.9659 166.719 14.9659C167.01 14.9659 167.307 14.8913 167.609 14.7422C167.913 14.593 168.169 14.3643 168.374 14.0561C168.583 13.7479 168.687 13.3551 168.687 12.8778ZM175.355 8.36364V9.35795H171.398V8.36364H175.355ZM172.551 6.53409H173.725V13.8125C173.725 14.1439 173.773 14.3925 173.869 14.5582C173.968 14.7206 174.094 14.83 174.247 14.8864C174.403 14.9394 174.567 14.9659 174.739 14.9659C174.868 14.9659 174.974 14.9593 175.057 14.946C175.14 14.9295 175.206 14.9162 175.256 14.9062L175.495 15.9602C175.415 15.9901 175.304 16.0199 175.162 16.0497C175.019 16.0829 174.838 16.0994 174.62 16.0994C174.288 16.0994 173.963 16.0282 173.645 15.8857C173.33 15.7431 173.069 15.526 172.86 15.2344C172.654 14.9427 172.551 14.5748 172.551 14.1307V6.53409ZM177.145 16V8.36364H178.318V16H177.145ZM177.742 7.09091C177.513 7.09091 177.316 7.01302 177.15 6.85724C176.988 6.70147 176.906 6.5142 176.906 6.29545C176.906 6.0767 176.988 5.88944 177.15 5.73366C177.316 5.57789 177.513 5.5 177.742 5.5C177.97 5.5 178.166 5.57789 178.328 5.73366C178.494 5.88944 178.577 6.0767 178.577 6.29545C178.577 6.5142 178.494 6.70147 178.328 6.85724C178.166 7.01302 177.97 7.09091 177.742 7.09091ZM183.594 16.1591C182.905 16.1591 182.3 15.995 181.78 15.6669C181.263 15.3388 180.858 14.8797 180.567 14.2898C180.278 13.6998 180.134 13.0104 180.134 12.2216C180.134 11.4261 180.278 10.7318 180.567 10.1385C180.858 9.54522 181.263 9.08452 181.78 8.75639C182.3 8.42827 182.905 8.2642 183.594 8.2642C184.284 8.2642 184.887 8.42827 185.404 8.75639C185.924 9.08452 186.329 9.54522 186.617 10.1385C186.909 10.7318 187.055 11.4261 187.055 12.2216C187.055 13.0104 186.909 13.6998 186.617 14.2898C186.329 14.8797 185.924 15.3388 185.404 15.6669C184.887 15.995 184.284 16.1591 183.594 16.1591ZM183.594 15.1051C184.118 15.1051 184.549 14.9709 184.887 14.7024C185.225 14.4339 185.475 14.081 185.638 13.6435C185.8 13.206 185.881 12.732 185.881 12.2216C185.881 11.7112 185.8 11.2356 185.638 10.7947C185.475 10.3539 185.225 9.99763 184.887 9.72585C184.549 9.45407 184.118 9.31818 183.594 9.31818C183.071 9.31818 182.64 9.45407 182.302 9.72585C181.964 9.99763 181.714 10.3539 181.551 10.7947C181.389 11.2356 181.308 11.7112 181.308 12.2216C181.308 12.732 181.389 13.206 181.551 13.6435C181.714 14.081 181.964 14.4339 182.302 14.7024C182.64 14.9709 183.071 15.1051 183.594 15.1051ZM190.044 11.4062V16H188.87V8.36364H190.004V9.55682H190.103C190.282 9.16903 190.554 8.85748 190.919 8.62216C191.283 8.38352 191.754 8.2642 192.331 8.2642C192.848 8.2642 193.3 8.37027 193.688 8.58239C194.076 8.79119 194.377 9.10938 194.593 9.53693C194.808 9.96117 194.916 10.4981 194.916 11.1477V16H193.743V11.2273C193.743 10.6274 193.587 10.16 193.275 9.82528C192.964 9.48722 192.536 9.31818 191.993 9.31818C191.618 9.31818 191.283 9.39938 190.988 9.56179C190.697 9.72419 190.466 9.96117 190.297 10.2727C190.128 10.5843 190.044 10.9621 190.044 11.4062ZM202.494 10.0739L201.44 10.3722C201.373 10.1965 201.276 10.0258 201.146 9.86009C201.021 9.69105 200.848 9.55185 200.629 9.44247C200.411 9.3331 200.131 9.27841 199.789 9.27841C199.322 9.27841 198.932 9.38613 198.621 9.60156C198.313 9.81368 198.159 10.0838 198.159 10.4119C198.159 10.7036 198.265 10.9339 198.477 11.103C198.689 11.272 199.02 11.4129 199.471 11.5256L200.605 11.804C201.287 11.9697 201.796 12.2232 202.131 12.5646C202.466 12.9027 202.633 13.3385 202.633 13.8722C202.633 14.3097 202.507 14.7008 202.255 15.0455C202.007 15.3902 201.659 15.6619 201.211 15.8608C200.764 16.0597 200.243 16.1591 199.65 16.1591C198.871 16.1591 198.226 15.9901 197.716 15.652C197.206 15.3139 196.882 14.8201 196.747 14.1705L197.86 13.892C197.966 14.303 198.167 14.6113 198.462 14.8168C198.76 15.0223 199.15 15.125 199.63 15.125C200.177 15.125 200.611 15.009 200.933 14.777C201.257 14.5417 201.42 14.2599 201.42 13.9318C201.42 13.6667 201.327 13.4446 201.141 13.2656C200.956 13.0833 200.671 12.9474 200.286 12.858L199.014 12.5597C198.314 12.3939 197.801 12.1371 197.472 11.7891C197.148 11.4377 196.985 10.9986 196.985 10.4716C196.985 10.0407 197.106 9.65956 197.348 9.32812C197.593 8.99669 197.927 8.73651 198.347 8.54758C198.772 8.35866 199.252 8.2642 199.789 8.2642C200.545 8.2642 201.138 8.42992 201.569 8.76136C202.003 9.0928 202.311 9.5303 202.494 10.0739Z" fill="#13044F"/>
</g>
<defs>
<filter id="filter0_d_488_1201" x="16" y="30" width="88" height="88" filterUnits="userSpaceOnUse" color-interpolation-filters="sRGB">
<feFlood flood-opacity="0" result="BackgroundImageFix"/>
<feColorMatrix in="SourceAlpha" type="matrix" values="0 0 0 0 0 0 0 0 0 0 0 0 0 0 0 0 0 0 127 0" result="hardAlpha"/>
<feOffset dy="4"/>
<feGaussianBlur stdDeviation="2"/>
<feComposite in2="hardAlpha" operator="out"/>
<feColorMatrix type="matrix" values="0 0 0 0 0 0 0 0 0 0 0 0 0 0 0 0 0 0 0.25 0"/>
<feBlend mode="normal" in2="BackgroundImageFix" result="effect1_dropShadow_488_1201"/>
<feBlend mode="normal" in="SourceGraphic" in2="effect1_dropShadow_488_1201" result="shape"/>
</filter>
<filter id="filter1_d_488_1201" x="16" y="125" width="88" height="88" filterUnits="userSpaceOnUse" color-interpolation-filters="sRGB">
<feFlood flood-opacity="0" result="BackgroundImageFix"/>
<feColorMatrix in="SourceAlpha" type="matrix" values="0 0 0 0 0 0 0 0 0 0 0 0 0 0 0 0 0 0 127 0" result="hardAlpha"/>
<feOffset dy="4"/>
<feGaussianBlur stdDeviation="2"/>
<feComposite in2="hardAlpha" operator="out"/>
<feColorMatrix type="matrix" values="0 0 0 0 0 0 0 0 0 0 0 0 0 0 0 0 0 0 0.25 0"/>
<feBlend mode="normal" in2="BackgroundImageFix" result="effect1_dropShadow_488_1201"/>
<feBlend mode="normal" in="SourceGraphic" in2="effect1_dropShadow_488_1201" result="shape"/>
</filter>
<filter id="filter2_d_488_1201" x="136" y="125" width="88" height="88" filterUnits="userSpaceOnUse" color-interpolation-filters="sRGB">
<feFlood flood-opacity="0" result="BackgroundImageFix"/>
<feColorMatrix in="SourceAlpha" type="matrix" values="0 0 0 0 0 0 0 0 0 0 0 0 0 0 0 0 0 0 127 0" result="hardAlpha"/>
<feOffset dy="4"/>
<feGaussianBlur stdDeviation="2"/>
<feComposite in2="hardAlpha" operator="out"/>
<feColorMatrix type="matrix" values="0 0 0 0 0 0 0 0 0 0 0 0 0 0 0 0 0 0 0.25 0"/>
<feBlend mode="normal" in2="BackgroundImageFix" result="effect1_dropShadow_488_1201"/>
<feBlend mode="normal" in="SourceGraphic" in2="effect1_dropShadow_488_1201" result="shape"/>
</filter>
<filter id="filter3_d_488_1201" x="136" y="30" width="88" height="88" filterUnits="userSpaceOnUse" color-interpolation-filters="sRGB">
<feFlood flood-opacity="0" result="BackgroundImageFix"/>
<feColorMatrix in="SourceAlpha" type="matrix" values="0 0 0 0 0 0 0 0 0 0 0 0 0 0 0 0 0 0 127 0" result="hardAlpha"/>
<feOffset dy="4"/>
<feGaussianBlur stdDeviation="2"/>
<feComposite in2="hardAlpha" operator="out"/>
<feColorMatrix type="matrix" values="0 0 0 0 0 0 0 0 0 0 0 0 0 0 0 0 0 0 0.25 0"/>
<feBlend mode="normal" in2="BackgroundImageFix" result="effect1_dropShadow_488_1201"/>
<feBlend mode="normal" in="SourceGraphic" in2="effect1_dropShadow_488_1201" result="shape"/>
</filter>
<filter id="filter4_dd_488_1201" x="23.8027" y="27.3391" width="76.702" height="88.8953" filterUnits="userSpaceOnUse" color-interpolation-filters="sRGB">
<feFlood flood-opacity="0" result="BackgroundImageFix"/>
<feColorMatrix in="SourceAlpha" type="matrix" values="0 0 0 0 0 0 0 0 0 0 0 0 0 0 0 0 0 0 127 0" result="hardAlpha"/>
<feOffset dx="2.47712" dy="2.47712"/>
<feGaussianBlur stdDeviation="9.2892"/>
<feColorMatrix type="matrix" values="0 0 0 0 0.6512 0 0 0 0 0.66896 0 0 0 0 0.74 0 0 0 0.5 0"/>
<feBlend mode="normal" in2="BackgroundImageFix" result="effect1_dropShadow_488_1201"/>
<feColorMatrix in="SourceAlpha" type="matrix" values="0 0 0 0 0 0 0 0 0 0 0 0 0 0 0 0 0 0 127 0" result="hardAlpha"/>
<feOffset dx="-1.23856" dy="-1.23856"/>
<feGaussianBlur stdDeviation="8.05064"/>
<feColorMatrix type="matrix" values="0 0 0 0 0.979167 0 0 0 0 0.983333 0 0 0 0 1 0 0 0 1 0"/>
<feBlend mode="normal" in2="effect1_dropShadow_488_1201" result="effect2_dropShadow_488_1201"/>
<feBlend mode="normal" in="SourceGraphic" in2="effect2_dropShadow_488_1201" result="shape"/>
</filter>
<filter id="filter5_dd_488_1201" x="140.883" y="27.3391" width="82.4715" height="86.8953" filterUnits="userSpaceOnUse" color-interpolation-filters="sRGB">
<feFlood flood-opacity="0" result="BackgroundImageFix"/>
<feColorMatrix in="SourceAlpha" type="matrix" values="0 0 0 0 0 0 0 0 0 0 0 0 0 0 0 0 0 0 127 0" result="hardAlpha"/>
<feOffset dx="2.47712" dy="2.47712"/>
<feGaussianBlur stdDeviation="9.2892"/>
<feColorMatrix type="matrix" values="0 0 0 0 0.6512 0 0 0 0 0.66896 0 0 0 0 0.74 0 0 0 0.5 0"/>
<feBlend mode="normal" in2="BackgroundImageFix" result="effect1_dropShadow_488_1201"/>
<feColorMatrix in="SourceAlpha" type="matrix" values="0 0 0 0 0 0 0 0 0 0 0 0 0 0 0 0 0 0 127 0" result="hardAlpha"/>
<feOffset dx="-1.23856" dy="-1.23856"/>
<feGaussianBlur stdDeviation="8.05064"/>
<feColorMatrix type="matrix" values="0 0 0 0 0.979167 0 0 0 0 0.983333 0 0 0 0 1 0 0 0 1 0"/>
<feBlend mode="normal" in2="effect1_dropShadow_488_1201" result="effect2_dropShadow_488_1201"/>
<feBlend mode="normal" in="SourceGraphic" in2="effect2_dropShadow_488_1201" result="shape"/>
</filter>
<filter id="filter6_dd_488_1201" x="18.0059" y="126.339" width="88.2254" height="85.8953" filterUnits="userSpaceOnUse" color-interpolation-filters="sRGB">
<feFlood flood-opacity="0" result="BackgroundImageFix"/>
<feColorMatrix in="SourceAlpha" type="matrix" values="0 0 0 0 0 0 0 0 0 0 0 0 0 0 0 0 0 0 127 0" result="hardAlpha"/>
<feOffset dx="2.47712" dy="2.47712"/>
<feGaussianBlur stdDeviation="9.2892"/>
<feColorMatrix type="matrix" values="0 0 0 0 0.6512 0 0 0 0 0.66896 0 0 0 0 0.74 0 0 0 0.5 0"/>
<feBlend mode="normal" in2="BackgroundImageFix" result="effect1_dropShadow_488_1201"/>
<feColorMatrix in="SourceAlpha" type="matrix" values="0 0 0 0 0 0 0 0 0 0 0 0 0 0 0 0 0 0 127 0" result="hardAlpha"/>
<feOffset dx="-1.23856" dy="-1.23856"/>
<feGaussianBlur stdDeviation="8.05064"/>
<feColorMatrix type="matrix" values="0 0 0 0 0.979167 0 0 0 0 0.983333 0 0 0 0 1 0 0 0 1 0"/>
<feBlend mode="normal" in2="effect1_dropShadow_488_1201" result="effect2_dropShadow_488_1201"/>
<feBlend mode="normal" in="SourceGraphic" in2="effect2_dropShadow_488_1201" result="shape"/>
</filter>
<filter id="filter7_dd_488_1201" x="144.869" y="126.339" width="74.452" height="76.8556" filterUnits="userSpaceOnUse" color-interpolation-filters="sRGB">
<feFlood flood-opacity="0" result="BackgroundImageFix"/>
<feColorMatrix in="SourceAlpha" type="matrix" values="0 0 0 0 0 0 0 0 0 0 0 0 0 0 0 0 0 0 127 0" result="hardAlpha"/>
<feOffset dx="2.47712" dy="2.47712"/>
<feGaussianBlur stdDeviation="9.2892"/>
<feColorMatrix type="matrix" values="0 0 0 0 0.6512 0 0 0 0 0.66896 0 0 0 0 0.74 0 0 0 0.5 0"/>
<feBlend mode="normal" in2="BackgroundImageFix" result="effect1_dropShadow_488_1201"/>
<feColorMatrix in="SourceAlpha" type="matrix" values="0 0 0 0 0 0 0 0 0 0 0 0 0 0 0 0 0 0 127 0" result="hardAlpha"/>
<feOffset dx="-1.23856" dy="-1.23856"/>
<feGaussianBlur stdDeviation="8.05064"/>
<feColorMatrix type="matrix" values="0 0 0 0 0.979167 0 0 0 0 0.983333 0 0 0 0 1 0 0 0 1 0"/>
<feBlend mode="normal" in2="effect1_dropShadow_488_1201" result="effect2_dropShadow_488_1201"/>
<feBlend mode="normal" in="SourceGraphic" in2="effect2_dropShadow_488_1201" result="shape"/>
</filter>
<clipPath id="clip0_488_1201">
<rect width="240" height="210" rx="20" fill="white"/>
</clipPath>
</defs>
</svg>
