<?xml version="1.0" encoding="UTF-8"?>
<svg version="1.1" xmlns="http://www.w3.org/2000/svg" width="64" height="64">
<path d="M0 0 C21.12 0 42.24 0 64 0 C64 21.12 64 42.24 64 64 C42.88 64 21.76 64 0 64 C0 42.88 0 21.76 0 0 Z " fill="#F9FBFA" transform="translate(0,0)"/>
<path d="M0 0 C18.15 0 36.3 0 55 0 C55 6.6 55 13.2 55 20 C50.17064507 18.79266127 47.43237993 16.48978798 43.53515625 13.49609375 C40.616195 11.77350182 39.33022784 11.68145647 36 12 C33.97573903 12.97840545 33.97573903 12.97840545 32.13671875 14.45703125 C31.42193359 14.9878833 30.70714844 15.51873535 29.97070312 16.06567383 C29.21724609 16.64212646 28.46378906 17.2185791 27.6875 17.8125 C26.0883513 19.00149667 24.48806598 20.18896598 22.88671875 21.375 C22.0776709 21.97828125 21.26862305 22.5815625 20.43505859 23.203125 C16.6732712 25.97901784 12.84684061 28.65625324 9 31.3125 C7.98619263 32.02273315 7.98619263 32.02273315 6.9519043 32.74731445 C2.23706379 36 2.23706379 36 0 36 C0 24.12 0 12.24 0 0 Z " fill="#0D5589" transform="translate(4,4)"/>
<path d="M0 0 C3.36453716 1.29444788 6.00923205 3.26821366 8.80859375 5.484375 C9.35 5.90074219 9.89140625 6.31710938 10.44921875 6.74609375 C14.27820227 9.70398352 14.27820227 9.70398352 15.55859375 10.984375 C15.55859375 14.284375 15.55859375 17.584375 15.55859375 20.984375 C0.37859375 20.984375 -14.80140625 20.984375 -30.44140625 20.984375 C-30.44140625 20.324375 -30.44140625 19.664375 -30.44140625 18.984375 C-28.05843207 17.18807213 -25.67313608 15.50957869 -23.19140625 13.859375 C-22.10508911 13.12992676 -22.10508911 13.12992676 -20.99682617 12.38574219 C-19.51863741 11.39344181 -18.03905883 10.40320869 -16.55810547 9.41503906 C-14.64328444 8.12082324 -12.75880702 6.79491016 -10.8828125 5.4453125 C-9.85027344 4.71570312 -8.81773438 3.98609375 -7.75390625 3.234375 C-6.84253906 2.57953125 -5.93117188 1.9246875 -4.9921875 1.25 C-2.44140625 -0.015625 -2.44140625 -0.015625 0 0 Z " fill="#73C157" transform="translate(43.44140625,38.015625)"/>
</svg>
