<?xml version="1.0" encoding="UTF-8"?>
<svg version="1.1" xmlns="http://www.w3.org/2000/svg" width="100" height="100">
<path d="M0 0 C3.71487451 0.0970303 7.40913572 0.03929101 11.12330818 -0.05818558 C24.09856744 -0.35081275 37.74785306 -0.47858945 47.8828125 8.78662109 C57.65203205 19.47290215 57.02658453 34.15458096 56.66943359 47.76318359 C56.57240329 51.47805811 56.63014258 55.17231931 56.72761917 58.88649178 C57.02024634 71.86175103 57.14802304 85.51103666 47.8828125 95.64599609 C37.19653145 105.41521564 22.51485263 104.78976812 8.90625 104.43261719 C5.19137549 104.33558688 1.49711428 104.39332618 -2.21705818 104.49080276 C-15.19231744 104.78342993 -28.84160306 104.91120663 -38.9765625 95.64599609 C-48.74578205 84.95971504 -48.12033453 70.27803622 -47.76318359 56.66943359 C-47.66615329 52.95455908 -47.72389258 49.26029787 -47.82136917 45.54612541 C-48.11399634 32.57086615 -48.24177304 18.92158053 -38.9765625 8.78662109 C-28.29028145 -0.98259845 -13.60860263 -0.35715093 0 0 Z " fill="#FBCA1C" transform="translate(45.546875,-2.21630859375)"/>
<path d="M0 0 C2.64 0 5.28 0 8 0 C8 3.63 8 7.26 8 11 C19.55 11 31.1 11 43 11 C43 13.64 43 16.28 43 19 C38.71 19 34.42 19 30 19 C30.12181641 20.39412109 30.12181641 20.39412109 30.24609375 21.81640625 C30.82762876 33.19787707 30.82762876 33.19787707 27.4375 37.375 C22.81948652 41.05998627 17.50555453 40.89089911 11.81640625 41.02734375 C7.22088698 39.79026947 4.75545102 38.27748532 1.55053711 34.78344727 C-1.72130135 28.91000525 -0.8032185 22.01633715 -0.5 15.5 C-0.45981179 13.99488663 -0.42332037 12.48966977 -0.390625 10.984375 C-0.30306702 7.32074315 -0.16537017 3.66104105 0 0 Z " fill="#3C3C3A" transform="translate(35,44)"/>
<path d="M0 0 C2.64 0 5.28 0 8 0 C8 4.95 8 9.9 8 15 C12.62 15 17.24 15 22 15 C22 10.05 22 5.1 22 0 C24.64 0 27.28 0 30 0 C30 11.22 30 22.44 30 34 C27.36 34 24.72 34 22 34 C22 30.37 22 26.74 22 23 C10.45 23 -1.1 23 -13 23 C-13 20.36 -13 17.72 -13 15 C-8.71 15 -4.42 15 0 15 C0 10.05 0 5.1 0 0 Z " fill="#3C3C3A" transform="translate(35,18)"/>
<path d="M0 0 C4.62 0 9.24 0 14 0 C14 4.29 14 8.58 14 13 C9.38 13 4.76 13 0 13 C0 8.71 0 4.42 0 0 Z " fill="#EABD1F" transform="translate(43,63)"/>
<path d="M0 0 C3.63 0 7.26 0 11 0 C11 2.64 11 5.28 11 8 C7.37 8 3.74 8 0 8 C0 5.36 0 2.72 0 0 Z " fill="#403F3A" transform="translate(68,33)"/>
<path d="M0 0 C3.3 0 6.6 0 10 0 C10 2.64 10 5.28 10 8 C6.7 8 3.4 8 0 8 C0 5.36 0 2.72 0 0 Z " fill="#3C3C3B" transform="translate(22,55)"/>
</svg>
