<svg width="240" height="210" viewBox="0 0 240 210" fill="none" xmlns="http://www.w3.org/2000/svg">
<g clip-path="url(#clip0_502_1255)">
<rect width="240" height="210" fill="#1D1D1D"/>
<g filter="url(#filter0_d_502_1255)">
<rect x="140" y="30" width="80" height="80" rx="20" fill="#121212"/>
</g>
<rect x="20" y="30" width="80" height="80" rx="20" fill="#121212"/>
<g filter="url(#filter1_d_502_1255)">
<rect x="20" y="125" width="80" height="80" rx="20" fill="#121212"/>
</g>
<g filter="url(#filter2_d_502_1255)">
<rect x="140" y="125" width="80" height="80" rx="20" fill="#121212"/>
</g>
<path d="M37.246 16.1392C36.5036 16.1392 35.8424 16.0116 35.2623 15.7564C34.6856 15.4979 34.2299 15.1432 33.8952 14.6925C33.5637 14.2384 33.393 13.7147 33.3831 13.1214H35.5507C35.564 13.37 35.6452 13.5888 35.7943 13.7777C35.9468 13.9633 36.1489 14.1075 36.4008 14.2102C36.6527 14.313 36.9361 14.3643 37.251 14.3643C37.5791 14.3643 37.8691 14.3063 38.121 14.1903C38.3729 14.0743 38.5701 13.9136 38.7126 13.7081C38.8551 13.5026 38.9264 13.2656 38.9264 12.9972C38.9264 12.7254 38.8502 12.4851 38.6977 12.2763C38.5486 12.0642 38.3331 11.8984 38.0514 11.7791C37.773 11.6598 37.4416 11.6001 37.0571 11.6001H36.1075V10.0192H37.0571C37.3819 10.0192 37.6686 9.96283 37.9172 9.85014C38.1691 9.73745 38.3646 9.58168 38.5038 9.38281C38.643 9.18063 38.7126 8.94531 38.7126 8.67685C38.7126 8.42164 38.6513 8.19792 38.5287 8.00568C38.4094 7.81013 38.2403 7.65767 38.0216 7.5483C37.8061 7.43892 37.5542 7.38423 37.2659 7.38423C36.9742 7.38423 36.7074 7.43726 36.4655 7.54332C36.2235 7.64607 36.0296 7.79356 35.8838 7.9858C35.738 8.17803 35.6601 8.40341 35.6501 8.66193H33.5869C33.5969 8.07528 33.7642 7.55824 34.089 7.1108C34.4139 6.66335 34.8514 6.31368 35.4015 6.06179C35.955 5.80658 36.5798 5.67898 37.2758 5.67898C37.9785 5.67898 38.5933 5.80658 39.1203 6.06179C39.6473 6.317 40.0566 6.66169 40.3483 7.09588C40.6433 7.52675 40.7891 8.01065 40.7858 8.54758C40.7891 9.11766 40.6118 9.59328 40.2538 9.97443C39.8992 10.3556 39.4368 10.5975 38.8667 10.7003V10.7798C39.6158 10.8759 40.1859 11.1361 40.577 11.5604C40.9714 11.9813 41.1669 12.5083 41.1636 13.1413C41.1669 13.7214 40.9996 14.2367 40.6615 14.6875C40.3267 15.1383 39.8644 15.4929 39.2744 15.7514C38.6845 16.0099 38.0083 16.1392 37.246 16.1392ZM46.7032 16.2237C45.8481 16.2204 45.1123 16.0099 44.4958 15.5923C43.8827 15.1747 43.4104 14.5698 43.0789 13.7777C42.7508 12.9856 42.5884 12.0327 42.5917 10.919C42.5917 9.80871 42.7558 8.86245 43.0839 8.08026C43.4153 7.29806 43.8876 6.70312 44.5008 6.29545C45.1173 5.88447 45.8514 5.67898 46.7032 5.67898C47.555 5.67898 48.2875 5.88447 48.9007 6.29545C49.5171 6.70644 49.9911 7.30303 50.3225 8.08523C50.654 8.86411 50.818 9.80871 50.8147 10.919C50.8147 12.036 50.649 12.9905 50.3176 13.7827C49.9894 14.5748 49.5188 15.1797 48.9056 15.5973C48.2925 16.0149 47.5583 16.2237 46.7032 16.2237ZM46.7032 14.4389C47.2865 14.4389 47.7522 14.1456 48.1002 13.5589C48.4482 12.9723 48.6206 12.0923 48.6173 10.919C48.6173 10.1468 48.5377 9.50379 48.3786 8.99006C48.2229 8.47633 48.0008 8.0902 47.7124 7.83168C47.4274 7.57315 47.091 7.44389 46.7032 7.44389C46.1232 7.44389 45.6592 7.7339 45.3112 8.31392C44.9632 8.89394 44.7875 9.76231 44.7842 10.919C44.7842 11.7012 44.8621 12.3542 45.0178 12.8778C45.1769 13.3982 45.4007 13.7893 45.689 14.0511C45.9774 14.3097 46.3154 14.4389 46.7032 14.4389ZM55.3923 14.4489V7.40909H57.1721V14.4489H55.3923ZM52.7623 11.8189V10.0391H59.8021V11.8189H52.7623ZM65.1652 16V5.81818H71.9067V7.59304H67.3179V10.0192H71.4593V11.794H67.3179V16H65.1652ZM73.3149 16V8.36364H75.4328V16H73.3149ZM74.3788 7.37926C74.064 7.37926 73.7938 7.27486 73.5684 7.06605C73.3464 6.85393 73.2354 6.60038 73.2354 6.3054C73.2354 6.01373 73.3464 5.76349 73.5684 5.55469C73.7938 5.34257 74.064 5.23651 74.3788 5.23651C74.6937 5.23651 74.9622 5.34257 75.1842 5.55469C75.4096 5.76349 75.5223 6.01373 75.5223 6.3054C75.5223 6.60038 75.4096 6.85393 75.1842 7.06605C74.9622 7.27486 74.6937 7.37926 74.3788 7.37926ZM79.2472 11.5852V16H77.1294V8.36364H79.1478V9.71094H79.2373C79.4063 9.26681 79.6897 8.91548 80.0874 8.65696C80.4852 8.39512 80.9674 8.2642 81.5342 8.2642C82.0645 8.2642 82.5268 8.38021 82.9213 8.61222C83.3157 8.84422 83.6222 9.17566 83.841 9.60653C84.0597 10.0341 84.1691 10.5445 84.1691 11.1378V16H82.0512V11.5156C82.0545 11.0483 81.9352 10.6837 81.6933 10.4219C81.4513 10.1567 81.1182 10.0241 80.694 10.0241C80.4089 10.0241 80.157 10.0855 79.9383 10.2081C79.7229 10.3307 79.5538 10.5097 79.4312 10.745C79.3119 10.977 79.2506 11.2571 79.2472 11.5852ZM88.0159 16.1442C87.5287 16.1442 87.0945 16.0597 86.7133 15.8906C86.3322 15.7183 86.0306 15.4647 85.8085 15.13C85.5898 14.7919 85.4804 14.371 85.4804 13.8672C85.4804 13.4429 85.5583 13.0866 85.714 12.7983C85.8698 12.5099 86.0819 12.2779 86.3504 12.1023C86.6189 11.9266 86.9238 11.794 87.2652 11.7045C87.6099 11.6151 87.9711 11.5521 88.349 11.5156C88.7931 11.4692 89.1511 11.4261 89.4229 11.3864C89.6946 11.3433 89.8918 11.2803 90.0145 11.1974C90.1371 11.1146 90.1984 10.992 90.1984 10.8295V10.7997C90.1984 10.4848 90.099 10.2412 89.9001 10.0689C89.7046 9.89654 89.4262 9.81037 89.0649 9.81037C88.6837 9.81037 88.3805 9.89489 88.1551 10.0639C87.9297 10.2296 87.7806 10.4384 87.7077 10.6903L85.7488 10.5312C85.8483 10.0672 86.0438 9.66619 86.3355 9.32812C86.6272 8.98674 87.0033 8.7249 87.464 8.54261C87.9281 8.35701 88.465 8.2642 89.0748 8.2642C89.4991 8.2642 89.9051 8.31392 90.2929 8.41335C90.684 8.51278 91.0303 8.6669 91.3319 8.87571C91.6369 9.08452 91.8772 9.35298 92.0528 9.68111C92.2285 10.0059 92.3163 10.3954 92.3163 10.8494V16H90.3078V14.9411H90.2481C90.1255 15.1797 89.9614 15.3902 89.7559 15.5724C89.5505 15.7514 89.3035 15.8923 89.0152 15.995C88.7268 16.0945 88.3937 16.1442 88.0159 16.1442ZM88.6224 14.6825C88.934 14.6825 89.2091 14.6212 89.4477 14.4986C89.6863 14.3726 89.8736 14.2036 90.0095 13.9915C90.1454 13.7794 90.2133 13.5391 90.2133 13.2706V12.4602C90.147 12.5033 90.0559 12.5431 89.9399 12.5795C89.8272 12.6127 89.6996 12.6442 89.5571 12.674C89.4146 12.7005 89.272 12.7254 89.1295 12.7486C88.987 12.7685 88.8577 12.7867 88.7417 12.8033C88.4932 12.8397 88.2761 12.8977 88.0905 12.9773C87.9049 13.0568 87.7607 13.1645 87.6579 13.3004C87.5552 13.433 87.5038 13.5987 87.5038 13.7976C87.5038 14.0859 87.6082 14.3063 87.817 14.4588C88.0291 14.608 88.2976 14.6825 88.6224 14.6825ZM96.0773 11.5852V16H93.9594V8.36364H95.9779V9.71094H96.0674C96.2364 9.26681 96.5198 8.91548 96.9175 8.65696C97.3153 8.39512 97.7975 8.2642 98.3643 8.2642C98.8946 8.2642 99.3569 8.38021 99.7513 8.61222C100.146 8.84422 100.452 9.17566 100.671 9.60653C100.89 10.0341 100.999 10.5445 100.999 11.1378V16H98.8813V11.5156C98.8846 11.0483 98.7653 10.6837 98.5233 10.4219C98.2814 10.1567 97.9483 10.0241 97.5241 10.0241C97.239 10.0241 96.9871 10.0855 96.7684 10.2081C96.5529 10.3307 96.3839 10.5097 96.2613 10.745C96.142 10.977 96.0806 11.2571 96.0773 11.5852ZM106.119 16.1491C105.336 16.1491 104.664 15.9834 104.1 15.652C103.54 15.3172 103.109 14.8532 102.808 14.2599C102.509 13.6667 102.36 12.9839 102.36 12.2116C102.36 11.4295 102.511 10.7434 102.813 10.1534C103.118 9.56013 103.55 9.09777 104.11 8.76633C104.67 8.43158 105.336 8.2642 106.109 8.2642C106.775 8.2642 107.358 8.38518 107.859 8.62713C108.359 8.86908 108.755 9.20881 109.047 9.64631C109.339 10.0838 109.499 10.5975 109.529 11.1875H107.531C107.474 10.8063 107.325 10.4998 107.083 10.2678C106.845 10.0324 106.531 9.91477 106.144 9.91477C105.815 9.91477 105.529 10.0043 105.283 10.1832C105.042 10.3589 104.853 10.6158 104.717 10.9538C104.581 11.2919 104.513 11.7012 104.513 12.1818C104.513 12.669 104.579 13.0833 104.712 13.4247C104.848 13.7661 105.038 14.0263 105.283 14.2053C105.529 14.3842 105.815 14.4737 106.144 14.4737C106.386 14.4737 106.603 14.424 106.795 14.3246C106.99 14.2251 107.151 14.081 107.277 13.892C107.406 13.6998 107.491 13.4695 107.531 13.201H109.529C109.496 13.7843 109.337 14.2981 109.052 14.7422C108.77 15.183 108.381 15.5277 107.884 15.7763C107.386 16.0249 106.798 16.1491 106.119 16.1491ZM110.885 16V8.36364H113.003V16H110.885ZM111.949 7.37926C111.634 7.37926 111.364 7.27486 111.139 7.06605C110.917 6.85393 110.806 6.60038 110.806 6.3054C110.806 6.01373 110.917 5.76349 111.139 5.55469C111.364 5.34257 111.634 5.23651 111.949 5.23651C112.264 5.23651 112.532 5.34257 112.755 5.55469C112.98 5.76349 113.093 6.01373 113.093 6.3054C113.093 6.60038 112.98 6.85393 112.755 7.06605C112.532 7.27486 112.264 7.37926 111.949 7.37926ZM116.877 16.1442C116.39 16.1442 115.956 16.0597 115.575 15.8906C115.194 15.7183 114.892 15.4647 114.67 15.13C114.451 14.7919 114.342 14.371 114.342 13.8672C114.342 13.4429 114.42 13.0866 114.575 12.7983C114.731 12.5099 114.943 12.2779 115.212 12.1023C115.48 11.9266 115.785 11.794 116.127 11.7045C116.471 11.6151 116.832 11.5521 117.21 11.5156C117.654 11.4692 118.012 11.4261 118.284 11.3864C118.556 11.3433 118.753 11.2803 118.876 11.1974C118.998 11.1146 119.06 10.992 119.06 10.8295V10.7997C119.06 10.4848 118.96 10.2412 118.761 10.0689C118.566 9.89654 118.287 9.81037 117.926 9.81037C117.545 9.81037 117.242 9.89489 117.016 10.0639C116.791 10.2296 116.642 10.4384 116.569 10.6903L114.61 10.5312C114.71 10.0672 114.905 9.66619 115.197 9.32812C115.488 8.98674 115.865 8.7249 116.325 8.54261C116.789 8.35701 117.326 8.2642 117.936 8.2642C118.36 8.2642 118.766 8.31392 119.154 8.41335C119.545 8.51278 119.892 8.6669 120.193 8.87571C120.498 9.08452 120.738 9.35298 120.914 9.68111C121.09 10.0059 121.178 10.3954 121.178 10.8494V16H119.169V14.9411H119.109C118.987 15.1797 118.823 15.3902 118.617 15.5724C118.412 15.7514 118.165 15.8923 117.877 15.995C117.588 16.0945 117.255 16.1442 116.877 16.1442ZM117.484 14.6825C117.795 14.6825 118.07 14.6212 118.309 14.4986C118.548 14.3726 118.735 14.2036 118.871 13.9915C119.007 13.7794 119.075 13.5391 119.075 13.2706V12.4602C119.008 12.5033 118.917 12.5431 118.801 12.5795C118.689 12.6127 118.561 12.6442 118.418 12.674C118.276 12.7005 118.133 12.7254 117.991 12.7486C117.848 12.7685 117.719 12.7867 117.603 12.8033C117.354 12.8397 117.137 12.8977 116.952 12.9773C116.766 13.0568 116.622 13.1645 116.519 13.3004C116.417 13.433 116.365 13.5987 116.365 13.7976C116.365 14.0859 116.47 14.3063 116.678 14.4588C116.89 14.608 117.159 14.6825 117.484 14.6825ZM124.939 5.81818V16H122.821V5.81818H124.939ZM132.068 5.81818V16H129.915V5.81818H132.068ZM135.917 11.5852V16H133.799V8.36364H135.818V9.71094H135.907C136.076 9.26681 136.36 8.91548 136.757 8.65696C137.155 8.39512 137.637 8.2642 138.204 8.2642C138.734 8.2642 139.197 8.38021 139.591 8.61222C139.986 8.84422 140.292 9.17566 140.511 9.60653C140.73 10.0341 140.839 10.5445 140.839 11.1378V16H138.721V11.5156C138.724 11.0483 138.605 10.6837 138.363 10.4219C138.121 10.1567 137.788 10.0241 137.364 10.0241C137.079 10.0241 136.827 10.0855 136.608 10.2081C136.393 10.3307 136.224 10.5097 136.101 10.745C135.982 10.977 135.92 11.2571 135.917 11.5852ZM148.862 10.5412L146.923 10.6605C146.89 10.4948 146.819 10.3456 146.709 10.2131C146.6 10.0772 146.456 9.96946 146.277 9.88991C146.101 9.80705 145.891 9.76562 145.645 9.76562C145.317 9.76562 145.04 9.83523 144.815 9.97443C144.59 10.1103 144.477 10.2926 144.477 10.5213C144.477 10.7036 144.55 10.8577 144.696 10.9837C144.842 11.1096 145.092 11.2107 145.446 11.2869L146.829 11.5653C147.571 11.7178 148.124 11.9631 148.489 12.3011C148.854 12.6392 149.036 13.0833 149.036 13.6335C149.036 14.134 148.888 14.5732 148.593 14.951C148.302 15.3288 147.901 15.6238 147.39 15.8359C146.883 16.0447 146.298 16.1491 145.635 16.1491C144.624 16.1491 143.819 15.9387 143.219 15.5178C142.623 15.0935 142.273 14.5168 142.17 13.7876L144.253 13.6783C144.316 13.9865 144.469 14.2218 144.711 14.3842C144.953 14.5433 145.263 14.6229 145.64 14.6229C146.012 14.6229 146.31 14.5516 146.535 14.4091C146.764 14.2633 146.88 14.076 146.883 13.8473C146.88 13.6551 146.799 13.4976 146.64 13.375C146.481 13.2491 146.235 13.1529 145.904 13.0866L144.581 12.8232C143.836 12.674 143.281 12.4155 142.916 12.0476C142.555 11.6797 142.374 11.2107 142.374 10.6406C142.374 10.1501 142.507 9.72751 142.772 9.37287C143.04 9.01823 143.416 8.74479 143.9 8.55256C144.388 8.36032 144.958 8.2642 145.611 8.2642C146.575 8.2642 147.334 8.46804 147.888 8.87571C148.444 9.28338 148.769 9.83854 148.862 10.5412ZM154.431 8.36364V9.95455H149.833V8.36364H154.431ZM150.877 6.53409H152.995V13.6534C152.995 13.849 153.024 14.0014 153.084 14.1108C153.144 14.2169 153.227 14.2914 153.333 14.3345C153.442 14.3776 153.568 14.3991 153.71 14.3991C153.81 14.3991 153.909 14.3909 154.009 14.3743C154.108 14.3544 154.184 14.3395 154.237 14.3295L154.571 15.9055C154.465 15.9387 154.315 15.9768 154.123 16.0199C153.931 16.0663 153.697 16.0945 153.422 16.1044C152.912 16.1243 152.464 16.0563 152.08 15.9006C151.699 15.7448 151.402 15.5028 151.19 15.1747C150.978 14.8466 150.873 14.4323 150.877 13.9318V6.53409ZM155.811 16V8.36364H157.929V16H155.811ZM156.875 7.37926C156.56 7.37926 156.29 7.27486 156.065 7.06605C155.842 6.85393 155.731 6.60038 155.731 6.3054C155.731 6.01373 155.842 5.76349 156.065 5.55469C156.29 5.34257 156.56 5.23651 156.875 5.23651C157.19 5.23651 157.458 5.34257 157.68 5.55469C157.906 5.76349 158.018 6.01373 158.018 6.3054C158.018 6.60038 157.906 6.85393 157.68 7.06605C157.458 7.27486 157.19 7.37926 156.875 7.37926ZM163.687 8.36364V9.95455H159.089V8.36364H163.687ZM160.133 6.53409H162.25V13.6534C162.25 13.849 162.28 14.0014 162.34 14.1108C162.4 14.2169 162.482 14.2914 162.589 14.3345C162.698 14.3776 162.824 14.3991 162.966 14.3991C163.066 14.3991 163.165 14.3909 163.265 14.3743C163.364 14.3544 163.44 14.3395 163.493 14.3295L163.826 15.9055C163.72 15.9387 163.571 15.9768 163.379 16.0199C163.187 16.0663 162.953 16.0945 162.678 16.1044C162.168 16.1243 161.72 16.0563 161.336 15.9006C160.955 15.7448 160.658 15.5028 160.446 15.1747C160.234 14.8466 160.129 14.4323 160.133 13.9318V6.53409ZM169.964 12.7486V8.36364H172.082V16H170.048V14.6129H169.969C169.796 15.0604 169.51 15.42 169.109 15.6918C168.711 15.9635 168.225 16.0994 167.652 16.0994C167.142 16.0994 166.693 15.9834 166.305 15.7514C165.917 15.5194 165.614 15.1896 165.395 14.7621C165.18 14.3345 165.07 13.8224 165.067 13.2259V8.36364H167.185V12.848C167.188 13.2988 167.309 13.6551 167.548 13.9169C167.786 14.1787 168.106 14.3097 168.507 14.3097C168.762 14.3097 169.001 14.2517 169.223 14.1357C169.445 14.0163 169.624 13.8407 169.76 13.6087C169.899 13.3767 169.967 13.09 169.964 12.7486ZM177.838 8.36364V9.95455H173.239V8.36364H177.838ZM174.283 6.53409H176.401V13.6534C176.401 13.849 176.431 14.0014 176.49 14.1108C176.55 14.2169 176.633 14.2914 176.739 14.3345C176.848 14.3776 176.974 14.3991 177.117 14.3991C177.216 14.3991 177.316 14.3909 177.415 14.3743C177.514 14.3544 177.591 14.3395 177.644 14.3295L177.977 15.9055C177.871 15.9387 177.722 15.9768 177.529 16.0199C177.337 16.0663 177.103 16.0945 176.828 16.1044C176.318 16.1243 175.871 16.0563 175.486 15.9006C175.105 15.7448 174.808 15.5028 174.596 15.1747C174.384 14.8466 174.28 14.4323 174.283 13.9318V6.53409ZM179.217 16V8.36364H181.335V16H179.217ZM180.281 7.37926C179.966 7.37926 179.696 7.27486 179.471 7.06605C179.249 6.85393 179.138 6.60038 179.138 6.3054C179.138 6.01373 179.249 5.76349 179.471 5.55469C179.696 5.34257 179.966 5.23651 180.281 5.23651C180.596 5.23651 180.864 5.34257 181.087 5.55469C181.312 5.76349 181.425 6.01373 181.425 6.3054C181.425 6.60038 181.312 6.85393 181.087 7.06605C180.864 7.27486 180.596 7.37926 180.281 7.37926ZM186.482 16.1491C185.71 16.1491 185.042 15.9851 184.478 15.657C183.918 15.3255 183.486 14.8648 183.181 14.2749C182.876 13.6816 182.723 12.9938 182.723 12.2116C182.723 11.4228 182.876 10.7334 183.181 10.1435C183.486 9.55019 183.918 9.08949 184.478 8.76136C185.042 8.42992 185.71 8.2642 186.482 8.2642C187.254 8.2642 187.92 8.42992 188.481 8.76136C189.044 9.08949 189.478 9.55019 189.783 10.1435C190.088 10.7334 190.241 11.4228 190.241 12.2116C190.241 12.9938 190.088 13.6816 189.783 14.2749C189.478 14.8648 189.044 15.3255 188.481 15.657C187.92 15.9851 187.254 16.1491 186.482 16.1491ZM186.492 14.5085C186.843 14.5085 187.137 14.4091 187.372 14.2102C187.607 14.008 187.785 13.733 187.904 13.3849C188.026 13.0369 188.088 12.6409 188.088 12.1967C188.088 11.7526 188.026 11.3565 187.904 11.0085C187.785 10.6605 187.607 10.3854 187.372 10.1832C187.137 9.98106 186.843 9.87997 186.492 9.87997C186.137 9.87997 185.839 9.98106 185.597 10.1832C185.358 10.3854 185.178 10.6605 185.055 11.0085C184.936 11.3565 184.876 11.7526 184.876 12.1967C184.876 12.6409 184.936 13.0369 185.055 13.3849C185.178 13.733 185.358 14.008 185.597 14.2102C185.839 14.4091 186.137 14.5085 186.492 14.5085ZM193.736 11.5852V16H191.618V8.36364H193.636V9.71094H193.726C193.895 9.26681 194.178 8.91548 194.576 8.65696C194.973 8.39512 195.456 8.2642 196.022 8.2642C196.553 8.2642 197.015 8.38021 197.41 8.61222C197.804 8.84422 198.111 9.17566 198.329 9.60653C198.548 10.0341 198.657 10.5445 198.657 11.1378V16H196.54V11.5156C196.543 11.0483 196.424 10.6837 196.182 10.4219C195.94 10.1567 195.607 10.0241 195.182 10.0241C194.897 10.0241 194.645 10.0855 194.427 10.2081C194.211 10.3307 194.042 10.5097 193.919 10.745C193.8 10.977 193.739 11.2571 193.736 11.5852ZM206.68 10.5412L204.741 10.6605C204.708 10.4948 204.637 10.3456 204.528 10.2131C204.418 10.0772 204.274 9.96946 204.095 9.88991C203.919 9.80705 203.709 9.76562 203.464 9.76562C203.136 9.76562 202.859 9.83523 202.633 9.97443C202.408 10.1103 202.295 10.2926 202.295 10.5213C202.295 10.7036 202.368 10.8577 202.514 10.9837C202.66 11.1096 202.91 11.2107 203.265 11.2869L204.647 11.5653C205.389 11.7178 205.943 11.9631 206.307 12.3011C206.672 12.6392 206.854 13.0833 206.854 13.6335C206.854 14.134 206.707 14.5732 206.412 14.951C206.12 15.3288 205.719 15.6238 205.209 15.8359C204.702 16.0447 204.117 16.1491 203.454 16.1491C202.443 16.1491 201.637 15.9387 201.038 15.5178C200.441 15.0935 200.091 14.5168 199.989 13.7876L202.072 13.6783C202.135 13.9865 202.287 14.2218 202.529 14.3842C202.771 14.5433 203.081 14.6229 203.459 14.6229C203.83 14.6229 204.128 14.5516 204.354 14.4091C204.582 14.2633 204.698 14.076 204.702 13.8473C204.698 13.6551 204.617 13.4976 204.458 13.375C204.299 13.2491 204.054 13.1529 203.722 13.0866L202.4 12.8232C201.654 12.674 201.099 12.4155 200.734 12.0476C200.373 11.6797 200.192 11.2107 200.192 10.6406C200.192 10.1501 200.325 9.72751 200.59 9.37287C200.859 9.01823 201.235 8.74479 201.719 8.55256C202.206 8.36032 202.776 8.2642 203.429 8.2642C204.393 8.2642 205.152 8.46804 205.706 8.87571C206.263 9.28338 206.588 9.83854 206.68 10.5412Z" fill="white"/>
<path d="M40.1734 80V69.8182H43.6137C44.4125 69.8182 45.0654 69.9624 45.5725 70.2507C46.0829 70.5357 46.4608 70.9219 46.7061 71.4091C46.9513 71.8963 47.074 72.4399 47.074 73.0398C47.074 73.6397 46.9513 74.1849 46.7061 74.6754C46.4641 75.166 46.0896 75.5571 45.5825 75.8487C45.0754 76.1371 44.4258 76.2812 43.6336 76.2812H41.1677V75.1875H43.5938C44.1407 75.1875 44.5799 75.093 44.9113 74.9041C45.2427 74.7152 45.483 74.46 45.6322 74.1385C45.7847 73.8137 45.8609 73.4474 45.8609 73.0398C45.8609 72.6321 45.7847 72.2675 45.6322 71.946C45.483 71.6245 45.2411 71.3726 44.9063 71.1903C44.5716 71.0047 44.1275 70.9119 43.574 70.9119H41.4063V80H40.1734ZM53.7135 76.8778V72.3636H54.8868V80H53.7135V78.7074H53.634C53.455 79.0952 53.1766 79.425 52.7987 79.6967C52.4209 79.9652 51.9436 80.0994 51.3669 80.0994C50.8896 80.0994 50.4654 79.995 50.0942 79.7862C49.723 79.5741 49.4313 79.2559 49.2192 78.8317C49.0071 78.4041 48.901 77.8655 48.901 77.2159V72.3636H50.0743V77.1364C50.0743 77.6932 50.2301 78.1373 50.5416 78.4688C50.8565 78.8002 51.2575 78.9659 51.7448 78.9659C52.0364 78.9659 52.3331 78.8913 52.6347 78.7422C52.9396 78.593 53.1948 78.3643 53.4003 78.0561C53.6091 77.7479 53.7135 77.3551 53.7135 76.8778ZM57.1949 80V69.8182H58.3682V73.5767H58.4676C58.5538 73.4441 58.6731 73.2751 58.8256 73.0696C58.9813 72.8608 59.2034 72.6752 59.4917 72.5128C59.7834 72.3471 60.1778 72.2642 60.675 72.2642C61.318 72.2642 61.8847 72.425 62.3753 72.7464C62.8658 73.0679 63.2486 73.5237 63.5237 74.1136C63.7988 74.7036 63.9363 75.3996 63.9363 76.2017C63.9363 77.0104 63.7988 77.7114 63.5237 78.3047C63.2486 78.8946 62.8675 79.352 62.3802 79.6768C61.893 79.9983 61.3312 80.1591 60.6949 80.1591C60.2043 80.1591 59.8116 80.0779 59.5166 79.9155C59.2216 79.7498 58.9946 79.5625 58.8355 79.3537C58.6764 79.1416 58.5538 78.9659 58.4676 78.8267H58.3284V80H57.1949ZM58.3483 76.1818C58.3483 76.7585 58.4328 77.2673 58.6018 77.7081C58.7709 78.1456 59.0178 78.4886 59.3426 78.7372C59.6674 78.9825 60.0651 79.1051 60.5358 79.1051C61.0263 79.1051 61.4356 78.9759 61.7638 78.7173C62.0952 78.4555 62.3438 78.1042 62.5095 77.6634C62.6785 77.2192 62.7631 76.7254 62.7631 76.1818C62.7631 75.6449 62.6802 75.161 62.5145 74.7301C62.3521 74.2959 62.1051 73.9529 61.7737 73.701C61.4456 73.4458 61.0329 73.3182 60.5358 73.3182C60.0585 73.3182 59.6575 73.4392 59.3327 73.6811C59.0078 73.9197 58.7626 74.2545 58.5969 74.6854C58.4311 75.1129 58.3483 75.6117 58.3483 76.1818ZM66.9044 69.8182V80H65.7311V69.8182H66.9044ZM69.0534 80V72.3636H70.2267V80H69.0534ZM69.6499 71.0909C69.4213 71.0909 69.224 71.013 69.0583 70.8572C68.8959 70.7015 68.8147 70.5142 68.8147 70.2955C68.8147 70.0767 68.8959 69.8894 69.0583 69.7337C69.224 69.5779 69.4213 69.5 69.6499 69.5C69.8786 69.5 70.0742 69.5779 70.2366 69.7337C70.4023 69.8894 70.4852 70.0767 70.4852 70.2955C70.4852 70.5142 70.4023 70.7015 70.2366 70.8572C70.0742 71.013 69.8786 71.0909 69.6499 71.0909ZM75.4779 80.1591C74.762 80.1591 74.1455 79.9901 73.6285 79.652C73.1114 79.3139 72.7137 78.8482 72.4353 78.255C72.1569 77.6617 72.0177 76.9839 72.0177 76.2216C72.0177 75.446 72.1602 74.7616 72.4452 74.1683C72.7336 73.5717 73.1346 73.1061 73.6483 72.7713C74.1654 72.4332 74.7686 72.2642 75.458 72.2642C75.9949 72.2642 76.4788 72.3636 76.9097 72.5625C77.3406 72.7614 77.6936 73.0398 77.9687 73.3977C78.2438 73.7557 78.4144 74.1733 78.4807 74.6506H77.3074C77.218 74.3026 77.0191 73.9943 76.7108 73.7259C76.4059 73.4541 75.9949 73.3182 75.4779 73.3182C75.0205 73.3182 74.6195 73.4375 74.2748 73.6761C73.9334 73.9115 73.6666 74.2446 73.4743 74.6754C73.2854 75.103 73.191 75.6051 73.191 76.1818C73.191 76.7718 73.2838 77.2855 73.4694 77.723C73.6583 78.1605 73.9234 78.5002 74.2648 78.7422C74.6095 78.9841 75.0139 79.1051 75.4779 79.1051C75.7828 79.1051 76.0596 79.0521 76.3081 78.946C76.5567 78.84 76.7672 78.6875 76.9395 78.4886C77.1119 78.2898 77.2345 78.0511 77.3074 77.7727H78.4807C78.4144 78.2235 78.2504 78.6295 77.9885 78.9908C77.73 79.3487 77.387 79.6338 76.9594 79.8459C76.5352 80.0547 76.0413 80.1591 75.4779 80.1591ZM42.1763 97V86.8182H45.736C46.4453 86.8182 47.0302 86.9408 47.4909 87.1861C47.9516 87.428 48.2947 87.7545 48.5201 88.1655C48.7454 88.5732 48.8581 89.0256 48.8581 89.5227C48.8581 89.9602 48.7802 90.3215 48.6245 90.6065C48.472 90.8916 48.2698 91.117 48.0179 91.2827C47.7694 91.4484 47.4992 91.571 47.2076 91.6506V91.75C47.5191 91.7699 47.8323 91.8793 48.1472 92.0781C48.4621 92.277 48.7256 92.562 48.9377 92.9332C49.1498 93.3045 49.2559 93.7585 49.2559 94.2955C49.2559 94.8059 49.1399 95.2649 48.9078 95.6726C48.6758 96.0803 48.3096 96.4034 47.8091 96.642C47.3087 96.8807 46.6574 97 45.8553 97H42.1763ZM43.4093 95.9062H45.8553C46.6607 95.9062 47.2324 95.7505 47.5705 95.4389C47.9119 95.1241 48.0826 94.7429 48.0826 94.2955C48.0826 93.9508 47.9947 93.6326 47.8191 93.3409C47.6434 93.0459 47.3932 92.8106 47.0684 92.6349C46.7435 92.456 46.3591 92.3665 45.915 92.3665H43.4093V95.9062ZM43.4093 91.2926H45.6962C46.0674 91.2926 46.4022 91.2197 46.7005 91.0739C47.0021 90.928 47.2407 90.7225 47.4164 90.4574C47.5953 90.1922 47.6848 89.8807 47.6848 89.5227C47.6848 89.0753 47.5291 88.6958 47.2175 88.3842C46.906 88.0694 46.4121 87.9119 45.736 87.9119H43.4093V91.2926ZM53.3699 97.179C52.8859 97.179 52.4468 97.0878 52.0524 96.9055C51.658 96.7199 51.3448 96.4531 51.1127 96.1051C50.8807 95.7538 50.7647 95.3295 50.7647 94.8324C50.7647 94.3949 50.8509 94.0402 51.0233 93.7685C51.1956 93.4934 51.426 93.2779 51.7143 93.1222C52.0027 92.9664 52.3208 92.8504 52.6689 92.7741C53.0202 92.6946 53.3732 92.6316 53.7278 92.5852C54.1918 92.5256 54.568 92.4808 54.8564 92.451C55.148 92.4179 55.3601 92.3632 55.4927 92.2869C55.6286 92.2107 55.6966 92.0781 55.6966 91.8892V91.8494C55.6966 91.3589 55.5623 90.9777 55.2939 90.706C55.0287 90.4342 54.626 90.2983 54.0858 90.2983C53.5256 90.2983 53.0865 90.4209 52.7683 90.6662C52.4501 90.9115 52.2264 91.1733 52.0971 91.4517L50.9835 91.054C51.1824 90.59 51.4475 90.2287 51.7789 89.9702C52.1137 89.7083 52.4783 89.526 52.8727 89.4233C53.2704 89.3172 53.6615 89.2642 54.046 89.2642C54.2913 89.2642 54.573 89.294 54.8912 89.3537C55.2127 89.41 55.5225 89.5277 55.8208 89.7067C56.1225 89.8857 56.3727 90.1558 56.5716 90.517C56.7704 90.8783 56.8699 91.3622 56.8699 91.9688V97H55.6966V95.9659H55.6369C55.5574 96.1316 55.4248 96.3089 55.2392 96.4979C55.0536 96.6868 54.8066 96.8475 54.4984 96.9801C54.1902 97.1127 53.814 97.179 53.3699 97.179ZM53.5488 96.125C54.0128 96.125 54.4039 96.0339 54.7221 95.8516C55.0436 95.6693 55.2856 95.4339 55.448 95.1456C55.6137 94.8572 55.6966 94.554 55.6966 94.2358V93.1619C55.6468 93.2216 55.5375 93.2763 55.3684 93.326C55.2027 93.3724 55.0105 93.4138 54.7917 93.4503C54.5763 93.4834 54.3658 93.5133 54.1603 93.5398C53.9582 93.563 53.7941 93.5829 53.6681 93.5994C53.3632 93.6392 53.0782 93.7038 52.813 93.7933C52.5512 93.8795 52.3391 94.0104 52.1767 94.1861C52.0176 94.3584 51.938 94.5937 51.938 94.892C51.938 95.2997 52.0888 95.608 52.3904 95.8168C52.6954 96.0223 53.0815 96.125 53.5488 96.125ZM60.1847 92.4062V97H59.0114V89.3636H60.1449V90.5568H60.2443C60.4233 90.169 60.6951 89.8575 61.0597 89.6222C61.4242 89.3835 61.8949 89.2642 62.4716 89.2642C62.9886 89.2642 63.4411 89.3703 63.8288 89.5824C64.2166 89.7912 64.5182 90.1094 64.7337 90.5369C64.9491 90.9612 65.0568 91.4981 65.0568 92.1477V97H63.8835V92.2273C63.8835 91.6274 63.7277 91.16 63.4162 90.8253C63.1046 90.4872 62.6771 90.3182 62.1335 90.3182C61.759 90.3182 61.4242 90.3994 61.1293 90.5618C60.8376 90.7242 60.6072 90.9612 60.4382 91.2727C60.2692 91.5843 60.1847 91.9621 60.1847 92.4062ZM68.2946 94.2159L68.2747 92.7642H68.5133L71.8542 89.3636H73.3059L69.7463 92.9631H69.6468L68.2946 94.2159ZM67.2008 97V86.8182H68.3741V97H67.2008ZM72.0531 97L69.0701 93.2216L69.9054 92.4062L73.5446 97H72.0531ZM80.2251 91.0739L79.1712 91.3722C79.1049 91.1965 79.0071 91.0258 78.8778 90.8601C78.7519 90.6911 78.5795 90.5518 78.3608 90.4425C78.142 90.3331 77.862 90.2784 77.5206 90.2784C77.0533 90.2784 76.6638 90.3861 76.3523 90.6016C76.044 90.8137 75.8899 91.0838 75.8899 91.4119C75.8899 91.7036 75.996 91.9339 76.2081 92.103C76.4202 92.272 76.7517 92.4129 77.2024 92.5256L78.3359 92.804C79.0187 92.9697 79.5275 93.2232 79.8622 93.5646C80.197 93.9027 80.3643 94.3385 80.3643 94.8722C80.3643 95.3097 80.2384 95.7008 79.9865 96.0455C79.7379 96.3902 79.3899 96.6619 78.9425 96.8608C78.495 97.0597 77.9747 97.1591 77.3814 97.1591C76.6025 97.1591 75.9579 96.9901 75.4474 96.652C74.937 96.3139 74.6139 95.8201 74.478 95.1705L75.5916 94.892C75.6977 95.303 75.8982 95.6113 76.1932 95.8168C76.4915 96.0223 76.8809 96.125 77.3615 96.125C77.9084 96.125 78.3426 96.009 78.6641 95.777C78.9889 95.5417 79.1513 95.2599 79.1513 94.9318C79.1513 94.6667 79.0585 94.4446 78.8729 94.2656C78.6873 94.0833 78.4022 93.9474 78.0178 93.858L76.745 93.5597C76.0457 93.3939 75.532 93.1371 75.2038 92.7891C74.879 92.4377 74.7166 91.9986 74.7166 91.4716C74.7166 91.0407 74.8376 90.6596 75.0795 90.3281C75.3248 89.9967 75.6579 89.7365 76.0788 89.5476C76.5031 89.3587 76.9837 89.2642 77.5206 89.2642C78.2763 89.2642 78.8696 89.4299 79.3004 89.7614C79.7346 90.0928 80.0429 90.5303 80.2251 91.0739Z" fill="white"/>
<path d="M157.254 80V69.8182H160.695C161.494 69.8182 162.146 69.9624 162.654 70.2507C163.164 70.5357 163.542 70.9219 163.787 71.4091C164.032 71.8963 164.155 72.4399 164.155 73.0398C164.155 73.6397 164.032 74.1849 163.787 74.6754C163.545 75.166 163.171 75.5571 162.664 75.8487C162.156 76.1371 161.507 76.2812 160.715 76.2812H158.249V75.1875H160.675C161.222 75.1875 161.661 75.093 161.992 74.9041C162.324 74.7152 162.564 74.46 162.713 74.1385C162.866 73.8137 162.942 73.4474 162.942 73.0398C162.942 72.6321 162.866 72.2675 162.713 71.946C162.564 71.6245 162.322 71.3726 161.987 71.1903C161.653 71.0047 161.209 70.9119 160.655 70.9119H158.487V80H157.254ZM165.982 80V72.3636H167.116V73.517H167.195C167.334 73.1392 167.586 72.8326 167.951 72.5973C168.315 72.362 168.726 72.2443 169.184 72.2443C169.27 72.2443 169.378 72.246 169.507 72.2493C169.636 72.2526 169.734 72.2576 169.8 72.2642V73.4574C169.76 73.4474 169.669 73.4325 169.527 73.4126C169.388 73.3894 169.24 73.3778 169.084 73.3778C168.713 73.3778 168.382 73.4557 168.09 73.6115C167.802 73.764 167.573 73.9761 167.404 74.2479C167.238 74.5163 167.155 74.8229 167.155 75.1676V80H165.982ZM171.191 80V72.3636H172.364V80H171.191ZM171.788 71.0909C171.559 71.0909 171.362 71.013 171.196 70.8572C171.034 70.7015 170.952 70.5142 170.952 70.2955C170.952 70.0767 171.034 69.8894 171.196 69.7337C171.362 69.5779 171.559 69.5 171.788 69.5C172.016 69.5 172.212 69.5779 172.374 69.7337C172.54 69.8894 172.623 70.0767 172.623 70.2955C172.623 70.5142 172.54 70.7015 172.374 70.8572C172.212 71.013 172.016 71.0909 171.788 71.0909ZM180.758 72.3636L177.934 80H176.741L173.917 72.3636H175.189L177.297 78.4489H177.377L179.485 72.3636H180.758ZM184.321 80.179C183.837 80.179 183.398 80.0878 183.004 79.9055C182.609 79.7199 182.296 79.4531 182.064 79.1051C181.832 78.7538 181.716 78.3295 181.716 77.8324C181.716 77.3949 181.802 77.0402 181.974 76.7685C182.147 76.4934 182.377 76.2779 182.665 76.1222C182.954 75.9664 183.272 75.8504 183.62 75.7741C183.971 75.6946 184.324 75.6316 184.679 75.5852C185.143 75.5256 185.519 75.4808 185.808 75.451C186.099 75.4179 186.311 75.3632 186.444 75.2869C186.58 75.2107 186.648 75.0781 186.648 74.8892V74.8494C186.648 74.3589 186.513 73.9777 186.245 73.706C185.98 73.4342 185.577 73.2983 185.037 73.2983C184.477 73.2983 184.038 73.4209 183.719 73.6662C183.401 73.9115 183.178 74.1733 183.048 74.4517L181.935 74.054C182.134 73.59 182.399 73.2287 182.73 72.9702C183.065 72.7083 183.429 72.526 183.824 72.4233C184.222 72.3172 184.613 72.2642 184.997 72.2642C185.242 72.2642 185.524 72.294 185.842 72.3537C186.164 72.41 186.474 72.5277 186.772 72.7067C187.074 72.8857 187.324 73.1558 187.523 73.517C187.722 73.8783 187.821 74.3622 187.821 74.9688V80H186.648V78.9659H186.588C186.509 79.1316 186.376 79.3089 186.19 79.4979C186.005 79.6868 185.758 79.8475 185.45 79.9801C185.141 80.1127 184.765 80.179 184.321 80.179ZM184.5 79.125C184.964 79.125 185.355 79.0339 185.673 78.8516C185.995 78.6693 186.237 78.4339 186.399 78.1456C186.565 77.8572 186.648 77.554 186.648 77.2358V76.1619C186.598 76.2216 186.489 76.2763 186.32 76.326C186.154 76.3724 185.962 76.4138 185.743 76.4503C185.527 76.4834 185.317 76.5133 185.112 76.5398C184.909 76.563 184.745 76.5829 184.619 76.5994C184.314 76.6392 184.029 76.7038 183.764 76.7933C183.502 76.8795 183.29 77.0104 183.128 77.1861C182.969 77.3584 182.889 77.5937 182.889 77.892C182.889 78.2997 183.04 78.608 183.342 78.8168C183.647 79.0223 184.033 79.125 184.5 79.125ZM193.284 72.3636V73.358H189.326V72.3636H193.284ZM190.48 70.5341H191.653V77.8125C191.653 78.1439 191.701 78.3925 191.797 78.5582C191.896 78.7206 192.022 78.83 192.175 78.8864C192.331 78.9394 192.495 78.9659 192.667 78.9659C192.796 78.9659 192.902 78.9593 192.985 78.946C193.068 78.9295 193.134 78.9162 193.184 78.9062L193.423 79.9602C193.343 79.9901 193.232 80.0199 193.09 80.0497C192.947 80.0829 192.767 80.0994 192.548 80.0994C192.216 80.0994 191.892 80.0282 191.573 79.8857C191.258 79.7431 190.997 79.526 190.788 79.2344C190.582 78.9427 190.48 78.5748 190.48 78.1307V70.5341ZM198.168 80.1591C197.432 80.1591 196.798 79.9967 196.264 79.6719C195.734 79.3438 195.324 78.8864 195.036 78.2997C194.751 77.7098 194.608 77.0237 194.608 76.2415C194.608 75.4593 194.751 74.7699 195.036 74.1733C195.324 73.5734 195.725 73.1061 196.239 72.7713C196.756 72.4332 197.359 72.2642 198.049 72.2642C198.447 72.2642 198.839 72.3305 199.227 72.4631C199.615 72.5956 199.968 72.8111 200.286 73.1094C200.604 73.4044 200.858 73.7955 201.047 74.2827C201.236 74.7699 201.33 75.3698 201.33 76.0824V76.5795H195.444V75.5653H200.137C200.137 75.1345 200.051 74.75 199.878 74.4119C199.709 74.0739 199.467 73.8071 199.153 73.6115C198.841 73.416 198.473 73.3182 198.049 73.3182C197.581 73.3182 197.177 73.4342 196.836 73.6662C196.498 73.8949 196.238 74.1932 196.055 74.5611C195.873 74.929 195.782 75.3234 195.782 75.7443V76.4205C195.782 76.9972 195.881 77.486 196.08 77.8871C196.282 78.2848 196.562 78.5881 196.92 78.7969C197.278 79.0024 197.694 79.1051 198.168 79.1051C198.476 79.1051 198.755 79.062 199.003 78.9759C199.255 78.8864 199.472 78.7538 199.655 78.5781C199.837 78.3991 199.978 78.1771 200.077 77.9119L201.211 78.2301C201.091 78.6146 200.891 78.9527 200.609 79.2443C200.327 79.5327 199.979 79.758 199.565 79.9205C199.151 80.0795 198.685 80.1591 198.168 80.1591ZM162.176 97V86.8182H165.736C166.445 86.8182 167.03 86.9408 167.491 87.1861C167.952 87.428 168.295 87.7545 168.52 88.1655C168.745 88.5732 168.858 89.0256 168.858 89.5227C168.858 89.9602 168.78 90.3215 168.624 90.6065C168.472 90.8916 168.27 91.117 168.018 91.2827C167.769 91.4484 167.499 91.571 167.208 91.6506V91.75C167.519 91.7699 167.832 91.8793 168.147 92.0781C168.462 92.277 168.726 92.562 168.938 92.9332C169.15 93.3045 169.256 93.7585 169.256 94.2955C169.256 94.8059 169.14 95.2649 168.908 95.6726C168.676 96.0803 168.31 96.4034 167.809 96.642C167.309 96.8807 166.657 97 165.855 97H162.176ZM163.409 95.9062H165.855C166.661 95.9062 167.232 95.7505 167.57 95.4389C167.912 95.1241 168.083 94.7429 168.083 94.2955C168.083 93.9508 167.995 93.6326 167.819 93.3409C167.643 93.0459 167.393 92.8106 167.068 92.6349C166.744 92.456 166.359 92.3665 165.915 92.3665H163.409V95.9062ZM163.409 91.2926H165.696C166.067 91.2926 166.402 91.2197 166.7 91.0739C167.002 90.928 167.241 90.7225 167.416 90.4574C167.595 90.1922 167.685 89.8807 167.685 89.5227C167.685 89.0753 167.529 88.6958 167.218 88.3842C166.906 88.0694 166.412 87.9119 165.736 87.9119H163.409V91.2926ZM173.37 97.179C172.886 97.179 172.447 97.0878 172.052 96.9055C171.658 96.7199 171.345 96.4531 171.113 96.1051C170.881 95.7538 170.765 95.3295 170.765 94.8324C170.765 94.3949 170.851 94.0402 171.023 93.7685C171.196 93.4934 171.426 93.2779 171.714 93.1222C172.003 92.9664 172.321 92.8504 172.669 92.7741C173.02 92.6946 173.373 92.6316 173.728 92.5852C174.192 92.5256 174.568 92.4808 174.856 92.451C175.148 92.4179 175.36 92.3632 175.493 92.2869C175.629 92.2107 175.697 92.0781 175.697 91.8892V91.8494C175.697 91.3589 175.562 90.9777 175.294 90.706C175.029 90.4342 174.626 90.2983 174.086 90.2983C173.526 90.2983 173.086 90.4209 172.768 90.6662C172.45 90.9115 172.226 91.1733 172.097 91.4517L170.983 91.054C171.182 90.59 171.448 90.2287 171.779 89.9702C172.114 89.7083 172.478 89.526 172.873 89.4233C173.27 89.3172 173.662 89.2642 174.046 89.2642C174.291 89.2642 174.573 89.294 174.891 89.3537C175.213 89.41 175.523 89.5277 175.821 89.7067C176.122 89.8857 176.373 90.1558 176.572 90.517C176.77 90.8783 176.87 91.3622 176.87 91.9688V97H175.697V95.9659H175.637C175.557 96.1316 175.425 96.3089 175.239 96.4979C175.054 96.6868 174.807 96.8475 174.498 96.9801C174.19 97.1127 173.814 97.179 173.37 97.179ZM173.549 96.125C174.013 96.125 174.404 96.0339 174.722 95.8516C175.044 95.6693 175.286 95.4339 175.448 95.1456C175.614 94.8572 175.697 94.554 175.697 94.2358V93.1619C175.647 93.2216 175.537 93.2763 175.368 93.326C175.203 93.3724 175.01 93.4138 174.792 93.4503C174.576 93.4834 174.366 93.5133 174.16 93.5398C173.958 93.563 173.794 93.5829 173.668 93.5994C173.363 93.6392 173.078 93.7038 172.813 93.7933C172.551 93.8795 172.339 94.0104 172.177 94.1861C172.018 94.3584 171.938 94.5937 171.938 94.892C171.938 95.2997 172.089 95.608 172.39 95.8168C172.695 96.0223 173.081 96.125 173.549 96.125ZM180.185 92.4062V97H179.011V89.3636H180.145V90.5568H180.244C180.423 90.169 180.695 89.8575 181.06 89.6222C181.424 89.3835 181.895 89.2642 182.472 89.2642C182.989 89.2642 183.441 89.3703 183.829 89.5824C184.217 89.7912 184.518 90.1094 184.734 90.5369C184.949 90.9612 185.057 91.4981 185.057 92.1477V97H183.884V92.2273C183.884 91.6274 183.728 91.16 183.416 90.8253C183.105 90.4872 182.677 90.3182 182.134 90.3182C181.759 90.3182 181.424 90.3994 181.129 90.5618C180.838 90.7242 180.607 90.9612 180.438 91.2727C180.269 91.5843 180.185 91.9621 180.185 92.4062ZM188.295 94.2159L188.275 92.7642H188.513L191.854 89.3636H193.306L189.746 92.9631H189.647L188.295 94.2159ZM187.201 97V86.8182H188.374V97H187.201ZM192.053 97L189.07 93.2216L189.905 92.4062L193.545 97H192.053ZM200.225 91.0739L199.171 91.3722C199.105 91.1965 199.007 91.0258 198.878 90.8601C198.752 90.6911 198.58 90.5518 198.361 90.4425C198.142 90.3331 197.862 90.2784 197.521 90.2784C197.053 90.2784 196.664 90.3861 196.352 90.6016C196.044 90.8137 195.89 91.0838 195.89 91.4119C195.89 91.7036 195.996 91.9339 196.208 92.103C196.42 92.272 196.752 92.4129 197.202 92.5256L198.336 92.804C199.019 92.9697 199.527 93.2232 199.862 93.5646C200.197 93.9027 200.364 94.3385 200.364 94.8722C200.364 95.3097 200.238 95.7008 199.987 96.0455C199.738 96.3902 199.39 96.6619 198.942 96.8608C198.495 97.0597 197.975 97.1591 197.381 97.1591C196.603 97.1591 195.958 96.9901 195.447 96.652C194.937 96.3139 194.614 95.8201 194.478 95.1705L195.592 94.892C195.698 95.303 195.898 95.6113 196.193 95.8168C196.491 96.0223 196.881 96.125 197.362 96.125C197.908 96.125 198.343 96.009 198.664 95.777C198.989 95.5417 199.151 95.2599 199.151 94.9318C199.151 94.6667 199.058 94.4446 198.873 94.2656C198.687 94.0833 198.402 93.9474 198.018 93.858L196.745 93.5597C196.046 93.3939 195.532 93.1371 195.204 92.7891C194.879 92.4377 194.717 91.9986 194.717 91.4716C194.717 91.0407 194.838 90.6596 195.08 90.3281C195.325 89.9967 195.658 89.7365 196.079 89.5476C196.503 89.3587 196.984 89.2642 197.521 89.2642C198.276 89.2642 198.87 89.4299 199.3 89.7614C199.735 90.0928 200.043 90.5303 200.225 91.0739Z" fill="white"/>
<path d="M57.1413 44.8182V55H55.9084V46.1108H55.8487L53.3629 47.7614V46.5085L55.9084 44.8182H57.1413ZM60.0696 55V54.1051L63.4304 50.4261C63.8248 49.9953 64.1496 49.6207 64.4048 49.3026C64.66 48.9811 64.849 48.6795 64.9716 48.3977C65.0975 48.1127 65.1605 47.8144 65.1605 47.5028C65.1605 47.1449 65.0743 46.835 64.902 46.5732C64.733 46.3113 64.5009 46.1091 64.206 45.9666C63.911 45.8241 63.5795 45.7528 63.2116 45.7528C62.8205 45.7528 62.4792 45.834 62.1875 45.9964C61.8991 46.1555 61.6754 46.3793 61.5163 46.6676C61.3606 46.956 61.2827 47.294 61.2827 47.6818H60.1094C60.1094 47.0852 60.2469 46.5616 60.522 46.1108C60.7971 45.66 61.1716 45.3087 61.6456 45.0568C62.1229 44.8049 62.6581 44.679 63.2514 44.679C63.848 44.679 64.3767 44.8049 64.8374 45.0568C65.2981 45.3087 65.6593 45.6484 65.9212 46.076C66.183 46.5036 66.3139 46.9792 66.3139 47.5028C66.3139 47.8774 66.246 48.2436 66.1101 48.6016C65.9775 48.9562 65.7455 49.3523 65.4141 49.7898C65.0859 50.224 64.6302 50.7543 64.0469 51.3807L61.7599 53.8267V53.9062H66.4929V55H60.0696Z" fill="white"/>
<path d="M177.011 44.8182V55H175.778V46.1108H175.719L173.233 47.7614V46.5085L175.778 44.8182H177.011ZM183.32 55.1392C182.903 55.1326 182.485 55.053 182.068 54.9006C181.65 54.7481 181.269 54.4912 180.924 54.13C180.579 53.7654 180.303 53.2732 180.094 52.6534C179.885 52.0303 179.781 51.2481 179.781 50.3068C179.781 49.4053 179.865 48.6065 180.034 47.9105C180.203 47.2112 180.448 46.6229 180.77 46.1456C181.091 45.665 181.479 45.3004 181.933 45.0518C182.391 44.8033 182.906 44.679 183.479 44.679C184.05 44.679 184.557 44.7933 185.001 45.022C185.448 45.2474 185.813 45.5623 186.095 45.9666C186.376 46.371 186.559 46.8366 186.641 47.3636H185.428C185.316 46.9062 185.097 46.5268 184.772 46.2251C184.447 45.9235 184.016 45.7727 183.479 45.7727C182.691 45.7727 182.069 46.1158 181.615 46.8018C181.164 47.4879 180.937 48.4508 180.934 49.6903H181.014C181.199 49.4086 181.42 49.1683 181.675 48.9695C181.933 48.7673 182.218 48.6115 182.53 48.5021C182.841 48.3928 183.171 48.3381 183.519 48.3381C184.103 48.3381 184.636 48.4839 185.12 48.7756C185.604 49.0639 185.992 49.4633 186.283 49.9737C186.575 50.4808 186.721 51.0625 186.721 51.7188C186.721 52.3485 186.58 52.9252 186.298 53.4489C186.017 53.9692 185.621 54.3835 185.11 54.6918C184.603 54.9967 184.006 55.1458 183.32 55.1392ZM183.32 54.0455C183.738 54.0455 184.113 53.9411 184.444 53.7322C184.779 53.5234 185.042 53.2434 185.234 52.892C185.43 52.5407 185.528 52.1496 185.528 51.7188C185.528 51.2978 185.433 50.915 185.244 50.5703C185.059 50.2223 184.802 49.9455 184.474 49.7401C184.149 49.5346 183.778 49.4318 183.36 49.4318C183.045 49.4318 182.752 49.4948 182.48 49.6207C182.208 49.7434 181.97 49.9124 181.764 50.1278C181.562 50.3433 181.403 50.5902 181.287 50.8686C181.171 51.1437 181.113 51.4337 181.113 51.7386C181.113 52.143 181.207 52.5208 181.396 52.8722C181.589 53.2235 181.85 53.5069 182.182 53.7223C182.517 53.9377 182.896 54.0455 183.32 54.0455Z" fill="white"/>
<path d="M61.0373 156.139C60.381 156.139 59.796 156.027 59.2823 155.801C58.7719 155.576 58.3659 155.263 58.0643 154.862C57.766 154.457 57.6036 153.988 57.5771 153.455H58.8299C58.8564 153.783 58.9691 154.066 59.168 154.305C59.3668 154.54 59.627 154.722 59.9485 154.852C60.27 154.981 60.6263 155.045 61.0174 155.045C61.4549 155.045 61.8427 154.969 62.1808 154.817C62.5188 154.664 62.784 154.452 62.9762 154.18C63.1684 153.909 63.2646 153.594 63.2646 153.236C63.2646 152.861 63.1718 152.531 62.9862 152.246C62.8005 151.958 62.5288 151.733 62.1708 151.57C61.8129 151.408 61.3754 151.327 60.8583 151.327H60.043V150.233H60.8583C61.2627 150.233 61.6173 150.16 61.9222 150.014C62.2305 149.868 62.4708 149.663 62.6431 149.398C62.8188 149.133 62.9066 148.821 62.9066 148.463C62.9066 148.118 62.8304 147.818 62.6779 147.563C62.5254 147.308 62.31 147.109 62.0316 146.967C61.7565 146.824 61.4317 146.753 61.0572 146.753C60.7058 146.753 60.3744 146.817 60.0629 146.947C59.7546 147.073 59.5027 147.257 59.3072 147.499C59.1116 147.737 59.0056 148.026 58.989 148.364H57.7958C57.8157 147.83 57.9764 147.363 58.2781 146.962C58.5797 146.557 58.9741 146.242 59.4613 146.017C59.9518 145.792 60.4904 145.679 61.0771 145.679C61.7068 145.679 62.247 145.807 62.6978 146.062C63.1486 146.314 63.4949 146.647 63.7369 147.061C63.9788 147.475 64.0998 147.923 64.0998 148.403C64.0998 148.977 63.949 149.466 63.6474 149.87C63.3491 150.274 62.9431 150.554 62.4293 150.71V150.79C63.0723 150.896 63.5745 151.169 63.9357 151.61C64.297 152.048 64.4776 152.589 64.4776 153.236C64.4776 153.789 64.3268 154.286 64.0252 154.727C63.7269 155.165 63.3192 155.509 62.8022 155.761C62.2852 156.013 61.6969 156.139 61.0373 156.139Z" fill="white"/>
<path d="M178.011 145.818V156H176.778V147.111H176.719L174.233 148.761V147.509L176.778 145.818H178.011ZM184.32 156.139C183.903 156.133 183.485 156.053 183.068 155.901C182.65 155.748 182.269 155.491 181.924 155.13C181.579 154.765 181.303 154.273 181.094 153.653C180.885 153.03 180.781 152.248 180.781 151.307C180.781 150.405 180.865 149.607 181.034 148.911C181.203 148.211 181.448 147.623 181.77 147.146C182.091 146.665 182.479 146.3 182.933 146.052C183.391 145.803 183.906 145.679 184.479 145.679C185.05 145.679 185.557 145.793 186.001 146.022C186.448 146.247 186.813 146.562 187.095 146.967C187.376 147.371 187.559 147.837 187.641 148.364H186.428C186.316 147.906 186.097 147.527 185.772 147.225C185.447 146.924 185.016 146.773 184.479 146.773C183.691 146.773 183.069 147.116 182.615 147.802C182.164 148.488 181.937 149.451 181.934 150.69H182.014C182.199 150.409 182.42 150.168 182.675 149.969C182.933 149.767 183.218 149.612 183.53 149.502C183.841 149.393 184.171 149.338 184.519 149.338C185.103 149.338 185.636 149.484 186.12 149.776C186.604 150.064 186.992 150.463 187.283 150.974C187.575 151.481 187.721 152.062 187.721 152.719C187.721 153.348 187.58 153.925 187.298 154.449C187.017 154.969 186.621 155.384 186.11 155.692C185.603 155.997 185.006 156.146 184.32 156.139ZM184.32 155.045C184.738 155.045 185.113 154.941 185.444 154.732C185.779 154.523 186.042 154.243 186.234 153.892C186.43 153.541 186.528 153.15 186.528 152.719C186.528 152.298 186.433 151.915 186.244 151.57C186.059 151.222 185.802 150.946 185.474 150.74C185.149 150.535 184.778 150.432 184.36 150.432C184.045 150.432 183.752 150.495 183.48 150.621C183.208 150.743 182.97 150.912 182.764 151.128C182.562 151.343 182.403 151.59 182.287 151.869C182.171 152.144 182.113 152.434 182.113 152.739C182.113 153.143 182.207 153.521 182.396 153.872C182.589 154.223 182.85 154.507 183.182 154.722C183.517 154.938 183.896 155.045 184.32 155.045Z" fill="white"/>
<path d="M47.0179 166.364C46.9583 165.86 46.7163 165.469 46.2921 165.19C45.8678 164.912 45.3475 164.773 44.731 164.773C44.2802 164.773 43.8858 164.846 43.5478 164.991C43.213 165.137 42.9512 165.338 42.7623 165.593C42.5766 165.848 42.4838 166.138 42.4838 166.463C42.4838 166.735 42.5485 166.969 42.6777 167.164C42.8103 167.356 42.9793 167.517 43.1848 167.646C43.3903 167.772 43.6058 167.877 43.8311 167.96C44.0565 168.039 44.2637 168.104 44.4526 168.153L45.4867 168.432C45.7518 168.501 46.0468 168.598 46.3716 168.72C46.6998 168.843 47.013 169.01 47.3113 169.222C47.6129 169.431 47.8614 169.7 48.057 170.028C48.2525 170.356 48.3503 170.759 48.3503 171.236C48.3503 171.786 48.2061 172.283 47.9178 172.727C47.6328 173.171 47.2151 173.524 46.665 173.786C46.1181 174.048 45.4535 174.179 44.6713 174.179C43.9422 174.179 43.3108 174.061 42.7772 173.826C42.2469 173.591 41.8292 173.263 41.5243 172.842C41.2227 172.421 41.052 171.932 41.0123 171.375H42.285C42.3181 171.759 42.4474 172.078 42.6728 172.33C42.9015 172.578 43.1898 172.764 43.5378 172.886C43.8891 173.006 44.267 173.065 44.6713 173.065C45.142 173.065 45.5646 172.989 45.9391 172.837C46.3136 172.681 46.6103 172.465 46.829 172.19C47.0478 171.912 47.1571 171.587 47.1571 171.216C47.1571 170.878 47.0627 170.603 46.8738 170.391C46.6848 170.179 46.4363 170.006 46.128 169.874C45.8198 169.741 45.4867 169.625 45.1287 169.526L43.8759 169.168C43.0804 168.939 42.4507 168.612 41.9867 168.188C41.5227 167.764 41.2907 167.209 41.2907 166.523C41.2907 165.953 41.4448 165.455 41.753 165.031C42.0646 164.604 42.4822 164.272 43.0059 164.037C43.5328 163.798 44.1212 163.679 44.7708 163.679C45.427 163.679 46.0104 163.797 46.5208 164.032C47.0312 164.264 47.4355 164.582 47.7338 164.987C48.0355 165.391 48.1945 165.85 48.2111 166.364H47.0179ZM50.2184 174V166.364H51.3519V167.557H51.4513C51.6104 167.149 51.8673 166.833 52.2219 166.607C52.5766 166.379 53.0025 166.264 53.4996 166.264C54.0034 166.264 54.4227 166.379 54.7575 166.607C55.0955 166.833 55.359 167.149 55.5479 167.557H55.6275C55.823 167.162 56.1164 166.849 56.5075 166.617C56.8986 166.382 57.3675 166.264 57.9144 166.264C58.5972 166.264 59.1557 166.478 59.5898 166.906C60.024 167.33 60.2411 167.991 60.2411 168.889V174H59.0678V168.889C59.0678 168.326 58.9137 167.923 58.6055 167.681C58.2972 167.439 57.9343 167.318 57.5167 167.318C56.9798 167.318 56.5638 167.481 56.2688 167.805C55.9738 168.127 55.8263 168.535 55.8263 169.028V174H54.6332V168.77C54.6332 168.336 54.4923 167.986 54.2106 167.721C53.9289 167.452 53.5659 167.318 53.1218 167.318C52.8169 167.318 52.5318 167.399 52.2667 167.562C52.0049 167.724 51.7927 167.95 51.6303 168.238C51.4712 168.523 51.3917 168.853 51.3917 169.227V174H50.2184ZM64.6335 174.179C64.1496 174.179 63.7105 174.088 63.3161 173.906C62.9216 173.72 62.6084 173.453 62.3764 173.105C62.1444 172.754 62.0284 172.33 62.0284 171.832C62.0284 171.395 62.1146 171.04 62.2869 170.768C62.4593 170.493 62.6896 170.278 62.978 170.122C63.2663 169.966 63.5845 169.85 63.9325 169.774C64.2839 169.695 64.6368 169.632 64.9915 169.585C65.4555 169.526 65.8317 169.481 66.12 169.451C66.4117 169.418 66.6238 169.363 66.7564 169.287C66.8923 169.211 66.9602 169.078 66.9602 168.889V168.849C66.9602 168.359 66.826 167.978 66.5575 167.706C66.2924 167.434 65.8897 167.298 65.3494 167.298C64.7893 167.298 64.3501 167.421 64.032 167.666C63.7138 167.911 63.4901 168.173 63.3608 168.452L62.2472 168.054C62.446 167.59 62.7112 167.229 63.0426 166.97C63.3774 166.708 63.742 166.526 64.1364 166.423C64.5341 166.317 64.9252 166.264 65.3097 166.264C65.5549 166.264 65.8366 166.294 66.1548 166.354C66.4763 166.41 66.7862 166.528 67.0845 166.707C67.3861 166.886 67.6364 167.156 67.8352 167.517C68.0341 167.878 68.1335 168.362 68.1335 168.969V174H66.9602V172.966H66.9006C66.821 173.132 66.6884 173.309 66.5028 173.498C66.3172 173.687 66.0703 173.848 65.7621 173.98C65.4538 174.113 65.0777 174.179 64.6335 174.179ZM64.8125 173.125C65.2765 173.125 65.6676 173.034 65.9858 172.852C66.3073 172.669 66.5492 172.434 66.7116 172.146C66.8774 171.857 66.9602 171.554 66.9602 171.236V170.162C66.9105 170.222 66.8011 170.276 66.6321 170.326C66.4664 170.372 66.2741 170.414 66.0554 170.45C65.84 170.483 65.6295 170.513 65.424 170.54C65.2218 170.563 65.0578 170.583 64.9318 170.599C64.6269 170.639 64.3419 170.704 64.0767 170.793C63.8149 170.879 63.6027 171.01 63.4403 171.186C63.2813 171.358 63.2017 171.594 63.2017 171.892C63.2017 172.3 63.3525 172.608 63.6541 172.817C63.959 173.022 64.3452 173.125 64.8125 173.125ZM71.4483 163.818V174H70.275V163.818H71.4483ZM74.7706 163.818V174H73.5973V163.818H74.7706ZM35.3453 191V180.818H41.4504V181.912H36.5782V185.352H40.993V186.446H36.5782V191H35.3453ZM43.403 191V183.364H44.5763V191H43.403ZM43.9996 182.091C43.7709 182.091 43.5737 182.013 43.4079 181.857C43.2455 181.701 43.1643 181.514 43.1643 181.295C43.1643 181.077 43.2455 180.889 43.4079 180.734C43.5737 180.578 43.7709 180.5 43.9996 180.5C44.2282 180.5 44.4238 180.578 44.5862 180.734C44.7519 180.889 44.8348 181.077 44.8348 181.295C44.8348 181.514 44.7519 181.701 44.5862 181.857C44.4238 182.013 44.2282 182.091 43.9996 182.091ZM47.8985 186.406V191H46.7252V183.364H47.8588V184.557H47.9582C48.1372 184.169 48.4089 183.857 48.7735 183.622C49.1381 183.384 49.6088 183.264 50.1855 183.264C50.7025 183.264 51.1549 183.37 51.5427 183.582C51.9305 183.791 52.2321 184.109 52.4475 184.537C52.663 184.961 52.7707 185.498 52.7707 186.148V191H51.5974V186.227C51.5974 185.627 51.4416 185.16 51.1301 184.825C50.8185 184.487 50.391 184.318 49.8474 184.318C49.4729 184.318 49.1381 184.399 48.8431 184.562C48.5515 184.724 48.3211 184.961 48.1521 185.273C47.983 185.584 47.8985 185.962 47.8985 186.406ZM57.1618 191.179C56.6779 191.179 56.2388 191.088 55.8444 190.906C55.45 190.72 55.1367 190.453 54.9047 190.105C54.6727 189.754 54.5567 189.33 54.5567 188.832C54.5567 188.395 54.6429 188.04 54.8153 187.768C54.9876 187.493 55.218 187.278 55.5063 187.122C55.7947 186.966 56.1128 186.85 56.4608 186.774C56.8122 186.695 57.1652 186.632 57.5198 186.585C57.9838 186.526 58.36 186.481 58.6483 186.451C58.94 186.418 59.1521 186.363 59.2847 186.287C59.4206 186.211 59.4885 186.078 59.4885 185.889V185.849C59.4885 185.359 59.3543 184.978 59.0858 184.706C58.8207 184.434 58.418 184.298 57.8778 184.298C57.3176 184.298 56.8785 184.421 56.5603 184.666C56.2421 184.911 56.0184 185.173 55.8891 185.452L54.7755 185.054C54.9743 184.59 55.2395 184.229 55.5709 183.97C55.9057 183.708 56.2703 183.526 56.6647 183.423C57.0624 183.317 57.4535 183.264 57.838 183.264C58.0832 183.264 58.365 183.294 58.6831 183.354C59.0046 183.41 59.3145 183.528 59.6128 183.707C59.9144 183.886 60.1647 184.156 60.3635 184.517C60.5624 184.878 60.6618 185.362 60.6618 185.969V191H59.4885V189.966H59.4289C59.3493 190.132 59.2168 190.309 59.0312 190.498C58.8456 190.687 58.5986 190.848 58.2904 190.98C57.9822 191.113 57.606 191.179 57.1618 191.179ZM57.3408 190.125C57.8048 190.125 58.1959 190.034 58.5141 189.852C58.8356 189.669 59.0776 189.434 59.24 189.146C59.4057 188.857 59.4885 188.554 59.4885 188.236V187.162C59.4388 187.222 59.3295 187.276 59.1604 187.326C58.9947 187.372 58.8025 187.414 58.5837 187.45C58.3683 187.483 58.1578 187.513 57.9523 187.54C57.7501 187.563 57.5861 187.583 57.4601 187.599C57.1552 187.639 56.8702 187.704 56.605 187.793C56.3432 187.879 56.1311 188.01 55.9687 188.186C55.8096 188.358 55.73 188.594 55.73 188.892C55.73 189.3 55.8808 189.608 56.1824 189.817C56.4874 190.022 56.8735 190.125 57.3408 190.125ZM63.9767 186.406V191H62.8034V183.364H63.9369V184.557H64.0363C64.2153 184.169 64.4871 183.857 64.8517 183.622C65.2162 183.384 65.6869 183.264 66.2636 183.264C66.7806 183.264 67.233 183.37 67.6208 183.582C68.0086 183.791 68.3102 184.109 68.5257 184.537C68.7411 184.961 68.8488 185.498 68.8488 186.148V191H67.6755V186.227C67.6755 185.627 67.5197 185.16 67.2082 184.825C66.8966 184.487 66.4691 184.318 65.9255 184.318C65.551 184.318 65.2162 184.399 64.9213 184.562C64.6296 184.724 64.3992 184.961 64.2302 185.273C64.0612 185.584 63.9767 185.962 63.9767 186.406ZM74.0951 191.159C73.3792 191.159 72.7627 190.99 72.2456 190.652C71.7286 190.314 71.3309 189.848 71.0525 189.255C70.7741 188.662 70.6349 187.984 70.6349 187.222C70.6349 186.446 70.7774 185.762 71.0624 185.168C71.3508 184.572 71.7518 184.106 72.2655 183.771C72.7826 183.433 73.3858 183.264 74.0752 183.264C74.6121 183.264 75.096 183.364 75.5269 183.562C75.9578 183.761 76.3108 184.04 76.5858 184.398C76.8609 184.756 77.0316 185.173 77.0979 185.651H75.9246C75.8351 185.303 75.6363 184.994 75.328 184.726C75.0231 184.454 74.6121 184.318 74.0951 184.318C73.6377 184.318 73.2367 184.437 72.892 184.676C72.5506 184.911 72.2838 185.245 72.0915 185.675C71.9026 186.103 71.8081 186.605 71.8081 187.182C71.8081 187.772 71.901 188.286 72.0866 188.723C72.2755 189.161 72.5406 189.5 72.882 189.742C73.2267 189.984 73.6311 190.105 74.0951 190.105C74.4 190.105 74.6768 190.052 74.9253 189.946C75.1739 189.84 75.3844 189.688 75.5567 189.489C75.7291 189.29 75.8517 189.051 75.9246 188.773H77.0979C77.0316 189.223 76.8676 189.629 76.6057 189.991C76.3472 190.349 76.0042 190.634 75.5766 190.846C75.1524 191.055 74.6585 191.159 74.0951 191.159ZM82.0148 191.159C81.279 191.159 80.6443 190.997 80.1107 190.672C79.5804 190.344 79.1711 189.886 78.8827 189.3C78.5977 188.71 78.4552 188.024 78.4552 187.241C78.4552 186.459 78.5977 185.77 78.8827 185.173C79.1711 184.573 79.5721 184.106 80.0858 183.771C80.6029 183.433 81.2061 183.264 81.8955 183.264C82.2932 183.264 82.686 183.33 83.0738 183.463C83.4616 183.596 83.8145 183.811 84.1327 184.109C84.4509 184.404 84.7045 184.795 84.8934 185.283C85.0823 185.77 85.1768 186.37 85.1768 187.082V187.58H79.2904V186.565H83.9836C83.9836 186.134 83.8974 185.75 83.7251 185.412C83.556 185.074 83.3141 184.807 82.9992 184.612C82.6876 184.416 82.3198 184.318 81.8955 184.318C81.4282 184.318 81.0238 184.434 80.6824 184.666C80.3444 184.895 80.0842 185.193 79.9019 185.561C79.7196 185.929 79.6285 186.323 79.6285 186.744V187.42C79.6285 187.997 79.7279 188.486 79.9268 188.887C80.1289 189.285 80.409 189.588 80.767 189.797C81.1249 190.002 81.5409 190.105 82.0148 190.105C82.3231 190.105 82.6015 190.062 82.8501 189.976C83.1019 189.886 83.319 189.754 83.5013 189.578C83.6836 189.399 83.8245 189.177 83.9239 188.912L85.0574 189.23C84.9381 189.615 84.7376 189.953 84.4559 190.244C84.1742 190.533 83.8261 190.758 83.4118 190.92C82.9975 191.08 82.5319 191.159 82.0148 191.159Z" fill="white"/>
<path d="M170.282 168.818V179H169.089L163.541 171.006H163.441V179H162.209V168.818H163.402L168.97 176.832H169.069V168.818H170.282ZM172.75 179V168.818H176.309C177.018 168.818 177.603 168.941 178.064 169.186C178.525 169.428 178.868 169.754 179.093 170.165C179.319 170.573 179.431 171.026 179.431 171.523C179.431 171.96 179.353 172.321 179.198 172.607C179.045 172.892 178.843 173.117 178.591 173.283C178.343 173.448 178.072 173.571 177.781 173.651V173.75C178.092 173.77 178.406 173.879 178.72 174.078C179.035 174.277 179.299 174.562 179.511 174.933C179.723 175.304 179.829 175.759 179.829 176.295C179.829 176.806 179.713 177.265 179.481 177.673C179.249 178.08 178.883 178.403 178.382 178.642C177.882 178.881 177.231 179 176.429 179H172.75ZM173.983 177.906H176.429C177.234 177.906 177.806 177.75 178.144 177.439C178.485 177.124 178.656 176.743 178.656 176.295C178.656 175.951 178.568 175.633 178.392 175.341C178.217 175.046 177.966 174.811 177.642 174.635C177.317 174.456 176.932 174.366 176.488 174.366H173.983V177.906ZM173.983 173.293H176.269C176.641 173.293 176.975 173.22 177.274 173.074C177.575 172.928 177.814 172.723 177.99 172.457C178.169 172.192 178.258 171.881 178.258 171.523C178.258 171.075 178.102 170.696 177.791 170.384C177.479 170.069 176.985 169.912 176.309 169.912H173.983V173.293ZM181.855 179V168.818H187.96V169.912H183.088V173.352H187.503V174.446H183.088V179H181.855ZM198.265 172H197.032C196.959 171.645 196.832 171.334 196.649 171.065C196.47 170.797 196.252 170.571 195.993 170.389C195.738 170.204 195.454 170.064 195.143 169.972C194.831 169.879 194.506 169.832 194.168 169.832C193.552 169.832 192.993 169.988 192.493 170.3C191.996 170.611 191.6 171.07 191.305 171.677C191.013 172.283 190.867 173.027 190.867 173.909C190.867 174.791 191.013 175.535 191.305 176.141C191.6 176.748 191.996 177.207 192.493 177.518C192.993 177.83 193.552 177.986 194.168 177.986C194.506 177.986 194.831 177.939 195.143 177.847C195.454 177.754 195.738 177.616 195.993 177.434C196.252 177.248 196.47 177.021 196.649 176.753C196.832 176.481 196.959 176.17 197.032 175.818H198.265C198.172 176.339 198.003 176.804 197.758 177.215C197.513 177.626 197.208 177.976 196.843 178.264C196.479 178.549 196.069 178.766 195.615 178.915C195.164 179.065 194.682 179.139 194.168 179.139C193.3 179.139 192.528 178.927 191.852 178.503C191.176 178.079 190.644 177.475 190.256 176.693C189.868 175.911 189.674 174.983 189.674 173.909C189.674 172.835 189.868 171.907 190.256 171.125C190.644 170.343 191.176 169.74 191.852 169.315C192.528 168.891 193.3 168.679 194.168 168.679C194.682 168.679 195.164 168.754 195.615 168.903C196.069 169.052 196.479 169.271 196.843 169.559C197.208 169.844 197.513 170.192 197.758 170.603C198.003 171.011 198.172 171.476 198.265 172Z" fill="white"/>
</g>
<defs>
<filter id="filter0_d_502_1255" x="136" y="30" width="88" height="88" filterUnits="userSpaceOnUse" color-interpolation-filters="sRGB">
<feFlood flood-opacity="0" result="BackgroundImageFix"/>
<feColorMatrix in="SourceAlpha" type="matrix" values="0 0 0 0 0 0 0 0 0 0 0 0 0 0 0 0 0 0 127 0" result="hardAlpha"/>
<feOffset dy="4"/>
<feGaussianBlur stdDeviation="2"/>
<feComposite in2="hardAlpha" operator="out"/>
<feColorMatrix type="matrix" values="0 0 0 0 0 0 0 0 0 0 0 0 0 0 0 0 0 0 0.25 0"/>
<feBlend mode="normal" in2="BackgroundImageFix" result="effect1_dropShadow_502_1255"/>
<feBlend mode="normal" in="SourceGraphic" in2="effect1_dropShadow_502_1255" result="shape"/>
</filter>
<filter id="filter1_d_502_1255" x="16" y="125" width="88" height="88" filterUnits="userSpaceOnUse" color-interpolation-filters="sRGB">
<feFlood flood-opacity="0" result="BackgroundImageFix"/>
<feColorMatrix in="SourceAlpha" type="matrix" values="0 0 0 0 0 0 0 0 0 0 0 0 0 0 0 0 0 0 127 0" result="hardAlpha"/>
<feOffset dy="4"/>
<feGaussianBlur stdDeviation="2"/>
<feComposite in2="hardAlpha" operator="out"/>
<feColorMatrix type="matrix" values="0 0 0 0 0 0 0 0 0 0 0 0 0 0 0 0 0 0 0.25 0"/>
<feBlend mode="normal" in2="BackgroundImageFix" result="effect1_dropShadow_502_1255"/>
<feBlend mode="normal" in="SourceGraphic" in2="effect1_dropShadow_502_1255" result="shape"/>
</filter>
<filter id="filter2_d_502_1255" x="136" y="125" width="88" height="88" filterUnits="userSpaceOnUse" color-interpolation-filters="sRGB">
<feFlood flood-opacity="0" result="BackgroundImageFix"/>
<feColorMatrix in="SourceAlpha" type="matrix" values="0 0 0 0 0 0 0 0 0 0 0 0 0 0 0 0 0 0 127 0" result="hardAlpha"/>
<feOffset dy="4"/>
<feGaussianBlur stdDeviation="2"/>
<feComposite in2="hardAlpha" operator="out"/>
<feColorMatrix type="matrix" values="0 0 0 0 0 0 0 0 0 0 0 0 0 0 0 0 0 0 0.25 0"/>
<feBlend mode="normal" in2="BackgroundImageFix" result="effect1_dropShadow_502_1255"/>
<feBlend mode="normal" in="SourceGraphic" in2="effect1_dropShadow_502_1255" result="shape"/>
</filter>
<clipPath id="clip0_502_1255">
<rect width="240" height="210" fill="white"/>
</clipPath>
</defs>
</svg>
