<svg width="240" height="210" viewBox="0 0 240 210" fill="none" xmlns="http://www.w3.org/2000/svg">
<g clip-path="url(#clip0_502_1290)">
<rect width="240" height="210" fill="#1D1D1D"/>
<g clip-path="url(#clip1_502_1290)">
<rect width="240" height="210" rx="20" fill="#1D1D1D"/>
<g filter="url(#filter0_d_502_1290)">
<rect x="80" y="125" width="80" height="80" rx="20" fill="#1D1D1D"/>
</g>
<g filter="url(#filter1_d_502_1290)">
<rect x="142" y="30" width="80" height="80" rx="20" fill="#1D1D1D"/>
</g>
<path d="M43.5158 16H39.9064V5.81818H43.5456C44.5698 5.81818 45.4514 6.02202 46.1905 6.42969C46.9296 6.83404 47.498 7.41572 47.8958 8.17472C48.2968 8.93371 48.4973 9.84186 48.4973 10.8991C48.4973 11.9598 48.2968 12.8712 47.8958 13.6335C47.498 14.3958 46.9263 14.9808 46.1806 15.3885C45.4382 15.7962 44.5499 16 43.5158 16ZM42.0591 14.1555H43.4263C44.0627 14.1555 44.598 14.0429 45.0321 13.8175C45.4696 13.5888 45.7978 13.2358 46.0165 12.7585C46.2386 12.2779 46.3496 11.6581 46.3496 10.8991C46.3496 10.1468 46.2386 9.53196 46.0165 9.05469C45.7978 8.57741 45.4713 8.22609 45.0371 8.00071C44.6029 7.77533 44.0676 7.66264 43.4313 7.66264H42.0591V14.1555ZM52.2298 16.1442C51.7425 16.1442 51.3084 16.0597 50.9272 15.8906C50.546 15.7183 50.2444 15.4647 50.0224 15.13C49.8036 14.7919 49.6942 14.371 49.6942 13.8672C49.6942 13.4429 49.7721 13.0866 49.9279 12.7983C50.0837 12.5099 50.2958 12.2779 50.5643 12.1023C50.8327 11.9266 51.1377 11.794 51.479 11.7045C51.8237 11.6151 52.185 11.5521 52.5629 11.5156C53.007 11.4692 53.3649 11.4261 53.6367 11.3864C53.9085 11.3433 54.1057 11.2803 54.2283 11.1974C54.351 11.1146 54.4123 10.992 54.4123 10.8295V10.7997C54.4123 10.4848 54.3129 10.2412 54.114 10.0689C53.9184 9.89654 53.64 9.81037 53.2788 9.81037C52.8976 9.81037 52.5943 9.89489 52.369 10.0639C52.1436 10.2296 51.9944 10.4384 51.9215 10.6903L49.9627 10.5312C50.0621 10.0672 50.2577 9.66619 50.5494 9.32812C50.841 8.98674 51.2172 8.7249 51.6779 8.54261C52.1419 8.35701 52.6789 8.2642 53.2887 8.2642C53.7129 8.2642 54.119 8.31392 54.5067 8.41335C54.8978 8.51278 55.2442 8.6669 55.5458 8.87571C55.8507 9.08452 56.091 9.35298 56.2667 9.68111C56.4424 10.0059 56.5302 10.3954 56.5302 10.8494V16H54.5217V14.9411H54.462C54.3394 15.1797 54.1753 15.3902 53.9698 15.5724C53.7643 15.7514 53.5174 15.8923 53.229 15.995C52.9407 16.0945 52.6076 16.1442 52.2298 16.1442ZM52.8363 14.6825C53.1478 14.6825 53.4229 14.6212 53.6616 14.4986C53.9002 14.3726 54.0875 14.2036 54.2234 13.9915C54.3593 13.7794 54.4272 13.5391 54.4272 13.2706V12.4602C54.3609 12.5033 54.2698 12.5431 54.1538 12.5795C54.0411 12.6127 53.9135 12.6442 53.771 12.674C53.6284 12.7005 53.4859 12.7254 53.3434 12.7486C53.2009 12.7685 53.0716 12.7867 52.9556 12.8033C52.707 12.8397 52.4899 12.8977 52.3043 12.9773C52.1187 13.0568 51.9746 13.1645 51.8718 13.3004C51.7691 13.433 51.7177 13.5987 51.7177 13.7976C51.7177 14.0859 51.8221 14.3063 52.0309 14.4588C52.243 14.608 52.5115 14.6825 52.8363 14.6825ZM62.2351 8.36364V9.95455H57.6364V8.36364H62.2351ZM58.6804 6.53409H60.7983V13.6534C60.7983 13.849 60.8281 14.0014 60.8878 14.1108C60.9474 14.2169 61.0303 14.2914 61.1364 14.3345C61.2457 14.3776 61.3717 14.3991 61.5142 14.3991C61.6136 14.3991 61.7131 14.3909 61.8125 14.3743C61.9119 14.3544 61.9882 14.3395 62.0412 14.3295L62.3743 15.9055C62.2682 15.9387 62.1191 15.9768 61.9268 16.0199C61.7346 16.0663 61.5009 16.0945 61.2259 16.1044C60.7154 16.1243 60.268 16.0563 59.8835 15.9006C59.5024 15.7448 59.2057 15.5028 58.9936 15.1747C58.7815 14.8466 58.6771 14.4323 58.6804 13.9318V6.53409ZM65.7923 16.1442C65.305 16.1442 64.8709 16.0597 64.4897 15.8906C64.1085 15.7183 63.8069 15.4647 63.5849 15.13C63.3661 14.7919 63.2567 14.371 63.2567 13.8672C63.2567 13.4429 63.3346 13.0866 63.4904 12.7983C63.6462 12.5099 63.8583 12.2779 64.1268 12.1023C64.3952 11.9266 64.7002 11.794 65.0415 11.7045C65.3862 11.6151 65.7475 11.5521 66.1254 11.5156C66.5695 11.4692 66.9274 11.4261 67.1992 11.3864C67.471 11.3433 67.6682 11.2803 67.7908 11.1974C67.9135 11.1146 67.9748 10.992 67.9748 10.8295V10.7997C67.9748 10.4848 67.8754 10.2412 67.6765 10.0689C67.4809 9.89654 67.2025 9.81037 66.8413 9.81037C66.4601 9.81037 66.1568 9.89489 65.9315 10.0639C65.7061 10.2296 65.5569 10.4384 65.484 10.6903L63.5252 10.5312C63.6246 10.0672 63.8202 9.66619 64.1119 9.32812C64.4035 8.98674 64.7797 8.7249 65.2404 8.54261C65.7044 8.35701 66.2414 8.2642 66.8512 8.2642C67.2754 8.2642 67.6815 8.31392 68.0692 8.41335C68.4603 8.51278 68.8067 8.6669 69.1083 8.87571C69.4132 9.08452 69.6535 9.35298 69.8292 9.68111C70.0049 10.0059 70.0927 10.3954 70.0927 10.8494V16H68.0842V14.9411H68.0245C67.9019 15.1797 67.7378 15.3902 67.5323 15.5724C67.3268 15.7514 67.0799 15.8923 66.7915 15.995C66.5032 16.0945 66.1701 16.1442 65.7923 16.1442ZM66.3988 14.6825C66.7103 14.6825 66.9854 14.6212 67.2241 14.4986C67.4627 14.3726 67.65 14.2036 67.7859 13.9915C67.9218 13.7794 67.9897 13.5391 67.9897 13.2706V12.4602C67.9234 12.5033 67.8323 12.5431 67.7163 12.5795C67.6036 12.6127 67.476 12.6442 67.3335 12.674C67.1909 12.7005 67.0484 12.7254 66.9059 12.7486C66.7634 12.7685 66.6341 12.7867 66.5181 12.8033C66.2695 12.8397 66.0524 12.8977 65.8668 12.9773C65.6812 13.0568 65.5371 13.1645 65.4343 13.3004C65.3316 13.433 65.2802 13.5987 65.2802 13.7976C65.2802 14.0859 65.3846 14.3063 65.5934 14.4588C65.8055 14.608 66.074 14.6825 66.3988 14.6825ZM79.0826 8.36364V9.95455H74.3695V8.36364H79.0826ZM75.4483 16V7.81179C75.4483 7.25829 75.556 6.79924 75.7715 6.43466C75.9902 6.07008 76.2885 5.79664 76.6664 5.61435C77.0442 5.43205 77.4734 5.34091 77.954 5.34091C78.2788 5.34091 78.5755 5.36577 78.8439 5.41548C79.1157 5.4652 79.3179 5.50994 79.4505 5.54972L79.0726 7.14062C78.9898 7.11411 78.887 7.08925 78.7644 7.06605C78.6451 7.04285 78.5224 7.03125 78.3965 7.03125C78.0849 7.03125 77.8678 7.10417 77.7452 7.25C77.6226 7.39252 77.5613 7.59304 77.5613 7.85156V16H75.4483ZM80.3764 16V8.36364H82.4297V9.69602H82.5092C82.6484 9.22206 82.8821 8.86411 83.2102 8.62216C83.5384 8.37689 83.9162 8.25426 84.3438 8.25426C84.4498 8.25426 84.5642 8.26089 84.6868 8.27415C84.8094 8.28741 84.9171 8.30563 85.0099 8.32883V10.2081C84.9105 10.1783 84.773 10.1518 84.5973 10.1286C84.4216 10.1054 84.2609 10.0938 84.1151 10.0938C83.8035 10.0938 83.5251 10.1617 83.2798 10.2976C83.0379 10.4302 82.8456 10.6158 82.7031 10.8544C82.5639 11.093 82.4943 11.3681 82.4943 11.6797V16H80.3764ZM89.1998 16.1491C88.4275 16.1491 87.7596 15.9851 87.1962 15.657C86.6361 15.3255 86.2035 14.8648 85.8986 14.2749C85.5937 13.6816 85.4412 12.9938 85.4412 12.2116C85.4412 11.4228 85.5937 10.7334 85.8986 10.1435C86.2035 9.55019 86.6361 9.08949 87.1962 8.76136C87.7596 8.42992 88.4275 8.2642 89.1998 8.2642C89.972 8.2642 90.6382 8.42992 91.1983 8.76136C91.7618 9.08949 92.196 9.55019 92.5009 10.1435C92.8058 10.7334 92.9583 11.4228 92.9583 12.2116C92.9583 12.9938 92.8058 13.6816 92.5009 14.2749C92.196 14.8648 91.7618 15.3255 91.1983 15.657C90.6382 15.9851 89.972 16.1491 89.1998 16.1491ZM89.2097 14.5085C89.561 14.5085 89.8543 14.4091 90.0897 14.2102C90.325 14.008 90.5023 13.733 90.6216 13.3849C90.7443 13.0369 90.8056 12.6409 90.8056 12.1967C90.8056 11.7526 90.7443 11.3565 90.6216 11.0085C90.5023 10.6605 90.325 10.3854 90.0897 10.1832C89.8543 9.98106 89.561 9.87997 89.2097 9.87997C88.8551 9.87997 88.5568 9.98106 88.3148 10.1832C88.0762 10.3854 87.8955 10.6605 87.7729 11.0085C87.6536 11.3565 87.5939 11.7526 87.5939 12.1967C87.5939 12.6409 87.6536 13.0369 87.7729 13.3849C87.8955 13.733 88.0762 14.008 88.3148 14.2102C88.5568 14.4091 88.8551 14.5085 89.2097 14.5085ZM94.3354 16V8.36364H96.3539V9.71094H96.4434C96.6025 9.26349 96.8676 8.91051 97.2388 8.65199C97.61 8.39347 98.0542 8.2642 98.5712 8.2642C99.0949 8.2642 99.5407 8.39512 99.9086 8.65696C100.276 8.91548 100.522 9.26681 100.644 9.71094H100.724C100.88 9.27344 101.161 8.92377 101.569 8.66193C101.98 8.39678 102.466 8.2642 103.026 8.2642C103.738 8.2642 104.317 8.49124 104.761 8.94531C105.208 9.39607 105.432 10.0357 105.432 10.8643V16H103.319V11.282C103.319 10.8577 103.206 10.5395 102.981 10.3274C102.756 10.1153 102.474 10.0092 102.136 10.0092C101.751 10.0092 101.451 10.1319 101.236 10.3771C101.021 10.6191 100.913 10.9389 100.913 11.3366V16H98.8596V11.2372C98.8596 10.8627 98.7518 10.5644 98.5364 10.3423C98.3243 10.1203 98.0442 10.0092 97.6962 10.0092C97.4609 10.0092 97.2488 10.0689 97.0598 10.1882C96.8742 10.3042 96.7267 10.4683 96.6174 10.6804C96.508 10.8892 96.4533 11.1345 96.4533 11.4162V16H94.3354ZM110.728 16L114.949 7.64773V7.57812H110.032V5.81818H117.176V7.60298L112.95 16H110.728ZM124.725 16.1243C124.145 16.1243 123.62 15.9751 123.15 15.6768C122.682 15.3752 122.311 14.9328 122.036 14.3494C121.764 13.7628 121.628 13.0436 121.628 12.1918C121.628 11.3168 121.769 10.5893 122.051 10.0092C122.333 9.4259 122.707 8.99006 123.174 8.7017C123.645 8.41004 124.16 8.2642 124.721 8.2642C125.148 8.2642 125.504 8.33712 125.789 8.48295C126.078 8.62547 126.31 8.80445 126.485 9.01989C126.664 9.23201 126.8 9.44081 126.893 9.64631H126.958V5.81818H129.071V16H126.983V14.777H126.893C126.794 14.9891 126.653 15.1996 126.471 15.4084C126.292 15.6139 126.058 15.7846 125.77 15.9205C125.484 16.0563 125.136 16.1243 124.725 16.1243ZM125.397 14.4389C125.738 14.4389 126.026 14.3461 126.262 14.1605C126.5 13.9716 126.683 13.7081 126.809 13.37C126.938 13.032 127.002 12.6359 127.002 12.1818C127.002 11.7277 126.94 11.3333 126.814 10.9986C126.688 10.6638 126.505 10.4053 126.267 10.223C126.028 10.0407 125.738 9.94957 125.397 9.94957C125.049 9.94957 124.755 10.044 124.517 10.233C124.278 10.4219 124.097 10.6837 123.975 11.0185C123.852 11.3532 123.791 11.741 123.791 12.1818C123.791 12.6259 123.852 13.0187 123.975 13.3601C124.101 13.6982 124.281 13.9633 124.517 14.1555C124.755 14.3445 125.049 14.4389 125.397 14.4389ZM132.99 16.1442C132.502 16.1442 132.068 16.0597 131.687 15.8906C131.306 15.7183 131.004 15.4647 130.782 15.13C130.563 14.7919 130.454 14.371 130.454 13.8672C130.454 13.4429 130.532 13.0866 130.688 12.7983C130.843 12.5099 131.056 12.2779 131.324 12.1023C131.593 11.9266 131.897 11.794 132.239 11.7045C132.584 11.6151 132.945 11.5521 133.323 11.5156C133.767 11.4692 134.125 11.4261 134.396 11.3864C134.668 11.3433 134.865 11.2803 134.988 11.1974C135.111 11.1146 135.172 10.992 135.172 10.8295V10.7997C135.172 10.4848 135.073 10.2412 134.874 10.0689C134.678 9.89654 134.4 9.81037 134.039 9.81037C133.657 9.81037 133.354 9.89489 133.129 10.0639C132.903 10.2296 132.754 10.4384 132.681 10.6903L130.722 10.5312C130.822 10.0672 131.017 9.66619 131.309 9.32812C131.601 8.98674 131.977 8.7249 132.438 8.54261C132.902 8.35701 133.439 8.2642 134.048 8.2642C134.473 8.2642 134.879 8.31392 135.267 8.41335C135.658 8.51278 136.004 8.6669 136.306 8.87571C136.61 9.08452 136.851 9.35298 137.026 9.68111C137.202 10.0059 137.29 10.3954 137.29 10.8494V16H135.281V14.9411H135.222C135.099 15.1797 134.935 15.3902 134.73 15.5724C134.524 15.7514 134.277 15.8923 133.989 15.995C133.7 16.0945 133.367 16.1442 132.99 16.1442ZM133.596 14.6825C133.908 14.6825 134.183 14.6212 134.421 14.4986C134.66 14.3726 134.847 14.2036 134.983 13.9915C135.119 13.7794 135.187 13.5391 135.187 13.2706V12.4602C135.121 12.5033 135.03 12.5431 134.914 12.5795C134.801 12.6127 134.673 12.6442 134.531 12.674C134.388 12.7005 134.246 12.7254 134.103 12.7486C133.961 12.7685 133.831 12.7867 133.715 12.8033C133.467 12.8397 133.25 12.8977 133.064 12.9773C132.878 13.0568 132.734 13.1645 132.632 13.3004C132.529 13.433 132.477 13.5987 132.477 13.7976C132.477 14.0859 132.582 14.3063 132.791 14.4588C133.003 14.608 133.271 14.6825 133.596 14.6825ZM139.967 18.8636C139.699 18.8636 139.447 18.8421 139.211 18.799C138.979 18.7592 138.787 18.7079 138.635 18.6449L139.112 17.0639C139.361 17.1402 139.584 17.1816 139.783 17.1882C139.985 17.1948 140.159 17.1484 140.305 17.049C140.454 16.9496 140.575 16.7805 140.668 16.5419L140.792 16.2188L138.053 8.36364H140.28L141.861 13.9716H141.941L143.537 8.36364H145.779L142.811 16.8253C142.668 17.2363 142.474 17.5942 142.229 17.8991C141.987 18.2074 141.681 18.4444 141.309 18.6101C140.938 18.7791 140.491 18.8636 139.967 18.8636ZM153.216 10.5412L151.278 10.6605C151.244 10.4948 151.173 10.3456 151.064 10.2131C150.954 10.0772 150.81 9.96946 150.631 9.88991C150.456 9.80705 150.245 9.76562 150 9.76562C149.672 9.76562 149.395 9.83523 149.17 9.97443C148.944 10.1103 148.831 10.2926 148.831 10.5213C148.831 10.7036 148.904 10.8577 149.05 10.9837C149.196 11.1096 149.446 11.2107 149.801 11.2869L151.183 11.5653C151.925 11.7178 152.479 11.9631 152.844 12.3011C153.208 12.6392 153.39 13.0833 153.39 13.6335C153.39 14.134 153.243 14.5732 152.948 14.951C152.656 15.3288 152.255 15.6238 151.745 15.8359C151.238 16.0447 150.653 16.1491 149.99 16.1491C148.979 16.1491 148.174 15.9387 147.574 15.5178C146.977 15.0935 146.627 14.5168 146.525 13.7876L148.608 13.6783C148.671 13.9865 148.823 14.2218 149.065 14.3842C149.307 14.5433 149.617 14.6229 149.995 14.6229C150.366 14.6229 150.664 14.5516 150.89 14.4091C151.118 14.2633 151.234 14.076 151.238 13.8473C151.234 13.6551 151.153 13.4976 150.994 13.375C150.835 13.2491 150.59 13.1529 150.258 13.0866L148.936 12.8232C148.19 12.674 147.635 12.4155 147.27 12.0476C146.909 11.6797 146.729 11.2107 146.729 10.6406C146.729 10.1501 146.861 9.72751 147.126 9.37287C147.395 9.01823 147.771 8.74479 148.255 8.55256C148.742 8.36032 149.312 8.2642 149.965 8.2642C150.93 8.2642 151.689 8.46804 152.242 8.87571C152.799 9.28338 153.124 9.83854 153.216 10.5412ZM162.722 10.0689V11.7493H158.079V10.0689H162.722ZM171.466 16.1392C170.763 16.1392 170.137 16.0099 169.587 15.7514C169.04 15.4929 168.606 15.1366 168.284 14.6825C167.963 14.2285 167.795 13.7081 167.782 13.1214H169.87C169.893 13.5159 170.059 13.8357 170.367 14.081C170.675 14.3262 171.042 14.4489 171.466 14.4489C171.804 14.4489 172.102 14.3743 172.361 14.2251C172.623 14.0727 172.826 13.8622 172.972 13.5938C173.121 13.322 173.196 13.0104 173.196 12.6591C173.196 12.3011 173.12 11.9863 172.967 11.7145C172.818 11.4427 172.611 11.2306 172.346 11.0781C172.081 10.9257 171.777 10.8478 171.436 10.8445C171.138 10.8445 170.848 10.9058 170.566 11.0284C170.288 11.151 170.071 11.3184 169.915 11.5305L168.001 11.1875L168.483 5.81818H174.707V7.57812H170.258L169.994 10.1286H170.054C170.233 9.87666 170.503 9.66785 170.864 9.50213C171.226 9.33641 171.63 9.25355 172.077 9.25355C172.691 9.25355 173.237 9.39773 173.718 9.68608C174.199 9.97443 174.578 10.3705 174.857 10.8743C175.135 11.3748 175.272 11.9515 175.269 12.6044C175.272 13.2905 175.113 13.9003 174.792 14.4339C174.474 14.9643 174.028 15.3819 173.455 15.6868C172.884 15.9884 172.222 16.1392 171.466 16.1392ZM181.338 18.8636C181.07 18.8636 180.818 18.8421 180.583 18.799C180.351 18.7592 180.158 18.7079 180.006 18.6449L180.483 17.0639C180.732 17.1402 180.955 17.1816 181.154 17.1882C181.356 17.1948 181.53 17.1484 181.676 17.049C181.825 16.9496 181.946 16.7805 182.039 16.5419L182.164 16.2188L179.424 8.36364H181.651L183.232 13.9716H183.312L184.908 8.36364H187.15L184.182 16.8253C184.039 17.2363 183.846 17.5942 183.6 17.8991C183.358 18.2074 183.052 18.4444 182.681 18.6101C182.309 18.7791 181.862 18.8636 181.338 18.8636ZM188.234 16V8.36364H190.287V9.69602H190.367C190.506 9.22206 190.74 8.86411 191.068 8.62216C191.396 8.37689 191.774 8.25426 192.201 8.25426C192.307 8.25426 192.422 8.26089 192.544 8.27415C192.667 8.28741 192.775 8.30563 192.867 8.32883V10.2081C192.768 10.1783 192.63 10.1518 192.455 10.1286C192.279 10.1054 192.118 10.0938 191.972 10.0938C191.661 10.0938 191.383 10.1617 191.137 10.2976C190.895 10.4302 190.703 10.6158 190.561 10.8544C190.421 11.093 190.352 11.3681 190.352 11.6797V16H188.234ZM200.316 10.5412L198.377 10.6605C198.344 10.4948 198.273 10.3456 198.163 10.2131C198.054 10.0772 197.91 9.96946 197.731 9.88991C197.555 9.80705 197.345 9.76562 197.099 9.76562C196.771 9.76562 196.495 9.83523 196.269 9.97443C196.044 10.1103 195.931 10.2926 195.931 10.5213C195.931 10.7036 196.004 10.8577 196.15 10.9837C196.296 11.1096 196.546 11.2107 196.901 11.2869L198.283 11.5653C199.025 11.7178 199.579 11.9631 199.943 12.3011C200.308 12.6392 200.49 13.0833 200.49 13.6335C200.49 14.134 200.343 14.5732 200.048 14.951C199.756 15.3288 199.355 15.6238 198.844 15.8359C198.337 16.0447 197.752 16.1491 197.089 16.1491C196.079 16.1491 195.273 15.9387 194.673 15.5178C194.077 15.0935 193.727 14.5168 193.624 13.7876L195.707 13.6783C195.77 13.9865 195.923 14.2218 196.165 14.3842C196.407 14.5433 196.717 14.6229 197.094 14.6229C197.466 14.6229 197.764 14.5516 197.989 14.4091C198.218 14.2633 198.334 14.076 198.337 13.8473C198.334 13.6551 198.253 13.4976 198.094 13.375C197.935 13.2491 197.689 13.1529 197.358 13.0866L196.036 12.8232C195.29 12.674 194.735 12.4155 194.37 12.0476C194.009 11.6797 193.828 11.2107 193.828 10.6406C193.828 10.1501 193.961 9.72751 194.226 9.37287C194.494 9.01823 194.871 8.74479 195.354 8.55256C195.842 8.36032 196.412 8.2642 197.065 8.2642C198.029 8.2642 198.788 8.46804 199.342 8.87571C199.898 9.28338 200.223 9.83854 200.316 10.5412Z" fill="white"/>
<g filter="url(#filter2_d_502_1290)">
<rect x="20" y="30" width="80" height="80" rx="20" fill="#121212"/>
</g>
<g filter="url(#filter3_d_502_1290)">
<rect x="140" y="30" width="80" height="80" rx="20" fill="#121212"/>
</g>
<g filter="url(#filter4_d_502_1290)">
<rect x="80" y="125" width="80" height="80" rx="20" fill="#121212"/>
</g>
<path d="M43.4452 55.9119V54.8977L47.9197 47.8182H48.6555V49.3892H48.1583L44.7776 54.7386V54.8182H50.8032V55.9119H43.4452ZM48.2378 58V55.6037V55.1314V47.8182H49.4111V58H48.2378ZM52.9845 58L57.5384 48.9915V48.9119H52.2884V47.8182H58.8112V48.9716L54.2771 58H52.9845ZM63.7666 58.1392C63.0175 58.1392 62.3795 57.9354 61.8525 57.5277C61.3256 57.1167 60.9229 56.5218 60.6444 55.7429C60.366 54.9607 60.2268 54.0161 60.2268 52.9091C60.2268 51.8087 60.366 50.8691 60.6444 50.0902C60.9262 49.308 61.3305 48.7114 61.8575 48.3004C62.3878 47.8861 63.0242 47.679 63.7666 47.679C64.509 47.679 65.1437 47.8861 65.6707 48.3004C66.201 48.7114 66.6054 49.308 66.8838 50.0902C67.1655 50.8691 67.3064 51.8087 67.3064 52.9091C67.3064 54.0161 67.1672 54.9607 66.8888 55.7429C66.6104 56.5218 66.2077 57.1167 65.6807 57.5277C65.1537 57.9354 64.5157 58.1392 63.7666 58.1392ZM63.7666 57.0455C64.509 57.0455 65.0857 56.6875 65.4967 55.9716C65.9077 55.2557 66.1132 54.2348 66.1132 52.9091C66.1132 52.0275 66.0187 51.2768 65.8298 50.657C65.6442 50.0372 65.3757 49.5649 65.0244 49.2401C64.6764 48.9152 64.2571 48.7528 63.7666 48.7528C63.0308 48.7528 62.4558 49.1158 62.0415 49.8416C61.6272 50.5642 61.42 51.5866 61.42 52.9091C61.42 53.7907 61.5128 54.5398 61.6984 55.1562C61.884 55.7727 62.1508 56.2417 62.4988 56.5632C62.8502 56.8847 63.2728 57.0455 63.7666 57.0455ZM72.1984 56.2102V49.6477H73.3121V56.2102H72.1984ZM69.474 53.4858V52.3722H76.0365V53.4858H69.474ZM37.1798 64.8182V75H35.9468V64.8182H37.1798ZM40.6661 70.4062V75H39.4928V67.3636H40.6263V68.5568H40.7258C40.9047 68.169 41.1765 67.8575 41.5411 67.6222C41.9057 67.3835 42.3763 67.2642 42.953 67.2642C43.4701 67.2642 43.9225 67.3703 44.3103 67.5824C44.6981 67.7912 44.9997 68.1094 45.2151 68.5369C45.4305 68.9612 45.5383 69.4981 45.5383 70.1477V75H44.365V70.2273C44.365 69.6274 44.2092 69.16 43.8976 68.8253C43.5861 68.4872 43.1585 68.3182 42.615 68.3182C42.2404 68.3182 41.9057 68.3994 41.6107 68.5618C41.319 68.7242 41.0887 68.9612 40.9197 69.2727C40.7506 69.5843 40.6661 69.9621 40.6661 70.4062ZM51.0033 67.3636V68.358H47.0459V67.3636H51.0033ZM48.1993 65.5341H49.3726V72.8125C49.3726 73.1439 49.4207 73.3925 49.5168 73.5582C49.6162 73.7206 49.7422 73.83 49.8946 73.8864C50.0504 73.9394 50.2145 73.9659 50.3868 73.9659C50.5161 73.9659 50.6221 73.9593 50.705 73.946C50.7878 73.9295 50.8541 73.9162 50.9039 73.9062L51.1425 74.9602C51.0629 74.9901 50.9519 75.0199 50.8094 75.0497C50.6669 75.0829 50.4862 75.0994 50.2675 75.0994C49.9361 75.0994 49.6112 75.0282 49.2931 74.8857C48.9782 74.7431 48.7164 74.526 48.5075 74.2344C48.3021 73.9427 48.1993 73.5748 48.1993 73.1307V65.5341ZM55.8879 75.1591C55.1521 75.1591 54.5174 74.9967 53.9838 74.6719C53.4535 74.3438 53.0441 73.8864 52.7558 73.2997C52.4707 72.7098 52.3282 72.0237 52.3282 71.2415C52.3282 70.4593 52.4707 69.7699 52.7558 69.1733C53.0441 68.5734 53.4452 68.1061 53.9589 67.7713C54.4759 67.4332 55.0792 67.2642 55.7686 67.2642C56.1663 67.2642 56.559 67.3305 56.9468 67.4631C57.3346 67.5956 57.6876 67.8111 58.0058 68.1094C58.324 68.4044 58.5775 68.7955 58.7664 69.2827C58.9553 69.7699 59.0498 70.3698 59.0498 71.0824V71.5795H53.1634V70.5653H57.8566C57.8566 70.1345 57.7704 69.75 57.5981 69.4119C57.4291 69.0739 57.1871 68.8071 56.8722 68.6115C56.5607 68.416 56.1928 68.3182 55.7686 68.3182C55.3012 68.3182 54.8969 68.4342 54.5555 68.6662C54.2174 68.8949 53.9572 69.1932 53.7749 69.5611C53.5927 69.929 53.5015 70.3234 53.5015 70.7443V71.4205C53.5015 71.9972 53.6009 72.486 53.7998 72.8871C54.002 73.2848 54.282 73.5881 54.64 73.7969C54.998 74.0024 55.4139 74.1051 55.8879 74.1051C56.1961 74.1051 56.4745 74.062 56.7231 73.9759C56.975 73.8864 57.1921 73.7538 57.3744 73.5781C57.5567 73.3991 57.6975 73.1771 57.797 72.9119L58.9305 73.2301C58.8112 73.6146 58.6106 73.9527 58.3289 74.2443C58.0472 74.5327 57.6992 74.758 57.2849 74.9205C56.8706 75.0795 56.4049 75.1591 55.8879 75.1591ZM60.8346 75V67.3636H61.9681V68.517H62.0477C62.1869 68.1392 62.4388 67.8326 62.8034 67.5973C63.1679 67.362 63.5789 67.2443 64.0363 67.2443C64.1225 67.2443 64.2302 67.246 64.3595 67.2493C64.4887 67.2526 64.5865 67.2576 64.6528 67.2642V68.4574C64.613 68.4474 64.5219 68.4325 64.3794 68.4126C64.2401 68.3894 64.0927 68.3778 63.9369 68.3778C63.5657 68.3778 63.2342 68.4557 62.9426 68.6115C62.6542 68.764 62.4255 68.9761 62.2565 69.2479C62.0908 69.5163 62.0079 69.8229 62.0079 70.1676V75H60.8346ZM69.0129 75.1591C68.2771 75.1591 67.6424 74.9967 67.1088 74.6719C66.5785 74.3438 66.1691 73.8864 65.8808 73.2997C65.5957 72.7098 65.4532 72.0237 65.4532 71.2415C65.4532 70.4593 65.5957 69.7699 65.8808 69.1733C66.1691 68.5734 66.5702 68.1061 67.0839 67.7713C67.6009 67.4332 68.2042 67.2642 68.8936 67.2642C69.2913 67.2642 69.684 67.3305 70.0718 67.4631C70.4596 67.5956 70.8126 67.8111 71.1308 68.1094C71.449 68.4044 71.7025 68.7955 71.8914 69.2827C72.0803 69.7699 72.1748 70.3698 72.1748 71.0824V71.5795H66.2884V70.5653H70.9816C70.9816 70.1345 70.8954 69.75 70.7231 69.4119C70.5541 69.0739 70.3121 68.8071 69.9972 68.6115C69.6857 68.416 69.3178 68.3182 68.8936 68.3182C68.4262 68.3182 68.0219 68.4342 67.6805 68.6662C67.3424 68.8949 67.0822 69.1932 66.8999 69.5611C66.7177 69.929 66.6265 70.3234 66.6265 70.7443V71.4205C66.6265 71.9972 66.7259 72.486 66.9248 72.8871C67.127 73.2848 67.407 73.5881 67.765 73.7969C68.123 74.0024 68.5389 74.1051 69.0129 74.1051C69.3211 74.1051 69.5995 74.062 69.8481 73.9759C70.1 73.8864 70.3171 73.7538 70.4994 73.5781C70.6817 73.3991 70.8225 73.1771 70.922 72.9119L72.0555 73.2301C71.9362 73.6146 71.7356 73.9527 71.4539 74.2443C71.1722 74.5327 70.8242 74.758 70.4099 74.9205C69.9956 75.0795 69.5299 75.1591 69.0129 75.1591ZM79.3687 69.0739L78.3147 69.3722C78.2484 69.1965 78.1507 69.0258 78.0214 68.8601C77.8954 68.6911 77.7231 68.5518 77.5044 68.4425C77.2856 68.3331 77.0055 68.2784 76.6642 68.2784C76.1968 68.2784 75.8074 68.3861 75.4958 68.6016C75.1876 68.8137 75.0335 69.0838 75.0335 69.4119C75.0335 69.7036 75.1395 69.9339 75.3517 70.103C75.5638 70.272 75.8952 70.4129 76.346 70.5256L77.4795 70.804C78.1623 70.9697 78.671 71.2232 79.0058 71.5646C79.3405 71.9027 79.5079 72.3385 79.5079 72.8722C79.5079 73.3097 79.382 73.7008 79.1301 74.0455C78.8815 74.3902 78.5335 74.6619 78.086 74.8608C77.6386 75.0597 77.1182 75.1591 76.5249 75.1591C75.7461 75.1591 75.1014 74.9901 74.591 74.652C74.0806 74.3139 73.7574 73.8201 73.6215 73.1705L74.7352 72.892C74.8412 73.303 75.0418 73.6113 75.3367 73.8168C75.635 74.0223 76.0245 74.125 76.5051 74.125C77.0519 74.125 77.4861 74.009 77.8076 73.777C78.1324 73.5417 78.2948 73.2599 78.2948 72.9318C78.2948 72.6667 78.202 72.4446 78.0164 72.2656C77.8308 72.0833 77.5458 71.9474 77.1613 71.858L75.8886 71.5597C75.1892 71.3939 74.6755 71.1371 74.3474 70.7891C74.0226 70.4377 73.8602 69.9986 73.8602 69.4716C73.8602 69.0407 73.9811 68.6596 74.2231 68.3281C74.4684 67.9967 74.8015 67.7365 75.2224 67.5476C75.6466 67.3587 76.1272 67.2642 76.6642 67.2642C77.4198 67.2642 78.0131 67.4299 78.444 67.7614C78.8782 68.0928 79.1864 68.5303 79.3687 69.0739ZM84.5951 67.3636V68.358H80.6377V67.3636H84.5951ZM81.7911 65.5341H82.9644V72.8125C82.9644 73.1439 83.0125 73.3925 83.1086 73.5582C83.208 73.7206 83.334 73.83 83.4864 73.8864C83.6422 73.9394 83.8063 73.9659 83.9786 73.9659C84.1079 73.9659 84.2139 73.9593 84.2968 73.946C84.3796 73.9295 84.4459 73.9162 84.4956 73.9062L84.7343 74.9602C84.6547 74.9901 84.5437 75.0199 84.4012 75.0497C84.2587 75.0829 84.078 75.0994 83.8593 75.0994C83.5278 75.0994 83.203 75.0282 82.8849 74.8857C82.57 74.7431 82.3081 74.526 82.0993 74.2344C81.8939 73.9427 81.7911 73.5748 81.7911 73.1307V65.5341ZM40.7662 92V81.8182H44.2065C45.0053 81.8182 45.6582 81.9624 46.1653 82.2507C46.6757 82.5357 47.0536 82.9219 47.2988 83.4091C47.5441 83.8963 47.6667 84.4399 47.6667 85.0398C47.6667 85.6397 47.5441 86.1849 47.2988 86.6754C47.0569 87.166 46.6824 87.5571 46.1752 87.8487C45.6681 88.1371 45.0185 88.2812 44.2264 88.2812H41.7605V87.1875H44.1866C44.7335 87.1875 45.1726 87.093 45.5041 86.9041C45.8355 86.7152 46.0758 86.46 46.225 86.1385C46.3774 85.8137 46.4537 85.4474 46.4537 85.0398C46.4537 84.6321 46.3774 84.2675 46.225 83.946C46.0758 83.6245 45.8339 83.3726 45.4991 83.1903C45.1644 83.0047 44.7202 82.9119 44.1667 82.9119H41.9991V92H40.7662ZM52.514 92.1591C51.8246 92.1591 51.2198 91.995 50.6994 91.6669C50.1824 91.3388 49.778 90.8797 49.4863 90.2898C49.198 89.6998 49.0538 89.0104 49.0538 88.2216C49.0538 87.4261 49.198 86.7318 49.4863 86.1385C49.778 85.5452 50.1824 85.0845 50.6994 84.7564C51.2198 84.4283 51.8246 84.2642 52.514 84.2642C53.2034 84.2642 53.8066 84.4283 54.3237 84.7564C54.844 85.0845 55.2484 85.5452 55.5368 86.1385C55.8284 86.7318 55.9743 87.4261 55.9743 88.2216C55.9743 89.0104 55.8284 89.6998 55.5368 90.2898C55.2484 90.8797 54.844 91.3388 54.3237 91.6669C53.8066 91.995 53.2034 92.1591 52.514 92.1591ZM52.514 91.1051C53.0377 91.1051 53.4686 90.9709 53.8066 90.7024C54.1447 90.4339 54.3949 90.081 54.5574 89.6435C54.7198 89.206 54.801 88.732 54.801 88.2216C54.801 87.7112 54.7198 87.2356 54.5574 86.7947C54.3949 86.3539 54.1447 85.9976 53.8066 85.7259C53.4686 85.4541 53.0377 85.3182 52.514 85.3182C51.9904 85.3182 51.5595 85.4541 51.2214 85.7259C50.8833 85.9976 50.6331 86.3539 50.4707 86.7947C50.3083 87.2356 50.2271 87.7112 50.2271 88.2216C50.2271 88.732 50.3083 89.206 50.4707 89.6435C50.6331 90.081 50.8833 90.4339 51.2214 90.7024C51.5595 90.9709 51.9904 91.1051 52.514 91.1051ZM57.7653 92V84.3636H58.9386V92H57.7653ZM58.3619 83.0909C58.1332 83.0909 57.936 83.013 57.7702 82.8572C57.6078 82.7015 57.5266 82.5142 57.5266 82.2955C57.5266 82.0767 57.6078 81.8894 57.7702 81.7337C57.936 81.5779 58.1332 81.5 58.3619 81.5C58.5906 81.5 58.7861 81.5779 58.9485 81.7337C59.1142 81.8894 59.1971 82.0767 59.1971 82.2955C59.1971 82.5142 59.1142 82.7015 58.9485 82.8572C58.7861 83.013 58.5906 83.0909 58.3619 83.0909ZM62.2608 87.4062V92H61.0875V84.3636H62.2211V85.5568H62.3205C62.4995 85.169 62.7712 84.8575 63.1358 84.6222C63.5004 84.3835 63.9711 84.2642 64.5478 84.2642C65.0648 84.2642 65.5172 84.3703 65.905 84.5824C66.2928 84.7912 66.5944 85.1094 66.8098 85.5369C67.0253 85.9612 67.133 86.4981 67.133 87.1477V92H65.9597V87.2273C65.9597 86.6274 65.8039 86.16 65.4924 85.8253C65.1808 85.4872 64.7533 85.3182 64.2097 85.3182C63.8352 85.3182 63.5004 85.3994 63.2054 85.5618C62.9138 85.7242 62.6834 85.9612 62.5144 86.2727C62.3453 86.5843 62.2608 86.9621 62.2608 87.4062ZM72.598 84.3636V85.358H68.6406V84.3636H72.598ZM69.794 82.5341H70.9673V89.8125C70.9673 90.1439 71.0154 90.3925 71.1115 90.5582C71.2109 90.7206 71.3369 90.83 71.4893 90.8864C71.6451 90.9394 71.8092 90.9659 71.9815 90.9659C72.1108 90.9659 72.2169 90.9593 72.2997 90.946C72.3826 90.9295 72.4489 90.9162 72.4986 90.9062L72.7372 91.9602C72.6577 91.9901 72.5466 92.0199 72.4041 92.0497C72.2616 92.0829 72.081 92.0994 71.8622 92.0994C71.5308 92.0994 71.206 92.0282 70.8878 91.8857C70.5729 91.7431 70.3111 91.526 70.1023 91.2344C69.8968 90.9427 69.794 90.5748 69.794 90.1307V82.5341ZM79.6353 86.0739L78.5813 86.3722C78.515 86.1965 78.4173 86.0258 78.288 85.8601C78.1621 85.6911 77.9897 85.5518 77.771 85.4425C77.5522 85.3331 77.2721 85.2784 76.9308 85.2784C76.4634 85.2784 76.074 85.3861 75.7624 85.6016C75.4542 85.8137 75.3001 86.0838 75.3001 86.4119C75.3001 86.7036 75.4061 86.9339 75.6183 87.103C75.8304 87.272 76.1618 87.4129 76.6126 87.5256L77.7461 87.804C78.4289 87.9697 78.9376 88.2232 79.2724 88.5646C79.6071 88.9027 79.7745 89.3385 79.7745 89.8722C79.7745 90.3097 79.6486 90.7008 79.3967 91.0455C79.1481 91.3902 78.8001 91.6619 78.3526 91.8608C77.9052 92.0597 77.3848 92.1591 76.7915 92.1591C76.0127 92.1591 75.368 91.9901 74.8576 91.652C74.3472 91.3139 74.024 90.8201 73.8881 90.1705L75.0018 89.892C75.1078 90.303 75.3084 90.6113 75.6033 90.8168C75.9016 91.0223 76.2911 91.125 76.7717 91.125C77.3185 91.125 77.7527 91.009 78.0742 90.777C78.399 90.5417 78.5614 90.2599 78.5614 89.9318C78.5614 89.6667 78.4686 89.4446 78.283 89.2656C78.0974 89.0833 77.8124 88.9474 77.4279 88.858L76.1552 88.5597C75.4558 88.3939 74.9421 88.1371 74.614 87.7891C74.2892 87.4377 74.1268 86.9986 74.1268 86.4716C74.1268 86.0407 74.2478 85.6596 74.4897 85.3281C74.735 84.9967 75.0681 84.7365 75.489 84.5476C75.9132 84.3587 76.3938 84.2642 76.9308 84.2642C77.6864 84.2642 78.2797 84.4299 78.7106 84.7614C79.1448 85.0928 79.453 85.5303 79.6353 86.0739Z" fill="white"/>
<path d="M107.55 145L112.104 135.991V135.912H106.854V134.818H113.377V135.972L108.843 145H107.55ZM114.355 145.08C114.109 145.08 113.899 144.992 113.723 144.816C113.548 144.64 113.46 144.43 113.46 144.185C113.46 143.939 113.548 143.729 113.723 143.553C113.899 143.378 114.109 143.29 114.355 143.29C114.6 143.29 114.81 143.378 114.986 143.553C115.162 143.729 115.25 143.939 115.25 144.185C115.25 144.347 115.208 144.496 115.125 144.632C115.046 144.768 114.938 144.877 114.802 144.96C114.67 145.04 114.52 145.08 114.355 145.08ZM120.312 145.139C119.729 145.139 119.203 145.023 118.736 144.791C118.269 144.559 117.894 144.241 117.612 143.837C117.331 143.432 117.177 142.972 117.15 142.455H118.343C118.39 142.915 118.598 143.296 118.97 143.598C119.344 143.896 119.792 144.045 120.312 144.045C120.73 144.045 121.101 143.948 121.426 143.752C121.754 143.557 122.011 143.288 122.196 142.947C122.385 142.602 122.48 142.213 122.48 141.778C122.48 141.334 122.382 140.938 122.186 140.59C121.994 140.239 121.729 139.962 121.391 139.76C121.053 139.558 120.667 139.455 120.232 139.452C119.921 139.448 119.601 139.496 119.273 139.596C118.945 139.692 118.675 139.816 118.463 139.969L117.309 139.83L117.926 134.818H123.215V135.912H118.96L118.602 138.915H118.661C118.87 138.749 119.132 138.612 119.447 138.502C119.762 138.393 120.09 138.338 120.431 138.338C121.054 138.338 121.61 138.487 122.097 138.786C122.587 139.08 122.972 139.485 123.25 139.999C123.532 140.512 123.673 141.099 123.673 141.759C123.673 142.408 123.527 142.988 123.235 143.499C122.947 144.006 122.549 144.407 122.042 144.702C121.535 144.993 120.958 145.139 120.312 145.139ZM128.651 143.21V136.648H129.764V143.21H128.651ZM125.926 140.486V139.372H132.489V140.486H125.926Z" fill="white"/>
<path d="M141.701 93V82.8182H145.26C145.97 82.8182 146.555 82.9408 147.015 83.1861C147.476 83.428 147.819 83.7545 148.044 84.1655C148.27 84.5732 148.383 85.0256 148.383 85.5227C148.383 85.9602 148.305 86.3215 148.149 86.6065C147.996 86.8916 147.794 87.117 147.542 87.2827C147.294 87.4484 147.024 87.571 146.732 87.6506V87.75C147.044 87.7699 147.357 87.8793 147.672 88.0781C147.986 88.277 148.25 88.562 148.462 88.9332C148.674 89.3045 148.78 89.7585 148.78 90.2955C148.78 90.8059 148.664 91.2649 148.432 91.6726C148.2 92.0803 147.834 92.4034 147.334 92.642C146.833 92.8807 146.182 93 145.38 93H141.701ZM142.934 91.9062H145.38C146.185 91.9062 146.757 91.7505 147.095 91.4389C147.436 91.1241 147.607 90.7429 147.607 90.2955C147.607 89.9508 147.519 89.6326 147.343 89.3409C147.168 89.0459 146.918 88.8106 146.593 88.6349C146.268 88.456 145.883 88.3665 145.439 88.3665H142.934V91.9062ZM142.934 87.2926H145.221C145.592 87.2926 145.927 87.2197 146.225 87.0739C146.526 86.928 146.765 86.7225 146.941 86.4574C147.12 86.1922 147.209 85.8807 147.209 85.5227C147.209 85.0753 147.053 84.6958 146.742 84.3842C146.43 84.0694 145.937 83.9119 145.26 83.9119H142.934V87.2926ZM153.849 93.1591C153.113 93.1591 152.478 92.9967 151.945 92.6719C151.414 92.3438 151.005 91.8864 150.717 91.2997C150.432 90.7098 150.289 90.0237 150.289 89.2415C150.289 88.4593 150.432 87.7699 150.717 87.1733C151.005 86.5734 151.406 86.1061 151.92 85.7713C152.437 85.4332 153.04 85.2642 153.729 85.2642C154.127 85.2642 154.52 85.3305 154.908 85.4631C155.296 85.5956 155.649 85.8111 155.967 86.1094C156.285 86.4044 156.538 86.7955 156.727 87.2827C156.916 87.7699 157.011 88.3698 157.011 89.0824V89.5795H151.124V88.5653H155.818C155.818 88.1345 155.731 87.75 155.559 87.4119C155.39 87.0739 155.148 86.8071 154.833 86.6115C154.522 86.416 154.154 86.3182 153.729 86.3182C153.262 86.3182 152.858 86.4342 152.516 86.6662C152.178 86.8949 151.918 87.1932 151.736 87.5611C151.554 87.929 151.462 88.3234 151.462 88.7443V89.4205C151.462 89.9972 151.562 90.486 151.761 90.8871C151.963 91.2848 152.243 91.5881 152.601 91.7969C152.959 92.0024 153.375 92.1051 153.849 92.1051C154.157 92.1051 154.435 92.062 154.684 91.9759C154.936 91.8864 155.153 91.7538 155.335 91.5781C155.518 91.3991 155.658 91.1771 155.758 90.9119L156.891 91.2301C156.772 91.6146 156.572 91.9527 156.29 92.2443C156.008 92.5327 155.66 92.758 155.246 92.9205C154.832 93.0795 154.366 93.1591 153.849 93.1591ZM164.205 87.0739L163.151 87.3722C163.084 87.1965 162.987 87.0258 162.857 86.8601C162.731 86.6911 162.559 86.5518 162.34 86.4425C162.122 86.3331 161.841 86.2784 161.5 86.2784C161.033 86.2784 160.643 86.3861 160.332 86.6016C160.024 86.8137 159.869 87.0838 159.869 87.4119C159.869 87.7036 159.975 87.9339 160.188 88.103C160.4 88.272 160.731 88.4129 161.182 88.5256L162.315 88.804C162.998 88.9697 163.507 89.2232 163.842 89.5646C164.176 89.9027 164.344 90.3385 164.344 90.8722C164.344 91.3097 164.218 91.7008 163.966 92.0455C163.717 92.3902 163.369 92.6619 162.922 92.8608C162.475 93.0597 161.954 93.1591 161.361 93.1591C160.582 93.1591 159.937 92.9901 159.427 92.652C158.917 92.3139 158.593 91.8201 158.457 91.1705L159.571 90.892C159.677 91.303 159.878 91.6113 160.173 91.8168C160.471 92.0223 160.86 92.125 161.341 92.125C161.888 92.125 162.322 92.009 162.644 91.777C162.968 91.5417 163.131 91.2599 163.131 90.9318C163.131 90.6667 163.038 90.4446 162.852 90.2656C162.667 90.0833 162.382 89.9474 161.997 89.858L160.725 89.5597C160.025 89.3939 159.511 89.1371 159.183 88.7891C158.859 88.4377 158.696 87.9986 158.696 87.4716C158.696 87.0407 158.817 86.6596 159.059 86.3281C159.304 85.9967 159.637 85.7365 160.058 85.5476C160.483 85.3587 160.963 85.2642 161.5 85.2642C162.256 85.2642 162.849 85.4299 163.28 85.7614C163.714 86.0928 164.022 86.5303 164.205 87.0739ZM169.431 85.3636V86.358H165.474V85.3636H169.431ZM166.627 83.5341H167.8V90.8125C167.8 91.1439 167.848 91.3925 167.945 91.5582C168.044 91.7206 168.17 91.83 168.322 91.8864C168.478 91.9394 168.642 91.9659 168.815 91.9659C168.944 91.9659 169.05 91.9593 169.133 91.946C169.216 91.9295 169.282 91.9162 169.332 91.9062L169.57 92.9602C169.491 92.9901 169.38 93.0199 169.237 93.0497C169.095 93.0829 168.914 93.0994 168.695 93.0994C168.364 93.0994 168.039 93.0282 167.721 92.8857C167.406 92.7431 167.144 92.526 166.935 92.2344C166.73 91.9427 166.627 91.5748 166.627 91.1307V83.5341ZM174.736 83.9119V82.8182H182.372V83.9119H179.17V93H177.937V83.9119H174.736ZM186.21 93.1591C185.474 93.1591 184.84 92.9967 184.306 92.6719C183.776 92.3438 183.366 91.8864 183.078 91.2997C182.793 90.7098 182.65 90.0237 182.65 89.2415C182.65 88.4593 182.793 87.7699 183.078 87.1733C183.366 86.5734 183.767 86.1061 184.281 85.7713C184.798 85.4332 185.401 85.2642 186.091 85.2642C186.489 85.2642 186.881 85.3305 187.269 85.4631C187.657 85.5956 188.01 85.8111 188.328 86.1094C188.646 86.4044 188.9 86.7955 189.089 87.2827C189.278 87.7699 189.372 88.3698 189.372 89.0824V89.5795H183.486V88.5653H188.179C188.179 88.1345 188.093 87.75 187.92 87.4119C187.751 87.0739 187.509 86.8071 187.195 86.6115C186.883 86.416 186.515 86.3182 186.091 86.3182C185.623 86.3182 185.219 86.4342 184.878 86.6662C184.54 86.8949 184.28 87.1932 184.097 87.5611C183.915 87.929 183.824 88.3234 183.824 88.7443V89.4205C183.824 89.9972 183.923 90.486 184.122 90.8871C184.324 91.2848 184.604 91.5881 184.962 91.7969C185.32 92.0024 185.736 92.1051 186.21 92.1051C186.518 92.1051 186.797 92.062 187.045 91.9759C187.297 91.8864 187.514 91.7538 187.697 91.5781C187.879 91.3991 188.02 91.1771 188.119 90.9119L189.253 91.2301C189.133 91.6146 188.933 91.9527 188.651 92.2443C188.369 92.5327 188.021 92.758 187.607 92.9205C187.193 93.0795 186.727 93.1591 186.21 93.1591ZM192.33 88.4062V93H191.157V85.3636H192.29V86.5568H192.39C192.569 86.169 192.841 85.8575 193.205 85.6222C193.57 85.3835 194.04 85.2642 194.617 85.2642C195.134 85.2642 195.587 85.3703 195.974 85.5824C196.362 85.7912 196.664 86.1094 196.879 86.5369C197.095 86.9612 197.202 87.4981 197.202 88.1477V93H196.029V88.2273C196.029 87.6274 195.873 87.16 195.562 86.8253C195.25 86.4872 194.823 86.3182 194.279 86.3182C193.905 86.3182 193.57 86.3994 193.275 86.5618C192.983 86.7242 192.753 86.9612 192.584 87.2727C192.415 87.5843 192.33 87.9621 192.33 88.4062ZM204.159 89.8778V85.3636H205.332V93H204.159V91.7074H204.079C203.9 92.0952 203.622 92.425 203.244 92.6967C202.866 92.9652 202.389 93.0994 201.812 93.0994C201.335 93.0994 200.911 92.995 200.54 92.7862C200.168 92.5741 199.877 92.2559 199.665 91.8317C199.452 91.4041 199.346 90.8655 199.346 90.2159V85.3636H200.52V90.1364C200.52 90.6932 200.675 91.1373 200.987 91.4688C201.302 91.8002 201.703 91.9659 202.19 91.9659C202.482 91.9659 202.778 91.8913 203.08 91.7422C203.385 91.593 203.64 91.3643 203.846 91.0561C204.054 90.7479 204.159 90.3551 204.159 89.8778ZM207.481 93V85.3636H208.615V86.517H208.694C208.833 86.1392 209.085 85.8326 209.45 85.5973C209.814 85.362 210.225 85.2443 210.683 85.2443C210.769 85.2443 210.877 85.246 211.006 85.2493C211.135 85.2526 211.233 85.2576 211.299 85.2642V86.4574C211.259 86.4474 211.168 86.4325 211.026 86.4126C210.887 86.3894 210.739 86.3778 210.583 86.3778C210.212 86.3778 209.881 86.4557 209.589 86.6115C209.301 86.764 209.072 86.9761 208.903 87.2479C208.737 87.5163 208.654 87.8229 208.654 88.1676V93H207.481ZM215.659 93.1591C214.924 93.1591 214.289 92.9967 213.755 92.6719C213.225 92.3438 212.816 91.8864 212.527 91.2997C212.242 90.7098 212.1 90.0237 212.1 89.2415C212.1 88.4593 212.242 87.7699 212.527 87.1733C212.816 86.5734 213.217 86.1061 213.73 85.7713C214.247 85.4332 214.851 85.2642 215.54 85.2642C215.938 85.2642 216.331 85.3305 216.718 85.4631C217.106 85.5956 217.459 85.8111 217.777 86.1094C218.095 86.4044 218.349 86.7955 218.538 87.2827C218.727 87.7699 218.821 88.3698 218.821 89.0824V89.5795H212.935V88.5653H217.628C217.628 88.1345 217.542 87.75 217.37 87.4119C217.201 87.0739 216.959 86.8071 216.644 86.6115C216.332 86.416 215.964 86.3182 215.54 86.3182C215.073 86.3182 214.668 86.4342 214.327 86.6662C213.989 86.8949 213.729 87.1932 213.546 87.5611C213.364 87.929 213.273 88.3234 213.273 88.7443V89.4205C213.273 89.9972 213.372 90.486 213.571 90.8871C213.773 91.2848 214.054 91.5881 214.411 91.7969C214.769 92.0024 215.185 92.1051 215.659 92.1051C215.968 92.1051 216.246 92.062 216.495 91.9759C216.746 91.8864 216.964 91.7538 217.146 91.5781C217.328 91.3991 217.469 91.1771 217.568 90.9119L218.702 91.2301C218.583 91.6146 218.382 91.9527 218.1 92.2443C217.819 92.5327 217.471 92.758 217.056 92.9205C216.642 93.0795 216.176 93.1591 215.659 93.1591Z" fill="white"/>
<path d="M94.863 163.818V174H93.6301V165.111H93.5704L91.0846 166.761V165.509L93.6301 163.818H94.863ZM97.5526 171.912V170.898L102.027 163.818H102.763V165.389H102.266L98.885 170.739V170.818H104.911V171.912H97.5526ZM102.345 174V171.604V171.131V163.818H103.519V174H102.345ZM110.89 174V163.818H114.45C115.159 163.818 115.744 163.941 116.205 164.186C116.666 164.428 117.009 164.754 117.234 165.165C117.459 165.573 117.572 166.026 117.572 166.523C117.572 166.96 117.494 167.321 117.338 167.607C117.186 167.892 116.984 168.117 116.732 168.283C116.483 168.448 116.213 168.571 115.921 168.651V168.75C116.233 168.77 116.546 168.879 116.861 169.078C117.176 169.277 117.439 169.562 117.652 169.933C117.864 170.304 117.97 170.759 117.97 171.295C117.97 171.806 117.854 172.265 117.622 172.673C117.39 173.08 117.023 173.403 116.523 173.642C116.023 173.881 115.371 174 114.569 174H110.89ZM112.123 172.906H114.569C115.375 172.906 115.946 172.75 116.284 172.439C116.626 172.124 116.796 171.743 116.796 171.295C116.796 170.951 116.709 170.633 116.533 170.341C116.357 170.046 116.107 169.811 115.782 169.635C115.457 169.456 115.073 169.366 114.629 169.366H112.123V172.906ZM112.123 168.293H114.41C114.781 168.293 115.116 168.22 115.414 168.074C115.716 167.928 115.955 167.723 116.13 167.457C116.309 167.192 116.399 166.881 116.399 166.523C116.399 166.075 116.243 165.696 115.931 165.384C115.62 165.069 115.126 164.912 114.45 164.912H112.123V168.293ZM122.084 174.179C121.6 174.179 121.161 174.088 120.766 173.906C120.372 173.72 120.059 173.453 119.827 173.105C119.595 172.754 119.479 172.33 119.479 171.832C119.479 171.395 119.565 171.04 119.737 170.768C119.909 170.493 120.14 170.278 120.428 170.122C120.717 169.966 121.035 169.85 121.383 169.774C121.734 169.695 122.087 169.632 122.442 169.585C122.906 169.526 123.282 169.481 123.57 169.451C123.862 169.418 124.074 169.363 124.207 169.287C124.342 169.211 124.41 169.078 124.41 168.889V168.849C124.41 168.359 124.276 167.978 124.008 167.706C123.743 167.434 123.34 167.298 122.8 167.298C122.239 167.298 121.8 167.421 121.482 167.666C121.164 167.911 120.94 168.173 120.811 168.452L119.697 168.054C119.896 167.59 120.161 167.229 120.493 166.97C120.828 166.708 121.192 166.526 121.587 166.423C121.984 166.317 122.375 166.264 122.76 166.264C123.005 166.264 123.287 166.294 123.605 166.354C123.927 166.41 124.236 166.528 124.535 166.707C124.836 166.886 125.087 167.156 125.285 167.517C125.484 167.878 125.584 168.362 125.584 168.969V174H124.41V172.966H124.351C124.271 173.132 124.139 173.309 123.953 173.498C123.767 173.687 123.521 173.848 123.212 173.98C122.904 174.113 122.528 174.179 122.084 174.179ZM122.263 173.125C122.727 173.125 123.118 173.034 123.436 172.852C123.757 172.669 123.999 172.434 124.162 172.146C124.328 171.857 124.41 171.554 124.41 171.236V170.162C124.361 170.222 124.251 170.276 124.082 170.326C123.917 170.372 123.724 170.414 123.506 170.45C123.29 170.483 123.08 170.513 122.874 170.54C122.672 170.563 122.508 170.583 122.382 170.599C122.077 170.639 121.792 170.704 121.527 170.793C121.265 170.879 121.053 171.01 120.891 171.186C120.731 171.358 120.652 171.594 120.652 171.892C120.652 172.3 120.803 172.608 121.104 172.817C121.409 173.022 121.795 173.125 122.263 173.125ZM128.899 169.406V174H127.725V166.364H128.859V167.557H128.958C129.137 167.169 129.409 166.857 129.774 166.622C130.138 166.384 130.609 166.264 131.185 166.264C131.703 166.264 132.155 166.37 132.543 166.582C132.93 166.791 133.232 167.109 133.448 167.537C133.663 167.961 133.771 168.498 133.771 169.148V174H132.597V169.227C132.597 168.627 132.442 168.16 132.13 167.825C131.819 167.487 131.391 167.318 130.847 167.318C130.473 167.318 130.138 167.399 129.843 167.562C129.551 167.724 129.321 167.961 129.152 168.273C128.983 168.584 128.899 168.962 128.899 169.406ZM137.008 171.216L136.989 169.764H137.227L140.568 166.364H142.02L138.46 169.963H138.361L137.008 171.216ZM135.915 174V163.818H137.088V174H135.915ZM140.767 174L137.784 170.222L138.619 169.406L142.258 174H140.767ZM148.939 168.074L147.885 168.372C147.819 168.196 147.721 168.026 147.592 167.86C147.466 167.691 147.293 167.552 147.075 167.442C146.856 167.333 146.576 167.278 146.234 167.278C145.767 167.278 145.378 167.386 145.066 167.602C144.758 167.814 144.604 168.084 144.604 168.412C144.604 168.704 144.71 168.934 144.922 169.103C145.134 169.272 145.466 169.413 145.916 169.526L147.05 169.804C147.733 169.97 148.241 170.223 148.576 170.565C148.911 170.903 149.078 171.339 149.078 171.872C149.078 172.31 148.952 172.701 148.7 173.045C148.452 173.39 148.104 173.662 147.656 173.861C147.209 174.06 146.689 174.159 146.095 174.159C145.316 174.159 144.672 173.99 144.161 173.652C143.651 173.314 143.328 172.82 143.192 172.17L144.305 171.892C144.412 172.303 144.612 172.611 144.907 172.817C145.205 173.022 145.595 173.125 146.075 173.125C146.622 173.125 147.056 173.009 147.378 172.777C147.703 172.542 147.865 172.26 147.865 171.932C147.865 171.667 147.772 171.445 147.587 171.266C147.401 171.083 147.116 170.947 146.732 170.858L145.459 170.56C144.76 170.394 144.246 170.137 143.918 169.789C143.593 169.438 143.43 168.999 143.43 168.472C143.43 168.041 143.551 167.66 143.793 167.328C144.039 166.997 144.372 166.737 144.793 166.548C145.217 166.359 145.698 166.264 146.234 166.264C146.99 166.264 147.583 166.43 148.014 166.761C148.448 167.093 148.757 167.53 148.939 168.074ZM98.4867 191.139C97.8172 191.139 97.2405 191.017 96.7566 190.771C96.2727 190.526 95.8998 190.19 95.638 189.762C95.3761 189.335 95.2452 188.846 95.2452 188.295C95.2452 187.871 95.3347 187.495 95.5137 187.167C95.696 186.835 95.9462 186.529 96.2644 186.247C96.5859 185.962 96.9554 185.677 97.373 185.392L98.8446 184.298C99.133 184.109 99.3633 183.907 99.5357 183.692C99.7114 183.476 99.7992 183.195 99.7992 182.847C99.7992 182.588 99.6848 182.338 99.4561 182.096C99.2308 181.854 98.9341 181.733 98.5662 181.733C98.3077 181.733 98.079 181.799 97.8801 181.932C97.6846 182.061 97.5305 182.227 97.4178 182.429C97.3084 182.628 97.2537 182.833 97.2537 183.045C97.2537 183.284 97.3184 183.526 97.4476 183.771C97.5802 184.013 97.7476 184.262 97.9498 184.517C98.1552 184.769 98.3674 185.027 98.5861 185.293L103.259 191H101.847L97.9895 186.347C97.6316 185.916 97.3068 185.525 97.0151 185.173C96.7234 184.822 96.4914 184.476 96.3191 184.134C96.1467 183.793 96.0605 183.423 96.0605 183.026C96.0605 182.568 96.1616 182.167 96.3638 181.822C96.5693 181.474 96.856 181.204 97.2239 181.012C97.5951 180.817 98.0293 180.719 98.5265 180.719C99.0369 180.719 99.476 180.818 99.8439 181.017C100.212 181.213 100.495 181.473 100.694 181.798C100.893 182.119 100.992 182.469 100.992 182.847C100.992 183.334 100.871 183.756 100.629 184.114C100.387 184.472 100.058 184.805 99.6401 185.114L97.6117 186.625C97.1543 186.963 96.8444 187.291 96.682 187.609C96.5196 187.928 96.4384 188.156 96.4384 188.295C96.4384 188.614 96.5212 188.91 96.687 189.185C96.8527 189.46 97.0864 189.683 97.388 189.852C97.6896 190.021 98.0426 190.105 98.4469 190.105C98.8314 190.105 99.2059 190.024 99.5705 189.862C99.9351 189.696 100.265 189.457 100.56 189.146C100.858 188.834 101.093 188.46 101.266 188.022C101.441 187.585 101.529 187.092 101.529 186.545H102.663C102.663 187.222 102.585 187.773 102.429 188.201C102.273 188.629 102.098 188.963 101.902 189.205C101.707 189.447 101.549 189.628 101.43 189.747C101.39 189.797 101.354 189.847 101.32 189.896C101.287 189.946 101.251 189.996 101.211 190.045C100.883 190.413 100.469 190.688 99.9682 190.871C99.4677 191.05 98.9739 191.139 98.4867 191.139ZM116.729 180.818V191H115.536L109.987 183.006H109.888V191H108.655V180.818H109.848L115.416 188.832H115.516V180.818H116.729ZM119.196 191V180.818H122.756C123.465 180.818 124.05 180.941 124.51 181.186C124.971 181.428 125.314 181.754 125.54 182.165C125.765 182.573 125.878 183.026 125.878 183.523C125.878 183.96 125.8 184.321 125.644 184.607C125.492 184.892 125.289 185.117 125.037 185.283C124.789 185.448 124.519 185.571 124.227 185.651V185.75C124.539 185.77 124.852 185.879 125.167 186.078C125.482 186.277 125.745 186.562 125.957 186.933C126.169 187.304 126.275 187.759 126.275 188.295C126.275 188.806 126.159 189.265 125.927 189.673C125.695 190.08 125.329 190.403 124.829 190.642C124.328 190.881 123.677 191 122.875 191H119.196ZM120.429 189.906H122.875C123.68 189.906 124.252 189.75 124.59 189.439C124.931 189.124 125.102 188.743 125.102 188.295C125.102 187.951 125.014 187.633 124.839 187.341C124.663 187.046 124.413 186.811 124.088 186.635C123.763 186.456 123.379 186.366 122.934 186.366H120.429V189.906ZM120.429 185.293H122.716C123.087 185.293 123.422 185.22 123.72 185.074C124.022 184.928 124.26 184.723 124.436 184.457C124.615 184.192 124.704 183.881 124.704 183.523C124.704 183.075 124.549 182.696 124.237 182.384C123.925 182.069 123.432 181.912 122.756 181.912H120.429V185.293ZM128.301 191V180.818H134.406V181.912H129.534V185.352H133.949V186.446H129.534V191H128.301ZM144.711 184H143.478C143.405 183.645 143.278 183.334 143.096 183.065C142.917 182.797 142.698 182.571 142.439 182.389C142.184 182.204 141.901 182.064 141.589 181.972C141.278 181.879 140.953 181.832 140.615 181.832C139.998 181.832 139.44 181.988 138.939 182.3C138.442 182.611 138.046 183.07 137.751 183.677C137.459 184.283 137.314 185.027 137.314 185.909C137.314 186.791 137.459 187.535 137.751 188.141C138.046 188.748 138.442 189.207 138.939 189.518C139.44 189.83 139.998 189.986 140.615 189.986C140.953 189.986 141.278 189.939 141.589 189.847C141.901 189.754 142.184 189.616 142.439 189.434C142.698 189.248 142.917 189.021 143.096 188.753C143.278 188.481 143.405 188.17 143.478 187.818H144.711C144.618 188.339 144.449 188.804 144.204 189.215C143.959 189.626 143.654 189.976 143.289 190.264C142.925 190.549 142.516 190.766 142.061 190.915C141.611 191.065 141.128 191.139 140.615 191.139C139.746 191.139 138.974 190.927 138.298 190.503C137.622 190.079 137.09 189.475 136.702 188.693C136.314 187.911 136.12 186.983 136.12 185.909C136.12 184.835 136.314 183.907 136.702 183.125C137.09 182.343 137.622 181.74 138.298 181.315C138.974 180.891 139.746 180.679 140.615 180.679C141.128 180.679 141.611 180.754 142.061 180.903C142.516 181.052 142.925 181.271 143.289 181.559C143.654 181.844 143.959 182.192 144.204 182.603C144.449 183.011 144.618 183.476 144.711 184Z" fill="white"/>
<path d="M164.396 45.8182V56H163.163V47.1108H163.104L160.618 48.7614V47.5085L163.163 45.8182H164.396ZM170.506 56.1392C169.923 56.1392 169.398 56.0232 168.93 55.7912C168.463 55.5592 168.088 55.241 167.807 54.8366C167.525 54.4323 167.371 53.9716 167.344 53.4545H168.538C168.584 53.9152 168.793 54.2964 169.164 54.598C169.539 54.8963 169.986 55.0455 170.506 55.0455C170.924 55.0455 171.295 54.9477 171.62 54.7521C171.948 54.5566 172.205 54.2881 172.391 53.9467C172.579 53.602 172.674 53.2126 172.674 52.7784C172.674 52.3343 172.576 51.9382 172.381 51.5902C172.188 51.2389 171.923 50.9621 171.585 50.7599C171.247 50.5578 170.861 50.455 170.427 50.4517C170.115 50.4484 169.795 50.4964 169.467 50.5959C169.139 50.692 168.869 50.8163 168.657 50.9688L167.503 50.8295L168.12 45.8182H173.41V46.9119H169.154L168.796 49.9148H168.856C169.065 49.7491 169.326 49.6115 169.641 49.5021C169.956 49.3928 170.284 49.3381 170.626 49.3381C171.249 49.3381 171.804 49.4872 172.291 49.7855C172.782 50.0805 173.166 50.4848 173.445 50.9986C173.726 51.5123 173.867 52.099 173.867 52.7585C173.867 53.4081 173.721 53.9882 173.43 54.4986C173.141 55.0057 172.744 55.4067 172.236 55.7017C171.729 55.9934 171.153 56.1392 170.506 56.1392ZM184.174 50.3622V51.456H179.72V50.3622H184.174ZM193.736 45.8182V56H192.503V47.1108H192.443L189.958 48.7614V47.5085L192.503 45.8182H193.736ZM199.926 56.1392C199.243 56.1392 198.64 56.0182 198.116 55.7763C197.596 55.531 197.19 55.1946 196.898 54.767C196.606 54.3362 196.462 53.8456 196.465 53.2955C196.462 52.8646 196.547 52.4669 196.719 52.1023C196.891 51.7344 197.127 51.4278 197.425 51.1825C197.727 50.9339 198.063 50.7765 198.434 50.7102V50.6506C197.947 50.5246 197.559 50.2512 197.271 49.8303C196.983 49.406 196.84 48.9238 196.843 48.3835C196.84 47.8665 196.971 47.4041 197.236 46.9964C197.501 46.5888 197.866 46.2673 198.33 46.032C198.797 45.7966 199.329 45.679 199.926 45.679C200.516 45.679 201.043 45.7966 201.507 46.032C201.971 46.2673 202.335 46.5888 202.6 46.9964C202.869 47.4041 203.005 47.8665 203.008 48.3835C203.005 48.9238 202.857 49.406 202.566 49.8303C202.277 50.2512 201.894 50.5246 201.417 50.6506V50.7102C201.785 50.7765 202.117 50.9339 202.411 51.1825C202.706 51.4278 202.942 51.7344 203.117 52.1023C203.293 52.4669 203.383 52.8646 203.386 53.2955C203.383 53.8456 203.233 54.3362 202.938 54.767C202.647 55.1946 202.241 55.531 201.72 55.7763C201.203 56.0182 200.605 56.1392 199.926 56.1392ZM199.926 55.0455C200.386 55.0455 200.784 54.9709 201.119 54.8217C201.454 54.6726 201.712 54.4621 201.894 54.1903C202.077 53.9186 202.17 53.6004 202.173 53.2358C202.17 52.8513 202.07 52.5116 201.875 52.2166C201.679 51.9216 201.412 51.6896 201.074 51.5206C200.739 51.3516 200.357 51.267 199.926 51.267C199.492 51.267 199.104 51.3516 198.762 51.5206C198.424 51.6896 198.157 51.9216 197.962 52.2166C197.77 52.5116 197.675 52.8513 197.679 53.2358C197.675 53.6004 197.763 53.9186 197.942 54.1903C198.124 54.4621 198.384 54.6726 198.723 54.8217C199.061 54.9709 199.462 55.0455 199.926 55.0455ZM199.926 50.2131C200.29 50.2131 200.613 50.1402 200.895 49.9943C201.18 49.8485 201.404 49.6446 201.566 49.3828C201.729 49.121 201.812 48.8144 201.815 48.4631C201.812 48.1184 201.73 47.8184 201.571 47.5632C201.412 47.3047 201.192 47.1058 200.91 46.9666C200.628 46.8241 200.3 46.7528 199.926 46.7528C199.545 46.7528 199.211 46.8241 198.926 46.9666C198.641 47.1058 198.421 47.3047 198.265 47.5632C198.109 47.8184 198.033 48.1184 198.036 48.4631C198.033 48.8144 198.111 49.121 198.27 49.3828C198.433 49.6446 198.656 49.8485 198.941 49.9943C199.226 50.1402 199.554 50.2131 199.926 50.2131ZM158.3 73V65.3636H159.434V66.5568H159.533C159.692 66.1491 159.949 65.8326 160.304 65.6072C160.659 65.3786 161.085 65.2642 161.582 65.2642C162.085 65.2642 162.505 65.3786 162.839 65.6072C163.178 65.8326 163.441 66.1491 163.63 66.5568H163.71C163.905 66.1624 164.198 65.8492 164.589 65.6172C164.981 65.3819 165.45 65.2642 165.996 65.2642C166.679 65.2642 167.238 65.478 167.672 65.9055C168.106 66.3298 168.323 66.991 168.323 67.8892V73H167.15V67.8892C167.15 67.3258 166.996 66.9231 166.688 66.6811C166.379 66.4392 166.016 66.3182 165.599 66.3182C165.062 66.3182 164.646 66.4806 164.351 66.8054C164.056 67.1269 163.908 67.5346 163.908 68.0284V73H162.715V67.7699C162.715 67.3357 162.574 66.986 162.293 66.7209C162.011 66.4524 161.648 66.3182 161.204 66.3182C160.899 66.3182 160.614 66.3994 160.349 66.5618C160.087 66.7242 159.875 66.9496 159.712 67.2379C159.553 67.523 159.474 67.8527 159.474 68.2273V73H158.3ZM173.571 73.1591C172.881 73.1591 172.276 72.995 171.756 72.6669C171.239 72.3388 170.835 71.8797 170.543 71.2898C170.255 70.6998 170.11 70.0104 170.11 69.2216C170.11 68.4261 170.255 67.7318 170.543 67.1385C170.835 66.5452 171.239 66.0845 171.756 65.7564C172.276 65.4283 172.881 65.2642 173.571 65.2642C174.26 65.2642 174.863 65.4283 175.38 65.7564C175.901 66.0845 176.305 66.5452 176.593 67.1385C176.885 67.7318 177.031 68.4261 177.031 69.2216C177.031 70.0104 176.885 70.6998 176.593 71.2898C176.305 71.8797 175.901 72.3388 175.38 72.6669C174.863 72.995 174.26 73.1591 173.571 73.1591ZM173.571 72.1051C174.094 72.1051 174.525 71.9709 174.863 71.7024C175.201 71.4339 175.452 71.081 175.614 70.6435C175.776 70.206 175.858 69.732 175.858 69.2216C175.858 68.7112 175.776 68.2356 175.614 67.7947C175.452 67.3539 175.201 66.9976 174.863 66.7259C174.525 66.4541 174.094 66.3182 173.571 66.3182C173.047 66.3182 172.616 66.4541 172.278 66.7259C171.94 66.9976 171.69 67.3539 171.527 67.7947C171.365 68.2356 171.284 68.7112 171.284 69.2216C171.284 69.732 171.365 70.206 171.527 70.6435C171.69 71.081 171.94 71.4339 172.278 71.7024C172.616 71.9709 173.047 72.1051 173.571 72.1051ZM179.995 68.4062V73H178.822V65.3636H179.955V66.5568H180.055C180.234 66.169 180.506 65.8575 180.87 65.6222C181.235 65.3835 181.705 65.2642 182.282 65.2642C182.799 65.2642 183.252 65.3703 183.639 65.5824C184.027 65.7912 184.329 66.1094 184.544 66.5369C184.76 66.9612 184.867 67.4981 184.867 68.1477V73H183.694V68.2273C183.694 67.6274 183.538 67.16 183.227 66.8253C182.915 66.4872 182.488 66.3182 181.944 66.3182C181.57 66.3182 181.235 66.3994 180.94 66.5618C180.648 66.7242 180.418 66.9612 180.249 67.2727C180.08 67.5843 179.995 67.9621 179.995 68.4062ZM190.332 65.3636V66.358H186.375V65.3636H190.332ZM187.528 63.5341H188.702V70.8125C188.702 71.1439 188.75 71.3925 188.846 71.5582C188.945 71.7206 189.071 71.83 189.224 71.8864C189.379 71.9394 189.544 71.9659 189.716 71.9659C189.845 71.9659 189.951 71.9593 190.034 71.946C190.117 71.9295 190.183 71.9162 190.233 71.9062L190.472 72.9602C190.392 72.9901 190.281 73.0199 190.138 73.0497C189.996 73.0829 189.815 73.0994 189.597 73.0994C189.265 73.0994 188.94 73.0282 188.622 72.8857C188.307 72.7431 188.045 72.526 187.837 72.2344C187.631 71.9427 187.528 71.5748 187.528 71.1307V63.5341ZM193.435 68.4062V73H192.261V62.8182H193.435V66.5568H193.534C193.713 66.1624 193.982 65.8492 194.339 65.6172C194.701 65.3819 195.181 65.2642 195.781 65.2642C196.302 65.2642 196.757 65.3686 197.148 65.5774C197.54 65.7829 197.843 66.0994 198.058 66.527C198.277 66.9512 198.386 67.4915 198.386 68.1477V73H197.213V68.2273C197.213 67.6207 197.056 67.1518 196.741 66.8203C196.429 66.4856 195.997 66.3182 195.443 66.3182C195.059 66.3182 194.714 66.3994 194.409 66.5618C194.107 66.7242 193.869 66.9612 193.693 67.2727C193.521 67.5843 193.435 67.9621 193.435 68.4062ZM205.942 67.0739L204.888 67.3722C204.822 67.1965 204.724 67.0258 204.595 66.8601C204.469 66.6911 204.296 66.5518 204.078 66.4425C203.859 66.3331 203.579 66.2784 203.237 66.2784C202.77 66.2784 202.381 66.3861 202.069 66.6016C201.761 66.8137 201.607 67.0838 201.607 67.4119C201.607 67.7036 201.713 67.9339 201.925 68.103C202.137 68.272 202.468 68.4129 202.919 68.5256L204.053 68.804C204.735 68.9697 205.244 69.2232 205.579 69.5646C205.914 69.9027 206.081 70.3385 206.081 70.8722C206.081 71.3097 205.955 71.7008 205.703 72.0455C205.455 72.3902 205.107 72.6619 204.659 72.8608C204.212 73.0597 203.691 73.1591 203.098 73.1591C202.319 73.1591 201.675 72.9901 201.164 72.652C200.654 72.3139 200.331 71.8201 200.195 71.1705L201.308 70.892C201.414 71.303 201.615 71.6113 201.91 71.8168C202.208 72.0223 202.598 72.125 203.078 72.125C203.625 72.125 204.059 72.009 204.381 71.777C204.706 71.5417 204.868 71.2599 204.868 70.9318C204.868 70.6667 204.775 70.4446 204.59 70.2656C204.404 70.0833 204.119 69.9474 203.735 69.858L202.462 69.5597C201.762 69.3939 201.249 69.1371 200.921 68.7891C200.596 68.4377 200.433 67.9986 200.433 67.4716C200.433 67.0407 200.554 66.6596 200.796 66.3281C201.042 65.9967 201.375 65.7365 201.796 65.5476C202.22 65.3587 202.7 65.2642 203.237 65.2642C203.993 65.2642 204.586 65.4299 205.017 65.7614C205.451 66.0928 205.76 66.5303 205.942 67.0739Z" fill="white"/>
</g>
</g>
<defs>
<filter id="filter0_d_502_1290" x="76" y="125" width="88" height="88" filterUnits="userSpaceOnUse" color-interpolation-filters="sRGB">
<feFlood flood-opacity="0" result="BackgroundImageFix"/>
<feColorMatrix in="SourceAlpha" type="matrix" values="0 0 0 0 0 0 0 0 0 0 0 0 0 0 0 0 0 0 127 0" result="hardAlpha"/>
<feOffset dy="4"/>
<feGaussianBlur stdDeviation="2"/>
<feComposite in2="hardAlpha" operator="out"/>
<feColorMatrix type="matrix" values="0 0 0 0 0 0 0 0 0 0 0 0 0 0 0 0 0 0 0.25 0"/>
<feBlend mode="normal" in2="BackgroundImageFix" result="effect1_dropShadow_502_1290"/>
<feBlend mode="normal" in="SourceGraphic" in2="effect1_dropShadow_502_1290" result="shape"/>
</filter>
<filter id="filter1_d_502_1290" x="138" y="30" width="88" height="88" filterUnits="userSpaceOnUse" color-interpolation-filters="sRGB">
<feFlood flood-opacity="0" result="BackgroundImageFix"/>
<feColorMatrix in="SourceAlpha" type="matrix" values="0 0 0 0 0 0 0 0 0 0 0 0 0 0 0 0 0 0 127 0" result="hardAlpha"/>
<feOffset dy="4"/>
<feGaussianBlur stdDeviation="2"/>
<feComposite in2="hardAlpha" operator="out"/>
<feColorMatrix type="matrix" values="0 0 0 0 0 0 0 0 0 0 0 0 0 0 0 0 0 0 0.25 0"/>
<feBlend mode="normal" in2="BackgroundImageFix" result="effect1_dropShadow_502_1290"/>
<feBlend mode="normal" in="SourceGraphic" in2="effect1_dropShadow_502_1290" result="shape"/>
</filter>
<filter id="filter2_d_502_1290" x="16" y="30" width="88" height="88" filterUnits="userSpaceOnUse" color-interpolation-filters="sRGB">
<feFlood flood-opacity="0" result="BackgroundImageFix"/>
<feColorMatrix in="SourceAlpha" type="matrix" values="0 0 0 0 0 0 0 0 0 0 0 0 0 0 0 0 0 0 127 0" result="hardAlpha"/>
<feOffset dy="4"/>
<feGaussianBlur stdDeviation="2"/>
<feComposite in2="hardAlpha" operator="out"/>
<feColorMatrix type="matrix" values="0 0 0 0 0 0 0 0 0 0 0 0 0 0 0 0 0 0 0.25 0"/>
<feBlend mode="normal" in2="BackgroundImageFix" result="effect1_dropShadow_502_1290"/>
<feBlend mode="normal" in="SourceGraphic" in2="effect1_dropShadow_502_1290" result="shape"/>
</filter>
<filter id="filter3_d_502_1290" x="136" y="30" width="88" height="88" filterUnits="userSpaceOnUse" color-interpolation-filters="sRGB">
<feFlood flood-opacity="0" result="BackgroundImageFix"/>
<feColorMatrix in="SourceAlpha" type="matrix" values="0 0 0 0 0 0 0 0 0 0 0 0 0 0 0 0 0 0 127 0" result="hardAlpha"/>
<feOffset dy="4"/>
<feGaussianBlur stdDeviation="2"/>
<feComposite in2="hardAlpha" operator="out"/>
<feColorMatrix type="matrix" values="0 0 0 0 0 0 0 0 0 0 0 0 0 0 0 0 0 0 0.25 0"/>
<feBlend mode="normal" in2="BackgroundImageFix" result="effect1_dropShadow_502_1290"/>
<feBlend mode="normal" in="SourceGraphic" in2="effect1_dropShadow_502_1290" result="shape"/>
</filter>
<filter id="filter4_d_502_1290" x="76" y="125" width="88" height="88" filterUnits="userSpaceOnUse" color-interpolation-filters="sRGB">
<feFlood flood-opacity="0" result="BackgroundImageFix"/>
<feColorMatrix in="SourceAlpha" type="matrix" values="0 0 0 0 0 0 0 0 0 0 0 0 0 0 0 0 0 0 127 0" result="hardAlpha"/>
<feOffset dy="4"/>
<feGaussianBlur stdDeviation="2"/>
<feComposite in2="hardAlpha" operator="out"/>
<feColorMatrix type="matrix" values="0 0 0 0 0 0 0 0 0 0 0 0 0 0 0 0 0 0 0.25 0"/>
<feBlend mode="normal" in2="BackgroundImageFix" result="effect1_dropShadow_502_1290"/>
<feBlend mode="normal" in="SourceGraphic" in2="effect1_dropShadow_502_1290" result="shape"/>
</filter>
<clipPath id="clip0_502_1290">
<rect width="240" height="210" fill="white"/>
</clipPath>
<clipPath id="clip1_502_1290">
<rect width="240" height="210" rx="20" fill="white"/>
</clipPath>
</defs>
</svg>
