<svg width="240" height="210" viewBox="0 0 240 210" fill="none" xmlns="http://www.w3.org/2000/svg">
<g clip-path="url(#clip0_493_1574)">
<rect width="240" height="210" fill="white"/>
<g filter="url(#filter0_d_493_1574)">
<rect x="20" y="30" width="80" height="80" rx="20" fill="white"/>
</g>
<g filter="url(#filter1_d_493_1574)">
<rect x="20" y="125" width="80" height="80" rx="20" fill="white"/>
</g>
<g filter="url(#filter2_d_493_1574)">
<rect x="140" y="125" width="80" height="80" rx="20" fill="white"/>
</g>
<g filter="url(#filter3_d_493_1574)">
<rect x="140" y="30" width="80" height="80" rx="20" fill="white"/>
</g>
<g filter="url(#filter4_dd_493_1574)">
<path d="M57.1413 44.8182V55H55.9084V46.1108H55.8487L53.3629 47.7614V46.5085L55.9084 44.8182H57.1413ZM60.0696 55V54.1051L63.4304 50.4261C63.8248 49.9953 64.1496 49.6207 64.4048 49.3026C64.66 48.9811 64.849 48.6795 64.9716 48.3977C65.0975 48.1127 65.1605 47.8144 65.1605 47.5028C65.1605 47.1449 65.0743 46.835 64.902 46.5732C64.733 46.3113 64.5009 46.1091 64.206 45.9666C63.911 45.8241 63.5795 45.7528 63.2116 45.7528C62.8205 45.7528 62.4792 45.834 62.1875 45.9964C61.8991 46.1555 61.6754 46.3793 61.5163 46.6676C61.3606 46.956 61.2827 47.294 61.2827 47.6818H60.1094C60.1094 47.0852 60.2469 46.5616 60.522 46.1108C60.7971 45.66 61.1716 45.3087 61.6456 45.0568C62.1229 44.8049 62.6581 44.679 63.2514 44.679C63.848 44.679 64.3767 44.8049 64.8374 45.0568C65.2981 45.3087 65.6593 45.6484 65.9212 46.076C66.183 46.5036 66.3139 46.9792 66.3139 47.5028C66.3139 47.8774 66.246 48.2436 66.1101 48.6016C65.9775 48.9562 65.7455 49.3523 65.4141 49.7898C65.0859 50.224 64.6302 50.7543 64.0469 51.3807L61.7599 53.8267V53.9062H66.4929V55H60.0696Z" fill="black"/>
<path d="M41.1421 78V67.8182H44.5825C45.3812 67.8182 46.0342 67.9624 46.5413 68.2507C47.0517 68.5357 47.4295 68.9219 47.6748 69.4091C47.9201 69.8963 48.0427 70.4399 48.0427 71.0398C48.0427 71.6397 47.9201 72.1849 47.6748 72.6754C47.4329 73.166 47.0583 73.5571 46.5512 73.8487C46.0441 74.1371 45.3945 74.2812 44.6024 74.2812H42.1365V73.1875H44.5626C45.1095 73.1875 45.5486 73.093 45.8801 72.9041C46.2115 72.7152 46.4518 72.46 46.6009 72.1385C46.7534 71.8137 46.8296 71.4474 46.8296 71.0398C46.8296 70.6321 46.7534 70.2675 46.6009 69.946C46.4518 69.6245 46.2098 69.3726 45.8751 69.1903C45.5403 69.0047 45.0962 68.9119 44.5427 68.9119H42.3751V78H41.1421ZM54.6823 74.8778V70.3636H55.8556V78H54.6823V76.7074H54.6027C54.4237 77.0952 54.1453 77.425 53.7675 77.6967C53.3896 77.9652 52.9124 78.0994 52.3357 78.0994C51.8584 78.0994 51.4342 77.995 51.0629 77.7862C50.6917 77.5741 50.4001 77.2559 50.1879 76.8317C49.9758 76.4041 49.8698 75.8655 49.8698 75.2159V70.3636H51.0431V75.1364C51.0431 75.6932 51.1988 76.1373 51.5104 76.4688C51.8253 76.8002 52.2263 76.9659 52.7135 76.9659C53.0052 76.9659 53.3018 76.8913 53.6034 76.7422C53.9084 76.593 54.1636 76.3643 54.3691 76.0561C54.5779 75.7479 54.6823 75.3551 54.6823 74.8778ZM58.1636 78V67.8182H59.3369V71.5767H59.4363C59.5225 71.4441 59.6418 71.2751 59.7943 71.0696C59.9501 70.8608 60.1721 70.6752 60.4605 70.5128C60.7522 70.3471 61.1466 70.2642 61.6437 70.2642C62.2867 70.2642 62.8535 70.425 63.344 70.7464C63.8345 71.0679 64.2174 71.5237 64.4925 72.1136C64.7675 72.7036 64.9051 73.3996 64.9051 74.2017C64.9051 75.0104 64.7675 75.7114 64.4925 76.3047C64.2174 76.8946 63.8362 77.352 63.349 77.6768C62.8618 77.9983 62.3 78.1591 61.6636 78.1591C61.1731 78.1591 60.7803 78.0779 60.4854 77.9155C60.1904 77.7498 59.9633 77.5625 59.8042 77.3537C59.6452 77.1416 59.5225 76.9659 59.4363 76.8267H59.2971V78H58.1636ZM59.317 74.1818C59.317 74.7585 59.4015 75.2673 59.5706 75.7081C59.7396 76.1456 59.9865 76.4886 60.3113 76.7372C60.6362 76.9825 61.0339 77.1051 61.5045 77.1051C61.9951 77.1051 62.4044 76.9759 62.7325 76.7173C63.064 76.4555 63.3125 76.1042 63.4782 75.6634C63.6473 75.2192 63.7318 74.7254 63.7318 74.1818C63.7318 73.6449 63.6489 73.161 63.4832 72.7301C63.3208 72.2959 63.0739 71.9529 62.7425 71.701C62.4143 71.4458 62.0017 71.3182 61.5045 71.3182C61.0273 71.3182 60.6262 71.4392 60.3014 71.6811C59.9766 71.9197 59.7313 72.2545 59.5656 72.6854C59.3999 73.1129 59.317 73.6117 59.317 74.1818ZM67.8731 67.8182V78H66.6998V67.8182H67.8731ZM70.0221 78V70.3636H71.1954V78H70.0221ZM70.6187 69.0909C70.39 69.0909 70.1928 69.013 70.0271 68.8572C69.8647 68.7015 69.7835 68.5142 69.7835 68.2955C69.7835 68.0767 69.8647 67.8894 70.0271 67.7337C70.1928 67.5779 70.39 67.5 70.6187 67.5C70.8474 67.5 71.0429 67.5779 71.2053 67.7337C71.3711 67.8894 71.4539 68.0767 71.4539 68.2955C71.4539 68.5142 71.3711 68.7015 71.2053 68.8572C71.0429 69.013 70.8474 69.0909 70.6187 69.0909ZM76.4466 78.1591C75.7307 78.1591 75.1143 77.9901 74.5972 77.652C74.0802 77.3139 73.6824 76.8482 73.404 76.255C73.1256 75.6617 72.9864 74.9839 72.9864 74.2216C72.9864 73.446 73.1289 72.7616 73.414 72.1683C73.7023 71.5717 74.1034 71.1061 74.6171 70.7713C75.1341 70.4332 75.7374 70.2642 76.4268 70.2642C76.9637 70.2642 77.4476 70.3636 77.8785 70.5625C78.3093 70.7614 78.6623 71.0398 78.9374 71.3977C79.2125 71.7557 79.3832 72.1733 79.4495 72.6506H78.2762C78.1867 72.3026 77.9878 71.9943 77.6796 71.7259C77.3747 71.4541 76.9637 71.3182 76.4466 71.3182C75.9893 71.3182 75.5882 71.4375 75.2435 71.6761C74.9021 71.9115 74.6353 72.2446 74.4431 72.6754C74.2542 73.103 74.1597 73.6051 74.1597 74.1818C74.1597 74.7718 74.2525 75.2855 74.4381 75.723C74.627 76.1605 74.8922 76.5002 75.2336 76.7422C75.5783 76.9841 75.9826 77.1051 76.4466 77.1051C76.7516 77.1051 77.0283 77.0521 77.2769 76.946C77.5255 76.84 77.7359 76.6875 77.9083 76.4886C78.0806 76.2898 78.2033 76.0511 78.2762 75.7727H79.4495C79.3832 76.2235 79.2191 76.6295 78.9573 76.9908C78.6988 77.3487 78.3557 77.6338 77.9282 77.8459C77.5039 78.0547 77.0101 78.1591 76.4466 78.1591ZM41.1763 95V84.8182H44.736C45.4453 84.8182 46.0302 84.9408 46.4909 85.1861C46.9516 85.428 47.2947 85.7545 47.5201 86.1655C47.7454 86.5732 47.8581 87.0256 47.8581 87.5227C47.8581 87.9602 47.7802 88.3215 47.6245 88.6065C47.472 88.8916 47.2698 89.117 47.0179 89.2827C46.7694 89.4484 46.4992 89.571 46.2076 89.6506V89.75C46.5191 89.7699 46.8323 89.8793 47.1472 90.0781C47.4621 90.277 47.7256 90.562 47.9377 90.9332C48.1498 91.3045 48.2559 91.7585 48.2559 92.2955C48.2559 92.8059 48.1399 93.2649 47.9078 93.6726C47.6758 94.0803 47.3096 94.4034 46.8091 94.642C46.3087 94.8807 45.6574 95 44.8553 95H41.1763ZM42.4093 93.9062H44.8553C45.6607 93.9062 46.2324 93.7505 46.5705 93.4389C46.9119 93.1241 47.0826 92.7429 47.0826 92.2955C47.0826 91.9508 46.9947 91.6326 46.8191 91.3409C46.6434 91.0459 46.3932 90.8106 46.0684 90.6349C45.7435 90.456 45.3591 90.3665 44.915 90.3665H42.4093V93.9062ZM42.4093 89.2926H44.6962C45.0674 89.2926 45.4022 89.2197 45.7005 89.0739C46.0021 88.928 46.2407 88.7225 46.4164 88.4574C46.5953 88.1922 46.6848 87.8807 46.6848 87.5227C46.6848 87.0753 46.5291 86.6958 46.2175 86.3842C45.906 86.0694 45.4121 85.9119 44.736 85.9119H42.4093V89.2926ZM52.3699 95.179C51.8859 95.179 51.4468 95.0878 51.0524 94.9055C50.658 94.7199 50.3448 94.4531 50.1127 94.1051C49.8807 93.7538 49.7647 93.3295 49.7647 92.8324C49.7647 92.3949 49.8509 92.0402 50.0233 91.7685C50.1956 91.4934 50.426 91.2779 50.7143 91.1222C51.0027 90.9664 51.3208 90.8504 51.6689 90.7741C52.0202 90.6946 52.3732 90.6316 52.7278 90.5852C53.1918 90.5256 53.568 90.4808 53.8564 90.451C54.148 90.4179 54.3601 90.3632 54.4927 90.2869C54.6286 90.2107 54.6966 90.0781 54.6966 89.8892V89.8494C54.6966 89.3589 54.5623 88.9777 54.2939 88.706C54.0287 88.4342 53.626 88.2983 53.0858 88.2983C52.5256 88.2983 52.0865 88.4209 51.7683 88.6662C51.4501 88.9115 51.2264 89.1733 51.0971 89.4517L49.9835 89.054C50.1824 88.59 50.4475 88.2287 50.7789 87.9702C51.1137 87.7083 51.4783 87.526 51.8727 87.4233C52.2704 87.3172 52.6615 87.2642 53.046 87.2642C53.2913 87.2642 53.573 87.294 53.8912 87.3537C54.2127 87.41 54.5225 87.5277 54.8208 87.7067C55.1225 87.8857 55.3727 88.1558 55.5716 88.517C55.7704 88.8783 55.8699 89.3622 55.8699 89.9688V95H54.6966V93.9659H54.6369C54.5574 94.1316 54.4248 94.3089 54.2392 94.4979C54.0536 94.6868 53.8066 94.8475 53.4984 94.9801C53.1902 95.1127 52.814 95.179 52.3699 95.179ZM52.5488 94.125C53.0128 94.125 53.4039 94.0339 53.7221 93.8516C54.0436 93.6693 54.2856 93.4339 54.448 93.1456C54.6137 92.8572 54.6966 92.554 54.6966 92.2358V91.1619C54.6468 91.2216 54.5375 91.2763 54.3684 91.326C54.2027 91.3724 54.0105 91.4138 53.7917 91.4503C53.5763 91.4834 53.3658 91.5133 53.1603 91.5398C52.9582 91.563 52.7941 91.5829 52.6681 91.5994C52.3632 91.6392 52.0782 91.7038 51.813 91.7933C51.5512 91.8795 51.3391 92.0104 51.1767 92.1861C51.0176 92.3584 50.938 92.5937 50.938 92.892C50.938 93.2997 51.0888 93.608 51.3904 93.8168C51.6954 94.0223 52.0815 94.125 52.5488 94.125ZM59.1847 90.4062V95H58.0114V87.3636H59.1449V88.5568H59.2443C59.4233 88.169 59.6951 87.8575 60.0597 87.6222C60.4242 87.3835 60.8949 87.2642 61.4716 87.2642C61.9886 87.2642 62.4411 87.3703 62.8288 87.5824C63.2166 87.7912 63.5182 88.1094 63.7337 88.5369C63.9491 88.9612 64.0568 89.4981 64.0568 90.1477V95H62.8835V90.2273C62.8835 89.6274 62.7277 89.16 62.4162 88.8253C62.1046 88.4872 61.6771 88.3182 61.1335 88.3182C60.759 88.3182 60.4242 88.3994 60.1293 88.5618C59.8376 88.7242 59.6072 88.9612 59.4382 89.2727C59.2692 89.5843 59.1847 89.9621 59.1847 90.4062ZM67.2946 92.2159L67.2747 90.7642H67.5133L70.8542 87.3636H72.3059L68.7463 90.9631H68.6468L67.2946 92.2159ZM66.2008 95V84.8182H67.3741V95H66.2008ZM71.0531 95L68.0701 91.2216L68.9054 90.4062L72.5446 95H71.0531ZM79.2251 89.0739L78.1712 89.3722C78.1049 89.1965 78.0071 89.0258 77.8778 88.8601C77.7519 88.6911 77.5795 88.5518 77.3608 88.4425C77.142 88.3331 76.862 88.2784 76.5206 88.2784C76.0533 88.2784 75.6638 88.3861 75.3523 88.6016C75.044 88.8137 74.8899 89.0838 74.8899 89.4119C74.8899 89.7036 74.996 89.9339 75.2081 90.103C75.4202 90.272 75.7517 90.4129 76.2024 90.5256L77.3359 90.804C78.0187 90.9697 78.5275 91.2232 78.8622 91.5646C79.197 91.9027 79.3643 92.3385 79.3643 92.8722C79.3643 93.3097 79.2384 93.7008 78.9865 94.0455C78.7379 94.3902 78.3899 94.6619 77.9425 94.8608C77.495 95.0597 76.9747 95.1591 76.3814 95.1591C75.6025 95.1591 74.9579 94.9901 74.4474 94.652C73.937 94.3139 73.6139 93.8201 73.478 93.1705L74.5916 92.892C74.6977 93.303 74.8982 93.6113 75.1932 93.8168C75.4915 94.0223 75.8809 94.125 76.3615 94.125C76.9084 94.125 77.3426 94.009 77.6641 93.777C77.9889 93.5417 78.1513 93.2599 78.1513 92.9318C78.1513 92.6667 78.0585 92.4446 77.8729 92.2656C77.6873 92.0833 77.4022 91.9474 77.0178 91.858L75.745 91.5597C75.0457 91.3939 74.532 91.1371 74.2038 90.7891C73.879 90.4377 73.7166 89.9986 73.7166 89.4716C73.7166 89.0407 73.8376 88.6596 74.0795 88.3281C74.3248 87.9967 74.6579 87.7365 75.0788 87.5476C75.5031 87.3587 75.9837 87.2642 76.5206 87.2642C77.2763 87.2642 77.8696 87.4299 78.3004 87.7614C78.7346 88.0928 79.0429 88.5303 79.2251 89.0739Z" fill="black"/>
</g>
<g filter="url(#filter5_dd_493_1574)">
<path d="M177.011 44.8182V55H175.778V46.1108H175.719L173.233 47.7614V46.5085L175.778 44.8182H177.011ZM183.32 55.1392C182.903 55.1326 182.485 55.053 182.068 54.9006C181.65 54.7481 181.269 54.4912 180.924 54.13C180.579 53.7654 180.303 53.2732 180.094 52.6534C179.885 52.0303 179.781 51.2481 179.781 50.3068C179.781 49.4053 179.865 48.6065 180.034 47.9105C180.203 47.2112 180.448 46.6229 180.77 46.1456C181.091 45.665 181.479 45.3004 181.933 45.0518C182.391 44.8033 182.906 44.679 183.479 44.679C184.05 44.679 184.557 44.7933 185.001 45.022C185.448 45.2474 185.813 45.5623 186.095 45.9666C186.376 46.371 186.559 46.8366 186.641 47.3636H185.428C185.316 46.9062 185.097 46.5268 184.772 46.2251C184.447 45.9235 184.016 45.7727 183.479 45.7727C182.691 45.7727 182.069 46.1158 181.615 46.8018C181.164 47.4879 180.937 48.4508 180.934 49.6903H181.014C181.199 49.4086 181.42 49.1683 181.675 48.9695C181.933 48.7673 182.218 48.6115 182.53 48.5021C182.841 48.3928 183.171 48.3381 183.519 48.3381C184.103 48.3381 184.636 48.4839 185.12 48.7756C185.604 49.0639 185.992 49.4633 186.283 49.9737C186.575 50.4808 186.721 51.0625 186.721 51.7188C186.721 52.3485 186.58 52.9252 186.298 53.4489C186.017 53.9692 185.621 54.3835 185.11 54.6918C184.603 54.9967 184.006 55.1458 183.32 55.1392ZM183.32 54.0455C183.738 54.0455 184.113 53.9411 184.444 53.7322C184.779 53.5234 185.042 53.2434 185.234 52.892C185.43 52.5407 185.528 52.1496 185.528 51.7188C185.528 51.2978 185.433 50.915 185.244 50.5703C185.059 50.2223 184.802 49.9455 184.474 49.7401C184.149 49.5346 183.778 49.4318 183.36 49.4318C183.045 49.4318 182.752 49.4948 182.48 49.6207C182.208 49.7434 181.97 49.9124 181.764 50.1278C181.562 50.3433 181.403 50.5902 181.287 50.8686C181.171 51.1437 181.113 51.4337 181.113 51.7386C181.113 52.143 181.207 52.5208 181.396 52.8722C181.589 53.2235 181.85 53.5069 182.182 53.7223C182.517 53.9377 182.896 54.0455 183.32 54.0455Z" fill="black"/>
<path d="M158.223 76V65.8182H161.664C162.462 65.8182 163.115 65.9624 163.622 66.2507C164.133 66.5357 164.511 66.9219 164.756 67.4091C165.001 67.8963 165.124 68.4399 165.124 69.0398C165.124 69.6397 165.001 70.1849 164.756 70.6754C164.514 71.166 164.139 71.5571 163.632 71.8487C163.125 72.1371 162.476 72.2812 161.683 72.2812H159.218V71.1875H161.644C162.191 71.1875 162.63 71.093 162.961 70.9041C163.293 70.7152 163.533 70.46 163.682 70.1385C163.834 69.8137 163.911 69.4474 163.911 69.0398C163.911 68.6321 163.834 68.2675 163.682 67.946C163.533 67.6245 163.291 67.3726 162.956 67.1903C162.621 67.0047 162.177 66.9119 161.624 66.9119H159.456V76H158.223ZM166.951 76V68.3636H168.084V69.517H168.164C168.303 69.1392 168.555 68.8326 168.92 68.5973C169.284 68.362 169.695 68.2443 170.153 68.2443C170.239 68.2443 170.346 68.246 170.476 68.2493C170.605 68.2526 170.703 68.2576 170.769 68.2642V69.4574C170.729 69.4474 170.638 69.4325 170.496 69.4126C170.356 69.3894 170.209 69.3778 170.053 69.3778C169.682 69.3778 169.35 69.4557 169.059 69.6115C168.77 69.764 168.542 69.9761 168.373 70.2479C168.207 70.5163 168.124 70.8229 168.124 71.1676V76H166.951ZM172.16 76V68.3636H173.333V76H172.16ZM172.756 67.0909C172.528 67.0909 172.33 67.013 172.165 66.8572C172.002 66.7015 171.921 66.5142 171.921 66.2955C171.921 66.0767 172.002 65.8894 172.165 65.7337C172.33 65.5779 172.528 65.5 172.756 65.5C172.985 65.5 173.181 65.5779 173.343 65.7337C173.509 65.8894 173.592 66.0767 173.592 66.2955C173.592 66.5142 173.509 66.7015 173.343 66.8572C173.181 67.013 172.985 67.0909 172.756 67.0909ZM181.726 68.3636L178.903 76H177.709L174.885 68.3636H176.158L178.266 74.4489H178.346L180.454 68.3636H181.726ZM185.29 76.179C184.806 76.179 184.367 76.0878 183.972 75.9055C183.578 75.7199 183.265 75.4531 183.033 75.1051C182.801 74.7538 182.685 74.3295 182.685 73.8324C182.685 73.3949 182.771 73.0402 182.943 72.7685C183.116 72.4934 183.346 72.2779 183.634 72.1222C183.923 71.9664 184.241 71.8504 184.589 71.7741C184.94 71.6946 185.293 71.6316 185.648 71.5852C186.112 71.5256 186.488 71.4808 186.776 71.451C187.068 71.4179 187.28 71.3632 187.413 71.2869C187.549 71.2107 187.616 71.0781 187.616 70.8892V70.8494C187.616 70.3589 187.482 69.9777 187.214 69.706C186.949 69.4342 186.546 69.2983 186.006 69.2983C185.446 69.2983 185.006 69.4209 184.688 69.6662C184.37 69.9115 184.146 70.1733 184.017 70.4517L182.903 70.054C183.102 69.59 183.367 69.2287 183.699 68.9702C184.034 68.7083 184.398 68.526 184.793 68.4233C185.19 68.3172 185.581 68.2642 185.966 68.2642C186.211 68.2642 186.493 68.294 186.811 68.3537C187.133 68.41 187.442 68.5277 187.741 68.7067C188.042 68.8857 188.293 69.1558 188.491 69.517C188.69 69.8783 188.79 70.3622 188.79 70.9688V76H187.616V74.9659H187.557C187.477 75.1316 187.345 75.3089 187.159 75.4979C186.973 75.6868 186.727 75.8475 186.418 75.9801C186.11 76.1127 185.734 76.179 185.29 76.179ZM185.469 75.125C185.933 75.125 186.324 75.0339 186.642 74.8516C186.964 74.6693 187.205 74.4339 187.368 74.1456C187.534 73.8572 187.616 73.554 187.616 73.2358V72.1619C187.567 72.2216 187.457 72.2763 187.288 72.326C187.123 72.3724 186.93 72.4138 186.712 72.4503C186.496 72.4834 186.286 72.5133 186.08 72.5398C185.878 72.563 185.714 72.5829 185.588 72.5994C185.283 72.6392 184.998 72.7038 184.733 72.7933C184.471 72.8795 184.259 73.0104 184.097 73.1861C183.938 73.3584 183.858 73.5937 183.858 73.892C183.858 74.2997 184.009 74.608 184.31 74.8168C184.615 75.0223 185.001 75.125 185.469 75.125ZM194.252 68.3636V69.358H190.295V68.3636H194.252ZM191.448 66.5341H192.622V73.8125C192.622 74.1439 192.67 74.3925 192.766 74.5582C192.865 74.7206 192.991 74.83 193.144 74.8864C193.299 74.9394 193.463 74.9659 193.636 74.9659C193.765 74.9659 193.871 74.9593 193.954 74.946C194.037 74.9295 194.103 74.9162 194.153 74.9062L194.392 75.9602C194.312 75.9901 194.201 76.0199 194.058 76.0497C193.916 76.0829 193.735 76.0994 193.517 76.0994C193.185 76.0994 192.86 76.0282 192.542 75.8857C192.227 75.7431 191.965 75.526 191.757 75.2344C191.551 74.9427 191.448 74.5748 191.448 74.1307V66.5341ZM199.137 76.1591C198.401 76.1591 197.766 75.9967 197.233 75.6719C196.702 75.3438 196.293 74.8864 196.005 74.2997C195.72 73.7098 195.577 73.0237 195.577 72.2415C195.577 71.4593 195.72 70.7699 196.005 70.1733C196.293 69.5734 196.694 69.1061 197.208 68.7713C197.725 68.4332 198.328 68.2642 199.018 68.2642C199.415 68.2642 199.808 68.3305 200.196 68.4631C200.584 68.5956 200.937 68.8111 201.255 69.1094C201.573 69.4044 201.827 69.7955 202.015 70.2827C202.204 70.7699 202.299 71.3698 202.299 72.0824V72.5795H196.412V71.5653H201.106C201.106 71.1345 201.019 70.75 200.847 70.4119C200.678 70.0739 200.436 69.8071 200.121 69.6115C199.81 69.416 199.442 69.3182 199.018 69.3182C198.55 69.3182 198.146 69.4342 197.805 69.6662C197.466 69.8949 197.206 70.1932 197.024 70.5611C196.842 70.929 196.751 71.3234 196.751 71.7443V72.4205C196.751 72.9972 196.85 73.486 197.049 73.8871C197.251 74.2848 197.531 74.5881 197.889 74.7969C198.247 75.0024 198.663 75.1051 199.137 75.1051C199.445 75.1051 199.724 75.062 199.972 74.9759C200.224 74.8864 200.441 74.7538 200.623 74.5781C200.806 74.3991 200.947 74.1771 201.046 73.9119L202.18 74.2301C202.06 74.6146 201.86 74.9527 201.578 75.2443C201.296 75.5327 200.948 75.758 200.534 75.9205C200.12 76.0795 199.654 76.1591 199.137 76.1591ZM161.176 93V82.8182H164.736C165.445 82.8182 166.03 82.9408 166.491 83.1861C166.952 83.428 167.295 83.7545 167.52 84.1655C167.745 84.5732 167.858 85.0256 167.858 85.5227C167.858 85.9602 167.78 86.3215 167.624 86.6065C167.472 86.8916 167.27 87.117 167.018 87.2827C166.769 87.4484 166.499 87.571 166.208 87.6506V87.75C166.519 87.7699 166.832 87.8793 167.147 88.0781C167.462 88.277 167.726 88.562 167.938 88.9332C168.15 89.3045 168.256 89.7585 168.256 90.2955C168.256 90.8059 168.14 91.2649 167.908 91.6726C167.676 92.0803 167.31 92.4034 166.809 92.642C166.309 92.8807 165.657 93 164.855 93H161.176ZM162.409 91.9062H164.855C165.661 91.9062 166.232 91.7505 166.57 91.4389C166.912 91.1241 167.083 90.7429 167.083 90.2955C167.083 89.9508 166.995 89.6326 166.819 89.3409C166.643 89.0459 166.393 88.8106 166.068 88.6349C165.744 88.456 165.359 88.3665 164.915 88.3665H162.409V91.9062ZM162.409 87.2926H164.696C165.067 87.2926 165.402 87.2197 165.7 87.0739C166.002 86.928 166.241 86.7225 166.416 86.4574C166.595 86.1922 166.685 85.8807 166.685 85.5227C166.685 85.0753 166.529 84.6958 166.218 84.3842C165.906 84.0694 165.412 83.9119 164.736 83.9119H162.409V87.2926ZM172.37 93.179C171.886 93.179 171.447 93.0878 171.052 92.9055C170.658 92.7199 170.345 92.4531 170.113 92.1051C169.881 91.7538 169.765 91.3295 169.765 90.8324C169.765 90.3949 169.851 90.0402 170.023 89.7685C170.196 89.4934 170.426 89.2779 170.714 89.1222C171.003 88.9664 171.321 88.8504 171.669 88.7741C172.02 88.6946 172.373 88.6316 172.728 88.5852C173.192 88.5256 173.568 88.4808 173.856 88.451C174.148 88.4179 174.36 88.3632 174.493 88.2869C174.629 88.2107 174.697 88.0781 174.697 87.8892V87.8494C174.697 87.3589 174.562 86.9777 174.294 86.706C174.029 86.4342 173.626 86.2983 173.086 86.2983C172.526 86.2983 172.086 86.4209 171.768 86.6662C171.45 86.9115 171.226 87.1733 171.097 87.4517L169.983 87.054C170.182 86.59 170.448 86.2287 170.779 85.9702C171.114 85.7083 171.478 85.526 171.873 85.4233C172.27 85.3172 172.662 85.2642 173.046 85.2642C173.291 85.2642 173.573 85.294 173.891 85.3537C174.213 85.41 174.523 85.5277 174.821 85.7067C175.122 85.8857 175.373 86.1558 175.572 86.517C175.77 86.8783 175.87 87.3622 175.87 87.9688V93H174.697V91.9659H174.637C174.557 92.1316 174.425 92.3089 174.239 92.4979C174.054 92.6868 173.807 92.8475 173.498 92.9801C173.19 93.1127 172.814 93.179 172.37 93.179ZM172.549 92.125C173.013 92.125 173.404 92.0339 173.722 91.8516C174.044 91.6693 174.286 91.4339 174.448 91.1456C174.614 90.8572 174.697 90.554 174.697 90.2358V89.1619C174.647 89.2216 174.537 89.2763 174.368 89.326C174.203 89.3724 174.01 89.4138 173.792 89.4503C173.576 89.4834 173.366 89.5133 173.16 89.5398C172.958 89.563 172.794 89.5829 172.668 89.5994C172.363 89.6392 172.078 89.7038 171.813 89.7933C171.551 89.8795 171.339 90.0104 171.177 90.1861C171.018 90.3584 170.938 90.5937 170.938 90.892C170.938 91.2997 171.089 91.608 171.39 91.8168C171.695 92.0223 172.081 92.125 172.549 92.125ZM179.185 88.4062V93H178.011V85.3636H179.145V86.5568H179.244C179.423 86.169 179.695 85.8575 180.06 85.6222C180.424 85.3835 180.895 85.2642 181.472 85.2642C181.989 85.2642 182.441 85.3703 182.829 85.5824C183.217 85.7912 183.518 86.1094 183.734 86.5369C183.949 86.9612 184.057 87.4981 184.057 88.1477V93H182.884V88.2273C182.884 87.6274 182.728 87.16 182.416 86.8253C182.105 86.4872 181.677 86.3182 181.134 86.3182C180.759 86.3182 180.424 86.3994 180.129 86.5618C179.838 86.7242 179.607 86.9612 179.438 87.2727C179.269 87.5843 179.185 87.9621 179.185 88.4062ZM187.295 90.2159L187.275 88.7642H187.513L190.854 85.3636H192.306L188.746 88.9631H188.647L187.295 90.2159ZM186.201 93V82.8182H187.374V93H186.201ZM191.053 93L188.07 89.2216L188.905 88.4062L192.545 93H191.053ZM199.225 87.0739L198.171 87.3722C198.105 87.1965 198.007 87.0258 197.878 86.8601C197.752 86.6911 197.58 86.5518 197.361 86.4425C197.142 86.3331 196.862 86.2784 196.521 86.2784C196.053 86.2784 195.664 86.3861 195.352 86.6016C195.044 86.8137 194.89 87.0838 194.89 87.4119C194.89 87.7036 194.996 87.9339 195.208 88.103C195.42 88.272 195.752 88.4129 196.202 88.5256L197.336 88.804C198.019 88.9697 198.527 89.2232 198.862 89.5646C199.197 89.9027 199.364 90.3385 199.364 90.8722C199.364 91.3097 199.238 91.7008 198.987 92.0455C198.738 92.3902 198.39 92.6619 197.942 92.8608C197.495 93.0597 196.975 93.1591 196.381 93.1591C195.603 93.1591 194.958 92.9901 194.447 92.652C193.937 92.3139 193.614 91.8201 193.478 91.1705L194.592 90.892C194.698 91.303 194.898 91.6113 195.193 91.8168C195.491 92.0223 195.881 92.125 196.362 92.125C196.908 92.125 197.343 92.009 197.664 91.777C197.989 91.5417 198.151 91.2599 198.151 90.9318C198.151 90.6667 198.058 90.4446 197.873 90.2656C197.687 90.0833 197.402 89.9474 197.018 89.858L195.745 89.5597C195.046 89.3939 194.532 89.1371 194.204 88.7891C193.879 88.4377 193.717 87.9986 193.717 87.4716C193.717 87.0407 193.838 86.6596 194.08 86.3281C194.325 85.9967 194.658 85.7365 195.079 85.5476C195.503 85.3587 195.984 85.2642 196.521 85.2642C197.276 85.2642 197.87 85.4299 198.3 85.7614C198.735 86.0928 199.043 86.5303 199.225 87.0739Z" fill="black"/>
</g>
<g filter="url(#filter6_dd_493_1574)">
<path d="M61.0373 154.139C60.381 154.139 59.796 154.027 59.2823 153.801C58.7719 153.576 58.3659 153.263 58.0643 152.862C57.766 152.457 57.6036 151.988 57.5771 151.455H58.8299C58.8564 151.783 58.9691 152.066 59.168 152.305C59.3668 152.54 59.627 152.722 59.9485 152.852C60.27 152.981 60.6263 153.045 61.0174 153.045C61.4549 153.045 61.8427 152.969 62.1808 152.817C62.5188 152.664 62.784 152.452 62.9762 152.18C63.1684 151.909 63.2646 151.594 63.2646 151.236C63.2646 150.861 63.1718 150.531 62.9862 150.246C62.8005 149.958 62.5288 149.733 62.1708 149.57C61.8129 149.408 61.3754 149.327 60.8583 149.327H60.043V148.233H60.8583C61.2627 148.233 61.6173 148.16 61.9222 148.014C62.2305 147.868 62.4708 147.663 62.6431 147.398C62.8188 147.133 62.9066 146.821 62.9066 146.463C62.9066 146.118 62.8304 145.818 62.6779 145.563C62.5254 145.308 62.31 145.109 62.0316 144.967C61.7565 144.824 61.4317 144.753 61.0572 144.753C60.7058 144.753 60.3744 144.817 60.0629 144.947C59.7546 145.073 59.5027 145.257 59.3072 145.499C59.1116 145.737 59.0056 146.026 58.989 146.364H57.7958C57.8157 145.83 57.9764 145.363 58.2781 144.962C58.5797 144.557 58.9741 144.242 59.4613 144.017C59.9518 143.792 60.4904 143.679 61.0771 143.679C61.7068 143.679 62.247 143.807 62.6978 144.062C63.1486 144.314 63.4949 144.647 63.7369 145.061C63.9788 145.475 64.0998 145.923 64.0998 146.403C64.0998 146.977 63.949 147.466 63.6474 147.87C63.3491 148.274 62.9431 148.554 62.4293 148.71V148.79C63.0723 148.896 63.5745 149.169 63.9357 149.61C64.297 150.048 64.4776 150.589 64.4776 151.236C64.4776 151.789 64.3268 152.286 64.0252 152.727C63.7269 153.165 63.3192 153.509 62.8022 153.761C62.2852 154.013 61.6969 154.139 61.0373 154.139Z" fill="black"/>
<path d="M48.9867 166.364C48.927 165.86 48.6851 165.469 48.2608 165.19C47.8366 164.912 47.3162 164.773 46.6998 164.773C46.249 164.773 45.8546 164.846 45.5165 164.991C45.1818 165.137 44.9199 165.338 44.731 165.593C44.5454 165.848 44.4526 166.138 44.4526 166.463C44.4526 166.735 44.5172 166.969 44.6465 167.164C44.7791 167.356 44.9481 167.517 45.1536 167.646C45.3591 167.772 45.5745 167.877 45.7999 167.96C46.0253 168.039 46.2324 168.104 46.4213 168.153L47.4554 168.432C47.7206 168.501 48.0156 168.598 48.3404 168.72C48.6685 168.843 48.9817 169.01 49.28 169.222C49.5816 169.431 49.8302 169.7 50.0257 170.028C50.2213 170.356 50.3191 170.759 50.3191 171.236C50.3191 171.786 50.1749 172.283 49.8865 172.727C49.6015 173.171 49.1839 173.524 48.6337 173.786C48.0868 174.048 47.4223 174.179 46.6401 174.179C45.9109 174.179 45.2795 174.061 44.7459 173.826C44.2156 173.591 43.798 173.263 43.4931 172.842C43.1915 172.421 43.0208 171.932 42.981 171.375H44.2537C44.2869 171.759 44.4161 172.078 44.6415 172.33C44.8702 172.578 45.1586 172.764 45.5066 172.886C45.8579 173.006 46.2357 173.065 46.6401 173.065C47.1107 173.065 47.5333 172.989 47.9078 172.837C48.2824 172.681 48.579 172.465 48.7978 172.19C49.0165 171.912 49.1259 171.587 49.1259 171.216C49.1259 170.878 49.0314 170.603 48.8425 170.391C48.6536 170.179 48.405 170.006 48.0968 169.874C47.7885 169.741 47.4554 169.625 47.0975 169.526L45.8446 169.168C45.0492 168.939 44.4194 168.612 43.9554 168.188C43.4914 167.764 43.2594 167.209 43.2594 166.523C43.2594 165.953 43.4135 165.455 43.7218 165.031C44.0333 164.604 44.4509 164.272 44.9746 164.037C45.5016 163.798 46.0899 163.679 46.7395 163.679C47.3958 163.679 47.9791 163.797 48.4895 164.032C48.9999 164.264 49.4043 164.582 49.7026 164.987C50.0042 165.391 50.1633 165.85 50.1799 166.364H48.9867ZM52.1871 174V166.364H53.3207V167.557H53.4201C53.5792 167.149 53.8361 166.833 54.1907 166.607C54.5453 166.379 54.9712 166.264 55.4684 166.264C55.9722 166.264 56.3915 166.379 56.7262 166.607C57.0643 166.833 57.3278 167.149 57.5167 167.557H57.5962C57.7918 167.162 58.0851 166.849 58.4762 166.617C58.8673 166.382 59.3363 166.264 59.8832 166.264C60.5659 166.264 61.1244 166.478 61.5586 166.906C61.9928 167.33 62.2099 167.991 62.2099 168.889V174H61.0366V168.889C61.0366 168.326 60.8825 167.923 60.5742 167.681C60.266 167.439 59.9031 167.318 59.4854 167.318C58.9485 167.318 58.5326 167.481 58.2376 167.805C57.9426 168.127 57.7951 168.535 57.7951 169.028V174H56.6019V168.77C56.6019 168.336 56.4611 167.986 56.1793 167.721C55.8976 167.452 55.5347 167.318 55.0906 167.318C54.7856 167.318 54.5006 167.399 54.2354 167.562C53.9736 167.724 53.7615 167.95 53.5991 168.238C53.44 168.523 53.3604 168.853 53.3604 169.227V174H52.1871ZM66.6023 174.179C66.1184 174.179 65.6792 174.088 65.2848 173.906C64.8904 173.72 64.5772 173.453 64.3452 173.105C64.1132 172.754 63.9972 172.33 63.9972 171.832C63.9972 171.395 64.0833 171.04 64.2557 170.768C64.428 170.493 64.6584 170.278 64.9467 170.122C65.2351 169.966 65.5533 169.85 65.9013 169.774C66.2526 169.695 66.6056 169.632 66.9602 169.585C67.4242 169.526 67.8004 169.481 68.0888 169.451C68.3804 169.418 68.5926 169.363 68.7251 169.287C68.861 169.211 68.929 169.078 68.929 168.889V168.849C68.929 168.359 68.7947 167.978 68.5263 167.706C68.2611 167.434 67.8584 167.298 67.3182 167.298C66.758 167.298 66.3189 167.421 66.0007 167.666C65.6825 167.911 65.4588 168.173 65.3295 168.452L64.2159 168.054C64.4148 167.59 64.6799 167.229 65.0114 166.97C65.3461 166.708 65.7107 166.526 66.1051 166.423C66.5028 166.317 66.8939 166.264 67.2784 166.264C67.5237 166.264 67.8054 166.294 68.1236 166.354C68.4451 166.41 68.755 166.528 69.0533 166.707C69.3549 166.886 69.6051 167.156 69.804 167.517C70.0028 167.878 70.1023 168.362 70.1023 168.969V174H68.929V172.966H68.8693C68.7898 173.132 68.6572 173.309 68.4716 173.498C68.286 173.687 68.0391 173.848 67.7308 173.98C67.4226 174.113 67.0464 174.179 66.6023 174.179ZM66.7812 173.125C67.2453 173.125 67.6364 173.034 67.9545 172.852C68.276 172.669 68.518 172.434 68.6804 172.146C68.8461 171.857 68.929 171.554 68.929 171.236V170.162C68.8793 170.222 68.7699 170.276 68.6009 170.326C68.4351 170.372 68.2429 170.414 68.0241 170.45C67.8087 170.483 67.5982 170.513 67.3928 170.54C67.1906 170.563 67.0265 170.583 66.9006 170.599C66.5956 170.639 66.3106 170.704 66.0455 170.793C65.7836 170.879 65.5715 171.01 65.4091 171.186C65.25 171.358 65.1705 171.594 65.1705 171.892C65.1705 172.3 65.3213 172.608 65.6229 172.817C65.9278 173.022 66.3139 173.125 66.7812 173.125ZM73.4171 163.818V174H72.2438V163.818H73.4171ZM76.7393 163.818V174H75.5661V163.818H76.7393ZM35.3453 191V180.818H41.4504V181.912H36.5782V185.352H40.993V186.446H36.5782V191H35.3453ZM43.403 191V183.364H44.5763V191H43.403ZM43.9996 182.091C43.7709 182.091 43.5737 182.013 43.4079 181.857C43.2455 181.701 43.1643 181.514 43.1643 181.295C43.1643 181.077 43.2455 180.889 43.4079 180.734C43.5737 180.578 43.7709 180.5 43.9996 180.5C44.2282 180.5 44.4238 180.578 44.5862 180.734C44.7519 180.889 44.8348 181.077 44.8348 181.295C44.8348 181.514 44.7519 181.701 44.5862 181.857C44.4238 182.013 44.2282 182.091 43.9996 182.091ZM47.8985 186.406V191H46.7252V183.364H47.8588V184.557H47.9582C48.1372 184.169 48.4089 183.857 48.7735 183.622C49.1381 183.384 49.6088 183.264 50.1855 183.264C50.7025 183.264 51.1549 183.37 51.5427 183.582C51.9305 183.791 52.2321 184.109 52.4475 184.537C52.663 184.961 52.7707 185.498 52.7707 186.148V191H51.5974V186.227C51.5974 185.627 51.4416 185.16 51.1301 184.825C50.8185 184.487 50.391 184.318 49.8474 184.318C49.4729 184.318 49.1381 184.399 48.8431 184.562C48.5515 184.724 48.3211 184.961 48.1521 185.273C47.983 185.584 47.8985 185.962 47.8985 186.406ZM57.1618 191.179C56.6779 191.179 56.2388 191.088 55.8444 190.906C55.45 190.72 55.1367 190.453 54.9047 190.105C54.6727 189.754 54.5567 189.33 54.5567 188.832C54.5567 188.395 54.6429 188.04 54.8153 187.768C54.9876 187.493 55.218 187.278 55.5063 187.122C55.7947 186.966 56.1128 186.85 56.4608 186.774C56.8122 186.695 57.1652 186.632 57.5198 186.585C57.9838 186.526 58.36 186.481 58.6483 186.451C58.94 186.418 59.1521 186.363 59.2847 186.287C59.4206 186.211 59.4885 186.078 59.4885 185.889V185.849C59.4885 185.359 59.3543 184.978 59.0858 184.706C58.8207 184.434 58.418 184.298 57.8778 184.298C57.3176 184.298 56.8785 184.421 56.5603 184.666C56.2421 184.911 56.0184 185.173 55.8891 185.452L54.7755 185.054C54.9743 184.59 55.2395 184.229 55.5709 183.97C55.9057 183.708 56.2703 183.526 56.6647 183.423C57.0624 183.317 57.4535 183.264 57.838 183.264C58.0832 183.264 58.365 183.294 58.6831 183.354C59.0046 183.41 59.3145 183.528 59.6128 183.707C59.9144 183.886 60.1647 184.156 60.3635 184.517C60.5624 184.878 60.6618 185.362 60.6618 185.969V191H59.4885V189.966H59.4289C59.3493 190.132 59.2168 190.309 59.0312 190.498C58.8456 190.687 58.5986 190.848 58.2904 190.98C57.9822 191.113 57.606 191.179 57.1618 191.179ZM57.3408 190.125C57.8048 190.125 58.1959 190.034 58.5141 189.852C58.8356 189.669 59.0776 189.434 59.24 189.146C59.4057 188.857 59.4885 188.554 59.4885 188.236V187.162C59.4388 187.222 59.3295 187.276 59.1604 187.326C58.9947 187.372 58.8025 187.414 58.5837 187.45C58.3683 187.483 58.1578 187.513 57.9523 187.54C57.7501 187.563 57.5861 187.583 57.4601 187.599C57.1552 187.639 56.8702 187.704 56.605 187.793C56.3432 187.879 56.1311 188.01 55.9687 188.186C55.8096 188.358 55.73 188.594 55.73 188.892C55.73 189.3 55.8808 189.608 56.1824 189.817C56.4874 190.022 56.8735 190.125 57.3408 190.125ZM63.9767 186.406V191H62.8034V183.364H63.9369V184.557H64.0363C64.2153 184.169 64.4871 183.857 64.8517 183.622C65.2162 183.384 65.6869 183.264 66.2636 183.264C66.7806 183.264 67.233 183.37 67.6208 183.582C68.0086 183.791 68.3102 184.109 68.5257 184.537C68.7411 184.961 68.8488 185.498 68.8488 186.148V191H67.6755V186.227C67.6755 185.627 67.5197 185.16 67.2082 184.825C66.8966 184.487 66.4691 184.318 65.9255 184.318C65.551 184.318 65.2162 184.399 64.9213 184.562C64.6296 184.724 64.3992 184.961 64.2302 185.273C64.0612 185.584 63.9767 185.962 63.9767 186.406ZM74.0951 191.159C73.3792 191.159 72.7627 190.99 72.2456 190.652C71.7286 190.314 71.3309 189.848 71.0525 189.255C70.7741 188.662 70.6349 187.984 70.6349 187.222C70.6349 186.446 70.7774 185.762 71.0624 185.168C71.3508 184.572 71.7518 184.106 72.2655 183.771C72.7826 183.433 73.3858 183.264 74.0752 183.264C74.6121 183.264 75.096 183.364 75.5269 183.562C75.9578 183.761 76.3108 184.04 76.5858 184.398C76.8609 184.756 77.0316 185.173 77.0979 185.651H75.9246C75.8351 185.303 75.6363 184.994 75.328 184.726C75.0231 184.454 74.6121 184.318 74.0951 184.318C73.6377 184.318 73.2367 184.437 72.892 184.676C72.5506 184.911 72.2838 185.245 72.0915 185.675C71.9026 186.103 71.8081 186.605 71.8081 187.182C71.8081 187.772 71.901 188.286 72.0866 188.723C72.2755 189.161 72.5406 189.5 72.882 189.742C73.2267 189.984 73.6311 190.105 74.0951 190.105C74.4 190.105 74.6768 190.052 74.9253 189.946C75.1739 189.84 75.3844 189.688 75.5567 189.489C75.7291 189.29 75.8517 189.051 75.9246 188.773H77.0979C77.0316 189.223 76.8676 189.629 76.6057 189.991C76.3472 190.349 76.0042 190.634 75.5766 190.846C75.1524 191.055 74.6585 191.159 74.0951 191.159ZM82.0148 191.159C81.279 191.159 80.6443 190.997 80.1107 190.672C79.5804 190.344 79.1711 189.886 78.8827 189.3C78.5977 188.71 78.4552 188.024 78.4552 187.241C78.4552 186.459 78.5977 185.77 78.8827 185.173C79.1711 184.573 79.5721 184.106 80.0858 183.771C80.6029 183.433 81.2061 183.264 81.8955 183.264C82.2932 183.264 82.686 183.33 83.0738 183.463C83.4616 183.596 83.8145 183.811 84.1327 184.109C84.4509 184.404 84.7045 184.795 84.8934 185.283C85.0823 185.77 85.1768 186.37 85.1768 187.082V187.58H79.2904V186.565H83.9836C83.9836 186.134 83.8974 185.75 83.7251 185.412C83.556 185.074 83.3141 184.807 82.9992 184.612C82.6876 184.416 82.3198 184.318 81.8955 184.318C81.4282 184.318 81.0238 184.434 80.6824 184.666C80.3444 184.895 80.0842 185.193 79.9019 185.561C79.7196 185.929 79.6285 186.323 79.6285 186.744V187.42C79.6285 187.997 79.7279 188.486 79.9268 188.887C80.1289 189.285 80.409 189.588 80.767 189.797C81.1249 190.002 81.5409 190.105 82.0148 190.105C82.3231 190.105 82.6015 190.062 82.8501 189.976C83.1019 189.886 83.319 189.754 83.5013 189.578C83.6836 189.399 83.8245 189.177 83.9239 188.912L85.0574 189.23C84.9381 189.615 84.7376 189.953 84.4559 190.244C84.1742 190.533 83.8261 190.758 83.4118 190.92C82.9975 191.08 82.5319 191.159 82.0148 191.159Z" fill="black"/>
</g>
<g filter="url(#filter7_dd_493_1574)">
<path fill-rule="evenodd" clip-rule="evenodd" d="M177.406 154V143.818H176.173L173.627 145.509V146.761L176.113 145.111H176.173V154H177.406ZM182.462 153.901C182.879 154.053 183.297 154.133 183.715 154.139C184.401 154.146 184.997 153.997 185.504 153.692C186.015 153.384 186.411 152.969 186.692 152.449C186.974 151.925 187.115 151.348 187.115 150.719C187.115 150.062 186.969 149.481 186.678 148.974C186.386 148.463 185.998 148.064 185.514 147.776C185.03 147.484 184.497 147.338 183.913 147.338C183.565 147.338 183.236 147.393 182.924 147.502C182.612 147.611 182.327 147.767 182.069 147.969C181.814 148.168 181.593 148.409 181.408 148.69H181.328C181.331 147.451 181.558 146.488 182.009 145.802C182.463 145.116 183.085 144.773 183.874 144.773C184.411 144.773 184.841 144.924 185.166 145.225C185.491 145.527 185.71 145.906 185.822 146.364H187.036C186.953 145.837 186.77 145.371 186.489 144.967C186.207 144.562 185.842 144.247 185.395 144.022C184.951 143.793 184.444 143.679 183.874 143.679C183.3 143.679 182.785 143.803 182.327 144.052C181.873 144.3 181.486 144.665 181.164 145.146C180.843 145.623 180.597 146.211 180.428 146.91C180.259 147.607 180.175 148.405 180.175 149.307C180.175 150.248 180.279 151.03 180.488 151.653C180.697 152.273 180.974 152.765 181.318 153.13C181.663 153.491 182.044 153.748 182.462 153.901ZM184.838 152.732C184.507 152.941 184.132 153.045 183.715 153.045C183.29 153.045 182.911 152.938 182.576 152.722C182.245 152.507 181.983 152.223 181.79 151.872C181.602 151.521 181.507 151.143 181.507 150.739C181.507 150.434 181.565 150.144 181.681 149.869C181.797 149.59 181.956 149.343 182.158 149.128C182.364 148.912 182.603 148.743 182.874 148.621C183.146 148.495 183.439 148.432 183.754 148.432C184.172 148.432 184.543 148.535 184.868 148.74C185.196 148.946 185.453 149.222 185.639 149.57C185.827 149.915 185.922 150.298 185.922 150.719C185.922 151.15 185.824 151.541 185.629 151.892C185.436 152.243 185.173 152.523 184.838 152.732ZM170.283 182V171.818H169.07V179.832H168.97L163.402 171.818H162.209V182H163.442V174.006H163.541L169.09 182H170.283ZM172.75 171.818V182H176.429C177.231 182 177.882 181.881 178.383 181.642C178.883 181.403 179.25 181.08 179.482 180.673C179.714 180.265 179.83 179.806 179.83 179.295C179.83 178.758 179.723 178.304 179.511 177.933C179.299 177.562 179.036 177.277 178.721 177.078C178.406 176.879 178.093 176.77 177.781 176.75V176.651C178.073 176.571 178.343 176.448 178.592 176.283C178.844 176.117 179.046 175.892 179.198 175.607C179.354 175.321 179.432 174.96 179.432 174.523C179.432 174.026 179.319 173.573 179.094 173.165C178.868 172.754 178.525 172.428 178.065 172.186C177.604 171.941 177.019 171.818 176.31 171.818H172.75ZM176.429 180.906H173.983V177.366H176.489C176.933 177.366 177.317 177.456 177.642 177.635C177.967 177.811 178.217 178.046 178.393 178.341C178.568 178.633 178.656 178.951 178.656 179.295C178.656 179.743 178.486 180.124 178.144 180.439C177.806 180.75 177.234 180.906 176.429 180.906ZM176.27 176.293H173.983V172.912H176.31C176.986 172.912 177.48 173.069 177.791 173.384C178.103 173.696 178.259 174.075 178.259 174.523C178.259 174.881 178.169 175.192 177.99 175.457C177.814 175.723 177.576 175.928 177.274 176.074C176.976 176.22 176.641 176.293 176.27 176.293ZM181.855 171.818V182H183.088V177.446H187.503V176.352H183.088V172.912H187.961V171.818H181.855ZM197.032 175H198.265C198.173 174.476 198.004 174.011 197.758 173.603C197.513 173.192 197.208 172.844 196.844 172.559C196.479 172.271 196.07 172.052 195.616 171.903C195.165 171.754 194.683 171.679 194.169 171.679C193.3 171.679 192.528 171.891 191.852 172.315C191.176 172.74 190.644 173.343 190.256 174.125C189.868 174.907 189.675 175.835 189.675 176.909C189.675 177.983 189.868 178.911 190.256 179.693C190.644 180.475 191.176 181.079 191.852 181.503C192.528 181.927 193.3 182.139 194.169 182.139C194.683 182.139 195.165 182.065 195.616 181.915C196.07 181.766 196.479 181.549 196.844 181.264C197.208 180.976 197.513 180.626 197.758 180.215C198.004 179.804 198.173 179.339 198.265 178.818H197.032C196.96 179.169 196.832 179.481 196.65 179.753C196.471 180.021 196.252 180.248 195.993 180.434C195.738 180.616 195.455 180.754 195.143 180.847C194.832 180.939 194.507 180.986 194.169 180.986C193.552 180.986 192.994 180.83 192.493 180.518C191.996 180.207 191.6 179.748 191.305 179.141C191.014 178.535 190.868 177.791 190.868 176.909C190.868 176.027 191.014 175.283 191.305 174.677C191.6 174.07 191.996 173.611 192.493 173.3C192.994 172.988 193.552 172.832 194.169 172.832C194.507 172.832 194.832 172.879 195.143 172.972C195.455 173.064 195.738 173.204 195.993 173.389C196.252 173.571 196.471 173.797 196.65 174.065C196.832 174.334 196.96 174.645 197.032 175Z" fill="black"/>
</g>
<path d="M37.246 16.1392C36.5036 16.1392 35.8424 16.0116 35.2623 15.7564C34.6856 15.4979 34.2299 15.1432 33.8952 14.6925C33.5637 14.2384 33.393 13.7147 33.3831 13.1214H35.5507C35.564 13.37 35.6452 13.5888 35.7943 13.7777C35.9468 13.9633 36.1489 14.1075 36.4008 14.2102C36.6527 14.313 36.9361 14.3643 37.251 14.3643C37.5791 14.3643 37.8691 14.3063 38.121 14.1903C38.3729 14.0743 38.5701 13.9136 38.7126 13.7081C38.8551 13.5026 38.9264 13.2656 38.9264 12.9972C38.9264 12.7254 38.8502 12.4851 38.6977 12.2763C38.5486 12.0642 38.3331 11.8984 38.0514 11.7791C37.773 11.6598 37.4416 11.6001 37.0571 11.6001H36.1075V10.0192H37.0571C37.3819 10.0192 37.6686 9.96283 37.9172 9.85014C38.1691 9.73745 38.3646 9.58168 38.5038 9.38281C38.643 9.18063 38.7126 8.94531 38.7126 8.67685C38.7126 8.42164 38.6513 8.19792 38.5287 8.00568C38.4094 7.81013 38.2403 7.65767 38.0216 7.5483C37.8061 7.43892 37.5542 7.38423 37.2659 7.38423C36.9742 7.38423 36.7074 7.43726 36.4655 7.54332C36.2235 7.64607 36.0296 7.79356 35.8838 7.9858C35.738 8.17803 35.6601 8.40341 35.6501 8.66193H33.5869C33.5969 8.07528 33.7642 7.55824 34.089 7.1108C34.4139 6.66335 34.8514 6.31368 35.4015 6.06179C35.955 5.80658 36.5798 5.67898 37.2758 5.67898C37.9785 5.67898 38.5933 5.80658 39.1203 6.06179C39.6473 6.317 40.0566 6.66169 40.3483 7.09588C40.6433 7.52675 40.7891 8.01065 40.7858 8.54758C40.7891 9.11766 40.6118 9.59328 40.2538 9.97443C39.8992 10.3556 39.4368 10.5975 38.8667 10.7003V10.7798C39.6158 10.8759 40.1859 11.1361 40.577 11.5604C40.9714 11.9813 41.1669 12.5083 41.1636 13.1413C41.1669 13.7214 40.9996 14.2367 40.6615 14.6875C40.3267 15.1383 39.8644 15.4929 39.2744 15.7514C38.6845 16.0099 38.0083 16.1392 37.246 16.1392ZM46.7032 16.2237C45.8481 16.2204 45.1123 16.0099 44.4958 15.5923C43.8827 15.1747 43.4104 14.5698 43.0789 13.7777C42.7508 12.9856 42.5884 12.0327 42.5917 10.919C42.5917 9.80871 42.7558 8.86245 43.0839 8.08026C43.4153 7.29806 43.8876 6.70312 44.5008 6.29545C45.1173 5.88447 45.8514 5.67898 46.7032 5.67898C47.555 5.67898 48.2875 5.88447 48.9007 6.29545C49.5171 6.70644 49.9911 7.30303 50.3225 8.08523C50.654 8.86411 50.818 9.80871 50.8147 10.919C50.8147 12.036 50.649 12.9905 50.3176 13.7827C49.9894 14.5748 49.5188 15.1797 48.9056 15.5973C48.2925 16.0149 47.5583 16.2237 46.7032 16.2237ZM46.7032 14.4389C47.2865 14.4389 47.7522 14.1456 48.1002 13.5589C48.4482 12.9723 48.6206 12.0923 48.6173 10.919C48.6173 10.1468 48.5377 9.50379 48.3786 8.99006C48.2229 8.47633 48.0008 8.0902 47.7124 7.83168C47.4274 7.57315 47.091 7.44389 46.7032 7.44389C46.1232 7.44389 45.6592 7.7339 45.3112 8.31392C44.9632 8.89394 44.7875 9.76231 44.7842 10.919C44.7842 11.7012 44.8621 12.3542 45.0178 12.8778C45.1769 13.3982 45.4007 13.7893 45.689 14.0511C45.9774 14.3097 46.3154 14.4389 46.7032 14.4389ZM55.3923 14.4489V7.40909H57.1721V14.4489H55.3923ZM52.7623 11.8189V10.0391H59.8021V11.8189H52.7623ZM65.1652 16V5.81818H71.9067V7.59304H67.3179V10.0192H71.4593V11.794H67.3179V16H65.1652ZM73.3149 16V8.36364H75.4328V16H73.3149ZM74.3788 7.37926C74.064 7.37926 73.7938 7.27486 73.5684 7.06605C73.3464 6.85393 73.2354 6.60038 73.2354 6.3054C73.2354 6.01373 73.3464 5.76349 73.5684 5.55469C73.7938 5.34257 74.064 5.23651 74.3788 5.23651C74.6937 5.23651 74.9622 5.34257 75.1842 5.55469C75.4096 5.76349 75.5223 6.01373 75.5223 6.3054C75.5223 6.60038 75.4096 6.85393 75.1842 7.06605C74.9622 7.27486 74.6937 7.37926 74.3788 7.37926ZM79.2472 11.5852V16H77.1294V8.36364H79.1478V9.71094H79.2373C79.4063 9.26681 79.6897 8.91548 80.0874 8.65696C80.4852 8.39512 80.9674 8.2642 81.5342 8.2642C82.0645 8.2642 82.5268 8.38021 82.9213 8.61222C83.3157 8.84422 83.6222 9.17566 83.841 9.60653C84.0597 10.0341 84.1691 10.5445 84.1691 11.1378V16H82.0512V11.5156C82.0545 11.0483 81.9352 10.6837 81.6933 10.4219C81.4513 10.1567 81.1182 10.0241 80.694 10.0241C80.4089 10.0241 80.157 10.0855 79.9383 10.2081C79.7229 10.3307 79.5538 10.5097 79.4312 10.745C79.3119 10.977 79.2506 11.2571 79.2472 11.5852ZM88.0159 16.1442C87.5287 16.1442 87.0945 16.0597 86.7133 15.8906C86.3322 15.7183 86.0306 15.4647 85.8085 15.13C85.5898 14.7919 85.4804 14.371 85.4804 13.8672C85.4804 13.4429 85.5583 13.0866 85.714 12.7983C85.8698 12.5099 86.0819 12.2779 86.3504 12.1023C86.6189 11.9266 86.9238 11.794 87.2652 11.7045C87.6099 11.6151 87.9711 11.5521 88.349 11.5156C88.7931 11.4692 89.1511 11.4261 89.4229 11.3864C89.6946 11.3433 89.8918 11.2803 90.0145 11.1974C90.1371 11.1146 90.1984 10.992 90.1984 10.8295V10.7997C90.1984 10.4848 90.099 10.2412 89.9001 10.0689C89.7046 9.89654 89.4262 9.81037 89.0649 9.81037C88.6837 9.81037 88.3805 9.89489 88.1551 10.0639C87.9297 10.2296 87.7806 10.4384 87.7077 10.6903L85.7488 10.5312C85.8483 10.0672 86.0438 9.66619 86.3355 9.32812C86.6272 8.98674 87.0033 8.7249 87.464 8.54261C87.9281 8.35701 88.465 8.2642 89.0748 8.2642C89.4991 8.2642 89.9051 8.31392 90.2929 8.41335C90.684 8.51278 91.0303 8.6669 91.3319 8.87571C91.6369 9.08452 91.8772 9.35298 92.0528 9.68111C92.2285 10.0059 92.3163 10.3954 92.3163 10.8494V16H90.3078V14.9411H90.2481C90.1255 15.1797 89.9614 15.3902 89.7559 15.5724C89.5505 15.7514 89.3035 15.8923 89.0152 15.995C88.7268 16.0945 88.3937 16.1442 88.0159 16.1442ZM88.6224 14.6825C88.934 14.6825 89.2091 14.6212 89.4477 14.4986C89.6863 14.3726 89.8736 14.2036 90.0095 13.9915C90.1454 13.7794 90.2133 13.5391 90.2133 13.2706V12.4602C90.147 12.5033 90.0559 12.5431 89.9399 12.5795C89.8272 12.6127 89.6996 12.6442 89.5571 12.674C89.4146 12.7005 89.272 12.7254 89.1295 12.7486C88.987 12.7685 88.8577 12.7867 88.7417 12.8033C88.4932 12.8397 88.2761 12.8977 88.0905 12.9773C87.9049 13.0568 87.7607 13.1645 87.6579 13.3004C87.5552 13.433 87.5038 13.5987 87.5038 13.7976C87.5038 14.0859 87.6082 14.3063 87.817 14.4588C88.0291 14.608 88.2976 14.6825 88.6224 14.6825ZM96.0773 11.5852V16H93.9594V8.36364H95.9779V9.71094H96.0674C96.2364 9.26681 96.5198 8.91548 96.9175 8.65696C97.3153 8.39512 97.7975 8.2642 98.3643 8.2642C98.8946 8.2642 99.3569 8.38021 99.7513 8.61222C100.146 8.84422 100.452 9.17566 100.671 9.60653C100.89 10.0341 100.999 10.5445 100.999 11.1378V16H98.8813V11.5156C98.8846 11.0483 98.7653 10.6837 98.5233 10.4219C98.2814 10.1567 97.9483 10.0241 97.5241 10.0241C97.239 10.0241 96.9871 10.0855 96.7684 10.2081C96.5529 10.3307 96.3839 10.5097 96.2613 10.745C96.142 10.977 96.0806 11.2571 96.0773 11.5852ZM106.119 16.1491C105.336 16.1491 104.664 15.9834 104.1 15.652C103.54 15.3172 103.109 14.8532 102.808 14.2599C102.509 13.6667 102.36 12.9839 102.36 12.2116C102.36 11.4295 102.511 10.7434 102.813 10.1534C103.118 9.56013 103.55 9.09777 104.11 8.76633C104.67 8.43158 105.336 8.2642 106.109 8.2642C106.775 8.2642 107.358 8.38518 107.859 8.62713C108.359 8.86908 108.755 9.20881 109.047 9.64631C109.339 10.0838 109.499 10.5975 109.529 11.1875H107.531C107.474 10.8063 107.325 10.4998 107.083 10.2678C106.845 10.0324 106.531 9.91477 106.144 9.91477C105.815 9.91477 105.529 10.0043 105.283 10.1832C105.042 10.3589 104.853 10.6158 104.717 10.9538C104.581 11.2919 104.513 11.7012 104.513 12.1818C104.513 12.669 104.579 13.0833 104.712 13.4247C104.848 13.7661 105.038 14.0263 105.283 14.2053C105.529 14.3842 105.815 14.4737 106.144 14.4737C106.386 14.4737 106.603 14.424 106.795 14.3246C106.99 14.2251 107.151 14.081 107.277 13.892C107.406 13.6998 107.491 13.4695 107.531 13.201H109.529C109.496 13.7843 109.337 14.2981 109.052 14.7422C108.77 15.183 108.381 15.5277 107.884 15.7763C107.386 16.0249 106.798 16.1491 106.119 16.1491ZM110.885 16V8.36364H113.003V16H110.885ZM111.949 7.37926C111.634 7.37926 111.364 7.27486 111.139 7.06605C110.917 6.85393 110.806 6.60038 110.806 6.3054C110.806 6.01373 110.917 5.76349 111.139 5.55469C111.364 5.34257 111.634 5.23651 111.949 5.23651C112.264 5.23651 112.532 5.34257 112.755 5.55469C112.98 5.76349 113.093 6.01373 113.093 6.3054C113.093 6.60038 112.98 6.85393 112.755 7.06605C112.532 7.27486 112.264 7.37926 111.949 7.37926ZM116.877 16.1442C116.39 16.1442 115.956 16.0597 115.575 15.8906C115.194 15.7183 114.892 15.4647 114.67 15.13C114.451 14.7919 114.342 14.371 114.342 13.8672C114.342 13.4429 114.42 13.0866 114.575 12.7983C114.731 12.5099 114.943 12.2779 115.212 12.1023C115.48 11.9266 115.785 11.794 116.127 11.7045C116.471 11.6151 116.832 11.5521 117.21 11.5156C117.654 11.4692 118.012 11.4261 118.284 11.3864C118.556 11.3433 118.753 11.2803 118.876 11.1974C118.998 11.1146 119.06 10.992 119.06 10.8295V10.7997C119.06 10.4848 118.96 10.2412 118.761 10.0689C118.566 9.89654 118.287 9.81037 117.926 9.81037C117.545 9.81037 117.242 9.89489 117.016 10.0639C116.791 10.2296 116.642 10.4384 116.569 10.6903L114.61 10.5312C114.71 10.0672 114.905 9.66619 115.197 9.32812C115.488 8.98674 115.865 8.7249 116.325 8.54261C116.789 8.35701 117.326 8.2642 117.936 8.2642C118.36 8.2642 118.766 8.31392 119.154 8.41335C119.545 8.51278 119.892 8.6669 120.193 8.87571C120.498 9.08452 120.738 9.35298 120.914 9.68111C121.09 10.0059 121.178 10.3954 121.178 10.8494V16H119.169V14.9411H119.109C118.987 15.1797 118.823 15.3902 118.617 15.5724C118.412 15.7514 118.165 15.8923 117.877 15.995C117.588 16.0945 117.255 16.1442 116.877 16.1442ZM117.484 14.6825C117.795 14.6825 118.07 14.6212 118.309 14.4986C118.548 14.3726 118.735 14.2036 118.871 13.9915C119.007 13.7794 119.075 13.5391 119.075 13.2706V12.4602C119.008 12.5033 118.917 12.5431 118.801 12.5795C118.689 12.6127 118.561 12.6442 118.418 12.674C118.276 12.7005 118.133 12.7254 117.991 12.7486C117.848 12.7685 117.719 12.7867 117.603 12.8033C117.354 12.8397 117.137 12.8977 116.952 12.9773C116.766 13.0568 116.622 13.1645 116.519 13.3004C116.417 13.433 116.365 13.5987 116.365 13.7976C116.365 14.0859 116.47 14.3063 116.678 14.4588C116.89 14.608 117.159 14.6825 117.484 14.6825ZM124.939 5.81818V16H122.821V5.81818H124.939ZM132.068 5.81818V16H129.915V5.81818H132.068ZM135.917 11.5852V16H133.799V8.36364H135.818V9.71094H135.907C136.076 9.26681 136.36 8.91548 136.757 8.65696C137.155 8.39512 137.637 8.2642 138.204 8.2642C138.734 8.2642 139.197 8.38021 139.591 8.61222C139.986 8.84422 140.292 9.17566 140.511 9.60653C140.73 10.0341 140.839 10.5445 140.839 11.1378V16H138.721V11.5156C138.724 11.0483 138.605 10.6837 138.363 10.4219C138.121 10.1567 137.788 10.0241 137.364 10.0241C137.079 10.0241 136.827 10.0855 136.608 10.2081C136.393 10.3307 136.224 10.5097 136.101 10.745C135.982 10.977 135.92 11.2571 135.917 11.5852ZM148.862 10.5412L146.923 10.6605C146.89 10.4948 146.819 10.3456 146.709 10.2131C146.6 10.0772 146.456 9.96946 146.277 9.88991C146.101 9.80705 145.891 9.76562 145.645 9.76562C145.317 9.76562 145.04 9.83523 144.815 9.97443C144.59 10.1103 144.477 10.2926 144.477 10.5213C144.477 10.7036 144.55 10.8577 144.696 10.9837C144.842 11.1096 145.092 11.2107 145.446 11.2869L146.829 11.5653C147.571 11.7178 148.124 11.9631 148.489 12.3011C148.854 12.6392 149.036 13.0833 149.036 13.6335C149.036 14.134 148.888 14.5732 148.593 14.951C148.302 15.3288 147.901 15.6238 147.39 15.8359C146.883 16.0447 146.298 16.1491 145.635 16.1491C144.624 16.1491 143.819 15.9387 143.219 15.5178C142.623 15.0935 142.273 14.5168 142.17 13.7876L144.253 13.6783C144.316 13.9865 144.469 14.2218 144.711 14.3842C144.953 14.5433 145.263 14.6229 145.64 14.6229C146.012 14.6229 146.31 14.5516 146.535 14.4091C146.764 14.2633 146.88 14.076 146.883 13.8473C146.88 13.6551 146.799 13.4976 146.64 13.375C146.481 13.2491 146.235 13.1529 145.904 13.0866L144.581 12.8232C143.836 12.674 143.281 12.4155 142.916 12.0476C142.555 11.6797 142.374 11.2107 142.374 10.6406C142.374 10.1501 142.507 9.72751 142.772 9.37287C143.04 9.01823 143.416 8.74479 143.9 8.55256C144.388 8.36032 144.958 8.2642 145.611 8.2642C146.575 8.2642 147.334 8.46804 147.888 8.87571C148.444 9.28338 148.769 9.83854 148.862 10.5412ZM154.431 8.36364V9.95455H149.833V8.36364H154.431ZM150.877 6.53409H152.995V13.6534C152.995 13.849 153.024 14.0014 153.084 14.1108C153.144 14.2169 153.227 14.2914 153.333 14.3345C153.442 14.3776 153.568 14.3991 153.71 14.3991C153.81 14.3991 153.909 14.3909 154.009 14.3743C154.108 14.3544 154.184 14.3395 154.237 14.3295L154.571 15.9055C154.465 15.9387 154.315 15.9768 154.123 16.0199C153.931 16.0663 153.697 16.0945 153.422 16.1044C152.912 16.1243 152.464 16.0563 152.08 15.9006C151.699 15.7448 151.402 15.5028 151.19 15.1747C150.978 14.8466 150.873 14.4323 150.877 13.9318V6.53409ZM155.811 16V8.36364H157.929V16H155.811ZM156.875 7.37926C156.56 7.37926 156.29 7.27486 156.065 7.06605C155.842 6.85393 155.731 6.60038 155.731 6.3054C155.731 6.01373 155.842 5.76349 156.065 5.55469C156.29 5.34257 156.56 5.23651 156.875 5.23651C157.19 5.23651 157.458 5.34257 157.68 5.55469C157.906 5.76349 158.018 6.01373 158.018 6.3054C158.018 6.60038 157.906 6.85393 157.68 7.06605C157.458 7.27486 157.19 7.37926 156.875 7.37926ZM163.687 8.36364V9.95455H159.089V8.36364H163.687ZM160.133 6.53409H162.25V13.6534C162.25 13.849 162.28 14.0014 162.34 14.1108C162.4 14.2169 162.482 14.2914 162.589 14.3345C162.698 14.3776 162.824 14.3991 162.966 14.3991C163.066 14.3991 163.165 14.3909 163.265 14.3743C163.364 14.3544 163.44 14.3395 163.493 14.3295L163.826 15.9055C163.72 15.9387 163.571 15.9768 163.379 16.0199C163.187 16.0663 162.953 16.0945 162.678 16.1044C162.168 16.1243 161.72 16.0563 161.336 15.9006C160.955 15.7448 160.658 15.5028 160.446 15.1747C160.234 14.8466 160.129 14.4323 160.133 13.9318V6.53409ZM169.964 12.7486V8.36364H172.082V16H170.048V14.6129H169.969C169.796 15.0604 169.51 15.42 169.109 15.6918C168.711 15.9635 168.225 16.0994 167.652 16.0994C167.142 16.0994 166.693 15.9834 166.305 15.7514C165.917 15.5194 165.614 15.1896 165.395 14.7621C165.18 14.3345 165.07 13.8224 165.067 13.2259V8.36364H167.185V12.848C167.188 13.2988 167.309 13.6551 167.548 13.9169C167.786 14.1787 168.106 14.3097 168.507 14.3097C168.762 14.3097 169.001 14.2517 169.223 14.1357C169.445 14.0163 169.624 13.8407 169.76 13.6087C169.899 13.3767 169.967 13.09 169.964 12.7486ZM177.838 8.36364V9.95455H173.239V8.36364H177.838ZM174.283 6.53409H176.401V13.6534C176.401 13.849 176.431 14.0014 176.49 14.1108C176.55 14.2169 176.633 14.2914 176.739 14.3345C176.848 14.3776 176.974 14.3991 177.117 14.3991C177.216 14.3991 177.316 14.3909 177.415 14.3743C177.514 14.3544 177.591 14.3395 177.644 14.3295L177.977 15.9055C177.871 15.9387 177.722 15.9768 177.529 16.0199C177.337 16.0663 177.103 16.0945 176.828 16.1044C176.318 16.1243 175.871 16.0563 175.486 15.9006C175.105 15.7448 174.808 15.5028 174.596 15.1747C174.384 14.8466 174.28 14.4323 174.283 13.9318V6.53409ZM179.217 16V8.36364H181.335V16H179.217ZM180.281 7.37926C179.966 7.37926 179.696 7.27486 179.471 7.06605C179.249 6.85393 179.138 6.60038 179.138 6.3054C179.138 6.01373 179.249 5.76349 179.471 5.55469C179.696 5.34257 179.966 5.23651 180.281 5.23651C180.596 5.23651 180.864 5.34257 181.087 5.55469C181.312 5.76349 181.425 6.01373 181.425 6.3054C181.425 6.60038 181.312 6.85393 181.087 7.06605C180.864 7.27486 180.596 7.37926 180.281 7.37926ZM186.482 16.1491C185.71 16.1491 185.042 15.9851 184.478 15.657C183.918 15.3255 183.486 14.8648 183.181 14.2749C182.876 13.6816 182.723 12.9938 182.723 12.2116C182.723 11.4228 182.876 10.7334 183.181 10.1435C183.486 9.55019 183.918 9.08949 184.478 8.76136C185.042 8.42992 185.71 8.2642 186.482 8.2642C187.254 8.2642 187.92 8.42992 188.481 8.76136C189.044 9.08949 189.478 9.55019 189.783 10.1435C190.088 10.7334 190.241 11.4228 190.241 12.2116C190.241 12.9938 190.088 13.6816 189.783 14.2749C189.478 14.8648 189.044 15.3255 188.481 15.657C187.92 15.9851 187.254 16.1491 186.482 16.1491ZM186.492 14.5085C186.843 14.5085 187.137 14.4091 187.372 14.2102C187.607 14.008 187.785 13.733 187.904 13.3849C188.026 13.0369 188.088 12.6409 188.088 12.1967C188.088 11.7526 188.026 11.3565 187.904 11.0085C187.785 10.6605 187.607 10.3854 187.372 10.1832C187.137 9.98106 186.843 9.87997 186.492 9.87997C186.137 9.87997 185.839 9.98106 185.597 10.1832C185.358 10.3854 185.178 10.6605 185.055 11.0085C184.936 11.3565 184.876 11.7526 184.876 12.1967C184.876 12.6409 184.936 13.0369 185.055 13.3849C185.178 13.733 185.358 14.008 185.597 14.2102C185.839 14.4091 186.137 14.5085 186.492 14.5085ZM193.736 11.5852V16H191.618V8.36364H193.636V9.71094H193.726C193.895 9.26681 194.178 8.91548 194.576 8.65696C194.973 8.39512 195.456 8.2642 196.022 8.2642C196.553 8.2642 197.015 8.38021 197.41 8.61222C197.804 8.84422 198.111 9.17566 198.329 9.60653C198.548 10.0341 198.657 10.5445 198.657 11.1378V16H196.54V11.5156C196.543 11.0483 196.424 10.6837 196.182 10.4219C195.94 10.1567 195.607 10.0241 195.182 10.0241C194.897 10.0241 194.645 10.0855 194.427 10.2081C194.211 10.3307 194.042 10.5097 193.919 10.745C193.8 10.977 193.739 11.2571 193.736 11.5852ZM206.68 10.5412L204.741 10.6605C204.708 10.4948 204.637 10.3456 204.528 10.2131C204.418 10.0772 204.274 9.96946 204.095 9.88991C203.919 9.80705 203.709 9.76562 203.464 9.76562C203.136 9.76562 202.859 9.83523 202.633 9.97443C202.408 10.1103 202.295 10.2926 202.295 10.5213C202.295 10.7036 202.368 10.8577 202.514 10.9837C202.66 11.1096 202.91 11.2107 203.265 11.2869L204.647 11.5653C205.389 11.7178 205.943 11.9631 206.307 12.3011C206.672 12.6392 206.854 13.0833 206.854 13.6335C206.854 14.134 206.707 14.5732 206.412 14.951C206.12 15.3288 205.719 15.6238 205.209 15.8359C204.702 16.0447 204.117 16.1491 203.454 16.1491C202.443 16.1491 201.637 15.9387 201.038 15.5178C200.441 15.0935 200.091 14.5168 199.989 13.7876L202.072 13.6783C202.135 13.9865 202.287 14.2218 202.529 14.3842C202.771 14.5433 203.081 14.6229 203.459 14.6229C203.83 14.6229 204.128 14.5516 204.354 14.4091C204.582 14.2633 204.698 14.076 204.702 13.8473C204.698 13.6551 204.617 13.4976 204.458 13.375C204.299 13.2491 204.054 13.1529 203.722 13.0866L202.4 12.8232C201.654 12.674 201.099 12.4155 200.734 12.0476C200.373 11.6797 200.192 11.2107 200.192 10.6406C200.192 10.1501 200.325 9.72751 200.59 9.37287C200.859 9.01823 201.235 8.74479 201.719 8.55256C202.206 8.36032 202.776 8.2642 203.429 8.2642C204.393 8.2642 205.152 8.46804 205.706 8.87571C206.263 9.28338 206.588 9.83854 206.68 10.5412Z" fill="#13044F"/>
</g>
<defs>
<filter id="filter0_d_493_1574" x="16" y="30" width="88" height="88" filterUnits="userSpaceOnUse" color-interpolation-filters="sRGB">
<feFlood flood-opacity="0" result="BackgroundImageFix"/>
<feColorMatrix in="SourceAlpha" type="matrix" values="0 0 0 0 0 0 0 0 0 0 0 0 0 0 0 0 0 0 127 0" result="hardAlpha"/>
<feOffset dy="4"/>
<feGaussianBlur stdDeviation="2"/>
<feComposite in2="hardAlpha" operator="out"/>
<feColorMatrix type="matrix" values="0 0 0 0 0 0 0 0 0 0 0 0 0 0 0 0 0 0 0.25 0"/>
<feBlend mode="normal" in2="BackgroundImageFix" result="effect1_dropShadow_493_1574"/>
<feBlend mode="normal" in="SourceGraphic" in2="effect1_dropShadow_493_1574" result="shape"/>
</filter>
<filter id="filter1_d_493_1574" x="16" y="125" width="88" height="88" filterUnits="userSpaceOnUse" color-interpolation-filters="sRGB">
<feFlood flood-opacity="0" result="BackgroundImageFix"/>
<feColorMatrix in="SourceAlpha" type="matrix" values="0 0 0 0 0 0 0 0 0 0 0 0 0 0 0 0 0 0 127 0" result="hardAlpha"/>
<feOffset dy="4"/>
<feGaussianBlur stdDeviation="2"/>
<feComposite in2="hardAlpha" operator="out"/>
<feColorMatrix type="matrix" values="0 0 0 0 0 0 0 0 0 0 0 0 0 0 0 0 0 0 0.25 0"/>
<feBlend mode="normal" in2="BackgroundImageFix" result="effect1_dropShadow_493_1574"/>
<feBlend mode="normal" in="SourceGraphic" in2="effect1_dropShadow_493_1574" result="shape"/>
</filter>
<filter id="filter2_d_493_1574" x="136" y="125" width="88" height="88" filterUnits="userSpaceOnUse" color-interpolation-filters="sRGB">
<feFlood flood-opacity="0" result="BackgroundImageFix"/>
<feColorMatrix in="SourceAlpha" type="matrix" values="0 0 0 0 0 0 0 0 0 0 0 0 0 0 0 0 0 0 127 0" result="hardAlpha"/>
<feOffset dy="4"/>
<feGaussianBlur stdDeviation="2"/>
<feComposite in2="hardAlpha" operator="out"/>
<feColorMatrix type="matrix" values="0 0 0 0 0 0 0 0 0 0 0 0 0 0 0 0 0 0 0.25 0"/>
<feBlend mode="normal" in2="BackgroundImageFix" result="effect1_dropShadow_493_1574"/>
<feBlend mode="normal" in="SourceGraphic" in2="effect1_dropShadow_493_1574" result="shape"/>
</filter>
<filter id="filter3_d_493_1574" x="136" y="30" width="88" height="88" filterUnits="userSpaceOnUse" color-interpolation-filters="sRGB">
<feFlood flood-opacity="0" result="BackgroundImageFix"/>
<feColorMatrix in="SourceAlpha" type="matrix" values="0 0 0 0 0 0 0 0 0 0 0 0 0 0 0 0 0 0 127 0" result="hardAlpha"/>
<feOffset dy="4"/>
<feGaussianBlur stdDeviation="2"/>
<feComposite in2="hardAlpha" operator="out"/>
<feColorMatrix type="matrix" values="0 0 0 0 0 0 0 0 0 0 0 0 0 0 0 0 0 0 0.25 0"/>
<feBlend mode="normal" in2="BackgroundImageFix" result="effect1_dropShadow_493_1574"/>
<feBlend mode="normal" in="SourceGraphic" in2="effect1_dropShadow_493_1574" result="shape"/>
</filter>
<filter id="filter4_dd_493_1574" x="23.8027" y="27.3391" width="76.702" height="88.8953" filterUnits="userSpaceOnUse" color-interpolation-filters="sRGB">
<feFlood flood-opacity="0" result="BackgroundImageFix"/>
<feColorMatrix in="SourceAlpha" type="matrix" values="0 0 0 0 0 0 0 0 0 0 0 0 0 0 0 0 0 0 127 0" result="hardAlpha"/>
<feOffset dx="2.47712" dy="2.47712"/>
<feGaussianBlur stdDeviation="9.2892"/>
<feColorMatrix type="matrix" values="0 0 0 0 0.6512 0 0 0 0 0.66896 0 0 0 0 0.74 0 0 0 0.5 0"/>
<feBlend mode="normal" in2="BackgroundImageFix" result="effect1_dropShadow_493_1574"/>
<feColorMatrix in="SourceAlpha" type="matrix" values="0 0 0 0 0 0 0 0 0 0 0 0 0 0 0 0 0 0 127 0" result="hardAlpha"/>
<feOffset dx="-1.23856" dy="-1.23856"/>
<feGaussianBlur stdDeviation="8.05064"/>
<feColorMatrix type="matrix" values="0 0 0 0 0.979167 0 0 0 0 0.983333 0 0 0 0 1 0 0 0 1 0"/>
<feBlend mode="normal" in2="effect1_dropShadow_493_1574" result="effect2_dropShadow_493_1574"/>
<feBlend mode="normal" in="SourceGraphic" in2="effect2_dropShadow_493_1574" result="shape"/>
</filter>
<filter id="filter5_dd_493_1574" x="140.883" y="27.3391" width="82.4715" height="86.8953" filterUnits="userSpaceOnUse" color-interpolation-filters="sRGB">
<feFlood flood-opacity="0" result="BackgroundImageFix"/>
<feColorMatrix in="SourceAlpha" type="matrix" values="0 0 0 0 0 0 0 0 0 0 0 0 0 0 0 0 0 0 127 0" result="hardAlpha"/>
<feOffset dx="2.47712" dy="2.47712"/>
<feGaussianBlur stdDeviation="9.2892"/>
<feColorMatrix type="matrix" values="0 0 0 0 0.6512 0 0 0 0 0.66896 0 0 0 0 0.74 0 0 0 0.5 0"/>
<feBlend mode="normal" in2="BackgroundImageFix" result="effect1_dropShadow_493_1574"/>
<feColorMatrix in="SourceAlpha" type="matrix" values="0 0 0 0 0 0 0 0 0 0 0 0 0 0 0 0 0 0 127 0" result="hardAlpha"/>
<feOffset dx="-1.23856" dy="-1.23856"/>
<feGaussianBlur stdDeviation="8.05064"/>
<feColorMatrix type="matrix" values="0 0 0 0 0.979167 0 0 0 0 0.983333 0 0 0 0 1 0 0 0 1 0"/>
<feBlend mode="normal" in2="effect1_dropShadow_493_1574" result="effect2_dropShadow_493_1574"/>
<feBlend mode="normal" in="SourceGraphic" in2="effect2_dropShadow_493_1574" result="shape"/>
</filter>
<filter id="filter6_dd_493_1574" x="18.0059" y="126.339" width="88.2254" height="85.8953" filterUnits="userSpaceOnUse" color-interpolation-filters="sRGB">
<feFlood flood-opacity="0" result="BackgroundImageFix"/>
<feColorMatrix in="SourceAlpha" type="matrix" values="0 0 0 0 0 0 0 0 0 0 0 0 0 0 0 0 0 0 127 0" result="hardAlpha"/>
<feOffset dx="2.47712" dy="2.47712"/>
<feGaussianBlur stdDeviation="9.2892"/>
<feColorMatrix type="matrix" values="0 0 0 0 0.6512 0 0 0 0 0.66896 0 0 0 0 0.74 0 0 0 0.5 0"/>
<feBlend mode="normal" in2="BackgroundImageFix" result="effect1_dropShadow_493_1574"/>
<feColorMatrix in="SourceAlpha" type="matrix" values="0 0 0 0 0 0 0 0 0 0 0 0 0 0 0 0 0 0 127 0" result="hardAlpha"/>
<feOffset dx="-1.23856" dy="-1.23856"/>
<feGaussianBlur stdDeviation="8.05064"/>
<feColorMatrix type="matrix" values="0 0 0 0 0.979167 0 0 0 0 0.983333 0 0 0 0 1 0 0 0 1 0"/>
<feBlend mode="normal" in2="effect1_dropShadow_493_1574" result="effect2_dropShadow_493_1574"/>
<feBlend mode="normal" in="SourceGraphic" in2="effect2_dropShadow_493_1574" result="shape"/>
</filter>
<filter id="filter7_dd_493_1574" x="144.869" y="126.339" width="74.452" height="76.8556" filterUnits="userSpaceOnUse" color-interpolation-filters="sRGB">
<feFlood flood-opacity="0" result="BackgroundImageFix"/>
<feColorMatrix in="SourceAlpha" type="matrix" values="0 0 0 0 0 0 0 0 0 0 0 0 0 0 0 0 0 0 127 0" result="hardAlpha"/>
<feOffset dx="2.47712" dy="2.47712"/>
<feGaussianBlur stdDeviation="9.2892"/>
<feColorMatrix type="matrix" values="0 0 0 0 0.6512 0 0 0 0 0.66896 0 0 0 0 0.74 0 0 0 0.5 0"/>
<feBlend mode="normal" in2="BackgroundImageFix" result="effect1_dropShadow_493_1574"/>
<feColorMatrix in="SourceAlpha" type="matrix" values="0 0 0 0 0 0 0 0 0 0 0 0 0 0 0 0 0 0 127 0" result="hardAlpha"/>
<feOffset dx="-1.23856" dy="-1.23856"/>
<feGaussianBlur stdDeviation="8.05064"/>
<feColorMatrix type="matrix" values="0 0 0 0 0.979167 0 0 0 0 0.983333 0 0 0 0 1 0 0 0 1 0"/>
<feBlend mode="normal" in2="effect1_dropShadow_493_1574" result="effect2_dropShadow_493_1574"/>
<feBlend mode="normal" in="SourceGraphic" in2="effect2_dropShadow_493_1574" result="shape"/>
</filter>
<clipPath id="clip0_493_1574">
<rect width="240" height="210" fill="white"/>
</clipPath>
</defs>
</svg>
