<svg width="240" height="210" viewBox="0 0 240 210" fill="none" xmlns="http://www.w3.org/2000/svg">
<g clip-path="url(#clip0_494_1575)">
<rect width="240" height="210" fill="white"/>
<g clip-path="url(#clip1_494_1575)">
<rect width="240" height="210" rx="20" fill="white"/>
<g filter="url(#filter0_d_494_1575)">
<rect x="20" y="30" width="80" height="80" rx="20" fill="white"/>
</g>
<g filter="url(#filter1_d_494_1575)">
<rect x="80" y="125" width="80" height="80" rx="20" fill="white"/>
</g>
<g filter="url(#filter2_d_494_1575)">
<rect x="142" y="30" width="80" height="80" rx="20" fill="white"/>
</g>
<path d="M43.5158 16H39.9064V5.81818H43.5456C44.5698 5.81818 45.4514 6.02202 46.1905 6.42969C46.9296 6.83404 47.498 7.41572 47.8958 8.17472C48.2968 8.93371 48.4973 9.84186 48.4973 10.8991C48.4973 11.9598 48.2968 12.8712 47.8958 13.6335C47.498 14.3958 46.9263 14.9808 46.1806 15.3885C45.4382 15.7962 44.5499 16 43.5158 16ZM42.0591 14.1555H43.4263C44.0627 14.1555 44.598 14.0429 45.0321 13.8175C45.4696 13.5888 45.7978 13.2358 46.0165 12.7585C46.2386 12.2779 46.3496 11.6581 46.3496 10.8991C46.3496 10.1468 46.2386 9.53196 46.0165 9.05469C45.7978 8.57741 45.4713 8.22609 45.0371 8.00071C44.6029 7.77533 44.0676 7.66264 43.4313 7.66264H42.0591V14.1555ZM52.2298 16.1442C51.7425 16.1442 51.3084 16.0597 50.9272 15.8906C50.546 15.7183 50.2444 15.4647 50.0224 15.13C49.8036 14.7919 49.6942 14.371 49.6942 13.8672C49.6942 13.4429 49.7721 13.0866 49.9279 12.7983C50.0837 12.5099 50.2958 12.2779 50.5643 12.1023C50.8327 11.9266 51.1377 11.794 51.479 11.7045C51.8237 11.6151 52.185 11.5521 52.5629 11.5156C53.007 11.4692 53.3649 11.4261 53.6367 11.3864C53.9085 11.3433 54.1057 11.2803 54.2283 11.1974C54.351 11.1146 54.4123 10.992 54.4123 10.8295V10.7997C54.4123 10.4848 54.3129 10.2412 54.114 10.0689C53.9184 9.89654 53.64 9.81037 53.2788 9.81037C52.8976 9.81037 52.5943 9.89489 52.369 10.0639C52.1436 10.2296 51.9944 10.4384 51.9215 10.6903L49.9627 10.5312C50.0621 10.0672 50.2577 9.66619 50.5494 9.32812C50.841 8.98674 51.2172 8.7249 51.6779 8.54261C52.1419 8.35701 52.6789 8.2642 53.2887 8.2642C53.7129 8.2642 54.119 8.31392 54.5067 8.41335C54.8978 8.51278 55.2442 8.6669 55.5458 8.87571C55.8507 9.08452 56.091 9.35298 56.2667 9.68111C56.4424 10.0059 56.5302 10.3954 56.5302 10.8494V16H54.5217V14.9411H54.462C54.3394 15.1797 54.1753 15.3902 53.9698 15.5724C53.7643 15.7514 53.5174 15.8923 53.229 15.995C52.9407 16.0945 52.6076 16.1442 52.2298 16.1442ZM52.8363 14.6825C53.1478 14.6825 53.4229 14.6212 53.6616 14.4986C53.9002 14.3726 54.0875 14.2036 54.2234 13.9915C54.3593 13.7794 54.4272 13.5391 54.4272 13.2706V12.4602C54.3609 12.5033 54.2698 12.5431 54.1538 12.5795C54.0411 12.6127 53.9135 12.6442 53.771 12.674C53.6284 12.7005 53.4859 12.7254 53.3434 12.7486C53.2009 12.7685 53.0716 12.7867 52.9556 12.8033C52.707 12.8397 52.4899 12.8977 52.3043 12.9773C52.1187 13.0568 51.9746 13.1645 51.8718 13.3004C51.7691 13.433 51.7177 13.5987 51.7177 13.7976C51.7177 14.0859 51.8221 14.3063 52.0309 14.4588C52.243 14.608 52.5115 14.6825 52.8363 14.6825ZM62.2351 8.36364V9.95455H57.6364V8.36364H62.2351ZM58.6804 6.53409H60.7983V13.6534C60.7983 13.849 60.8281 14.0014 60.8878 14.1108C60.9474 14.2169 61.0303 14.2914 61.1364 14.3345C61.2457 14.3776 61.3717 14.3991 61.5142 14.3991C61.6136 14.3991 61.7131 14.3909 61.8125 14.3743C61.9119 14.3544 61.9882 14.3395 62.0412 14.3295L62.3743 15.9055C62.2682 15.9387 62.1191 15.9768 61.9268 16.0199C61.7346 16.0663 61.5009 16.0945 61.2259 16.1044C60.7154 16.1243 60.268 16.0563 59.8835 15.9006C59.5024 15.7448 59.2057 15.5028 58.9936 15.1747C58.7815 14.8466 58.6771 14.4323 58.6804 13.9318V6.53409ZM65.7923 16.1442C65.305 16.1442 64.8709 16.0597 64.4897 15.8906C64.1085 15.7183 63.8069 15.4647 63.5849 15.13C63.3661 14.7919 63.2567 14.371 63.2567 13.8672C63.2567 13.4429 63.3346 13.0866 63.4904 12.7983C63.6462 12.5099 63.8583 12.2779 64.1268 12.1023C64.3952 11.9266 64.7002 11.794 65.0415 11.7045C65.3862 11.6151 65.7475 11.5521 66.1254 11.5156C66.5695 11.4692 66.9274 11.4261 67.1992 11.3864C67.471 11.3433 67.6682 11.2803 67.7908 11.1974C67.9135 11.1146 67.9748 10.992 67.9748 10.8295V10.7997C67.9748 10.4848 67.8754 10.2412 67.6765 10.0689C67.4809 9.89654 67.2025 9.81037 66.8413 9.81037C66.4601 9.81037 66.1568 9.89489 65.9315 10.0639C65.7061 10.2296 65.5569 10.4384 65.484 10.6903L63.5252 10.5312C63.6246 10.0672 63.8202 9.66619 64.1119 9.32812C64.4035 8.98674 64.7797 8.7249 65.2404 8.54261C65.7044 8.35701 66.2414 8.2642 66.8512 8.2642C67.2754 8.2642 67.6815 8.31392 68.0692 8.41335C68.4603 8.51278 68.8067 8.6669 69.1083 8.87571C69.4132 9.08452 69.6535 9.35298 69.8292 9.68111C70.0049 10.0059 70.0927 10.3954 70.0927 10.8494V16H68.0842V14.9411H68.0245C67.9019 15.1797 67.7378 15.3902 67.5323 15.5724C67.3268 15.7514 67.0799 15.8923 66.7915 15.995C66.5032 16.0945 66.1701 16.1442 65.7923 16.1442ZM66.3988 14.6825C66.7103 14.6825 66.9854 14.6212 67.2241 14.4986C67.4627 14.3726 67.65 14.2036 67.7859 13.9915C67.9218 13.7794 67.9897 13.5391 67.9897 13.2706V12.4602C67.9234 12.5033 67.8323 12.5431 67.7163 12.5795C67.6036 12.6127 67.476 12.6442 67.3335 12.674C67.1909 12.7005 67.0484 12.7254 66.9059 12.7486C66.7634 12.7685 66.6341 12.7867 66.5181 12.8033C66.2695 12.8397 66.0524 12.8977 65.8668 12.9773C65.6812 13.0568 65.5371 13.1645 65.4343 13.3004C65.3316 13.433 65.2802 13.5987 65.2802 13.7976C65.2802 14.0859 65.3846 14.3063 65.5934 14.4588C65.8055 14.608 66.074 14.6825 66.3988 14.6825ZM79.0826 8.36364V9.95455H74.3695V8.36364H79.0826ZM75.4483 16V7.81179C75.4483 7.25829 75.556 6.79924 75.7715 6.43466C75.9902 6.07008 76.2885 5.79664 76.6664 5.61435C77.0442 5.43205 77.4734 5.34091 77.954 5.34091C78.2788 5.34091 78.5755 5.36577 78.8439 5.41548C79.1157 5.4652 79.3179 5.50994 79.4505 5.54972L79.0726 7.14062C78.9898 7.11411 78.887 7.08925 78.7644 7.06605C78.6451 7.04285 78.5224 7.03125 78.3965 7.03125C78.0849 7.03125 77.8678 7.10417 77.7452 7.25C77.6226 7.39252 77.5613 7.59304 77.5613 7.85156V16H75.4483ZM80.3764 16V8.36364H82.4297V9.69602H82.5092C82.6484 9.22206 82.8821 8.86411 83.2102 8.62216C83.5384 8.37689 83.9162 8.25426 84.3438 8.25426C84.4498 8.25426 84.5642 8.26089 84.6868 8.27415C84.8094 8.28741 84.9171 8.30563 85.0099 8.32883V10.2081C84.9105 10.1783 84.773 10.1518 84.5973 10.1286C84.4216 10.1054 84.2609 10.0938 84.1151 10.0938C83.8035 10.0938 83.5251 10.1617 83.2798 10.2976C83.0379 10.4302 82.8456 10.6158 82.7031 10.8544C82.5639 11.093 82.4943 11.3681 82.4943 11.6797V16H80.3764ZM89.1998 16.1491C88.4275 16.1491 87.7596 15.9851 87.1962 15.657C86.6361 15.3255 86.2035 14.8648 85.8986 14.2749C85.5937 13.6816 85.4412 12.9938 85.4412 12.2116C85.4412 11.4228 85.5937 10.7334 85.8986 10.1435C86.2035 9.55019 86.6361 9.08949 87.1962 8.76136C87.7596 8.42992 88.4275 8.2642 89.1998 8.2642C89.972 8.2642 90.6382 8.42992 91.1983 8.76136C91.7618 9.08949 92.196 9.55019 92.5009 10.1435C92.8058 10.7334 92.9583 11.4228 92.9583 12.2116C92.9583 12.9938 92.8058 13.6816 92.5009 14.2749C92.196 14.8648 91.7618 15.3255 91.1983 15.657C90.6382 15.9851 89.972 16.1491 89.1998 16.1491ZM89.2097 14.5085C89.561 14.5085 89.8543 14.4091 90.0897 14.2102C90.325 14.008 90.5023 13.733 90.6216 13.3849C90.7443 13.0369 90.8056 12.6409 90.8056 12.1967C90.8056 11.7526 90.7443 11.3565 90.6216 11.0085C90.5023 10.6605 90.325 10.3854 90.0897 10.1832C89.8543 9.98106 89.561 9.87997 89.2097 9.87997C88.8551 9.87997 88.5568 9.98106 88.3148 10.1832C88.0762 10.3854 87.8955 10.6605 87.7729 11.0085C87.6536 11.3565 87.5939 11.7526 87.5939 12.1967C87.5939 12.6409 87.6536 13.0369 87.7729 13.3849C87.8955 13.733 88.0762 14.008 88.3148 14.2102C88.5568 14.4091 88.8551 14.5085 89.2097 14.5085ZM94.3354 16V8.36364H96.3539V9.71094H96.4434C96.6025 9.26349 96.8676 8.91051 97.2388 8.65199C97.61 8.39347 98.0542 8.2642 98.5712 8.2642C99.0949 8.2642 99.5407 8.39512 99.9086 8.65696C100.276 8.91548 100.522 9.26681 100.644 9.71094H100.724C100.88 9.27344 101.161 8.92377 101.569 8.66193C101.98 8.39678 102.466 8.2642 103.026 8.2642C103.738 8.2642 104.317 8.49124 104.761 8.94531C105.208 9.39607 105.432 10.0357 105.432 10.8643V16H103.319V11.282C103.319 10.8577 103.206 10.5395 102.981 10.3274C102.756 10.1153 102.474 10.0092 102.136 10.0092C101.751 10.0092 101.451 10.1319 101.236 10.3771C101.021 10.6191 100.913 10.9389 100.913 11.3366V16H98.8596V11.2372C98.8596 10.8627 98.7518 10.5644 98.5364 10.3423C98.3243 10.1203 98.0442 10.0092 97.6962 10.0092C97.4609 10.0092 97.2488 10.0689 97.0598 10.1882C96.8742 10.3042 96.7267 10.4683 96.6174 10.6804C96.508 10.8892 96.4533 11.1345 96.4533 11.4162V16H94.3354ZM110.728 16L114.949 7.64773V7.57812H110.032V5.81818H117.176V7.60298L112.95 16H110.728ZM124.725 16.1243C124.145 16.1243 123.62 15.9751 123.15 15.6768C122.682 15.3752 122.311 14.9328 122.036 14.3494C121.764 13.7628 121.628 13.0436 121.628 12.1918C121.628 11.3168 121.769 10.5893 122.051 10.0092C122.333 9.4259 122.707 8.99006 123.174 8.7017C123.645 8.41004 124.16 8.2642 124.721 8.2642C125.148 8.2642 125.504 8.33712 125.789 8.48295C126.078 8.62547 126.31 8.80445 126.485 9.01989C126.664 9.23201 126.8 9.44081 126.893 9.64631H126.958V5.81818H129.071V16H126.983V14.777H126.893C126.794 14.9891 126.653 15.1996 126.471 15.4084C126.292 15.6139 126.058 15.7846 125.77 15.9205C125.484 16.0563 125.136 16.1243 124.725 16.1243ZM125.397 14.4389C125.738 14.4389 126.026 14.3461 126.262 14.1605C126.5 13.9716 126.683 13.7081 126.809 13.37C126.938 13.032 127.002 12.6359 127.002 12.1818C127.002 11.7277 126.94 11.3333 126.814 10.9986C126.688 10.6638 126.505 10.4053 126.267 10.223C126.028 10.0407 125.738 9.94957 125.397 9.94957C125.049 9.94957 124.755 10.044 124.517 10.233C124.278 10.4219 124.097 10.6837 123.975 11.0185C123.852 11.3532 123.791 11.741 123.791 12.1818C123.791 12.6259 123.852 13.0187 123.975 13.3601C124.101 13.6982 124.281 13.9633 124.517 14.1555C124.755 14.3445 125.049 14.4389 125.397 14.4389ZM132.99 16.1442C132.502 16.1442 132.068 16.0597 131.687 15.8906C131.306 15.7183 131.004 15.4647 130.782 15.13C130.563 14.7919 130.454 14.371 130.454 13.8672C130.454 13.4429 130.532 13.0866 130.688 12.7983C130.843 12.5099 131.056 12.2779 131.324 12.1023C131.593 11.9266 131.897 11.794 132.239 11.7045C132.584 11.6151 132.945 11.5521 133.323 11.5156C133.767 11.4692 134.125 11.4261 134.396 11.3864C134.668 11.3433 134.865 11.2803 134.988 11.1974C135.111 11.1146 135.172 10.992 135.172 10.8295V10.7997C135.172 10.4848 135.073 10.2412 134.874 10.0689C134.678 9.89654 134.4 9.81037 134.039 9.81037C133.657 9.81037 133.354 9.89489 133.129 10.0639C132.903 10.2296 132.754 10.4384 132.681 10.6903L130.722 10.5312C130.822 10.0672 131.017 9.66619 131.309 9.32812C131.601 8.98674 131.977 8.7249 132.438 8.54261C132.902 8.35701 133.439 8.2642 134.048 8.2642C134.473 8.2642 134.879 8.31392 135.267 8.41335C135.658 8.51278 136.004 8.6669 136.306 8.87571C136.61 9.08452 136.851 9.35298 137.026 9.68111C137.202 10.0059 137.29 10.3954 137.29 10.8494V16H135.281V14.9411H135.222C135.099 15.1797 134.935 15.3902 134.73 15.5724C134.524 15.7514 134.277 15.8923 133.989 15.995C133.7 16.0945 133.367 16.1442 132.99 16.1442ZM133.596 14.6825C133.908 14.6825 134.183 14.6212 134.421 14.4986C134.66 14.3726 134.847 14.2036 134.983 13.9915C135.119 13.7794 135.187 13.5391 135.187 13.2706V12.4602C135.121 12.5033 135.03 12.5431 134.914 12.5795C134.801 12.6127 134.673 12.6442 134.531 12.674C134.388 12.7005 134.246 12.7254 134.103 12.7486C133.961 12.7685 133.831 12.7867 133.715 12.8033C133.467 12.8397 133.25 12.8977 133.064 12.9773C132.878 13.0568 132.734 13.1645 132.632 13.3004C132.529 13.433 132.477 13.5987 132.477 13.7976C132.477 14.0859 132.582 14.3063 132.791 14.4588C133.003 14.608 133.271 14.6825 133.596 14.6825ZM139.967 18.8636C139.699 18.8636 139.447 18.8421 139.211 18.799C138.979 18.7592 138.787 18.7079 138.635 18.6449L139.112 17.0639C139.361 17.1402 139.584 17.1816 139.783 17.1882C139.985 17.1948 140.159 17.1484 140.305 17.049C140.454 16.9496 140.575 16.7805 140.668 16.5419L140.792 16.2188L138.053 8.36364H140.28L141.861 13.9716H141.941L143.537 8.36364H145.779L142.811 16.8253C142.668 17.2363 142.474 17.5942 142.229 17.8991C141.987 18.2074 141.681 18.4444 141.309 18.6101C140.938 18.7791 140.491 18.8636 139.967 18.8636ZM153.216 10.5412L151.278 10.6605C151.244 10.4948 151.173 10.3456 151.064 10.2131C150.954 10.0772 150.81 9.96946 150.631 9.88991C150.456 9.80705 150.245 9.76562 150 9.76562C149.672 9.76562 149.395 9.83523 149.17 9.97443C148.944 10.1103 148.831 10.2926 148.831 10.5213C148.831 10.7036 148.904 10.8577 149.05 10.9837C149.196 11.1096 149.446 11.2107 149.801 11.2869L151.183 11.5653C151.925 11.7178 152.479 11.9631 152.844 12.3011C153.208 12.6392 153.39 13.0833 153.39 13.6335C153.39 14.134 153.243 14.5732 152.948 14.951C152.656 15.3288 152.255 15.6238 151.745 15.8359C151.238 16.0447 150.653 16.1491 149.99 16.1491C148.979 16.1491 148.174 15.9387 147.574 15.5178C146.977 15.0935 146.627 14.5168 146.525 13.7876L148.608 13.6783C148.671 13.9865 148.823 14.2218 149.065 14.3842C149.307 14.5433 149.617 14.6229 149.995 14.6229C150.366 14.6229 150.664 14.5516 150.89 14.4091C151.118 14.2633 151.234 14.076 151.238 13.8473C151.234 13.6551 151.153 13.4976 150.994 13.375C150.835 13.2491 150.59 13.1529 150.258 13.0866L148.936 12.8232C148.19 12.674 147.635 12.4155 147.27 12.0476C146.909 11.6797 146.729 11.2107 146.729 10.6406C146.729 10.1501 146.861 9.72751 147.126 9.37287C147.395 9.01823 147.771 8.74479 148.255 8.55256C148.742 8.36032 149.312 8.2642 149.965 8.2642C150.93 8.2642 151.689 8.46804 152.242 8.87571C152.799 9.28338 153.124 9.83854 153.216 10.5412ZM162.722 10.0689V11.7493H158.079V10.0689H162.722ZM171.466 16.1392C170.763 16.1392 170.137 16.0099 169.587 15.7514C169.04 15.4929 168.606 15.1366 168.284 14.6825C167.963 14.2285 167.795 13.7081 167.782 13.1214H169.87C169.893 13.5159 170.059 13.8357 170.367 14.081C170.675 14.3262 171.042 14.4489 171.466 14.4489C171.804 14.4489 172.102 14.3743 172.361 14.2251C172.623 14.0727 172.826 13.8622 172.972 13.5938C173.121 13.322 173.196 13.0104 173.196 12.6591C173.196 12.3011 173.12 11.9863 172.967 11.7145C172.818 11.4427 172.611 11.2306 172.346 11.0781C172.081 10.9257 171.777 10.8478 171.436 10.8445C171.138 10.8445 170.848 10.9058 170.566 11.0284C170.288 11.151 170.071 11.3184 169.915 11.5305L168.001 11.1875L168.483 5.81818H174.707V7.57812H170.258L169.994 10.1286H170.054C170.233 9.87666 170.503 9.66785 170.864 9.50213C171.226 9.33641 171.63 9.25355 172.077 9.25355C172.691 9.25355 173.237 9.39773 173.718 9.68608C174.199 9.97443 174.578 10.3705 174.857 10.8743C175.135 11.3748 175.272 11.9515 175.269 12.6044C175.272 13.2905 175.113 13.9003 174.792 14.4339C174.474 14.9643 174.028 15.3819 173.455 15.6868C172.884 15.9884 172.222 16.1392 171.466 16.1392ZM181.338 18.8636C181.07 18.8636 180.818 18.8421 180.583 18.799C180.351 18.7592 180.158 18.7079 180.006 18.6449L180.483 17.0639C180.732 17.1402 180.955 17.1816 181.154 17.1882C181.356 17.1948 181.53 17.1484 181.676 17.049C181.825 16.9496 181.946 16.7805 182.039 16.5419L182.164 16.2188L179.424 8.36364H181.651L183.232 13.9716H183.312L184.908 8.36364H187.15L184.182 16.8253C184.039 17.2363 183.846 17.5942 183.6 17.8991C183.358 18.2074 183.052 18.4444 182.681 18.6101C182.309 18.7791 181.862 18.8636 181.338 18.8636ZM188.234 16V8.36364H190.287V9.69602H190.367C190.506 9.22206 190.74 8.86411 191.068 8.62216C191.396 8.37689 191.774 8.25426 192.201 8.25426C192.307 8.25426 192.422 8.26089 192.544 8.27415C192.667 8.28741 192.775 8.30563 192.867 8.32883V10.2081C192.768 10.1783 192.63 10.1518 192.455 10.1286C192.279 10.1054 192.118 10.0938 191.972 10.0938C191.661 10.0938 191.383 10.1617 191.137 10.2976C190.895 10.4302 190.703 10.6158 190.561 10.8544C190.421 11.093 190.352 11.3681 190.352 11.6797V16H188.234ZM200.316 10.5412L198.377 10.6605C198.344 10.4948 198.273 10.3456 198.163 10.2131C198.054 10.0772 197.91 9.96946 197.731 9.88991C197.555 9.80705 197.345 9.76562 197.099 9.76562C196.771 9.76562 196.495 9.83523 196.269 9.97443C196.044 10.1103 195.931 10.2926 195.931 10.5213C195.931 10.7036 196.004 10.8577 196.15 10.9837C196.296 11.1096 196.546 11.2107 196.901 11.2869L198.283 11.5653C199.025 11.7178 199.579 11.9631 199.943 12.3011C200.308 12.6392 200.49 13.0833 200.49 13.6335C200.49 14.134 200.343 14.5732 200.048 14.951C199.756 15.3288 199.355 15.6238 198.844 15.8359C198.337 16.0447 197.752 16.1491 197.089 16.1491C196.079 16.1491 195.273 15.9387 194.673 15.5178C194.077 15.0935 193.727 14.5168 193.624 13.7876L195.707 13.6783C195.77 13.9865 195.923 14.2218 196.165 14.3842C196.407 14.5433 196.717 14.6229 197.094 14.6229C197.466 14.6229 197.764 14.5516 197.989 14.4091C198.218 14.2633 198.334 14.076 198.337 13.8473C198.334 13.6551 198.253 13.4976 198.094 13.375C197.935 13.2491 197.689 13.1529 197.358 13.0866L196.036 12.8232C195.29 12.674 194.735 12.4155 194.37 12.0476C194.009 11.6797 193.828 11.2107 193.828 10.6406C193.828 10.1501 193.961 9.72751 194.226 9.37287C194.494 9.01823 194.871 8.74479 195.354 8.55256C195.842 8.36032 196.412 8.2642 197.065 8.2642C198.029 8.2642 198.788 8.46804 199.342 8.87571C199.898 9.28338 200.223 9.83854 200.316 10.5412Z" fill="#13044F"/>
<g filter="url(#filter3_dd_494_1575)">
<path d="M43.4452 58.9119V57.8977L47.9197 50.8182H48.6555V52.3892H48.1583L44.7776 57.7386V57.8182H50.8032V58.9119H43.4452ZM48.2378 61V58.6037V58.1314V50.8182H49.4111V61H48.2378ZM52.9845 61L57.5384 51.9915V51.9119H52.2884V50.8182H58.8112V51.9716L54.2771 61H52.9845ZM63.7666 61.1392C63.0175 61.1392 62.3795 60.9354 61.8525 60.5277C61.3256 60.1167 60.9229 59.5218 60.6444 58.7429C60.366 57.9607 60.2268 57.0161 60.2268 55.9091C60.2268 54.8087 60.366 53.8691 60.6444 53.0902C60.9262 52.308 61.3305 51.7114 61.8575 51.3004C62.3878 50.8861 63.0242 50.679 63.7666 50.679C64.509 50.679 65.1437 50.8861 65.6707 51.3004C66.201 51.7114 66.6054 52.308 66.8838 53.0902C67.1655 53.8691 67.3064 54.8087 67.3064 55.9091C67.3064 57.0161 67.1672 57.9607 66.8888 58.7429C66.6104 59.5218 66.2077 60.1167 65.6807 60.5277C65.1537 60.9354 64.5157 61.1392 63.7666 61.1392ZM63.7666 60.0455C64.509 60.0455 65.0857 59.6875 65.4967 58.9716C65.9077 58.2557 66.1132 57.2348 66.1132 55.9091C66.1132 55.0275 66.0187 54.2768 65.8298 53.657C65.6442 53.0372 65.3757 52.5649 65.0244 52.2401C64.6764 51.9152 64.2571 51.7528 63.7666 51.7528C63.0308 51.7528 62.4558 52.1158 62.0415 52.8416C61.6272 53.5642 61.42 54.5866 61.42 55.9091C61.42 56.7907 61.5128 57.5398 61.6984 58.1562C61.884 58.7727 62.1508 59.2417 62.4988 59.5632C62.8502 59.8847 63.2728 60.0455 63.7666 60.0455ZM72.1984 59.2102V52.6477H73.3121V59.2102H72.1984ZM69.474 56.4858V55.3722H76.0365V56.4858H69.474Z" fill="black"/>
<path d="M35.3254 69.8182V80H34.0924V69.8182H35.3254ZM38.8117 75.4062V80H37.6384V72.3636H38.7719V73.5568H38.8714C39.0503 73.169 39.3221 72.8575 39.6867 72.6222C40.0513 72.3835 40.5219 72.2642 41.0986 72.2642C41.6157 72.2642 42.0681 72.3703 42.4559 72.5824C42.8437 72.7912 43.1453 73.1094 43.3607 73.5369C43.5761 73.9612 43.6839 74.4981 43.6839 75.1477V80H42.5106V75.2273C42.5106 74.6274 42.3548 74.16 42.0432 73.8253C41.7317 73.4872 41.3041 73.3182 40.7606 73.3182C40.386 73.3182 40.0513 73.3994 39.7563 73.5618C39.4646 73.7242 39.2343 73.9612 39.0652 74.2727C38.8962 74.5843 38.8117 74.9621 38.8117 75.4062ZM49.1489 72.3636V73.358H45.1915V72.3636H49.1489ZM46.3449 70.5341H47.5182V77.8125C47.5182 78.1439 47.5662 78.3925 47.6624 78.5582C47.7618 78.7206 47.8877 78.83 48.0402 78.8864C48.196 78.9394 48.36 78.9659 48.5324 78.9659C48.6617 78.9659 48.7677 78.9593 48.8506 78.946C48.9334 78.9295 48.9997 78.9162 49.0494 78.9062L49.2881 79.9602C49.2085 79.9901 49.0975 80.0199 48.955 80.0497C48.8125 80.0829 48.6318 80.0994 48.4131 80.0994C48.0816 80.0994 47.7568 80.0282 47.4386 79.8857C47.1238 79.7431 46.8619 79.526 46.6531 79.2344C46.4476 78.9427 46.3449 78.5748 46.3449 78.1307V70.5341ZM54.0335 80.1591C53.2977 80.1591 52.663 79.9967 52.1293 79.6719C51.599 79.3438 51.1897 78.8864 50.9014 78.2997C50.6163 77.7098 50.4738 77.0237 50.4738 76.2415C50.4738 75.4593 50.6163 74.7699 50.9014 74.1733C51.1897 73.5734 51.5908 73.1061 52.1045 72.7713C52.6215 72.4332 53.2247 72.2642 53.9141 72.2642C54.3119 72.2642 54.7046 72.3305 55.0924 72.4631C55.4802 72.5956 55.8332 72.8111 56.1514 73.1094C56.4695 73.4044 56.7231 73.7955 56.912 74.2827C57.1009 74.7699 57.1954 75.3698 57.1954 76.0824V76.5795H51.309V75.5653H56.0022C56.0022 75.1345 55.916 74.75 55.7437 74.4119C55.5747 74.0739 55.3327 73.8071 55.0178 73.6115C54.7063 73.416 54.3384 73.3182 53.9141 73.3182C53.4468 73.3182 53.0425 73.4342 52.7011 73.6662C52.363 73.8949 52.1028 74.1932 51.9205 74.5611C51.7382 74.929 51.6471 75.3234 51.6471 75.7443V76.4205C51.6471 76.9972 51.7465 77.486 51.9454 77.8871C52.1476 78.2848 52.4276 78.5881 52.7856 78.7969C53.1435 79.0024 53.5595 79.1051 54.0335 79.1051C54.3417 79.1051 54.6201 79.062 54.8687 78.9759C55.1206 78.8864 55.3377 78.7538 55.52 78.5781C55.7023 78.3991 55.8431 78.1771 55.9426 77.9119L57.0761 78.2301C56.9568 78.6146 56.7562 78.9527 56.4745 79.2443C56.1928 79.5327 55.8448 79.758 55.4305 79.9205C55.0162 80.0795 54.5505 80.1591 54.0335 80.1591ZM58.9802 80V72.3636H60.1137V73.517H60.1933C60.3325 73.1392 60.5844 72.8326 60.9489 72.5973C61.3135 72.362 61.7245 72.2443 62.1819 72.2443C62.2681 72.2443 62.3758 72.246 62.5051 72.2493C62.6343 72.2526 62.7321 72.2576 62.7984 72.2642V73.4574C62.7586 73.4474 62.6675 73.4325 62.5249 73.4126C62.3857 73.3894 62.2382 73.3778 62.0825 73.3778C61.7113 73.3778 61.3798 73.4557 61.0881 73.6115C60.7998 73.764 60.5711 73.9761 60.4021 74.2479C60.2363 74.5163 60.1535 74.8229 60.1535 75.1676V80H58.9802ZM67.1585 80.1591C66.4227 80.1591 65.788 79.9967 65.2543 79.6719C64.724 79.3438 64.3147 78.8864 64.0264 78.2997C63.7413 77.7098 63.5988 77.0237 63.5988 76.2415C63.5988 75.4593 63.7413 74.7699 64.0264 74.1733C64.3147 73.5734 64.7158 73.1061 65.2295 72.7713C65.7465 72.4332 66.3497 72.2642 67.0391 72.2642C67.4369 72.2642 67.8296 72.3305 68.2174 72.4631C68.6052 72.5956 68.9582 72.8111 69.2764 73.1094C69.5945 73.4044 69.8481 73.7955 70.037 74.2827C70.2259 74.7699 70.3204 75.3698 70.3204 76.0824V76.5795H64.434V75.5653H69.1272C69.1272 75.1345 69.041 74.75 68.8687 74.4119C68.6997 74.0739 68.4577 73.8071 68.1428 73.6115C67.8313 73.416 67.4634 73.3182 67.0391 73.3182C66.5718 73.3182 66.1675 73.4342 65.8261 73.6662C65.488 73.8949 65.2278 74.1932 65.0455 74.5611C64.8632 74.929 64.7721 75.3234 64.7721 75.7443V76.4205C64.7721 76.9972 64.8715 77.486 65.0704 77.8871C65.2726 78.2848 65.5526 78.5881 65.9106 78.7969C66.2685 79.0024 66.6845 79.1051 67.1585 79.1051C67.4667 79.1051 67.7451 79.062 67.9937 78.9759C68.2456 78.8864 68.4627 78.7538 68.645 78.5781C68.8273 78.3991 68.9681 78.1771 69.0676 77.9119L70.2011 78.2301C70.0818 78.6146 69.8812 78.9527 69.5995 79.2443C69.3178 79.5327 68.9698 79.758 68.5555 79.9205C68.1412 80.0795 67.6755 80.1591 67.1585 80.1591ZM77.5143 74.0739L76.4603 74.3722C76.394 74.1965 76.2962 74.0258 76.167 73.8601C76.041 73.6911 75.8687 73.5518 75.6499 73.4425C75.4312 73.3331 75.1511 73.2784 74.8097 73.2784C74.3424 73.2784 73.953 73.3861 73.6414 73.6016C73.3332 73.8137 73.1791 74.0838 73.1791 74.4119C73.1791 74.7036 73.2851 74.9339 73.4972 75.103C73.7094 75.272 74.0408 75.4129 74.4916 75.5256L75.6251 75.804C76.3078 75.9697 76.8166 76.2232 77.1514 76.5646C77.4861 76.9027 77.6535 77.3385 77.6535 77.8722C77.6535 78.3097 77.5275 78.7008 77.2756 79.0455C77.0271 79.3902 76.6791 79.6619 76.2316 79.8608C75.7842 80.0597 75.2638 80.1591 74.6705 80.1591C73.8917 80.1591 73.247 79.9901 72.7366 79.652C72.2262 79.3139 71.903 78.8201 71.7671 78.1705L72.8808 77.892C72.9868 78.303 73.1873 78.6113 73.4823 78.8168C73.7806 79.0223 74.1701 79.125 74.6506 79.125C75.1975 79.125 75.6317 79.009 75.9532 78.777C76.278 78.5417 76.4404 78.2599 76.4404 77.9318C76.4404 77.6667 76.3476 77.4446 76.162 77.2656C75.9764 77.0833 75.6914 76.9474 75.3069 76.858L74.0342 76.5597C73.3348 76.3939 72.8211 76.1371 72.493 75.7891C72.1682 75.4377 72.0058 74.9986 72.0058 74.4716C72.0058 74.0407 72.1267 73.6596 72.3687 73.3281C72.614 72.9967 72.947 72.7365 73.368 72.5476C73.7922 72.3587 74.2728 72.2642 74.8097 72.2642C75.5654 72.2642 76.1587 72.4299 76.5896 72.7614C77.0238 73.0928 77.332 73.5303 77.5143 74.0739ZM82.7407 72.3636V73.358H78.7833V72.3636H82.7407ZM79.9367 70.5341H81.11V77.8125C81.11 78.1439 81.158 78.3925 81.2542 78.5582C81.3536 78.7206 81.4795 78.83 81.632 78.8864C81.7878 78.9394 81.9518 78.9659 82.1242 78.9659C82.2535 78.9659 82.3595 78.9593 82.4424 78.946C82.5252 78.9295 82.5915 78.9162 82.6412 78.9062L82.8799 79.9602C82.8003 79.9901 82.6893 80.0199 82.5468 80.0497C82.4043 80.0829 82.2236 80.0994 82.0049 80.0994C81.6734 80.0994 81.3486 80.0282 81.0304 79.8857C80.7156 79.7431 80.4537 79.526 80.2449 79.2344C80.0394 78.9427 79.9367 78.5748 79.9367 78.1307V70.5341ZM40.8805 97V86.8182H44.3208C45.1196 86.8182 45.7725 86.9624 46.2796 87.2507C46.7901 87.5357 47.1679 87.9219 47.4132 88.4091C47.6584 88.8963 47.7811 89.4399 47.7811 90.0398C47.7811 90.6397 47.6584 91.1849 47.4132 91.6754C47.1712 92.166 46.7967 92.5571 46.2896 92.8487C45.7825 93.1371 45.1329 93.2812 44.3407 93.2812H41.8748V92.1875H44.301C44.8478 92.1875 45.287 92.093 45.6184 91.9041C45.9499 91.7152 46.1902 91.46 46.3393 91.1385C46.4918 90.8137 46.568 90.4474 46.568 90.0398C46.568 89.6321 46.4918 89.2675 46.3393 88.946C46.1902 88.6245 45.9482 88.3726 45.6135 88.1903C45.2787 88.0047 44.8346 87.9119 44.2811 87.9119H42.1135V97H40.8805ZM52.6284 97.1591C51.939 97.1591 51.3341 96.995 50.8137 96.6669C50.2967 96.3388 49.8923 95.8797 49.6007 95.2898C49.3123 94.6998 49.1681 94.0104 49.1681 93.2216C49.1681 92.4261 49.3123 91.7318 49.6007 91.1385C49.8923 90.5452 50.2967 90.0845 50.8137 89.7564C51.3341 89.4283 51.939 89.2642 52.6284 89.2642C53.3178 89.2642 53.921 89.4283 54.438 89.7564C54.9584 90.0845 55.3627 90.5452 55.6511 91.1385C55.9428 91.7318 56.0886 92.4261 56.0886 93.2216C56.0886 94.0104 55.9428 94.6998 55.6511 95.2898C55.3627 95.8797 54.9584 96.3388 54.438 96.6669C53.921 96.995 53.3178 97.1591 52.6284 97.1591ZM52.6284 96.1051C53.152 96.1051 53.5829 95.9709 53.921 95.7024C54.259 95.4339 54.5093 95.081 54.6717 94.6435C54.8341 94.206 54.9153 93.732 54.9153 93.2216C54.9153 92.7112 54.8341 92.2356 54.6717 91.7947C54.5093 91.3539 54.259 90.9976 53.921 90.7259C53.5829 90.4541 53.152 90.3182 52.6284 90.3182C52.1047 90.3182 51.6738 90.4541 51.3358 90.7259C50.9977 90.9976 50.7474 91.3539 50.585 91.7947C50.4226 92.2356 50.3414 92.7112 50.3414 93.2216C50.3414 93.732 50.4226 94.206 50.585 94.6435C50.7474 95.081 50.9977 95.4339 51.3358 95.7024C51.6738 95.9709 52.1047 96.1051 52.6284 96.1051ZM57.8796 97V89.3636H59.0529V97H57.8796ZM58.4762 88.0909C58.2475 88.0909 58.0503 88.013 57.8846 87.8572C57.7222 87.7015 57.641 87.5142 57.641 87.2955C57.641 87.0767 57.7222 86.8894 57.8846 86.7337C58.0503 86.5779 58.2475 86.5 58.4762 86.5C58.7049 86.5 58.9004 86.5779 59.0628 86.7337C59.2286 86.8894 59.3114 87.0767 59.3114 87.2955C59.3114 87.5142 59.2286 87.7015 59.0628 87.8572C58.9004 88.013 58.7049 88.0909 58.4762 88.0909ZM62.3752 92.4062V97H61.2019V89.3636H62.3354V90.5568H62.4348C62.6138 90.169 62.8856 89.8575 63.2502 89.6222C63.6148 89.3835 64.0854 89.2642 64.6621 89.2642C65.1791 89.2642 65.6316 89.3703 66.0193 89.5824C66.4071 89.7912 66.7087 90.1094 66.9242 90.5369C67.1396 90.9612 67.2473 91.4981 67.2473 92.1477V97H66.074V92.2273C66.074 91.6274 65.9183 91.16 65.6067 90.8253C65.2952 90.4872 64.8676 90.3182 64.324 90.3182C63.9495 90.3182 63.6148 90.3994 63.3198 90.5618C63.0281 90.7242 62.7978 90.9612 62.6287 91.2727C62.4597 91.5843 62.3752 91.9621 62.3752 92.4062ZM72.7123 89.3636V90.358H68.755V89.3636H72.7123ZM69.9084 87.5341H71.0817V94.8125C71.0817 95.1439 71.1297 95.3925 71.2258 95.5582C71.3253 95.7206 71.4512 95.83 71.6037 95.8864C71.7595 95.9394 71.9235 95.9659 72.0959 95.9659C72.2251 95.9659 72.3312 95.9593 72.4141 95.946C72.4969 95.9295 72.5632 95.9162 72.6129 95.9062L72.8516 96.9602C72.772 96.9901 72.661 97.0199 72.5185 97.0497C72.3759 97.0829 72.1953 97.0994 71.9766 97.0994C71.6451 97.0994 71.3203 97.0282 71.0021 96.8857C70.6873 96.7431 70.4254 96.526 70.2166 96.2344C70.0111 95.9427 69.9084 95.5748 69.9084 95.1307V87.5341ZM79.7496 91.0739L78.6957 91.3722C78.6294 91.1965 78.5316 91.0258 78.4023 90.8601C78.2764 90.6911 78.104 90.5518 77.8853 90.4425C77.6665 90.3331 77.3865 90.2784 77.0451 90.2784C76.5778 90.2784 76.1883 90.3861 75.8768 90.6016C75.5685 90.8137 75.4144 91.0838 75.4144 91.4119C75.4144 91.7036 75.5205 91.9339 75.7326 92.103C75.9447 92.272 76.2762 92.4129 76.7269 92.5256L77.8604 92.804C78.5432 92.9697 79.052 93.2232 79.3867 93.5646C79.7215 93.9027 79.8888 94.3385 79.8888 94.8722C79.8888 95.3097 79.7629 95.7008 79.511 96.0455C79.2624 96.3902 78.9144 96.6619 78.467 96.8608C78.0195 97.0597 77.4992 97.1591 76.9059 97.1591C76.127 97.1591 75.4824 96.9901 74.9719 96.652C74.4615 96.3139 74.1384 95.8201 74.0025 95.1705L75.1161 94.892C75.2222 95.303 75.4227 95.6113 75.7177 95.8168C76.016 96.0223 76.4054 96.125 76.886 96.125C77.4329 96.125 77.8671 96.009 78.1886 95.777C78.5134 95.5417 78.6758 95.2599 78.6758 94.9318C78.6758 94.6667 78.583 94.4446 78.3974 94.2656C78.2118 94.0833 77.9267 93.9474 77.5423 93.858L76.2695 93.5597C75.5702 93.3939 75.0565 93.1371 74.7283 92.7891C74.4035 92.4377 74.2411 91.9986 74.2411 91.4716C74.2411 91.0407 74.3621 90.6596 74.604 90.3281C74.8493 89.9967 75.1824 89.7365 75.6033 89.5476C76.0276 89.3587 76.5082 89.2642 77.0451 89.2642C77.8008 89.2642 78.394 89.4299 78.8249 89.7614C79.2591 90.0928 79.5673 90.5303 79.7496 91.0739Z" fill="black"/>
</g>
<g filter="url(#filter4_dd_494_1575)">
<path d="M164.79 43.8182V54H163.557V45.1108H163.497L161.011 46.7614V45.5085L163.557 43.8182H164.79ZM170.9 54.1392C170.317 54.1392 169.791 54.0232 169.324 53.7912C168.857 53.5592 168.482 53.241 168.2 52.8366C167.919 52.4323 167.765 51.9716 167.738 51.4545H168.931C168.978 51.9152 169.186 52.2964 169.558 52.598C169.932 52.8963 170.38 53.0455 170.9 53.0455C171.318 53.0455 171.689 52.9477 172.014 52.7521C172.342 52.5566 172.599 52.2881 172.784 51.9467C172.973 51.602 173.068 51.2126 173.068 50.7784C173.068 50.3343 172.97 49.9382 172.774 49.5902C172.582 49.2389 172.317 48.9621 171.979 48.7599C171.641 48.5578 171.255 48.455 170.82 48.4517C170.509 48.4484 170.189 48.4964 169.861 48.5959C169.533 48.692 169.263 48.8163 169.051 48.9688L167.897 48.8295L168.514 43.8182H173.803V44.9119H169.548L169.19 47.9148H169.249C169.458 47.7491 169.72 47.6115 170.035 47.5021C170.35 47.3928 170.678 47.3381 171.019 47.3381C171.642 47.3381 172.198 47.4872 172.685 47.7855C173.175 48.0805 173.56 48.4848 173.838 48.9986C174.12 49.5123 174.261 50.099 174.261 50.7585C174.261 51.4081 174.115 51.9882 173.823 52.4986C173.535 53.0057 173.137 53.4067 172.63 53.7017C172.123 53.9934 171.546 54.1392 170.9 54.1392ZM184.568 48.3622V49.456H180.114V48.3622H184.568ZM194.13 43.8182V54H192.897V45.1108H192.837L190.351 46.7614V45.5085L192.897 43.8182H194.13ZM200.319 54.1392C199.637 54.1392 199.033 54.0182 198.51 53.7763C197.989 53.531 197.583 53.1946 197.292 52.767C197 52.3362 196.856 51.8456 196.859 51.2955C196.856 50.8646 196.94 50.4669 197.113 50.1023C197.285 49.7344 197.52 49.4278 197.819 49.1825C198.12 48.9339 198.457 48.7765 198.828 48.7102V48.6506C198.341 48.5246 197.953 48.2512 197.665 47.8303C197.376 47.406 197.234 46.9238 197.237 46.3835C197.234 45.8665 197.365 45.4041 197.63 44.9964C197.895 44.5888 198.259 44.2673 198.723 44.032C199.191 43.7966 199.723 43.679 200.319 43.679C200.909 43.679 201.436 43.7966 201.9 44.032C202.364 44.2673 202.729 44.5888 202.994 44.9964C203.263 45.4041 203.398 45.8665 203.402 46.3835C203.398 46.9238 203.251 47.406 202.959 47.8303C202.671 48.2512 202.288 48.5246 201.811 48.6506V48.7102C202.179 48.7765 202.51 48.9339 202.805 49.1825C203.1 49.4278 203.335 49.7344 203.511 50.1023C203.687 50.4669 203.776 50.8646 203.78 51.2955C203.776 51.8456 203.627 52.3362 203.332 52.767C203.04 53.1946 202.634 53.531 202.114 53.7763C201.597 54.0182 200.999 54.1392 200.319 54.1392ZM200.319 53.0455C200.78 53.0455 201.178 52.9709 201.513 52.8217C201.847 52.6726 202.106 52.4621 202.288 52.1903C202.47 51.9186 202.563 51.6004 202.567 51.2358C202.563 50.8513 202.464 50.5116 202.268 50.2166C202.073 49.9216 201.806 49.6896 201.468 49.5206C201.133 49.3516 200.75 49.267 200.319 49.267C199.885 49.267 199.497 49.3516 199.156 49.5206C198.818 49.6896 198.551 49.9216 198.356 50.2166C198.163 50.5116 198.069 50.8513 198.072 51.2358C198.069 51.6004 198.157 51.9186 198.336 52.1903C198.518 52.4621 198.778 52.6726 199.116 52.8217C199.454 52.9709 199.855 53.0455 200.319 53.0455ZM200.319 48.2131C200.684 48.2131 201.007 48.1402 201.289 47.9943C201.574 47.8485 201.798 47.6446 201.96 47.3828C202.122 47.121 202.205 46.8144 202.209 46.4631C202.205 46.1184 202.124 45.8184 201.965 45.5632C201.806 45.3047 201.585 45.1058 201.304 44.9666C201.022 44.8241 200.694 44.7528 200.319 44.7528C199.938 44.7528 199.605 44.8241 199.32 44.9666C199.035 45.1058 198.815 45.3047 198.659 45.5632C198.503 45.8184 198.427 46.1184 198.43 46.4631C198.427 46.8144 198.505 47.121 198.664 47.3828C198.826 47.6446 199.05 47.8485 199.335 47.9943C199.62 48.1402 199.948 48.2131 200.319 48.2131ZM158.694 71V63.3636H159.828V64.5568H159.927C160.086 64.1491 160.343 63.8326 160.698 63.6072C161.052 63.3786 161.478 63.2642 161.975 63.2642C162.479 63.2642 162.898 63.3786 163.233 63.6072C163.571 63.8326 163.835 64.1491 164.024 64.5568H164.103C164.299 64.1624 164.592 63.8492 164.983 63.6172C165.374 63.3819 165.843 63.2642 166.39 63.2642C167.073 63.2642 167.631 63.478 168.066 63.9055C168.5 64.3298 168.717 64.991 168.717 65.8892V71H167.544V65.8892C167.544 65.3258 167.389 64.9231 167.081 64.6811C166.773 64.4392 166.41 64.3182 165.992 64.3182C165.455 64.3182 165.039 64.4806 164.745 64.8054C164.45 65.1269 164.302 65.5346 164.302 66.0284V71H163.109V65.7699C163.109 65.3357 162.968 64.986 162.686 64.7209C162.405 64.4524 162.042 64.3182 161.597 64.3182C161.293 64.3182 161.008 64.3994 160.742 64.5618C160.481 64.7242 160.268 64.9496 160.106 65.2379C159.947 65.523 159.867 65.8527 159.867 66.2273V71H158.694ZM173.964 71.1591C173.275 71.1591 172.67 70.995 172.15 70.6669C171.633 70.3388 171.228 69.8797 170.937 69.2898C170.648 68.6998 170.504 68.0104 170.504 67.2216C170.504 66.4261 170.648 65.7318 170.937 65.1385C171.228 64.5452 171.633 64.0845 172.15 63.7564C172.67 63.4283 173.275 63.2642 173.964 63.2642C174.654 63.2642 175.257 63.4283 175.774 63.7564C176.294 64.0845 176.699 64.5452 176.987 65.1385C177.279 65.7318 177.425 66.4261 177.425 67.2216C177.425 68.0104 177.279 68.6998 176.987 69.2898C176.699 69.8797 176.294 70.3388 175.774 70.6669C175.257 70.995 174.654 71.1591 173.964 71.1591ZM173.964 70.1051C174.488 70.1051 174.919 69.9709 175.257 69.7024C175.595 69.4339 175.845 69.081 176.008 68.6435C176.17 68.206 176.251 67.732 176.251 67.2216C176.251 66.7112 176.17 66.2356 176.008 65.7947C175.845 65.3539 175.595 64.9976 175.257 64.7259C174.919 64.4541 174.488 64.3182 173.964 64.3182C173.441 64.3182 173.01 64.4541 172.672 64.7259C172.334 64.9976 172.083 65.3539 171.921 65.7947C171.759 66.2356 171.677 66.7112 171.677 67.2216C171.677 67.732 171.759 68.206 171.921 68.6435C172.083 69.081 172.334 69.4339 172.672 69.7024C173.01 69.9709 173.441 70.1051 173.964 70.1051ZM180.389 66.4062V71H179.216V63.3636H180.349V64.5568H180.449C180.628 64.169 180.899 63.8575 181.264 63.6222C181.628 63.3835 182.099 63.2642 182.676 63.2642C183.193 63.2642 183.645 63.3703 184.033 63.5824C184.421 63.7912 184.722 64.1094 184.938 64.5369C185.153 64.9612 185.261 65.4981 185.261 66.1477V71H184.088V66.2273C184.088 65.6274 183.932 65.16 183.62 64.8253C183.309 64.4872 182.881 64.3182 182.338 64.3182C181.963 64.3182 181.628 64.3994 181.333 64.5618C181.042 64.7242 180.811 64.9612 180.642 65.2727C180.473 65.5843 180.389 65.9621 180.389 66.4062ZM190.726 63.3636V64.358H186.769V63.3636H190.726ZM187.922 61.5341H189.095V68.8125C189.095 69.1439 189.143 69.3925 189.24 69.5582C189.339 69.7206 189.465 69.83 189.617 69.8864C189.773 69.9394 189.937 69.9659 190.11 69.9659C190.239 69.9659 190.345 69.9593 190.428 69.946C190.511 69.9295 190.577 69.9162 190.627 69.9062L190.865 70.9602C190.786 70.9901 190.675 71.0199 190.532 71.0497C190.39 71.0829 190.209 71.0994 189.99 71.0994C189.659 71.0994 189.334 71.0282 189.016 70.8857C188.701 70.7431 188.439 70.526 188.23 70.2344C188.025 69.9427 187.922 69.5748 187.922 69.1307V61.5341ZM193.828 66.4062V71H192.655V60.8182H193.828V64.5568H193.928C194.107 64.1624 194.375 63.8492 194.733 63.6172C195.094 63.3819 195.575 63.2642 196.175 63.2642C196.695 63.2642 197.151 63.3686 197.542 63.5774C197.933 63.7829 198.236 64.0994 198.452 64.527C198.671 64.9512 198.78 65.4915 198.78 66.1477V71H197.607V66.2273C197.607 65.6207 197.449 65.1518 197.134 64.8203C196.823 64.4856 196.39 64.3182 195.837 64.3182C195.452 64.3182 195.108 64.3994 194.803 64.5618C194.501 64.7242 194.263 64.9612 194.087 65.2727C193.914 65.5843 193.828 65.9621 193.828 66.4062ZM206.336 65.0739L205.282 65.3722C205.215 65.1965 205.118 65.0258 204.988 64.8601C204.862 64.6911 204.69 64.5518 204.471 64.4425C204.253 64.3331 203.972 64.2784 203.631 64.2784C203.164 64.2784 202.774 64.3861 202.463 64.6016C202.154 64.8137 202 65.0838 202 65.4119C202 65.7036 202.106 65.9339 202.319 66.103C202.531 66.272 202.862 66.4129 203.313 66.5256L204.446 66.804C205.129 66.9697 205.638 67.2232 205.973 67.5646C206.307 67.9027 206.475 68.3385 206.475 68.8722C206.475 69.3097 206.349 69.7008 206.097 70.0455C205.848 70.3902 205.5 70.6619 205.053 70.8608C204.605 71.0597 204.085 71.1591 203.492 71.1591C202.713 71.1591 202.068 70.9901 201.558 70.652C201.047 70.3139 200.724 69.8201 200.588 69.1705L201.702 68.892C201.808 69.303 202.009 69.6113 202.304 69.8168C202.602 70.0223 202.991 70.125 203.472 70.125C204.019 70.125 204.453 70.009 204.775 69.777C205.099 69.5417 205.262 69.2599 205.262 68.9318C205.262 68.6667 205.169 68.4446 204.983 68.2656C204.798 68.0833 204.513 67.9474 204.128 67.858L202.855 67.5597C202.156 67.3939 201.642 67.1371 201.314 66.7891C200.989 66.4377 200.827 65.9986 200.827 65.4716C200.827 65.0407 200.948 64.6596 201.19 64.3281C201.435 63.9967 201.768 63.7365 202.189 63.5476C202.614 63.3587 203.094 63.2642 203.631 63.2642C204.387 63.2642 204.98 63.4299 205.411 63.7614C205.845 64.0928 206.153 64.5303 206.336 65.0739Z" fill="black"/>
<path d="M143.701 92V81.8182H147.26C147.97 81.8182 148.555 81.9408 149.015 82.1861C149.476 82.428 149.819 82.7545 150.044 83.1655C150.27 83.5732 150.383 84.0256 150.383 84.5227C150.383 84.9602 150.305 85.3215 150.149 85.6065C149.996 85.8916 149.794 86.117 149.542 86.2827C149.294 86.4484 149.024 86.571 148.732 86.6506V86.75C149.044 86.7699 149.357 86.8793 149.672 87.0781C149.986 87.277 150.25 87.562 150.462 87.9332C150.674 88.3045 150.78 88.7585 150.78 89.2955C150.78 89.8059 150.664 90.2649 150.432 90.6726C150.2 91.0803 149.834 91.4034 149.334 91.642C148.833 91.8807 148.182 92 147.38 92H143.701ZM144.934 90.9062H147.38C148.185 90.9062 148.757 90.7505 149.095 90.4389C149.436 90.1241 149.607 89.7429 149.607 89.2955C149.607 88.9508 149.519 88.6326 149.343 88.3409C149.168 88.0459 148.918 87.8106 148.593 87.6349C148.268 87.456 147.883 87.3665 147.439 87.3665H144.934V90.9062ZM144.934 86.2926H147.221C147.592 86.2926 147.927 86.2197 148.225 86.0739C148.526 85.928 148.765 85.7225 148.941 85.4574C149.12 85.1922 149.209 84.8807 149.209 84.5227C149.209 84.0753 149.053 83.6958 148.742 83.3842C148.43 83.0694 147.937 82.9119 147.26 82.9119H144.934V86.2926ZM155.849 92.1591C155.113 92.1591 154.478 91.9967 153.945 91.6719C153.414 91.3438 153.005 90.8864 152.717 90.2997C152.432 89.7098 152.289 89.0237 152.289 88.2415C152.289 87.4593 152.432 86.7699 152.717 86.1733C153.005 85.5734 153.406 85.1061 153.92 84.7713C154.437 84.4332 155.04 84.2642 155.729 84.2642C156.127 84.2642 156.52 84.3305 156.908 84.4631C157.296 84.5956 157.649 84.8111 157.967 85.1094C158.285 85.4044 158.538 85.7955 158.727 86.2827C158.916 86.7699 159.011 87.3698 159.011 88.0824V88.5795H153.124V87.5653H157.818C157.818 87.1345 157.731 86.75 157.559 86.4119C157.39 86.0739 157.148 85.8071 156.833 85.6115C156.522 85.416 156.154 85.3182 155.729 85.3182C155.262 85.3182 154.858 85.4342 154.516 85.6662C154.178 85.8949 153.918 86.1932 153.736 86.5611C153.554 86.929 153.462 87.3234 153.462 87.7443V88.4205C153.462 88.9972 153.562 89.486 153.761 89.8871C153.963 90.2848 154.243 90.5881 154.601 90.7969C154.959 91.0024 155.375 91.1051 155.849 91.1051C156.157 91.1051 156.435 91.062 156.684 90.9759C156.936 90.8864 157.153 90.7538 157.335 90.5781C157.518 90.3991 157.658 90.1771 157.758 89.9119L158.891 90.2301C158.772 90.6146 158.572 90.9527 158.29 91.2443C158.008 91.5327 157.66 91.758 157.246 91.9205C156.832 92.0795 156.366 92.1591 155.849 92.1591ZM166.205 86.0739L165.151 86.3722C165.084 86.1965 164.987 86.0258 164.857 85.8601C164.731 85.6911 164.559 85.5518 164.34 85.4425C164.122 85.3331 163.841 85.2784 163.5 85.2784C163.033 85.2784 162.643 85.3861 162.332 85.6016C162.024 85.8137 161.869 86.0838 161.869 86.4119C161.869 86.7036 161.975 86.9339 162.188 87.103C162.4 87.272 162.731 87.4129 163.182 87.5256L164.315 87.804C164.998 87.9697 165.507 88.2232 165.842 88.5646C166.176 88.9027 166.344 89.3385 166.344 89.8722C166.344 90.3097 166.218 90.7008 165.966 91.0455C165.717 91.3902 165.369 91.6619 164.922 91.8608C164.475 92.0597 163.954 92.1591 163.361 92.1591C162.582 92.1591 161.937 91.9901 161.427 91.652C160.917 91.3139 160.593 90.8201 160.457 90.1705L161.571 89.892C161.677 90.303 161.878 90.6113 162.173 90.8168C162.471 91.0223 162.86 91.125 163.341 91.125C163.888 91.125 164.322 91.009 164.644 90.777C164.968 90.5417 165.131 90.2599 165.131 89.9318C165.131 89.6667 165.038 89.4446 164.852 89.2656C164.667 89.0833 164.382 88.9474 163.997 88.858L162.725 88.5597C162.025 88.3939 161.511 88.1371 161.183 87.7891C160.859 87.4377 160.696 86.9986 160.696 86.4716C160.696 86.0407 160.817 85.6596 161.059 85.3281C161.304 84.9967 161.637 84.7365 162.058 84.5476C162.483 84.3587 162.963 84.2642 163.5 84.2642C164.256 84.2642 164.849 84.4299 165.28 84.7614C165.714 85.0928 166.022 85.5303 166.205 86.0739ZM171.431 84.3636V85.358H167.474V84.3636H171.431ZM168.627 82.5341H169.8V89.8125C169.8 90.1439 169.848 90.3925 169.945 90.5582C170.044 90.7206 170.17 90.83 170.322 90.8864C170.478 90.9394 170.642 90.9659 170.815 90.9659C170.944 90.9659 171.05 90.9593 171.133 90.946C171.216 90.9295 171.282 90.9162 171.332 90.9062L171.57 91.9602C171.491 91.9901 171.38 92.0199 171.237 92.0497C171.095 92.0829 170.914 92.0994 170.695 92.0994C170.364 92.0994 170.039 92.0282 169.721 91.8857C169.406 91.7431 169.144 91.526 168.935 91.2344C168.73 90.9427 168.627 90.5748 168.627 90.1307V82.5341ZM176.736 82.9119V81.8182H184.372V82.9119H181.17V92H179.937V82.9119H176.736ZM188.21 92.1591C187.474 92.1591 186.84 91.9967 186.306 91.6719C185.776 91.3438 185.366 90.8864 185.078 90.2997C184.793 89.7098 184.65 89.0237 184.65 88.2415C184.65 87.4593 184.793 86.7699 185.078 86.1733C185.366 85.5734 185.767 85.1061 186.281 84.7713C186.798 84.4332 187.401 84.2642 188.091 84.2642C188.489 84.2642 188.881 84.3305 189.269 84.4631C189.657 84.5956 190.01 84.8111 190.328 85.1094C190.646 85.4044 190.9 85.7955 191.089 86.2827C191.278 86.7699 191.372 87.3698 191.372 88.0824V88.5795H185.486V87.5653H190.179C190.179 87.1345 190.093 86.75 189.92 86.4119C189.751 86.0739 189.509 85.8071 189.195 85.6115C188.883 85.416 188.515 85.3182 188.091 85.3182C187.623 85.3182 187.219 85.4342 186.878 85.6662C186.54 85.8949 186.28 86.1932 186.097 86.5611C185.915 86.929 185.824 87.3234 185.824 87.7443V88.4205C185.824 88.9972 185.923 89.486 186.122 89.8871C186.324 90.2848 186.604 90.5881 186.962 90.7969C187.32 91.0024 187.736 91.1051 188.21 91.1051C188.518 91.1051 188.797 91.062 189.045 90.9759C189.297 90.8864 189.514 90.7538 189.697 90.5781C189.879 90.3991 190.02 90.1771 190.119 89.9119L191.253 90.2301C191.133 90.6146 190.933 90.9527 190.651 91.2443C190.369 91.5327 190.021 91.758 189.607 91.9205C189.193 92.0795 188.727 92.1591 188.21 92.1591ZM194.33 87.4062V92H193.157V84.3636H194.29V85.5568H194.39C194.569 85.169 194.841 84.8575 195.205 84.6222C195.57 84.3835 196.04 84.2642 196.617 84.2642C197.134 84.2642 197.587 84.3703 197.974 84.5824C198.362 84.7912 198.664 85.1094 198.879 85.5369C199.095 85.9612 199.202 86.4981 199.202 87.1477V92H198.029V87.2273C198.029 86.6274 197.873 86.16 197.562 85.8253C197.25 85.4872 196.823 85.3182 196.279 85.3182C195.905 85.3182 195.57 85.3994 195.275 85.5618C194.983 85.7242 194.753 85.9612 194.584 86.2727C194.415 86.5843 194.33 86.9621 194.33 87.4062ZM206.159 88.8778V84.3636H207.332V92H206.159V90.7074H206.079C205.9 91.0952 205.622 91.425 205.244 91.6967C204.866 91.9652 204.389 92.0994 203.812 92.0994C203.335 92.0994 202.911 91.995 202.54 91.7862C202.168 91.5741 201.877 91.2559 201.665 90.8317C201.452 90.4041 201.346 89.8655 201.346 89.2159V84.3636H202.52V89.1364C202.52 89.6932 202.675 90.1373 202.987 90.4688C203.302 90.8002 203.703 90.9659 204.19 90.9659C204.482 90.9659 204.778 90.8913 205.08 90.7422C205.385 90.593 205.64 90.3643 205.846 90.0561C206.054 89.7479 206.159 89.3551 206.159 88.8778ZM209.481 92V84.3636H210.615V85.517H210.694C210.833 85.1392 211.085 84.8326 211.45 84.5973C211.814 84.362 212.225 84.2443 212.683 84.2443C212.769 84.2443 212.877 84.246 213.006 84.2493C213.135 84.2526 213.233 84.2576 213.299 84.2642V85.4574C213.259 85.4474 213.168 85.4325 213.026 85.4126C212.887 85.3894 212.739 85.3778 212.583 85.3778C212.212 85.3778 211.881 85.4557 211.589 85.6115C211.301 85.764 211.072 85.9761 210.903 86.2479C210.737 86.5163 210.654 86.8229 210.654 87.1676V92H209.481ZM217.659 92.1591C216.924 92.1591 216.289 91.9967 215.755 91.6719C215.225 91.3438 214.816 90.8864 214.527 90.2997C214.242 89.7098 214.1 89.0237 214.1 88.2415C214.1 87.4593 214.242 86.7699 214.527 86.1733C214.816 85.5734 215.217 85.1061 215.73 84.7713C216.247 84.4332 216.851 84.2642 217.54 84.2642C217.938 84.2642 218.331 84.3305 218.718 84.4631C219.106 84.5956 219.459 84.8111 219.777 85.1094C220.095 85.4044 220.349 85.7955 220.538 86.2827C220.727 86.7699 220.821 87.3698 220.821 88.0824V88.5795H214.935V87.5653H219.628C219.628 87.1345 219.542 86.75 219.37 86.4119C219.201 86.0739 218.959 85.8071 218.644 85.6115C218.332 85.416 217.964 85.3182 217.54 85.3182C217.073 85.3182 216.668 85.4342 216.327 85.6662C215.989 85.8949 215.729 86.1932 215.546 86.5611C215.364 86.929 215.273 87.3234 215.273 87.7443V88.4205C215.273 88.9972 215.372 89.486 215.571 89.8871C215.773 90.2848 216.054 90.5881 216.411 90.7969C216.769 91.0024 217.185 91.1051 217.659 91.1051C217.968 91.1051 218.246 91.062 218.495 90.9759C218.746 90.8864 218.964 90.7538 219.146 90.5781C219.328 90.3991 219.469 90.1771 219.568 89.9119L220.702 90.2301C220.583 90.6146 220.382 90.9527 220.1 91.2443C219.819 91.5327 219.471 91.758 219.056 91.9205C218.642 92.0795 218.176 92.1591 217.659 92.1591Z" fill="black"/>
</g>
<g filter="url(#filter5_dd_494_1575)">
<path d="M103.942 150L108.496 140.991V140.912H103.246V139.818H109.768V140.972L105.234 150H103.942ZM110.746 150.08C110.501 150.08 110.291 149.992 110.115 149.816C109.939 149.64 109.852 149.43 109.852 149.185C109.852 148.939 109.939 148.729 110.115 148.553C110.291 148.378 110.501 148.29 110.746 148.29C110.992 148.29 111.202 148.378 111.378 148.553C111.554 148.729 111.641 148.939 111.641 149.185C111.641 149.347 111.6 149.496 111.517 149.632C111.438 149.768 111.33 149.877 111.194 149.96C111.061 150.04 110.912 150.08 110.746 150.08ZM116.704 150.139C116.12 150.139 115.595 150.023 115.128 149.791C114.66 149.559 114.286 149.241 114.004 148.837C113.722 148.432 113.568 147.972 113.542 147.455H114.735C114.781 147.915 114.99 148.296 115.361 148.598C115.736 148.896 116.183 149.045 116.704 149.045C117.121 149.045 117.493 148.948 117.817 148.752C118.145 148.557 118.402 148.288 118.588 147.947C118.777 147.602 118.871 147.213 118.871 146.778C118.871 146.334 118.774 145.938 118.578 145.59C118.386 145.239 118.121 144.962 117.783 144.76C117.444 144.558 117.058 144.455 116.624 144.452C116.313 144.448 115.993 144.496 115.665 144.596C115.336 144.692 115.066 144.816 114.854 144.969L113.701 144.83L114.317 139.818H119.607V140.912H115.351L114.993 143.915H115.053C115.262 143.749 115.524 143.612 115.839 143.502C116.153 143.393 116.482 143.338 116.823 143.338C117.446 143.338 118.001 143.487 118.488 143.786C118.979 144.08 119.363 144.485 119.642 144.999C119.924 145.512 120.064 146.099 120.064 146.759C120.064 147.408 119.919 147.988 119.627 148.499C119.339 149.006 118.941 149.407 118.434 149.702C117.927 149.993 117.35 150.139 116.704 150.139ZM127.23 148.091V147.554C127.23 147.183 127.306 146.843 127.458 146.535C127.614 146.223 127.84 145.975 128.135 145.789C128.433 145.6 128.794 145.506 129.218 145.506C129.649 145.506 130.011 145.6 130.302 145.789C130.594 145.975 130.814 146.223 130.963 146.535C131.113 146.843 131.187 147.183 131.187 147.554V148.091C131.187 148.462 131.111 148.804 130.958 149.115C130.809 149.423 130.587 149.672 130.292 149.861C130.001 150.046 129.643 150.139 129.218 150.139C128.788 150.139 128.425 150.046 128.13 149.861C127.835 149.672 127.611 149.423 127.458 149.115C127.306 148.804 127.23 148.462 127.23 148.091ZM128.244 147.554V148.091C128.244 148.399 128.317 148.676 128.463 148.921C128.609 149.163 128.86 149.284 129.218 149.284C129.566 149.284 129.812 149.163 129.954 148.921C130.1 148.676 130.173 148.399 130.173 148.091V147.554C130.173 147.246 130.103 146.971 129.964 146.729C129.825 146.483 129.576 146.361 129.218 146.361C128.87 146.361 128.62 146.483 128.468 146.729C128.319 146.971 128.244 147.246 128.244 147.554ZM122.159 142.264V141.727C122.159 141.356 122.235 141.016 122.387 140.708C122.543 140.397 122.769 140.148 123.064 139.962C123.362 139.773 123.723 139.679 124.147 139.679C124.578 139.679 124.94 139.773 125.231 139.962C125.523 140.148 125.743 140.397 125.892 140.708C126.042 141.016 126.116 141.356 126.116 141.727V142.264C126.116 142.635 126.04 142.977 125.887 143.288C125.738 143.597 125.516 143.845 125.221 144.034C124.93 144.22 124.572 144.312 124.147 144.312C123.717 144.312 123.354 144.22 123.059 144.034C122.764 143.845 122.54 143.597 122.387 143.288C122.235 142.977 122.159 142.635 122.159 142.264ZM123.173 141.727V142.264C123.173 142.572 123.246 142.849 123.392 143.094C123.538 143.336 123.789 143.457 124.147 143.457C124.495 143.457 124.741 143.336 124.883 143.094C125.029 142.849 125.102 142.572 125.102 142.264V141.727C125.102 141.419 125.032 141.144 124.893 140.902C124.754 140.657 124.505 140.534 124.147 140.534C123.799 140.534 123.549 140.657 123.397 140.902C123.248 141.144 123.173 141.419 123.173 141.727ZM122.537 150L129.537 139.818H130.67L123.67 150H122.537ZM136.417 148.21V141.648H137.531V148.21H136.417ZM133.693 145.486V144.372H140.255V145.486H133.693Z" fill="black"/>
<path d="M97.0692 164.818V175H95.8362V166.111H95.7766L93.2908 167.761V166.509L95.8362 164.818H97.0692ZM99.7588 172.912V171.898L104.233 164.818H104.969V166.389H104.472L101.091 171.739V171.818H107.117V172.912H99.7588ZM104.551 175V172.604V172.131V164.818H105.725V175H104.551ZM113.096 175V164.818H116.656C117.365 164.818 117.95 164.941 118.411 165.186C118.872 165.428 119.215 165.754 119.44 166.165C119.665 166.573 119.778 167.026 119.778 167.523C119.778 167.96 119.7 168.321 119.544 168.607C119.392 168.892 119.19 169.117 118.938 169.283C118.689 169.448 118.419 169.571 118.128 169.651V169.75C118.439 169.77 118.752 169.879 119.067 170.078C119.382 170.277 119.646 170.562 119.858 170.933C120.07 171.304 120.176 171.759 120.176 172.295C120.176 172.806 120.06 173.265 119.828 173.673C119.596 174.08 119.23 174.403 118.729 174.642C118.229 174.881 117.577 175 116.775 175H113.096ZM114.329 173.906H116.775C117.581 173.906 118.152 173.75 118.491 173.439C118.832 173.124 119.003 172.743 119.003 172.295C119.003 171.951 118.915 171.633 118.739 171.341C118.563 171.046 118.313 170.811 117.988 170.635C117.664 170.456 117.279 170.366 116.835 170.366H114.329V173.906ZM114.329 169.293H116.616C116.987 169.293 117.322 169.22 117.62 169.074C117.922 168.928 118.161 168.723 118.336 168.457C118.515 168.192 118.605 167.881 118.605 167.523C118.605 167.075 118.449 166.696 118.138 166.384C117.826 166.069 117.332 165.912 116.656 165.912H114.329V169.293ZM124.29 175.179C123.806 175.179 123.367 175.088 122.972 174.906C122.578 174.72 122.265 174.453 122.033 174.105C121.801 173.754 121.685 173.33 121.685 172.832C121.685 172.395 121.771 172.04 121.943 171.768C122.116 171.493 122.346 171.278 122.634 171.122C122.923 170.966 123.241 170.85 123.589 170.774C123.94 170.695 124.293 170.632 124.648 170.585C125.112 170.526 125.488 170.481 125.776 170.451C126.068 170.418 126.28 170.363 126.413 170.287C126.549 170.211 126.617 170.078 126.617 169.889V169.849C126.617 169.359 126.482 168.978 126.214 168.706C125.949 168.434 125.546 168.298 125.006 168.298C124.446 168.298 124.006 168.421 123.688 168.666C123.37 168.911 123.146 169.173 123.017 169.452L121.904 169.054C122.102 168.59 122.368 168.229 122.699 167.97C123.034 167.708 123.398 167.526 123.793 167.423C124.19 167.317 124.582 167.264 124.966 167.264C125.211 167.264 125.493 167.294 125.811 167.354C126.133 167.41 126.443 167.528 126.741 167.707C127.042 167.886 127.293 168.156 127.492 168.517C127.69 168.878 127.79 169.362 127.79 169.969V175H126.617V173.966H126.557C126.477 174.132 126.345 174.309 126.159 174.498C125.974 174.687 125.727 174.848 125.418 174.98C125.11 175.113 124.734 175.179 124.29 175.179ZM124.469 174.125C124.933 174.125 125.324 174.034 125.642 173.852C125.964 173.669 126.206 173.434 126.368 173.146C126.534 172.857 126.617 172.554 126.617 172.236V171.162C126.567 171.222 126.457 171.276 126.288 171.326C126.123 171.372 125.931 171.414 125.712 171.45C125.496 171.483 125.286 171.513 125.08 171.54C124.878 171.563 124.714 171.583 124.588 171.599C124.283 171.639 123.998 171.704 123.733 171.793C123.471 171.879 123.259 172.01 123.097 172.186C122.938 172.358 122.858 172.594 122.858 172.892C122.858 173.3 123.009 173.608 123.31 173.817C123.615 174.022 124.002 174.125 124.469 174.125ZM131.105 170.406V175H129.931V167.364H131.065V168.557H131.164C131.343 168.169 131.615 167.857 131.98 167.622C132.344 167.384 132.815 167.264 133.392 167.264C133.909 167.264 134.361 167.37 134.749 167.582C135.137 167.791 135.438 168.109 135.654 168.537C135.869 168.961 135.977 169.498 135.977 170.148V175H134.804V170.227C134.804 169.627 134.648 169.16 134.336 168.825C134.025 168.487 133.597 168.318 133.054 168.318C132.679 168.318 132.344 168.399 132.049 168.562C131.758 168.724 131.527 168.961 131.358 169.273C131.189 169.584 131.105 169.962 131.105 170.406ZM139.215 172.216L139.195 170.764H139.433L142.774 167.364H144.226L140.666 170.963H140.567L139.215 172.216ZM138.121 175V164.818H139.294V175H138.121ZM142.973 175L139.99 171.222L140.825 170.406L144.465 175H142.973ZM151.145 169.074L150.091 169.372C150.025 169.196 149.927 169.026 149.798 168.86C149.672 168.691 149.5 168.552 149.281 168.442C149.062 168.333 148.782 168.278 148.441 168.278C147.973 168.278 147.584 168.386 147.272 168.602C146.964 168.814 146.81 169.084 146.81 169.412C146.81 169.704 146.916 169.934 147.128 170.103C147.34 170.272 147.672 170.413 148.122 170.526L149.256 170.804C149.939 170.97 150.447 171.223 150.782 171.565C151.117 171.903 151.284 172.339 151.284 172.872C151.284 173.31 151.158 173.701 150.907 174.045C150.658 174.39 150.31 174.662 149.863 174.861C149.415 175.06 148.895 175.159 148.301 175.159C147.523 175.159 146.878 174.99 146.367 174.652C145.857 174.314 145.534 173.82 145.398 173.17L146.512 172.892C146.618 173.303 146.818 173.611 147.113 173.817C147.412 174.022 147.801 174.125 148.282 174.125C148.828 174.125 149.263 174.009 149.584 173.777C149.909 173.542 150.071 173.26 150.071 172.932C150.071 172.667 149.979 172.445 149.793 172.266C149.607 172.083 149.322 171.947 148.938 171.858L147.665 171.56C146.966 171.394 146.452 171.137 146.124 170.789C145.799 170.438 145.637 169.999 145.637 169.472C145.637 169.041 145.758 168.66 146 168.328C146.245 167.997 146.578 167.737 146.999 167.548C147.423 167.359 147.904 167.264 148.441 167.264C149.196 167.264 149.79 167.43 150.22 167.761C150.655 168.093 150.963 168.53 151.145 169.074ZM100.693 192.139C100.023 192.139 99.4466 192.017 98.9627 191.771C98.4788 191.526 98.106 191.19 97.8441 190.762C97.5823 190.335 97.4514 189.846 97.4514 189.295C97.4514 188.871 97.5409 188.495 97.7198 188.167C97.9021 187.835 98.1524 187.529 98.4705 187.247C98.792 186.962 99.1616 186.677 99.5792 186.392L101.051 185.298C101.339 185.109 101.57 184.907 101.742 184.692C101.918 184.476 102.005 184.195 102.005 183.847C102.005 183.588 101.891 183.338 101.662 183.096C101.437 182.854 101.14 182.733 100.772 182.733C100.514 182.733 100.285 182.799 100.086 182.932C99.8908 183.061 99.7366 183.227 99.624 183.429C99.5146 183.628 99.4599 183.833 99.4599 184.045C99.4599 184.284 99.5245 184.526 99.6538 184.771C99.7864 185.013 99.9537 185.262 100.156 185.517C100.361 185.769 100.574 186.027 100.792 186.293L105.466 192H104.054L100.196 187.347C99.8377 186.916 99.5129 186.525 99.2213 186.173C98.9296 185.822 98.6976 185.476 98.5252 185.134C98.3529 184.793 98.2667 184.423 98.2667 184.026C98.2667 183.568 98.3678 183.167 98.57 182.822C98.7755 182.474 99.0622 182.204 99.4301 182.012C99.8013 181.817 100.235 181.719 100.733 181.719C101.243 181.719 101.682 181.818 102.05 182.017C102.418 182.213 102.701 182.473 102.9 182.798C103.099 183.119 103.199 183.469 103.199 183.847C103.199 184.334 103.078 184.756 102.836 185.114C102.594 185.472 102.264 185.805 101.846 186.114L99.8178 187.625C99.3605 187.963 99.0506 188.291 98.8882 188.609C98.7258 188.928 98.6445 189.156 98.6445 189.295C98.6445 189.614 98.7274 189.91 98.8931 190.185C99.0588 190.46 99.2925 190.683 99.5941 190.852C99.8957 191.021 100.249 191.105 100.653 191.105C101.038 191.105 101.412 191.024 101.777 190.862C102.141 190.696 102.471 190.457 102.766 190.146C103.064 189.834 103.3 189.46 103.472 189.022C103.648 188.585 103.735 188.092 103.735 187.545H104.869C104.869 188.222 104.791 188.773 104.635 189.201C104.48 189.629 104.304 189.963 104.108 190.205C103.913 190.447 103.755 190.628 103.636 190.747C103.596 190.797 103.56 190.847 103.527 190.896C103.494 190.946 103.457 190.996 103.417 191.045C103.089 191.413 102.675 191.688 102.174 191.871C101.674 192.05 101.18 192.139 100.693 192.139ZM118.935 181.818V192H117.742L112.193 184.006H112.094V192H110.861V181.818H112.054L117.622 189.832H117.722V181.818H118.935ZM121.402 192V181.818H124.962C125.671 181.818 126.256 181.941 126.717 182.186C127.177 182.428 127.52 182.754 127.746 183.165C127.971 183.573 128.084 184.026 128.084 184.523C128.084 184.96 128.006 185.321 127.85 185.607C127.698 185.892 127.496 186.117 127.244 186.283C126.995 186.448 126.725 186.571 126.433 186.651V186.75C126.745 186.77 127.058 186.879 127.373 187.078C127.688 187.277 127.951 187.562 128.163 187.933C128.375 188.304 128.482 188.759 128.482 189.295C128.482 189.806 128.366 190.265 128.134 190.673C127.902 191.08 127.535 191.403 127.035 191.642C126.534 191.881 125.883 192 125.081 192H121.402ZM122.635 190.906H125.081C125.886 190.906 126.458 190.75 126.796 190.439C127.138 190.124 127.308 189.743 127.308 189.295C127.308 188.951 127.22 188.633 127.045 188.341C126.869 188.046 126.619 187.811 126.294 187.635C125.969 187.456 125.585 187.366 125.141 187.366H122.635V190.906ZM122.635 186.293H124.922C125.293 186.293 125.628 186.22 125.926 186.074C126.228 185.928 126.466 185.723 126.642 185.457C126.821 185.192 126.911 184.881 126.911 184.523C126.911 184.075 126.755 183.696 126.443 183.384C126.132 183.069 125.638 182.912 124.962 182.912H122.635V186.293ZM130.507 192V181.818H136.613V182.912H131.74V186.352H136.155V187.446H131.74V192H130.507ZM146.917 185H145.685C145.612 184.645 145.484 184.334 145.302 184.065C145.123 183.797 144.904 183.571 144.645 183.389C144.39 183.204 144.107 183.064 143.795 182.972C143.484 182.879 143.159 182.832 142.821 182.832C142.204 182.832 141.646 182.988 141.145 183.3C140.648 183.611 140.252 184.07 139.957 184.677C139.666 185.283 139.52 186.027 139.52 186.909C139.52 187.791 139.666 188.535 139.957 189.141C140.252 189.748 140.648 190.207 141.145 190.518C141.646 190.83 142.204 190.986 142.821 190.986C143.159 190.986 143.484 190.939 143.795 190.847C144.107 190.754 144.39 190.616 144.645 190.434C144.904 190.248 145.123 190.021 145.302 189.753C145.484 189.481 145.612 189.17 145.685 188.818H146.917C146.825 189.339 146.656 189.804 146.41 190.215C146.165 190.626 145.86 190.976 145.496 191.264C145.131 191.549 144.722 191.766 144.268 191.915C143.817 192.065 143.335 192.139 142.821 192.139C141.952 192.139 141.18 191.927 140.504 191.503C139.828 191.079 139.296 190.475 138.908 189.693C138.52 188.911 138.327 187.983 138.327 186.909C138.327 185.835 138.52 184.907 138.908 184.125C139.296 183.343 139.828 182.74 140.504 182.315C141.18 181.891 141.952 181.679 142.821 181.679C143.335 181.679 143.817 181.754 144.268 181.903C144.722 182.052 145.131 182.271 145.496 182.559C145.86 182.844 146.165 183.192 146.41 183.603C146.656 184.011 146.825 184.476 146.917 185Z" fill="black"/>
</g>
</g>
</g>
<defs>
<filter id="filter0_d_494_1575" x="16" y="30" width="88" height="88" filterUnits="userSpaceOnUse" color-interpolation-filters="sRGB">
<feFlood flood-opacity="0" result="BackgroundImageFix"/>
<feColorMatrix in="SourceAlpha" type="matrix" values="0 0 0 0 0 0 0 0 0 0 0 0 0 0 0 0 0 0 127 0" result="hardAlpha"/>
<feOffset dy="4"/>
<feGaussianBlur stdDeviation="2"/>
<feComposite in2="hardAlpha" operator="out"/>
<feColorMatrix type="matrix" values="0 0 0 0 0 0 0 0 0 0 0 0 0 0 0 0 0 0 0.25 0"/>
<feBlend mode="normal" in2="BackgroundImageFix" result="effect1_dropShadow_494_1575"/>
<feBlend mode="normal" in="SourceGraphic" in2="effect1_dropShadow_494_1575" result="shape"/>
</filter>
<filter id="filter1_d_494_1575" x="76" y="125" width="88" height="88" filterUnits="userSpaceOnUse" color-interpolation-filters="sRGB">
<feFlood flood-opacity="0" result="BackgroundImageFix"/>
<feColorMatrix in="SourceAlpha" type="matrix" values="0 0 0 0 0 0 0 0 0 0 0 0 0 0 0 0 0 0 127 0" result="hardAlpha"/>
<feOffset dy="4"/>
<feGaussianBlur stdDeviation="2"/>
<feComposite in2="hardAlpha" operator="out"/>
<feColorMatrix type="matrix" values="0 0 0 0 0 0 0 0 0 0 0 0 0 0 0 0 0 0 0.25 0"/>
<feBlend mode="normal" in2="BackgroundImageFix" result="effect1_dropShadow_494_1575"/>
<feBlend mode="normal" in="SourceGraphic" in2="effect1_dropShadow_494_1575" result="shape"/>
</filter>
<filter id="filter2_d_494_1575" x="138" y="30" width="88" height="88" filterUnits="userSpaceOnUse" color-interpolation-filters="sRGB">
<feFlood flood-opacity="0" result="BackgroundImageFix"/>
<feColorMatrix in="SourceAlpha" type="matrix" values="0 0 0 0 0 0 0 0 0 0 0 0 0 0 0 0 0 0 127 0" result="hardAlpha"/>
<feOffset dy="4"/>
<feGaussianBlur stdDeviation="2"/>
<feComposite in2="hardAlpha" operator="out"/>
<feColorMatrix type="matrix" values="0 0 0 0 0 0 0 0 0 0 0 0 0 0 0 0 0 0 0.25 0"/>
<feBlend mode="normal" in2="BackgroundImageFix" result="effect1_dropShadow_494_1575"/>
<feBlend mode="normal" in="SourceGraphic" in2="effect1_dropShadow_494_1575" result="shape"/>
</filter>
<filter id="filter3_dd_494_1575" x="16.752" y="33.3391" width="87.1825" height="84.8754" filterUnits="userSpaceOnUse" color-interpolation-filters="sRGB">
<feFlood flood-opacity="0" result="BackgroundImageFix"/>
<feColorMatrix in="SourceAlpha" type="matrix" values="0 0 0 0 0 0 0 0 0 0 0 0 0 0 0 0 0 0 127 0" result="hardAlpha"/>
<feOffset dx="2.47712" dy="2.47712"/>
<feGaussianBlur stdDeviation="9.2892"/>
<feColorMatrix type="matrix" values="0 0 0 0 0.6512 0 0 0 0 0.66896 0 0 0 0 0.74 0 0 0 0.5 0"/>
<feBlend mode="normal" in2="BackgroundImageFix" result="effect1_dropShadow_494_1575"/>
<feColorMatrix in="SourceAlpha" type="matrix" values="0 0 0 0 0 0 0 0 0 0 0 0 0 0 0 0 0 0 127 0" result="hardAlpha"/>
<feOffset dx="-1.23856" dy="-1.23856"/>
<feGaussianBlur stdDeviation="8.05064"/>
<feColorMatrix type="matrix" values="0 0 0 0 0.979167 0 0 0 0 0.983333 0 0 0 0 1 0 0 0 1 0"/>
<feBlend mode="normal" in2="effect1_dropShadow_494_1575" result="effect2_dropShadow_494_1575"/>
<feBlend mode="normal" in="SourceGraphic" in2="effect2_dropShadow_494_1575" result="shape"/>
</filter>
<filter id="filter4_dd_494_1575" x="126.361" y="26.3391" width="115.514" height="86.8754" filterUnits="userSpaceOnUse" color-interpolation-filters="sRGB">
<feFlood flood-opacity="0" result="BackgroundImageFix"/>
<feColorMatrix in="SourceAlpha" type="matrix" values="0 0 0 0 0 0 0 0 0 0 0 0 0 0 0 0 0 0 127 0" result="hardAlpha"/>
<feOffset dx="2.47712" dy="2.47712"/>
<feGaussianBlur stdDeviation="9.2892"/>
<feColorMatrix type="matrix" values="0 0 0 0 0.6512 0 0 0 0 0.66896 0 0 0 0 0.74 0 0 0 0.5 0"/>
<feBlend mode="normal" in2="BackgroundImageFix" result="effect1_dropShadow_494_1575"/>
<feColorMatrix in="SourceAlpha" type="matrix" values="0 0 0 0 0 0 0 0 0 0 0 0 0 0 0 0 0 0 127 0" result="hardAlpha"/>
<feOffset dx="-1.23856" dy="-1.23856"/>
<feGaussianBlur stdDeviation="8.05064"/>
<feColorMatrix type="matrix" values="0 0 0 0 0.979167 0 0 0 0 0.983333 0 0 0 0 1 0 0 0 1 0"/>
<feBlend mode="normal" in2="effect1_dropShadow_494_1575" result="effect2_dropShadow_494_1575"/>
<feBlend mode="normal" in="SourceGraphic" in2="effect2_dropShadow_494_1575" result="shape"/>
</filter>
<filter id="filter5_dd_494_1575" x="75.9512" y="122.339" width="96.3895" height="90.8556" filterUnits="userSpaceOnUse" color-interpolation-filters="sRGB">
<feFlood flood-opacity="0" result="BackgroundImageFix"/>
<feColorMatrix in="SourceAlpha" type="matrix" values="0 0 0 0 0 0 0 0 0 0 0 0 0 0 0 0 0 0 127 0" result="hardAlpha"/>
<feOffset dx="2.47712" dy="2.47712"/>
<feGaussianBlur stdDeviation="9.2892"/>
<feColorMatrix type="matrix" values="0 0 0 0 0.6512 0 0 0 0 0.66896 0 0 0 0 0.74 0 0 0 0.5 0"/>
<feBlend mode="normal" in2="BackgroundImageFix" result="effect1_dropShadow_494_1575"/>
<feColorMatrix in="SourceAlpha" type="matrix" values="0 0 0 0 0 0 0 0 0 0 0 0 0 0 0 0 0 0 127 0" result="hardAlpha"/>
<feOffset dx="-1.23856" dy="-1.23856"/>
<feGaussianBlur stdDeviation="8.05064"/>
<feColorMatrix type="matrix" values="0 0 0 0 0.979167 0 0 0 0 0.983333 0 0 0 0 1 0 0 0 1 0"/>
<feBlend mode="normal" in2="effect1_dropShadow_494_1575" result="effect2_dropShadow_494_1575"/>
<feBlend mode="normal" in="SourceGraphic" in2="effect2_dropShadow_494_1575" result="shape"/>
</filter>
<clipPath id="clip0_494_1575">
<rect width="240" height="210" fill="white"/>
</clipPath>
<clipPath id="clip1_494_1575">
<rect width="240" height="210" rx="20" fill="white"/>
</clipPath>
</defs>
</svg>
