<svg width="320" height="250" viewBox="0 0 320 250" fill="none" xmlns="http://www.w3.org/2000/svg">
<rect width="320" height="250" fill="white"/>
<g filter="url(#filter0_d_493_1574)">
<rect x="60" y="51" width="80" height="80" rx="20" fill="white"/>
</g>
<g filter="url(#filter1_d_493_1574)">
<rect x="60" y="146" width="80" height="80" rx="20" fill="white"/>
</g>
<g filter="url(#filter2_d_493_1574)">
<rect x="180" y="146" width="80" height="80" rx="20" fill="white"/>
</g>
<g filter="url(#filter3_d_493_1574)">
<rect x="180" y="51" width="80" height="80" rx="20" fill="white"/>
</g>
<g filter="url(#filter4_dd_493_1574)">
<path d="M97.1413 65.8182V76H95.9084V67.1108H95.8487L93.3629 68.7614V67.5085L95.9084 65.8182H97.1413ZM100.07 76V75.1051L103.43 71.4261C103.825 70.9953 104.15 70.6207 104.405 70.3026C104.66 69.9811 104.849 69.6795 104.972 69.3977C105.098 69.1127 105.161 68.8144 105.161 68.5028C105.161 68.1449 105.074 67.835 104.902 67.5732C104.733 67.3113 104.501 67.1091 104.206 66.9666C103.911 66.8241 103.58 66.7528 103.212 66.7528C102.821 66.7528 102.479 66.834 102.188 66.9964C101.899 67.1555 101.675 67.3793 101.516 67.6676C101.361 67.956 101.283 68.294 101.283 68.6818H100.109C100.109 68.0852 100.247 67.5616 100.522 67.1108C100.797 66.66 101.172 66.3087 101.646 66.0568C102.123 65.8049 102.658 65.679 103.251 65.679C103.848 65.679 104.377 65.8049 104.837 66.0568C105.298 66.3087 105.659 66.6484 105.921 67.076C106.183 67.5036 106.314 67.9792 106.314 68.5028C106.314 68.8774 106.246 69.2436 106.11 69.6016C105.978 69.9562 105.746 70.3523 105.414 70.7898C105.086 71.224 104.63 71.7543 104.047 72.3807L101.76 74.8267V74.9062H106.493V76H100.07Z" fill="black"/>
<path d="M81.1421 99V88.8182H84.5825C85.3812 88.8182 86.0342 88.9624 86.5413 89.2507C87.0517 89.5357 87.4295 89.9219 87.6748 90.4091C87.9201 90.8963 88.0427 91.4399 88.0427 92.0398C88.0427 92.6397 87.9201 93.1849 87.6748 93.6754C87.4329 94.166 87.0583 94.5571 86.5512 94.8487C86.0441 95.1371 85.3945 95.2812 84.6024 95.2812H82.1365V94.1875H84.5626C85.1095 94.1875 85.5486 94.093 85.8801 93.9041C86.2115 93.7152 86.4518 93.46 86.6009 93.1385C86.7534 92.8137 86.8296 92.4474 86.8296 92.0398C86.8296 91.6321 86.7534 91.2675 86.6009 90.946C86.4518 90.6245 86.2098 90.3726 85.8751 90.1903C85.5403 90.0047 85.0962 89.9119 84.5427 89.9119H82.3751V99H81.1421ZM94.6823 95.8778V91.3636H95.8556V99H94.6823V97.7074H94.6027C94.4237 98.0952 94.1453 98.425 93.7675 98.6967C93.3896 98.9652 92.9124 99.0994 92.3357 99.0994C91.8584 99.0994 91.4342 98.995 91.0629 98.7862C90.6917 98.5741 90.4001 98.2559 90.1879 97.8317C89.9758 97.4041 89.8698 96.8655 89.8698 96.2159V91.3636H91.0431V96.1364C91.0431 96.6932 91.1988 97.1373 91.5104 97.4688C91.8253 97.8002 92.2263 97.9659 92.7135 97.9659C93.0052 97.9659 93.3018 97.8913 93.6034 97.7422C93.9084 97.593 94.1636 97.3643 94.3691 97.0561C94.5779 96.7479 94.6823 96.3551 94.6823 95.8778ZM98.1636 99V88.8182H99.3369V92.5767H99.4363C99.5225 92.4441 99.6418 92.2751 99.7943 92.0696C99.9501 91.8608 100.172 91.6752 100.46 91.5128C100.752 91.3471 101.147 91.2642 101.644 91.2642C102.287 91.2642 102.853 91.425 103.344 91.7464C103.835 92.0679 104.217 92.5237 104.492 93.1136C104.768 93.7036 104.905 94.3996 104.905 95.2017C104.905 96.0104 104.768 96.7114 104.492 97.3047C104.217 97.8946 103.836 98.352 103.349 98.6768C102.862 98.9983 102.3 99.1591 101.664 99.1591C101.173 99.1591 100.78 99.0779 100.485 98.9155C100.19 98.7498 99.9633 98.5625 99.8042 98.3537C99.6452 98.1416 99.5225 97.9659 99.4363 97.8267H99.2971V99H98.1636ZM99.317 95.1818C99.317 95.7585 99.4015 96.2673 99.5706 96.7081C99.7396 97.1456 99.9865 97.4886 100.311 97.7372C100.636 97.9825 101.034 98.1051 101.505 98.1051C101.995 98.1051 102.404 97.9759 102.733 97.7173C103.064 97.4555 103.313 97.1042 103.478 96.6634C103.647 96.2192 103.732 95.7254 103.732 95.1818C103.732 94.6449 103.649 94.161 103.483 93.7301C103.321 93.2959 103.074 92.9529 102.742 92.701C102.414 92.4458 102.002 92.3182 101.505 92.3182C101.027 92.3182 100.626 92.4392 100.301 92.6811C99.9766 92.9197 99.7313 93.2545 99.5656 93.6854C99.3999 94.1129 99.317 94.6117 99.317 95.1818ZM107.873 88.8182V99H106.7V88.8182H107.873ZM110.022 99V91.3636H111.195V99H110.022ZM110.619 90.0909C110.39 90.0909 110.193 90.013 110.027 89.8572C109.865 89.7015 109.783 89.5142 109.783 89.2955C109.783 89.0767 109.865 88.8894 110.027 88.7337C110.193 88.5779 110.39 88.5 110.619 88.5C110.847 88.5 111.043 88.5779 111.205 88.7337C111.371 88.8894 111.454 89.0767 111.454 89.2955C111.454 89.5142 111.371 89.7015 111.205 89.8572C111.043 90.013 110.847 90.0909 110.619 90.0909ZM116.447 99.1591C115.731 99.1591 115.114 98.9901 114.597 98.652C114.08 98.3139 113.682 97.8482 113.404 97.255C113.126 96.6617 112.986 95.9839 112.986 95.2216C112.986 94.446 113.129 93.7616 113.414 93.1683C113.702 92.5717 114.103 92.1061 114.617 91.7713C115.134 91.4332 115.737 91.2642 116.427 91.2642C116.964 91.2642 117.448 91.3636 117.878 91.5625C118.309 91.7614 118.662 92.0398 118.937 92.3977C119.213 92.7557 119.383 93.1733 119.449 93.6506H118.276C118.187 93.3026 117.988 92.9943 117.68 92.7259C117.375 92.4541 116.964 92.3182 116.447 92.3182C115.989 92.3182 115.588 92.4375 115.244 92.6761C114.902 92.9115 114.635 93.2446 114.443 93.6754C114.254 94.103 114.16 94.6051 114.16 95.1818C114.16 95.7718 114.253 96.2855 114.438 96.723C114.627 97.1605 114.892 97.5002 115.234 97.7422C115.578 97.9841 115.983 98.1051 116.447 98.1051C116.752 98.1051 117.028 98.0521 117.277 97.946C117.525 97.84 117.736 97.6875 117.908 97.4886C118.081 97.2898 118.203 97.0511 118.276 96.7727H119.449C119.383 97.2235 119.219 97.6295 118.957 97.9908C118.699 98.3487 118.356 98.6338 117.928 98.8459C117.504 99.0547 117.01 99.1591 116.447 99.1591ZM81.1763 116V105.818H84.736C85.4453 105.818 86.0302 105.941 86.4909 106.186C86.9516 106.428 87.2947 106.754 87.5201 107.165C87.7454 107.573 87.8581 108.026 87.8581 108.523C87.8581 108.96 87.7802 109.321 87.6245 109.607C87.472 109.892 87.2698 110.117 87.0179 110.283C86.7694 110.448 86.4992 110.571 86.2076 110.651V110.75C86.5191 110.77 86.8323 110.879 87.1472 111.078C87.4621 111.277 87.7256 111.562 87.9377 111.933C88.1498 112.304 88.2559 112.759 88.2559 113.295C88.2559 113.806 88.1399 114.265 87.9078 114.673C87.6758 115.08 87.3096 115.403 86.8091 115.642C86.3087 115.881 85.6574 116 84.8553 116H81.1763ZM82.4093 114.906H84.8553C85.6607 114.906 86.2324 114.75 86.5705 114.439C86.9119 114.124 87.0826 113.743 87.0826 113.295C87.0826 112.951 86.9947 112.633 86.8191 112.341C86.6434 112.046 86.3932 111.811 86.0684 111.635C85.7435 111.456 85.3591 111.366 84.915 111.366H82.4093V114.906ZM82.4093 110.293H84.6962C85.0674 110.293 85.4022 110.22 85.7005 110.074C86.0021 109.928 86.2407 109.723 86.4164 109.457C86.5953 109.192 86.6848 108.881 86.6848 108.523C86.6848 108.075 86.5291 107.696 86.2175 107.384C85.906 107.069 85.4121 106.912 84.736 106.912H82.4093V110.293ZM92.3699 116.179C91.8859 116.179 91.4468 116.088 91.0524 115.906C90.658 115.72 90.3448 115.453 90.1127 115.105C89.8807 114.754 89.7647 114.33 89.7647 113.832C89.7647 113.395 89.8509 113.04 90.0233 112.768C90.1956 112.493 90.426 112.278 90.7143 112.122C91.0027 111.966 91.3208 111.85 91.6689 111.774C92.0202 111.695 92.3732 111.632 92.7278 111.585C93.1918 111.526 93.568 111.481 93.8564 111.451C94.148 111.418 94.3601 111.363 94.4927 111.287C94.6286 111.211 94.6966 111.078 94.6966 110.889V110.849C94.6966 110.359 94.5623 109.978 94.2939 109.706C94.0287 109.434 93.626 109.298 93.0858 109.298C92.5256 109.298 92.0865 109.421 91.7683 109.666C91.4501 109.911 91.2264 110.173 91.0971 110.452L89.9835 110.054C90.1824 109.59 90.4475 109.229 90.7789 108.97C91.1137 108.708 91.4783 108.526 91.8727 108.423C92.2704 108.317 92.6615 108.264 93.046 108.264C93.2913 108.264 93.573 108.294 93.8912 108.354C94.2127 108.41 94.5225 108.528 94.8208 108.707C95.1225 108.886 95.3727 109.156 95.5716 109.517C95.7704 109.878 95.8699 110.362 95.8699 110.969V116H94.6966V114.966H94.6369C94.5574 115.132 94.4248 115.309 94.2392 115.498C94.0536 115.687 93.8066 115.848 93.4984 115.98C93.1902 116.113 92.814 116.179 92.3699 116.179ZM92.5488 115.125C93.0128 115.125 93.4039 115.034 93.7221 114.852C94.0436 114.669 94.2856 114.434 94.448 114.146C94.6137 113.857 94.6966 113.554 94.6966 113.236V112.162C94.6468 112.222 94.5375 112.276 94.3684 112.326C94.2027 112.372 94.0105 112.414 93.7917 112.45C93.5763 112.483 93.3658 112.513 93.1603 112.54C92.9582 112.563 92.7941 112.583 92.6681 112.599C92.3632 112.639 92.0782 112.704 91.813 112.793C91.5512 112.879 91.3391 113.01 91.1767 113.186C91.0176 113.358 90.938 113.594 90.938 113.892C90.938 114.3 91.0888 114.608 91.3904 114.817C91.6954 115.022 92.0815 115.125 92.5488 115.125ZM99.1847 111.406V116H98.0114V108.364H99.1449V109.557H99.2443C99.4233 109.169 99.6951 108.857 100.06 108.622C100.424 108.384 100.895 108.264 101.472 108.264C101.989 108.264 102.441 108.37 102.829 108.582C103.217 108.791 103.518 109.109 103.734 109.537C103.949 109.961 104.057 110.498 104.057 111.148V116H102.884V111.227C102.884 110.627 102.728 110.16 102.416 109.825C102.105 109.487 101.677 109.318 101.134 109.318C100.759 109.318 100.424 109.399 100.129 109.562C99.8376 109.724 99.6072 109.961 99.4382 110.273C99.2692 110.584 99.1847 110.962 99.1847 111.406ZM107.295 113.216L107.275 111.764H107.513L110.854 108.364H112.306L108.746 111.963H108.647L107.295 113.216ZM106.201 116V105.818H107.374V116H106.201ZM111.053 116L108.07 112.222L108.905 111.406L112.545 116H111.053ZM119.225 110.074L118.171 110.372C118.105 110.196 118.007 110.026 117.878 109.86C117.752 109.691 117.58 109.552 117.361 109.442C117.142 109.333 116.862 109.278 116.521 109.278C116.053 109.278 115.664 109.386 115.352 109.602C115.044 109.814 114.89 110.084 114.89 110.412C114.89 110.704 114.996 110.934 115.208 111.103C115.42 111.272 115.752 111.413 116.202 111.526L117.336 111.804C118.019 111.97 118.527 112.223 118.862 112.565C119.197 112.903 119.364 113.339 119.364 113.872C119.364 114.31 119.238 114.701 118.987 115.045C118.738 115.39 118.39 115.662 117.942 115.861C117.495 116.06 116.975 116.159 116.381 116.159C115.603 116.159 114.958 115.99 114.447 115.652C113.937 115.314 113.614 114.82 113.478 114.17L114.592 113.892C114.698 114.303 114.898 114.611 115.193 114.817C115.491 115.022 115.881 115.125 116.362 115.125C116.908 115.125 117.343 115.009 117.664 114.777C117.989 114.542 118.151 114.26 118.151 113.932C118.151 113.667 118.058 113.445 117.873 113.266C117.687 113.083 117.402 112.947 117.018 112.858L115.745 112.56C115.046 112.394 114.532 112.137 114.204 111.789C113.879 111.438 113.717 110.999 113.717 110.472C113.717 110.041 113.838 109.66 114.08 109.328C114.325 108.997 114.658 108.737 115.079 108.548C115.503 108.359 115.984 108.264 116.521 108.264C117.276 108.264 117.87 108.43 118.3 108.761C118.735 109.093 119.043 109.53 119.225 110.074Z" fill="black"/>
</g>
<g filter="url(#filter5_dd_493_1574)">
<path d="M217.011 65.8182V76H215.778V67.1108H215.719L213.233 68.7614V67.5085L215.778 65.8182H217.011ZM223.32 76.1392C222.903 76.1326 222.485 76.053 222.068 75.9006C221.65 75.7481 221.269 75.4912 220.924 75.13C220.579 74.7654 220.303 74.2732 220.094 73.6534C219.885 73.0303 219.781 72.2481 219.781 71.3068C219.781 70.4053 219.865 69.6065 220.034 68.9105C220.203 68.2112 220.448 67.6229 220.77 67.1456C221.091 66.665 221.479 66.3004 221.933 66.0518C222.391 65.8033 222.906 65.679 223.479 65.679C224.05 65.679 224.557 65.7933 225.001 66.022C225.448 66.2474 225.813 66.5623 226.095 66.9666C226.376 67.371 226.559 67.8366 226.641 68.3636H225.428C225.316 67.9062 225.097 67.5268 224.772 67.2251C224.447 66.9235 224.016 66.7727 223.479 66.7727C222.691 66.7727 222.069 67.1158 221.615 67.8018C221.164 68.4879 220.937 69.4508 220.934 70.6903H221.014C221.199 70.4086 221.42 70.1683 221.675 69.9695C221.933 69.7673 222.218 69.6115 222.53 69.5021C222.841 69.3928 223.171 69.3381 223.519 69.3381C224.103 69.3381 224.636 69.4839 225.12 69.7756C225.604 70.0639 225.992 70.4633 226.283 70.9737C226.575 71.4808 226.721 72.0625 226.721 72.7188C226.721 73.3485 226.58 73.9252 226.298 74.4489C226.017 74.9692 225.621 75.3835 225.11 75.6918C224.603 75.9967 224.006 76.1458 223.32 76.1392ZM223.32 75.0455C223.738 75.0455 224.113 74.9411 224.444 74.7322C224.779 74.5234 225.042 74.2434 225.234 73.892C225.43 73.5407 225.528 73.1496 225.528 72.7188C225.528 72.2978 225.433 71.915 225.244 71.5703C225.059 71.2223 224.802 70.9455 224.474 70.7401C224.149 70.5346 223.778 70.4318 223.36 70.4318C223.045 70.4318 222.752 70.4948 222.48 70.6207C222.208 70.7434 221.97 70.9124 221.764 71.1278C221.562 71.3433 221.403 71.5902 221.287 71.8686C221.171 72.1437 221.113 72.4337 221.113 72.7386C221.113 73.143 221.207 73.5208 221.396 73.8722C221.589 74.2235 221.85 74.5069 222.182 74.7223C222.517 74.9377 222.896 75.0455 223.32 75.0455Z" fill="black"/>
<path d="M198.223 97V86.8182H201.664C202.462 86.8182 203.115 86.9624 203.622 87.2507C204.133 87.5357 204.511 87.9219 204.756 88.4091C205.001 88.8963 205.124 89.4399 205.124 90.0398C205.124 90.6397 205.001 91.1849 204.756 91.6754C204.514 92.166 204.139 92.5571 203.632 92.8487C203.125 93.1371 202.476 93.2812 201.683 93.2812H199.218V92.1875H201.644C202.191 92.1875 202.63 92.093 202.961 91.9041C203.293 91.7152 203.533 91.46 203.682 91.1385C203.834 90.8137 203.911 90.4474 203.911 90.0398C203.911 89.6321 203.834 89.2675 203.682 88.946C203.533 88.6245 203.291 88.3726 202.956 88.1903C202.621 88.0047 202.177 87.9119 201.624 87.9119H199.456V97H198.223ZM206.951 97V89.3636H208.084V90.517H208.164C208.303 90.1392 208.555 89.8326 208.92 89.5973C209.284 89.362 209.695 89.2443 210.153 89.2443C210.239 89.2443 210.346 89.246 210.476 89.2493C210.605 89.2526 210.703 89.2576 210.769 89.2642V90.4574C210.729 90.4474 210.638 90.4325 210.496 90.4126C210.356 90.3894 210.209 90.3778 210.053 90.3778C209.682 90.3778 209.35 90.4557 209.059 90.6115C208.77 90.764 208.542 90.9761 208.373 91.2479C208.207 91.5163 208.124 91.8229 208.124 92.1676V97H206.951ZM212.16 97V89.3636H213.333V97H212.16ZM212.756 88.0909C212.528 88.0909 212.33 88.013 212.165 87.8572C212.002 87.7015 211.921 87.5142 211.921 87.2955C211.921 87.0767 212.002 86.8894 212.165 86.7337C212.33 86.5779 212.528 86.5 212.756 86.5C212.985 86.5 213.181 86.5779 213.343 86.7337C213.509 86.8894 213.592 87.0767 213.592 87.2955C213.592 87.5142 213.509 87.7015 213.343 87.8572C213.181 88.013 212.985 88.0909 212.756 88.0909ZM221.726 89.3636L218.903 97H217.709L214.885 89.3636H216.158L218.266 95.4489H218.346L220.454 89.3636H221.726ZM225.29 97.179C224.806 97.179 224.367 97.0878 223.972 96.9055C223.578 96.7199 223.265 96.4531 223.033 96.1051C222.801 95.7538 222.685 95.3295 222.685 94.8324C222.685 94.3949 222.771 94.0402 222.943 93.7685C223.116 93.4934 223.346 93.2779 223.634 93.1222C223.923 92.9664 224.241 92.8504 224.589 92.7741C224.94 92.6946 225.293 92.6316 225.648 92.5852C226.112 92.5256 226.488 92.4808 226.776 92.451C227.068 92.4179 227.28 92.3632 227.413 92.2869C227.549 92.2107 227.616 92.0781 227.616 91.8892V91.8494C227.616 91.3589 227.482 90.9777 227.214 90.706C226.949 90.4342 226.546 90.2983 226.006 90.2983C225.446 90.2983 225.006 90.4209 224.688 90.6662C224.37 90.9115 224.146 91.1733 224.017 91.4517L222.903 91.054C223.102 90.59 223.367 90.2287 223.699 89.9702C224.034 89.7083 224.398 89.526 224.793 89.4233C225.19 89.3172 225.581 89.2642 225.966 89.2642C226.211 89.2642 226.493 89.294 226.811 89.3537C227.133 89.41 227.442 89.5277 227.741 89.7067C228.042 89.8857 228.293 90.1558 228.491 90.517C228.69 90.8783 228.79 91.3622 228.79 91.9688V97H227.616V95.9659H227.557C227.477 96.1316 227.345 96.3089 227.159 96.4979C226.973 96.6868 226.727 96.8475 226.418 96.9801C226.11 97.1127 225.734 97.179 225.29 97.179ZM225.469 96.125C225.933 96.125 226.324 96.0339 226.642 95.8516C226.964 95.6693 227.205 95.4339 227.368 95.1456C227.534 94.8572 227.616 94.554 227.616 94.2358V93.1619C227.567 93.2216 227.457 93.2763 227.288 93.326C227.123 93.3724 226.93 93.4138 226.712 93.4503C226.496 93.4834 226.286 93.5133 226.08 93.5398C225.878 93.563 225.714 93.5829 225.588 93.5994C225.283 93.6392 224.998 93.7038 224.733 93.7933C224.471 93.8795 224.259 94.0104 224.097 94.1861C223.938 94.3584 223.858 94.5937 223.858 94.892C223.858 95.2997 224.009 95.608 224.31 95.8168C224.615 96.0223 225.001 96.125 225.469 96.125ZM234.252 89.3636V90.358H230.295V89.3636H234.252ZM231.448 87.5341H232.622V94.8125C232.622 95.1439 232.67 95.3925 232.766 95.5582C232.865 95.7206 232.991 95.83 233.144 95.8864C233.299 95.9394 233.463 95.9659 233.636 95.9659C233.765 95.9659 233.871 95.9593 233.954 95.946C234.037 95.9295 234.103 95.9162 234.153 95.9062L234.392 96.9602C234.312 96.9901 234.201 97.0199 234.058 97.0497C233.916 97.0829 233.735 97.0994 233.517 97.0994C233.185 97.0994 232.86 97.0282 232.542 96.8857C232.227 96.7431 231.965 96.526 231.757 96.2344C231.551 95.9427 231.448 95.5748 231.448 95.1307V87.5341ZM239.137 97.1591C238.401 97.1591 237.766 96.9967 237.233 96.6719C236.702 96.3438 236.293 95.8864 236.005 95.2997C235.72 94.7098 235.577 94.0237 235.577 93.2415C235.577 92.4593 235.72 91.7699 236.005 91.1733C236.293 90.5734 236.694 90.1061 237.208 89.7713C237.725 89.4332 238.328 89.2642 239.018 89.2642C239.415 89.2642 239.808 89.3305 240.196 89.4631C240.584 89.5956 240.937 89.8111 241.255 90.1094C241.573 90.4044 241.827 90.7955 242.015 91.2827C242.204 91.7699 242.299 92.3698 242.299 93.0824V93.5795H236.412V92.5653H241.106C241.106 92.1345 241.019 91.75 240.847 91.4119C240.678 91.0739 240.436 90.8071 240.121 90.6115C239.81 90.416 239.442 90.3182 239.018 90.3182C238.55 90.3182 238.146 90.4342 237.805 90.6662C237.466 90.8949 237.206 91.1932 237.024 91.5611C236.842 91.929 236.751 92.3234 236.751 92.7443V93.4205C236.751 93.9972 236.85 94.486 237.049 94.8871C237.251 95.2848 237.531 95.5881 237.889 95.7969C238.247 96.0024 238.663 96.1051 239.137 96.1051C239.445 96.1051 239.724 96.062 239.972 95.9759C240.224 95.8864 240.441 95.7538 240.623 95.5781C240.806 95.3991 240.947 95.1771 241.046 94.9119L242.18 95.2301C242.06 95.6146 241.86 95.9527 241.578 96.2443C241.296 96.5327 240.948 96.758 240.534 96.9205C240.12 97.0795 239.654 97.1591 239.137 97.1591ZM201.176 114V103.818H204.736C205.445 103.818 206.03 103.941 206.491 104.186C206.952 104.428 207.295 104.754 207.52 105.165C207.745 105.573 207.858 106.026 207.858 106.523C207.858 106.96 207.78 107.321 207.624 107.607C207.472 107.892 207.27 108.117 207.018 108.283C206.769 108.448 206.499 108.571 206.208 108.651V108.75C206.519 108.77 206.832 108.879 207.147 109.078C207.462 109.277 207.726 109.562 207.938 109.933C208.15 110.304 208.256 110.759 208.256 111.295C208.256 111.806 208.14 112.265 207.908 112.673C207.676 113.08 207.31 113.403 206.809 113.642C206.309 113.881 205.657 114 204.855 114H201.176ZM202.409 112.906H204.855C205.661 112.906 206.232 112.75 206.57 112.439C206.912 112.124 207.083 111.743 207.083 111.295C207.083 110.951 206.995 110.633 206.819 110.341C206.643 110.046 206.393 109.811 206.068 109.635C205.744 109.456 205.359 109.366 204.915 109.366H202.409V112.906ZM202.409 108.293H204.696C205.067 108.293 205.402 108.22 205.7 108.074C206.002 107.928 206.241 107.723 206.416 107.457C206.595 107.192 206.685 106.881 206.685 106.523C206.685 106.075 206.529 105.696 206.218 105.384C205.906 105.069 205.412 104.912 204.736 104.912H202.409V108.293ZM212.37 114.179C211.886 114.179 211.447 114.088 211.052 113.906C210.658 113.72 210.345 113.453 210.113 113.105C209.881 112.754 209.765 112.33 209.765 111.832C209.765 111.395 209.851 111.04 210.023 110.768C210.196 110.493 210.426 110.278 210.714 110.122C211.003 109.966 211.321 109.85 211.669 109.774C212.02 109.695 212.373 109.632 212.728 109.585C213.192 109.526 213.568 109.481 213.856 109.451C214.148 109.418 214.36 109.363 214.493 109.287C214.629 109.211 214.697 109.078 214.697 108.889V108.849C214.697 108.359 214.562 107.978 214.294 107.706C214.029 107.434 213.626 107.298 213.086 107.298C212.526 107.298 212.086 107.421 211.768 107.666C211.45 107.911 211.226 108.173 211.097 108.452L209.983 108.054C210.182 107.59 210.448 107.229 210.779 106.97C211.114 106.708 211.478 106.526 211.873 106.423C212.27 106.317 212.662 106.264 213.046 106.264C213.291 106.264 213.573 106.294 213.891 106.354C214.213 106.41 214.523 106.528 214.821 106.707C215.122 106.886 215.373 107.156 215.572 107.517C215.77 107.878 215.87 108.362 215.87 108.969V114H214.697V112.966H214.637C214.557 113.132 214.425 113.309 214.239 113.498C214.054 113.687 213.807 113.848 213.498 113.98C213.19 114.113 212.814 114.179 212.37 114.179ZM212.549 113.125C213.013 113.125 213.404 113.034 213.722 112.852C214.044 112.669 214.286 112.434 214.448 112.146C214.614 111.857 214.697 111.554 214.697 111.236V110.162C214.647 110.222 214.537 110.276 214.368 110.326C214.203 110.372 214.01 110.414 213.792 110.45C213.576 110.483 213.366 110.513 213.16 110.54C212.958 110.563 212.794 110.583 212.668 110.599C212.363 110.639 212.078 110.704 211.813 110.793C211.551 110.879 211.339 111.01 211.177 111.186C211.018 111.358 210.938 111.594 210.938 111.892C210.938 112.3 211.089 112.608 211.39 112.817C211.695 113.022 212.081 113.125 212.549 113.125ZM219.185 109.406V114H218.011V106.364H219.145V107.557H219.244C219.423 107.169 219.695 106.857 220.06 106.622C220.424 106.384 220.895 106.264 221.472 106.264C221.989 106.264 222.441 106.37 222.829 106.582C223.217 106.791 223.518 107.109 223.734 107.537C223.949 107.961 224.057 108.498 224.057 109.148V114H222.884V109.227C222.884 108.627 222.728 108.16 222.416 107.825C222.105 107.487 221.677 107.318 221.134 107.318C220.759 107.318 220.424 107.399 220.129 107.562C219.838 107.724 219.607 107.961 219.438 108.273C219.269 108.584 219.185 108.962 219.185 109.406ZM227.295 111.216L227.275 109.764H227.513L230.854 106.364H232.306L228.746 109.963H228.647L227.295 111.216ZM226.201 114V103.818H227.374V114H226.201ZM231.053 114L228.07 110.222L228.905 109.406L232.545 114H231.053ZM239.225 108.074L238.171 108.372C238.105 108.196 238.007 108.026 237.878 107.86C237.752 107.691 237.58 107.552 237.361 107.442C237.142 107.333 236.862 107.278 236.521 107.278C236.053 107.278 235.664 107.386 235.352 107.602C235.044 107.814 234.89 108.084 234.89 108.412C234.89 108.704 234.996 108.934 235.208 109.103C235.42 109.272 235.752 109.413 236.202 109.526L237.336 109.804C238.019 109.97 238.527 110.223 238.862 110.565C239.197 110.903 239.364 111.339 239.364 111.872C239.364 112.31 239.238 112.701 238.987 113.045C238.738 113.39 238.39 113.662 237.942 113.861C237.495 114.06 236.975 114.159 236.381 114.159C235.603 114.159 234.958 113.99 234.447 113.652C233.937 113.314 233.614 112.82 233.478 112.17L234.592 111.892C234.698 112.303 234.898 112.611 235.193 112.817C235.491 113.022 235.881 113.125 236.362 113.125C236.908 113.125 237.343 113.009 237.664 112.777C237.989 112.542 238.151 112.26 238.151 111.932C238.151 111.667 238.058 111.445 237.873 111.266C237.687 111.083 237.402 110.947 237.018 110.858L235.745 110.56C235.046 110.394 234.532 110.137 234.204 109.789C233.879 109.438 233.717 108.999 233.717 108.472C233.717 108.041 233.838 107.66 234.08 107.328C234.325 106.997 234.658 106.737 235.079 106.548C235.503 106.359 235.984 106.264 236.521 106.264C237.276 106.264 237.87 106.43 238.3 106.761C238.735 107.093 239.043 107.53 239.225 108.074Z" fill="black"/>
</g>
<g filter="url(#filter6_dd_493_1574)">
<path d="M101.037 175.139C100.381 175.139 99.796 175.027 99.2823 174.801C98.7719 174.576 98.3659 174.263 98.0643 173.862C97.766 173.457 97.6036 172.988 97.5771 172.455H98.8299C98.8564 172.783 98.9691 173.066 99.168 173.305C99.3668 173.54 99.627 173.722 99.9485 173.852C100.27 173.981 100.626 174.045 101.017 174.045C101.455 174.045 101.843 173.969 102.181 173.817C102.519 173.664 102.784 173.452 102.976 173.18C103.168 172.909 103.265 172.594 103.265 172.236C103.265 171.861 103.172 171.531 102.986 171.246C102.801 170.958 102.529 170.733 102.171 170.57C101.813 170.408 101.375 170.327 100.858 170.327H100.043V169.233H100.858C101.263 169.233 101.617 169.16 101.922 169.014C102.23 168.868 102.471 168.663 102.643 168.398C102.819 168.133 102.907 167.821 102.907 167.463C102.907 167.118 102.83 166.818 102.678 166.563C102.525 166.308 102.31 166.109 102.032 165.967C101.757 165.824 101.432 165.753 101.057 165.753C100.706 165.753 100.374 165.817 100.063 165.947C99.7546 166.073 99.5027 166.257 99.3072 166.499C99.1116 166.737 99.0056 167.026 98.989 167.364H97.7958C97.8157 166.83 97.9764 166.363 98.2781 165.962C98.5797 165.557 98.9741 165.242 99.4613 165.017C99.9518 164.792 100.49 164.679 101.077 164.679C101.707 164.679 102.247 164.807 102.698 165.062C103.149 165.314 103.495 165.647 103.737 166.061C103.979 166.475 104.1 166.923 104.1 167.403C104.1 167.977 103.949 168.466 103.647 168.87C103.349 169.274 102.943 169.554 102.429 169.71V169.79C103.072 169.896 103.574 170.169 103.936 170.61C104.297 171.048 104.478 171.589 104.478 172.236C104.478 172.789 104.327 173.286 104.025 173.727C103.727 174.165 103.319 174.509 102.802 174.761C102.285 175.013 101.697 175.139 101.037 175.139Z" fill="black"/>
<path d="M88.9867 187.364C88.927 186.86 88.6851 186.469 88.2608 186.19C87.8366 185.912 87.3162 185.773 86.6998 185.773C86.249 185.773 85.8546 185.846 85.5165 185.991C85.1818 186.137 84.9199 186.338 84.731 186.593C84.5454 186.848 84.4526 187.138 84.4526 187.463C84.4526 187.735 84.5172 187.969 84.6465 188.164C84.7791 188.356 84.9481 188.517 85.1536 188.646C85.3591 188.772 85.5745 188.877 85.7999 188.96C86.0253 189.039 86.2324 189.104 86.4213 189.153L87.4554 189.432C87.7206 189.501 88.0156 189.598 88.3404 189.72C88.6685 189.843 88.9817 190.01 89.28 190.222C89.5816 190.431 89.8302 190.7 90.0257 191.028C90.2213 191.356 90.3191 191.759 90.3191 192.236C90.3191 192.786 90.1749 193.283 89.8865 193.727C89.6015 194.171 89.1839 194.524 88.6337 194.786C88.0868 195.048 87.4223 195.179 86.6401 195.179C85.9109 195.179 85.2795 195.061 84.7459 194.826C84.2156 194.591 83.798 194.263 83.4931 193.842C83.1915 193.421 83.0208 192.932 82.981 192.375H84.2537C84.2869 192.759 84.4161 193.078 84.6415 193.33C84.8702 193.578 85.1586 193.764 85.5066 193.886C85.8579 194.006 86.2357 194.065 86.6401 194.065C87.1107 194.065 87.5333 193.989 87.9078 193.837C88.2824 193.681 88.579 193.465 88.7978 193.19C89.0165 192.912 89.1259 192.587 89.1259 192.216C89.1259 191.878 89.0314 191.603 88.8425 191.391C88.6536 191.179 88.405 191.006 88.0968 190.874C87.7885 190.741 87.4554 190.625 87.0975 190.526L85.8446 190.168C85.0492 189.939 84.4194 189.612 83.9554 189.188C83.4914 188.764 83.2594 188.209 83.2594 187.523C83.2594 186.953 83.4135 186.455 83.7218 186.031C84.0333 185.604 84.4509 185.272 84.9746 185.037C85.5016 184.798 86.0899 184.679 86.7395 184.679C87.3958 184.679 87.9791 184.797 88.4895 185.032C88.9999 185.264 89.4043 185.582 89.7026 185.987C90.0042 186.391 90.1633 186.85 90.1799 187.364H88.9867ZM92.1871 195V187.364H93.3207V188.557H93.4201C93.5792 188.149 93.8361 187.833 94.1907 187.607C94.5453 187.379 94.9712 187.264 95.4684 187.264C95.9722 187.264 96.3915 187.379 96.7262 187.607C97.0643 187.833 97.3278 188.149 97.5167 188.557H97.5962C97.7918 188.162 98.0851 187.849 98.4762 187.617C98.8673 187.382 99.3363 187.264 99.8832 187.264C100.566 187.264 101.124 187.478 101.559 187.906C101.993 188.33 102.21 188.991 102.21 189.889V195H101.037V189.889C101.037 189.326 100.882 188.923 100.574 188.681C100.266 188.439 99.9031 188.318 99.4854 188.318C98.9485 188.318 98.5326 188.481 98.2376 188.805C97.9426 189.127 97.7951 189.535 97.7951 190.028V195H96.6019V189.77C96.6019 189.336 96.4611 188.986 96.1793 188.721C95.8976 188.452 95.5347 188.318 95.0906 188.318C94.7856 188.318 94.5006 188.399 94.2354 188.562C93.9736 188.724 93.7615 188.95 93.5991 189.238C93.44 189.523 93.3604 189.853 93.3604 190.227V195H92.1871ZM106.602 195.179C106.118 195.179 105.679 195.088 105.285 194.906C104.89 194.72 104.577 194.453 104.345 194.105C104.113 193.754 103.997 193.33 103.997 192.832C103.997 192.395 104.083 192.04 104.256 191.768C104.428 191.493 104.658 191.278 104.947 191.122C105.235 190.966 105.553 190.85 105.901 190.774C106.253 190.695 106.606 190.632 106.96 190.585C107.424 190.526 107.8 190.481 108.089 190.451C108.38 190.418 108.593 190.363 108.725 190.287C108.861 190.211 108.929 190.078 108.929 189.889V189.849C108.929 189.359 108.795 188.978 108.526 188.706C108.261 188.434 107.858 188.298 107.318 188.298C106.758 188.298 106.319 188.421 106.001 188.666C105.683 188.911 105.459 189.173 105.33 189.452L104.216 189.054C104.415 188.59 104.68 188.229 105.011 187.97C105.346 187.708 105.711 187.526 106.105 187.423C106.503 187.317 106.894 187.264 107.278 187.264C107.524 187.264 107.805 187.294 108.124 187.354C108.445 187.41 108.755 187.528 109.053 187.707C109.355 187.886 109.605 188.156 109.804 188.517C110.003 188.878 110.102 189.362 110.102 189.969V195H108.929V193.966H108.869C108.79 194.132 108.657 194.309 108.472 194.498C108.286 194.687 108.039 194.848 107.731 194.98C107.423 195.113 107.046 195.179 106.602 195.179ZM106.781 194.125C107.245 194.125 107.636 194.034 107.955 193.852C108.276 193.669 108.518 193.434 108.68 193.146C108.846 192.857 108.929 192.554 108.929 192.236V191.162C108.879 191.222 108.77 191.276 108.601 191.326C108.435 191.372 108.243 191.414 108.024 191.45C107.809 191.483 107.598 191.513 107.393 191.54C107.191 191.563 107.027 191.583 106.901 191.599C106.596 191.639 106.311 191.704 106.045 191.793C105.784 191.879 105.571 192.01 105.409 192.186C105.25 192.358 105.17 192.594 105.17 192.892C105.17 193.3 105.321 193.608 105.623 193.817C105.928 194.022 106.314 194.125 106.781 194.125ZM113.417 184.818V195H112.244V184.818H113.417ZM116.739 184.818V195H115.566V184.818H116.739ZM75.3453 212V201.818H81.4504V202.912H76.5782V206.352H80.993V207.446H76.5782V212H75.3453ZM83.403 212V204.364H84.5763V212H83.403ZM83.9996 203.091C83.7709 203.091 83.5737 203.013 83.4079 202.857C83.2455 202.701 83.1643 202.514 83.1643 202.295C83.1643 202.077 83.2455 201.889 83.4079 201.734C83.5737 201.578 83.7709 201.5 83.9996 201.5C84.2282 201.5 84.4238 201.578 84.5862 201.734C84.7519 201.889 84.8348 202.077 84.8348 202.295C84.8348 202.514 84.7519 202.701 84.5862 202.857C84.4238 203.013 84.2282 203.091 83.9996 203.091ZM87.8985 207.406V212H86.7252V204.364H87.8588V205.557H87.9582C88.1372 205.169 88.4089 204.857 88.7735 204.622C89.1381 204.384 89.6088 204.264 90.1855 204.264C90.7025 204.264 91.1549 204.37 91.5427 204.582C91.9305 204.791 92.2321 205.109 92.4475 205.537C92.663 205.961 92.7707 206.498 92.7707 207.148V212H91.5974V207.227C91.5974 206.627 91.4416 206.16 91.1301 205.825C90.8185 205.487 90.391 205.318 89.8474 205.318C89.4729 205.318 89.1381 205.399 88.8431 205.562C88.5515 205.724 88.3211 205.961 88.1521 206.273C87.983 206.584 87.8985 206.962 87.8985 207.406ZM97.1618 212.179C96.6779 212.179 96.2388 212.088 95.8444 211.906C95.45 211.72 95.1367 211.453 94.9047 211.105C94.6727 210.754 94.5567 210.33 94.5567 209.832C94.5567 209.395 94.6429 209.04 94.8153 208.768C94.9876 208.493 95.218 208.278 95.5063 208.122C95.7947 207.966 96.1128 207.85 96.4608 207.774C96.8122 207.695 97.1652 207.632 97.5198 207.585C97.9838 207.526 98.36 207.481 98.6483 207.451C98.94 207.418 99.1521 207.363 99.2847 207.287C99.4206 207.211 99.4885 207.078 99.4885 206.889V206.849C99.4885 206.359 99.3543 205.978 99.0858 205.706C98.8207 205.434 98.418 205.298 97.8778 205.298C97.3176 205.298 96.8785 205.421 96.5603 205.666C96.2421 205.911 96.0184 206.173 95.8891 206.452L94.7755 206.054C94.9743 205.59 95.2395 205.229 95.5709 204.97C95.9057 204.708 96.2703 204.526 96.6647 204.423C97.0624 204.317 97.4535 204.264 97.838 204.264C98.0832 204.264 98.365 204.294 98.6831 204.354C99.0046 204.41 99.3145 204.528 99.6128 204.707C99.9144 204.886 100.165 205.156 100.364 205.517C100.562 205.878 100.662 206.362 100.662 206.969V212H99.4885V210.966H99.4289C99.3493 211.132 99.2168 211.309 99.0312 211.498C98.8456 211.687 98.5986 211.848 98.2904 211.98C97.9822 212.113 97.606 212.179 97.1618 212.179ZM97.3408 211.125C97.8048 211.125 98.1959 211.034 98.5141 210.852C98.8356 210.669 99.0776 210.434 99.24 210.146C99.4057 209.857 99.4885 209.554 99.4885 209.236V208.162C99.4388 208.222 99.3295 208.276 99.1604 208.326C98.9947 208.372 98.8025 208.414 98.5837 208.45C98.3683 208.483 98.1578 208.513 97.9523 208.54C97.7501 208.563 97.5861 208.583 97.4601 208.599C97.1552 208.639 96.8702 208.704 96.605 208.793C96.3432 208.879 96.1311 209.01 95.9687 209.186C95.8096 209.358 95.73 209.594 95.73 209.892C95.73 210.3 95.8808 210.608 96.1824 210.817C96.4874 211.022 96.8735 211.125 97.3408 211.125ZM103.977 207.406V212H102.803V204.364H103.937V205.557H104.036C104.215 205.169 104.487 204.857 104.852 204.622C105.216 204.384 105.687 204.264 106.264 204.264C106.781 204.264 107.233 204.37 107.621 204.582C108.009 204.791 108.31 205.109 108.526 205.537C108.741 205.961 108.849 206.498 108.849 207.148V212H107.676V207.227C107.676 206.627 107.52 206.16 107.208 205.825C106.897 205.487 106.469 205.318 105.926 205.318C105.551 205.318 105.216 205.399 104.921 205.562C104.63 205.724 104.399 205.961 104.23 206.273C104.061 206.584 103.977 206.962 103.977 207.406ZM114.095 212.159C113.379 212.159 112.763 211.99 112.246 211.652C111.729 211.314 111.331 210.848 111.052 210.255C110.774 209.662 110.635 208.984 110.635 208.222C110.635 207.446 110.777 206.762 111.062 206.168C111.351 205.572 111.752 205.106 112.266 204.771C112.783 204.433 113.386 204.264 114.075 204.264C114.612 204.264 115.096 204.364 115.527 204.562C115.958 204.761 116.311 205.04 116.586 205.398C116.861 205.756 117.032 206.173 117.098 206.651H115.925C115.835 206.303 115.636 205.994 115.328 205.726C115.023 205.454 114.612 205.318 114.095 205.318C113.638 205.318 113.237 205.437 112.892 205.676C112.551 205.911 112.284 206.245 112.092 206.675C111.903 207.103 111.808 207.605 111.808 208.182C111.808 208.772 111.901 209.286 112.087 209.723C112.275 210.161 112.541 210.5 112.882 210.742C113.227 210.984 113.631 211.105 114.095 211.105C114.4 211.105 114.677 211.052 114.925 210.946C115.174 210.84 115.384 210.688 115.557 210.489C115.729 210.29 115.852 210.051 115.925 209.773H117.098C117.032 210.223 116.868 210.629 116.606 210.991C116.347 211.349 116.004 211.634 115.577 211.846C115.152 212.055 114.659 212.159 114.095 212.159ZM122.015 212.159C121.279 212.159 120.644 211.997 120.111 211.672C119.58 211.344 119.171 210.886 118.883 210.3C118.598 209.71 118.455 209.024 118.455 208.241C118.455 207.459 118.598 206.77 118.883 206.173C119.171 205.573 119.572 205.106 120.086 204.771C120.603 204.433 121.206 204.264 121.896 204.264C122.293 204.264 122.686 204.33 123.074 204.463C123.462 204.596 123.815 204.811 124.133 205.109C124.451 205.404 124.704 205.795 124.893 206.283C125.082 206.77 125.177 207.37 125.177 208.082V208.58H119.29V207.565H123.984C123.984 207.134 123.897 206.75 123.725 206.412C123.556 206.074 123.314 205.807 122.999 205.612C122.688 205.416 122.32 205.318 121.896 205.318C121.428 205.318 121.024 205.434 120.682 205.666C120.344 205.895 120.084 206.193 119.902 206.561C119.72 206.929 119.628 207.323 119.628 207.744V208.42C119.628 208.997 119.728 209.486 119.927 209.887C120.129 210.285 120.409 210.588 120.767 210.797C121.125 211.002 121.541 211.105 122.015 211.105C122.323 211.105 122.601 211.062 122.85 210.976C123.102 210.886 123.319 210.754 123.501 210.578C123.684 210.399 123.824 210.177 123.924 209.912L125.057 210.23C124.938 210.615 124.738 210.953 124.456 211.244C124.174 211.533 123.826 211.758 123.412 211.92C122.998 212.08 122.532 212.159 122.015 212.159Z" fill="black"/>
</g>
<g filter="url(#filter7_dd_493_1574)">
<path fill-rule="evenodd" clip-rule="evenodd" d="M217.406 175V164.818H216.173L213.627 166.509V167.761L216.113 166.111H216.173V175H217.406ZM222.462 174.901C222.879 175.053 223.297 175.133 223.715 175.139C224.401 175.146 224.997 174.997 225.504 174.692C226.015 174.384 226.411 173.969 226.692 173.449C226.974 172.925 227.115 172.348 227.115 171.719C227.115 171.062 226.969 170.481 226.678 169.974C226.386 169.463 225.998 169.064 225.514 168.776C225.03 168.484 224.497 168.338 223.913 168.338C223.565 168.338 223.236 168.393 222.924 168.502C222.612 168.611 222.327 168.767 222.069 168.969C221.814 169.168 221.593 169.409 221.408 169.69H221.328C221.331 168.451 221.558 167.488 222.009 166.802C222.463 166.116 223.085 165.773 223.874 165.773C224.411 165.773 224.841 165.924 225.166 166.225C225.491 166.527 225.71 166.906 225.822 167.364H227.036C226.953 166.837 226.77 166.371 226.489 165.967C226.207 165.562 225.842 165.247 225.395 165.022C224.951 164.793 224.444 164.679 223.874 164.679C223.3 164.679 222.785 164.803 222.327 165.052C221.873 165.3 221.486 165.665 221.164 166.146C220.843 166.623 220.597 167.211 220.428 167.91C220.259 168.607 220.175 169.405 220.175 170.307C220.175 171.248 220.279 172.03 220.488 172.653C220.697 173.273 220.974 173.765 221.318 174.13C221.663 174.491 222.044 174.748 222.462 174.901ZM224.838 173.732C224.507 173.941 224.132 174.045 223.715 174.045C223.29 174.045 222.911 173.938 222.576 173.722C222.245 173.507 221.983 173.223 221.791 172.872C221.602 172.521 221.507 172.143 221.507 171.739C221.507 171.434 221.565 171.144 221.681 170.869C221.797 170.59 221.956 170.343 222.158 170.128C222.364 169.912 222.603 169.743 222.874 169.621C223.146 169.495 223.439 169.432 223.754 169.432C224.172 169.432 224.543 169.535 224.868 169.74C225.196 169.946 225.453 170.222 225.639 170.57C225.827 170.915 225.922 171.298 225.922 171.719C225.922 172.15 225.824 172.541 225.629 172.892C225.436 173.243 225.173 173.523 224.838 173.732ZM210.283 203V192.818H209.07V200.832H208.97L203.402 192.818H202.209V203H203.442V195.006H203.541L209.09 203H210.283ZM212.75 192.818V203H216.429C217.231 203 217.882 202.881 218.383 202.642C218.883 202.403 219.25 202.08 219.482 201.673C219.714 201.265 219.83 200.806 219.83 200.295C219.83 199.758 219.723 199.304 219.511 198.933C219.299 198.562 219.036 198.277 218.721 198.078C218.406 197.879 218.093 197.77 217.781 197.75V197.651C218.073 197.571 218.343 197.448 218.592 197.283C218.844 197.117 219.046 196.892 219.198 196.607C219.354 196.321 219.432 195.96 219.432 195.523C219.432 195.026 219.319 194.573 219.094 194.165C218.868 193.754 218.525 193.428 218.065 193.186C217.604 192.941 217.019 192.818 216.31 192.818H212.75ZM216.429 201.906H213.983V198.366H216.489C216.933 198.366 217.317 198.456 217.642 198.635C217.967 198.811 218.217 199.046 218.393 199.341C218.568 199.633 218.656 199.951 218.656 200.295C218.656 200.743 218.486 201.124 218.144 201.439C217.806 201.75 217.234 201.906 216.429 201.906ZM216.27 197.293H213.983V193.912H216.31C216.986 193.912 217.48 194.069 217.791 194.384C218.103 194.696 218.259 195.075 218.259 195.523C218.259 195.881 218.169 196.192 217.99 196.457C217.814 196.723 217.576 196.928 217.274 197.074C216.976 197.22 216.641 197.293 216.27 197.293ZM221.855 192.818V203H223.088V198.446H227.503V197.352H223.088V193.912H227.961V192.818H221.855ZM237.032 196H238.265C238.173 195.476 238.004 195.011 237.758 194.603C237.513 194.192 237.208 193.844 236.844 193.559C236.479 193.271 236.07 193.052 235.616 192.903C235.165 192.754 234.683 192.679 234.169 192.679C233.3 192.679 232.528 192.891 231.852 193.315C231.176 193.74 230.644 194.343 230.256 195.125C229.868 195.907 229.675 196.835 229.675 197.909C229.675 198.983 229.868 199.911 230.256 200.693C230.644 201.475 231.176 202.079 231.852 202.503C232.528 202.927 233.3 203.139 234.169 203.139C234.683 203.139 235.165 203.065 235.616 202.915C236.07 202.766 236.479 202.549 236.844 202.264C237.208 201.976 237.513 201.626 237.758 201.215C238.004 200.804 238.173 200.339 238.265 199.818H237.032C236.96 200.169 236.832 200.481 236.65 200.753C236.471 201.021 236.252 201.248 235.993 201.434C235.738 201.616 235.455 201.754 235.143 201.847C234.832 201.939 234.507 201.986 234.169 201.986C233.552 201.986 232.994 201.83 232.493 201.518C231.996 201.207 231.6 200.748 231.305 200.141C231.014 199.535 230.868 198.791 230.868 197.909C230.868 197.027 231.014 196.283 231.305 195.677C231.6 195.07 231.996 194.611 232.493 194.3C232.994 193.988 233.552 193.832 234.169 193.832C234.507 193.832 234.832 193.879 235.143 193.972C235.455 194.064 235.738 194.204 235.993 194.389C236.252 194.571 236.471 194.797 236.65 195.065C236.832 195.334 236.96 195.645 237.032 196Z" fill="black"/>
</g>
<path d="M77.246 37.1392C76.5036 37.1392 75.8424 37.0116 75.2623 36.7564C74.6856 36.4979 74.2299 36.1432 73.8952 35.6925C73.5637 35.2384 73.393 34.7147 73.3831 34.1214H75.5507C75.564 34.37 75.6452 34.5888 75.7943 34.7777C75.9468 34.9633 76.1489 35.1075 76.4008 35.2102C76.6527 35.313 76.9361 35.3643 77.251 35.3643C77.5791 35.3643 77.8691 35.3063 78.121 35.1903C78.3729 35.0743 78.5701 34.9136 78.7126 34.7081C78.8551 34.5026 78.9264 34.2656 78.9264 33.9972C78.9264 33.7254 78.8502 33.4851 78.6977 33.2763C78.5486 33.0642 78.3331 32.8984 78.0514 32.7791C77.773 32.6598 77.4416 32.6001 77.0571 32.6001H76.1075V31.0192H77.0571C77.3819 31.0192 77.6686 30.9628 77.9172 30.8501C78.1691 30.7375 78.3646 30.5817 78.5038 30.3828C78.643 30.1806 78.7126 29.9453 78.7126 29.6768C78.7126 29.4216 78.6513 29.1979 78.5287 29.0057C78.4094 28.8101 78.2403 28.6577 78.0216 28.5483C77.8061 28.4389 77.5542 28.3842 77.2659 28.3842C76.9742 28.3842 76.7074 28.4373 76.4655 28.5433C76.2235 28.6461 76.0296 28.7936 75.8838 28.9858C75.738 29.178 75.6601 29.4034 75.6501 29.6619H73.5869C73.5969 29.0753 73.7642 28.5582 74.089 28.1108C74.4139 27.6634 74.8514 27.3137 75.4015 27.0618C75.955 26.8066 76.5798 26.679 77.2758 26.679C77.9785 26.679 78.5933 26.8066 79.1203 27.0618C79.6473 27.317 80.0566 27.6617 80.3483 28.0959C80.6433 28.5268 80.7891 29.0107 80.7858 29.5476C80.7891 30.1177 80.6118 30.5933 80.2538 30.9744C79.8992 31.3556 79.4368 31.5975 78.8667 31.7003V31.7798C79.6158 31.8759 80.1859 32.1361 80.577 32.5604C80.9714 32.9813 81.1669 33.5083 81.1636 34.1413C81.1669 34.7214 80.9996 35.2367 80.6615 35.6875C80.3267 36.1383 79.8644 36.4929 79.2744 36.7514C78.6845 37.0099 78.0083 37.1392 77.246 37.1392ZM86.7032 37.2237C85.8481 37.2204 85.1123 37.0099 84.4958 36.5923C83.8827 36.1747 83.4104 35.5698 83.0789 34.7777C82.7508 33.9856 82.5884 33.0327 82.5917 31.919C82.5917 30.8087 82.7558 29.8625 83.0839 29.0803C83.4153 28.2981 83.8876 27.7031 84.5008 27.2955C85.1173 26.8845 85.8514 26.679 86.7032 26.679C87.555 26.679 88.2875 26.8845 88.9007 27.2955C89.5171 27.7064 89.9911 28.303 90.3225 29.0852C90.654 29.8641 90.818 30.8087 90.8147 31.919C90.8147 33.036 90.649 33.9905 90.3176 34.7827C89.9894 35.5748 89.5188 36.1797 88.9056 36.5973C88.2925 37.0149 87.5583 37.2237 86.7032 37.2237ZM86.7032 35.4389C87.2865 35.4389 87.7522 35.1456 88.1002 34.5589C88.4482 33.9723 88.6206 33.0923 88.6173 31.919C88.6173 31.1468 88.5377 30.5038 88.3786 29.9901C88.2229 29.4763 88.0008 29.0902 87.7124 28.8317C87.4274 28.5732 87.091 28.4439 86.7032 28.4439C86.1232 28.4439 85.6592 28.7339 85.3112 29.3139C84.9632 29.8939 84.7875 30.7623 84.7842 31.919C84.7842 32.7012 84.8621 33.3542 85.0178 33.8778C85.1769 34.3982 85.4007 34.7893 85.689 35.0511C85.9774 35.3097 86.3154 35.4389 86.7032 35.4389ZM95.3923 35.4489V28.4091H97.1721V35.4489H95.3923ZM92.7623 32.8189V31.0391H99.8021V32.8189H92.7623ZM105.165 37V26.8182H111.907V28.593H107.318V31.0192H111.459V32.794H107.318V37H105.165ZM113.315 37V29.3636H115.433V37H113.315ZM114.379 28.3793C114.064 28.3793 113.794 28.2749 113.568 28.0661C113.346 27.8539 113.235 27.6004 113.235 27.3054C113.235 27.0137 113.346 26.7635 113.568 26.5547C113.794 26.3426 114.064 26.2365 114.379 26.2365C114.694 26.2365 114.962 26.3426 115.184 26.5547C115.41 26.7635 115.522 27.0137 115.522 27.3054C115.522 27.6004 115.41 27.8539 115.184 28.0661C114.962 28.2749 114.694 28.3793 114.379 28.3793ZM119.247 32.5852V37H117.129V29.3636H119.148V30.7109H119.237C119.406 30.2668 119.69 29.9155 120.087 29.657C120.485 29.3951 120.967 29.2642 121.534 29.2642C122.064 29.2642 122.527 29.3802 122.921 29.6122C123.316 29.8442 123.622 30.1757 123.841 30.6065C124.06 31.0341 124.169 31.5445 124.169 32.1378V37H122.051V32.5156C122.055 32.0483 121.935 31.6837 121.693 31.4219C121.451 31.1567 121.118 31.0241 120.694 31.0241C120.409 31.0241 120.157 31.0855 119.938 31.2081C119.723 31.3307 119.554 31.5097 119.431 31.745C119.312 31.977 119.251 32.2571 119.247 32.5852ZM128.016 37.1442C127.529 37.1442 127.094 37.0597 126.713 36.8906C126.332 36.7183 126.031 36.4647 125.809 36.13C125.59 35.7919 125.48 35.371 125.48 34.8672C125.48 34.4429 125.558 34.0866 125.714 33.7983C125.87 33.5099 126.082 33.2779 126.35 33.1023C126.619 32.9266 126.924 32.794 127.265 32.7045C127.61 32.6151 127.971 32.5521 128.349 32.5156C128.793 32.4692 129.151 32.4261 129.423 32.3864C129.695 32.3433 129.892 32.2803 130.014 32.1974C130.137 32.1146 130.198 31.992 130.198 31.8295V31.7997C130.198 31.4848 130.099 31.2412 129.9 31.0689C129.705 30.8965 129.426 30.8104 129.065 30.8104C128.684 30.8104 128.38 30.8949 128.155 31.0639C127.93 31.2296 127.781 31.4384 127.708 31.6903L125.749 31.5312C125.848 31.0672 126.044 30.6662 126.335 30.3281C126.627 29.9867 127.003 29.7249 127.464 29.5426C127.928 29.357 128.465 29.2642 129.075 29.2642C129.499 29.2642 129.905 29.3139 130.293 29.4134C130.684 29.5128 131.03 29.6669 131.332 29.8757C131.637 30.0845 131.877 30.353 132.053 30.6811C132.228 31.0059 132.316 31.3954 132.316 31.8494V37H130.308V35.9411H130.248C130.126 36.1797 129.961 36.3902 129.756 36.5724C129.55 36.7514 129.304 36.8923 129.015 36.995C128.727 37.0945 128.394 37.1442 128.016 37.1442ZM128.622 35.6825C128.934 35.6825 129.209 35.6212 129.448 35.4986C129.686 35.3726 129.874 35.2036 130.009 34.9915C130.145 34.7794 130.213 34.5391 130.213 34.2706V33.4602C130.147 33.5033 130.056 33.5431 129.94 33.5795C129.827 33.6127 129.7 33.6442 129.557 33.674C129.415 33.7005 129.272 33.7254 129.13 33.7486C128.987 33.7685 128.858 33.7867 128.742 33.8033C128.493 33.8397 128.276 33.8977 128.09 33.9773C127.905 34.0568 127.761 34.1645 127.658 34.3004C127.555 34.433 127.504 34.5987 127.504 34.7976C127.504 35.0859 127.608 35.3063 127.817 35.4588C128.029 35.608 128.298 35.6825 128.622 35.6825ZM136.077 32.5852V37H133.959V29.3636H135.978V30.7109H136.067C136.236 30.2668 136.52 29.9155 136.918 29.657C137.315 29.3951 137.797 29.2642 138.364 29.2642C138.895 29.2642 139.357 29.3802 139.751 29.6122C140.146 29.8442 140.452 30.1757 140.671 30.6065C140.89 31.0341 140.999 31.5445 140.999 32.1378V37H138.881V32.5156C138.885 32.0483 138.765 31.6837 138.523 31.4219C138.281 31.1567 137.948 31.0241 137.524 31.0241C137.239 31.0241 136.987 31.0855 136.768 31.2081C136.553 31.3307 136.384 31.5097 136.261 31.745C136.142 31.977 136.081 32.2571 136.077 32.5852ZM146.119 37.1491C145.336 37.1491 144.664 36.9834 144.1 36.652C143.54 36.3172 143.109 35.8532 142.808 35.2599C142.509 34.6667 142.36 33.9839 142.36 33.2116C142.36 32.4295 142.511 31.7434 142.813 31.1534C143.118 30.5601 143.55 30.0978 144.11 29.7663C144.67 29.4316 145.336 29.2642 146.109 29.2642C146.775 29.2642 147.358 29.3852 147.859 29.6271C148.359 29.8691 148.755 30.2088 149.047 30.6463C149.339 31.0838 149.499 31.5975 149.529 32.1875H147.531C147.474 31.8063 147.325 31.4998 147.083 31.2678C146.845 31.0324 146.531 30.9148 146.144 30.9148C145.815 30.9148 145.529 31.0043 145.283 31.1832C145.042 31.3589 144.853 31.6158 144.717 31.9538C144.581 32.2919 144.513 32.7012 144.513 33.1818C144.513 33.669 144.579 34.0833 144.712 34.4247C144.848 34.7661 145.038 35.0263 145.283 35.2053C145.529 35.3842 145.815 35.4737 146.144 35.4737C146.386 35.4737 146.603 35.424 146.795 35.3246C146.99 35.2251 147.151 35.081 147.277 34.892C147.406 34.6998 147.491 34.4695 147.531 34.201H149.529C149.496 34.7843 149.337 35.2981 149.052 35.7422C148.77 36.183 148.381 36.5277 147.884 36.7763C147.386 37.0249 146.798 37.1491 146.119 37.1491ZM150.885 37V29.3636H153.003V37H150.885ZM151.949 28.3793C151.634 28.3793 151.364 28.2749 151.139 28.0661C150.917 27.8539 150.806 27.6004 150.806 27.3054C150.806 27.0137 150.917 26.7635 151.139 26.5547C151.364 26.3426 151.634 26.2365 151.949 26.2365C152.264 26.2365 152.532 26.3426 152.755 26.5547C152.98 26.7635 153.093 27.0137 153.093 27.3054C153.093 27.6004 152.98 27.8539 152.755 28.0661C152.532 28.2749 152.264 28.3793 151.949 28.3793ZM156.877 37.1442C156.39 37.1442 155.956 37.0597 155.575 36.8906C155.194 36.7183 154.892 36.4647 154.67 36.13C154.451 35.7919 154.342 35.371 154.342 34.8672C154.342 34.4429 154.42 34.0866 154.575 33.7983C154.731 33.5099 154.943 33.2779 155.212 33.1023C155.48 32.9266 155.785 32.794 156.127 32.7045C156.471 32.6151 156.832 32.5521 157.21 32.5156C157.654 32.4692 158.012 32.4261 158.284 32.3864C158.556 32.3433 158.753 32.2803 158.876 32.1974C158.998 32.1146 159.06 31.992 159.06 31.8295V31.7997C159.06 31.4848 158.96 31.2412 158.761 31.0689C158.566 30.8965 158.287 30.8104 157.926 30.8104C157.545 30.8104 157.242 30.8949 157.016 31.0639C156.791 31.2296 156.642 31.4384 156.569 31.6903L154.61 31.5312C154.71 31.0672 154.905 30.6662 155.197 30.3281C155.488 29.9867 155.865 29.7249 156.325 29.5426C156.789 29.357 157.326 29.2642 157.936 29.2642C158.36 29.2642 158.766 29.3139 159.154 29.4134C159.545 29.5128 159.892 29.6669 160.193 29.8757C160.498 30.0845 160.738 30.353 160.914 30.6811C161.09 31.0059 161.178 31.3954 161.178 31.8494V37H159.169V35.9411H159.109C158.987 36.1797 158.823 36.3902 158.617 36.5724C158.412 36.7514 158.165 36.8923 157.877 36.995C157.588 37.0945 157.255 37.1442 156.877 37.1442ZM157.484 35.6825C157.795 35.6825 158.07 35.6212 158.309 35.4986C158.548 35.3726 158.735 35.2036 158.871 34.9915C159.007 34.7794 159.075 34.5391 159.075 34.2706V33.4602C159.008 33.5033 158.917 33.5431 158.801 33.5795C158.689 33.6127 158.561 33.6442 158.418 33.674C158.276 33.7005 158.133 33.7254 157.991 33.7486C157.848 33.7685 157.719 33.7867 157.603 33.8033C157.354 33.8397 157.137 33.8977 156.952 33.9773C156.766 34.0568 156.622 34.1645 156.519 34.3004C156.417 34.433 156.365 34.5987 156.365 34.7976C156.365 35.0859 156.47 35.3063 156.678 35.4588C156.89 35.608 157.159 35.6825 157.484 35.6825ZM164.939 26.8182V37H162.821V26.8182H164.939ZM172.068 26.8182V37H169.915V26.8182H172.068ZM175.917 32.5852V37H173.799V29.3636H175.818V30.7109H175.907C176.076 30.2668 176.36 29.9155 176.757 29.657C177.155 29.3951 177.637 29.2642 178.204 29.2642C178.734 29.2642 179.197 29.3802 179.591 29.6122C179.986 29.8442 180.292 30.1757 180.511 30.6065C180.73 31.0341 180.839 31.5445 180.839 32.1378V37H178.721V32.5156C178.724 32.0483 178.605 31.6837 178.363 31.4219C178.121 31.1567 177.788 31.0241 177.364 31.0241C177.079 31.0241 176.827 31.0855 176.608 31.2081C176.393 31.3307 176.224 31.5097 176.101 31.745C175.982 31.977 175.92 32.2571 175.917 32.5852ZM188.862 31.5412L186.923 31.6605C186.89 31.4948 186.819 31.3456 186.709 31.2131C186.6 31.0772 186.456 30.9695 186.277 30.8899C186.101 30.8071 185.891 30.7656 185.645 30.7656C185.317 30.7656 185.04 30.8352 184.815 30.9744C184.59 31.1103 184.477 31.2926 184.477 31.5213C184.477 31.7036 184.55 31.8577 184.696 31.9837C184.842 32.1096 185.092 32.2107 185.446 32.2869L186.829 32.5653C187.571 32.7178 188.124 32.9631 188.489 33.3011C188.854 33.6392 189.036 34.0833 189.036 34.6335C189.036 35.134 188.888 35.5732 188.593 35.951C188.302 36.3288 187.901 36.6238 187.39 36.8359C186.883 37.0447 186.298 37.1491 185.635 37.1491C184.624 37.1491 183.819 36.9387 183.219 36.5178C182.623 36.0935 182.273 35.5168 182.17 34.7876L184.253 34.6783C184.316 34.9865 184.469 35.2218 184.711 35.3842C184.953 35.5433 185.263 35.6229 185.64 35.6229C186.012 35.6229 186.31 35.5516 186.535 35.4091C186.764 35.2633 186.88 35.076 186.883 34.8473C186.88 34.6551 186.799 34.4976 186.64 34.375C186.481 34.2491 186.235 34.1529 185.904 34.0866L184.581 33.8232C183.836 33.674 183.281 33.4155 182.916 33.0476C182.555 32.6797 182.374 32.2107 182.374 31.6406C182.374 31.1501 182.507 30.7275 182.772 30.3729C183.04 30.0182 183.416 29.7448 183.9 29.5526C184.388 29.3603 184.958 29.2642 185.611 29.2642C186.575 29.2642 187.334 29.468 187.888 29.8757C188.444 30.2834 188.769 30.8385 188.862 31.5412ZM194.431 29.3636V30.9545H189.833V29.3636H194.431ZM190.877 27.5341H192.995V34.6534C192.995 34.849 193.024 35.0014 193.084 35.1108C193.144 35.2169 193.227 35.2914 193.333 35.3345C193.442 35.3776 193.568 35.3991 193.71 35.3991C193.81 35.3991 193.909 35.3909 194.009 35.3743C194.108 35.3544 194.184 35.3395 194.237 35.3295L194.571 36.9055C194.465 36.9387 194.315 36.9768 194.123 37.0199C193.931 37.0663 193.697 37.0945 193.422 37.1044C192.912 37.1243 192.464 37.0563 192.08 36.9006C191.699 36.7448 191.402 36.5028 191.19 36.1747C190.978 35.8466 190.873 35.4323 190.877 34.9318V27.5341ZM195.811 37V29.3636H197.929V37H195.811ZM196.875 28.3793C196.56 28.3793 196.29 28.2749 196.065 28.0661C195.842 27.8539 195.731 27.6004 195.731 27.3054C195.731 27.0137 195.842 26.7635 196.065 26.5547C196.29 26.3426 196.56 26.2365 196.875 26.2365C197.19 26.2365 197.458 26.3426 197.68 26.5547C197.906 26.7635 198.018 27.0137 198.018 27.3054C198.018 27.6004 197.906 27.8539 197.68 28.0661C197.458 28.2749 197.19 28.3793 196.875 28.3793ZM203.687 29.3636V30.9545H199.089V29.3636H203.687ZM200.133 27.5341H202.25V34.6534C202.25 34.849 202.28 35.0014 202.34 35.1108C202.4 35.2169 202.482 35.2914 202.589 35.3345C202.698 35.3776 202.824 35.3991 202.966 35.3991C203.066 35.3991 203.165 35.3909 203.265 35.3743C203.364 35.3544 203.44 35.3395 203.493 35.3295L203.826 36.9055C203.72 36.9387 203.571 36.9768 203.379 37.0199C203.187 37.0663 202.953 37.0945 202.678 37.1044C202.168 37.1243 201.72 37.0563 201.336 36.9006C200.955 36.7448 200.658 36.5028 200.446 36.1747C200.234 35.8466 200.129 35.4323 200.133 34.9318V27.5341ZM209.964 33.7486V29.3636H212.082V37H210.048V35.6129H209.969C209.796 36.0604 209.51 36.42 209.109 36.6918C208.711 36.9635 208.225 37.0994 207.652 37.0994C207.142 37.0994 206.693 36.9834 206.305 36.7514C205.917 36.5194 205.614 36.1896 205.395 35.7621C205.18 35.3345 205.07 34.8224 205.067 34.2259V29.3636H207.185V33.848C207.188 34.2988 207.309 34.6551 207.548 34.9169C207.786 35.1787 208.106 35.3097 208.507 35.3097C208.762 35.3097 209.001 35.2517 209.223 35.1357C209.445 35.0163 209.624 34.8407 209.76 34.6087C209.899 34.3767 209.967 34.09 209.964 33.7486ZM217.838 29.3636V30.9545H213.239V29.3636H217.838ZM214.283 27.5341H216.401V34.6534C216.401 34.849 216.431 35.0014 216.49 35.1108C216.55 35.2169 216.633 35.2914 216.739 35.3345C216.848 35.3776 216.974 35.3991 217.117 35.3991C217.216 35.3991 217.316 35.3909 217.415 35.3743C217.514 35.3544 217.591 35.3395 217.644 35.3295L217.977 36.9055C217.871 36.9387 217.722 36.9768 217.529 37.0199C217.337 37.0663 217.103 37.0945 216.828 37.1044C216.318 37.1243 215.871 37.0563 215.486 36.9006C215.105 36.7448 214.808 36.5028 214.596 36.1747C214.384 35.8466 214.28 35.4323 214.283 34.9318V27.5341ZM219.217 37V29.3636H221.335V37H219.217ZM220.281 28.3793C219.966 28.3793 219.696 28.2749 219.471 28.0661C219.249 27.8539 219.138 27.6004 219.138 27.3054C219.138 27.0137 219.249 26.7635 219.471 26.5547C219.696 26.3426 219.966 26.2365 220.281 26.2365C220.596 26.2365 220.864 26.3426 221.087 26.5547C221.312 26.7635 221.425 27.0137 221.425 27.3054C221.425 27.6004 221.312 27.8539 221.087 28.0661C220.864 28.2749 220.596 28.3793 220.281 28.3793ZM226.482 37.1491C225.71 37.1491 225.042 36.9851 224.478 36.657C223.918 36.3255 223.486 35.8648 223.181 35.2749C222.876 34.6816 222.723 33.9938 222.723 33.2116C222.723 32.4228 222.876 31.7334 223.181 31.1435C223.486 30.5502 223.918 30.0895 224.478 29.7614C225.042 29.4299 225.71 29.2642 226.482 29.2642C227.254 29.2642 227.92 29.4299 228.481 29.7614C229.044 30.0895 229.478 30.5502 229.783 31.1435C230.088 31.7334 230.241 32.4228 230.241 33.2116C230.241 33.9938 230.088 34.6816 229.783 35.2749C229.478 35.8648 229.044 36.3255 228.481 36.657C227.92 36.9851 227.254 37.1491 226.482 37.1491ZM226.492 35.5085C226.843 35.5085 227.137 35.4091 227.372 35.2102C227.607 35.008 227.785 34.733 227.904 34.3849C228.026 34.0369 228.088 33.6409 228.088 33.1967C228.088 32.7526 228.026 32.3565 227.904 32.0085C227.785 31.6605 227.607 31.3854 227.372 31.1832C227.137 30.9811 226.843 30.88 226.492 30.88C226.137 30.88 225.839 30.9811 225.597 31.1832C225.358 31.3854 225.178 31.6605 225.055 32.0085C224.936 32.3565 224.876 32.7526 224.876 33.1967C224.876 33.6409 224.936 34.0369 225.055 34.3849C225.178 34.733 225.358 35.008 225.597 35.2102C225.839 35.4091 226.137 35.5085 226.492 35.5085ZM233.736 32.5852V37H231.618V29.3636H233.636V30.7109H233.726C233.895 30.2668 234.178 29.9155 234.576 29.657C234.973 29.3951 235.456 29.2642 236.022 29.2642C236.553 29.2642 237.015 29.3802 237.41 29.6122C237.804 29.8442 238.111 30.1757 238.329 30.6065C238.548 31.0341 238.657 31.5445 238.657 32.1378V37H236.54V32.5156C236.543 32.0483 236.424 31.6837 236.182 31.4219C235.94 31.1567 235.607 31.0241 235.182 31.0241C234.897 31.0241 234.645 31.0855 234.427 31.2081C234.211 31.3307 234.042 31.5097 233.919 31.745C233.8 31.977 233.739 32.2571 233.736 32.5852ZM246.68 31.5412L244.741 31.6605C244.708 31.4948 244.637 31.3456 244.528 31.2131C244.418 31.0772 244.274 30.9695 244.095 30.8899C243.919 30.8071 243.709 30.7656 243.464 30.7656C243.136 30.7656 242.859 30.8352 242.633 30.9744C242.408 31.1103 242.295 31.2926 242.295 31.5213C242.295 31.7036 242.368 31.8577 242.514 31.9837C242.66 32.1096 242.91 32.2107 243.265 32.2869L244.647 32.5653C245.389 32.7178 245.943 32.9631 246.307 33.3011C246.672 33.6392 246.854 34.0833 246.854 34.6335C246.854 35.134 246.707 35.5732 246.412 35.951C246.12 36.3288 245.719 36.6238 245.209 36.8359C244.702 37.0447 244.117 37.1491 243.454 37.1491C242.443 37.1491 241.637 36.9387 241.038 36.5178C240.441 36.0935 240.091 35.5168 239.989 34.7876L242.072 34.6783C242.135 34.9865 242.287 35.2218 242.529 35.3842C242.771 35.5433 243.081 35.6229 243.459 35.6229C243.83 35.6229 244.128 35.5516 244.354 35.4091C244.582 35.2633 244.698 35.076 244.702 34.8473C244.698 34.6551 244.617 34.4976 244.458 34.375C244.299 34.2491 244.054 34.1529 243.722 34.0866L242.4 33.8232C241.654 33.674 241.099 33.4155 240.734 33.0476C240.373 32.6797 240.192 32.2107 240.192 31.6406C240.192 31.1501 240.325 30.7275 240.59 30.3729C240.859 30.0182 241.235 29.7448 241.719 29.5526C242.206 29.3603 242.776 29.2642 243.429 29.2642C244.393 29.2642 245.152 29.468 245.706 29.8757C246.263 30.2834 246.588 30.8385 246.68 31.5412Z" fill="#13044F"/>
<defs>
<filter id="filter0_d_493_1574" x="56" y="51" width="88" height="88" filterUnits="userSpaceOnUse" color-interpolation-filters="sRGB">
<feFlood flood-opacity="0" result="BackgroundImageFix"/>
<feColorMatrix in="SourceAlpha" type="matrix" values="0 0 0 0 0 0 0 0 0 0 0 0 0 0 0 0 0 0 127 0" result="hardAlpha"/>
<feOffset dy="4"/>
<feGaussianBlur stdDeviation="2"/>
<feComposite in2="hardAlpha" operator="out"/>
<feColorMatrix type="matrix" values="0 0 0 0 0 0 0 0 0 0 0 0 0 0 0 0 0 0 0.25 0"/>
<feBlend mode="normal" in2="BackgroundImageFix" result="effect1_dropShadow_493_1574"/>
<feBlend mode="normal" in="SourceGraphic" in2="effect1_dropShadow_493_1574" result="shape"/>
</filter>
<filter id="filter1_d_493_1574" x="56" y="146" width="88" height="88" filterUnits="userSpaceOnUse" color-interpolation-filters="sRGB">
<feFlood flood-opacity="0" result="BackgroundImageFix"/>
<feColorMatrix in="SourceAlpha" type="matrix" values="0 0 0 0 0 0 0 0 0 0 0 0 0 0 0 0 0 0 127 0" result="hardAlpha"/>
<feOffset dy="4"/>
<feGaussianBlur stdDeviation="2"/>
<feComposite in2="hardAlpha" operator="out"/>
<feColorMatrix type="matrix" values="0 0 0 0 0 0 0 0 0 0 0 0 0 0 0 0 0 0 0.25 0"/>
<feBlend mode="normal" in2="BackgroundImageFix" result="effect1_dropShadow_493_1574"/>
<feBlend mode="normal" in="SourceGraphic" in2="effect1_dropShadow_493_1574" result="shape"/>
</filter>
<filter id="filter2_d_493_1574" x="176" y="146" width="88" height="88" filterUnits="userSpaceOnUse" color-interpolation-filters="sRGB">
<feFlood flood-opacity="0" result="BackgroundImageFix"/>
<feColorMatrix in="SourceAlpha" type="matrix" values="0 0 0 0 0 0 0 0 0 0 0 0 0 0 0 0 0 0 127 0" result="hardAlpha"/>
<feOffset dy="4"/>
<feGaussianBlur stdDeviation="2"/>
<feComposite in2="hardAlpha" operator="out"/>
<feColorMatrix type="matrix" values="0 0 0 0 0 0 0 0 0 0 0 0 0 0 0 0 0 0 0.25 0"/>
<feBlend mode="normal" in2="BackgroundImageFix" result="effect1_dropShadow_493_1574"/>
<feBlend mode="normal" in="SourceGraphic" in2="effect1_dropShadow_493_1574" result="shape"/>
</filter>
<filter id="filter3_d_493_1574" x="176" y="51" width="88" height="88" filterUnits="userSpaceOnUse" color-interpolation-filters="sRGB">
<feFlood flood-opacity="0" result="BackgroundImageFix"/>
<feColorMatrix in="SourceAlpha" type="matrix" values="0 0 0 0 0 0 0 0 0 0 0 0 0 0 0 0 0 0 127 0" result="hardAlpha"/>
<feOffset dy="4"/>
<feGaussianBlur stdDeviation="2"/>
<feComposite in2="hardAlpha" operator="out"/>
<feColorMatrix type="matrix" values="0 0 0 0 0 0 0 0 0 0 0 0 0 0 0 0 0 0 0.25 0"/>
<feBlend mode="normal" in2="BackgroundImageFix" result="effect1_dropShadow_493_1574"/>
<feBlend mode="normal" in="SourceGraphic" in2="effect1_dropShadow_493_1574" result="shape"/>
</filter>
<filter id="filter4_dd_493_1574" x="63.8027" y="48.3391" width="76.702" height="88.8953" filterUnits="userSpaceOnUse" color-interpolation-filters="sRGB">
<feFlood flood-opacity="0" result="BackgroundImageFix"/>
<feColorMatrix in="SourceAlpha" type="matrix" values="0 0 0 0 0 0 0 0 0 0 0 0 0 0 0 0 0 0 127 0" result="hardAlpha"/>
<feOffset dx="2.47712" dy="2.47712"/>
<feGaussianBlur stdDeviation="9.2892"/>
<feColorMatrix type="matrix" values="0 0 0 0 0.6512 0 0 0 0 0.66896 0 0 0 0 0.74 0 0 0 0.5 0"/>
<feBlend mode="normal" in2="BackgroundImageFix" result="effect1_dropShadow_493_1574"/>
<feColorMatrix in="SourceAlpha" type="matrix" values="0 0 0 0 0 0 0 0 0 0 0 0 0 0 0 0 0 0 127 0" result="hardAlpha"/>
<feOffset dx="-1.23856" dy="-1.23856"/>
<feGaussianBlur stdDeviation="8.05064"/>
<feColorMatrix type="matrix" values="0 0 0 0 0.979167 0 0 0 0 0.983333 0 0 0 0 1 0 0 0 1 0"/>
<feBlend mode="normal" in2="effect1_dropShadow_493_1574" result="effect2_dropShadow_493_1574"/>
<feBlend mode="normal" in="SourceGraphic" in2="effect2_dropShadow_493_1574" result="shape"/>
</filter>
<filter id="filter5_dd_493_1574" x="180.883" y="48.3391" width="82.4715" height="86.8953" filterUnits="userSpaceOnUse" color-interpolation-filters="sRGB">
<feFlood flood-opacity="0" result="BackgroundImageFix"/>
<feColorMatrix in="SourceAlpha" type="matrix" values="0 0 0 0 0 0 0 0 0 0 0 0 0 0 0 0 0 0 127 0" result="hardAlpha"/>
<feOffset dx="2.47712" dy="2.47712"/>
<feGaussianBlur stdDeviation="9.2892"/>
<feColorMatrix type="matrix" values="0 0 0 0 0.6512 0 0 0 0 0.66896 0 0 0 0 0.74 0 0 0 0.5 0"/>
<feBlend mode="normal" in2="BackgroundImageFix" result="effect1_dropShadow_493_1574"/>
<feColorMatrix in="SourceAlpha" type="matrix" values="0 0 0 0 0 0 0 0 0 0 0 0 0 0 0 0 0 0 127 0" result="hardAlpha"/>
<feOffset dx="-1.23856" dy="-1.23856"/>
<feGaussianBlur stdDeviation="8.05064"/>
<feColorMatrix type="matrix" values="0 0 0 0 0.979167 0 0 0 0 0.983333 0 0 0 0 1 0 0 0 1 0"/>
<feBlend mode="normal" in2="effect1_dropShadow_493_1574" result="effect2_dropShadow_493_1574"/>
<feBlend mode="normal" in="SourceGraphic" in2="effect2_dropShadow_493_1574" result="shape"/>
</filter>
<filter id="filter6_dd_493_1574" x="58.0059" y="147.339" width="88.2254" height="85.8953" filterUnits="userSpaceOnUse" color-interpolation-filters="sRGB">
<feFlood flood-opacity="0" result="BackgroundImageFix"/>
<feColorMatrix in="SourceAlpha" type="matrix" values="0 0 0 0 0 0 0 0 0 0 0 0 0 0 0 0 0 0 127 0" result="hardAlpha"/>
<feOffset dx="2.47712" dy="2.47712"/>
<feGaussianBlur stdDeviation="9.2892"/>
<feColorMatrix type="matrix" values="0 0 0 0 0.6512 0 0 0 0 0.66896 0 0 0 0 0.74 0 0 0 0.5 0"/>
<feBlend mode="normal" in2="BackgroundImageFix" result="effect1_dropShadow_493_1574"/>
<feColorMatrix in="SourceAlpha" type="matrix" values="0 0 0 0 0 0 0 0 0 0 0 0 0 0 0 0 0 0 127 0" result="hardAlpha"/>
<feOffset dx="-1.23856" dy="-1.23856"/>
<feGaussianBlur stdDeviation="8.05064"/>
<feColorMatrix type="matrix" values="0 0 0 0 0.979167 0 0 0 0 0.983333 0 0 0 0 1 0 0 0 1 0"/>
<feBlend mode="normal" in2="effect1_dropShadow_493_1574" result="effect2_dropShadow_493_1574"/>
<feBlend mode="normal" in="SourceGraphic" in2="effect2_dropShadow_493_1574" result="shape"/>
</filter>
<filter id="filter7_dd_493_1574" x="184.869" y="147.339" width="74.452" height="76.8556" filterUnits="userSpaceOnUse" color-interpolation-filters="sRGB">
<feFlood flood-opacity="0" result="BackgroundImageFix"/>
<feColorMatrix in="SourceAlpha" type="matrix" values="0 0 0 0 0 0 0 0 0 0 0 0 0 0 0 0 0 0 127 0" result="hardAlpha"/>
<feOffset dx="2.47712" dy="2.47712"/>
<feGaussianBlur stdDeviation="9.2892"/>
<feColorMatrix type="matrix" values="0 0 0 0 0.6512 0 0 0 0 0.66896 0 0 0 0 0.74 0 0 0 0.5 0"/>
<feBlend mode="normal" in2="BackgroundImageFix" result="effect1_dropShadow_493_1574"/>
<feColorMatrix in="SourceAlpha" type="matrix" values="0 0 0 0 0 0 0 0 0 0 0 0 0 0 0 0 0 0 127 0" result="hardAlpha"/>
<feOffset dx="-1.23856" dy="-1.23856"/>
<feGaussianBlur stdDeviation="8.05064"/>
<feColorMatrix type="matrix" values="0 0 0 0 0.979167 0 0 0 0 0.983333 0 0 0 0 1 0 0 0 1 0"/>
<feBlend mode="normal" in2="effect1_dropShadow_493_1574" result="effect2_dropShadow_493_1574"/>
<feBlend mode="normal" in="SourceGraphic" in2="effect2_dropShadow_493_1574" result="shape"/>
</filter>
</defs>
</svg>
