<svg width="320" height="250" viewBox="0 0 320 250" fill="none" xmlns="http://www.w3.org/2000/svg">
<rect width="320" height="250" fill="white"/>
<g clip-path="url(#clip0_494_1575)">
<rect x="43" y="21" width="240" height="210" rx="20" fill="white"/>
<g filter="url(#filter0_d_494_1575)">
<rect x="63" y="51" width="80" height="80" rx="20" fill="white"/>
</g>
<g filter="url(#filter1_d_494_1575)">
<rect x="123" y="146" width="80" height="80" rx="20" fill="white"/>
</g>
<g filter="url(#filter2_d_494_1575)">
<rect x="185" y="51" width="80" height="80" rx="20" fill="white"/>
</g>
<path d="M86.5158 37H82.9064V26.8182H86.5456C87.5698 26.8182 88.4514 27.022 89.1905 27.4297C89.9296 27.834 90.498 28.4157 90.8958 29.1747C91.2968 29.9337 91.4973 30.8419 91.4973 31.8991C91.4973 32.9598 91.2968 33.8712 90.8958 34.6335C90.498 35.3958 89.9263 35.9808 89.1806 36.3885C88.4382 36.7962 87.5499 37 86.5158 37ZM85.0591 35.1555H86.4263C87.0627 35.1555 87.598 35.0429 88.0321 34.8175C88.4696 34.5888 88.7978 34.2358 89.0165 33.7585C89.2386 33.2779 89.3496 32.6581 89.3496 31.8991C89.3496 31.1468 89.2386 30.532 89.0165 30.0547C88.7978 29.5774 88.4713 29.2261 88.0371 29.0007C87.6029 28.7753 87.0676 28.6626 86.4313 28.6626H85.0591V35.1555ZM95.2298 37.1442C94.7425 37.1442 94.3084 37.0597 93.9272 36.8906C93.546 36.7183 93.2444 36.4647 93.0224 36.13C92.8036 35.7919 92.6942 35.371 92.6942 34.8672C92.6942 34.4429 92.7721 34.0866 92.9279 33.7983C93.0837 33.5099 93.2958 33.2779 93.5643 33.1023C93.8327 32.9266 94.1377 32.794 94.479 32.7045C94.8237 32.6151 95.185 32.5521 95.5629 32.5156C96.007 32.4692 96.3649 32.4261 96.6367 32.3864C96.9085 32.3433 97.1057 32.2803 97.2283 32.1974C97.351 32.1146 97.4123 31.992 97.4123 31.8295V31.7997C97.4123 31.4848 97.3129 31.2412 97.114 31.0689C96.9184 30.8965 96.64 30.8104 96.2788 30.8104C95.8976 30.8104 95.5943 30.8949 95.369 31.0639C95.1436 31.2296 94.9944 31.4384 94.9215 31.6903L92.9627 31.5312C93.0621 31.0672 93.2577 30.6662 93.5494 30.3281C93.841 29.9867 94.2172 29.7249 94.6779 29.5426C95.1419 29.357 95.6789 29.2642 96.2887 29.2642C96.7129 29.2642 97.119 29.3139 97.5067 29.4134C97.8978 29.5128 98.2442 29.6669 98.5458 29.8757C98.8507 30.0845 99.091 30.353 99.2667 30.6811C99.4424 31.0059 99.5302 31.3954 99.5302 31.8494V37H97.5217V35.9411H97.462C97.3394 36.1797 97.1753 36.3902 96.9698 36.5724C96.7643 36.7514 96.5174 36.8923 96.229 36.995C95.9407 37.0945 95.6076 37.1442 95.2298 37.1442ZM95.8363 35.6825C96.1478 35.6825 96.4229 35.6212 96.6616 35.4986C96.9002 35.3726 97.0875 35.2036 97.2234 34.9915C97.3593 34.7794 97.4272 34.5391 97.4272 34.2706V33.4602C97.3609 33.5033 97.2698 33.5431 97.1538 33.5795C97.0411 33.6127 96.9135 33.6442 96.771 33.674C96.6284 33.7005 96.4859 33.7254 96.3434 33.7486C96.2009 33.7685 96.0716 33.7867 95.9556 33.8033C95.707 33.8397 95.4899 33.8977 95.3043 33.9773C95.1187 34.0568 94.9746 34.1645 94.8718 34.3004C94.7691 34.433 94.7177 34.5987 94.7177 34.7976C94.7177 35.0859 94.8221 35.3063 95.0309 35.4588C95.243 35.608 95.5115 35.6825 95.8363 35.6825ZM105.235 29.3636V30.9545H100.636V29.3636H105.235ZM101.68 27.5341H103.798V34.6534C103.798 34.849 103.828 35.0014 103.888 35.1108C103.947 35.2169 104.03 35.2914 104.136 35.3345C104.246 35.3776 104.372 35.3991 104.514 35.3991C104.614 35.3991 104.713 35.3909 104.812 35.3743C104.912 35.3544 104.988 35.3395 105.041 35.3295L105.374 36.9055C105.268 36.9387 105.119 36.9768 104.927 37.0199C104.735 37.0663 104.501 37.0945 104.226 37.1044C103.715 37.1243 103.268 37.0563 102.884 36.9006C102.502 36.7448 102.206 36.5028 101.994 36.1747C101.781 35.8466 101.677 35.4323 101.68 34.9318V27.5341ZM108.792 37.1442C108.305 37.1442 107.871 37.0597 107.49 36.8906C107.109 36.7183 106.807 36.4647 106.585 36.13C106.366 35.7919 106.257 35.371 106.257 34.8672C106.257 34.4429 106.335 34.0866 106.49 33.7983C106.646 33.5099 106.858 33.2779 107.127 33.1023C107.395 32.9266 107.7 32.794 108.042 32.7045C108.386 32.6151 108.748 32.5521 109.125 32.5156C109.569 32.4692 109.927 32.4261 110.199 32.3864C110.471 32.3433 110.668 32.2803 110.791 32.1974C110.913 32.1146 110.975 31.992 110.975 31.8295V31.7997C110.975 31.4848 110.875 31.2412 110.676 31.0689C110.481 30.8965 110.203 30.8104 109.841 30.8104C109.46 30.8104 109.157 30.8949 108.931 31.0639C108.706 31.2296 108.557 31.4384 108.484 31.6903L106.525 31.5312C106.625 31.0672 106.82 30.6662 107.112 30.3281C107.404 29.9867 107.78 29.7249 108.24 29.5426C108.704 29.357 109.241 29.2642 109.851 29.2642C110.275 29.2642 110.681 29.3139 111.069 29.4134C111.46 29.5128 111.807 29.6669 112.108 29.8757C112.413 30.0845 112.654 30.353 112.829 30.6811C113.005 31.0059 113.093 31.3954 113.093 31.8494V37H111.084V35.9411H111.025C110.902 36.1797 110.738 36.3902 110.532 36.5724C110.327 36.7514 110.08 36.8923 109.792 36.995C109.503 37.0945 109.17 37.1442 108.792 37.1442ZM109.399 35.6825C109.71 35.6825 109.985 35.6212 110.224 35.4986C110.463 35.3726 110.65 35.2036 110.786 34.9915C110.922 34.7794 110.99 34.5391 110.99 34.2706V33.4602C110.923 33.5033 110.832 33.5431 110.716 33.5795C110.604 33.6127 110.476 33.6442 110.333 33.674C110.191 33.7005 110.048 33.7254 109.906 33.7486C109.763 33.7685 109.634 33.7867 109.518 33.8033C109.27 33.8397 109.052 33.8977 108.867 33.9773C108.681 34.0568 108.537 34.1645 108.434 34.3004C108.332 34.433 108.28 34.5987 108.28 34.7976C108.28 35.0859 108.385 35.3063 108.593 35.4588C108.806 35.608 109.074 35.6825 109.399 35.6825ZM122.083 29.3636V30.9545H117.369V29.3636H122.083ZM118.448 37V28.8118C118.448 28.2583 118.556 27.7992 118.771 27.4347C118.99 27.0701 119.289 26.7966 119.666 26.6143C120.044 26.4321 120.473 26.3409 120.954 26.3409C121.279 26.3409 121.575 26.3658 121.844 26.4155C122.116 26.4652 122.318 26.5099 122.45 26.5497L122.073 28.1406C121.99 28.1141 121.887 28.0893 121.764 28.0661C121.645 28.0429 121.522 28.0312 121.396 28.0312C121.085 28.0312 120.868 28.1042 120.745 28.25C120.623 28.3925 120.561 28.593 120.561 28.8516V37H118.448ZM123.376 37V29.3636H125.43V30.696H125.509C125.648 30.2221 125.882 29.8641 126.21 29.6222C126.538 29.3769 126.916 29.2543 127.344 29.2543C127.45 29.2543 127.564 29.2609 127.687 29.2741C127.809 29.2874 127.917 29.3056 128.01 29.3288V31.2081C127.911 31.1783 127.773 31.1518 127.597 31.1286C127.422 31.1054 127.261 31.0938 127.115 31.0938C126.804 31.0938 126.525 31.1617 126.28 31.2976C126.038 31.4302 125.846 31.6158 125.703 31.8544C125.564 32.093 125.494 32.3681 125.494 32.6797V37H123.376ZM132.2 37.1491C131.427 37.1491 130.76 36.9851 130.196 36.657C129.636 36.3255 129.204 35.8648 128.899 35.2749C128.594 34.6816 128.441 33.9938 128.441 33.2116C128.441 32.4228 128.594 31.7334 128.899 31.1435C129.204 30.5502 129.636 30.0895 130.196 29.7614C130.76 29.4299 131.427 29.2642 132.2 29.2642C132.972 29.2642 133.638 29.4299 134.198 29.7614C134.762 30.0895 135.196 30.5502 135.501 31.1435C135.806 31.7334 135.958 32.4228 135.958 33.2116C135.958 33.9938 135.806 34.6816 135.501 35.2749C135.196 35.8648 134.762 36.3255 134.198 36.657C133.638 36.9851 132.972 37.1491 132.2 37.1491ZM132.21 35.5085C132.561 35.5085 132.854 35.4091 133.09 35.2102C133.325 35.008 133.502 34.733 133.622 34.3849C133.744 34.0369 133.806 33.6409 133.806 33.1967C133.806 32.7526 133.744 32.3565 133.622 32.0085C133.502 31.6605 133.325 31.3854 133.09 31.1832C132.854 30.9811 132.561 30.88 132.21 30.88C131.855 30.88 131.557 30.9811 131.315 31.1832C131.076 31.3854 130.896 31.6605 130.773 32.0085C130.654 32.3565 130.594 32.7526 130.594 33.1967C130.594 33.6409 130.654 34.0369 130.773 34.3849C130.896 34.733 131.076 35.008 131.315 35.2102C131.557 35.4091 131.855 35.5085 132.21 35.5085ZM137.335 37V29.3636H139.354V30.7109H139.443C139.602 30.2635 139.868 29.9105 140.239 29.652C140.61 29.3935 141.054 29.2642 141.571 29.2642C142.095 29.2642 142.541 29.3951 142.909 29.657C143.276 29.9155 143.522 30.2668 143.644 30.7109H143.724C143.88 30.2734 144.161 29.9238 144.569 29.6619C144.98 29.3968 145.466 29.2642 146.026 29.2642C146.738 29.2642 147.317 29.4912 147.761 29.9453C148.208 30.3961 148.432 31.0357 148.432 31.8643V37H146.319V32.282C146.319 31.8577 146.206 31.5395 145.981 31.3274C145.756 31.1153 145.474 31.0092 145.136 31.0092C144.751 31.0092 144.451 31.1319 144.236 31.3771C144.021 31.6191 143.913 31.9389 143.913 32.3366V37H141.86V32.2372C141.86 31.8627 141.752 31.5644 141.536 31.3423C141.324 31.1203 141.044 31.0092 140.696 31.0092C140.461 31.0092 140.249 31.0689 140.06 31.1882C139.874 31.3042 139.727 31.4683 139.617 31.6804C139.508 31.8892 139.453 32.1345 139.453 32.4162V37H137.335ZM153.728 37L157.949 28.6477V28.5781H153.032V26.8182H160.176V28.603L155.95 37H153.728ZM167.725 37.1243C167.145 37.1243 166.62 36.9751 166.15 36.6768C165.682 36.3752 165.311 35.9328 165.036 35.3494C164.764 34.7628 164.628 34.0436 164.628 33.1918C164.628 32.3168 164.769 31.5893 165.051 31.0092C165.333 30.4259 165.707 29.9901 166.174 29.7017C166.645 29.41 167.16 29.2642 167.721 29.2642C168.148 29.2642 168.504 29.3371 168.789 29.483C169.078 29.6255 169.31 29.8045 169.485 30.0199C169.664 30.232 169.8 30.4408 169.893 30.6463H169.958V26.8182H172.071V37H169.983V35.777H169.893C169.794 35.9891 169.653 36.1996 169.471 36.4084C169.292 36.6139 169.058 36.7846 168.77 36.9205C168.484 37.0563 168.136 37.1243 167.725 37.1243ZM168.397 35.4389C168.738 35.4389 169.026 35.3461 169.262 35.1605C169.5 34.9716 169.683 34.7081 169.809 34.37C169.938 34.032 170.002 33.6359 170.002 33.1818C170.002 32.7277 169.94 32.3333 169.814 31.9986C169.688 31.6638 169.505 31.4053 169.267 31.223C169.028 31.0407 168.738 30.9496 168.397 30.9496C168.049 30.9496 167.755 31.044 167.517 31.233C167.278 31.4219 167.097 31.6837 166.975 32.0185C166.852 32.3532 166.791 32.741 166.791 33.1818C166.791 33.6259 166.852 34.0187 166.975 34.3601C167.101 34.6982 167.281 34.9633 167.517 35.1555C167.755 35.3445 168.049 35.4389 168.397 35.4389ZM175.99 37.1442C175.502 37.1442 175.068 37.0597 174.687 36.8906C174.306 36.7183 174.004 36.4647 173.782 36.13C173.563 35.7919 173.454 35.371 173.454 34.8672C173.454 34.4429 173.532 34.0866 173.688 33.7983C173.843 33.5099 174.056 33.2779 174.324 33.1023C174.593 32.9266 174.897 32.794 175.239 32.7045C175.584 32.6151 175.945 32.5521 176.323 32.5156C176.767 32.4692 177.125 32.4261 177.396 32.3864C177.668 32.3433 177.865 32.2803 177.988 32.1974C178.111 32.1146 178.172 31.992 178.172 31.8295V31.7997C178.172 31.4848 178.073 31.2412 177.874 31.0689C177.678 30.8965 177.4 30.8104 177.039 30.8104C176.657 30.8104 176.354 30.8949 176.129 31.0639C175.903 31.2296 175.754 31.4384 175.681 31.6903L173.722 31.5312C173.822 31.0672 174.017 30.6662 174.309 30.3281C174.601 29.9867 174.977 29.7249 175.438 29.5426C175.902 29.357 176.439 29.2642 177.048 29.2642C177.473 29.2642 177.879 29.3139 178.267 29.4134C178.658 29.5128 179.004 29.6669 179.306 29.8757C179.61 30.0845 179.851 30.353 180.026 30.6811C180.202 31.0059 180.29 31.3954 180.29 31.8494V37H178.281V35.9411H178.222C178.099 36.1797 177.935 36.3902 177.73 36.5724C177.524 36.7514 177.277 36.8923 176.989 36.995C176.7 37.0945 176.367 37.1442 175.99 37.1442ZM176.596 35.6825C176.908 35.6825 177.183 35.6212 177.421 35.4986C177.66 35.3726 177.847 35.2036 177.983 34.9915C178.119 34.7794 178.187 34.5391 178.187 34.2706V33.4602C178.121 33.5033 178.03 33.5431 177.914 33.5795C177.801 33.6127 177.673 33.6442 177.531 33.674C177.388 33.7005 177.246 33.7254 177.103 33.7486C176.961 33.7685 176.831 33.7867 176.715 33.8033C176.467 33.8397 176.25 33.8977 176.064 33.9773C175.878 34.0568 175.734 34.1645 175.632 34.3004C175.529 34.433 175.477 34.5987 175.477 34.7976C175.477 35.0859 175.582 35.3063 175.791 35.4588C176.003 35.608 176.271 35.6825 176.596 35.6825ZM182.967 39.8636C182.699 39.8636 182.447 39.8421 182.211 39.799C181.979 39.7592 181.787 39.7079 181.635 39.6449L182.112 38.0639C182.361 38.1402 182.584 38.1816 182.783 38.1882C182.985 38.1948 183.159 38.1484 183.305 38.049C183.454 37.9496 183.575 37.7805 183.668 37.5419L183.792 37.2188L181.053 29.3636H183.28L184.861 34.9716H184.941L186.537 29.3636H188.779L185.811 37.8253C185.668 38.2363 185.474 38.5942 185.229 38.8991C184.987 39.2074 184.681 39.4444 184.309 39.6101C183.938 39.7791 183.491 39.8636 182.967 39.8636ZM196.216 31.5412L194.278 31.6605C194.244 31.4948 194.173 31.3456 194.064 31.2131C193.954 31.0772 193.81 30.9695 193.631 30.8899C193.456 30.8071 193.245 30.7656 193 30.7656C192.672 30.7656 192.395 30.8352 192.17 30.9744C191.944 31.1103 191.831 31.2926 191.831 31.5213C191.831 31.7036 191.904 31.8577 192.05 31.9837C192.196 32.1096 192.446 32.2107 192.801 32.2869L194.183 32.5653C194.925 32.7178 195.479 32.9631 195.844 33.3011C196.208 33.6392 196.39 34.0833 196.39 34.6335C196.39 35.134 196.243 35.5732 195.948 35.951C195.656 36.3288 195.255 36.6238 194.745 36.8359C194.238 37.0447 193.653 37.1491 192.99 37.1491C191.979 37.1491 191.174 36.9387 190.574 36.5178C189.977 36.0935 189.627 35.5168 189.525 34.7876L191.608 34.6783C191.671 34.9865 191.823 35.2218 192.065 35.3842C192.307 35.5433 192.617 35.6229 192.995 35.6229C193.366 35.6229 193.664 35.5516 193.89 35.4091C194.118 35.2633 194.234 35.076 194.238 34.8473C194.234 34.6551 194.153 34.4976 193.994 34.375C193.835 34.2491 193.59 34.1529 193.258 34.0866L191.936 33.8232C191.19 33.674 190.635 33.4155 190.27 33.0476C189.909 32.6797 189.729 32.2107 189.729 31.6406C189.729 31.1501 189.861 30.7275 190.126 30.3729C190.395 30.0182 190.771 29.7448 191.255 29.5526C191.742 29.3603 192.312 29.2642 192.965 29.2642C193.93 29.2642 194.689 29.468 195.242 29.8757C195.799 30.2834 196.124 30.8385 196.216 31.5412ZM205.722 31.0689V32.7493H201.079V31.0689H205.722ZM214.466 37.1392C213.763 37.1392 213.137 37.0099 212.587 36.7514C212.04 36.4929 211.606 36.1366 211.284 35.6825C210.963 35.2285 210.795 34.7081 210.782 34.1214H212.87C212.893 34.5159 213.059 34.8357 213.367 35.081C213.675 35.3262 214.042 35.4489 214.466 35.4489C214.804 35.4489 215.102 35.3743 215.361 35.2251C215.623 35.0727 215.826 34.8622 215.972 34.5938C216.121 34.322 216.196 34.0104 216.196 33.6591C216.196 33.3011 216.12 32.9863 215.967 32.7145C215.818 32.4427 215.611 32.2306 215.346 32.0781C215.081 31.9257 214.777 31.8478 214.436 31.8445C214.138 31.8445 213.848 31.9058 213.566 32.0284C213.288 32.151 213.071 32.3184 212.915 32.5305L211.001 32.1875L211.483 26.8182H217.707V28.5781H213.258L212.994 31.1286H213.054C213.233 30.8767 213.503 30.6679 213.864 30.5021C214.226 30.3364 214.63 30.2536 215.077 30.2536C215.691 30.2536 216.237 30.3977 216.718 30.6861C217.199 30.9744 217.578 31.3705 217.857 31.8743C218.135 32.3748 218.272 32.9515 218.269 33.6044C218.272 34.2905 218.113 34.9003 217.792 35.4339C217.474 35.9643 217.028 36.3819 216.455 36.6868C215.884 36.9884 215.222 37.1392 214.466 37.1392ZM224.338 39.8636C224.07 39.8636 223.818 39.8421 223.583 39.799C223.351 39.7592 223.158 39.7079 223.006 39.6449L223.483 38.0639C223.732 38.1402 223.955 38.1816 224.154 38.1882C224.356 38.1948 224.53 38.1484 224.676 38.049C224.825 37.9496 224.946 37.7805 225.039 37.5419L225.164 37.2188L222.424 29.3636H224.651L226.232 34.9716H226.312L227.908 29.3636H230.15L227.182 37.8253C227.039 38.2363 226.846 38.5942 226.6 38.8991C226.358 39.2074 226.052 39.4444 225.681 39.6101C225.309 39.7791 224.862 39.8636 224.338 39.8636ZM231.234 37V29.3636H233.287V30.696H233.367C233.506 30.2221 233.74 29.8641 234.068 29.6222C234.396 29.3769 234.774 29.2543 235.201 29.2543C235.307 29.2543 235.422 29.2609 235.544 29.2741C235.667 29.2874 235.775 29.3056 235.867 29.3288V31.2081C235.768 31.1783 235.63 31.1518 235.455 31.1286C235.279 31.1054 235.118 31.0938 234.972 31.0938C234.661 31.0938 234.383 31.1617 234.137 31.2976C233.895 31.4302 233.703 31.6158 233.561 31.8544C233.421 32.093 233.352 32.3681 233.352 32.6797V37H231.234ZM243.316 31.5412L241.377 31.6605C241.344 31.4948 241.273 31.3456 241.163 31.2131C241.054 31.0772 240.91 30.9695 240.731 30.8899C240.555 30.8071 240.345 30.7656 240.099 30.7656C239.771 30.7656 239.495 30.8352 239.269 30.9744C239.044 31.1103 238.931 31.2926 238.931 31.5213C238.931 31.7036 239.004 31.8577 239.15 31.9837C239.296 32.1096 239.546 32.2107 239.901 32.2869L241.283 32.5653C242.025 32.7178 242.579 32.9631 242.943 33.3011C243.308 33.6392 243.49 34.0833 243.49 34.6335C243.49 35.134 243.343 35.5732 243.048 35.951C242.756 36.3288 242.355 36.6238 241.844 36.8359C241.337 37.0447 240.752 37.1491 240.089 37.1491C239.079 37.1491 238.273 36.9387 237.673 36.5178C237.077 36.0935 236.727 35.5168 236.624 34.7876L238.707 34.6783C238.77 34.9865 238.923 35.2218 239.165 35.3842C239.407 35.5433 239.717 35.6229 240.094 35.6229C240.466 35.6229 240.764 35.5516 240.989 35.4091C241.218 35.2633 241.334 35.076 241.337 34.8473C241.334 34.6551 241.253 34.4976 241.094 34.375C240.935 34.2491 240.689 34.1529 240.358 34.0866L239.036 33.8232C238.29 33.674 237.735 33.4155 237.37 33.0476C237.009 32.6797 236.828 32.2107 236.828 31.6406C236.828 31.1501 236.961 30.7275 237.226 30.3729C237.494 30.0182 237.871 29.7448 238.354 29.5526C238.842 29.3603 239.412 29.2642 240.065 29.2642C241.029 29.2642 241.788 29.468 242.342 29.8757C242.898 30.2834 243.223 30.8385 243.316 31.5412Z" fill="#13044F"/>
<g filter="url(#filter3_dd_494_1575)">
<path d="M86.4452 72.9119V71.8977L90.9197 64.8182H91.6555V66.3892H91.1583L87.7776 71.7386V71.8182H93.8032V72.9119H86.4452ZM91.2378 75V72.6037V72.1314V64.8182H92.4111V75H91.2378ZM95.9845 75L100.538 65.9915V65.9119H95.2884V64.8182H101.811V65.9716L97.2771 75H95.9845ZM106.767 75.1392C106.018 75.1392 105.38 74.9354 104.853 74.5277C104.326 74.1167 103.923 73.5218 103.644 72.7429C103.366 71.9607 103.227 71.0161 103.227 69.9091C103.227 68.8087 103.366 67.8691 103.644 67.0902C103.926 66.308 104.331 65.7114 104.858 65.3004C105.388 64.8861 106.024 64.679 106.767 64.679C107.509 64.679 108.144 64.8861 108.671 65.3004C109.201 65.7114 109.605 66.308 109.884 67.0902C110.166 67.8691 110.306 68.8087 110.306 69.9091C110.306 71.0161 110.167 71.9607 109.889 72.7429C109.61 73.5218 109.208 74.1167 108.681 74.5277C108.154 74.9354 107.516 75.1392 106.767 75.1392ZM106.767 74.0455C107.509 74.0455 108.086 73.6875 108.497 72.9716C108.908 72.2557 109.113 71.2348 109.113 69.9091C109.113 69.0275 109.019 68.2768 108.83 67.657C108.644 67.0372 108.376 66.5649 108.024 66.2401C107.676 65.9152 107.257 65.7528 106.767 65.7528C106.031 65.7528 105.456 66.1158 105.041 66.8416C104.627 67.5642 104.42 68.5866 104.42 69.9091C104.42 70.7907 104.513 71.5398 104.698 72.1562C104.884 72.7727 105.151 73.2417 105.499 73.5632C105.85 73.8847 106.273 74.0455 106.767 74.0455ZM115.198 73.2102V66.6477H116.312V73.2102H115.198ZM112.474 70.4858V69.3722H119.036V70.4858H112.474Z" fill="black"/>
<path d="M78.3254 83.8182V94H77.0924V83.8182H78.3254ZM81.8117 89.4062V94H80.6384V86.3636H81.7719V87.5568H81.8714C82.0503 87.169 82.3221 86.8575 82.6867 86.6222C83.0513 86.3835 83.5219 86.2642 84.0986 86.2642C84.6157 86.2642 85.0681 86.3703 85.4559 86.5824C85.8437 86.7912 86.1453 87.1094 86.3607 87.5369C86.5761 87.9612 86.6839 88.4981 86.6839 89.1477V94H85.5106V89.2273C85.5106 88.6274 85.3548 88.16 85.0432 87.8253C84.7317 87.4872 84.3041 87.3182 83.7606 87.3182C83.386 87.3182 83.0513 87.3994 82.7563 87.5618C82.4646 87.7242 82.2343 87.9612 82.0652 88.2727C81.8962 88.5843 81.8117 88.9621 81.8117 89.4062ZM92.1489 86.3636V87.358H88.1915V86.3636H92.1489ZM89.3449 84.5341H90.5182V91.8125C90.5182 92.1439 90.5662 92.3925 90.6624 92.5582C90.7618 92.7206 90.8877 92.83 91.0402 92.8864C91.196 92.9394 91.36 92.9659 91.5324 92.9659C91.6617 92.9659 91.7677 92.9593 91.8506 92.946C91.9334 92.9295 91.9997 92.9162 92.0494 92.9062L92.2881 93.9602C92.2085 93.9901 92.0975 94.0199 91.955 94.0497C91.8125 94.0829 91.6318 94.0994 91.4131 94.0994C91.0816 94.0994 90.7568 94.0282 90.4386 93.8857C90.1238 93.7431 89.8619 93.526 89.6531 93.2344C89.4476 92.9427 89.3449 92.5748 89.3449 92.1307V84.5341ZM97.0335 94.1591C96.2977 94.1591 95.663 93.9967 95.1293 93.6719C94.599 93.3438 94.1897 92.8864 93.9014 92.2997C93.6163 91.7098 93.4738 91.0237 93.4738 90.2415C93.4738 89.4593 93.6163 88.7699 93.9014 88.1733C94.1897 87.5734 94.5908 87.1061 95.1045 86.7713C95.6215 86.4332 96.2247 86.2642 96.9141 86.2642C97.3119 86.2642 97.7046 86.3305 98.0924 86.4631C98.4802 86.5956 98.8332 86.8111 99.1514 87.1094C99.4695 87.4044 99.7231 87.7955 99.912 88.2827C100.101 88.7699 100.195 89.3698 100.195 90.0824V90.5795H94.309V89.5653H99.0022C99.0022 89.1345 98.916 88.75 98.7437 88.4119C98.5747 88.0739 98.3327 87.8071 98.0178 87.6115C97.7063 87.416 97.3384 87.3182 96.9141 87.3182C96.4468 87.3182 96.0425 87.4342 95.7011 87.6662C95.363 87.8949 95.1028 88.1932 94.9205 88.5611C94.7382 88.929 94.6471 89.3234 94.6471 89.7443V90.4205C94.6471 90.9972 94.7465 91.486 94.9454 91.8871C95.1476 92.2848 95.4276 92.5881 95.7856 92.7969C96.1435 93.0024 96.5595 93.1051 97.0335 93.1051C97.3417 93.1051 97.6201 93.062 97.8687 92.9759C98.1206 92.8864 98.3377 92.7538 98.52 92.5781C98.7023 92.3991 98.8431 92.1771 98.9426 91.9119L100.076 92.2301C99.9568 92.6146 99.7562 92.9527 99.4745 93.2443C99.1928 93.5327 98.8448 93.758 98.4305 93.9205C98.0162 94.0795 97.5505 94.1591 97.0335 94.1591ZM101.98 94V86.3636H103.114V87.517H103.193C103.332 87.1392 103.584 86.8326 103.949 86.5973C104.314 86.362 104.725 86.2443 105.182 86.2443C105.268 86.2443 105.376 86.246 105.505 86.2493C105.634 86.2526 105.732 86.2576 105.798 86.2642V87.4574C105.759 87.4474 105.667 87.4325 105.525 87.4126C105.386 87.3894 105.238 87.3778 105.082 87.3778C104.711 87.3778 104.38 87.4557 104.088 87.6115C103.8 87.764 103.571 87.9761 103.402 88.2479C103.236 88.5163 103.153 88.8229 103.153 89.1676V94H101.98ZM110.158 94.1591C109.423 94.1591 108.788 93.9967 108.254 93.6719C107.724 93.3438 107.315 92.8864 107.026 92.2997C106.741 91.7098 106.599 91.0237 106.599 90.2415C106.599 89.4593 106.741 88.7699 107.026 88.1733C107.315 87.5734 107.716 87.1061 108.229 86.7713C108.747 86.4332 109.35 86.2642 110.039 86.2642C110.437 86.2642 110.83 86.3305 111.217 86.4631C111.605 86.5956 111.958 86.8111 112.276 87.1094C112.595 87.4044 112.848 87.7955 113.037 88.2827C113.226 88.7699 113.32 89.3698 113.32 90.0824V90.5795H107.434V89.5653H112.127C112.127 89.1345 112.041 88.75 111.869 88.4119C111.7 88.0739 111.458 87.8071 111.143 87.6115C110.831 87.416 110.463 87.3182 110.039 87.3182C109.572 87.3182 109.167 87.4342 108.826 87.6662C108.488 87.8949 108.228 88.1932 108.046 88.5611C107.863 88.929 107.772 89.3234 107.772 89.7443V90.4205C107.772 90.9972 107.872 91.486 108.07 91.8871C108.273 92.2848 108.553 92.5881 108.911 92.7969C109.269 93.0024 109.685 93.1051 110.158 93.1051C110.467 93.1051 110.745 93.062 110.994 92.9759C111.246 92.8864 111.463 92.7538 111.645 92.5781C111.827 92.3991 111.968 92.1771 112.068 91.9119L113.201 92.2301C113.082 92.6146 112.881 92.9527 112.6 93.2443C112.318 93.5327 111.97 93.758 111.555 93.9205C111.141 94.0795 110.676 94.1591 110.158 94.1591ZM120.514 88.0739L119.46 88.3722C119.394 88.1965 119.296 88.0258 119.167 87.8601C119.041 87.6911 118.869 87.5518 118.65 87.4425C118.431 87.3331 118.151 87.2784 117.81 87.2784C117.342 87.2784 116.953 87.3861 116.641 87.6016C116.333 87.8137 116.179 88.0838 116.179 88.4119C116.179 88.7036 116.285 88.9339 116.497 89.103C116.709 89.272 117.041 89.4129 117.492 89.5256L118.625 89.804C119.308 89.9697 119.817 90.2232 120.151 90.5646C120.486 90.9027 120.653 91.3385 120.653 91.8722C120.653 92.3097 120.528 92.7008 120.276 93.0455C120.027 93.3902 119.679 93.6619 119.232 93.8608C118.784 94.0597 118.264 94.1591 117.671 94.1591C116.892 94.1591 116.247 93.9901 115.737 93.652C115.226 93.3139 114.903 92.8201 114.767 92.1705L115.881 91.892C115.987 92.303 116.187 92.6113 116.482 92.8168C116.781 93.0223 117.17 93.125 117.651 93.125C118.198 93.125 118.632 93.009 118.953 92.777C119.278 92.5417 119.44 92.2599 119.44 91.9318C119.44 91.6667 119.348 91.4446 119.162 91.2656C118.976 91.0833 118.691 90.9474 118.307 90.858L117.034 90.5597C116.335 90.3939 115.821 90.1371 115.493 89.7891C115.168 89.4377 115.006 88.9986 115.006 88.4716C115.006 88.0407 115.127 87.6596 115.369 87.3281C115.614 86.9967 115.947 86.7365 116.368 86.5476C116.792 86.3587 117.273 86.2642 117.81 86.2642C118.565 86.2642 119.159 86.4299 119.59 86.7614C120.024 87.0928 120.332 87.5303 120.514 88.0739ZM125.741 86.3636V87.358H121.783V86.3636H125.741ZM122.937 84.5341H124.11V91.8125C124.11 92.1439 124.158 92.3925 124.254 92.5582C124.354 92.7206 124.48 92.83 124.632 92.8864C124.788 92.9394 124.952 92.9659 125.124 92.9659C125.253 92.9659 125.36 92.9593 125.442 92.946C125.525 92.9295 125.592 92.9162 125.641 92.9062L125.88 93.9602C125.8 93.9901 125.689 94.0199 125.547 94.0497C125.404 94.0829 125.224 94.0994 125.005 94.0994C124.673 94.0994 124.349 94.0282 124.03 93.8857C123.716 93.7431 123.454 93.526 123.245 93.2344C123.039 92.9427 122.937 92.5748 122.937 92.1307V84.5341ZM83.8805 111V100.818H87.3208C88.1196 100.818 88.7725 100.962 89.2796 101.251C89.7901 101.536 90.1679 101.922 90.4132 102.409C90.6584 102.896 90.7811 103.44 90.7811 104.04C90.7811 104.64 90.6584 105.185 90.4132 105.675C90.1712 106.166 89.7967 106.557 89.2896 106.849C88.7825 107.137 88.1329 107.281 87.3407 107.281H84.8748V106.188H87.301C87.8478 106.188 88.287 106.093 88.6184 105.904C88.9499 105.715 89.1902 105.46 89.3393 105.138C89.4918 104.814 89.568 104.447 89.568 104.04C89.568 103.632 89.4918 103.268 89.3393 102.946C89.1902 102.625 88.9482 102.373 88.6135 102.19C88.2787 102.005 87.8346 101.912 87.2811 101.912H85.1135V111H83.8805ZM95.6284 111.159C94.939 111.159 94.3341 110.995 93.8137 110.667C93.2967 110.339 92.8923 109.88 92.6007 109.29C92.3123 108.7 92.1681 108.01 92.1681 107.222C92.1681 106.426 92.3123 105.732 92.6007 105.138C92.8923 104.545 93.2967 104.085 93.8137 103.756C94.3341 103.428 94.939 103.264 95.6284 103.264C96.3178 103.264 96.921 103.428 97.438 103.756C97.9584 104.085 98.3627 104.545 98.6511 105.138C98.9428 105.732 99.0886 106.426 99.0886 107.222C99.0886 108.01 98.9428 108.7 98.6511 109.29C98.3627 109.88 97.9584 110.339 97.438 110.667C96.921 110.995 96.3178 111.159 95.6284 111.159ZM95.6284 110.105C96.152 110.105 96.5829 109.971 96.921 109.702C97.259 109.434 97.5093 109.081 97.6717 108.643C97.8341 108.206 97.9153 107.732 97.9153 107.222C97.9153 106.711 97.8341 106.236 97.6717 105.795C97.5093 105.354 97.259 104.998 96.921 104.726C96.5829 104.454 96.152 104.318 95.6284 104.318C95.1047 104.318 94.6738 104.454 94.3358 104.726C93.9977 104.998 93.7474 105.354 93.585 105.795C93.4226 106.236 93.3414 106.711 93.3414 107.222C93.3414 107.732 93.4226 108.206 93.585 108.643C93.7474 109.081 93.9977 109.434 94.3358 109.702C94.6738 109.971 95.1047 110.105 95.6284 110.105ZM100.88 111V103.364H102.053V111H100.88ZM101.476 102.091C101.248 102.091 101.05 102.013 100.885 101.857C100.722 101.701 100.641 101.514 100.641 101.295C100.641 101.077 100.722 100.889 100.885 100.734C101.05 100.578 101.248 100.5 101.476 100.5C101.705 100.5 101.9 100.578 102.063 100.734C102.229 100.889 102.311 101.077 102.311 101.295C102.311 101.514 102.229 101.701 102.063 101.857C101.9 102.013 101.705 102.091 101.476 102.091ZM105.375 106.406V111H104.202V103.364H105.335V104.557H105.435C105.614 104.169 105.886 103.857 106.25 103.622C106.615 103.384 107.085 103.264 107.662 103.264C108.179 103.264 108.632 103.37 109.019 103.582C109.407 103.791 109.709 104.109 109.924 104.537C110.14 104.961 110.247 105.498 110.247 106.148V111H109.074V106.227C109.074 105.627 108.918 105.16 108.607 104.825C108.295 104.487 107.868 104.318 107.324 104.318C106.95 104.318 106.615 104.399 106.32 104.562C106.028 104.724 105.798 104.961 105.629 105.273C105.46 105.584 105.375 105.962 105.375 106.406ZM115.712 103.364V104.358H111.755V103.364H115.712ZM112.908 101.534H114.082V108.812C114.082 109.144 114.13 109.393 114.226 109.558C114.325 109.721 114.451 109.83 114.604 109.886C114.759 109.939 114.924 109.966 115.096 109.966C115.225 109.966 115.331 109.959 115.414 109.946C115.497 109.929 115.563 109.916 115.613 109.906L115.852 110.96C115.772 110.99 115.661 111.02 115.518 111.05C115.376 111.083 115.195 111.099 114.977 111.099C114.645 111.099 114.32 111.028 114.002 110.886C113.687 110.743 113.425 110.526 113.217 110.234C113.011 109.943 112.908 109.575 112.908 109.131V101.534ZM122.75 105.074L121.696 105.372C121.629 105.196 121.532 105.026 121.402 104.86C121.276 104.691 121.104 104.552 120.885 104.442C120.667 104.333 120.386 104.278 120.045 104.278C119.578 104.278 119.188 104.386 118.877 104.602C118.569 104.814 118.414 105.084 118.414 105.412C118.414 105.704 118.52 105.934 118.733 106.103C118.945 106.272 119.276 106.413 119.727 106.526L120.86 106.804C121.543 106.97 122.052 107.223 122.387 107.565C122.721 107.903 122.889 108.339 122.889 108.872C122.889 109.31 122.763 109.701 122.511 110.045C122.262 110.39 121.914 110.662 121.467 110.861C121.02 111.06 120.499 111.159 119.906 111.159C119.127 111.159 118.482 110.99 117.972 110.652C117.462 110.314 117.138 109.82 117.002 109.17L118.116 108.892C118.222 109.303 118.423 109.611 118.718 109.817C119.016 110.022 119.405 110.125 119.886 110.125C120.433 110.125 120.867 110.009 121.189 109.777C121.513 109.542 121.676 109.26 121.676 108.932C121.676 108.667 121.583 108.445 121.397 108.266C121.212 108.083 120.927 107.947 120.542 107.858L119.27 107.56C118.57 107.394 118.056 107.137 117.728 106.789C117.404 106.438 117.241 105.999 117.241 105.472C117.241 105.041 117.362 104.66 117.604 104.328C117.849 103.997 118.182 103.737 118.603 103.548C119.028 103.359 119.508 103.264 120.045 103.264C120.801 103.264 121.394 103.43 121.825 103.761C122.259 104.093 122.567 104.53 122.75 105.074Z" fill="black"/>
</g>
<g filter="url(#filter4_dd_494_1575)">
<path d="M207.79 64.8182V75H206.557V66.1108H206.497L204.011 67.7614V66.5085L206.557 64.8182H207.79ZM213.9 75.1392C213.317 75.1392 212.791 75.0232 212.324 74.7912C211.857 74.5592 211.482 74.241 211.2 73.8366C210.919 73.4323 210.765 72.9716 210.738 72.4545H211.931C211.978 72.9152 212.186 73.2964 212.558 73.598C212.932 73.8963 213.38 74.0455 213.9 74.0455C214.318 74.0455 214.689 73.9477 215.014 73.7521C215.342 73.5566 215.599 73.2881 215.784 72.9467C215.973 72.602 216.068 72.2126 216.068 71.7784C216.068 71.3343 215.97 70.9382 215.774 70.5902C215.582 70.2389 215.317 69.9621 214.979 69.7599C214.641 69.5578 214.255 69.455 213.82 69.4517C213.509 69.4484 213.189 69.4964 212.861 69.5959C212.533 69.692 212.263 69.8163 212.051 69.9688L210.897 69.8295L211.514 64.8182H216.803V65.9119H212.548L212.19 68.9148H212.249C212.458 68.7491 212.72 68.6115 213.035 68.5021C213.35 68.3928 213.678 68.3381 214.019 68.3381C214.642 68.3381 215.198 68.4872 215.685 68.7855C216.175 69.0805 216.56 69.4848 216.838 69.9986C217.12 70.5123 217.261 71.099 217.261 71.7585C217.261 72.4081 217.115 72.9882 216.823 73.4986C216.535 74.0057 216.137 74.4067 215.63 74.7017C215.123 74.9934 214.546 75.1392 213.9 75.1392ZM227.568 69.3622V70.456H223.114V69.3622H227.568ZM237.13 64.8182V75H235.897V66.1108H235.837L233.351 67.7614V66.5085L235.897 64.8182H237.13ZM243.319 75.1392C242.637 75.1392 242.033 75.0182 241.51 74.7763C240.989 74.531 240.583 74.1946 240.292 73.767C240 73.3362 239.856 72.8456 239.859 72.2955C239.856 71.8646 239.94 71.4669 240.113 71.1023C240.285 70.7344 240.52 70.4278 240.819 70.1825C241.12 69.9339 241.457 69.7765 241.828 69.7102V69.6506C241.341 69.5246 240.953 69.2512 240.665 68.8303C240.376 68.406 240.234 67.9238 240.237 67.3835C240.234 66.8665 240.365 66.4041 240.63 65.9964C240.895 65.5888 241.259 65.2673 241.723 65.032C242.191 64.7966 242.723 64.679 243.319 64.679C243.909 64.679 244.436 64.7966 244.9 65.032C245.364 65.2673 245.729 65.5888 245.994 65.9964C246.263 66.4041 246.398 66.8665 246.402 67.3835C246.398 67.9238 246.251 68.406 245.959 68.8303C245.671 69.2512 245.288 69.5246 244.811 69.6506V69.7102C245.179 69.7765 245.51 69.9339 245.805 70.1825C246.1 70.4278 246.335 70.7344 246.511 71.1023C246.687 71.4669 246.776 71.8646 246.78 72.2955C246.776 72.8456 246.627 73.3362 246.332 73.767C246.04 74.1946 245.634 74.531 245.114 74.7763C244.597 75.0182 243.999 75.1392 243.319 75.1392ZM243.319 74.0455C243.78 74.0455 244.178 73.9709 244.513 73.8217C244.847 73.6726 245.106 73.4621 245.288 73.1903C245.47 72.9186 245.563 72.6004 245.567 72.2358C245.563 71.8513 245.464 71.5116 245.268 71.2166C245.073 70.9216 244.806 70.6896 244.468 70.5206C244.133 70.3516 243.75 70.267 243.319 70.267C242.885 70.267 242.497 70.3516 242.156 70.5206C241.818 70.6896 241.551 70.9216 241.356 71.2166C241.163 71.5116 241.069 71.8513 241.072 72.2358C241.069 72.6004 241.157 72.9186 241.336 73.1903C241.518 73.4621 241.778 73.6726 242.116 73.8217C242.454 73.9709 242.855 74.0455 243.319 74.0455ZM243.319 69.2131C243.684 69.2131 244.007 69.1402 244.289 68.9943C244.574 68.8485 244.798 68.6446 244.96 68.3828C245.122 68.121 245.205 67.8144 245.209 67.4631C245.205 67.1184 245.124 66.8184 244.965 66.5632C244.806 66.3047 244.585 66.1058 244.304 65.9666C244.022 65.8241 243.694 65.7528 243.319 65.7528C242.938 65.7528 242.605 65.8241 242.32 65.9666C242.035 66.1058 241.815 66.3047 241.659 66.5632C241.503 66.8184 241.427 67.1184 241.43 67.4631C241.427 67.8144 241.505 68.121 241.664 68.3828C241.826 68.6446 242.05 68.8485 242.335 68.9943C242.62 69.1402 242.948 69.2131 243.319 69.2131ZM201.694 92V84.3636H202.828V85.5568H202.927C203.086 85.1491 203.343 84.8326 203.698 84.6072C204.052 84.3786 204.478 84.2642 204.975 84.2642C205.479 84.2642 205.898 84.3786 206.233 84.6072C206.571 84.8326 206.835 85.1491 207.024 85.5568H207.103C207.299 85.1624 207.592 84.8492 207.983 84.6172C208.374 84.3819 208.843 84.2642 209.39 84.2642C210.073 84.2642 210.631 84.478 211.066 84.9055C211.5 85.3298 211.717 85.991 211.717 86.8892V92H210.544V86.8892C210.544 86.3258 210.389 85.9231 210.081 85.6811C209.773 85.4392 209.41 85.3182 208.992 85.3182C208.455 85.3182 208.039 85.4806 207.745 85.8054C207.45 86.1269 207.302 86.5346 207.302 87.0284V92H206.109V86.7699C206.109 86.3357 205.968 85.986 205.686 85.7209C205.405 85.4524 205.042 85.3182 204.597 85.3182C204.293 85.3182 204.008 85.3994 203.742 85.5618C203.481 85.7242 203.268 85.9496 203.106 86.2379C202.947 86.523 202.867 86.8527 202.867 87.2273V92H201.694ZM216.964 92.1591C216.275 92.1591 215.67 91.995 215.15 91.6669C214.633 91.3388 214.228 90.8797 213.937 90.2898C213.648 89.6998 213.504 89.0104 213.504 88.2216C213.504 87.4261 213.648 86.7318 213.937 86.1385C214.228 85.5452 214.633 85.0845 215.15 84.7564C215.67 84.4283 216.275 84.2642 216.964 84.2642C217.654 84.2642 218.257 84.4283 218.774 84.7564C219.294 85.0845 219.699 85.5452 219.987 86.1385C220.279 86.7318 220.425 87.4261 220.425 88.2216C220.425 89.0104 220.279 89.6998 219.987 90.2898C219.699 90.8797 219.294 91.3388 218.774 91.6669C218.257 91.995 217.654 92.1591 216.964 92.1591ZM216.964 91.1051C217.488 91.1051 217.919 90.9709 218.257 90.7024C218.595 90.4339 218.845 90.081 219.008 89.6435C219.17 89.206 219.251 88.732 219.251 88.2216C219.251 87.7112 219.17 87.2356 219.008 86.7947C218.845 86.3539 218.595 85.9976 218.257 85.7259C217.919 85.4541 217.488 85.3182 216.964 85.3182C216.441 85.3182 216.01 85.4541 215.672 85.7259C215.334 85.9976 215.083 86.3539 214.921 86.7947C214.759 87.2356 214.677 87.7112 214.677 88.2216C214.677 88.732 214.759 89.206 214.921 89.6435C215.083 90.081 215.334 90.4339 215.672 90.7024C216.01 90.9709 216.441 91.1051 216.964 91.1051ZM223.389 87.4062V92H222.216V84.3636H223.349V85.5568H223.449C223.628 85.169 223.899 84.8575 224.264 84.6222C224.628 84.3835 225.099 84.2642 225.676 84.2642C226.193 84.2642 226.645 84.3703 227.033 84.5824C227.421 84.7912 227.722 85.1094 227.938 85.5369C228.153 85.9612 228.261 86.4981 228.261 87.1477V92H227.088V87.2273C227.088 86.6274 226.932 86.16 226.62 85.8253C226.309 85.4872 225.881 85.3182 225.338 85.3182C224.963 85.3182 224.628 85.3994 224.333 85.5618C224.042 85.7242 223.811 85.9612 223.642 86.2727C223.473 86.5843 223.389 86.9621 223.389 87.4062ZM233.726 84.3636V85.358H229.769V84.3636H233.726ZM230.922 82.5341H232.095V89.8125C232.095 90.1439 232.143 90.3925 232.24 90.5582C232.339 90.7206 232.465 90.83 232.617 90.8864C232.773 90.9394 232.937 90.9659 233.11 90.9659C233.239 90.9659 233.345 90.9593 233.428 90.946C233.511 90.9295 233.577 90.9162 233.627 90.9062L233.865 91.9602C233.786 91.9901 233.675 92.0199 233.532 92.0497C233.39 92.0829 233.209 92.0994 232.99 92.0994C232.659 92.0994 232.334 92.0282 232.016 91.8857C231.701 91.7431 231.439 91.526 231.23 91.2344C231.025 90.9427 230.922 90.5748 230.922 90.1307V82.5341ZM236.828 87.4062V92H235.655V81.8182H236.828V85.5568H236.928C237.107 85.1624 237.375 84.8492 237.733 84.6172C238.094 84.3819 238.575 84.2642 239.175 84.2642C239.695 84.2642 240.151 84.3686 240.542 84.5774C240.933 84.7829 241.236 85.0994 241.452 85.527C241.671 85.9512 241.78 86.4915 241.78 87.1477V92H240.607V87.2273C240.607 86.6207 240.449 86.1518 240.134 85.8203C239.823 85.4856 239.39 85.3182 238.837 85.3182C238.452 85.3182 238.108 85.3994 237.803 85.5618C237.501 85.7242 237.263 85.9612 237.087 86.2727C236.914 86.5843 236.828 86.9621 236.828 87.4062ZM249.336 86.0739L248.282 86.3722C248.215 86.1965 248.118 86.0258 247.988 85.8601C247.862 85.6911 247.69 85.5518 247.471 85.4425C247.253 85.3331 246.972 85.2784 246.631 85.2784C246.164 85.2784 245.774 85.3861 245.463 85.6016C245.154 85.8137 245 86.0838 245 86.4119C245 86.7036 245.106 86.9339 245.319 87.103C245.531 87.272 245.862 87.4129 246.313 87.5256L247.446 87.804C248.129 87.9697 248.638 88.2232 248.973 88.5646C249.307 88.9027 249.475 89.3385 249.475 89.8722C249.475 90.3097 249.349 90.7008 249.097 91.0455C248.848 91.3902 248.5 91.6619 248.053 91.8608C247.605 92.0597 247.085 92.1591 246.492 92.1591C245.713 92.1591 245.068 91.9901 244.558 91.652C244.047 91.3139 243.724 90.8201 243.588 90.1705L244.702 89.892C244.808 90.303 245.009 90.6113 245.304 90.8168C245.602 91.0223 245.991 91.125 246.472 91.125C247.019 91.125 247.453 91.009 247.775 90.777C248.099 90.5417 248.262 90.2599 248.262 89.9318C248.262 89.6667 248.169 89.4446 247.983 89.2656C247.798 89.0833 247.513 88.9474 247.128 88.858L245.855 88.5597C245.156 88.3939 244.642 88.1371 244.314 87.7891C243.989 87.4377 243.827 86.9986 243.827 86.4716C243.827 86.0407 243.948 85.6596 244.19 85.3281C244.435 84.9967 244.768 84.7365 245.189 84.5476C245.614 84.3587 246.094 84.2642 246.631 84.2642C247.387 84.2642 247.98 84.4299 248.411 84.7614C248.845 85.0928 249.153 85.5303 249.336 86.0739Z" fill="black"/>
<path d="M186.701 113V102.818H190.26C190.97 102.818 191.555 102.941 192.015 103.186C192.476 103.428 192.819 103.754 193.044 104.165C193.27 104.573 193.383 105.026 193.383 105.523C193.383 105.96 193.305 106.321 193.149 106.607C192.996 106.892 192.794 107.117 192.542 107.283C192.294 107.448 192.024 107.571 191.732 107.651V107.75C192.044 107.77 192.357 107.879 192.672 108.078C192.986 108.277 193.25 108.562 193.462 108.933C193.674 109.304 193.78 109.759 193.78 110.295C193.78 110.806 193.664 111.265 193.432 111.673C193.2 112.08 192.834 112.403 192.334 112.642C191.833 112.881 191.182 113 190.38 113H186.701ZM187.934 111.906H190.38C191.185 111.906 191.757 111.75 192.095 111.439C192.436 111.124 192.607 110.743 192.607 110.295C192.607 109.951 192.519 109.633 192.343 109.341C192.168 109.046 191.918 108.811 191.593 108.635C191.268 108.456 190.883 108.366 190.439 108.366H187.934V111.906ZM187.934 107.293H190.221C190.592 107.293 190.927 107.22 191.225 107.074C191.526 106.928 191.765 106.723 191.941 106.457C192.12 106.192 192.209 105.881 192.209 105.523C192.209 105.075 192.053 104.696 191.742 104.384C191.43 104.069 190.937 103.912 190.26 103.912H187.934V107.293ZM198.849 113.159C198.113 113.159 197.478 112.997 196.945 112.672C196.414 112.344 196.005 111.886 195.717 111.3C195.432 110.71 195.289 110.024 195.289 109.241C195.289 108.459 195.432 107.77 195.717 107.173C196.005 106.573 196.406 106.106 196.92 105.771C197.437 105.433 198.04 105.264 198.729 105.264C199.127 105.264 199.52 105.33 199.908 105.463C200.296 105.596 200.649 105.811 200.967 106.109C201.285 106.404 201.538 106.795 201.727 107.283C201.916 107.77 202.011 108.37 202.011 109.082V109.58H196.124V108.565H200.818C200.818 108.134 200.731 107.75 200.559 107.412C200.39 107.074 200.148 106.807 199.833 106.612C199.522 106.416 199.154 106.318 198.729 106.318C198.262 106.318 197.858 106.434 197.516 106.666C197.178 106.895 196.918 107.193 196.736 107.561C196.554 107.929 196.462 108.323 196.462 108.744V109.42C196.462 109.997 196.562 110.486 196.761 110.887C196.963 111.285 197.243 111.588 197.601 111.797C197.959 112.002 198.375 112.105 198.849 112.105C199.157 112.105 199.435 112.062 199.684 111.976C199.936 111.886 200.153 111.754 200.335 111.578C200.518 111.399 200.658 111.177 200.758 110.912L201.891 111.23C201.772 111.615 201.572 111.953 201.29 112.244C201.008 112.533 200.66 112.758 200.246 112.92C199.832 113.08 199.366 113.159 198.849 113.159ZM209.205 107.074L208.151 107.372C208.084 107.196 207.987 107.026 207.857 106.86C207.731 106.691 207.559 106.552 207.34 106.442C207.122 106.333 206.841 106.278 206.5 106.278C206.033 106.278 205.643 106.386 205.332 106.602C205.024 106.814 204.869 107.084 204.869 107.412C204.869 107.704 204.975 107.934 205.188 108.103C205.4 108.272 205.731 108.413 206.182 108.526L207.315 108.804C207.998 108.97 208.507 109.223 208.842 109.565C209.176 109.903 209.344 110.339 209.344 110.872C209.344 111.31 209.218 111.701 208.966 112.045C208.717 112.39 208.369 112.662 207.922 112.861C207.475 113.06 206.954 113.159 206.361 113.159C205.582 113.159 204.937 112.99 204.427 112.652C203.917 112.314 203.593 111.82 203.457 111.17L204.571 110.892C204.677 111.303 204.878 111.611 205.173 111.817C205.471 112.022 205.86 112.125 206.341 112.125C206.888 112.125 207.322 112.009 207.644 111.777C207.968 111.542 208.131 111.26 208.131 110.932C208.131 110.667 208.038 110.445 207.852 110.266C207.667 110.083 207.382 109.947 206.997 109.858L205.725 109.56C205.025 109.394 204.511 109.137 204.183 108.789C203.859 108.438 203.696 107.999 203.696 107.472C203.696 107.041 203.817 106.66 204.059 106.328C204.304 105.997 204.637 105.737 205.058 105.548C205.483 105.359 205.963 105.264 206.5 105.264C207.256 105.264 207.849 105.43 208.28 105.761C208.714 106.093 209.022 106.53 209.205 107.074ZM214.431 105.364V106.358H210.474V105.364H214.431ZM211.627 103.534H212.8V110.812C212.8 111.144 212.848 111.393 212.945 111.558C213.044 111.721 213.17 111.83 213.322 111.886C213.478 111.939 213.642 111.966 213.815 111.966C213.944 111.966 214.05 111.959 214.133 111.946C214.216 111.929 214.282 111.916 214.332 111.906L214.57 112.96C214.491 112.99 214.38 113.02 214.237 113.05C214.095 113.083 213.914 113.099 213.695 113.099C213.364 113.099 213.039 113.028 212.721 112.886C212.406 112.743 212.144 112.526 211.935 112.234C211.73 111.943 211.627 111.575 211.627 111.131V103.534ZM219.736 103.912V102.818H227.372V103.912H224.17V113H222.937V103.912H219.736ZM231.21 113.159C230.474 113.159 229.84 112.997 229.306 112.672C228.776 112.344 228.366 111.886 228.078 111.3C227.793 110.71 227.65 110.024 227.65 109.241C227.65 108.459 227.793 107.77 228.078 107.173C228.366 106.573 228.767 106.106 229.281 105.771C229.798 105.433 230.401 105.264 231.091 105.264C231.489 105.264 231.881 105.33 232.269 105.463C232.657 105.596 233.01 105.811 233.328 106.109C233.646 106.404 233.9 106.795 234.089 107.283C234.278 107.77 234.372 108.37 234.372 109.082V109.58H228.486V108.565H233.179C233.179 108.134 233.093 107.75 232.92 107.412C232.751 107.074 232.509 106.807 232.195 106.612C231.883 106.416 231.515 106.318 231.091 106.318C230.623 106.318 230.219 106.434 229.878 106.666C229.54 106.895 229.28 107.193 229.097 107.561C228.915 107.929 228.824 108.323 228.824 108.744V109.42C228.824 109.997 228.923 110.486 229.122 110.887C229.324 111.285 229.604 111.588 229.962 111.797C230.32 112.002 230.736 112.105 231.21 112.105C231.518 112.105 231.797 112.062 232.045 111.976C232.297 111.886 232.514 111.754 232.697 111.578C232.879 111.399 233.02 111.177 233.119 110.912L234.253 111.23C234.133 111.615 233.933 111.953 233.651 112.244C233.369 112.533 233.021 112.758 232.607 112.92C232.193 113.08 231.727 113.159 231.21 113.159ZM237.33 108.406V113H236.157V105.364H237.29V106.557H237.39C237.569 106.169 237.841 105.857 238.205 105.622C238.57 105.384 239.04 105.264 239.617 105.264C240.134 105.264 240.587 105.37 240.974 105.582C241.362 105.791 241.664 106.109 241.879 106.537C242.095 106.961 242.202 107.498 242.202 108.148V113H241.029V108.227C241.029 107.627 240.873 107.16 240.562 106.825C240.25 106.487 239.823 106.318 239.279 106.318C238.905 106.318 238.57 106.399 238.275 106.562C237.983 106.724 237.753 106.961 237.584 107.273C237.415 107.584 237.33 107.962 237.33 108.406ZM249.159 109.878V105.364H250.332V113H249.159V111.707H249.079C248.9 112.095 248.622 112.425 248.244 112.697C247.866 112.965 247.389 113.099 246.812 113.099C246.335 113.099 245.911 112.995 245.54 112.786C245.168 112.574 244.877 112.256 244.665 111.832C244.452 111.404 244.346 110.866 244.346 110.216V105.364H245.52V110.136C245.52 110.693 245.675 111.137 245.987 111.469C246.302 111.8 246.703 111.966 247.19 111.966C247.482 111.966 247.778 111.891 248.08 111.742C248.385 111.593 248.64 111.364 248.846 111.056C249.054 110.748 249.159 110.355 249.159 109.878ZM252.481 113V105.364H253.615V106.517H253.694C253.833 106.139 254.085 105.833 254.45 105.597C254.814 105.362 255.225 105.244 255.683 105.244C255.769 105.244 255.877 105.246 256.006 105.249C256.135 105.253 256.233 105.258 256.299 105.264V106.457C256.259 106.447 256.168 106.433 256.026 106.413C255.887 106.389 255.739 106.378 255.583 106.378C255.212 106.378 254.881 106.456 254.589 106.612C254.301 106.764 254.072 106.976 253.903 107.248C253.737 107.516 253.654 107.823 253.654 108.168V113H252.481ZM260.659 113.159C259.924 113.159 259.289 112.997 258.755 112.672C258.225 112.344 257.816 111.886 257.527 111.3C257.242 110.71 257.1 110.024 257.1 109.241C257.1 108.459 257.242 107.77 257.527 107.173C257.816 106.573 258.217 106.106 258.73 105.771C259.247 105.433 259.851 105.264 260.54 105.264C260.938 105.264 261.331 105.33 261.718 105.463C262.106 105.596 262.459 105.811 262.777 106.109C263.095 106.404 263.349 106.795 263.538 107.283C263.727 107.77 263.821 108.37 263.821 109.082V109.58H257.935V108.565H262.628C262.628 108.134 262.542 107.75 262.37 107.412C262.201 107.074 261.959 106.807 261.644 106.612C261.332 106.416 260.964 106.318 260.54 106.318C260.073 106.318 259.668 106.434 259.327 106.666C258.989 106.895 258.729 107.193 258.546 107.561C258.364 107.929 258.273 108.323 258.273 108.744V109.42C258.273 109.997 258.372 110.486 258.571 110.887C258.773 111.285 259.054 111.588 259.411 111.797C259.769 112.002 260.185 112.105 260.659 112.105C260.968 112.105 261.246 112.062 261.495 111.976C261.746 111.886 261.964 111.754 262.146 111.578C262.328 111.399 262.469 111.177 262.568 110.912L263.702 111.23C263.583 111.615 263.382 111.953 263.1 112.244C262.819 112.533 262.471 112.758 262.056 112.92C261.642 113.08 261.176 113.159 260.659 113.159Z" fill="black"/>
</g>
<g filter="url(#filter5_dd_494_1575)">
<path d="M147.815 172L152.369 162.991V162.912H147.119V161.818H153.641V162.972L149.107 172H147.815ZM154.62 172.08C154.374 172.08 154.164 171.992 153.988 171.816C153.812 171.64 153.725 171.43 153.725 171.185C153.725 170.939 153.812 170.729 153.988 170.553C154.164 170.378 154.374 170.29 154.62 170.29C154.865 170.29 155.075 170.378 155.251 170.553C155.427 170.729 155.514 170.939 155.514 171.185C155.514 171.347 155.473 171.496 155.39 171.632C155.311 171.768 155.203 171.877 155.067 171.96C154.934 172.04 154.785 172.08 154.62 172.08ZM160.577 172.139C159.993 172.139 159.468 172.023 159.001 171.791C158.533 171.559 158.159 171.241 157.877 170.837C157.595 170.432 157.441 169.972 157.415 169.455H158.608C158.654 169.915 158.863 170.296 159.234 170.598C159.609 170.896 160.056 171.045 160.577 171.045C160.994 171.045 161.366 170.948 161.69 170.752C162.018 170.557 162.275 170.288 162.461 169.947C162.65 169.602 162.744 169.213 162.744 168.778C162.744 168.334 162.647 167.938 162.451 167.59C162.259 167.239 161.994 166.962 161.656 166.76C161.317 166.558 160.931 166.455 160.497 166.452C160.186 166.448 159.866 166.496 159.538 166.596C159.21 166.692 158.939 166.816 158.727 166.969L157.574 166.83L158.19 161.818H163.48V162.912H159.224L158.866 165.915H158.926C159.135 165.749 159.397 165.612 159.712 165.502C160.027 165.393 160.355 165.338 160.696 165.338C161.319 165.338 161.874 165.487 162.362 165.786C162.852 166.08 163.237 166.485 163.515 166.999C163.797 167.512 163.938 168.099 163.938 168.759C163.938 169.408 163.792 169.988 163.5 170.499C163.212 171.006 162.814 171.407 162.307 171.702C161.8 171.993 161.223 172.139 160.577 172.139ZM171.103 170.091V169.554C171.103 169.183 171.179 168.843 171.332 168.535C171.487 168.223 171.713 167.975 172.008 167.789C172.306 167.6 172.667 167.506 173.091 167.506C173.522 167.506 173.884 167.6 174.175 167.789C174.467 167.975 174.687 168.223 174.836 168.535C174.986 168.843 175.06 169.183 175.06 169.554V170.091C175.06 170.462 174.984 170.804 174.832 171.115C174.682 171.423 174.46 171.672 174.165 171.861C173.874 172.046 173.516 172.139 173.091 172.139C172.661 172.139 172.298 172.046 172.003 171.861C171.708 171.672 171.484 171.423 171.332 171.115C171.179 170.804 171.103 170.462 171.103 170.091ZM172.117 169.554V170.091C172.117 170.399 172.19 170.676 172.336 170.921C172.482 171.163 172.734 171.284 173.091 171.284C173.439 171.284 173.685 171.163 173.827 170.921C173.973 170.676 174.046 170.399 174.046 170.091V169.554C174.046 169.246 173.976 168.971 173.837 168.729C173.698 168.483 173.449 168.361 173.091 168.361C172.743 168.361 172.493 168.483 172.341 168.729C172.192 168.971 172.117 169.246 172.117 169.554ZM166.032 164.264V163.727C166.032 163.356 166.108 163.016 166.26 162.708C166.416 162.397 166.642 162.148 166.937 161.962C167.235 161.773 167.596 161.679 168.02 161.679C168.451 161.679 168.813 161.773 169.104 161.962C169.396 162.148 169.616 162.397 169.765 162.708C169.915 163.016 169.989 163.356 169.989 163.727V164.264C169.989 164.635 169.913 164.977 169.76 165.288C169.611 165.597 169.389 165.845 169.094 166.034C168.803 166.22 168.445 166.312 168.02 166.312C167.59 166.312 167.227 166.22 166.932 166.034C166.637 165.845 166.413 165.597 166.26 165.288C166.108 164.977 166.032 164.635 166.032 164.264ZM167.046 163.727V164.264C167.046 164.572 167.119 164.849 167.265 165.094C167.411 165.336 167.662 165.457 168.02 165.457C168.368 165.457 168.614 165.336 168.756 165.094C168.902 164.849 168.975 164.572 168.975 164.264V163.727C168.975 163.419 168.905 163.144 168.766 162.902C168.627 162.657 168.378 162.534 168.02 162.534C167.672 162.534 167.422 162.657 167.27 162.902C167.121 163.144 167.046 163.419 167.046 163.727ZM166.41 172L173.41 161.818H174.543L167.543 172H166.41ZM180.29 170.21V163.648H181.404V170.21H180.29ZM177.566 167.486V166.372H184.128V167.486H177.566Z" fill="black"/>
<path d="M140.942 186.818V197H139.709V188.111H139.65L137.164 189.761V188.509L139.709 186.818H140.942ZM143.632 194.912V193.898L148.106 186.818H148.842V188.389H148.345L144.964 193.739V193.818H150.99V194.912H143.632ZM148.424 197V194.604V194.131V186.818H149.598V197H148.424ZM156.969 197V186.818H160.529C161.238 186.818 161.823 186.941 162.284 187.186C162.745 187.428 163.088 187.754 163.313 188.165C163.539 188.573 163.651 189.026 163.651 189.523C163.651 189.96 163.573 190.321 163.418 190.607C163.265 190.892 163.063 191.117 162.811 191.283C162.562 191.448 162.292 191.571 162.001 191.651V191.75C162.312 191.77 162.625 191.879 162.94 192.078C163.255 192.277 163.519 192.562 163.731 192.933C163.943 193.304 164.049 193.759 164.049 194.295C164.049 194.806 163.933 195.265 163.701 195.673C163.469 196.08 163.103 196.403 162.602 196.642C162.102 196.881 161.45 197 160.648 197H156.969ZM158.202 195.906H160.648C161.454 195.906 162.025 195.75 162.364 195.439C162.705 195.124 162.876 194.743 162.876 194.295C162.876 193.951 162.788 193.633 162.612 193.341C162.436 193.046 162.186 192.811 161.861 192.635C161.537 192.456 161.152 192.366 160.708 192.366H158.202V195.906ZM158.202 191.293H160.489C160.86 191.293 161.195 191.22 161.494 191.074C161.795 190.928 162.034 190.723 162.209 190.457C162.388 190.192 162.478 189.881 162.478 189.523C162.478 189.075 162.322 188.696 162.011 188.384C161.699 188.069 161.205 187.912 160.529 187.912H158.202V191.293ZM168.163 197.179C167.679 197.179 167.24 197.088 166.845 196.906C166.451 196.72 166.138 196.453 165.906 196.105C165.674 195.754 165.558 195.33 165.558 194.832C165.558 194.395 165.644 194.04 165.816 193.768C165.989 193.493 166.219 193.278 166.507 193.122C166.796 192.966 167.114 192.85 167.462 192.774C167.813 192.695 168.166 192.632 168.521 192.585C168.985 192.526 169.361 192.481 169.649 192.451C169.941 192.418 170.153 192.363 170.286 192.287C170.422 192.211 170.49 192.078 170.49 191.889V191.849C170.49 191.359 170.355 190.978 170.087 190.706C169.822 190.434 169.419 190.298 168.879 190.298C168.319 190.298 167.88 190.421 167.561 190.666C167.243 190.911 167.019 191.173 166.89 191.452L165.777 191.054C165.975 190.59 166.241 190.229 166.572 189.97C166.907 189.708 167.271 189.526 167.666 189.423C168.063 189.317 168.455 189.264 168.839 189.264C169.084 189.264 169.366 189.294 169.684 189.354C170.006 189.41 170.316 189.528 170.614 189.707C170.916 189.886 171.166 190.156 171.365 190.517C171.563 190.878 171.663 191.362 171.663 191.969V197H170.49V195.966H170.43C170.35 196.132 170.218 196.309 170.032 196.498C169.847 196.687 169.6 196.848 169.291 196.98C168.983 197.113 168.607 197.179 168.163 197.179ZM168.342 196.125C168.806 196.125 169.197 196.034 169.515 195.852C169.837 195.669 170.079 195.434 170.241 195.146C170.407 194.857 170.49 194.554 170.49 194.236V193.162C170.44 193.222 170.331 193.276 170.162 193.326C169.996 193.372 169.804 193.414 169.585 193.45C169.369 193.483 169.159 193.513 168.953 193.54C168.751 193.563 168.587 193.583 168.461 193.599C168.156 193.639 167.871 193.704 167.606 193.793C167.344 193.879 167.132 194.01 166.97 194.186C166.811 194.358 166.731 194.594 166.731 194.892C166.731 195.3 166.882 195.608 167.184 195.817C167.488 196.022 167.875 196.125 168.342 196.125ZM174.978 192.406V197H173.804V189.364H174.938V190.557H175.037C175.216 190.169 175.488 189.857 175.853 189.622C176.217 189.384 176.688 189.264 177.265 189.264C177.782 189.264 178.234 189.37 178.622 189.582C179.01 189.791 179.311 190.109 179.527 190.537C179.742 190.961 179.85 191.498 179.85 192.148V197H178.677V192.227C178.677 191.627 178.521 191.16 178.209 190.825C177.898 190.487 177.47 190.318 176.927 190.318C176.552 190.318 176.217 190.399 175.922 190.562C175.631 190.724 175.4 190.961 175.231 191.273C175.062 191.584 174.978 191.962 174.978 192.406ZM183.088 194.216L183.068 192.764H183.306L186.647 189.364H188.099L184.539 192.963H184.44L183.088 194.216ZM181.994 197V186.818H183.167V197H181.994ZM186.846 197L183.863 193.222L184.698 192.406L188.338 197H186.846ZM195.018 191.074L193.964 191.372C193.898 191.196 193.8 191.026 193.671 190.86C193.545 190.691 193.373 190.552 193.154 190.442C192.935 190.333 192.655 190.278 192.314 190.278C191.846 190.278 191.457 190.386 191.145 190.602C190.837 190.814 190.683 191.084 190.683 191.412C190.683 191.704 190.789 191.934 191.001 192.103C191.213 192.272 191.545 192.413 191.995 192.526L193.129 192.804C193.812 192.97 194.321 193.223 194.655 193.565C194.99 193.903 195.157 194.339 195.157 194.872C195.157 195.31 195.031 195.701 194.78 196.045C194.531 196.39 194.183 196.662 193.736 196.861C193.288 197.06 192.768 197.159 192.174 197.159C191.396 197.159 190.751 196.99 190.241 196.652C189.73 196.314 189.407 195.82 189.271 195.17L190.385 194.892C190.491 195.303 190.691 195.611 190.986 195.817C191.285 196.022 191.674 196.125 192.155 196.125C192.701 196.125 193.136 196.009 193.457 195.777C193.782 195.542 193.944 195.26 193.944 194.932C193.944 194.667 193.852 194.445 193.666 194.266C193.48 194.083 193.195 193.947 192.811 193.858L191.538 193.56C190.839 193.394 190.325 193.137 189.997 192.789C189.672 192.438 189.51 191.999 189.51 191.472C189.51 191.041 189.631 190.66 189.873 190.328C190.118 189.997 190.451 189.737 190.872 189.548C191.296 189.359 191.777 189.264 192.314 189.264C193.069 189.264 193.663 189.43 194.094 189.761C194.528 190.093 194.836 190.53 195.018 191.074ZM144.566 214.139C143.896 214.139 143.32 214.017 142.836 213.771C142.352 213.526 141.979 213.19 141.717 212.762C141.455 212.335 141.324 211.846 141.324 211.295C141.324 210.871 141.414 210.495 141.593 210.167C141.775 209.835 142.025 209.529 142.344 209.247C142.665 208.962 143.035 208.677 143.452 208.392L144.924 207.298C145.212 207.109 145.443 206.907 145.615 206.692C145.791 206.476 145.878 206.195 145.878 205.847C145.878 205.588 145.764 205.338 145.535 205.096C145.31 204.854 145.013 204.733 144.645 204.733C144.387 204.733 144.158 204.799 143.959 204.932C143.764 205.061 143.61 205.227 143.497 205.429C143.388 205.628 143.333 205.833 143.333 206.045C143.333 206.284 143.398 206.526 143.527 206.771C143.659 207.013 143.827 207.262 144.029 207.517C144.234 207.769 144.447 208.027 144.665 208.293L149.339 214H147.927L144.069 209.347C143.711 208.916 143.386 208.525 143.094 208.173C142.803 207.822 142.571 207.476 142.398 207.134C142.226 206.793 142.14 206.423 142.14 206.026C142.14 205.568 142.241 205.167 142.443 204.822C142.649 204.474 142.935 204.204 143.303 204.012C143.674 203.817 144.109 203.719 144.606 203.719C145.116 203.719 145.555 203.818 145.923 204.017C146.291 204.213 146.574 204.473 146.773 204.798C146.972 205.119 147.072 205.469 147.072 205.847C147.072 206.334 146.951 206.756 146.709 207.114C146.467 207.472 146.137 207.805 145.719 208.114L143.691 209.625C143.234 209.963 142.924 210.291 142.761 210.609C142.599 210.928 142.518 211.156 142.518 211.295C142.518 211.614 142.6 211.91 142.766 212.185C142.932 212.46 143.166 212.683 143.467 212.852C143.769 213.021 144.122 213.105 144.526 213.105C144.911 213.105 145.285 213.024 145.65 212.862C146.014 212.696 146.344 212.457 146.639 212.146C146.937 211.834 147.173 211.46 147.345 211.022C147.521 210.585 147.609 210.092 147.609 209.545H148.742C148.742 210.222 148.664 210.773 148.508 211.201C148.353 211.629 148.177 211.963 147.981 212.205C147.786 212.447 147.628 212.628 147.509 212.747C147.469 212.797 147.433 212.847 147.4 212.896C147.367 212.946 147.33 212.996 147.29 213.045C146.962 213.413 146.548 213.688 146.047 213.871C145.547 214.05 145.053 214.139 144.566 214.139ZM162.808 203.818V214H161.615L156.066 206.006H155.967V214H154.734V203.818H155.927L161.495 211.832H161.595V203.818H162.808ZM165.275 214V203.818H168.835C169.544 203.818 170.129 203.941 170.59 204.186C171.05 204.428 171.393 204.754 171.619 205.165C171.844 205.573 171.957 206.026 171.957 206.523C171.957 206.96 171.879 207.321 171.723 207.607C171.571 207.892 171.369 208.117 171.117 208.283C170.868 208.448 170.598 208.571 170.306 208.651V208.75C170.618 208.77 170.931 208.879 171.246 209.078C171.561 209.277 171.824 209.562 172.036 209.933C172.249 210.304 172.355 210.759 172.355 211.295C172.355 211.806 172.239 212.265 172.007 212.673C171.775 213.08 171.408 213.403 170.908 213.642C170.407 213.881 169.756 214 168.954 214H165.275ZM166.508 212.906H168.954C169.759 212.906 170.331 212.75 170.669 212.439C171.011 212.124 171.181 211.743 171.181 211.295C171.181 210.951 171.093 210.633 170.918 210.341C170.742 210.046 170.492 209.811 170.167 209.635C169.842 209.456 169.458 209.366 169.014 209.366H166.508V212.906ZM166.508 208.293H168.795C169.166 208.293 169.501 208.22 169.799 208.074C170.101 207.928 170.339 207.723 170.515 207.457C170.694 207.192 170.784 206.881 170.784 206.523C170.784 206.075 170.628 205.696 170.316 205.384C170.005 205.069 169.511 204.912 168.835 204.912H166.508V208.293ZM174.381 214V203.818H180.486V204.912H175.613V208.352H180.028V209.446H175.613V214H174.381ZM190.791 207H189.558C189.485 206.645 189.357 206.334 189.175 206.065C188.996 205.797 188.777 205.571 188.518 205.389C188.263 205.204 187.98 205.064 187.668 204.972C187.357 204.879 187.032 204.832 186.694 204.832C186.077 204.832 185.519 204.988 185.018 205.3C184.521 205.611 184.125 206.07 183.83 206.677C183.539 207.283 183.393 208.027 183.393 208.909C183.393 209.791 183.539 210.535 183.83 211.141C184.125 211.748 184.521 212.207 185.018 212.518C185.519 212.83 186.077 212.986 186.694 212.986C187.032 212.986 187.357 212.939 187.668 212.847C187.98 212.754 188.263 212.616 188.518 212.434C188.777 212.248 188.996 212.021 189.175 211.753C189.357 211.481 189.485 211.17 189.558 210.818H190.791C190.698 211.339 190.529 211.804 190.283 212.215C190.038 212.626 189.733 212.976 189.369 213.264C189.004 213.549 188.595 213.766 188.141 213.915C187.69 214.065 187.208 214.139 186.694 214.139C185.826 214.139 185.053 213.927 184.377 213.503C183.701 213.079 183.169 212.475 182.781 211.693C182.393 210.911 182.2 209.983 182.2 208.909C182.2 207.835 182.393 206.907 182.781 206.125C183.169 205.343 183.701 204.74 184.377 204.315C185.053 203.891 185.826 203.679 186.694 203.679C187.208 203.679 187.69 203.754 188.141 203.903C188.595 204.052 189.004 204.271 189.369 204.559C189.733 204.844 190.038 205.192 190.283 205.603C190.529 206.011 190.698 206.476 190.791 207Z" fill="black"/>
</g>
</g>
<defs>
<filter id="filter0_d_494_1575" x="59" y="51" width="88" height="88" filterUnits="userSpaceOnUse" color-interpolation-filters="sRGB">
<feFlood flood-opacity="0" result="BackgroundImageFix"/>
<feColorMatrix in="SourceAlpha" type="matrix" values="0 0 0 0 0 0 0 0 0 0 0 0 0 0 0 0 0 0 127 0" result="hardAlpha"/>
<feOffset dy="4"/>
<feGaussianBlur stdDeviation="2"/>
<feComposite in2="hardAlpha" operator="out"/>
<feColorMatrix type="matrix" values="0 0 0 0 0 0 0 0 0 0 0 0 0 0 0 0 0 0 0.25 0"/>
<feBlend mode="normal" in2="BackgroundImageFix" result="effect1_dropShadow_494_1575"/>
<feBlend mode="normal" in="SourceGraphic" in2="effect1_dropShadow_494_1575" result="shape"/>
</filter>
<filter id="filter1_d_494_1575" x="119" y="146" width="88" height="88" filterUnits="userSpaceOnUse" color-interpolation-filters="sRGB">
<feFlood flood-opacity="0" result="BackgroundImageFix"/>
<feColorMatrix in="SourceAlpha" type="matrix" values="0 0 0 0 0 0 0 0 0 0 0 0 0 0 0 0 0 0 127 0" result="hardAlpha"/>
<feOffset dy="4"/>
<feGaussianBlur stdDeviation="2"/>
<feComposite in2="hardAlpha" operator="out"/>
<feColorMatrix type="matrix" values="0 0 0 0 0 0 0 0 0 0 0 0 0 0 0 0 0 0 0.25 0"/>
<feBlend mode="normal" in2="BackgroundImageFix" result="effect1_dropShadow_494_1575"/>
<feBlend mode="normal" in="SourceGraphic" in2="effect1_dropShadow_494_1575" result="shape"/>
</filter>
<filter id="filter2_d_494_1575" x="181" y="51" width="88" height="88" filterUnits="userSpaceOnUse" color-interpolation-filters="sRGB">
<feFlood flood-opacity="0" result="BackgroundImageFix"/>
<feColorMatrix in="SourceAlpha" type="matrix" values="0 0 0 0 0 0 0 0 0 0 0 0 0 0 0 0 0 0 127 0" result="hardAlpha"/>
<feOffset dy="4"/>
<feGaussianBlur stdDeviation="2"/>
<feComposite in2="hardAlpha" operator="out"/>
<feColorMatrix type="matrix" values="0 0 0 0 0 0 0 0 0 0 0 0 0 0 0 0 0 0 0.25 0"/>
<feBlend mode="normal" in2="BackgroundImageFix" result="effect1_dropShadow_494_1575"/>
<feBlend mode="normal" in="SourceGraphic" in2="effect1_dropShadow_494_1575" result="shape"/>
</filter>
<filter id="filter3_dd_494_1575" x="59.752" y="47.3391" width="87.1825" height="84.8755" filterUnits="userSpaceOnUse" color-interpolation-filters="sRGB">
<feFlood flood-opacity="0" result="BackgroundImageFix"/>
<feColorMatrix in="SourceAlpha" type="matrix" values="0 0 0 0 0 0 0 0 0 0 0 0 0 0 0 0 0 0 127 0" result="hardAlpha"/>
<feOffset dx="2.47712" dy="2.47712"/>
<feGaussianBlur stdDeviation="9.2892"/>
<feColorMatrix type="matrix" values="0 0 0 0 0.6512 0 0 0 0 0.66896 0 0 0 0 0.74 0 0 0 0.5 0"/>
<feBlend mode="normal" in2="BackgroundImageFix" result="effect1_dropShadow_494_1575"/>
<feColorMatrix in="SourceAlpha" type="matrix" values="0 0 0 0 0 0 0 0 0 0 0 0 0 0 0 0 0 0 127 0" result="hardAlpha"/>
<feOffset dx="-1.23856" dy="-1.23856"/>
<feGaussianBlur stdDeviation="8.05064"/>
<feColorMatrix type="matrix" values="0 0 0 0 0.979167 0 0 0 0 0.983333 0 0 0 0 1 0 0 0 1 0"/>
<feBlend mode="normal" in2="effect1_dropShadow_494_1575" result="effect2_dropShadow_494_1575"/>
<feBlend mode="normal" in="SourceGraphic" in2="effect2_dropShadow_494_1575" result="shape"/>
</filter>
<filter id="filter4_dd_494_1575" x="169.361" y="47.3391" width="115.514" height="86.8755" filterUnits="userSpaceOnUse" color-interpolation-filters="sRGB">
<feFlood flood-opacity="0" result="BackgroundImageFix"/>
<feColorMatrix in="SourceAlpha" type="matrix" values="0 0 0 0 0 0 0 0 0 0 0 0 0 0 0 0 0 0 127 0" result="hardAlpha"/>
<feOffset dx="2.47712" dy="2.47712"/>
<feGaussianBlur stdDeviation="9.2892"/>
<feColorMatrix type="matrix" values="0 0 0 0 0.6512 0 0 0 0 0.66896 0 0 0 0 0.74 0 0 0 0.5 0"/>
<feBlend mode="normal" in2="BackgroundImageFix" result="effect1_dropShadow_494_1575"/>
<feColorMatrix in="SourceAlpha" type="matrix" values="0 0 0 0 0 0 0 0 0 0 0 0 0 0 0 0 0 0 127 0" result="hardAlpha"/>
<feOffset dx="-1.23856" dy="-1.23856"/>
<feGaussianBlur stdDeviation="8.05064"/>
<feColorMatrix type="matrix" values="0 0 0 0 0.979167 0 0 0 0 0.983333 0 0 0 0 1 0 0 0 1 0"/>
<feBlend mode="normal" in2="effect1_dropShadow_494_1575" result="effect2_dropShadow_494_1575"/>
<feBlend mode="normal" in="SourceGraphic" in2="effect2_dropShadow_494_1575" result="shape"/>
</filter>
<filter id="filter5_dd_494_1575" x="119.824" y="144.339" width="96.3895" height="90.8556" filterUnits="userSpaceOnUse" color-interpolation-filters="sRGB">
<feFlood flood-opacity="0" result="BackgroundImageFix"/>
<feColorMatrix in="SourceAlpha" type="matrix" values="0 0 0 0 0 0 0 0 0 0 0 0 0 0 0 0 0 0 127 0" result="hardAlpha"/>
<feOffset dx="2.47712" dy="2.47712"/>
<feGaussianBlur stdDeviation="9.2892"/>
<feColorMatrix type="matrix" values="0 0 0 0 0.6512 0 0 0 0 0.66896 0 0 0 0 0.74 0 0 0 0.5 0"/>
<feBlend mode="normal" in2="BackgroundImageFix" result="effect1_dropShadow_494_1575"/>
<feColorMatrix in="SourceAlpha" type="matrix" values="0 0 0 0 0 0 0 0 0 0 0 0 0 0 0 0 0 0 127 0" result="hardAlpha"/>
<feOffset dx="-1.23856" dy="-1.23856"/>
<feGaussianBlur stdDeviation="8.05064"/>
<feColorMatrix type="matrix" values="0 0 0 0 0.979167 0 0 0 0 0.983333 0 0 0 0 1 0 0 0 1 0"/>
<feBlend mode="normal" in2="effect1_dropShadow_494_1575" result="effect2_dropShadow_494_1575"/>
<feBlend mode="normal" in="SourceGraphic" in2="effect2_dropShadow_494_1575" result="shape"/>
</filter>
<clipPath id="clip0_494_1575">
<rect x="43" y="21" width="240" height="210" rx="20" fill="white"/>
</clipPath>
</defs>
</svg>
